<?xml version="1.0" encoding="utf-8"?>
<!-- Generator: Adobe Illustrator 26.0.2, SVG Export Plug-In . SVG Version: 6.00 Build 0)  -->
<svg version="1.1" id="图层_1" xmlns="http://www.w3.org/2000/svg" xmlns:xlink="http://www.w3.org/1999/xlink" x="0px" y="0px"
	 width="385px" height="143px" viewBox="0 0 385 143" style="enable-background:new 0 0 385 143;" xml:space="preserve">
<style type="text/css">
	.st0{display:none;fill:none;}
	.st1{fill:#FFFFFF;}
	.st2{fill-rule:evenodd;clip-rule:evenodd;fill:#FFFFFF;}
</style>
<g id="Black_Outline_Layer">
	<rect x="-4.4" y="-28" class="st0" width="94.3" height="170"/>
	<g>
		<path id="University_of_Toronto_Mark_Stacked_1_" class="st1" d="M357.1,82c11.6,0,18.7,9.2,18.7,18.6c0,10.4-9.1,19.1-19.3,19.1
			c-10.6,0-18.2-8.6-18.2-19.1C338.3,90.6,347.1,82,357.1,82 M359,117.3c6.8,0,11-6.7,11-13.1c0-10.3-5.9-19.8-14.7-19.8
			c-7,0-11.2,6.1-11.2,13.3C344.1,107.1,349.5,117.3,359,117.3z M321.3,82.8h-7.8c-3.4,0-5.9,0-7.9-0.1c-1.9-0.1-2.3-0.5-2.6-0.9h-1
			c-0.2,0.4-2.6,7-2.7,7.3l1.2,0.7c1.2-3.2,2.5-4.7,9-4.7c0.5,0,2.6,0,5.2,0.3c0.3,4.7,0.4,9.1,0.4,13.8c0,2.9-0.1,13.7-0.4,16.1
			c-0.2,1.1-0.7,1.6-3.7,2.2c-1.3,0.2-2.1,0.3-2.8,0.3l0.3,1.5c0.9-0.1,2.2-0.2,3.5-0.3c1.5-0.1,3.2-0.2,5.9-0.2c1,0,2.6-0.1,4.1,0
			c1.6,0.1,2.9,0.1,4.8,0.2l0.2-1.6c-0.3,0-0.9-0.1-1.7-0.2c-1-0.2-2.6-0.4-3.3-1.1c-1.2-1.4-1.2-11.1-1.2-13.7
			c0-2.2,0.3-13.7,0.3-16.3c0-1.1,0.3-1.1,3.6-1.1h0.1c1.5-0.1,1.9,0,2.4,0c6.5,0,6.6,1.6,7.8,4.7l1.2-0.7c-0.1-0.3-1.4-6.9-1.6-7.3
			h-1c-0.3,0.3-0.7,0.8-2.6,0.9c-2.5,0.1-5.4,0.1-8.4,0.1L321.3,82.8L321.3,82.8z M261.6,82.7c-1.5,0.1-2.6,0.1-4.4,0.1
			c-0.9,0-1.8,0-2.7-0.1c-0.9-0.1-1-0.1-1.9-0.2v1.6c5.3,1,5.7,1.8,5.5,12.3v6.5c0,2.4-0.2,9.7-0.4,11.8c-0.3,2.3-1.3,2.5-2.6,2.8
			c-0.7,0.2-1.6,0.3-2.1,0.4v1.4c1.4,0,2.7-0.1,4.1-0.2c1.4-0.1,3.2-0.2,4.6-0.2s2.8,0.1,4.1,0.2c1.2,0,2,0.1,2.5,0.2v-1.6
			c-7.2-1.3-7.2-2.2-7.1-8.4V94.1l0.1-2.9c0,0,0,0.1,26.7,28.3h1.9c-0.2-3-0.2-10.7-0.2-14.1c0-4.8,0-17.2,0.2-18.7
			c0.3-2.3,3.5-2.6,5.2-2.6v-1.4c-3.9,0-6,0.1-7.8-0.1c-1.6-0.2-2.8-0.3-3.8-0.3c-0.8,0-1.7-0.1-2.2,0l-0.3,1.4c6,0.3,6,0.9,6,14.6
			c0,1.6-0.1,9.7-0.1,11.1L261.6,82.7z M228.7,82c11.6,0,18.7,9.2,18.7,18.6c0,10.4-9.1,19.1-19.3,19.1c-10.6,0-18.2-8.6-18.2-19.1
			C210,90.6,218.8,82,228.7,82z M230.7,117.3c6.8,0,11-6.7,11-13.1c0-10.3-5.9-19.8-14.7-19.8c-7,0-11.2,6.1-11.2,13.3
			C215.8,107.1,221.2,117.3,230.7,117.3z M171.3,82.5c1.2,0.1,2.2,0.2,3.5,0.2c1.1,0.1,2.2,0.1,3.4,0.1c0.8,0,2.9-0.2,5-0.3
			s3.6-0.2,4.9-0.2c7.7,0,12.6,4.1,12.6,9.7c0,5.1-4.7,8.2-8.3,9.1c7.5,10.9,8.9,12.5,11.8,15.2c0.3,0.3,2.6,2.4,5.4,2.6l-0.1,1.4
			c-6.2,0-9.3-2.4-11-3.7c-5.5-4.3-11-12.9-12-14.7c-1.6,0-2.2,0-4.8-0.2v5.3c0,2.3-0.1,7.6,0.6,9.1c0.4,0.8,3.2,1.6,5,2.2l0.1,1.4
			c-2.2-0.3-5.6-0.6-7.9-0.6c-1.3,0-6.9,0.3-8.1,0.4l-0.3-1.1c0.5-0.1,3.8-0.8,4.7-2.3c0.6-1.4,0.5-9,0.5-11.4v-8.7
			c0-11.2-0.5-11.4-5.1-11.6L171.3,82.5z M181.7,99.5c1.1,0.2,2.8,0.2,3.9,0.2c1.4,0,9,0,9-7.2c0-3.4-2.4-8.3-8.9-8.3
			c-3.8,0-3.8,0.4-3.9,6.6L181.7,99.5z M146.1,82c11.6,0,18.7,9.2,18.7,18.6c0,10.4-9.1,19.1-19.3,19.1c-10.6,0-18.2-8.6-18.2-19.1
			C127.3,90.6,136.1,82,146.1,82z M148,117.3c6.8,0,11-6.7,11-13.1c0-10.3-5.9-19.8-14.7-19.8c-7,0-11.2,6.1-11.2,13.3
			C133.1,107.1,138.5,117.3,148,117.3z M109.5,82.8h-7.8c-3.4,0-5.9,0-7.9-0.1c-1.9-0.1-2.3-0.5-2.6-0.9h-1c-0.2,0.4-2.6,7-2.8,7.3
			l1.2,0.7c1.2-3.2,2.5-4.7,9-4.7c0.5,0,2.6,0,5.2,0.3c0.3,4.7,0.4,9.1,0.4,13.8c0,2.9-0.1,13.7-0.4,16.1c-0.2,1.1-0.7,1.6-3.7,2.2
			c-1.3,0.2-2.1,0.3-2.8,0.3l0.3,1.5c0.9-0.1,2.2-0.2,3.5-0.3c1.5-0.1,3.2-0.2,5.9-0.2c1,0,2.6-0.1,4.1,0c1.6,0.1,2.9,0.1,4.8,0.2
			l0.2-1.6c-0.3,0-0.9-0.1-1.7-0.2c-1-0.2-2.6-0.4-3.3-1.1c-1.2-1.4-1.2-11.1-1.2-13.7c0-2.2,0.3-13.7,0.3-16.3
			c0-1.1,0.3-1.1,3.6-1.1h0.1c1.5-0.1,1.9,0,2.4,0c6.5,0,6.6,1.6,7.8,4.7l1.2-0.7c-0.1-0.3-1.4-6.9-1.6-7.3h-1
			c-0.3,0.3-0.7,0.8-2.6,0.9c-2.5,0.1-5.4,0.1-8.4,0.1L109.5,82.8L109.5,82.8z M343.5,50.9c-2.3,0.3-2.9,0.3-5.5,0.3h-2.8l-2.8-0.1
			l-0.9,0.1l-0.8,0.1v0.1v0.6h0.1c0.7,0,1.4,0.1,1.6,0.5c0.4,0.6,0.4,1.3,0.4,7c0,2.7-0.3,5.7-0.3,6.2c-0.2,0.6-1,0.9-1.6,0.9h-0.1
			l-0.1,0.9h0.2c1.6-0.1,3.4-0.2,3.8-0.2h1.4l2.6,0.1v-0.2v-0.8h-0.2c-1.9-0.2-2.5-0.5-2.7-0.8c-0.2-0.3-0.3-1.2-0.3-2.2
			c0-0.3,0-0.6,0-0.9c0,0,0.1-2.4,0.1-3c0.2,0,1.3-0.1,1.3-0.1c1.5,0,3.3,0.3,3.7,0.5c0.3,0.1,0.5,0.6,0.6,1.3v0.1h0.8v-0.1
			c0.2-1.6,0.1-3.4,0.1-4.6v-0.2h-0.9v0.1c-0.2,1.2-0.3,1.6-3.5,1.6c-0.9,0-1.2,0-2.2-0.2c0,0,0,0-0.1,0c0-0.3,0-0.6,0-0.9
			c0-0.3,0-0.8,0-1.1c0,0,0.1-3.4,0.1-3.9c0.9-0.1,1.7-0.2,1.9-0.2c1.7,0,3.3,0.3,4,0.8c0.5,0.3,0.7,1,0.9,1.6v0.1l0.9-0.1v-0.2
			c0-0.3,0-1.1,0.1-1.9l0.1-1.7L343.5,50.9z M319,50.7c5.3,0,8.5,4.2,8.5,8.3c0,4.6-4.1,8.5-8.8,8.5c-4.7,0-8.3-3.7-8.3-8.5
			C310.4,54.6,314.4,50.7,319,50.7z M319.7,66.2c2.9,0,4.8-2.9,4.8-5.6c0-4.2-2.4-8.5-6.4-8.5c-3.2,0-4.9,2.8-4.9,5.7
			C313.3,61.9,315.7,66.2,319.7,66.2z M288.7,51.1v0.8h0.2c0.8,0,1.9,0.1,1.9,0.8c0,0.2-0.3,1.1-3.4,5.6c-1.3-1.6-4.2-5.3-4.2-5.8
			c0-0.2,0-0.3,1.8-0.4h0.2v-0.9h-1.6l-2.9,0.1h-3.2v0.2v0.6h0.2c0.8,0,1.3,0.1,1.6,0.3c0.9,0.7,4.5,5.1,4.6,5.3c0,0,1.4,1.8,1.6,2
			c0.1,1.1,0.2,2.4,0.2,4c0,2.4,0,2.9-2.2,3h-0.1l-0.1,0.8h0.2c0.3,0,1.4-0.1,2.4-0.2l1.7-0.1l1.3,0.1h0.3l1.7,0.1v-0.2v-0.7h-0.1
			c-2.2-0.2-2.2-0.5-2.2-0.9v-0.2c-0.1-1-0.1-2.1-0.1-3.3c0-0.9,0-1.9,0.1-2.9c0.1-0.1,3.2-4.8,3.2-4.8c1-1.6,1.6-2.4,3.7-2.4h0.1
			v-0.9h-0.1c-0.3,0-1.1,0-1.9,0.1l-1,0.1l-1.2-0.1l-0.9-0.1h-1.2h-0.2L288.7,51.1L288.7,51.1z M274.3,50.6h-0.5v0.1
			c-0.1,0.1-0.3,0.3-1,0.3h-3.3h-4.6h-3.5c-0.9,0-1-0.3-1-0.3v-0.1h-0.6v0.1c-0.1,0.2-1.2,3-1.2,3.2V54l0.8,0.4l0.1-0.2
			c0.5-1.4,1-2,3.9-2c0.9,0,1.6,0.1,2.2,0.1c0.2,2.2,0.2,4.3,0.2,6c0,1.6-0.1,6-0.2,7.1c-0.1,0.3-0.2,0.6-1.6,0.9l-1,0.2l-0.3,0.1
			l0.2,0.9l1.4-0.1h0.3l2.6-0.1h0.4h1.5h1.1h1.2v-0.1l0.1-0.8l-0.7-0.1h-0.2c-0.7-0.1-1.2-0.3-1.4-0.4s-0.5-1.2-0.5-6l0.1-3.4
			l0.1-3.8c0-0.3,0-0.3,1.5-0.3h0.1h0.9h0.2c2.6,0,2.8,0.5,3.3,1.7l0.2,0.3l0.8-0.4l-0.2-0.9c-0.3-1.3-0.5-2.3-0.5-2.5v-0.1
			L274.3,50.6L274.3,50.6z M247.3,51.1v0.9h0.1c2.2,0.1,2.5,0.5,2.7,0.9c0.3,0.7,0.3,5.3,0.3,7v0.3c0,1.4,0,4.7-0.4,5.4
			c-0.2,0.3-0.7,0.7-2.8,0.9h-0.1v0.9l2.6-0.1h2.3l3.9,0.1v-0.2l-0.1-0.8h-0.1c-1.7,0-2.2,0-2.5-0.7c-0.1-0.3-0.2-1.9-0.2-4.6
			c0-6.3,0-8,0.3-8.6c0.4-0.7,1.9-0.6,2.4-0.6h0.2v-0.9h-1.9l-2.7,0.1l-1.8-0.1h-0.8h-1.4h-0.2L247.3,51.1L247.3,51.1z M232.9,55.5
			c0,2.8,2.3,3.7,4.1,4.4l0.2,0.1c2.9,1.2,4.3,1.7,4.3,3.8c0,1.2-0.9,2.5-2.8,2.5c-1.7,0-3-0.8-3.8-1.4c-0.9-0.8-1.2-1.9-1.3-2.3
			v-0.1h-0.9l0.1,0.2c0.5,1.8,0.7,2.6,0.7,4.6v0.1l0.8,0.1v-0.1c0-0.1,0.2-0.4,0.3-0.4c0.2,0,0.8,0.2,0.9,0.2h0.1l0.3,0.1
			c0.4,0.1,0.9,0.3,2,0.3c4,0,6.1-2.4,6.1-4.7c0-3.2-3.1-4.4-5.2-5.3c-2-0.8-3.5-1.5-3.5-3c0-1.6,1.2-2.7,3-2.7c1.6,0,2.8,0.9,3,1.2
			c0.7,0.6,0.9,1.3,0.9,2V55h0.1h0.7l-0.3-2.2c0-0.8,0.2-1.6,0.3-1.9v-0.2l-0.7-0.1c0,0-0.4,0.3-0.5,0.3c-1.5-0.4-2.2-0.5-3.3-0.5
			C235.3,50.8,232.9,52.7,232.9,55.5z M221.5,50.8c3.4,0,5.8,1.8,5.8,4.4c0,2.1-1.8,3.5-3.6,4.1c3.3,4.6,3.9,5.3,5.2,6.5
			c0.1,0,1,1,2.3,1.1h0.2l-0.1,0.9h-0.1c-2.8,0-4.2-1-5-1.6c-2.5-1.9-4.9-5.7-5.3-6.5c-0.2,0-1.7-0.1-1.9-0.1c0,0.3,0,2.2,0,2.2
			s0,0.6,0,0.8c0,1.1,0,2.7,0.3,3.2c0.2,0.3,1.5,0.7,2.2,0.9h0.1l0.1,0.9h-0.2c-0.9-0.2-2.5-0.3-3.5-0.3c-0.5,0-3,0.2-3.6,0.2h-0.1
			l-0.2-0.7h0.2c0.3-0.1,1.6-0.3,2-0.9c0.3-0.5,0.3-3.4,0.3-4.6v-0.3v-3.8c0-4.8-0.2-4.9-2.2-5H214l0.1-0.9h0.3l1.5,0.1h1.5
			c0.3,0,1.3-0.1,2.2-0.2l0,0l0,0L221.5,50.8z M218.9,58.5c0.5,0.1,1.2,0.1,1.6,0.1c1.5,0,3.9-0.4,3.9-3c0-1.4-1-3.5-3.8-3.5
			c-1.6,0-1.6,0.1-1.6,2.8C218.9,54.8,218.9,58.2,218.9,58.5z M209.3,50.9c-2,0.1-5.1,0.2-7.2,0.2c-1.3,0-4.4-0.1-5.6-0.1h-0.2v0.8
			h0.1c1.4,0.3,1.5,0.3,1.6,0.6c0.2,0.3,0.3,1.8,0.3,6.7c0,2.1-0.2,5.4-0.3,6.6c-0.1,0.5-0.8,0.7-1.9,0.9h-0.2l0.1,0.9h0.1
			c2.2-0.3,4.8-0.3,6.4-0.3l6.5,0.1l0.1-0.1c0.3-0.5,0.9-1.4,1.2-4V63l-0.8-0.1V63c-0.5,1.5-1.6,3-5.6,3c-1.4,0-2-0.2-2.8-0.5
			c-0.1-0.4-0.2-1.1-0.2-3.1c0,0,0-2.4,0-3c1-0.2,2-0.2,2.4-0.2c3.2,0,3.5,0.3,3.9,2.2v0.1h0.8v-0.2c0-2.2,0-2.7,0.1-4.9v-0.2h-0.9
			v0.1c-0.3,1.2-0.6,1.4-1,1.5c-2.3,0.3-4.6,0.2-5.1,0.2c0-0.2-0.1-2.2-0.1-2.2c0-1,0.1-2.7,0.3-3.8c0.9-0.2,2.4-0.3,3.1-0.3
			c1.8,0,2.8,0.3,3.3,0.7c0.4,0.4,0.4,1,0.3,1.7v0.1l0.9,0.1v-0.2c0-0.2,0.1-0.8,0.2-1.3l0.1-0.6c0.1-0.9,0.1-1.2,0.1-1.6v-0.2
			L209.3,50.9z M174.2,51.1l0.1,0.7h0.1c2.2,0.3,2.2,0.3,4.1,3.9l3.6,7.4v0.1c0.6,1.3,1.6,3.3,1.9,4.4v0.1h0.8v-0.1
			c0.5-1.6,0.9-2.8,2.2-5.3l4-7.7c0.9-1.8,1.3-2.2,3.1-2.7h0.1v-0.9H194c-1,0-2,0-3,0l-3.1-0.1v0.1l-0.1,0.9h0.2
			c0.8,0,1.9,0.1,1.9,0.9c0,0.5-0.3,1.3-0.6,1.8l-0.1,0.2c-0.8,1.8-1.3,2.8-1.8,3.9l-1.8,3.7c0,0-0.3,0.6-0.4,0.9
			c-1.7-2.8-5-10.4-5-11c0-0.2,0.1-0.3,1.4-0.3l0.4-0.1v-0.9h-2.5H178C177.1,51.2,175.2,51.2,174.2,51.1l-0.2,0L174.2,51.1z
			 M163.3,51.1v0.9h0.2c2.2,0.1,2.5,0.5,2.7,0.9c0.3,0.7,0.3,5.3,0.3,7v0.3c0,1.4,0,4.7-0.4,5.4c-0.2,0.3-0.7,0.7-2.8,0.9h-0.1v0.9
			l2.6-0.1h2.3l3.9,0.1v-0.2l-0.1-0.8h-0.1c-1.7,0-2.2,0-2.5-0.7c-0.1-0.3-0.2-1.9-0.2-4.6c0-6.3,0-8,0.3-8.6
			c0.4-0.7,1.9-0.6,2.4-0.6h0.2v-0.9h-1.9l-2.7,0.1l-1.8-0.1h-0.8h-1.4h-0.2L163.3,51.1L163.3,51.1z M154,50.8L154,50.8L154,50.8
			l-0.3,0.9h0.2c3.1,0.2,2.7,0.3,2.8,6.7c0,0,0,3.9,0,4.4c-0.3-0.3-11.2-11.7-11.2-11.7V51h-1.8h-1.2h-0.1l-1.1-0.1v0.2v0.8h0.1
			c2.2,0.4,2.6,0.7,2.5,5.3v2.8c0,1-0.1,4.2-0.3,5.2c-0.1,0.9-0.4,1-1,1.1l-1,0.3v0.1v0.8l3.8-0.2l1.8,0.1l1.3,0.1v-0.2v-0.8h-0.1
			c-3.1-0.5-3.1-0.9-3-3.5l0.1-6.7c0,0,0-0.6,0-0.9c0.6,0.6,11.7,12.2,11.6,12.2v0.1h1v-0.2c-0.1-1.3-0.1-4.7-0.1-6.1
			c0-2.2,0.1-7.3,0.2-7.9c0.2-1.1,1-1.4,2-1.4h0.2V51h-0.2c-1.7,0-2.6,0.1-3.4,0l-0.5-0.1l-1.2-0.1L154,50.8z M124.5,51h-0.9
			c-1.1,0-3.4,0-3.6,0.1h-0.1l0.1,0.9h0.1c1,0,1.4,0,1.6,0.2c0.3,0.2,0.5,2.1,0.5,4.6l-0.2,5.3c0,3.6,2.3,5.6,6.7,5.6
			c7,0,7.3-3.7,7.5-11.5v-2.3v-0.1c0-1.1,0.1-1.6,1.9-1.7h0.1l0.1-0.9H138l-2.8,0.1L133,51h-0.9v0.2v0.8h0.2c0.8,0,1.6,0.1,2,0.4
			c0.5,0.5,0.7,2.7,0.7,3.8v1.5c0,5.3-0.3,8.6-5.3,8.6c-4.6,0-4.6-3.6-4.6-5.3v-3c0-5.6,0.2-5.6,2.7-5.9h0.1v-0.9h-0.1
			C127,51,125.6,51,124.5,51z"/>
		<g>
			<g>
				<g>
					<path class="st1" d="M24.3,23.3c-0.5,0.2-0.9,0.5-0.9,1c-0.3,0-0.8,0-1.1,0.3c-0.4,0.3-0.6,0.7-0.8,1.2v0.3
						c0,0.5,0.3,1.2,1.2,1.7c0,0.1,0,0.2,0,0.2c0,0.3,0.1,0.8,0.5,1.1c0.3,0.2,0.4,0.3,0.7,0.4c-0.1,0.2-0.1,0.5-0.1,0.5l0.1,0.6
						c0.2,0.6,0.7,1.2,1.8,1.3c0.1,0.3,0.2,0.5,0.4,0.8c0.3,0.3,0.9,0.6,1.7,0.3c-0.1,0.2-0.2,0.4-0.2,0.7c0,0.3,0.1,0.8,0.3,1.1
						c0.7,1,1.9,0.5,2.7,0.2c0.3,0.4,0.9,0.7,1.6,0.5c1-0.2,1.6-0.9,1.8-1.5c0.1,0,0.8-0.1,0.8-0.1l0.1-0.1c0.4-0.3,0.8-0.9,1.1-1.6
						c0.8,0.7,1.4,1.6,1.5,1.8c0.1,0.3,0.4,0.9,1.3,2.2c0,0,0.6,1,0.8,1.3c-0.3,1.4-0.9,2.3-1.8,2.8l-0.5,0.3
						c-1.2,0.6-2.6,1.3-3.5,2l0,0c-0.6,0-1,0.2-1.3,0.3c-0.3-0.2-0.9-0.3-1.3-0.3c-1.6,0-2.4,0.9-2.7,1.5c-0.5,1-0.3,2.3,0.1,3
						c0.6,0.9,1.5,1.3,2.6,1.3c0.4,0,0.9-0.1,1.2-0.3c0.3,0.2,0.7,0.3,1.2,0.3c0.4,0,0.9-0.1,1.3-0.3c0.3,0.2,0.8,0.3,1.1,0.3
						c0.4,0,0.8-0.1,1.1-0.3c0.3,0.1,0.7,0.3,1.1,0.3c0.6,0,0.9-0.2,1.2-0.3c0.3,0.2,0.7,0.3,1.1,0.3c0.4,0,0.8-0.1,1.1-0.3
						c0.3,0.1,0.7,0.3,1.1,0.3c0.6,0,0.9-0.1,1.2-0.3c0.3,0.2,0.7,0.3,1.1,0.3s0.8-0.1,1.1-0.3c0.3,0.1,0.7,0.3,1.1,0.3
						c0.6,0,0.9-0.2,1.2-0.3c0.3,0.2,0.7,0.3,1.1,0.3c0.4,0,0.8-0.1,1.1-0.3c0.3,0.1,0.7,0.3,1.1,0.3c0.6,0,1-0.2,1.3-0.3
						c0.3,0.2,0.9,0.3,1.4,0.3c1.3,0,2.2-0.5,2.8-1.6c0.5-1,0.3-2.3-0.2-2.9c-0.6-0.9-1.5-1.3-2.6-1.3c-0.4,0-0.8,0.1-1.2,0.3
						c-0.1,0-0.3-0.1-0.4-0.1c-0.5-0.7-1.3-1.1-2.9-1.8l-0.3-0.1c-1.8-0.8-2.2-1.4-2.5-2l-0.3-0.5c-0.1-0.2-0.3-1.2-0.3-2.5
						c0-0.9,0.2-2.2,0.8-3.1c0.3-0.5,0.8-0.9,1.3-1.3c0.2,0.5,0.3,0.9,0.5,1.1l0,0l0.1,0.1l0.8,0.4l-0.1-0.2
						c0.3,0.8,0.8,1.6,1.7,1.7c0.3,0.1,0.6-0.1,0.9-0.2c0.3,0.3,0.8,0.5,1.3,0.5s0.9-0.3,1-0.4c1,0.2,1.6-0.3,1.9-0.7l0.3-0.9v-0.1
						c0-0.3-0.2-0.6-0.3-0.9c0.1,0,0.1,0,0.1,0c0.3-0.2,0.4-0.3,0.6-0.6c0.9-0.1,1.2-0.5,1.4-0.9c0,0,0.1-0.2,0.1-0.3
						c0,0,0,0,0.1-0.1c0.4,0.2,0.9,0.3,1.5,0c0.3-0.2,0.6-0.5,0.8-0.9c0.3,0,0.9,0,1.2-0.3c0.4-0.3,0.7-0.8,0.8-1.3v-0.3
						c0-0.5-0.3-1.5-1.6-1.9c-0.1-0.3-0.2-0.8-0.5-1c-0.7-0.7-1.6-0.6-2.2-0.3c0.2-0.2,0.3-0.3,0.4-0.5c0.8,0.2,2.2,0.3,2.8-0.8
						l0.2-0.6c0-0.1-0.1-0.3-0.1-0.5c0.8-0.6,0.9-1.2,0.9-1.6l-0.2-0.9c-0.3-0.9-1-1.1-1.9-1c-0.1-0.2-0.1-0.3-0.3-0.5
						c0,0-0.1,0-0.1-0.1c0.1-0.3,0.2-0.6,0.2-0.6l-0.3-0.6c-0.2-0.5-0.5-0.9-0.9-1c-0.3-0.2-0.8-0.2-1.3,0c0.3-0.3,0.7-0.7,0.7-1.1
						v-0.3l0,0c0-0.4-0.2-0.8-0.4-1.1c-0.5-0.7-1.3-0.9-2.2-0.6c-0.2-0.2-0.4-0.4-0.9-0.5c-0.8-0.2-1.5,0.3-1.9,0.7
						c-0.2-0.1-0.4-0.3-0.4-0.3h-0.1c0,0-0.1,0-0.3,0c0-0.4-0.2-0.9-0.5-1.2c-0.4-0.4-0.9-0.7-1.6-0.7c-0.2,0-0.4,0.1-0.6,0.1
						c0.3-0.3,0.3-0.7,0.3-0.9l-0.2-0.7C50.4,8.3,50,8,49.8,7.9l0,0c0-1.5-0.9-1.8-1.4-2c-0.8-0.2-1.5,0.1-2.1,0.8
						c-0.2-0.1-0.3-0.1-0.4-0.2c-0.3-0.3-0.7-0.6-1.2-0.7c-1.3-0.2-1.7,0.9-2,1.6c-0.3,0-0.5,0-0.9,0.2c0,0-0.2,0.3-0.4,0.4
						C41.3,8,41.3,8,41.2,8c-0.2-1.2-0.9-1.6-1.2-1.8c-0.3-0.1-0.7-0.1-0.9,0c-1-1-1.9-1-2.5-0.8l0,0C36,5.7,35.6,6.3,35.6,7
						c0,0,0.1,0.5,0.2,0.9c0.1,0.1-0.1,0.3-0.2,0.4c-0.6-0.2-1.2-0.1-1.8,0.3C33.3,9,33,9.6,33,10.2c0,0.5,0.2,0.9,0.3,1.3
						c-0.3,0.3-0.5,0.6-0.5,0.9v0.3c0,0,0.1,0.3,0.1,0.4c-0.4,0.1-0.9,0.3-1.3,0.6c-0.3,0.3-0.3,0.6-0.4,0.9
						c-0.3-0.8-0.8-1.2-1.5-1.3c-0.3,0-0.7,0.2-0.9,0.4c-0.6-0.4-1.2-0.4-1.6-0.3c-0.4,0.2-1.1,0.7-1.1,1.9c0,0,0,0.3,0.1,0.6
						c-0.3,0.2-0.5,0.3-0.6,0.7l0,0c0,0,0,0,0,0.1l0,0c0,0.1-0.1,0.3-0.1,0.5l0,0c0,0.3,0.2,0.7,0.3,0.9l0,0
						c-0.2,0.1-0.7,0.3-0.9,0.9c-0.6,0.1-1.1,0.4-1.5,1c0,0.1-0.3,0.9-0.3,0.9v0.1l0.2,0.8c0.2,0.4,0.5,0.7,0.9,0.9
						c0,0,0.1,0.1,0.1,0.2S24.3,23.3,24.3,23.3z M25,22.6l-0.3-0.2c-0.5-0.3-0.8-0.4-0.9-0.8c0,0-0.1-0.4-0.2-0.6
						c0-0.1,0.2-0.9,0.2-0.9v0.2c0.3-0.5,0.6-0.7,1.1-0.7h0.3l0.1-0.3c0.1-0.4,0.4-0.6,0.5-0.7l1-0.2l-0.4-0.4
						c-0.3-0.3-0.5-0.6-0.5-0.9l0.1-0.3c0.1-0.3,0.3-0.3,0.6-0.5l0.2-0.1l-0.1-0.9c0-0.6,0.3-1,0.8-1.2c0.3-0.2,0.8-0.1,1.1,0.3
						l0.3,0.3l0.2-0.3c0.2-0.3,0.4-0.4,0.7-0.3c0.3,0,0.8,0.2,1,1.2l0.1,0.3c0,0,0.3-0.2,0.5-0.1c0.2,0.1,0.4,0.3,0.4,0.3l0.2-0.3
						l-0.1-0.6l0,0c0-0.3,0.1-0.4,0.3-0.7c0.3-0.3,0.7-0.5,1.2-0.5h0.4l-0.2-0.5l-0.1-0.6v-0.2c0-0.3,0.2-0.4,0.5-0.7l0.3-0.2
						l-0.1-0.3c-0.2-0.3-0.3-0.8-0.3-1.2c0-0.4,0.2-0.8,0.5-1c0.3-0.3,0.8-0.4,1.5-0.2l0.3,0.1l-0.1-0.1c0.1-0.2,0.3-0.3,0.5-0.4
						l0.3-0.1l-0.1-0.3l-0.2-0.9c0-0.3,0.1-0.8,0.6-0.9c0.6-0.3,1.2,0,1.9,0.8l0.2,0.2l0.1-0.2c0.3-0.1,0.4-0.1,0.7,0
						c0.4,0.2,0.7,0.6,0.8,1.4v0.2l0.3,0.1l0.2,0.1l0.3,0.3L41.7,9L42,8.6l0.3-0.3c0.3-0.2,0.4-0.2,0.7-0.1l0.3,0.1l0.2-0.3
						c0.3-0.9,0.7-1.6,1.4-1.5c0.3,0,0.6,0.2,0.9,0.5l0.1,0.1H46c0.2,0,0.3,0.1,0.5,0.2l0.3,0.2l0.2-0.3c0.5-0.6,1-0.9,1.6-0.7
						c0.4,0.1,0.9,0.4,0.9,1.3v0.4l0.3,0.1c0.3,0.1,0.5,0.3,0.8,0.7l0.2,0.5c0,0.3-0.2,0.6-0.6,0.9l-0.3,0.2l0.1,0.2l0.2,0.9
						l0.4-0.3c0.3-0.3,0.7-0.4,0.9-0.4c0.3,0,0.8,0.2,1,0.5c0.3,0.3,0.4,0.5,0.4,0.9l-0.1,0.5l0.5,0.1l0.3-0.1L54,13l0.2,0.2
						l0.2-0.2c0.4-0.4,0.9-0.8,1.5-0.7c0.3,0.1,0.5,0.3,0.7,0.4l0.2,0.2l0.3-0.1c0.8-0.3,1.4-0.1,1.7,0.3c0.2,0.2,0.3,0.4,0.3,0.7
						v0.3c-0.1,0.3-0.3,0.5-0.7,0.9L58,15.1l0.2,1l0.3-0.1c0.5-0.2,0.9-0.2,1.2-0.1c0.3,0.1,0.5,0.3,0.6,0.6l0.1,0.6
						c0-0.1-0.2,0.5-0.2,0.5l-0.1,0.3l0.2,0.2l0.2,0.2c0,0.1,0.1,0.3,0.1,0.4l0.1,0.3l0.3-0.1c0.8-0.2,1.2,0,1.5,0.6l0.2,0.8
						c0,0.4-0.3,0.9-0.9,1.2l-0.2,0.2l0.1,0.3l0.1,0.4l-0.1,0.4c-0.3,0.7-1.3,0.5-2.2,0.3l-0.3-0.1l-0.1,0.4
						c-0.1,0.3-0.3,0.4-0.6,0.6l-0.3,0.1l0.1,0.3l0.1,0.3V25l-0.2,0.7l0.6-0.3c0.9-0.5,1.6-0.6,2-0.1c0.3,0.3,0.3,0.5,0.3,0.8v0.3
						l0.3,0.1c0.9,0.3,1.4,0.7,1.4,1.4V28c-0.1,0.3-0.3,0.6-0.5,0.9c-0.3,0.3-0.7,0.3-1,0.2h-0.3L61,29.3c-0.1,0.3-0.3,0.6-0.5,0.7
						c-0.3,0.2-0.8,0.1-1.1-0.1l-0.2-0.1L59,30l-0.3,0.3l-0.1,0.1l-0.1,0.3c-0.2,0.3-0.4,0.5-0.9,0.5h-0.3l-0.1,0.2
						c-0.1,0.2-0.2,0.3-0.3,0.4l-0.3,0.1L56.4,32l-0.1,0.4l0.1,0.2c0.2,0.2,0.3,0.3,0.3,0.7c0,0.1-0.3,0.7-0.3,0.7
						c-0.2,0.2-0.5,0.5-1.4,0.3h-0.2l-0.1,0.2c-0.2,0.2-0.3,0.3-0.8,0.3c-0.4,0-0.7-0.2-1-0.4l-0.2-0.2l-0.2,0.2
						c-0.2,0.2-0.4,0.2-0.7,0.2c-0.6-0.1-0.9-0.7-1.2-1.4l-0.1-0.1h-0.2l-0.9-0.7c-0.1-0.1-0.3-0.3-0.4-1.3l-0.1-0.4l-0.3,0.2
						c-0.7,0.4-1.4,1-1.9,1.7c-0.7,1.1-0.9,2.5-0.9,3.5c0,1.3,0.3,2.5,0.4,2.8l0.1,0.1c0.3,0.6,0.8,1.5,2.8,2.2l0.3,0.1
						c1.7,0.8,2.4,1,2.8,1.6l0.1,0.1l0.9,0.3l0.1-0.1c0.3-0.2,0.7-0.3,1-0.3c0.9,0,1.6,0.3,2.1,1c0.3,0.5,0.5,1.5,0.1,2.3
						c-0.3,0.8-1.1,1.2-2.2,1.1c-0.3,0-0.8-0.1-1.2-0.3l-0.2-0.1L53,47.2c-0.3,0.1-0.5,0.3-1.1,0.3c-0.3,0-0.7-0.1-0.9-0.3l-0.2-0.1
						l-0.2,0.1c-0.3,0.2-0.6,0.3-1,0.3c-0.3,0-0.6-0.2-0.9-0.3l-0.2-0.1l-0.2,0.1c-0.2,0.1-0.5,0.3-1.1,0.3c-0.3,0-0.7-0.1-0.9-0.3
						l0.1,0.1l-0.2,0.1c-0.3,0.2-0.6,0.3-1,0.3c-0.3,0-0.6-0.2-0.9-0.3l-0.2-0.1l-0.2,0.1c-0.1,0.1-0.4,0.3-0.9,0.3
						c-0.3,0-0.6-0.1-0.9-0.3l-0.2-0.1l-0.2,0.1c-0.3,0.2-0.6,0.3-1,0.3c-0.3,0-0.6-0.2-0.9-0.3l-0.2-0.1v0.1
						c-0.2,0.1-0.5,0.3-1.1,0.3c-0.3,0-0.7-0.1-0.9-0.3l-0.2-0.1l-0.2,0.1c-0.2,0.2-0.5,0.3-0.9,0.3c-0.3,0-0.6-0.2-0.9-0.3
						l-0.2-0.1l-0.2,0.1c-0.3,0.2-0.8,0.3-1.2,0.3c-0.3,0-0.7-0.1-1-0.3l-0.1-0.1l-0.2,0.1c-0.3,0.2-0.7,0.3-1,0.3
						c-0.9,0-1.6-0.3-2.1-1c-0.3-0.5-0.4-1.6-0.1-2.3c0.3-0.4,0.8-1.1,2.2-1.1c0.3,0,0.8,0.1,1.2,0.3l0.2,0.1l0.2-0.1
						c0.3-0.1,0.5-0.3,1.1-0.3h0.3l0.1-0.1c0.9-0.7,2.5-1.5,3.5-2l0.5-0.3c1.1-0.6,1.9-1.7,2.2-3.4v-0.1l-0.9-1.6
						c-0.8-1.2-1.1-1.8-1.2-2.1c-0.2-0.3-1-1.6-2-2.3l-0.5-0.2l-0.2,0.4c-0.3,1.1-0.8,1.6-1,1.6c0,0-0.3,0.1-0.5,0.1
						c-0.1-0.1-0.3-0.3-0.3-0.3l-0.2,0.5c-0.3,0.6-0.6,1.2-1.5,1.4c-0.3,0.1-0.8,0.1-1-0.4l-0.2-0.3l-0.3,0.2
						c-0.9,0.4-1.6,0.7-2.1,0.2c-0.2-0.3-0.3-0.5-0.3-0.8c0-0.4,0.2-0.8,0.6-1.2l-0.3-0.5c-0.9,0.6-1.5,0.7-2,0.3
						c-0.3-0.2-0.3-0.4-0.3-0.6l-0.1-0.3h-0.3c-0.8,0-1.2-0.3-1.5-0.9c0,0-0.1-0.3-0.1-0.4c0-0.1,0.1-0.3,0.1-0.4l0.7-0.5l-0.8-0.1
						c-0.3,0-0.5-0.2-0.8-0.3c-0.3-0.2-0.3-0.4-0.3-0.7l0.1-0.5l-0.3-0.2c-0.7-0.3-1-0.7-1-1.2v-0.3c0.1-0.3,0.2-0.5,0.4-0.7
						c0.3-0.2,0.6-0.2,0.9-0.2l0.3,0.1v-0.3c0-0.3,0.2-0.8,0.7-0.9l0.6-0.1h0.2l-0.2-0.2c0,0-0.3-0.4-0.2-0.6
						C24.8,22.8,25,22.6,25,22.6z"/>
				</g>
			</g>
			<path class="st1" d="M39.2,46.1c0.3,0.4,0.9,0.7,1.4,0.7c0.6,0,0.8-0.3,0.9-0.3c0.1-0.1,0.3-0.2,0.4-0.1c0,0,0.3,0.3,0.9,0.3
				c0.3,0,0.5-0.1,0.6-0.1c-0.1-0.1-0.2-0.2-0.2-0.3l-1.3-1.8c-0.3-0.4-0.9-0.7-1.4-0.7c-0.6,0-0.8,0.3-0.9,0.3
				c-0.1,0.1-0.3,0.2-0.4,0.1c0,0-0.3-0.3-0.9-0.3c-0.3,0-0.5,0.1-0.6,0.1c0.1,0.1,0.2,0.2,0.2,0.2L39.2,46.1z"/>
			<path class="st1" d="M29.8,46.1c-0.2-0.3-0.3-1,0-1.6c0.3-0.5,0.8-0.7,1.5-0.7c0.5,0,1.3,0.3,1.6,0.7l1.3,1.9
				c0.1,0.1,0.2,0.1,0.3,0.2c-0.2,0.1-0.4,0.1-0.8,0.1c-0.7,0-1-0.3-1-0.3c-0.1-0.1-0.3-0.1-0.4,0.1c0,0-0.3,0.3-0.9,0.3
				C30.5,46.8,30.1,46.7,29.8,46.1z"/>
			<path class="st1" d="M37.1,17.5c0.3-0.2,0.6-0.4,1-0.7c0.5-0.3,1-0.5,1.5-0.6c-0.5-1-1.2-1-1.6-1.1L37.6,15
				c-0.1,0-0.1-0.1-0.1-0.1c-0.1-0.1-0.3-0.3-0.4-0.3c0,0.1,0,0.3,0,0.4v0.3L37,15.7C36.8,15.9,36.6,16.6,37.1,17.5z"/>
			<path class="st1" d="M43.9,14.9L43.9,14.9C43.8,14.9,43.8,14.8,43.9,14.9L43.9,14.9z"/>
			<path class="st1" d="M30.8,21.4l-0.1,0.3L30.2,22c-0.1,0.1-0.2,0.1-0.3,0.1l0,0c-0.3,0.1-0.5,0.2-0.6,0.4
				c-0.1,0.3,0.2,0.5,0.5,0.8l0.3,0.3c0,0.1,0,0.2,0,0.3c0.3-0.1,0.8-0.1,1.2,0.1c0.1-0.1,0.2-0.1,0.3-0.1c0.5-0.1,1,0.2,1.3,0.4
				c0.1-0.3,0.3-0.6,0.7-0.5c0.5,0.1,0.9,0.5,1.1,0.9c0.1-0.1,0.2-0.3,0.3-0.3v-0.1c0-0.2,0-0.4,0.1-0.5c0,0,0.2-0.2,0.3-0.2l0,0
				c-0.2-0.2-0.3-0.3-0.5-0.6c-0.6,0.3-1.6,0.4-2.3,0.2c-0.4-0.2-0.7-0.5-0.8-0.9c-0.4-0.3-0.7-0.6-0.9-0.9
				C30.9,21.1,30.9,21.2,30.8,21.4z"/>
			<path class="st1" d="M29.2,24.9c-0.2,0-0.4,0-0.5,0.2s0,0.3,0.1,0.5l0.1,0.1l0.1,0.3l0.3,0.7c0.3,0.4,0.7,0.7,0.9,0.9l1.1-1.9
				c-0.2-0.2-0.4-0.5-0.4-0.9c0-0.2,0-0.3,0.1-0.4c-0.7-0.2-1.1,0.2-1.4,0.3l-0.2,0.2H29.2z"/>
			<path class="st1" d="M48.5,22.5C48.5,22.4,48.5,22.4,48.5,22.5c0.4-0.4,0.9-0.9,1.5-0.9c-0.3-0.3-0.3-0.8-0.3-1.2
				c-0.2,0.4-0.7,0.8-1.1,0.9c0.1,0.1,0.2,0.2,0.3,0.3c0,0.1,0,0.2,0,0.2C48.7,22,48.6,22.2,48.5,22.5
				C48.5,22.4,48.5,22.4,48.5,22.5z"/>
			<path class="st1" d="M53.5,24C53.5,24,53.5,24,53.5,24C53.4,23.9,53.4,23.9,53.5,24L53.5,24z"/>
			<path class="st1" d="M50.9,23.6c0.1,0.2-0.9,0.6-1.7,0.9c-0.3,0.1-0.7,0.3-1,0.4l0,0c-0.3,0.2-0.5,0.4-0.8,0.8
				c0.3,0.2,1.5,0.4,1.7,0.4V26c0-0.2,0.1-0.4,0.3-0.5h0.5c0.4,0.1,1,0.3,1.5,0l-0.1-0.1l-0.2-0.4c0-0.1-0.1-0.1,0-0.2
				c0.1-0.1,0.1,0,0.2-0.1h0.6c0.3,0,0.4,0.1,0.6,0.1c0.1,0,0.1,0,0.2,0c0.2,0,0.3-0.1,0.3-0.3l-0.1-0.3l-0.1-0.4
				c0-0.3,0.3-0.3,0.4-0.5c0.4-0.3,0.7-0.4,0.5-0.8c-0.1-0.2-0.7-0.1-0.9,0h-0.6l-0.3-0.3c-0.1-0.1-0.1-0.2-0.3-0.3
				c-0.1-0.1-0.4,0.2-0.6,0.3c-0.3,0.2-0.4,0.3-0.7,0.2L50,22.1L49.9,22c-0.1-0.1-0.3,0.1-1.1,0.8l-0.6,0.4c-0.1,0-0.3,0-0.3-0.3
				c-0.3,0.1-0.8,0.9-0.9,1.6c0.4-0.2,1.3-0.5,2-0.7C49.8,23.7,50.8,23.5,50.9,23.6z"/>
			<path class="st1" d="M31.8,19.1l-0.3,0.1h-0.3h-0.2v0.1l0.1,0.4l0,0c0,0.6,0.3,1.5,0.9,1.8l0,0c0,0,0.1,0,0.3-0.3
				c0.6-0.6,1.1-1.7,1.1-2.1C32.9,19,32.2,19.1,31.8,19.1z"/>
			<path class="st1" d="M59.2,18.8c-0.1,0.1-0.2,0.1-0.3,0.2c0.3,0.2,0.5,0.4,0.5,0.9V20C59.3,20.9,58,21,57.2,21
				c0.1,0.2,0.2,0.3,0.2,0.6c0,0.1,0,0.2-0.1,0.3c-0.4,1-2.2,0.9-2.9,0.9c0,0.1,0,0.1,0,0.2c0,0.1,0,0.3-0.1,0.3
				c0.2,0,0.4,0.1,0.5,0.2l0.1,0.1c0.9-0.1,1.6,0,2,0.2c0.1-0.2,0.3-0.2,0.6-0.2c0.5,0.1,0.9,0.1,0.9-0.2v-0.2c0-0.2,0-0.4,0.3-0.6
				c0.2-0.2,0.5-0.1,1,0c0.5,0.1,1.3,0.3,1.5,0c0-0.1-0.1-0.3-0.2-0.3c-0.1-0.2-0.3-0.4-0.2-0.7l0.3-0.3c0.7-0.3,0.9-0.6,0.7-1.2
				c-0.2-0.3-0.3-0.3-0.9-0.1c-0.3,0.1-0.8,0.3-0.9-0.2v-0.5c0-0.2,0-0.3,0-0.4c0,0-0.2-0.2-0.5-0.2C59.3,18.6,59.3,18.7,59.2,18.8z
				"/>
			<path class="st1" d="M49.3,19.4c0.1,0.1,0.3,0.3,0.3,0.3c0.1-0.3,0.2-0.5,0.3-0.8c0.4-0.8,1.3-1,1.6-0.9c0.5-0.3,1.1-0.4,1.7-0.3
				c0.1-0.3,0.4-0.8,0.9-1c0-0.1,0-0.3-0.3-0.5c-0.3-0.3-0.7-0.1-1.1,0.2c-0.3,0.2-0.5,0.3-0.8,0.3c0,0-0.3-0.3-0.3-0.3
				c-0.1-0.2-0.3-0.5-0.4-0.6c-0.2,0.1-0.3,0.2-0.4,0.3c0.1,0.1,0.2,0.3,0.2,0.5c0,0.1,0,0.2-0.1,0.3c-0.1,0.3-0.5,0.7-0.7,0.9
				c0.1,0.2,0.1,0.3,0.1,0.5C50.1,18.5,49.9,19,49.3,19.4z"/>
			<path class="st1" d="M46.8,16.2c0.1-0.9-0.2-1.4-0.3-1.6l-0.1-0.2c0-0.2-0.1-0.3-0.3-0.3c-0.2-0.1-0.3,0.1-0.4,0.2l-0.2,0.1
				c-0.3,0.1-1.1,0.5-1.4,1.2C45.3,15.6,46.6,16,46.8,16.2L46.8,16.2z"/>
			<path class="st1" d="M54.3,18.3l-0.2,0.1l-0.4,0.1c-0.1,0-0.1,0-0.1,0c-0.3-0.1-0.9-0.3-1.8,0.3c-0.1,1.3,0.8,1.8,1.7,2.2
				c0.6-0.5,0.7-1.1,0.7-1.6c0-0.1,0-0.3,0-0.3v-0.2l0.1-0.3C54.2,18.5,54.2,18.3,54.3,18.3z"/>
			<path class="st1" d="M47.5,26.9c0.2-0.1,0.3-0.1,0.3-0.3c-0.3-0.1-0.6-0.2-0.8-0.3c-0.2,0.3-0.4,0.8-0.5,1.2
				c-0.3,0.6-0.3,1.5-0.3,2.2c0,0.1,0,0.2,0,0.3c0.3-0.3,0.5-0.6,0.8-0.9c-0.3-0.4-0.3-1.1,0-1.6L47.5,26.9z"/>
			<path class="st1" d="M52.2,26c0.2-0.2,0.3-0.3,0.3-0.3c0,0,0,0,0-0.1s0-0.1,0-0.2c-0.2,0-0.4,0-0.6,0c0,0.1,0.1,0.2,0.1,0.2
				c0,0.2-0.1,0.3-0.2,0.4c-0.7,0.6-1.6,0.3-2.1,0.3c0,0,0,0-0.1,0c0,0.2-0.1,0.4-0.3,0.6c-0.2,0.1-0.5,0.1-0.9,0
				c-0.1,0.4-0.3,0.6-0.6,0.8l-0.3,0.3c-0.2,0.3-0.2,0.5-0.1,0.8c0.3-0.3,0.6-0.5,0.9-0.7c0,0,0.5-0.3,0.9-0.5
				c0.1-0.1,0.9-0.4,1.1-0.2c0.2,0.3-0.7,0.5-0.9,0.5c-0.3,0.2-0.5,0.3-0.7,0.5c-0.2,0.3-0.3,0.8-0.5,1.1c0.3-0.1,0.6-0.1,0.9-0.1
				l0.4-0.1c0.3-0.1,0.8-0.2,0.9-0.3l0.1-0.1v-0.2c-0.1-0.1-0.2-0.3-0.2-0.4c0-0.1,0-0.2,0.1-0.3l0.6-0.2c0.7-0.1,1-0.2,1.1-0.5
				c0,0,0,0,0-0.1c0-0.2-0.1-0.2-0.2-0.3c-0.1-0.1-0.2-0.2-0.2-0.4c0-0.1,0-0.1,0-0.2L52.2,26z"/>
			<path class="st1" d="M57.5,16.7c-0.1-0.2-0.1-0.3-0.3-0.3c-0.4-0.1-0.8,0.3-1.1,0.7c-0.3,0.3-0.4,0.5-0.8,0.4L55,17.4
				c-0.2-0.2-0.3-0.3-0.6-0.2c-0.2,0.1-0.4,0.3-0.6,0.6c0.2-0.1,0.5-0.2,0.8,0.1c0.3,0.3,0.2,0.7,0.1,0.9c0,0,0,0.1,0,0.2
				c0,0.2,0,0.4,0,0.7c0.6-0.3,1.6-1.1,1.8-1s-0.8,1.1-1.7,1.7c-0.2,0.1-0.4,0.3-0.4,0.3c-0.2,0.3-0.3,0.4-0.5,0.7
				c0,0.2,0,0.4-0.1,0.6c0.2,0,0.3,0.1,0.4,0.2h0.3c0.5,0,2.2,0.1,2.4-0.5c0.1-0.2-0.2-0.4-0.3-0.5c-0.1-0.2-0.2-0.3-0.2-0.5
				c0.1-0.3,0.3-0.2,0.7-0.2c1.6,0,1.8-0.2,1.8-0.3c0-0.3-0.2-0.4-0.4-0.5l-0.3-0.4c-0.1-0.1-0.1-0.1,0-0.3c0.1-0.3,0.3-0.4,0.7-0.7
				c0.1-0.1,0.2-0.1,0.3-0.2l0.1-0.1c0.4-0.3,0.6-0.6,0.4-1c-0.1-0.2-0.2-0.2-0.2-0.2c-0.3-0.2-0.9,0.2-1.2,0.3l-0.3,0.1
				C57.6,17.1,57.5,16.9,57.5,16.7z"/>
			<path class="st1" d="M57.1,24.6c-0.3-0.4-1.1-0.5-2.2-0.4c-0.1,0.3-0.2,0.9-0.1,1.6c0.1,0.5,0.3,0.9,0.5,1.2
				c0,0.1,0.1,0.1,0.1,0.2c1.4-0.3,1.6-1,1.8-1.4l0.1-0.3l0.3-0.3l0.2-0.2c0-0.1-0.3-0.2-0.3-0.2C57.4,24.7,57.1,24.6,57.1,24.6z"/>
			<path class="st1" d="M45.7,25.3c0.1,0,0.2-0.1,0.2-0.1c0.1-0.1,0.3-0.1,0.3-0.2c0.1-0.3,0.2-0.7,0.3-1.2c-0.4,0.3-0.9,0.3-1,0.4
				C45.6,24.5,45.7,24.8,45.7,25.3C45.7,25.2,45.7,25.3,45.7,25.3z"/>
			<path class="st1" d="M48,21.6L48,21.6l-0.4-0.2c-0.1-0.1-0.2,0-0.2-0.1c0-0.1,0-0.1,0.1-0.2l0.4-0.4c0.3-0.2,1.1-0.6,1-0.9
				l-0.2-0.1l-0.3-0.3c-0.1-0.2,0.1-0.3,0.3-0.4c0.5-0.3,0.9-0.9,0.7-1.4h-0.3l-0.4-0.1c-0.2-0.1-0.3-0.3-0.3-0.6
				c0-0.2,0-0.6-0.2-0.6c0,0-0.2-0.1-0.9,0.5l-0.2,0.1c-0.2,0.1-0.3,0-0.4-0.1l-0.2-0.1c-0.3,0-0.5,0.9-0.5,1.2l-0.2,0.3
				c-0.2,0.2-0.3,0.2-0.5,0l-0.1-0.1c-0.2,0.1-0.3,0.2-0.4,0.3c-0.1,0.1-0.1,0.3-0.1,0.3c0,0.4,0.2,0.9,0.3,1.2
				c0.1,0.1,0.1,0.3,0.1,0.4c0,0.1-0.1,0.2-0.2,0.3L44.9,21c-0.1,0-0.2,0-0.3,0.1c-0.1,0.1-0.2,0.3-0.2,0.4c0,0.4,0.3,1,0.4,1.5
				c0.1-0.2,0.1-0.3,0.2-0.5c0.2-0.6,1.2-2.5,1.5-2.3s-0.9,2-1,2.6c-0.1,0.3-0.2,0.6-0.3,0.9C46.4,23.3,48.2,22.3,48,21.6z"/>
			<path class="st1" d="M38,23.7c0-0.3,0.3-0.7,0.4-0.9c-0.1-0.3-0.3-0.5-0.3-0.8s0.1-0.6,0.4-0.9c-0.2-0.2-0.4-0.2-0.7,0
				c-0.2,0.1-0.3,0.2-0.5,0c0,0-0.1-0.1-0.1-0.2c-0.1-0.3-0.4-0.9-0.7-1h-0.2c-0.5,0.3-0.5,0.8-0.5,1.4c0,0.3,0,0.4-0.1,0.6
				l-0.3,0.2c-0.2,0.1-0.2,0.1-0.2,0.1c-0.1,0.3,0.2,0.6,0.4,0.9c0.2,0.2,0.3,0.3,0.3,0.5c0,0-0.3,0.4-0.4,0.5c0,0.1,0,0.3,0,0.3
				v0.1c0.3,0.3,0.6,0.9,0.7,1.5l0.1-0.1l0.4,0.1c0.1,0,0.1,0.1,0.2,0.1c-0.1-0.3-0.1-0.5-0.2-0.9c-0.2-1.4-0.1-1.8,0.1-1.9
				c0.2-0.1,0.3,0.4,0.5,1.9c0.1,0.8,0.3,1.4,0.3,1.6c0.1,0.1,0.3,0.2,0.3,0.3c0.3-0.2,0.9-0.6,0.9-1v-0.2l0,0
				c-0.1-0.2-0.1-0.3-0.1-0.4c0-0.3,0.1-0.5,0.3-0.6C38.9,24.7,38,24.6,38,23.7z"/>
			<path class="st1" d="M41.5,34c0-0.1,0.1-0.3,0.1-0.6c0-0.4-0.1-1.2-0.3-2.2c-0.4-2.4-1.7-2.8-2.3-3c0,0,0,0-0.1,0
				c0.2,0.4,0.3,0.9,0.3,1.6c0,0.1,0,0.3,0,0.3C39.2,31.9,40.9,33.5,41.5,34z"/>
			<path class="st1" d="M34.8,27.2c0.4,0.3,0.8,0.6,1.1,0.8c0,0,0.1,0,0.1,0.1l0,0c0.5,0.3,1,0.5,1.1,0.4v-0.2
				c-0.1-1.3-0.3-1.7-0.4-1.8c-0.1,0-0.2,0.2-0.3,0.3c-0.1,0.1-0.3,0.2-0.3,0.2c-0.1,0-0.2-0.2-0.2-0.3c0.1-0.9-0.4-1.6-0.6-1.8
				c-0.1,0-0.3,0.3-0.3,0.5c0,0.2-0.2,0.3-0.3,0.3s-0.3-0.2-0.3-0.3c0-0.3-0.2-0.9-0.8-1.1c0,0.1-0.1,0.2-0.1,0.2
				c-0.1,0.2-0.3,0.5-0.5,0.3l-0.2-0.1c-0.2-0.1-0.7-0.4-0.9-0.4c-0.1,0-0.2,0.1-0.3,0.2c-0.2,0.3-0.1,0.6,0.3,0.9l0.3,0.4
				c0,0.3-0.3,0.4-0.4,0.4c-0.1,0.1-0.3,0.1-0.3,0.2c0,0.3,0.2,0.3,0.8,0.4l0.4,0.2c0.3,0.3-0.1,0.5-0.2,0.7c0,0-0.2,0.3-0.2,0.2
				c0.2,0.4,0.5,0.5,1,0.6h0.1l0,0c0.2,0,0.3,0,0.4,0c0.3,0,0.6,0,0.6,0.3l-0.2,0.5c0,0-0.1,0.2-0.2,0.2c0.3,0.3,1,0.3,2.2-0.1
				c0-0.2-0.3-0.6-0.7-0.9c0,0-0.1,0-0.1-0.1c-0.3-0.2-0.8-0.5-1.1-0.8c0,0-0.9-0.8-0.8-1C33.7,26.6,34.8,27.2,34.8,27.2z"/>
			<path class="st1" d="M41.9,27.1L41.9,27.1c0,0.5,0.1,1.3,0.6,2.1c0,0,0.9,1.6,1,1.7c0.2-0.6,0.4-1.5,0.4-1.9c0-0.1,0-0.3,0-0.4
				c0-0.4,0-0.9-0.2-1.4h-0.2C43.1,27.3,42.8,27.4,41.9,27.1z"/>
			<path class="st1" d="M44.8,20.3c-0.2-0.3-0.3-0.9-0.3-1.4c0-0.2,0-0.3,0.1-0.5c0-0.2-0.2-0.5-0.4-0.6c-0.1,0-0.1,0-0.3,0.2
				c-0.2,0.2-0.3,0.3-0.6,0.3l-0.4-0.4c-0.4-0.5-0.9-1-1.4-0.9c-0.3,0.1-0.3,0.6-0.3,1.4c0,0.3,0.1,0.6-0.3,0.8
				c-0.2,0.1-0.4,0.2-0.4,0.3c-0.1,0.4,0.2,0.7,0.4,0.9l0.1,0.1c0.6,0.2,1.1,0.9,1.4,1.5c0.3-0.2,0.8-0.5,1.2-0.2
				c0.4,0.3,0.7,1.3,0.7,1.8l0,0c0.1,0,0.3-0.1,0.4,0c-0.3-0.4-0.6-1.2-0.6-1.9c0-0.3,0.1-0.6,0.3-0.9
				C44.5,20.4,44.7,20.4,44.8,20.3z"/>
			<path class="st1" d="M44.2,25.9c0.3-1.1,0.3-1.7,0.4-1.8h-0.3c-0.2,0-0.4,0.1-0.6-0.1c-0.1-0.1-0.2-0.3-0.2-0.3
				c0-0.3-0.3-1.3-0.5-1.6c-0.1,0-0.3,0.2-0.4,0.3c-0.2,0.2-0.3,0.3-0.5,0.2c-0.1,0-0.2-0.2-0.3-0.3c-0.2-0.6-0.9-1.4-1.1-1.4
				c-0.3,0.1-0.3,0.5-0.3,0.5c0,0.2-0.1,0.3-0.2,0.3c-0.1,0.1-0.3,0-0.3-0.1c-0.1-0.1-0.3-0.3-0.8,0c-0.5,0.3,0,1,0,1
				c0.1,0.1,0.1,0.2,0.1,0.3c0,0.1-0.1,0.2-0.1,0.2c-0.2,0.1-0.4,0.3-0.4,0.5c0,0.3,0.3,0.4,0.9,0.5c0.3,0.1,0.6,0.1,0.6,0.3
				s-0.1,0.3-0.2,0.4c-0.2,0.2-0.3,0.3-0.2,0.8c0.1,0.3,0.2,0.3,0.3,0.3c0.3,0.1,0.8-0.1,1.1-0.3l0.6-0.1c0.1,0,0.1-0.1,0.2,0
				c0.1,0.1,0,0.1,0,0.2c0,0,0,0.3,0,0.4l0.3,0.2c0.6,0.3,0.9,0.3,1.4,0.1h0.1c0-0.1-0.1-0.2-0.1-0.3c0,0,0-0.1-0.1-0.1
				c-0.2-0.3-0.4-0.8-0.9-1.1c-0.6-0.5-1.5-1.1-1.4-1.3c0.1-0.2,1,0.3,1.7,0.9c0.4,0.3,0.7,0.7,0.8,0.8C44,25.6,44.1,25.7,44.2,25.9
				z"/>
			<path class="st1" d="M44,43.5L44,43.5c0.1-0.3,0-0.6-0.2-0.9c-0.1-0.1-0.3-0.2-0.4-0.2c-0.4,0-0.7,0.3-0.9,0.7c0.1,0,0.3,0,0.3,0
				C43.4,43.3,43.7,43.5,44,43.5z"/>
			<path class="st1" d="M51,44.6c-0.3-0.4-0.9-0.7-1.4-0.7c-0.6,0-0.8,0.3-0.9,0.3c-0.1,0.1-0.3,0.2-0.4,0.1c0,0-0.3-0.3-0.9-0.3
				c-0.3,0-0.5,0.1-0.7,0.1c0.1,0.1,0.2,0.1,0.2,0.2l1.3,1.9c0.3,0.4,0.9,0.7,1.4,0.7c0.6,0,0.8-0.3,0.9-0.3
				c0.1-0.1,0.3-0.2,0.4-0.1c0,0,0.3,0.3,0.9,0.3c0.3,0,0.5-0.1,0.7-0.1c-0.1-0.1-0.2-0.1-0.2-0.2C52.4,46.6,51,44.6,51,44.6z"/>
			<path class="st1" d="M38.1,43.3c0.1,0,0.1,0,0.2,0c0.5,0,0.9,0.2,1.1,0.3c0.1-0.1,0.3-0.2,0.5-0.3c0-0.1,0-0.3,0-0.3
				C39.5,42.9,38.7,42.9,38.1,43.3z"/>
			<path class="st1" d="M31.3,32.3c0-0.2,0.7-0.8,0.9-1c0.6-0.4,0.9-0.7,1.7-0.9c-0.2-0.1-0.3-0.3-0.4-0.4c0-0.1-0.1-0.2-0.1-0.3
				c0-0.2,0.1-0.3,0.2-0.4c-0.1,0-0.3,0-0.3,0s-0.3,0-0.3,0.1l0.2,0.3c0.1,0.2,0.2,0.3,0.1,0.5c0,0.1-0.1,0.2-0.2,0.2
				c-0.2,0.1-0.3,0-0.4-0.1c-0.3-0.2-1-0.5-1.5-0.3l-0.1,0.1l0.2,0.2c0.1,0.1,0.3,0.3,0.3,0.4c0,0.1,0,0.2-0.1,0.3
				c-0.2,0.2-0.3,0.2-0.5,0.1c-0.3-0.1-0.7-0.1-0.9,0.3c-0.3,0.3-0.2,0.4,0,0.6c0.1,0.1,0.3,0.3,0.2,0.6l-0.3,0.3
				c-0.5,0.5-0.8,0.9-0.5,1.3c0.2,0.1,0.9-0.3,1.1-0.3l0.7-0.3c0.4,0,0.6,0.3,0.6,0.6c0.1,0.3,0.1,0.3,0.3,0.2
				c0.7-0.2,0.9-0.6,1-1.1c0.1-0.3,0.3-0.7,0.5-0.9c0.2-0.1,0.3-0.1,0.4-0.1c0.3,0.1,0.3,0.3,0.4,0.4c0,0,0,0,0,0.1
				c0.3-0.3,0.6-0.9,0.8-1.8c0,0,0-0.1,0.1-0.1c-0.3,0.1-0.8,0.2-1,0.3C33.3,31.4,31.4,32.5,31.3,32.3z"/>
			<path class="st1" d="M30.5,30.4c0-0.1-0.1-0.2-0.1-0.3V30c0-0.2,0.2-0.3,0.3-0.4c-0.3-0.1-0.4-0.3-0.5-0.3
				c-0.3-0.3-0.4-0.8-0.3-1c-0.2-0.1-0.4-0.3-0.7-0.5c0,0,0,0-0.1,0c-0.3-0.3-0.8-0.2-0.9,0c0,0.1,0,0.3,0,0.5c0,0.3,0,0.7-0.2,0.9
				c-0.3,0.2-0.5,0-0.9-0.2c-0.3-0.3-0.7-0.4-0.9-0.3l0.1,0.3v0.7l-0.5,0.3c-0.2,0.1-0.4,0.2-0.5,0.3c0,0.1,0,0.2,0,0.3
				c0.1,0.3,0.4,0.3,0.9,0.3l0.6,0.1l0.2,0.5c0,0.2,0,0.3,0.2,0.4c0.3,0.3,1.1-0.3,1.5-0.5l0.4-0.2c0.1-0.1,0.1,0.1,0.3,0.1l0.1,0.1
				c0-0.1,0.1-0.2,0.2-0.3C29.7,30.4,30.1,30.4,30.5,30.4z"/>
			<path class="st1" d="M60.9,27l-0.3-0.1c-0.2-0.1-0.3-0.3-0.2-0.6c0.1-0.2,0.2-0.3-0.1-0.6c-0.3-0.3-1.1,0.2-1.5,0.4
				c-0.3,0.2-0.4,0.3-0.6,0.2C58,26.2,58,26,58,25.9c-0.1-0.2-0.1-0.3-0.2-0.3l-0.1,0.1v0.1c-0.1,0.3-0.3,0.7-0.7,1.1
				c0.9,0.1,2.2,0.3,2.2,0.5c0,0.3-2.2-0.1-2.8-0.1c-0.1,0-0.3,0-0.3,0c-0.2,0.1-0.3,0.1-0.5,0.2c0.1,0.2,0.2,0.3,0.2,0.3l0.4-0.1
				c0.4-0.1,0.9-0.2,1.3,0.1c0.3,0.3,0.4,0.5,0.4,0.8c0,0.2-0.1,0.3-0.1,0.4l0,0c0.2,0.1,0.4,0.2,0.6,0.4c0-0.1,0.1-0.1,0.1-0.3
				l0.2-0.3c0.2-0.2,0.4-0.1,0.7,0.1c0.2,0.1,0.7,0.3,0.9,0.3c0.1-0.1,0.2-0.3,0.2-0.5c0-0.2,0-0.4,0.3-0.5h0.5
				c0.3,0.1,0.7,0.2,0.9,0c0.1-0.1,0.2-0.2,0.2-0.3C62.2,27.4,61.8,27.2,60.9,27z"/>
			<path class="st1" d="M27.3,28.3L27.3,28.3C27.4,28.3,27.4,28.2,27.3,28.3c0.1-0.2,0.1-0.3,0.1-0.3c0-0.3,0.1-0.6,0.3-0.8
				c-0.2,0-0.3-0.1-0.4-0.1C26.7,27,25,27,25,26.7s1.9-0.3,2.6-0.3c0.3,0.1,0.6,0.1,0.9,0.2l-0.2-0.5c0,0-0.1-0.3-0.1-0.3
				c0,0,0-0.1-0.1-0.1l0,0c-0.4-0.6-0.9-1-1.1-1c-0.2,0-0.2,0.1-0.3,0.3c0,0.2-0.1,0.4-0.3,0.4c-0.2,0-0.3-0.1-0.6-0.3
				c-0.3-0.3-0.8-0.7-1.1-0.6c-0.1,0-0.2,0-0.1,0.5c0,0.3,0.1,0.6-0.2,0.7h-0.6c-0.3-0.1-0.6-0.2-0.8,0c0,0-0.1,0.1-0.2,0.3
				c-0.1,0.4,0.3,0.6,0.9,0.9l0.4,0.2c0.2,0.3,0,0.5-0.1,0.6c-0.3,0.3-0.3,0.3-0.1,0.5c0.3,0.3,0.7,0.2,1.1-0.1l0.4-0.2
				c0.1,0,0.2,0,0.3,0C26.4,27.6,27,28,27.3,28.3z"/>
			<path class="st1" d="M49.2,29.9c-0.7-0.1-1.2,0.2-1.2,0.2c-0.1,0.1-0.3,0.1-0.3,0c-0.1-0.1-0.2-0.2-0.2-0.3c0,0,0,0,0-0.1
				c0-0.2,0.2-0.5,0.3-0.8c-0.7,0.8-1.5,1.7-1.8,2.2c-0.1,0.1-0.3,0.2-0.4,0.1c0,0-0.1-0.1-0.1-0.2V31c0.1-0.3,0.2-0.8,0.2-1.3
				c0-0.8,0.1-1.6,0.3-2.3c0.3-0.8,0.6-1.4,0.9-1.8c-0.3,0.1-0.5,0.3-0.7,0.3c-0.6,0.3-0.8,0.3-0.9,0.2l-0.1-0.7c0-0.1,0-0.2,0-0.3
				c-0.1,0.3-0.2,0.8-0.3,1.3c-0.1,0.2-0.3,0.3-0.3,0.2c-0.1,0-0.1-0.1-0.2-0.1l0,0c0.3,0.8,0.4,1.6,0.4,2.2c0,0.2,0,0.3,0,0.4
				c0,0-0.4,2.7-0.9,2.8c-0.2,0-0.3,0-0.3-0.2L43,31l-0.9-1.5c-0.8-1.3-0.8-2.4-0.8-3v-0.1c-0.4,0.2-0.9,0.4-1.5,0.2l-0.1-0.1
				c-0.2,0.3-0.5,0.7-0.8,0.9l0.2,0.1c0.6,0.2,2.3,0.7,2.8,3.5c0.2,0.8,0.3,1.6,0.3,2.3c0,0.6-0.1,1-0.3,1.3
				c-0.1,0.1-0.3,0.1-0.3,0.1c-0.2-0.1-3.1-2-3-4.8c0.1-1.9-0.6-2.4-0.8-2.4l0,0C38,27.8,38,28,38,28.4c0,0.4-0.2,0.6-0.3,0.8
				c-0.2,0.1-0.3,0.1-0.6,0c0.1,0.2,0.2,0.3,0.2,0.5v0.1c0,0.2-0.2,0.3-0.3,0.4c-0.3,0.1-0.7,0.2-0.9,0.3c1.6,0.5,2.8,2.7,3,3.2
				c0.1,0.3,0.7,1.2,1.2,2c1,1.6,1,1.7,1,1.9c-0.3,2-1.2,3.5-2.6,4.1L38,41.9c-0.9,0.4-2.2,1.1-3,1.7c0,0,0.1,0,0.1,0.1
				c0.2-0.2,0.5-0.3,1.1-0.3c0.4,0,0.8,0.1,1.1,0.3v-0.1c0.7-1.2,2.2-1.2,2.8-1.1c0.1-0.2,0.1-0.4,0.2-0.6c0.1-0.2,0.3-0.4,0.3-0.7
				c0.4-0.7,0.9-2.2,1.1-2.2c0.2,0,0.1,1.2-0.6,2.4c-0.2,0.3-0.3,0.4-0.3,0.7c-0.1,0.3-0.2,0.4-0.2,0.7c0,0,0,0,0,0.1l0,0
				c0,0.2,0,0.3,0,0.5c0.3,0,0.8,0.1,1,0.3c0,0,0,0,0.1,0c0,0,0,0,0-0.1c0.3-0.9,0.9-1.6,1.6-1.6c0.3,0,0.7,0.1,0.9,0.3
				c0.3,0.3,0.4,0.7,0.4,0.9c0.1,0,0.3,0,0.3,0c0.4,0,0.8,0.1,1.1,0.3c0.2-0.2,0.6-0.3,1.2-0.3c0.4,0,0.8,0.1,0.9,0.2v-0.1
				c-0.3-0.6-0.7-0.8-1.4-1c-0.9-0.3-1.9-0.8-2.5-2.3c-0.3-0.8-0.4-1.7-0.5-2.7c0-0.6,0.1-2.6,0.3-2.6c0.2,0,0.3,1.9,0.3,2.5
				c0.1,0.9,0.2,1.8,0.4,2.5c0.5,1.3,1.3,1.6,2.2,2c0.6,0.3,1.2,0.5,1.6,1.2c0,0,0.1,0.2,0.2,0.3c0.2-0.1,0.3-0.1,0.6-0.1
				c0.4,0,0.8,0.2,1.1,0.3c0.2-0.1,0.4-0.3,0.9-0.3c-0.3-0.3-0.9-0.6-2.3-1.2l-0.3-0.1c-2.2-0.9-2.8-1.9-3.2-2.6l-0.1-0.1
				c-0.4-0.7-1.2-4.5,0.4-7C47.3,30.8,48.6,30.2,49.2,29.9C49.2,30,49.2,29.9,49.2,29.9L49.2,29.9z"/>
			<path class="st1" d="M57.5,29.7c-0.2-0.1-0.3-0.2-0.3-0.3l0.1-0.5c0.1-0.2,0.1-0.3-0.2-0.4c-0.1-0.1-0.5,0-0.8,0.1h-0.7
				c-0.2-0.1-0.3-0.2-0.3-0.3l-0.1,0.1c-0.6,0.3-1.7,0.3-2.7-0.3c-0.3,0.3-0.9,0.3-1.3,0.4c0,0,0,0-0.1,0c0.1,0.1,0.1,0.3,0.2,0.3
				c0.9-0.2,1.5-0.1,1.7,0.1c0.2,0.2,0.3,0.3,0.3,0.5c0,0.1,0,0.2,0,0.2c0.2,0,0.4,0.1,0.4,0.1c0.8,0.1,1.2,0.2,1.5,0.4
				c0.1,0.2,0.2,0.3,0.2,0.4c0,0.2-0.1,0.3-0.2,0.4c0.1,0,0.2,0.1,0.2,0.1c0.2,0.1,0.3,0.1,0.5,0.2h0.3c0.3,0,0.4,0.1,0.6,0
				c0,0,0.1-0.1,0.1-0.2l0.2-0.4l0.5-0.1c0.3,0.1,0.5,0,0.5-0.1C58,30,58,29.9,57.5,29.7z"/>
			<path class="st1" d="M55.7,32.9l-0.3-0.4v-0.1c0-0.2,0.2-0.3,0.3-0.4l0.1-0.1c-0.1-0.1-0.4-0.2-0.6-0.3c-0.3-0.1-0.6-0.2-0.7-0.3
				c0-0.1,0-0.1,0-0.2c0-0.2,0.1-0.3,0.1-0.3c0.1-0.1,0.1-0.2,0.1-0.3l0,0c-0.1-0.1-0.8-0.2-1-0.2c-0.7-0.1-0.9-0.1-0.9-0.4v-0.3
				c0,0,0-0.1,0-0.2c-0.1-0.1-0.9-0.2-2.1,0.3c0.4,0.2,0.8,0.4,1.2,0.8c0.4,0.3,0.9,1,0.8,1.1c-0.2,0.1-0.8-0.3-1.1-0.6
				c-0.4-0.3-1.1-0.6-1.6-0.8c0.1,0.7,0.3,1.6,0.5,1.8c0.1-0.1,0.3-0.3,0.5-0.2c0.2,0.1,0.3,0.3,0.4,0.6c0.2,0.3,0.4,1.1,0.8,1.1
				c0.3,0,0.3-0.1,0.4-0.2c0.1-0.1,0.2-0.3,0.4-0.3l0.4,0.3c0.2,0.2,0.5,0.5,0.8,0.5c0.3,0,0.3-0.1,0.4-0.3c0.1-0.1,0.2-0.3,0.4-0.3
				l0.3,0.1c0.4,0.2,0.6,0.2,0.8-0.1c0-0.1,0.1-0.1,0.1-0.2C56,33.2,55.9,33,55.7,32.9z"/>
			<path class="st1" d="M46,8.6c0.3-0.1,0.5-0.1,0.8,0.2c0.3,0.3,0.3,0.7,0.3,1c0,0.6-0.3,1.1-0.6,1.5c0.3,0.1,0.5,0.2,0.6,0.4
				c0,0.1,0.1,0.2,0.1,0.3c0,0.3-0.2,0.7-0.3,1c0.3-0.1,0.5-0.1,0.7-0.1v-0.1c0.2-0.5,0.4-1.3,1.1-1.6h0.4c0-0.1,0-0.2,0-0.3
				c0,0,0-0.1-0.1-0.1c-0.2,0-0.3-0.1-0.3-0.3c0-0.2,0-0.3,0.2-0.3c0.3-0.3,1-0.9,0.9-1.1c-0.2-0.3-0.4-0.4-0.6-0.4l-0.3-0.1
				c-0.2-0.2-0.2-0.3-0.1-0.6c0.1-0.6,0-0.9-0.3-1c-0.3-0.1-0.7,0.3-0.9,0.7c-0.2,0.3-0.3,0.5-0.6,0.4L46.2,8
				c-0.1-0.1-0.2-0.2-0.3-0.2c0,0.2,0.1,0.3,0.1,0.5C46.1,8.4,46,8.5,46,8.6z"/>
			<path class="st1" d="M43,11.7c0.5,0.3,0.7,0.8,0.7,1.2c0,0.5-0.3,1-0.3,1.3l0,0c0.1,0,0.3,0,0.3,0c0.1,0,0.2,0,0.2,0
				c0.1-0.3,0.3-1.1,0.5-2c0.2-0.9,0.3-1.6,0.4-1.6c0.3,0,0.3,0.6,0.2,1.5c-0.1,0.8-0.3,1.8-0.4,2.2c0.4-0.3,0.9-0.6,1.2-0.7
				c0.1-0.1,0.3-0.2,0.3-0.2c0.4-0.7,0.7-1.4,0.6-1.6c0-0.1-0.2-0.1-0.4-0.1c-0.2,0-0.3,0-0.5-0.2c-0.1-0.2,0-0.3,0.2-0.5
				c0.4-0.6,0.9-1.2,0.4-2c-0.1,0-0.3,0.1-0.3,0.1c-0.1,0.1-0.3,0.2-0.5,0c-0.1-0.1-0.2-0.3-0.1-0.3c0.1-0.3,0.2-0.9-0.1-1.4
				c-0.1-0.2-0.3-0.3-0.5-0.3c-0.3,0-0.5,0.7-0.6,1s-0.2,0.6-0.3,0.7h-0.6c-0.2-0.1-0.3-0.1-0.4,0C42.4,9,42.8,9.8,43,10.3
				c0.2,0.4,0.3,0.6,0.2,0.9c-0.1,0.1-0.2,0.2-0.3,0.2c-0.3,0-0.5,0.1-0.7,0.3c0,0.1-0.1,0.1-0.1,0.2C42.4,11.6,42.7,11.5,43,11.7z"
				/>
			<path class="st1" d="M49.2,12.2c0-0.1-0.1-0.3-0.2-0.3h-0.2c-0.4,0.2-0.6,0.9-0.8,1.2c-0.1,0.3-0.2,0.5-0.4,0.5h-0.2
				c-0.2-0.1-0.3-0.1-0.5,0.1c0.2,0.2,0.2,0.3,0.3,0.4v0.1c0.2,0.3,0.3,0.8,0.3,1.2c0.2-0.2,0.3-0.4,0.6-0.7c0.6-0.5,1.3-1,1.4-0.9
				c0.1,0.1-0.4,0.7-0.9,1.2c-0.2,0.2-0.3,0.3-0.4,0.5c0.2-0.1,0.4-0.1,0.6,0c0.4,0.3,0.4,0.8,0.5,1.1c0,0,0,0.1,0,0.2
				c0.1,0,0.1,0,0.1,0c0.1,0,0.2,0,0.3,0c0.2-0.1,0.5-0.3,0.6-0.6c0.1-0.2,0-0.3-0.1-0.3c-0.1-0.1-0.2-0.3-0.1-0.4
				c0-0.1,0.2-0.2,0.3-0.3c0.3-0.1,0.5-0.3,0.7-0.3l0.1-0.1c0.4-0.3,0.5-0.5,0.6-0.6c0-0.3-0.1-0.3-0.3-0.4
				c-0.1-0.1-0.3-0.3-0.3-0.4l0.3-0.5c0.3-0.2,0.5-0.5,0.5-0.8c0-0.1-0.1-0.3-0.2-0.3c-0.2-0.2-0.3-0.3-0.5-0.3
				c-0.3,0-0.8,0.4-1,0.7l-0.5,0.6C49.4,12.8,49.3,12.4,49.2,12.2z"/>
			<path class="st1" d="M52,15.9c0.1-0.1,0.3-0.1,0.3-0.1c0.3-0.2,0.9-0.5,1.5-0.3c0.2-0.1,0.3-0.3,0.7-0.4c0.6-0.3,1.3-0.5,1.4-0.4
				c0.1,0.1-0.5,0.5-1,0.9c-0.2,0.1-0.3,0.2-0.4,0.3c0.3,0.3,0.3,0.5,0.3,0.7c0.3,0,0.6,0.2,0.8,0.3c0,0,0.1,0,0.1,0.1
				c0.1-0.1,0.2-0.2,0.2-0.2c0.3-0.4,0.9-1.1,1.7-0.9c0-0.2-0.1-0.4-0.2-0.6c0-0.1-0.1-0.2,0-0.3s0.1-0.2,0.2-0.2
				c0.3-0.1,0.7-0.4,0.8-0.8c0-0.1,0-0.2-0.1-0.3c-0.3-0.3-0.7-0.3-1.2-0.1l-0.5,0.1l-0.3-0.3c-0.1-0.2-0.2-0.3-0.4-0.3
				c-0.3-0.1-0.7,0.3-0.9,0.6L54.2,14l-0.5-0.3c0,0-0.3-0.2-0.3-0.3c-0.2,0-0.6,0.5-0.7,0.7l-0.3,0.3h-0.2c0,0.3-0.3,0.6-0.6,0.9
				C51.8,15.5,51.9,15.8,52,15.9z"/>
			<path class="st1" d="M27.9,23.3c0.3,0.3,0,0.8-0.3,1.1c0.2,0.1,0.3,0.3,0.4,0.4l0,0c0.3-0.5,0.8-0.4,1-0.5
				c0.1-0.1,0.2-0.2,0.3-0.3V24c0-0.1,0-0.1,0-0.2l-0.1-0.1c-0.3-0.2-0.8-0.5-0.8-1.1c0-0.1,0-0.2,0-0.3c0.1-0.4,0.3-0.6,0.7-0.8
				c-0.1-0.2-0.2-0.4-0.2-0.6c0,0-0.1-0.3-0.1-0.3l0,0l-0.4,0.1c-0.3,0.1-0.7,0.3-0.9,0l-0.2-0.3l-0.4-0.6c-0.3-0.3-0.8-0.5-1-0.3
				C26,19.6,25.9,19.7,26,20c0,0.2,0.1,0.4-0.2,0.5h-0.4c-0.4-0.2-0.7-0.2-0.9,0.3c-0.1,0.3-0.2,0.4,0,0.6c0.3,0.4,1,0.6,1.3,0.7
				c0.1,0,0.3,0.1,0.3,0.3c0,0.1,0,0.3-0.1,0.3c-0.1,0.1-0.3,0.3-0.3,0.4l0.1,0.2c0.1,0.1,0.3,0.1,0.8-0.1
				C26.9,22.9,27.5,22.7,27.9,23.3z"/>
			<path class="st1" d="M40.3,11.5c-0.3,0.1-0.3,0.7-0.3,1.2c0,0.3,0.1,0.5-0.1,0.7c-0.2,0.2-0.3,0.1-0.5,0.1s-0.3,0-0.3,0.1
				c-0.1,0.2,0.2,0.5,0.7,1.1c0.2,0.3,0.3,0.3,0.3,0.5c0,0.1,0,0.2-0.2,0.3c0.1,0.2,0.2,0.3,0.3,0.5c0.1,0,0.3,0.1,0.3,0.2
				c0.1,0.1,0.2,0.3,0.3,0.4c0.1-0.1,0.3-0.3,0.4-0.3c-0.1-0.3-0.1-0.5-0.2-0.9c-0.1-0.7-0.2-1.6,0-1.6c0.2-0.1,0.4,0.9,0.6,1.6
				c0.1,0.3,0.2,0.6,0.3,0.9c0.3,0.1,0.6,0.3,0.9,0.4c0-0.3,0.1-0.6,0.3-0.9c0.2-0.2,0.3-0.3,0.6-0.3c0.1-0.3,0.2-0.5,0.3-0.7h-0.3
				c-0.3,0-0.9,0-0.9-0.4l0.1-0.4c0.3-0.8,0.4-1.3-0.1-1.7l-0.3,0.2c-0.2,0.2-0.3,0.3-0.5,0.3l-0.4-0.3
				C41.2,12.1,40.7,11.4,40.3,11.5z"/>
			<path class="st1" d="M36.1,14.1l-0.3,0.6c-0.2,0.1-0.3,0.2-0.3,0.3c0,0.1,0.2,0.2,0.9,0.3c-0.1-0.3-0.1-0.9,0.3-1
				c0.3-0.1,0.6,0,0.8,0.1c-0.1-0.2-0.2-0.4-0.3-0.7c-0.2-0.3-0.8-1-0.6-1.2c0.2-0.2,0.9,0.6,1.2,1c0.3,0.5,0.4,0.9,0.5,1.2
				c0.2,0,0.3,0.1,0.6,0.2c-0.3-0.3-0.4-0.7-0.4-1c0-0.1,0-0.2,0.1-0.3c0.3-0.4,0.6-0.5,0.9-0.5c0-0.1,0-0.1,0-0.1
				c0-0.2,0-0.3,0-0.6c0-0.2,0-0.3,0-0.4c-0.3-0.2-0.4-0.1-0.6,0c-0.1,0.1-0.3,0.2-0.4,0.1c-0.2-0.1-0.2-0.3-0.3-0.5
				c0-0.4-0.1-1.6-0.5-1.6c-0.1,0-0.3,0.3-0.3,0.4c-0.2,0.3-0.3,0.4-0.5,0.5c-0.2,0-0.3-0.1-0.5-0.3c-0.6-0.7-1-0.9-1.6-0.6
				c-0.4,0.3-0.1,0.9,0.3,1.6l0.2,0.5c-0.1,0.2-0.2,0.3-0.3,0.3c-0.3,0.1-0.4,0.2-0.4,0.4c-0.1,0.5,0.5,0.8,1.2,0.9
				C35.8,13.6,36.1,13.7,36.1,14.1z"/>
			<path class="st1" d="M28,19.9L28,19.9c-0.2-0.2-0.4-0.5-0.4-0.5l0,0c0.2-0.2,0.4-0.3,0.6-0.3s0.3-0.1,0.3-0.3
				c0.1-0.3-0.2-0.3-0.3-0.4c-1.3-0.6-1.5-0.9-1.4-1.1c0-0.1,0.3-0.2,0.4-0.3l0.3-0.3c0.2-0.2,0.1-0.3,0-0.7
				c-0.2-0.7-0.2-1.1,0.2-1.3c0.2-0.1,0.3,0.1,0.6,0.4l0.4,0.4c0.3,0.1,0.5-0.3,0.7-0.5c0.1-0.1,0.2-0.3,0.3-0.3
				c0.3,0,0.3,0.8,0.4,1.1c0.1,0.4,0.1,0.7,0.3,0.8c0.3,0.1,0.5-0.2,0.7-0.3c0.1-0.1,0.2-0.2,0.2-0.2c0.3,0.1,0.3,0.6,0.3,0.9
				c0,0.3,0,0.7,0.3,0.8c0.1,0.1,0.4,0.3,0.9-0.1c0.3,0.3,0.9,0.3,1.2,0.3c0,0,0.2,0,0.3,0l0,0c0,0.2-0.1,0.3-0.1,0.4
				c-1.1-0.3-1.9-0.2-2.3-0.1h-0.2h-0.3l-0.6,0.3c0,0,0,0,0,0.1c-0.3-0.3-0.7-0.6-1-0.9c-0.5-0.6-0.8-1.4-0.9-1.3
				c-0.3,0.2,0.1,1.1,0.3,1.6c0.3,0.5,1.1,1.2,1.6,1.5l0,0c0,0.3,0,0.5,0.1,0.9c-0.4,0.2-0.5,0.5-0.5,0.8l0,0c-0.1,0-0.2,0-0.2,0
				l0,0c-0.1-0.1-0.2-0.4-0.2-0.5c-0.1-0.3-0.2-0.6-0.3-0.8c-0.3-0.2-0.6-0.1-0.9,0.1l-0.3,0.1L28,19.9z"/>
			<path class="st1" d="M33.3,16.2l-0.2,0.6L33,17.2c0,0.3,0.3,0.4,0.9,0.5c0.3,0,0.8,0.1,0.9,0.4c0.1,0.2,0,0.3,0,0.5h0.1
				c0.4,0.1,0.9,0.5,1.1,1c0.1-0.1,0.2-0.1,0.3-0.2h0.6c0.4,0.2,0.8,0.8,0.9,1.1c0.3-0.1,0.9-0.3,1.4,0.3c0.3-0.1,0.5,0,0.7,0.1
				c0.1-0.2,0.2-0.3,0.3-0.4c-0.2-0.2-0.4-0.5-0.4-0.9c-0.6,0.3-1.4,0.3-2.2,0c-0.6-0.3-1-0.7-1.1-1.1c-0.1-0.3,0-0.4,0.2-0.6l0,0
				l0,0c-0.5-0.9-0.5-1.7-0.3-2.2c-0.6-0.1-1.3-0.3-1.4-0.8c-0.1,0-0.1,0-0.1,0l-0.5-0.3c-0.6-0.3-1.1-0.7-1.6-0.2
				c-0.3,0.3-0.1,0.5,0.3,0.9C33,15.6,33.3,16.2,33.3,16.2z"/>
			<path class="st1" d="M37.8,9.1c0.9,0.2,1,1.3,1.1,2c0.2-0.1,0.5-0.1,0.9,0.1c0.1-0.1,0.3-0.3,0.4-0.3c0.3-0.1,0.6,0,0.8,0.1
				c0.1-0.7,0.1-1.6,0-1.8c-0.1,0-0.2,0.1-0.3,0.2c-0.1,0.1-0.3,0.2-0.3,0.1c-0.1-0.1-0.3-0.2-0.2-0.3c0.1-0.6,0-1.5-0.3-1.6
				c-0.3-0.1-0.3,0-0.3,0.1c-0.2,0.3-0.3,0.3-0.5,0.3l-0.3-0.3c-0.3-0.3-0.9-1-1.3-0.9c-0.3,0.2,0,0.9,0.1,1.3
				c0.2,0.3,0.2,0.5,0.1,0.7c-0.1,0.2-0.3,0.2-0.5,0.2c-0.3,0-0.4,0.1-0.4,0.2c0.1,0.3,0.2,0.5,0.3,0.7C37.1,9.4,37.3,9,37.8,9.1z"
				/>
			<path class="st1" d="M43.9,14.9L43.9,14.9C43.8,14.8,43.8,14.9,43.9,14.9L43.9,14.9z"/>
			<path class="st1" d="M53.5,24L53.5,24L53.5,24C53.4,24,53.5,24,53.5,24z"/>
			<path class="st2" d="M48,108.8c0.1,0.3-0.7,0.3-1.1,0.3c-0.6,0-1.3-0.1-1.2-0.3c0-0.3,0.6-0.2,1.2-0.2
				C47.2,108.6,47.9,108.6,48,108.8L48,108.8z"/>
			<path class="st1" d="M30.3,84.4L30.3,84.4h-0.3c-0.1,0-0.2,0-0.3-0.1c0,0-0.8-0.9-1.8-0.9c-0.8,0-1.4,0.3-2,0.5
				c-0.5,0.3-1.1,0.4-1.6,0.4h-1.6c-0.2,0-0.3-0.2-0.3-0.3v-8.8c-0.3,0.2-0.6,0.3-0.7,0.4c0,0.3,0,8.4,0,8.9c0.6,0,7,0,7,0
				c0.1,0,0.2,0,0.3,0.1c0,0,0.5,0.5,1.2,0.6h0.3c0.7-0.1,1.1-0.6,1.1-0.6c0.1-0.1,0.2-0.1,0.3-0.1c0,0,6.4,0,7,0c0-0.6,0-8.6,0-8.9
				c-0.1-0.1-0.4-0.3-0.7-0.4v8.8c0,0.2-0.2,0.3-0.3,0.3h-1.6c-0.5,0-1-0.3-1.6-0.4c-0.6-0.3-1.3-0.5-2-0.5c-1,0-1.8,0.9-1.8,0.9
				c-0.1,0.1-0.2,0.1-0.3,0.1H30.3L30.3,84.4z"/>
			<path class="st1" d="M39.4,85c0,0.2-0.2,0.3-0.3,0.3c0,0-7,0-7.2,0c-0.2,0.2-0.7,0.6-1.4,0.7h-0.4c-0.8-0.1-1.3-0.5-1.5-0.7
				c-0.3,0-7.2,0-7.2,0c-0.2,0-0.3-0.2-0.3-0.3v-9.1c-0.2,0-0.4,0-0.6,0c0,0.6,0,9.6,0,10.1c0.6,0,8.1,0,8.1,0c0.1,0,0.2,0,0.3,0.1
				c0,0,0.3,0.4,1,0.5c0.3,0,0.7,0,0.9,0c0.7-0.1,1-0.5,1-0.5C32,86,32.1,86,32.2,86c0,0,7.5,0,8.1,0c0-0.6,0-9.6,0-10.1
				c-0.2,0-0.4,0-0.6,0L39.4,85L39.4,85z"/>
			<path class="st1" d="M27.7,73.7c-1.1,0-1.6,0.4-2.2,0.8c-0.4,0.3-0.8,0.5-1.3,0.5c0,0-0.9,0-1.2,0c0,0.6,0,8.2,0,8.7
				c0.4,0,1.3,0,1.3,0c0.4,0,0.9-0.2,1.4-0.4c0.6-0.3,1.4-0.6,2.2-0.6c0.9,0,1.6,0.5,2.1,0.9c0-0.8,0-8.8,0-8.8
				C29.9,74.8,29.6,73.7,27.7,73.7z M28.7,81.1C28.7,81.2,28.7,81.2,28.7,81.1c-0.3,0.1-0.9,0-1.5,0.1l-0.9,0.4l-0.5,0.3
				c-0.7,0.3-1.2,0.3-1.4,0.3c-0.1,0-0.2-0.1-0.2-0.2s0.1-0.2,0.2-0.2c0.2,0,0.7,0,1.3-0.3l0.5-0.3l1-0.4c0.8-0.2,1.5-0.1,1.5-0.1
				C28.7,80.9,28.7,81,28.7,81.1z M28.7,79.2C28.7,79.3,28.7,79.3,28.7,79.2c-0.3,0.1-0.9,0-1.5,0.1l-0.9,0.4l-0.5,0.3
				c-0.7,0.3-1.2,0.3-1.4,0.3c-0.1,0-0.2-0.1-0.2-0.2s0.1-0.2,0.2-0.2c0.2,0,0.7,0,1.3-0.3l0.5-0.3l1-0.4c0.8-0.2,1.5-0.1,1.5-0.1
				C28.7,79.1,28.7,79.1,28.7,79.2z M28.7,77.4C28.7,77.4,28.7,77.4,28.7,77.4c-0.3,0.1-0.9,0-1.5,0.1l-0.9,0.4l-0.5,0.3
				c-0.7,0.3-1.2,0.3-1.4,0.3c-0.1,0-0.2-0.1-0.2-0.2s0.1-0.2,0.2-0.2c0.2,0,0.7,0,1.3-0.3l0.5-0.3l1-0.4c0.8-0.2,1.5-0.1,1.5-0.1
				C28.7,77.3,28.7,77.3,28.7,77.4z M28.7,75.5C28.7,75.5,28.7,75.5,28.7,75.5c-0.3,0.1-0.9,0-1.5,0.1l-0.9,0.5l-0.5,0.3
				c-0.7,0.3-1.2,0.3-1.4,0.3c-0.1,0-0.2-0.1-0.2-0.2s0.1-0.2,0.2-0.2c0.2,0,0.7,0,1.3-0.3l0.5-0.3l1-0.4c0.8-0.2,1.5-0.1,1.5-0.1
				C28.7,75.4,28.7,75.4,28.7,75.5z"/>
			<path class="st1" d="M30.5,84.4h-0.3l0,0l0,0h-0.3c-0.1,0-0.2,0-0.3-0.1c0,0-0.8-0.9-1.8-0.9c-0.8,0-1.4,0.3-2,0.5
				c-0.5,0.3-1.1,0.4-1.6,0.4h-1.6c-0.2,0-0.3-0.2-0.3-0.3v-8.8c-0.3,0.2-0.6,0.3-0.7,0.4c0,0.3,0,8.4,0,8.9c0.6,0,7,0,7,0
				c0.1,0,0.2,0,0.3,0.1c0,0,0.5,0.5,1.2,0.6h0.3c0.7-0.1,1.1-0.6,1.1-0.6c0.1-0.1,0.2-0.1,0.3-0.1c0,0,6.4,0,7,0c0-0.6,0-8.6,0-8.9
				c-0.1-0.1-0.4-0.3-0.7-0.4v8.8c0,0.2-0.2,0.3-0.3,0.3h-1.6c-0.5,0-1-0.3-1.6-0.4c-0.6-0.3-1.3-0.5-2-0.5c-1,0-1.8,0.9-1.8,0.9
				S30.6,84.4,30.5,84.4z"/>
			<path class="st1" d="M40,75.9c-0.2,0-0.4,0-0.6,0V85c0,0.2-0.2,0.3-0.3,0.3c0,0-7,0-7.2,0c-0.2,0.2-0.7,0.6-1.4,0.7h-0.4
				c-0.8-0.1-1.3-0.5-1.5-0.7c-0.3,0-7.2,0-7.2,0c-0.2,0-0.3-0.2-0.3-0.3v-9.1c-0.2,0-0.4,0-0.6,0c0,0.6,0,9.6,0,10.1
				c0.6,0,8.1,0,8.1,0c0.1,0,0.2,0,0.3,0.1c0,0,0.3,0.4,1,0.5c0.3,0,0.7,0,0.9,0c0.7-0.1,1-0.5,1-0.5C32,86,32.1,86,32.2,86
				c0,0,7.5,0,8.1,0C40,85.5,40,76.5,40,75.9z"/>
			<path class="st1" d="M36.2,75c-0.5,0-0.9-0.3-1.3-0.5c-0.5-0.3-1.1-0.8-2.2-0.8c-1.9,0-2.2,1-2.2,1s0,8.1,0,8.9
				c0.3-0.3,1.1-0.9,2.1-0.9c0.9,0,1.6,0.3,2.2,0.6c0.5,0.3,0.9,0.4,1.4,0.4c0,0,0.9,0,1.3,0c0-0.6,0-8.2,0-8.7
				C37.1,75,36.2,75,36.2,75z M36.1,82.2c-0.2,0-0.7-0.1-1.4-0.3l-0.5-0.3l-0.9-0.4c-0.5-0.2-1.1-0.1-1.4,0c-0.1,0-0.2,0-0.2-0.1
				s0-0.2,0.1-0.2c0,0,0.8-0.2,1.5,0l1,0.4l0.5,0.3c0.6,0.3,1.1,0.3,1.3,0.3c0.1,0,0.2,0.1,0.2,0.2C36.2,82.1,36.1,82.2,36.1,82.2z
				 M36.1,80.3c-0.2,0-0.7-0.1-1.4-0.3l-0.5-0.3l-0.9-0.4c-0.5-0.2-1.1-0.1-1.4,0c-0.1,0-0.2,0-0.2-0.1c0-0.1,0-0.2,0.1-0.2
				c0,0,0.8-0.2,1.5,0l1,0.4l0.5,0.3c0.6,0.3,1.1,0.3,1.3,0.3c0.1,0,0.2,0.1,0.2,0.2C36.2,80.3,36.1,80.3,36.1,80.3z M36.1,78.5
				c-0.2,0-0.7-0.1-1.4-0.3l-0.5-0.3l-0.9-0.3c-0.6-0.2-1.2-0.1-1.4,0c-0.1,0-0.2,0-0.2-0.1s0-0.2,0.1-0.2c0,0,0.7-0.2,1.5,0l1,0.4
				l0.5,0.3c0.6,0.3,1.1,0.3,1.3,0.3c0.1,0,0.2,0.1,0.2,0.2C36.2,78.4,36.1,78.5,36.1,78.5z M36.1,76.6c-0.2,0-0.7-0.1-1.4-0.3
				l-0.5-0.2l-0.9-0.4c-0.6-0.2-1.1-0.1-1.4,0c-0.1,0-0.2-0.1-0.2-0.1c0-0.1,0-0.1,0.1-0.2c0,0,0.7-0.2,1.5,0l1,0.4l0.5,0.3
				c0.7,0.3,1.1,0.3,1.3,0.3c0.1,0,0.2,0.1,0.2,0.2C36.2,76.6,36.1,76.7,36.1,76.6z"/>
			<path class="st1" d="M55.4,84.4h0.3c0.1,0,0.2,0,0.3-0.1c0,0,0.8-0.9,1.8-0.9c0.8,0,1.4,0.3,2,0.5c0.5,0.3,1.1,0.4,1.6,0.4H63
				c0.2,0,0.3-0.2,0.3-0.3v-8.8c0.3,0.2,0.6,0.3,0.7,0.4c0,0.3,0,8.4,0,8.9c-0.6,0-7,0-7,0c-0.1,0-0.2,0-0.3,0.1
				c0,0-0.5,0.5-1.1,0.6h-0.3c-0.7-0.1-1.2-0.6-1.2-0.6c-0.1,0-0.2,0-0.3,0c0,0-6.5,0-7,0c0-0.6,0-8.6,0-8.9
				c0.1-0.1,0.4-0.3,0.7-0.4v8.8c0,0.2,0.2,0.3,0.3,0.3h1.6c0.5,0,1-0.3,1.6-0.4c0.6-0.3,1.3-0.5,2-0.5c1,0,1.8,0.9,1.8,0.9
				c0.1,0.1,0.2,0.1,0.3,0.1L55.4,84.4L55.4,84.4L55.4,84.4z"/>
			<path class="st1" d="M64.5,85c0,0.2-0.2,0.3-0.3,0.3c0,0-7,0-7.2,0c-0.2,0.2-0.7,0.6-1.5,0.7h-0.4c-0.8-0.1-1.3-0.5-1.5-0.7
				c-0.3,0-7.2,0-7.2,0c-0.2,0-0.3-0.2-0.3-0.3v-9.1c-0.2,0-0.4,0-0.6,0c0,0.6,0,9.6,0,10.1c0.6,0,8.1,0,8.1,0c0.1,0,0.2,0,0.3,0.1
				c0,0,0.3,0.4,1,0.5c0.3,0,0.7,0,0.9,0c0.7-0.1,1-0.5,1-0.5C57,86,57.1,86,57.2,86c0,0,7.5,0,8.1,0c0-0.6,0-9.6,0-10.1
				c-0.2,0-0.4,0-0.6,0L64.5,85L64.5,85z"/>
			<path class="st1" d="M55.6,84.4h-0.3l0,0l0,0h-0.3c-0.1,0-0.2,0-0.3-0.1c0,0-0.8-0.9-1.8-0.9c-0.7,0-1.4,0.3-2,0.5
				c-0.5,0.3-1.1,0.4-1.6,0.4h-1.6c-0.2,0-0.3-0.2-0.3-0.3v-8.8c-0.3,0.2-0.6,0.3-0.7,0.4c0,0.3,0,8.4,0,8.9c0.6,0,7,0,7,0
				c0.1,0,0.2,0,0.3,0.1c0,0,0.5,0.5,1.2,0.6h0.3c0.7-0.1,1.1-0.6,1.1-0.6c0.1-0.1,0.2-0.1,0.3-0.1c0,0,6.5,0,7,0c0-0.6,0-8.6,0-8.9
				c-0.1-0.1-0.4-0.3-0.7-0.4v8.8c0,0.2-0.2,0.3-0.3,0.3h-1.6c-0.5,0-1-0.3-1.6-0.4c-0.6-0.3-1.3-0.5-2-0.5c-1,0-1.8,0.9-1.8,0.9
				C55.8,84.3,55.7,84.4,55.6,84.4z"/>
			<path class="st1" d="M65.2,75.9c-0.2,0-0.4,0-0.6,0V85c0,0.2-0.2,0.3-0.3,0.3c0,0-7,0-7.2,0c-0.2,0.2-0.7,0.6-1.5,0.7h-0.4
				c-0.8-0.1-1.3-0.5-1.5-0.7c-0.3,0-7.2,0-7.2,0c-0.2,0-0.3-0.2-0.3-0.3v-9.1c-0.2,0-0.4,0-0.6,0c0,0.6,0,9.6,0,10.1
				c0.6,0,8.1,0,8.1,0c0.1,0,0.2,0,0.3,0.1c0,0,0.3,0.4,1,0.5c0.3,0,0.7,0,0.9,0c0.7-0.1,1-0.5,1-0.5c0.1-0.1,0.2-0.1,0.3-0.1
				c0,0,7.5,0,8.1,0C65.2,85.5,65.2,76.5,65.2,75.9z"/>
			<path class="st1" d="M52.8,73.7c-1.1,0-1.6,0.4-2.2,0.8c-0.4,0.3-0.8,0.5-1.3,0.5c0,0-0.9,0-1.2,0c0,0.6,0,8.2,0,8.7
				c0.4,0,1.3,0,1.3,0c0.4,0,0.9-0.2,1.4-0.4c0.6-0.3,1.4-0.6,2.2-0.6c0.9,0,1.6,0.5,2.1,0.9c0-0.8,0-8.8,0-8.8
				C55,74.8,54.7,73.7,52.8,73.7z M49.5,76.3c0.2,0,0.7,0,1.3-0.3l0.5-0.3l1-0.4c0.8-0.2,1.5-0.1,1.5-0.1c0.1,0,0.1,0.1,0.1,0.2
				c0,0.1-0.1,0.1-0.2,0.1c-0.2,0-0.8-0.1-1.4,0l-0.9,0.6l-0.5,0.3c-0.7,0.3-1.2,0.3-1.4,0.3c-0.1,0-0.2-0.1-0.2-0.2
				C49.3,76.4,49.4,76.3,49.5,76.3z M49.5,78.2c0.2,0,0.7-0.1,1.3-0.3l0.5-0.3l1-0.4c0.8-0.2,1.5-0.1,1.5-0.1c0.1,0,0.1,0.1,0.1,0.2
				s-0.1,0.1-0.2,0.1c-0.2,0-0.8-0.1-1.4,0l-0.9,0.5l-0.5,0.3c-0.7,0.3-1.2,0.3-1.4,0.3c-0.1,0-0.2-0.1-0.2-0.2
				C49.3,78.2,49.4,78.2,49.5,78.2z M53.7,81.2c-0.2,0-0.8-0.1-1.4,0l-0.9,0.4l-0.5,0.3c-0.7,0.3-1.2,0.3-1.4,0.3
				c-0.1,0-0.2-0.1-0.2-0.2s0.1-0.2,0.2-0.2c0.2,0,0.7,0,1.3-0.3l0.5-0.3l1-0.4c0.8-0.2,1.5-0.1,1.5,0c0,0,0.1,0,0.1,0.2
				C53.8,81.2,53.7,81.2,53.7,81.2z M53.7,79.3c-0.2,0-0.8-0.1-1.4,0l-0.9,0.4l-0.5,0.3c-0.7,0.3-1.2,0.3-1.4,0.3
				c-0.1,0-0.2-0.1-0.2-0.2s0.1-0.2,0.2-0.2c0.2,0,0.7-0.1,1.3-0.3l0.5-0.3l1-0.4c0.8-0.2,1.5-0.1,1.5,0c0.1,0,0.1,0.1,0.1,0.2
				C53.8,79.3,53.8,79.3,53.7,79.3z"/>
			<path class="st1" d="M57.7,82.8c-0.9,0-1.6,0.5-2.1,0.9c0-0.8,0-8.9,0-8.9s0.3-1,2.2-1c1.1,0,1.6,0.4,2.2,0.8
				c0.4,0.3,0.8,0.5,1.3,0.5c0,0,0.9,0,1.2,0c0,0.6,0,8.2,0,8.7c-0.4,0-1.3,0-1.3,0c-0.4,0-0.9-0.2-1.4-0.4
				C59.3,83.1,58.6,82.8,57.7,82.8z M56.9,77.2c-0.1,0-0.1,0.1-0.1,0.2s0.1,0.1,0.2,0.1c0.2,0,0.8-0.1,1.4,0l0.9,0.4l0.5,0.3
				c0.7,0.3,1.2,0.3,1.4,0.3c0.1,0,0.2-0.1,0.2-0.2s-0.1-0.2-0.2-0.2c-0.2,0-0.7,0-1.3-0.3l-0.5-0.3l-1-0.4
				C57.6,77,56.9,77.2,56.9,77.2z M56.9,75.3c-0.1,0-0.1,0.1-0.1,0.2c0,0.1,0.1,0.1,0.2,0.1c0.2,0,0.8-0.1,1.4,0l0.9,0.3l0.5,0.3
				c0.7,0.3,1.2,0.3,1.4,0.3c0.1,0,0.2-0.1,0.2-0.2s-0.1-0.2-0.2-0.2c-0.2,0-0.7-0.1-1.3-0.3l-0.5-0.3l-1-0.4
				C57.6,75.1,56.9,75.3,56.9,75.3z M56.9,79c-0.1,0-0.1,0.1-0.1,0.2c0,0.1,0.1,0.1,0.2,0.1c0.2,0,0.8-0.1,1.4,0l0.9,0.4l0.5,0.3
				c0.7,0.3,1.2,0.3,1.4,0.3c0.1,0,0.2-0.1,0.2-0.2s-0.1-0.2-0.2-0.2c-0.2,0-0.7-0.1-1.3-0.3l-0.6-0.1l-1-0.4
				C57.8,78.9,57.2,79,56.9,79z M56.9,80.9c-0.1,0-0.1,0.1-0.1,0.2s0.1,0.1,0.2,0.1c0.2,0,0.8-0.1,1.4,0l0.9,0.3l0.5,0.3
				c0.7,0.3,1.2,0.3,1.4,0.3c0.1,0,0.2-0.1,0.2-0.2c0-0.1-0.1-0.2-0.2-0.2c-0.2,0-0.7,0-1.3-0.3l-0.5-0.3l-1-0.4
				C57.8,80.7,57.2,80.8,56.9,80.9z"/>
			<g>
				<path class="st1" d="M36.5,101.5c-0.1-0.1-0.3-0.3-0.4-0.4c-0.1,0.2-0.3,0.3-0.5,0.3l-0.5,0.1c-0.6,0.1-1.4,0.3-1.6,0.9
					c-0.1,0.3-0.2,0.5-0.2,0.7c0,0.3,0.1,0.5,0.2,0.7c0.1,0,0.2-0.1,0.3-0.1c-0.2-0.7,0.2-1.3,0.3-1.2c0.1,0,0,0.4,0.1,0.7
					c0,0.1,0.1,0.2,0.1,0.3c0.1-0.1,0.3-0.2,0.3-0.3c0.1-0.5,0.4-0.9,0.8-0.9l0.3,0.1c0.3,0.2,1.1,0.5,1.5,0.2
					C36.8,102.4,36.7,101.8,36.5,101.5z"/>
			</g>
			<g>
				<path class="st1" d="M45.5,104.6c-0.1,0-0.2-0.1-0.2-0.1l0,0c-0.4,0-2.2-0.3-2.5-0.3c0,0-0.3-0.1-0.9,0.2
					c-0.5,0.2-0.9,0.6-1,0.9c0.1,0.1,0.2,0.1,0.3,0.2c0.2-0.3,0.4-0.5,0.9-0.7c0.3-0.2,0.9-0.2,1.1-0.1c0.2,0.1-0.4,0.3-0.9,0.6
					c-0.2,0.2-0.3,0.3-0.4,0.5l0,0c0.1,0,0.4-0.1,0.7-0.1l0.7-0.2c0.3,0,3.5,0,4.5,0c0.1-0.1,0.1-0.3,0.1-0.3
					C47.2,105.1,46.3,105,45.5,104.6z"/>
			</g>
			<path class="st2" d="M46.7,110.2c0.1,0.3-0.9,0.3-1.4,0.3c-0.8,0-1.6-0.1-1.5-0.3c0.1-0.3,0.8-0.2,1.5-0.2
				C45.7,110,46.6,110,46.7,110.2L46.7,110.2z M45.3,111.6c-0.1-0.3-0.9-0.2-1.3-0.3c-0.7,0-1.4-0.1-1.4,0.2
				c-0.1,0.3,0.7,0.3,1.4,0.3C44.4,111.9,45.3,111.9,45.3,111.6L45.3,111.6z M43.7,113.1c0-0.2-0.6-0.2-0.9-0.2c-0.5,0-1-0.1-1,0.2
				c0,0.3,0.5,0.3,1,0.3C43.1,113.3,43.7,113.2,43.7,113.1L43.7,113.1z M31.2,95.6l-0.2,0.1c-0.2,0.1-0.3,0.3-0.2,0.4
				c0.1,0.2,0.3,0.3,0.4,0.2l0.2-0.1c0.2-0.1,0.3-0.3,0.2-0.4C31.6,95.6,31.4,95.6,31.2,95.6z M40.9,93c-0.1-0.1-0.2-0.1-0.3-0.1
				l-1.7,0.6c-0.2,0.1-0.2,0.3-0.1,0.4c0.1,0.2,0.3,0.3,0.4,0.2l1.6-0.9C40.9,93.2,40.9,93.1,40.9,93L40.9,93z M41.1,94.5
				c0-0.1-0.2-0.2-0.3-0.1l-1.3,0.2c-0.2,0-0.3,0.3-0.2,0.4c0,0.2,0.3,0.3,0.4,0.3l1.3-0.5C41.1,94.7,41.1,94.6,41.1,94.5L41.1,94.5
				z M41.1,96.1c0-0.1-0.2-0.2-0.3-0.2l-1-0.1c-0.2,0-0.3,0.2-0.3,0.3s0.2,0.3,0.3,0.3l1-0.3C41.1,96.3,41.1,96.2,41.1,96.1
				L41.1,96.1z M40.9,97.6c0-0.1-0.1-0.2-0.2-0.2l-0.8-0.2c-0.2,0-0.3,0.2-0.3,0.3s0.1,0.3,0.3,0.3l0.9-0.1
				C40.8,97.8,40.9,97.7,40.9,97.6L40.9,97.6z M47.5,92.3c0,0.2,0.1,0.3,0.3,0.3c0,0,0.9,0.3,1.6,0.6c0.2,0.1,0.3,0,0.3-0.1
				s0-0.3-0.1-0.3c-0.8-0.4-1.6-0.7-1.7-0.7C47.7,92,47.5,92.1,47.5,92.3L47.5,92.3z M47.9,93.7c0,0.2,0.1,0.3,0.2,0.3
				c0,0,0.7,0.2,1.2,0.4c0.1,0.1,0.3,0,0.3-0.1c0.1-0.1,0-0.3-0.1-0.3c-0.7-0.3-1.3-0.5-1.3-0.5C48,93.5,47.9,93.6,47.9,93.7
				L47.9,93.7z M48,95c0,0.1,0.1,0.3,0.2,0.3c0,0,0.6,0.2,0.9,0.3c0.1,0.1,0.3,0,0.3-0.1c0.1-0.1,0-0.3-0.1-0.3
				c-0.6-0.3-0.8-0.3-0.9-0.3C48.1,94.9,48,94.9,48,95L48,95z M48,96.2c0,0.1,0,0.3,0.2,0.3c0,0,0.3,0.1,0.5,0.2
				c0.1,0,0.2,0,0.3-0.1c0.1-0.1,0-0.2-0.1-0.3c-0.2-0.1-0.5-0.2-0.6-0.2C48.1,96.1,48,96.1,48,96.2L48,96.2z M50.9,94.5
				c-0.1,0.2,0,0.3,0.1,0.4c0,0,0.3,0.2,0.9,0.7c0.1,0.1,0.3,0.1,0.3,0c0.1-0.1,0.1-0.3,0-0.3c-0.6-0.6-0.9-0.8-0.9-0.9
				C51.2,94.3,51,94.3,50.9,94.5L50.9,94.5z M50.7,96c-0.1,0.2,0,0.3,0.1,0.3c0,0,0.2,0.1,0.7,0.4c0.1,0.1,0.3,0.1,0.3,0
				c0.1-0.1,0.1-0.3,0-0.3c-0.6-0.5-0.7-0.6-0.7-0.6C51,95.8,50.8,95.8,50.7,96L50.7,96z M50.4,97.1c-0.1,0.1,0,0.3,0.1,0.3
				c0,0,0.3,0.2,0.4,0.3c0.1,0.1,0.2,0.1,0.3,0c0.1-0.1,0.1-0.2,0-0.3c-0.1-0.1-0.3-0.3-0.4-0.3C50.5,96.9,50.5,97,50.4,97.1
				L50.4,97.1z M49.9,98.1c-0.1,0.1-0.1,0.3,0.1,0.3c0,0,0.1,0,0.3,0.2c0.1,0.1,0.2,0.1,0.3,0c0.1-0.1,0.1-0.2,0-0.3
				c-0.2-0.2-0.2-0.2-0.3-0.3C50.2,97.9,50,98,49.9,98.1L49.9,98.1z M52.9,97.6c-0.1,0.1-0.1,0.3,0,0.3c0,0,0.1,0.1,0.3,0.3
				c0.1,0.1,0.2,0.2,0.3,0.1c0.1-0.1,0.1-0.2,0.1-0.3c-0.1-0.1-0.2-0.3-0.3-0.4S53,97.5,52.9,97.6L52.9,97.6z M52.3,98.5
				c-0.1,0.1-0.1,0.2,0,0.3c0.1,0.1,0.1,0.1,0.2,0.2c0.1,0.1,0.2,0.1,0.3,0.1c0.1,0,0.1-0.2,0.1-0.3c0-0.1-0.1-0.2-0.2-0.3
				C52.4,98.4,52.4,98.4,52.3,98.5L52.3,98.5z M31.7,98.3c0.3-0.1-0.3-0.7-0.2-1c0.2-0.4,1.5-0.9,1.5-1.2c0-0.3-1.8,0.3-2.1,0.9
				C30.6,97.6,31.4,98.4,31.7,98.3L31.7,98.3z M33.6,94.9c0.3,0.1,0.3-0.2,0.4-0.2c0,0,0.1-0.1,0.3,0s0.2,0.2,0.2,0.2
				c0,0.1,0,0.3,0.2,0.3c0.2,0,0.6-0.7-0.1-1c-0.3-0.1-0.4-0.1-0.7-0.1C33.5,94.3,33.3,94.8,33.6,94.9L33.6,94.9z M52.7,94.3
				c-4.7-5.7-11.2-2.9-11.5-2.8c-1.3,0.3-2.4,0.9-3.1,1.2l-0.8,0.3l-2.4,0.3c-0.7,0.2-1.6,0.7-2.9,1.4l-0.9,0.5
				c-1.5,0.8-1.7,1.5-1.7,1.5c0,0.1-0.1,0.2-0.2,0.2c-0.2,0.1-0.3,0.2-0.3,0.3c0,0,0,0,0,0.1s0,0.1,0,0.1l0.3-0.2
				c0.2-0.1,0.3,0,0.4,0.1c0.1,0.2,0,0.3-0.1,0.4L29.2,98c0.3,0.4,0.6,0.5,0.6,0.5h0.2c0.3-0.1,1.1-0.3,1.5,0.6v0.5
				c-0.1,0.2-0.3,0.3-0.4,0.4c0.3,0.1,0.8,0.1,0.9,0h0.2l0.3-0.1c0.9-0.2,1.8-0.3,2.3-0.2c0.8,0.2,2,0.9,2.3,1.4
				c0.3,0.3,0.7,1.8,0.6,2.1c0,0.2-0.1,0.8-0.8,1.2c-0.4,0.2-0.9,0.2-1.2,0.2h-0.3c-0.1,0.1-0.3,0.4-0.5,0.7c0.1,0,0.3,0,0.3,0
				c0.3-0.3,0.5-0.5,0.6-0.4c0.1,0.1,0,0.3-0.1,0.4c0.3,0,0.7,0,0.7,0h0.3c0.4,0,1.1,0,1.4-0.2l0.3-0.3l1-0.9l1.1-0.9l0.4-0.3
				c0.2-0.2,0.3-1.6,0.1-3c0-0.2,0.1-0.3,0.3-0.3s0.3,0.1,0.3,0.3c0.1,0.6,0.2,1.7,0.1,2.6h0.1c0.9,0.6,1.8,0.9,2.6,1.1
				c-0.3-0.3-0.5-0.8-0.7-1.3c-0.2-0.3-0.2-0.7-0.2-1c0-1.1,0.7-1.9,1.2-2.7c0.4-0.5,0.9-1,0.9-1.6c0-0.1,0-0.1,0-0.2c0,0,0,0,0-0.1
				c0-0.2,0.1-0.3,0.3-0.3c0.2,0,0.3,0.1,0.3,0.3c0.1,0.8-0.4,1.5-0.9,2.2c-0.7,0.9-1.4,1.7-0.9,3.1c0.3,0.9,0.8,1.5,1.3,1.8
				c0,0,0.1,0,0.1,0.1c0.1,0,0.1,0.1,0.2,0.1c1,0.5,2.2,0.5,2.2,0.5c0.1,0,0.2,0.1,0.3,0.1c0.1,0.1,0.1,0.2,0.1,0.3
				c0,0-0.1,0.5-0.3,0.9c0,0.1-0.1,0.1-0.1,0.2c-0.1,0.1-0.2,0.2-0.3,0.3l-1.1,0.8c-0.9,0.6-2.2,1.5-3.7,2.7
				c-1.7,1.5-2.8,3.5-2.5,4.4c0.1,0.2,0.2,0.3,0.5,0.4c2.9,0.3,4.7-1.6,6.2-3.2l0.4-0.4c1-1.1,1.8-2.4,2.3-3.4
				c0.3-0.6,0.5-0.9,0.7-1c1.2-0.9,3.2-3.5,3.6-6.5C54.5,97.9,54,96,52.7,94.3z"/>
			<path class="st1" d="M60.5,106.3c0.5,0.1,1.1,0,1.7-0.3c0.5-0.2,0.9-0.6,1.2-0.9c0.4,0.6,1.4,2,1.7,2.5c-0.6,0.8-1.3,1.6-2.2,2.2
				L60.5,106.3z"/>
			<path class="st1" d="M22.3,105c0.3,0.4,0.7,0.8,1.2,0.9c0.5,0.3,1.1,0.3,1.7,0.3l-2.5,3.6c-0.8-0.7-1.6-1.5-2.2-2.2
				C21,107,22,105.6,22.3,105z"/>
			<path class="st1" d="M30.5,126.3c0.2-0.2,0.3-0.3,0.5-0.4l0.4-0.3c0.6-0.5,1.4-1.1,1.9-1.6c1.3,0.5,2.3,1.1,3,1.9
				c0.5,0.6,0.6,1.4,0.2,1.8c-0.1,0.1-0.3,0.3-0.3,0.3l-0.9,0.9h-0.5c-2.5,0-4.2-0.9-4.6-1.7C30.3,126.8,30.4,126.5,30.5,126.3z"/>
			<path class="st1" d="M54.3,125.5l0.4,0.3c0.2,0.2,0.3,0.3,0.5,0.4c0.1,0.2,0.2,0.5,0.1,0.8c-0.3,0.9-2.1,1.7-4.6,1.7l0,0l0,0
				h-0.5l-0.8-0.9c-0.1-0.1-0.3-0.3-0.3-0.3c-0.3-0.3-0.3-1.2,0.2-1.8c0.7-0.8,1.7-1.4,3-1.9C52.9,124.3,53.7,125,54.3,125.5z"/>
			<path class="st1" d="M23.2,99.9L23.2,99.9L23.2,99.9z"/>
			<path class="st1" d="M31.5,122.1l-0.3-0.1c-5.8-2.2-10.5-5.3-12.8-8.1c-2.5-3.1-2.1-5.6-1.4-7.2l0.8-1.6l0.8-1.6
				c-0.1,0.8,0.1,1.7,0.5,2.8c1.2,2.8,5.2,5.9,8.2,7.6c1.3,0.8,2.6,1.4,3.9,1.9c3.5,1.6,6.2,2.8,6.2,6v3.7c0,0.2,0,0.3,0,0.4
				c-0.1-0.3-0.3-0.5-0.4-0.7C35.8,123.8,33.8,123.1,31.5,122.1z M25.8,114.4c0.1-0.1,0.1-0.3,0.2-0.3c-0.4-0.3-0.9-0.5-1.3-0.9
				c-0.1,0.1-0.2,0.3-0.2,0.3c0.1,0.1,0.2,0.2,0.3,0.3c-0.4,0.9-0.9,1.8-1.3,2.8c-0.1-0.1-0.2-0.1-0.3-0.2c-0.1,0.1-0.1,0.3-0.2,0.3
				c0.7,0.5,1.4,0.9,2.2,1.3c0.2-0.3,0.4-0.5,0.6-0.8c0,0,0,0,0-0.1c-0.1-0.1-0.2-0.2-0.3-0.3c-0.2,0.2-0.3,0.4-0.5,0.5
				c-0.3-0.1-0.6-0.3-0.9-0.5c0-0.3,0.9-2.1,1.3-2.8C25.4,114.3,25.7,114.4,25.8,114.4L25.8,114.4z M22.4,114.7
				c0.2-0.3,0.3-0.6,0.5-0.9c-0.1-0.1-0.2-0.2-0.3-0.3c-0.1,0.1-0.1,0.2-0.2,0.3c-0.1,0-0.5-0.3-0.6-0.4c0.2-0.3,0.4-0.8,0.6-1.2
				c0.2,0.2,0.6,0.4,0.7,0.6c0.1,0.2-0.1,0.4-0.2,0.6c0,0.1,0.3,0.2,0.3,0.3c0.2-0.3,0.3-0.6,0.4-0.9c-0.7-0.5-1.3-1-1.9-1.6
				c-0.1,0.1-0.1,0.3-0.2,0.3c0.1,0.1,0.2,0.2,0.3,0.3c-0.5,0.9-0.9,1.7-1.4,2.7c-0.1-0.1-0.2-0.2-0.3-0.2c-0.1,0.1-0.1,0.2-0.2,0.3
				c0.6,0.6,1.2,1.1,1.9,1.6c0.2-0.3,0.3-0.5,0.6-0.9l0,0c-0.1-0.1-0.2-0.2-0.3-0.3c-0.1,0.1-0.3,0.5-0.4,0.5
				c-0.2,0-0.7-0.5-0.8-0.6c0-0.2,0.4-0.9,0.6-1.1c0.2,0.2,0.4,0.3,0.5,0.5c0,0.1-0.1,0.3-0.1,0.3C22.3,114.6,22.3,114.6,22.4,114.7
				L22.4,114.7z M33.8,118.2c-0.9-0.5-1.9-0.9-2.9-1.4c-0.2,0.3-0.3,0.6-0.5,0.9c0.2,0.1,0.3,0.2,0.4,0.3c0.1-0.2,0.3-0.3,0.3-0.5
				c0.2,0,0.5,0.2,0.7,0.3c-0.4,0.9-0.9,1.9-1.3,2.8c-0.2-0.1-0.3-0.1-0.4-0.2c-0.1,0.1-0.1,0.3-0.2,0.3c0.5,0.3,1,0.4,1.6,0.7
				c0.1-0.1,0.1-0.3,0.2-0.3c-0.2-0.1-0.3-0.2-0.4-0.2c0.4-0.9,0.9-1.9,1.3-2.8c0.3,0.1,0.5,0.3,0.6,0.4c-0.1,0.2-0.2,0.3-0.2,0.6
				c0,0.1,0.3,0.2,0.4,0.2C33.5,118.8,33.6,118.4,33.8,118.2L33.8,118.2z M30.4,116.5c-0.4-0.2-0.8-0.4-1.2-0.6
				c-0.1,0.1-0.1,0.2-0.2,0.3c0.2,0.1,0.3,0.2,0.4,0.3c-0.4,0.9-1.1,3-2.1,2.4c-0.7-0.4-0.4-0.9-0.1-1.8c0.2-0.4,0.4-0.9,0.7-1.4
				c0.2,0.1,0.3,0.2,0.4,0.2c0.1-0.1,0.1-0.3,0.2-0.3c-0.4-0.3-0.9-0.5-1.4-0.7c-0.1,0.1-0.1,0.3-0.2,0.3c0.1,0.1,0.2,0.1,0.3,0.2
				c0,0.2-0.3,0.7-0.4,0.9c-0.4,0.9-0.9,1.7-0.5,2.3c0.1,0.2,0.3,0.3,0.4,0.4c0.3,0.2,0.6,0.3,0.9,0.3c1.1,0.1,1.6-1.4,2.2-2.7
				c0.1,0.1,0.2,0.1,0.3,0.2C30.4,116.8,30.4,116.6,30.4,116.5L30.4,116.5z M21.1,111c0.1,0.1,0.2,0.2,0.3,0.2
				c0.1-0.1,0.1-0.3,0.2-0.3c-0.3-0.3-0.6-0.6-0.9-0.9c-0.1,0.1-0.1,0.3-0.2,0.3c0.1,0.1,0.3,0.3,0.3,0.3c-0.3,0.3-1.5,1.6-1.6,1.7
				l0,0c-0.1-0.1,0.4-2.8,0.5-2.9c0.1,0.1,0.2,0.3,0.3,0.3c0.1-0.1,0.2-0.3,0.2-0.3c-0.3-0.4-0.7-0.9-0.9-1.3
				c-0.1,0.1-0.2,0.2-0.3,0.3c0.1,0.1,0.1,0.2,0.2,0.3c-0.1,0.3-0.6,3.6-0.6,4c0.1,0.2,0.3,0.3,0.3,0.4
				C19.5,112.7,20.9,111.3,21.1,111L21.1,111z"/>
			<path class="st1" d="M67.3,113.9c-2.2,2.8-7,5.9-12.8,8.1l-0.3,0.1c-2.3,0.9-4.3,1.7-5.5,3c-0.2,0.2-0.3,0.4-0.4,0.7
				c0-0.1,0-0.3,0-0.4v-3.6c0-3.1,2.8-4.4,6.2-6c1.3-0.6,2.6-1.2,3.9-1.9c3-1.7,7-4.7,8.2-7.6c0.4-1.1,0.6-2.1,0.5-2.8l0.8,1.6
				l0.8,1.6C69.4,108.2,69.8,110.7,67.3,113.9z M55.4,118.5L55.4,118.5c0-0.6,0.1-1.1,0.2-1.6l0,0c0.3,0.4,0.4,0.9,0.6,1.3
				C56,118.2,55.6,118.4,55.4,118.5L55.4,118.5z M58.4,118.1c0,0.2,0.2,0.4,0.1,0.6c-0.1,0.1-0.9,0.6-1,0.6
				c-0.2-0.3-0.3-0.8-0.5-1.1c0.2-0.1,0.8-0.4,0.9-0.4c0.1,0.1,0.1,0.2,0.2,0.3c0.1-0.1,0.3-0.1,0.3-0.2c-0.2-0.3-0.3-0.7-0.4-1
				c-0.1,0.1-0.3,0.1-0.3,0.2c0,0.1,0.1,0.3,0.1,0.3c-0.1,0.2-0.7,0.4-0.9,0.5c-0.3-0.4-0.4-0.9-0.6-1.3c0.3-0.2,0.8-0.4,1-0.5
				c0.1,0.1,0.3,0.3,0.3,0.4c0.1-0.1,0.3-0.2,0.3-0.2c0-0.1-0.3-0.7-0.4-0.9c-0.7,0.3-1.6,0.9-2.3,1.1c-0.1,1.3-0.3,2.7-0.3,3.9
				c-0.1,0.1-0.2,0.2-0.3,0.2c0.1,0.1,0.1,0.3,0.2,0.3c0.4-0.2,0.8-0.3,1.2-0.5c-0.1-0.1-0.1-0.3-0.2-0.3c-0.2,0.1-0.3,0.1-0.4,0.2
				c0-0.4,0-0.9,0-1.4c0.3-0.2,0.7-0.3,0.9-0.4c0.2,0.3,0.3,0.8,0.5,1.1c-0.1,0.1-0.3,0.1-0.3,0.2c0.1,0.1,0.1,0.3,0.2,0.3
				c0.8-0.3,1.7-0.9,2.4-1.2c-0.1-0.3-0.2-0.6-0.3-0.9C58.7,118,58.6,118.1,58.4,118.1L58.4,118.1z M61.2,113.6
				c0.1-0.1,0.2-0.2,0.3-0.2c-0.1-0.1-0.1-0.3-0.2-0.3c-0.3,0.3-0.8,0.5-1.1,0.8c0.1,0.1,0.1,0.3,0.2,0.3c0.1-0.1,0.3-0.2,0.3-0.3
				c0.1,0.5,0.3,2.2,0.3,2.5c0,0.2,0,0.3,0.1,0.4l0,0c-0.1,0-0.3-0.3-0.4-0.4l-0.9-1c-0.2-0.2-0.3-0.3-0.4-0.5
				c0.2-0.1,0.3-0.2,0.4-0.3c-0.1-0.1-0.1-0.3-0.2-0.3c-0.5,0.3-0.9,0.5-1.5,0.8c0.1,0.1,0.1,0.3,0.2,0.3c0.1-0.1,0.2-0.1,0.3-0.2
				c0.2,0.2,0.4,0.4,0.6,0.6c0.4,0.4,0.9,0.9,1.3,1.4c0.2,0.2,0.3,0.3,0.6,0.6c0.2-0.1,0.3-0.2,0.5-0.3c-0.1-0.9-0.1-1.8-0.2-2.8
				C61.3,114.4,61.2,114,61.2,113.6L61.2,113.6z M64.7,114.9c-0.8,0.7-1.6-0.3-1.9-1.3c-0.1-0.4-0.1-0.9,0.2-1.3
				c0.1-0.1,0.2-0.2,0.3-0.3c0.2-0.1,0.3-0.2,0.5-0.2C64.7,111.9,65.6,114.1,64.7,114.9L64.7,114.9z M65,111.8
				c-0.5-0.5-1.1-0.6-2-0.1c-0.1,0.1-0.3,0.3-0.3,0.3c-0.3,0.3-0.5,0.9-0.5,1.3c0,0.2,0,0.4,0.1,0.6c0.1,0.3,0.2,0.6,0.3,0.9
				c0.5,0.8,1.1,0.9,2,0.6C65.9,114.9,66.1,112.8,65,111.8L65,111.8z"/>
			<path class="st1" d="M55.7,127.8L55.7,127.8v5.3c0,1.6-2.7,2.2-5,2.2H35c-2.3,0-5-0.5-5-2.2v-5.2v-0.1c0.9,1,2.8,1.6,5,1.6h15.7
				l0,0C53,129.5,54.9,128.8,55.7,127.8z M50.5,132.3c0-0.5,0-1,0-1.5c0.2,0,0.4,0,0.6,0c0.4,0.2,0.6,0.8,0.3,1.2
				C51.3,132.3,51,132.3,50.5,132.3L50.5,132.3z M52.3,133.5c-0.2-0.3-0.4-0.9-0.7-1l0,0c0.7-0.2,1.1-1.2,0.4-1.7
				c-0.5-0.4-1.6-0.3-2.5-0.3c0,0.1,0,0.3,0,0.3l0,0c0.1,0,0.3,0,0.3,0v3c-0.1,0-0.3,0-0.3,0c0,0.1,0,0.3,0,0.3l0,0H51
				c0-0.1,0-0.3,0-0.3c-0.2,0-0.3,0-0.4,0c0-0.3,0-0.8,0-1.1c0.2,0,0.3,0,0.4,0c0.3,0.2,0.6,1.2,0.9,1.5c0.1,0.1,0.8,0,0.9,0v-0.3
				c-0.1,0-0.3,0-0.3,0C52.4,133.8,52.3,133.6,52.3,133.5L52.3,133.5z M43.6,133.3c-0.1,0.3-0.3,0.4-0.7,0.5c-0.2,0-0.4,0-0.5-0.1
				c-0.1-0.1,0-0.2,0-0.3s0-0.9,0-1C43,132.5,43.7,132.6,43.6,133.3L43.6,133.3z M42.4,130.8c0.4,0,0.8,0,0.9,0.3
				c0.1,0.1,0.2,0.3,0.1,0.4c-0.1,0.5-0.4,0.6-1,0.6C42.4,131.7,42.4,131.3,42.4,130.8L42.4,130.8z M43.4,132.2L43.4,132.2
				L43.4,132.2c0.6-0.3,0.9-1.2,0.3-1.6c-0.5-0.3-1.6-0.2-2.3-0.2v0.3c0.2,0,0.3,0,0.4,0v3c-0.2,0-0.3,0-0.4,0c0,0.1,0,0.3,0,0.3
				c0.9,0,1.9,0.1,2.5-0.2c0.4-0.3,0.8-0.9,0.3-1.4C43.9,132.4,43.7,132.4,43.4,132.2L43.4,132.2z M38.5,132.3c0-0.5,0-1,0-1.5
				c0.2,0,0.4,0,0.6,0c0.4,0.2,0.6,0.8,0.3,1.2C39.2,132.3,38.9,132.3,38.5,132.3L38.5,132.3z M40.2,133.5c-0.2-0.3-0.4-0.9-0.7-1
				l0,0c0.7-0.2,1.1-1.2,0.4-1.7c-0.5-0.4-1.6-0.3-2.5-0.3c0,0.1,0,0.3,0,0.3l0,0c0.1,0,0.3,0,0.3,0v3c-0.1,0-0.3,0-0.3,0
				c0,0.1,0,0.3,0,0.3l0,0h1.5c0-0.1,0-0.3,0-0.3c-0.2,0-0.3,0-0.4,0c0-0.3,0-0.8,0-1.1c0.2,0,0.3,0,0.4,0c0.3,0.2,0.6,1.2,0.9,1.5
				c0.1,0.1,0.8,0,0.9,0v-0.3c-0.1,0-0.3,0-0.3,0C40.3,133.8,40.2,133.6,40.2,133.5L40.2,133.5z M34.3,132.8c0.2-0.5,0.3-1,0.5-1.6
				l0,0l0.5,1.6H34.3L34.3,132.8z M35.3,130.4c-0.2,0-0.4,0-0.5,0c-0.4,1.1-0.9,2.2-1.3,3.4c-0.1,0-0.3,0-0.3,0v0.3h1.3v-0.3
				c-0.2,0-0.3,0-0.4,0c0.1-0.3,0.2-0.4,0.2-0.7c0.4,0,0.9,0,1.3,0c0.1,0.2,0.2,0.4,0.3,0.7c-0.2,0-0.3,0-0.4,0v0.3h1.5v-0.3
				c-0.1,0-0.3,0-0.3,0C36.1,132.7,35.6,131.5,35.3,130.4L35.3,130.4z M47,133.9c-0.9,0.2-1.4-1.1-1.2-2.1c0.1-0.4,0.3-0.9,0.7-1
				c0.1,0,0.2-0.1,0.3-0.1c0.3,0,0.4,0,0.6,0.1C48.2,131.4,48.2,133.7,47,133.9L47,133.9z M46.8,130.4c-0.2,0-0.3,0.1-0.5,0.1
				c-0.4,0.2-0.8,0.4-1,0.9c-0.1,0.2-0.2,0.3-0.2,0.6c-0.1,0.3-0.1,0.6,0,0.9c0.2,0.9,0.6,1.4,1.6,1.6c1.6,0.3,2.5-1.5,2-2.8
				C48.3,130.7,47.8,130.4,46.8,130.4L46.8,130.4z"/>
			<path class="st1" d="M69.5,71.1c0,0,0,0.2,0,0.3c0,0.2,0,0.3,0,0.3H16.2c0,0,0-0.2,0-0.3c0-0.2,0-0.3,0-0.3H69.5z M69.5,71.1
				c0-9.2,0-20.4,0-20.4H42.9l0,0l0,0H16.2c0,0,0,11,0,20.4 M38.9,64.1c0.3,0,0.5,0.3,0.5,0.5c0,0.3-0.3,0.5-0.5,0.5
				c-0.3,0-0.5-0.3-0.5-0.5C38.4,64.3,38.6,64.1,38.9,64.1L38.9,64.1z M34.9,65.5c0.3-0.2,0.6-0.1,0.8,0.2c0.2,0.3,0.1,0.6-0.2,0.8
				c-0.3,0.2-0.6,0.1-0.8-0.2C34.6,65.9,34.7,65.5,34.9,65.5L34.9,65.5z M37,64.9c0.2,0,0.3,0.2,0.3,0.3c0,0.2-0.2,0.3-0.3,0.3
				c-0.2,0-0.3-0.1-0.3-0.3C36.7,64.9,36.8,64.9,37,64.9L37,64.9z M40.9,64.2c0.2,0,0.3,0.2,0.3,0.3c0,0.1-0.2,0.3-0.3,0.3
				c-0.2,0-0.3-0.2-0.3-0.3C40.6,64.3,40.7,64.2,40.9,64.2L40.9,64.2z M47.3,64.7c0,0.3-0.3,0.5-0.5,0.5c-0.3,0-0.5-0.3-0.5-0.5
				s0.3-0.5,0.5-0.5C47,64.1,47.3,64.3,47.3,64.7L47.3,64.7z M51,66.1c-0.2,0.3-0.5,0.3-0.8,0.2c-0.3-0.2-0.3-0.5-0.2-0.8
				c0.2-0.3,0.5-0.3,0.8-0.2C51,65.5,51.1,65.9,51,66.1L51,66.1z M48.9,65.1c0,0.2-0.2,0.3-0.3,0.3c-0.2,0-0.3-0.1-0.3-0.3
				c0-0.2,0.2-0.3,0.3-0.3C48.8,64.9,48.9,64.9,48.9,65.1L48.9,65.1z M45.1,64.4c0,0.2-0.2,0.3-0.3,0.3c-0.2,0-0.3-0.2-0.3-0.3
				c0-0.1,0.2-0.3,0.3-0.3C44.9,64.2,45.1,64.3,45.1,64.4L45.1,64.4z M42.8,57.6c0.3,0,0.6,0.3,0.6,0.6s-0.3,0.6-0.6,0.6
				s-0.6-0.3-0.6-0.6S42.5,57.6,42.8,57.6L42.8,57.6z M42.8,56c0.3,0,0.6,0.3,0.6,0.6c0,0.3-0.3,0.6-0.6,0.6s-0.6-0.3-0.6-0.6
				C42.3,56.2,42.5,56,42.8,56L42.8,56z M42.8,54.4c0.3,0,0.6,0.3,0.6,0.6s-0.3,0.6-0.6,0.6s-0.6-0.3-0.6-0.6S42.5,54.4,42.8,54.4
				L42.8,54.4z M40.1,54.6c0.3,0,0.6,0.3,0.6,0.6c0,0.3-0.3,0.6-0.6,0.6c-0.3,0-0.6-0.3-0.6-0.6C39.5,54.8,39.8,54.6,40.1,54.6
				L40.1,54.6z M38.2,54c0.3,0,0.6,0.3,0.6,0.6c0,0.3-0.3,0.6-0.6,0.6c-0.3,0-0.6-0.3-0.6-0.6C37.7,54.2,38,54,38.2,54L38.2,54z
				 M36.3,53.6c0.3,0,0.6,0.3,0.6,0.6c0,0.3-0.3,0.6-0.6,0.6c-0.3,0-0.6-0.3-0.6-0.6C35.8,53.8,36.1,53.6,36.3,53.6L36.3,53.6z
				 M34.4,53.8c0.3,0,0.6,0.3,0.6,0.6c0,0.3-0.3,0.6-0.6,0.6c-0.3,0-0.6-0.3-0.6-0.6C33.8,54.1,34.1,53.8,34.4,53.8L34.4,53.8z
				 M32.7,54.8c0.3,0,0.6,0.3,0.6,0.6c0,0.3-0.3,0.6-0.6,0.6c-0.3,0-0.6-0.3-0.6-0.6C32.2,55.1,32.4,54.8,32.7,54.8L32.7,54.8z
				 M31.7,56.6c0.3,0,0.6,0.3,0.6,0.6c0,0.3-0.3,0.6-0.6,0.6c-0.3,0-0.6-0.3-0.6-0.6S31.4,56.6,31.7,56.6L31.7,56.6z M31.7,58.6
				c0.3,0,0.6,0.3,0.6,0.6s-0.3,0.5-0.6,0.5s-0.6-0.3-0.6-0.6S31.5,58.6,31.7,58.6L31.7,58.6z M32.4,60.4c0.3,0,0.6,0.3,0.6,0.6
				c0,0.3-0.3,0.6-0.6,0.6c-0.3,0-0.6-0.3-0.6-0.6C31.9,60.6,32.2,60.4,32.4,60.4L32.4,60.4z M46.1,55.1c0,0.3-0.3,0.6-0.6,0.6
				c-0.3,0-0.6-0.3-0.6-0.6s0.3-0.6,0.6-0.6C45.9,54.5,46.1,54.8,46.1,55.1L46.1,55.1z M48,54.5c0,0.3-0.3,0.6-0.6,0.6
				c-0.3,0-0.6-0.3-0.6-0.6s0.3-0.6,0.6-0.6C47.7,54,48,54.2,48,54.5L48,54.5z M49.9,54.1c0,0.3-0.3,0.6-0.6,0.6
				c-0.3,0-0.6-0.3-0.6-0.6c0-0.3,0.3-0.6,0.6-0.6C49.6,53.6,49.9,53.8,49.9,54.1L49.9,54.1z M51.8,54.4c0,0.3-0.3,0.6-0.6,0.6
				s-0.6-0.3-0.6-0.6c0-0.3,0.3-0.6,0.6-0.6S51.8,54.1,51.8,54.4L51.8,54.4z M53.5,55.5c0,0.3-0.3,0.6-0.6,0.6s-0.6-0.3-0.6-0.6
				c0-0.3,0.3-0.6,0.6-0.6S53.5,55.1,53.5,55.5L53.5,55.5z M54.5,57.2c0,0.3-0.3,0.6-0.6,0.6c-0.3,0-0.6-0.3-0.6-0.6
				s0.3-0.6,0.6-0.6C54.3,56.6,54.5,56.8,54.5,57.2L54.5,57.2z M54.4,59.2c0,0.3-0.3,0.6-0.6,0.6c-0.3,0-0.6-0.3-0.6-0.6
				s0.3-0.6,0.6-0.6C54.2,58.6,54.4,58.8,54.4,59.2L54.4,59.2z M53.7,61c0,0.3-0.3,0.6-0.6,0.6s-0.6-0.3-0.6-0.6
				c0-0.3,0.3-0.6,0.6-0.6S53.7,60.6,53.7,61L53.7,61z M48.2,69.9l0.5-0.3c1.2-0.5,1.6-1.2,1.6-1.7c0-0.9-3.2-2.1-7.5-2.1
				S35.4,67,35.4,68c0,0.5,0.4,1.2,1.6,1.7l0.5,0.3c0,0.1-0.4,0-0.6-0.1c-1.3-0.4-2.2-1.1-2.2-1.9c0-1.7,4.2-2.7,8.2-2.7
				c4,0,8.2,0.9,8.2,2.7c0,0.8-0.9,1.5-2.2,1.9C48.7,69.9,48.2,70,48.2,69.9L48.2,69.9z M42.8,63.5c-2.5,0-4.8,0.3-6.5,0.9
				c-0.8,0.3-1.2,0.6-1.6,0.8c-0.1,0.1-0.2,0.1-0.3,0c-0.2-0.1-0.2-0.2-0.3-0.4c-0.1-0.3-0.3-1.4-0.9-2.5c-0.1-0.1,0.1-0.3,0.2-0.1
				c0.3,0.4,1.1,1.8,1.2,2.2l0,0l0,0c0.3-0.2,0.8-0.4,1.3-0.6c1.7-0.6,4.1-1,6.7-1l0,0c2.6,0,5,0.3,6.7,1c0.5,0.2,0.9,0.4,1.3,0.6
				l0,0l0,0c0.1-0.4,0.9-1.7,1.2-2.2c0.1-0.2,0.3,0,0.2,0.1c-0.6,1.2-0.8,2.2-0.9,2.5c0,0.2-0.1,0.3-0.3,0.4c-0.1,0-0.2,0-0.3,0
				c-0.3-0.3-0.9-0.5-1.6-0.8C47.7,63.8,45.4,63.5,42.8,63.5L42.8,63.5L42.8,63.5z M44.1,52.9c0,0.2-0.2,0.3-0.3,0.3h-0.6v0.6
				c0,0.2-0.2,0.3-0.3,0.3s-0.3-0.2-0.3-0.3v-0.6h-0.5c-0.2,0-0.3-0.2-0.3-0.3c0-0.2,0.2-0.3,0.3-0.3h0.6V52c0-0.2,0.2-0.3,0.3-0.3
				c0.2,0,0.3,0.2,0.3,0.3v0.6h0.6C43.9,52.6,44.1,52.8,44.1,52.9z M42.8,66.7c2.2,0,6.6,0.3,6.6,1.7c0,1.4-4.3,1.7-6.6,1.7
				s-6.6-0.3-6.6-1.7C36.2,67.1,40.5,66.7,42.8,66.7z M53,58c0,1.7-1.4,3.6-2,4.4l0,0l0,0l0,0c-0.3,0.5-0.9,1-1.9,0.7
				c-0.4-0.2-0.9-0.3-1.2-0.8c-0.2-0.3-0.3-0.6,0.1-1c0.1-0.1,0.3-0.3,0.4-0.2c0.1,0,0.2,0.3,0,0.3c-0.2,0.2-0.1,0.4,0.2,0.6
				c0.2,0.1,0.3,0,0.4-0.1c0,0-0.3-0.3,0-0.5c0.3-0.2,0.9-0.8,0-1.1c-0.6-0.3-1.1,0.6-1.2,0.7c-0.1,0.1-0.2,0.1-0.1-0.1
				c0.1-0.6,0.7-0.9,0.8-1.5c0.1-0.5-0.3-0.9-0.4-1.1c-0.1-0.1-0.2-0.1-0.3,0c-0.3,0.1-0.7,0.3-0.8,0.9c-0.2,0.7,0.3,1,0.2,1.7
				c0,0.1-0.1,0.2-0.1,0c0-0.2-0.2-1.1-0.9-1.1c-0.9,0-0.6,0.8-0.4,1c0.2,0.3-0.2,0.4-0.2,0.4c0,0.1,0.1,0.3,0.3,0.3
				c0.3,0,0.4-0.3,0.4-0.5c-0.1-0.2,0.1-0.3,0.2-0.3c0.1,0,0.3,0.2,0.3,0.3c0.1,0.5-0.1,0.8-0.3,0.9c-0.4,0.3-1.1,0.3-1.6,0.3
				c-1.3-0.2-1.4-0.9-1.4-0.9c0.3,0.1,0.9,0.3,0.9,0.3s0,0,0.1,0s0.2-0.1,0.2-0.2v-1.2c0-0.1-0.1-0.2-0.2-0.2h-0.1l-0.9,0.3l0.3-0.7
				v-0.1c0-0.1-0.1-0.2-0.2-0.2h-0.7h-0.7c-0.1,0-0.2,0.1-0.2,0.2v0.1l0.3,0.7l-0.9-0.3h-0.1c-0.1,0-0.2,0.1-0.2,0.2v1.2
				c0,0.1,0.1,0.2,0.2,0.2c0,0,0,0,0.1,0c0,0,0.6-0.2,0.9-0.3c0,0-0.1,0.8-1.4,0.9c-0.3,0-1,0.1-1.6-0.3c-0.3-0.2-0.4-0.5-0.3-0.9
				c0-0.1,0.2-0.3,0.3-0.3c0.1,0,0.3,0.2,0.2,0.3c-0.1,0.2,0.1,0.4,0.4,0.5c0.3,0,0.3-0.2,0.3-0.3c0,0-0.4-0.1-0.2-0.4
				c0.2-0.3,0.4-1-0.4-1c-0.7,0-0.9,0.9-0.9,1.1c0,0.2-0.1,0.1-0.1,0c-0.1-0.6,0.3-1,0.2-1.7c-0.1-0.5-0.5-0.7-0.8-0.9
				c-0.1,0-0.3,0-0.3,0c-0.2,0.2-0.5,0.6-0.4,1.1c0.2,0.7,0.7,0.9,0.8,1.5c0,0.1-0.1,0.2-0.1,0.1c-0.1-0.1-0.5-0.9-1.2-0.7
				c-0.8,0.3-0.3,0.9,0,1.1c0.3,0.3,0,0.4,0,0.5c0,0.1,0.2,0.2,0.4,0.1c0.3-0.2,0.3-0.4,0.2-0.6c-0.1-0.1,0-0.3,0-0.3
				c0.1-0.1,0.3,0.1,0.4,0.2c0.3,0.4,0.2,0.8,0.1,1c-0.3,0.5-0.8,0.6-1.2,0.8c-0.9,0.3-1.6-0.2-1.9-0.7l0,0l0,0l0,0
				c-0.6-0.8-2-2.7-2-4.4c0-1.7,1.5-3,3.5-3c0.9,0,1.7,0.3,2.5,0.6c0.9,0.3,1.7,0.6,2.5,0.5v-1.7c0-0.2,0.2-0.3,0.3-0.3
				s0.3,0.2,0.3,0.3V59h2.2v-4.6c0-0.2,0.2-0.3,0.3-0.3c0.2,0,0.3,0.2,0.3,0.3v1.7c0.9,0.1,1.6-0.2,2.6-0.5c0.8-0.3,1.6-0.6,2.5-0.6
				C51.6,55,53,56.3,53,58z M42.8,69.6c3.9,0,5.9-0.8,5.9-1.1s-2-1.1-5.9-1.1s-5.9,0.8-5.9,1.1S38.9,69.6,42.8,69.6z M41.1,56.8
				c-0.2,0-0.3,0-0.6,0c0.2,0.1,0.4,0.2,0.6,0.3V56.8z M52.2,59.4c0.2-0.4,0.3-0.9,0.3-1.4c0-1.4-1.2-2.3-2.8-2.3
				c-0.8,0-1.5,0.3-2.2,0.5c-0.3,0.1-0.6,0.3-0.9,0.3c0.1,0,0.2,0,0.3,0c1,0,2.1,0.4,2.6,0.9c1.1,0,2,0.3,2.5,1
				C51.9,58.8,52.1,59.1,52.2,59.4z M44.6,56.8v0.3c0.2-0.1,0.3-0.3,0.6-0.3C44.9,56.8,44.8,56.8,44.6,56.8z M51.2,58.9
				c-0.4-0.5-1.1-0.8-2.2-0.8c-0.1,0-0.2,0-0.3-0.1c-0.3-0.3-1.2-0.8-2.2-0.9c-0.5,0-1.5,0.1-2.1,0.8l0,0v0.8
				c0.3-0.3,0.5-0.5,0.9-0.7c0.1-0.1,0.3-0.2,0.6-0.2c0.2,0,0.4,0.1,0.4,0.1c0,0.1-0.5,0.3-0.9,0.6c-0.3,0.3-0.6,0.6-0.8,0.8
				c0.3-0.1,0.4,0.1,0.4,0.2c0.2-0.2,0.4-0.3,0.9-0.3c0.1,0,0.2,0,0.2,0c0-0.1,0-0.1,0-0.1c0.2-0.9,1-1.3,1.5-1.4
				c0.3-0.1,0.5,0.1,0.5,0.1c0.3,0.3,0.9,0.8,0.9,1.6c0,0.1,0,0.2,0,0.3v0.1c0.1,0,0.2,0,0.2,0.1c0.6,0.3,0.8,0.7,0.8,0.9v0.1
				c0,0.4-0.3,0.7-0.4,0.9l0,0c0,0.1,0,0.1,0,0.2c0,0.2-0.1,0.3-0.3,0.5h0.1c0.3-0.1,0.8-0.4,0.9-1.1c0.3-1.3-1.1-2.3-0.9-2.6
				c0.1-0.1,0.3,0,0.3,0c0.8,0.3,1.5,1.1,1.4,2.2c0.1-0.2,0.2-0.3,0.3-0.5l0,0C51.7,60.3,51.7,59.4,51.2,58.9z M39.2,56.6
				c-0.3-0.1-0.6-0.2-0.9-0.3c-0.8-0.3-1.6-0.5-2.2-0.5c-1.6,0-2.8,1-2.8,2.3c0,0.4,0.1,0.9,0.3,1.4c0.1-0.3,0.2-0.6,0.4-0.9
				c0.5-0.7,1.4-1,2.5-1c0.5-0.5,1.6-0.9,2.6-0.9C39.1,56.6,39.2,56.6,39.2,56.6z M43.4,64.3c0,0.3-0.3,0.5-0.5,0.5
				c-0.3,0-0.5-0.3-0.5-0.5c0-0.3,0.3-0.5,0.5-0.5C43.1,63.8,43.4,64.1,43.4,64.3z M41.1,58L41.1,58c-0.6-0.7-1.6-0.8-2.1-0.8
				c-1,0-1.9,0.4-2.2,0.9c-0.1,0.1-0.2,0.1-0.3,0.1c-1,0-1.7,0.3-2.2,0.8c-0.4,0.6-0.4,1.4-0.3,1.8l0,0c0.1,0.2,0.2,0.3,0.3,0.5
				c-0.1-1.1,0.6-1.9,1.4-2.2c0,0,0.3-0.1,0.3,0c0.2,0.3-1.4,1.3-0.9,2.6c0.3,0.8,0.7,1.1,1,1.2h0.1c-0.2-0.2-0.3-0.3-0.3-0.5
				c0-0.1,0-0.1,0-0.2l0,0c-0.2-0.2-0.4-0.5-0.4-0.9v-0.1c0-0.3,0.2-0.7,0.8-0.9c0.1,0,0.2-0.1,0.2-0.1v-0.1c0-0.1,0-0.2,0-0.3
				c0-0.7,0.5-1.3,0.9-1.6c0,0,0.3-0.2,0.5-0.1c0.4,0.1,1.3,0.5,1.5,1.4c0,0.1,0,0.1,0,0.1c0.1,0,0.2,0,0.3,0c0.4,0,0.7,0.2,0.9,0.3
				c0-0.2,0.2-0.3,0.4-0.2c-0.2-0.3-0.4-0.5-0.8-0.8c-0.4-0.3-0.9-0.5-0.9-0.6s0.2-0.2,0.4-0.1c0.3,0,0.5,0.1,0.6,0.2
				c0.3,0.2,0.7,0.4,0.9,0.7C41.1,58.7,41.1,58,41.1,58z"/>
			<g>
				<path class="st1" d="M71.2,49.3H14.8v28.5c0,8.4,2.3,15.6,5.6,21.7c-0.9,0.3-1.7,1.1-2.6,2.8l-1.1,2.2l-0.8,1.6
					c-0.3,0.6-0.7,1.6-0.7,3c0,1.9,0.8,3.7,2.2,5.6c2.4,3,7.3,6.2,13.3,8.5c0,0,0.5,0.2,0.9,0.3c-0.4,0.3-1,0.9-1,0.9l-0.4,0.3
					l-0.3,0.3l-0.2,0.2c-0.6,0.7-0.9,1.5-0.9,2.6v5.2c0,2.2,2.3,3.5,6.3,3.5h15.7c4,0,6.3-1.3,6.3-3.5V128c0-1.1-0.3-1.9-0.9-2.6
					l-0.1-0.2c-0.2-0.2-0.3-0.3-0.4-0.3l0,0c0,0-0.9-0.9-1.5-1.2c0.4-0.2,0.9-0.3,0.9-0.3c6-2.3,11-5.5,13.3-8.5
					c1.5-1.8,2.2-3.7,2.2-5.6c0-1.3-0.3-2.3-0.7-3l-0.8-1.6l-1-2.2c-0.6-1.2-1.5-2.1-2.6-2.6c3.4-6.1,5.7-13.5,5.7-21.9
					C71.2,77.9,71.2,49.3,71.2,49.3z M67.5,102.6l1,2.2l0.8,1.6c0.3,0.6,0.6,1.6,0.6,2.7c0,1.7-0.7,3.5-2.1,5.2
					c-2.3,2.9-7.2,6-13,8.4l-1.9,0.8l2.3,2l0.3,0.3l0.1,0.1c0.5,0.6,0.8,1.2,0.8,2.2v5.2c0,1.7-2.1,2.8-5.6,2.8H35
					c-3.5,0-5.6-1-5.6-2.8V128c0-0.9,0.3-1.6,0.8-2.2l0.1-0.1l0.3-0.3l0.4-0.3l1.8-1.6l-1.9-0.8c-5.9-2.3-10.7-5.4-13-8.4
					c-1.4-1.7-2.1-3.5-2.1-5.2c0-1.2,0.3-2.2,0.6-2.7l0.8-1.6l1-2.2c0.8-1.6,1.6-2.2,2.3-2.4c0.1,0.2,0.2,0.3,0.3,0.6
					c-0.4,0.3-0.9,0.6-1.2,1.1c-0.3,0.6-0.5,1.3-0.5,2.1c0,0.7,0.2,1.5,0.4,2.2l0.4,1.1c0,0,1.8-2.6,2.3-3.4
					c0.1,0.2,0.1,0.4,0.1,0.4c0.2,0.5,0.6,0.9,1.2,1.2c0.1,0.1,0.2,0.1,0.3,0.1c0.4,0.6,0.9,1.1,1.3,1.7c-0.9,1.3-2.2,3.1-2.2,3.1
					l0.4,0.3c1.8,1.5,3.5,2.4,3.9,2.7c1.3,0.8,2.6,1.3,3.8,1.9c1.1,0.5,2.3,1,3.3,1.6c0.8,0.6,1.5,1.2,2.2,1.7
					c0.7,0.9,1.1,1.8,1.1,3.1v3.7c0,1.2-0.3,1.8-0.8,2.2l-0.9,1h13.1l-0.9-1c-0.4-0.4-0.8-1-0.8-2.2v-3.8c0-1.1,0.3-2.1,0.9-2.8
					c0.9-0.7,1.9-1.5,2.9-2.3c0.9-0.5,1.8-0.9,2.8-1.4c1.2-0.6,2.5-1.1,3.8-1.9c1.2-0.7,2.7-1.6,3.9-2.7l0.4-0.3c0,0-1.2-1.7-2.1-3
					c0.4-0.6,0.9-1.2,1.4-1.8c0.1,0,0.1,0,0.2,0c0.6-0.3,1-0.7,1.2-1.2c0,0,0.1-0.2,0.2-0.4c0.5,0.8,2.3,3.4,2.3,3.4l0.4-1.1
					c0.3-0.8,0.4-1.5,0.4-2.2c0-0.8-0.2-1.5-0.5-2.1c-0.3-0.4-0.7-0.8-1.1-1c0.1-0.2,0.2-0.3,0.3-0.4
					C66.1,100.7,66.8,101.5,67.5,102.6z M25.8,107.7c2.3,2.8,4.7,5.3,6.9,7.3c-0.3-0.2-0.7-0.3-1-0.4c-1.2-0.5-2.5-1.1-3.8-1.9
					c-0.4-0.3-2.1-1.2-3.8-2.6C24.3,110,25.1,108.8,25.8,107.7z M48,128.2c-1.2,0-9.1,0-10.3,0c0.4-0.5,0.9-1.3,0.9-2.7v-3.7
					c0-0.8-0.2-1.5-0.3-2.1c2.3,1.6,3.8,2.6,3.9,2.6l0.8,0.4l0.8-0.4c0.1,0,1.5-0.9,3.6-2.4c-0.2,0.6-0.3,1.2-0.3,1.9v3.7
					C47,126.9,47.5,127.6,48,128.2z M53.3,115c2.2-2,4.5-4.4,6.7-7.2l1.6,2.3c-1.2,0.9-2.6,1.9-3.8,2.6c-1.2,0.7-2.5,1.3-3.7,1.8
					C53.8,114.8,53.6,114.9,53.3,115z M59.6,107.3c-2.8,3.5-5.9,6.5-8.5,8.8l-3.1,2.5c-2.7,2.1-4.6,3.1-4.7,3.2c0,0-0.3,0.2-0.4,0.3
					c-0.2-0.1-0.4-0.3-0.4-0.3c-0.1,0-2.2-1.2-5.1-3.5l-2.4-1.9c-2.8-2.3-5.9-5.3-8.9-9.1l-0.4-0.5c-0.3-0.3-0.5-0.7-0.8-1l-0.4-0.6
					c-0.9-1.3-1.8-2.6-2.6-4l-0.3-0.6c-0.1-0.2-0.2-0.3-0.3-0.5l-0.3-0.6c-3.3-6-5.6-13.2-5.6-21.5c0,0,0-27.3,0-27.9
					c0.6,0,54.5,0,55.1,0c0,0.6,0,27.9,0,27.9c0,8.4-2.3,15.6-5.7,21.6l-0.3,0.6c-0.1,0.2-0.2,0.3-0.3,0.4l-0.3,0.6
					c-0.3,0.4-0.5,0.9-0.9,1.4l-0.2,0.3c-0.5,0.8-1,1.6-1.6,2.2l-0.5,0.7c-0.3,0.3-0.6,0.8-0.9,1.1L59.6,107.3z"/>
			</g>
			<path class="st1" d="M26.5,24.3c-0.2,0.2-0.3,0.3-0.4,0.3c-0.2,0-0.4-0.4-0.4-0.6c0-0.2,1.3-0.6,1.4-0.5c0.1,0.1-0.1,0.5-0.1,0.5
				S26.7,24.1,26.5,24.3z"/>
			<path class="st1" d="M31.7,15.5l0.2-0.2c0.2,0.3,0.7,0.9,0.7,1c0,0.1-0.1,0.5-0.2,0.7c-0.1,0.1-0.2,0-0.2,0s-0.2-1-0.1-0.8
				C32.2,16.4,31.9,15.9,31.7,15.5z"/>
			<path class="st1" d="M41.7,10.2c0-0.3,0-0.8,0-0.8s0.6,1,0.6,1.2c0,0.2-0.3,0.3-0.4,0.3s-0.3,0.4-0.3,0.4l-0.2-0.3
				C41.5,11.2,41.7,10.4,41.7,10.2z"/>
			<path class="st1" d="M33.7,13.5c0.2,0.2,1.2,0.4,1.4,0.4c0,0.1,0.1,0.3-0.1,0.4c-0.3,0.2-0.4-0.3-0.8-0.5
				C34,13.7,33.7,13.6,33.7,13.5C33.7,13.6,33.6,13.5,33.7,13.5"/>
			<path class="st1" d="M52.6,12.8C52.4,13,52,13.6,52,13.7c0,0.1,0.3,0,0.3,0s0.8-0.7,0.9-0.8C53.4,12.8,52.6,12.8,52.6,12.8z"/>
		</g>
	</g>
</g>
</svg>
