<?xml version="1.0" encoding="utf-8"?>
<!-- Generator: Adobe Illustrator 26.0.2, SVG Export Plug-In . SVG Version: 6.00 Build 0)  -->
<svg version="1.1" id="图层_1" xmlns="http://www.w3.org/2000/svg" xmlns:xlink="http://www.w3.org/1999/xlink" x="0px" y="0px"
	 width="428.5px" height="159px" viewBox="0 0 428.5 159" style="enable-background:new 0 0 428.5 159;" xml:space="preserve">
<style type="text/css">
	.st0{display:none;fill:none;}
	.st1{fill:#FFFFFF;}
	.st2{fill-rule:evenodd;clip-rule:evenodd;fill:#FFFFFF;}
</style>
<g id="Black_Outline_Layer">
	<rect x="-16.7" y="-34.7" class="st0" width="109.3" height="197.1"/>
	<g>
		<path id="University_of_Toronto_Mark_Stacked_1_" class="st1" d="M402.4,92.9c13.4,0,21.7,10.7,21.7,21.6
			c0,12.1-10.5,22.1-22.4,22.1c-12.3,0-21.1-10-21.1-22.1C380.6,102.9,390.8,92.9,402.4,92.9 M404.6,133.8c7.9,0,12.8-7.8,12.8-15.2
			c0-11.9-6.8-23-17-23c-8.1,0-13,7.1-13,15.4C387.3,122,393.6,133.8,404.6,133.8z M360.9,93.8h-9c-3.9,0-6.8,0-9.2-0.1
			c-2.2-0.1-2.7-0.6-3-1.1h-1.2c-0.2,0.5-3,8.1-3.1,8.5l1.4,0.8c1.4-3.7,2.9-5.5,10.4-5.5c0.6,0,3,0,6,0.3c0.4,5.4,0.5,10.6,0.5,16
			c0,3.4-0.1,15.9-0.5,18.7c-0.2,1.3-0.8,1.9-4.3,2.5c-1.5,0.2-2.4,0.3-3.3,0.4l0.3,1.7c1.1-0.1,2.5-0.2,4.1-0.3
			c1.7-0.1,3.7-0.2,6.8-0.2c1.2,0,3-0.1,4.8,0c1.8,0.1,3.4,0.1,5.6,0.2l0.2-1.8c-0.4,0-1-0.1-2-0.2c-1.2-0.2-3-0.5-3.8-1.3
			c-1.4-1.6-1.4-12.9-1.4-15.9c0-2.6,0.4-15.9,0.4-18.9c0-1.3,0.4-1.3,4.2-1.3l0.1,0c1.7-0.1,2.2,0,2.8,0c7.5,0,7.7,1.8,9,5.5
			l1.4-0.8c-0.1-0.4-1.6-8-1.8-8.5h-1.2c-0.3,0.4-0.8,0.9-3,1.1c-2.9,0.1-6.3,0.1-9.7,0.1L360.9,93.8L360.9,93.8z M291.7,93.7
			c-1.7,0.1-3,0.1-5.1,0.1c-1.1,0-2.1,0-3.1-0.1c-1.1-0.1-1.2-0.1-2.2-0.2v1.8c6.1,1.2,6.6,2.1,6.4,14.3l0,7.5
			c0,2.8-0.2,11.2-0.5,13.7c-0.3,2.7-1.5,2.9-3,3.3c-0.8,0.2-1.8,0.4-2.4,0.5v1.6c1.6,0,3.1-0.1,4.7-0.2c1.6-0.1,3.7-0.2,5.3-0.2
			c1.6,0,3.3,0.1,4.7,0.2c1.4,0,2.3,0.1,2.9,0.2v-1.8c-8.3-1.5-8.3-2.6-8.2-9.7l0-17.8l0.1-3.4c0,0,0,0.1,30.9,32.8h2.2
			c-0.2-3.5-0.2-12.4-0.2-16.3c0-5.6,0-19.9,0.2-21.7c0.4-2.7,4-3,6-3v-1.6c-4.5,0-7,0.1-9-0.1c-1.9-0.2-3.3-0.3-4.4-0.3
			c-0.9,0-2-0.1-2.6,0l-0.3,1.6c7,0.4,6.9,1,6.9,16.9c0,1.9-0.1,11.2-0.1,12.9L291.7,93.7z M253.6,92.9c13.4,0,21.7,10.7,21.7,21.6
			c0,12.1-10.5,22.1-22.4,22.1c-12.3,0-21.1-10-21.1-22.1C231.9,102.9,242.1,92.9,253.6,92.9z M255.9,133.8
			c7.9,0,12.8-7.8,12.8-15.2c0-11.9-6.8-23-17-23c-8.1,0-13,7.1-13,15.4C238.6,122,244.9,133.8,255.9,133.8z M187,93.5
			c1.4,0.1,2.6,0.2,4,0.2c1.3,0.1,2.6,0.1,3.9,0.1c0.9,0,3.4-0.2,5.8-0.4c2.4-0.2,4.2-0.2,5.7-0.2c8.9,0,14.6,4.8,14.6,11.3
			c0,5.9-5.4,9.5-9.6,10.5c8.7,12.6,10.3,14.5,13.7,17.6c0.4,0.4,3,2.8,6.3,3l-0.1,1.6c-7.2,0-10.8-2.8-12.7-4.3
			c-6.4-5-12.7-15-13.9-17.1c-1.8,0-2.5,0-5.6-0.2v6.1c0,2.7-0.1,8.8,0.7,10.5c0.5,0.9,3.7,1.9,5.8,2.5l0.1,1.6
			c-2.5-0.4-6.5-0.7-9.2-0.7c-1.5,0-8,0.4-9.4,0.5l-0.3-1.3c0.6-0.1,4.4-0.9,5.4-2.7c0.7-1.6,0.6-10.4,0.6-13.2v-10.1
			c0-13-0.6-13.2-5.9-13.5L187,93.5z M199.1,113.2c1.3,0.2,3.3,0.2,4.5,0.2c1.6,0,10.4,0,10.4-8.4c0-3.9-2.8-9.6-10.3-9.6
			c-4.4,0-4.4,0.5-4.5,7.7L199.1,113.2z M157.8,92.9c13.4,0,21.7,10.7,21.7,21.6c0,12.1-10.5,22.1-22.4,22.1
			c-12.3,0-21.1-10-21.1-22.1C136,102.9,146.2,92.9,157.8,92.9z M160,133.8c7.9,0,12.8-7.8,12.8-15.2c0-11.9-6.8-23-17-23
			c-8.1,0-13,7.1-13,15.4C142.7,122,149,133.8,160,133.8z M115.3,93.8h-9c-3.9,0-6.8,0-9.2-0.1c-2.2-0.1-2.7-0.6-3-1.1h-1.2
			c-0.2,0.5-3,8.1-3.2,8.5l1.4,0.8c1.4-3.7,2.9-5.5,10.4-5.5c0.6,0,3,0,6,0.3c0.4,5.4,0.5,10.6,0.5,16c0,3.4-0.1,15.9-0.5,18.7
			c-0.2,1.3-0.8,1.9-4.3,2.5c-1.5,0.2-2.4,0.3-3.3,0.4l0.3,1.7c1.1-0.1,2.5-0.2,4.1-0.3c1.7-0.1,3.7-0.2,6.8-0.2c1.2,0,3-0.1,4.8,0
			c1.8,0.1,3.4,0.1,5.6,0.2l0.2-1.8c-0.4,0-1-0.1-2-0.2c-1.2-0.2-3-0.5-3.8-1.3c-1.4-1.6-1.4-12.9-1.4-15.9c0-2.6,0.4-15.9,0.4-18.9
			c0-1.3,0.4-1.3,4.2-1.3l0.1,0c1.7-0.1,2.2,0,2.8,0c7.5,0,7.7,1.8,9,5.5l1.4-0.8c-0.1-0.4-1.6-8-1.8-8.5h-1.2
			c-0.3,0.4-0.8,0.9-3,1.1c-2.9,0.1-6.3,0.1-9.7,0.1L115.3,93.8L115.3,93.8z M386.6,56.8c-2.7,0.3-3.4,0.3-6.4,0.3l-3.2,0l-3.3-0.1
			l-1.1,0.1l-0.9,0.1l0,0.1v0.7l0.1,0c0.8,0,1.6,0.1,1.9,0.6c0.5,0.7,0.5,1.5,0.5,8.1c0,3.1-0.3,6.6-0.4,7.2c-0.2,0.7-1.2,1-1.9,1.1
			l-0.1,0l-0.1,1l0.2,0c1.9-0.1,3.9-0.2,4.4-0.2l1.6,0c0,0,3,0.1,3,0.1l0-0.2v-0.9l-0.2,0c-2.2-0.2-2.9-0.6-3.1-0.9
			c-0.2-0.3-0.3-1.4-0.3-2.6c0-0.3,0-0.7,0-1c0,0,0.1-2.8,0.1-3.5c0.2,0,1.5-0.1,1.5-0.1c1.7,0,3.8,0.4,4.3,0.6
			c0.3,0.1,0.6,0.7,0.7,1.5l0,0.1h0.9l0-0.1c0.2-1.9,0.1-3.9,0.1-5.3l0-0.2h-1l0,0.1c-0.2,1.4-0.3,1.9-4,1.9c-1.1,0-1.4,0-2.5-0.2
			c0,0,0,0-0.1,0c0-0.3,0-0.7,0-1.1c0-0.4,0-0.9,0-1.3c0,0,0.1-3.9,0.1-4.5c1.1-0.1,2-0.2,2.2-0.2c2,0,3.8,0.4,4.6,0.9
			c0.6,0.4,0.8,1.2,1,1.8l0,0.1l1-0.1l0-0.2c0-0.3,0-1.3,0.1-2.2l0.1-2L386.6,56.8z M358.2,56.6c6.2,0,9.9,4.9,9.9,9.6
			c0,5.3-4.7,9.8-10.2,9.8c-5.4,0-9.6-4.3-9.6-9.8C348.3,61.1,352.9,56.6,358.2,56.6z M359.1,74.6c3.4,0,5.6-3.4,5.6-6.5
			c0-4.9-2.8-9.9-7.4-9.9c-3.7,0-5.7,3.3-5.7,6.6C351.6,69.6,354.4,74.6,359.1,74.6z M323.1,57v0.9l0.2,0c0.9,0,2.2,0.1,2.2,0.9
			c0,0.2-0.4,1.3-3.9,6.5c-1.5-1.8-4.9-6.2-4.9-6.7c0-0.2,0-0.4,2.1-0.5l0.2,0v-1.1l-1.8,0l-3.4,0.1l-3.7,0l0,0.2V58h0.2
			c0.9,0,1.5,0.1,1.9,0.4c1.1,0.8,5.2,5.9,5.3,6.2c0,0,1.6,2.1,1.8,2.3c0.1,1.3,0.2,2.8,0.2,4.6c0,2.8,0,3.4-2.6,3.5l-0.1,0
			l-0.1,0.9l0.2,0c0.4,0,1.6-0.1,2.8-0.2l2-0.1l1.5,0.1l0.3,0l2,0.1l0-0.2v-0.8l-0.1,0c-2.6-0.2-2.6-0.6-2.6-1.1c0,0,0-0.2,0-0.2
			c-0.1-1.2-0.1-2.4-0.1-3.8c0-1.1,0-2.2,0.1-3.4c0.1-0.1,3.7-5.6,3.7-5.6c1.2-1.8,1.8-2.8,4.3-2.8l0.1,0v-1.1l-0.1,0
			c-0.3,0-1.3,0-2.2,0.1l-1.2,0.1l-1.4-0.1l-1-0.1c0,0-1.4,0-1.4,0l-0.2,0L323.1,57L323.1,57z M306.4,56.5h-0.6l0,0.1
			c-0.1,0.1-0.3,0.4-1.2,0.4l-3.8,0h-5.3l-4.1,0c-1,0-1.2-0.3-1.2-0.4l0-0.1h-0.7l0,0.1c-0.1,0.2-1.4,3.5-1.4,3.7l0,0.1l0.9,0.5
			l0.1-0.2c0.6-1.6,1.2-2.3,4.5-2.3c1,0,1.9,0.1,2.5,0.1c0.2,2.5,0.2,5,0.2,6.9c0,1.8-0.1,7-0.2,8.2c-0.1,0.4-0.2,0.7-1.8,1
			c0,0-1.2,0.2-1.2,0.2l-0.4,0.1l0.2,1l1.6-0.1l0.4,0l3-0.1l0.5,0l1.7,0l1.3,0l1.4,0l0-0.1l0.1-0.9l-0.8-0.1l-0.2,0
			c-0.8-0.1-1.4-0.3-1.6-0.5c-0.2-0.2-0.6-1.4-0.6-6.9l0.1-3.9l0.1-4.4c0-0.4,0-0.4,1.7-0.4l0.1,0l1,0l0.2,0c3,0,3.3,0.6,3.8,2
			l0.2,0.4l0.9-0.5l-0.2-1c-0.3-1.5-0.6-2.7-0.6-2.9l0-0.1L306.4,56.5L306.4,56.5z M275.1,57V58l0.1,0c2.5,0.1,2.9,0.6,3.1,1.1
			c0.3,0.8,0.4,6.2,0.4,8.1v0.3c0,1.6,0,5.4-0.5,6.3c-0.2,0.3-0.8,0.8-3.2,1l-0.1,0v1l3-0.1h2.7l4.5,0.1l0-0.2l-0.1-0.9h-0.1
			c-2,0-2.6,0-2.9-0.8c-0.1-0.4-0.2-2.2-0.2-5.3c0-7.3,0-9.3,0.4-10c0.5-0.8,2.2-0.7,2.8-0.7l0.2,0v-1.1H283c0,0-3.1,0.1-3.1,0.1
			l-2.1-0.1l-0.9,0c0,0-1.6,0-1.6,0l-0.2,0L275.1,57L275.1,57z M258.4,62.1c0,3.2,2.7,4.3,4.7,5.1l0.2,0.1c3.4,1.4,5,2,5,4.4
			c0,1.4-1,2.9-3.3,2.9c-2,0-3.5-0.9-4.4-1.6c-1.1-0.9-1.4-2.2-1.5-2.7l0-0.1H258l0.1,0.2c0.6,2.1,0.8,3,0.8,5.3l0,0.1l0.9,0.1
			l0-0.1c0-0.1,0.2-0.5,0.4-0.5c0.2,0,0.9,0.2,1.1,0.2l0.1,0c0,0,0.3,0.1,0.3,0.1c0.5,0.1,1.1,0.3,2.3,0.3c4.6,0,7.1-2.8,7.1-5.4
			c0-3.7-3.6-5.1-6-6.1c-2.3-0.9-4-1.7-4-3.5c0-1.8,1.4-3.1,3.5-3.1c1.9,0,3.2,1.1,3.5,1.4c0.8,0.7,1,1.5,1.1,2.3l0,0.1l0.1,0h0.8
			l-0.3-2.5c0-0.9,0.2-1.8,0.3-2.2l0-0.2l-0.8-0.1c0,0-0.5,0.3-0.6,0.4c-1.7-0.5-2.6-0.6-3.8-0.6C261.2,56.7,258.4,58.9,258.4,62.1z
			 M245.2,56.7c3.9,0,6.7,2.1,6.7,5.1c0,2.4-2.1,4.1-4.2,4.7c3.8,5.3,4.5,6.2,6,7.5c0.1,0,1.2,1.2,2.7,1.3l0.2,0l-0.1,1h-0.1
			c-3.3,0-4.9-1.2-5.8-1.9c-2.9-2.2-5.7-6.6-6.2-7.5c-0.2,0-2-0.1-2.2-0.1c0,0.3,0,2.5,0,2.5s0,0.7,0,0.9c0,1.3,0,3.1,0.3,3.7
			c0.2,0.4,1.7,0.8,2.5,1l0.1,0l0.1,1l-0.2,0c-1.1-0.2-2.9-0.3-4.1-0.3c-0.6,0-3.5,0.2-4.2,0.2l-0.1,0l-0.2-0.8l0.2,0
			c0.4-0.1,1.9-0.4,2.3-1.1c0.3-0.6,0.3-3.9,0.3-5.3l0-0.4v-4.4c0-5.6-0.2-5.7-2.5-5.8l-0.2,0l0.1-1.1l0.3,0c0,0,1.7,0.1,1.7,0.1
			l1.7,0c0.4,0,1.5-0.1,2.6-0.2h0h0L245.2,56.7z M242.2,65.6c0.6,0.1,1.4,0.1,1.9,0.1c1.7,0,4.5-0.5,4.5-3.5c0-1.6-1.2-4-4.4-4
			c-1.8,0-1.8,0.1-1.9,3.2C242.2,61.3,242.2,65.3,242.2,65.6z M231.1,56.8c-2.3,0.1-5.9,0.2-8.4,0.2c-1.5,0-5.1-0.1-6.5-0.1l-0.2,0
			v0.9l0.1,0c1.6,0.3,1.7,0.3,1.8,0.7c0.2,0.4,0.4,2.1,0.4,7.8c0,2.4-0.2,6.3-0.4,7.6c-0.1,0.6-0.9,0.8-2.2,1l-0.2,0l0.1,1l0.1,0
			c2.5-0.3,5.6-0.3,7.4-0.3l7.5,0.1l0.1-0.1c0.4-0.6,1-1.6,1.4-4.6l0-0.2l-0.9-0.1l0,0.1c-0.6,1.7-1.9,3.5-6.5,3.5
			c-1.6,0-2.3-0.2-3.2-0.6c-0.1-0.5-0.2-1.3-0.2-3.6c0,0,0-2.8,0-3.5c1.2-0.2,2.3-0.2,2.8-0.2c3.7,0,4,0.3,4.5,2.6l0,0.1h0.9l0-0.2
			c0-2.5,0-3.1,0.1-5.7l0-0.2h-1l0,0.1c-0.4,1.4-0.7,1.6-1.2,1.7c-2.7,0.3-5.3,0.2-5.9,0.2c0-0.2-0.1-2.5-0.1-2.5
			c0-1.2,0.1-3.1,0.3-4.4c1-0.2,2.8-0.3,3.6-0.3c2.1,0,3.3,0.3,3.8,0.8c0.5,0.5,0.5,1.2,0.4,2l0,0.1l1.1,0.1v-0.2
			c0-0.2,0.1-0.9,0.2-1.5l0.1-0.7c0.1-1,0.1-1.4,0.1-1.9v-0.2L231.1,56.8z M190.4,57.1l0.1,0.8l0.1,0c2.5,0.3,2.6,0.3,4.7,4.5
			l4.2,8.6c0,0,0,0.1,0,0.1c0.7,1.5,1.8,3.8,2.2,5.1l0,0.1h0.9l0-0.1c0.6-1.9,1.1-3.2,2.6-6.1l4.6-8.9c1.1-2.1,1.5-2.6,3.6-3.1
			l0.1,0v-1l-0.2,0c-1.2,0-2.3,0-3.5,0c0,0-3.6-0.1-3.6-0.1l0,0.1l-0.1,1l0.2,0c0.9,0,2.2,0.1,2.2,1.1c0,0.6-0.4,1.5-0.7,2.1
			l-0.1,0.2c-0.9,2.1-1.5,3.2-2.1,4.5l-2.1,4.3c0,0-0.3,0.7-0.5,1.1c-2-3.3-5.8-12.1-5.8-12.7c0-0.2,0.1-0.3,1.6-0.4l0.5-0.1v-1
			l-2.9,0l-1.6,0c-1.1,0-3.3,0-4.4-0.1l-0.2,0L190.4,57.1z M177.7,57V58l0.2,0c2.5,0.1,2.9,0.6,3.1,1.1c0.3,0.8,0.4,6.2,0.4,8.1v0.3
			c0,1.6,0,5.4-0.5,6.3c-0.2,0.3-0.8,0.8-3.2,1l-0.1,0v1l3-0.1h2.7l4.5,0.1l0-0.2l-0.1-0.9h-0.1c-2,0-2.6,0-2.9-0.8
			c-0.1-0.4-0.2-2.2-0.2-5.3c0-7.3,0-9.3,0.4-10c0.5-0.8,2.2-0.7,2.8-0.7l0.2,0v-1.1h-2.2c0,0-3.1,0.1-3.1,0.1l-2.1-0.1l-0.9,0
			c0,0-1.6,0-1.6,0l-0.2,0L177.7,57L177.7,57z M166.9,56.7l-0.1,0l0,0.1l-0.2,0.9l0.2,0c3.6,0.2,3.1,0.3,3.2,7.8c0,0,0,4.5,0,5.1
			c-0.3-0.3-13-13.6-13-13.6l0-0.1l-2.1,0l-1.4,0l-0.1,0l-1.3-0.1l0,0.2l0,0.9l0.1,0c2.6,0.5,3,0.8,2.9,6.1l0,3.3
			c0,1.2-0.1,4.9-0.3,6c-0.1,1.1-0.5,1.2-1.2,1.3c0,0-1.2,0.3-1.2,0.3l0,0.1v0.9l4.4-0.2l2.1,0.1c0,0,1.5,0.1,1.5,0.1l0-0.2v-0.9
			l-0.1,0c-3.6-0.6-3.6-1-3.5-4.1l0.1-7.8c0,0,0-0.7,0-1.1c0.7,0.7,13.6,14.1,13.5,14.1l0,0.1l1.2,0l0-0.2c-0.1-1.5-0.1-5.4-0.1-7.1
			c0-2.5,0.1-8.5,0.2-9.2c0.2-1.3,1.2-1.6,2.3-1.6h0.2v-1H174c-2,0-3,0.1-3.9,0l-0.6-0.1l-1.4-0.1L166.9,56.7z M132.8,56.9l-1.1,0
			c-1.3,0-3.9,0-4.2,0.1l-0.1,0l0.1,1h0.1c1.2,0,1.6,0,1.9,0.2c0.4,0.2,0.6,2.4,0.6,5.3l-0.2,6.1c0,4.2,2.7,6.5,7.8,6.5
			c8.1,0,8.5-4.3,8.7-13.3l0-2.7c0,0,0-0.1,0-0.1c0-1.3,0.1-1.9,2.2-2l0.1,0l0.1-1.1l-0.4,0l-3.3,0.1l-2.5-0.1l-1.1,0l0,0.2V58h0.2
			c0.9,0,1.9,0.1,2.3,0.5c0.6,0.6,0.8,3.1,0.8,4.4v1.7c0,6.2-0.4,10-6.2,10c-5.3,0-5.3-4.2-5.3-6.2v-3.5c0-6.5,0.2-6.5,3.1-6.8
			l0.1,0v-1.1l-0.1,0C135.6,56.9,134,56.9,132.8,56.9z"/>
		<g>
			<g>
				<g>
					<path class="st1" d="M16.6,24.8c-0.6,0.2-1,0.6-1.1,1.2c-0.4,0-0.9,0-1.3,0.3c-0.5,0.3-0.7,0.8-0.9,1.4c0,0,0,0.4,0,0.4
						c0,0.6,0.3,1.4,1.4,2c0,0.1,0,0.2,0,0.2c0,0.3,0.1,0.9,0.6,1.3c0.3,0.2,0.5,0.4,0.8,0.5c-0.1,0.2-0.1,0.6-0.1,0.6l0.1,0.7
						c0.2,0.7,0.8,1.4,2.1,1.5c0.1,0.3,0.2,0.6,0.5,0.9c0.4,0.4,1.1,0.7,2,0.4c-0.1,0.2-0.2,0.5-0.2,0.8c0,0.4,0.1,0.9,0.4,1.3
						c0.8,1.2,2.2,0.6,3.1,0.2c0.4,0.5,1,0.8,1.8,0.6c1.2-0.2,1.8-1,2.1-1.7c0.1,0,0.9-0.1,0.9-0.1l0.1-0.1c0.5-0.3,0.9-1,1.3-1.8
						c0.9,0.8,1.6,1.9,1.7,2.1c0.1,0.4,0.5,1,1.5,2.5c0,0,0.7,1.2,0.9,1.5c-0.3,1.6-1,2.7-2.1,3.2l-0.6,0.3c-1.4,0.7-3,1.5-4,2.3
						c0,0,0,0,0,0c-0.7,0-1.2,0.2-1.5,0.3c-0.4-0.2-1-0.3-1.5-0.3c-1.9,0-2.8,1.1-3.1,1.7c-0.6,1.2-0.4,2.7,0.1,3.5
						c0.7,1,1.7,1.5,3,1.5c0.5,0,1-0.1,1.4-0.3c0.4,0.2,0.8,0.3,1.4,0.3c0.5,0,1-0.1,1.5-0.3c0.4,0.2,0.9,0.4,1.3,0.4
						c0.5,0,0.9-0.1,1.3-0.3c0.4,0.1,0.8,0.3,1.3,0.3c0.7,0,1.1-0.2,1.4-0.3c0.4,0.2,0.8,0.3,1.3,0.3c0.5,0,0.9-0.1,1.3-0.3
						c0.4,0.1,0.8,0.3,1.3,0.3c0.7,0,1.1-0.1,1.4-0.3c0.4,0.2,0.8,0.3,1.3,0.3c0.5,0,0.9-0.1,1.3-0.3c0.4,0.1,0.8,0.3,1.3,0.3
						c0.7,0,1.1-0.2,1.4-0.3c0.4,0.2,0.8,0.3,1.3,0.3c0.5,0,0.9-0.1,1.3-0.3c0.4,0.1,0.8,0.3,1.3,0.3c0.7,0,1.2-0.2,1.5-0.3
						c0.4,0.2,1,0.4,1.6,0.4c1.5,0,2.6-0.6,3.2-1.8c0.6-1.2,0.4-2.7-0.2-3.4c-0.7-1-1.7-1.5-3-1.5c-0.5,0-0.9,0.1-1.4,0.3
						c-0.1,0-0.4-0.1-0.5-0.1c-0.6-0.8-1.5-1.3-3.4-2.1l-0.3-0.1c-2.1-0.9-2.5-1.6-2.9-2.3L43,42.6c-0.1-0.2-0.4-1.4-0.4-2.9
						c0-1,0.2-2.5,0.9-3.6c0.4-0.6,0.9-1.1,1.5-1.5c0.2,0.6,0.4,1.1,0.6,1.3l0,0l0.1,0.1l0.9,0.5l-0.1-0.2c0.4,0.9,0.9,1.9,2,2
						c0.4,0.1,0.7-0.1,1.1-0.2c0.4,0.3,0.9,0.6,1.5,0.6c0.6,0,1-0.3,1.2-0.5c1.2,0.2,1.9-0.3,2.2-0.8l0.3-1v-0.1
						c0-0.4-0.2-0.7-0.3-1c0.1,0,0.1,0,0.1,0c0.3-0.2,0.5-0.4,0.7-0.7c1-0.1,1.4-0.6,1.6-1.1c0,0,0.1-0.2,0.1-0.3c0,0,0,0,0.1-0.1
						c0.5,0.2,1.1,0.3,1.7,0c0.4-0.2,0.7-0.6,0.9-1c0.4,0,1,0,1.4-0.4c0.5-0.3,0.8-0.9,0.9-1.5c0,0,0-0.4,0-0.4
						c0-0.6-0.3-1.7-1.9-2.2c-0.1-0.4-0.2-0.9-0.6-1.2c-0.8-0.8-1.8-0.7-2.5-0.4c0.2-0.2,0.4-0.4,0.5-0.6c0.9,0.2,2.5,0.4,3.2-0.9
						c0,0,0.2-0.7,0.2-0.7c0-0.1-0.1-0.4-0.1-0.6c0.9-0.7,1.1-1.4,1.1-1.9l-0.2-1.1c-0.4-1-1.2-1.3-2.2-1.2
						c-0.1-0.2-0.1-0.4-0.3-0.6c0,0-0.1,0-0.1-0.1c0.1-0.3,0.2-0.7,0.2-0.7L59,16.9c-0.2-0.6-0.6-1-1.1-1.2c-0.4-0.2-0.9-0.2-1.5,0
						c0.4-0.4,0.8-0.8,0.8-1.3c0,0,0-0.3,0-0.3c0,0,0,0,0,0c0-0.5-0.2-0.9-0.5-1.3c-0.6-0.8-1.5-1-2.6-0.7c-0.2-0.2-0.5-0.5-1-0.6
						c-0.9-0.2-1.7,0.3-2.2,0.8c-0.2-0.1-0.5-0.3-0.5-0.3l-0.1,0c0,0-0.1,0-0.3,0c0-0.5-0.2-1-0.6-1.4c-0.5-0.5-1.1-0.8-1.8-0.8
						c-0.2,0-0.5,0.1-0.7,0.1c0.3-0.4,0.4-0.8,0.4-1.1l-0.2-0.8c-0.3-0.6-0.7-0.9-1-1c0,0,0,0,0,0c0-1.7-1.1-2.1-1.6-2.3
						c-0.9-0.2-1.7,0.1-2.4,0.9c-0.2-0.1-0.3-0.1-0.5-0.2c-0.4-0.4-0.8-0.7-1.4-0.8c-1.5-0.2-2,1.1-2.3,1.9c-0.3,0-0.6,0-1,0.2
						c0,0-0.2,0.3-0.5,0.5c-0.1-0.1-0.1-0.1-0.2-0.1c-0.2-1.4-1-1.9-1.4-2.1c-0.4-0.1-0.8-0.1-1.1,0c-1.2-1.2-2.2-1.2-2.9-0.9l0,0
						c-0.7,0.3-1.1,1-1.1,1.8c0,0,0.1,0.6,0.2,1C30,7,29.8,7.2,29.7,7.4c-0.7-0.2-1.4-0.1-2.1,0.4c-0.6,0.4-0.9,1.1-0.9,1.8
						c0,0.6,0.2,1,0.4,1.5c-0.4,0.3-0.6,0.7-0.6,1.1c0,0,0,0.3,0,0.3c0,0,0.1,0.3,0.1,0.5c-0.5,0.1-1.1,0.3-1.5,0.7
						c-0.3,0.3-0.4,0.7-0.5,1c-0.3-0.9-0.9-1.4-1.7-1.5c-0.4,0-0.8,0.2-1.1,0.5c-0.7-0.5-1.4-0.5-1.8-0.3c-0.5,0.2-1.3,0.8-1.3,2.2
						c0,0,0,0.4,0.1,0.7c-0.3,0.2-0.6,0.4-0.7,0.8c0,0,0,0,0,0c0,0,0,0,0,0.1c0,0,0,0,0,0c0,0.1-0.1,0.3-0.1,0.6c0,0,0,0,0,0
						c0,0.4,0.2,0.8,0.4,1.1c0,0,0,0,0,0c-0.2,0.1-0.8,0.4-1,1.1c-0.7,0.1-1.3,0.5-1.7,1.2c0,0.1-0.3,1-0.3,1l0,0.1l0.2,0.9
						c0.2,0.5,0.6,0.8,1.1,1.1c0,0,0.1,0.1,0.1,0.2S16.6,24.8,16.6,24.8z M17.4,24l-0.3-0.2c-0.6-0.3-0.9-0.5-1.1-0.9
						c0,0-0.1-0.5-0.2-0.7c0-0.1,0.2-1,0.2-1l0,0.2c0.3-0.6,0.7-0.8,1.3-0.8l0.3,0l0.1-0.3c0.1-0.5,0.5-0.7,0.6-0.8l1.2-0.2
						l-0.5-0.5c-0.4-0.3-0.6-0.7-0.6-1c0,0,0.1-0.4,0.1-0.4c0.1-0.3,0.3-0.4,0.7-0.6l0.2-0.1l-0.1-1.1c0-0.7,0.3-1.2,0.9-1.4
						c0.4-0.2,0.9-0.1,1.3,0.3l0.3,0.3l0.2-0.3c0.2-0.3,0.5-0.5,0.8-0.4c0.4,0,0.9,0.2,1.2,1.4l0.1,0.3c0,0,0.4-0.2,0.6-0.1
						s0.5,0.3,0.5,0.3l0.2-0.3L25.3,15l0,0c0-0.3,0.1-0.5,0.4-0.8c0.4-0.4,0.8-0.6,1.4-0.6l0.5,0l-0.2-0.6c0,0-0.1-0.7-0.1-0.7
						c0,0,0-0.2,0-0.2c0-0.3,0.2-0.5,0.6-0.8l0.3-0.2l-0.1-0.3c-0.2-0.4-0.4-0.9-0.4-1.4c0-0.5,0.2-0.9,0.6-1.2
						c0.4-0.3,0.9-0.5,1.7-0.2l0.3,0.1L30.2,8c0.1-0.2,0.3-0.4,0.6-0.5l0.3-0.1L31,7l-0.2-1c0-0.4,0.1-0.9,0.7-1.1
						c0.7-0.3,1.4,0,2.2,0.9l0.2,0.2L34,5.8c0.3-0.1,0.5-0.1,0.8,0c0.5,0.2,0.8,0.7,0.9,1.6l0,0.2l0.3,0.1l0.2,0.1l0.4,0.3l0.2,0.1
						l0.3-0.4l0.4-0.4c0.3-0.2,0.5-0.2,0.8-0.1l0.3,0.1L38.8,7c0.4-1.1,0.8-1.8,1.6-1.7c0.4,0,0.7,0.2,1,0.6L41.5,6l0.2,0
						c0.2,0,0.4,0.1,0.6,0.2l0.3,0.2l0.2-0.3c0.6-0.7,1.2-1,1.8-0.8c0.5,0.1,1,0.5,1,1.5c0,0,0,0.5,0,0.5l0.3,0.1
						c0.3,0.1,0.6,0.3,0.9,0.8l0.2,0.6c0,0.3-0.2,0.7-0.7,1.1L46,10.1l0.1,0.2l0.2,1l0.5-0.4c0.4-0.3,0.8-0.5,1.1-0.5
						c0.4,0,0.9,0.2,1.2,0.6c0.3,0.3,0.5,0.6,0.5,1l-0.1,0.6l0.6,0.1l0.4-0.1c0,0,0.5,0.3,0.5,0.3l0.2,0.2l0.2-0.2
						c0.5-0.5,1.1-0.9,1.7-0.8c0.4,0.1,0.6,0.3,0.8,0.5l0.2,0.2l0.3-0.1c0.9-0.3,1.6-0.1,2,0.4c0.2,0.2,0.3,0.5,0.3,0.8
						c0,0,0,0.3,0,0.3c-0.1,0.3-0.3,0.6-0.8,1l-0.2,0.1l0.2,1.2l0.4-0.1c0.6-0.2,1-0.2,1.4-0.1c0.3,0.1,0.6,0.4,0.7,0.7l0.1,0.7
						c0-0.1-0.2,0.6-0.2,0.6l-0.1,0.3l0.2,0.2l0.2,0.2c0,0.1,0.1,0.3,0.1,0.5l0.1,0.4l0.4-0.1c0.9-0.2,1.4,0,1.7,0.7l0.2,0.9
						c0,0.5-0.3,1-1,1.4L59.9,23l0.1,0.3c0,0,0.1,0.5,0.1,0.5c0,0-0.1,0.5-0.1,0.5c-0.4,0.8-1.5,0.6-2.6,0.4l-0.3-0.1L57,25.1
						c-0.1,0.3-0.3,0.5-0.7,0.7l-0.3,0.1l0.1,0.4c0,0,0.1,0.3,0.1,0.3c0,0,0,0.2,0,0.2L56,27.6l0.7-0.4c1.1-0.6,1.8-0.7,2.3-0.1
						c0.3,0.3,0.4,0.6,0.4,0.9v0.3l0.3,0.1c1.1,0.3,1.6,0.8,1.6,1.6c0,0,0,0.3,0,0.3c-0.1,0.4-0.3,0.7-0.6,1
						c-0.4,0.3-0.8,0.3-1.2,0.2l-0.3,0l-0.1,0.3c-0.1,0.4-0.3,0.7-0.6,0.8c-0.4,0.2-0.9,0.1-1.3-0.1L57,32.4l-0.2,0.2l-0.3,0.3
						L56.4,33l-0.1,0.4c-0.2,0.4-0.5,0.6-1.1,0.6l-0.3,0l-0.1,0.2c-0.1,0.2-0.2,0.3-0.4,0.5c0,0-0.4,0.1-0.4,0.1l-0.2,0.1l-0.1,0.5
						l0.1,0.2c0.2,0.2,0.4,0.4,0.4,0.8c0,0.1-0.3,0.8-0.3,0.8c-0.2,0.2-0.6,0.6-1.6,0.4l-0.2,0l-0.1,0.2c-0.2,0.2-0.4,0.4-0.9,0.4
						c-0.5,0-0.8-0.2-1.2-0.5l-0.2-0.2l-0.2,0.2c-0.2,0.2-0.5,0.2-0.8,0.2c-0.7-0.1-1.1-0.8-1.4-1.6l-0.1-0.1l-0.2,0L46,35.4
						c-0.1-0.1-0.3-0.4-0.5-1.5l-0.1-0.5l-0.4,0.2c-0.8,0.5-1.6,1.2-2.2,2c-0.8,1.3-1,2.9-1,4c0,1.5,0.3,2.9,0.5,3.3l0.1,0.1
						c0.4,0.7,0.9,1.7,3.3,2.6l0.3,0.1c2,0.9,2.8,1.2,3.2,1.9l0.1,0.1l1,0.3l0.1-0.1c0.4-0.2,0.8-0.3,1.2-0.3c1,0,1.8,0.4,2.4,1.2
						c0.4,0.6,0.6,1.7,0.1,2.7c-0.4,0.9-1.3,1.4-2.5,1.3c-0.4,0-0.9-0.1-1.4-0.3l-0.2-0.1l-0.2,0.1c-0.3,0.1-0.6,0.3-1.3,0.3
						c-0.4,0-0.8-0.1-1.1-0.3l-0.2-0.1l-0.2,0.1c-0.4,0.2-0.7,0.3-1.2,0.3c-0.4,0-0.7-0.2-1.1-0.3l-0.2-0.1l-0.2,0.1
						c-0.2,0.1-0.6,0.3-1.3,0.3c-0.4,0-0.8-0.1-1.1-0.3L42,52.6l-0.2,0.1c-0.4,0.2-0.7,0.3-1.2,0.3c-0.4,0-0.7-0.2-1.1-0.3l-0.2-0.1
						l-0.2,0.1C39,52.8,38.6,53,38,53c-0.4,0-0.7-0.1-1.1-0.3l-0.2-0.1l-0.2,0.1c-0.4,0.2-0.7,0.3-1.2,0.3c-0.4,0-0.7-0.2-1.1-0.3
						l-0.2-0.1L34,52.7c-0.2,0.1-0.6,0.3-1.3,0.3c-0.4,0-0.8-0.1-1.1-0.3l-0.2-0.1l-0.2,0.1C31,52.9,30.6,53,30.2,53
						c-0.4,0-0.7-0.2-1.1-0.3l-0.2-0.1l-0.2,0.1c-0.4,0.2-0.9,0.3-1.4,0.3c-0.4,0-0.8-0.1-1.2-0.3L26,52.6l-0.2,0.1
						c-0.4,0.2-0.8,0.3-1.2,0.3c-1,0-1.9-0.4-2.4-1.2c-0.4-0.6-0.5-1.8-0.1-2.7c0.3-0.5,0.9-1.3,2.5-1.3c0.4,0,0.9,0.1,1.4,0.3
						l0.2,0.1l0.2-0.1c0.3-0.1,0.6-0.3,1.3-0.3l0.3,0l0.1-0.1c1-0.8,2.9-1.7,4-2.3l0.6-0.3c1.3-0.7,2.2-2,2.5-3.9l0-0.1l-1.1-1.8
						c-0.9-1.4-1.3-2.1-1.4-2.4c-0.2-0.4-1.2-1.9-2.3-2.7L29.8,34l-0.2,0.5c-0.4,1.3-0.9,1.8-1.2,1.9c0,0-0.4,0.1-0.6,0.1
						c-0.1-0.1-0.4-0.4-0.4-0.4l-0.2,0.6c-0.3,0.7-0.7,1.4-1.7,1.6c-0.4,0.1-0.9,0.1-1.2-0.5l-0.2-0.3l-0.3,0.2
						c-1,0.5-1.9,0.8-2.4,0.2c-0.2-0.3-0.3-0.6-0.3-0.9c0-0.5,0.2-0.9,0.7-1.4L21.4,35c-1,0.7-1.7,0.8-2.3,0.3
						c-0.3-0.2-0.3-0.5-0.4-0.7l-0.1-0.3l-0.3,0c-0.9,0-1.4-0.3-1.7-1c0,0-0.1-0.4-0.1-0.5c0-0.1,0.1-0.4,0.1-0.5
						c0,0,0.8-0.6,0.8-0.6l-0.9-0.1c-0.3,0-0.6-0.2-0.9-0.4c-0.3-0.2-0.4-0.5-0.4-0.8l0.1-0.6l-0.3-0.2c-0.8-0.3-1.2-0.8-1.2-1.4
						c0,0,0-0.4,0-0.4c0.1-0.3,0.2-0.6,0.5-0.8c0.3-0.2,0.7-0.2,1.1-0.2l0.4,0.1l0-0.4c0-0.4,0.2-0.9,0.8-1c0,0,0.7-0.1,0.7-0.1
						l0.2,0l-0.2-0.2c0,0-0.3-0.5-0.2-0.7S17.4,24,17.4,24z"/>
				</g>
			</g>
			<path class="st1" d="M33.8,51.3c0.4,0.5,1,0.8,1.6,0.8c0.7,0,0.9-0.3,1-0.3c0.1-0.1,0.4-0.2,0.5-0.1c0,0,0.4,0.3,1.1,0.3
				c0.3,0,0.6-0.1,0.7-0.1c-0.1-0.1-0.2-0.2-0.2-0.3L37,49.5c-0.4-0.5-1-0.8-1.6-0.8c-0.7,0-0.9,0.3-1,0.3c-0.1,0.1-0.4,0.2-0.5,0.1
				c0,0-0.4-0.3-1.1-0.3c-0.3,0-0.6,0.1-0.7,0.1c0.1,0.1,0.2,0.2,0.2,0.2L33.8,51.3z"/>
			<path class="st1" d="M22.9,51.3c-0.2-0.3-0.3-1.2,0-1.8c0.3-0.6,0.9-0.8,1.7-0.8c0.6,0,1.5,0.3,1.9,0.8l1.5,2.2
				c0.1,0.1,0.2,0.1,0.3,0.2c-0.2,0.1-0.5,0.1-0.9,0.1c-0.8,0-1.2-0.3-1.2-0.3c-0.1-0.1-0.4-0.1-0.5,0.1c0,0-0.3,0.3-1.1,0.3
				C23.8,52.1,23.3,51.9,22.9,51.3z"/>
			<path class="st1" d="M31.4,18.1c0.3-0.2,0.7-0.5,1.2-0.8c0.6-0.3,1.2-0.6,1.7-0.7c-0.6-1.2-1.4-1.2-1.8-1.3L32,15.2
				c-0.1,0-0.1-0.1-0.1-0.1c-0.1-0.1-0.4-0.3-0.5-0.3c0,0.1,0,0.4,0,0.5c0,0,0,0.4,0,0.4L31.3,16C31.1,16.3,30.8,17,31.4,18.1z"/>
			<path class="st1" d="M39.3,15.1C39.3,15.1,39.3,15.1,39.3,15.1C39.2,15.1,39.2,15,39.3,15.1L39.3,15.1z"/>
			<path class="st1" d="M24.1,22.6L24,23l-0.6,0.3c-0.1,0.1-0.2,0.1-0.3,0.1c0,0,0,0,0,0c-0.3,0.1-0.6,0.2-0.7,0.5
				c-0.1,0.4,0.2,0.6,0.6,0.9c0,0,0.4,0.4,0.4,0.4c0,0.1,0,0.2,0,0.3c0.4-0.1,0.9-0.1,1.4,0.1c0.1-0.1,0.2-0.1,0.3-0.1
				c0.6-0.1,1.2,0.2,1.5,0.5c0.1-0.3,0.4-0.7,0.8-0.6c0.6,0.1,1,0.6,1.3,1.1c0.1-0.1,0.2-0.3,0.4-0.4c0,0,0-0.1,0-0.1
				c0-0.2,0-0.5,0.1-0.6c0,0,0.2-0.2,0.3-0.2c0,0,0,0,0,0c-0.2-0.2-0.4-0.4-0.6-0.7c-0.7,0.3-1.9,0.5-2.7,0.2
				c-0.5-0.2-0.8-0.6-0.9-1.1c-0.5-0.3-0.8-0.7-1-1.1C24.2,22.3,24.2,22.4,24.1,22.6z"/>
			<path class="st1" d="M22.2,26.7c-0.2,0-0.5,0-0.6,0.2c-0.1,0.2,0,0.4,0.1,0.6c0,0,0.1,0.1,0.1,0.1l0.1,0.4l0.3,0.8
				c0.3,0.5,0.8,0.8,1.1,1l1.3-2.2c-0.2-0.2-0.5-0.6-0.5-1c0-0.2,0-0.3,0.1-0.5c-0.8-0.2-1.3,0.2-1.6,0.4c0,0-0.2,0.2-0.2,0.2
				L22.2,26.7z"/>
			<path class="st1" d="M44.6,23.9C44.6,23.8,44.6,23.8,44.6,23.9c0.5-0.5,1.1-1.1,1.7-1.1c-0.3-0.4-0.4-0.9-0.4-1.4
				c-0.2,0.5-0.8,0.9-1.3,1.1c0.1,0.1,0.2,0.2,0.3,0.4c0,0.1,0,0.2,0,0.2C44.9,23.3,44.8,23.5,44.6,23.9
				C44.6,23.8,44.6,23.8,44.6,23.9z"/>
			<path class="st1" d="M50.4,25.6c0,0,0,0,0-0.1C50.3,25.5,50.3,25.5,50.4,25.6L50.4,25.6z"/>
			<path class="st1" d="M47.4,25.2c0.1,0.2-1.1,0.7-2,1c-0.4,0.1-0.8,0.3-1.2,0.5c0,0,0,0,0,0c-0.3,0.2-0.6,0.5-0.9,0.9
				c0.4,0.2,1.7,0.5,2,0.5l0-0.2c0-0.2,0.1-0.5,0.3-0.6l0.6,0c0.5,0.1,1.2,0.3,1.7,0l-0.1-0.1l-0.2-0.5c0-0.1-0.1-0.1,0-0.2
				c0.1-0.1,0.1,0,0.2-0.1l0.7,0c0.3,0,0.5,0.1,0.7,0.1c0.1,0,0.1,0,0.2,0c0.2,0,0.3-0.1,0.3-0.3l-0.1-0.3l-0.1-0.5
				c0-0.3,0.3-0.4,0.5-0.6c0.5-0.3,0.8-0.5,0.6-0.9c-0.1-0.2-0.8-0.1-1.1,0c0,0-0.7,0-0.7,0l-0.3-0.4c-0.1-0.1-0.1-0.2-0.3-0.3
				c-0.1-0.1-0.5,0.2-0.7,0.3c-0.3,0.2-0.5,0.3-0.8,0.2l-0.3-0.3l-0.1-0.1c-0.1-0.1-0.4,0.1-1.3,0.9l-0.7,0.5c-0.1,0-0.3,0-0.4-0.3
				c-0.4,0.1-0.9,1.1-1.1,1.9c0.5-0.2,1.5-0.6,2.3-0.8C46.1,25.3,47.3,25,47.4,25.2z"/>
			<path class="st1" d="M25.3,20L25,20.1l-0.3,0c0,0-0.2,0-0.2,0c0,0,0,0.1,0,0.1l0.1,0.5c0,0,0,0,0,0c0,0.7,0.3,1.7,1.1,2.1
				c0,0,0,0,0,0c0,0,0.1,0,0.4-0.3c0.7-0.7,1.3-2,1.3-2.4C26.5,19.8,25.7,19.9,25.3,20z"/>
			<path class="st1" d="M57,19.6c-0.1,0.1-0.2,0.1-0.3,0.2c0.3,0.2,0.6,0.5,0.6,1.1c0,0,0,0.1,0,0.1c-0.1,1-1.6,1.1-2.6,1.1
				c0.1,0.2,0.2,0.4,0.2,0.7c0,0.1,0,0.2-0.1,0.3c-0.5,1.2-2.5,1.1-3.4,1.1c0,0.1,0,0.1,0,0.2c0,0.1,0,0.3-0.1,0.4
				c0.2,0,0.5,0.1,0.6,0.2c0,0,0.1,0.1,0.1,0.1c1-0.1,1.8,0,2.3,0.2c0.1-0.2,0.4-0.2,0.7-0.2c0.6,0.1,1,0.1,1.1-0.2l0-0.2
				c0-0.2,0-0.5,0.3-0.7c0.2-0.2,0.6-0.1,1.2,0c0.6,0.1,1.5,0.3,1.7,0c0-0.1-0.1-0.3-0.2-0.4c-0.1-0.2-0.3-0.5-0.2-0.8l0.4-0.3
				c0.8-0.4,1.1-0.7,0.8-1.4c-0.2-0.3-0.4-0.3-1.1-0.1c-0.4,0.1-0.9,0.3-1.1-0.2l0-0.6c0-0.2,0-0.4,0-0.5c0,0-0.2-0.2-0.6-0.2
				C57.2,19.4,57.1,19.5,57,19.6z"/>
			<path class="st1" d="M45.6,20.3c0.1,0.1,0.3,0.3,0.3,0.3c0.1-0.3,0.2-0.6,0.3-0.9c0.5-0.9,1.5-1.2,1.8-1.1c0.6-0.4,1.3-0.5,2-0.4
				c0.1-0.3,0.5-0.9,1-1.2c0-0.1,0-0.3-0.3-0.6c-0.4-0.3-0.8-0.1-1.3,0.2c-0.3,0.2-0.6,0.4-0.9,0.3c0,0-0.3-0.3-0.4-0.4
				c-0.1-0.2-0.3-0.6-0.5-0.7c-0.2,0.1-0.3,0.2-0.5,0.3c0.1,0.1,0.2,0.3,0.2,0.6c0,0.1,0,0.2-0.1,0.3c-0.1,0.4-0.6,0.8-0.8,1
				c0.1,0.2,0.1,0.4,0.1,0.6C46.5,19.3,46.2,19.8,45.6,20.3z"/>
			<path class="st1" d="M42.7,16.6c0.1-1-0.2-1.6-0.3-1.9l-0.1-0.2c0-0.2-0.1-0.3-0.3-0.4c-0.2-0.1-0.4,0.1-0.5,0.2
				c0,0-0.2,0.1-0.2,0.1c-0.4,0.1-1.3,0.6-1.6,1.4C40.9,15.9,42.4,16.4,42.7,16.6C42.7,16.6,42.7,16.6,42.7,16.6z"/>
			<path class="st1" d="M51.3,19c0,0-0.2,0.1-0.2,0.1l-0.5,0.1c-0.1,0-0.1,0-0.1,0c-0.3-0.1-1.1-0.3-2.1,0.3c-0.1,1.5,0.9,2.1,2,2.5
				c0.7-0.6,0.8-1.3,0.8-1.8c0-0.1,0-0.3,0-0.3l0-0.2l0.1-0.3C51.2,19.3,51.2,19,51.3,19z"/>
			<path class="st1" d="M43.5,29c0.2-0.1,0.3-0.1,0.3-0.4c-0.3-0.1-0.7-0.2-0.9-0.4c-0.2,0.4-0.5,0.9-0.6,1.4
				c-0.3,0.7-0.3,1.7-0.4,2.5c0,0.1,0,0.2,0,0.3c0.3-0.3,0.6-0.7,0.9-1.1c-0.3-0.5-0.4-1.3,0-1.9L43.5,29z"/>
			<path class="st1" d="M48.9,27.9c0.2-0.2,0.4-0.3,0.4-0.4c0,0,0,0,0-0.1c0-0.1,0-0.1,0-0.2c-0.2,0-0.5,0-0.7,0
				c0,0.1,0.1,0.2,0.1,0.2c0,0.2-0.1,0.3-0.2,0.5c-0.8,0.7-1.8,0.4-2.4,0.3c0,0,0,0-0.1,0c0,0.2-0.1,0.5-0.4,0.7
				c-0.2,0.1-0.6,0.1-1.1,0c-0.1,0.5-0.4,0.7-0.7,0.9l-0.4,0.3c-0.2,0.3-0.2,0.6-0.1,0.9c0.3-0.3,0.7-0.6,1-0.8c0,0,0.6-0.4,1.1-0.6
				c0.1-0.1,1.1-0.5,1.3-0.2S45.9,30,45.7,30c-0.4,0.2-0.6,0.4-0.8,0.6c-0.2,0.4-0.4,0.9-0.6,1.3c0.3-0.1,0.7-0.1,1.1-0.1l0.5-0.1
				c0.3-0.1,0.9-0.2,1-0.3c0,0,0.1-0.1,0.1-0.1L47,31.1c-0.1-0.1-0.2-0.3-0.2-0.5c0-0.1,0-0.2,0.1-0.3l0.7-0.2
				c0.8-0.1,1.2-0.2,1.3-0.6c0,0,0,0,0-0.1c0-0.2-0.1-0.2-0.2-0.4c-0.1-0.1-0.2-0.2-0.2-0.5c0-0.1,0-0.1,0-0.2L48.9,27.9z"/>
			<path class="st1" d="M55.1,17.2c-0.1-0.2-0.1-0.4-0.3-0.4c-0.5-0.1-0.9,0.3-1.3,0.8c-0.3,0.3-0.5,0.6-0.9,0.5L52.2,18
				c-0.2-0.2-0.4-0.3-0.7-0.2c-0.2,0.1-0.5,0.4-0.7,0.7c0.2-0.1,0.6-0.2,0.9,0.1c0.4,0.4,0.2,0.8,0.1,1.1c0,0,0,0.1,0,0.2
				c0,0.2,0,0.5,0,0.8c0.7-0.4,1.9-1.3,2.1-1.2c0.2,0.1-0.9,1.3-2,2c-0.2,0.1-0.5,0.3-0.5,0.3c-0.2,0.3-0.4,0.5-0.6,0.8
				c0,0.2,0,0.5-0.1,0.7c0.2,0,0.4,0.1,0.5,0.2l0.3,0c0.6,0,2.5,0.1,2.8-0.6c0.1-0.2-0.2-0.5-0.3-0.6c-0.1-0.2-0.2-0.3-0.2-0.6
				c0.1-0.3,0.3-0.2,0.8-0.2c1.8,0,2.1-0.2,2.1-0.4c0-0.4-0.2-0.5-0.5-0.6L55.8,20c-0.1-0.1-0.1-0.1,0-0.3c0.1-0.3,0.4-0.5,0.8-0.8
				c0.1-0.1,0.2-0.1,0.3-0.2c0,0,0.1-0.1,0.1-0.1c0.5-0.4,0.7-0.7,0.5-1.2c-0.1-0.2-0.2-0.2-0.2-0.2c-0.4-0.2-1.1,0.2-1.4,0.3
				c0,0-0.4,0.1-0.4,0.1C55.2,17.6,55.1,17.4,55.1,17.2z"/>
			<path class="st1" d="M54.6,26.3c-0.4-0.5-1.3-0.6-2.6-0.5c-0.1,0.4-0.2,1-0.1,1.8c0.1,0.6,0.3,1,0.6,1.4c0,0.1,0.1,0.1,0.1,0.2
				c1.6-0.3,1.9-1.2,2.1-1.6l0.1-0.3l0.3-0.3c0,0,0.2-0.2,0.2-0.2c0-0.1-0.3-0.2-0.3-0.2C55,26.5,54.6,26.3,54.6,26.3z"/>
			<path class="st1" d="M41.4,27.1c0.1,0,0.2-0.1,0.2-0.1c0.1-0.1,0.3-0.1,0.4-0.2c0.1-0.3,0.2-0.8,0.4-1.4c-0.5,0.3-1,0.4-1.2,0.5
				C41.3,26.2,41.4,26.6,41.4,27.1C41.4,27,41.4,27.1,41.4,27.1z"/>
			<path class="st1" d="M44.1,22.9l-0.1,0l-0.4-0.2c-0.1-0.1-0.2,0-0.2-0.1c0-0.1,0-0.1,0.1-0.2l0.5-0.5c0.3-0.2,1.3-0.7,1.2-1
				L45,20.8c0,0-0.3-0.3-0.3-0.3c-0.1-0.2,0.1-0.4,0.3-0.5c0.6-0.4,1.1-1,0.8-1.6l-0.3,0c0,0-0.5-0.1-0.5-0.1
				c-0.2-0.1-0.3-0.4-0.3-0.7c0-0.2,0-0.7-0.2-0.7c0,0-0.2-0.1-1,0.6l-0.2,0.1c-0.2,0.1-0.4,0-0.5-0.1l-0.2-0.1
				c-0.4,0-0.6,1-0.6,1.4c0,0-0.2,0.4-0.2,0.4c-0.2,0.2-0.4,0.2-0.6,0c0,0-0.1-0.1-0.1-0.1c-0.2,0.1-0.4,0.2-0.5,0.4
				c-0.1,0.1-0.1,0.3-0.1,0.4c0,0.5,0.2,1.1,0.4,1.4c0.1,0.1,0.1,0.3,0.1,0.5c0,0.1-0.1,0.2-0.2,0.3l-0.3,0.1c-0.1,0-0.2,0-0.3,0.1
				c-0.1,0.1-0.2,0.3-0.2,0.5c0,0.5,0.3,1.2,0.5,1.7c0.1-0.2,0.1-0.4,0.2-0.6c0.2-0.7,1.4-2.9,1.7-2.7s-1,2.3-1.2,3
				c-0.1,0.4-0.2,0.7-0.3,1.1C42.2,24.8,44.3,23.7,44.1,22.9z"/>
			<path class="st1" d="M32.4,25.3c0-0.4,0.3-0.8,0.5-1c-0.1-0.3-0.3-0.6-0.3-0.9c0-0.3,0.1-0.7,0.5-1c-0.2-0.2-0.5-0.2-0.8,0
				c-0.2,0.1-0.4,0.2-0.6,0c0,0-0.1-0.1-0.1-0.2c-0.1-0.4-0.5-1.1-0.8-1.2l-0.2,0c-0.6,0.3-0.6,0.9-0.6,1.6c0,0.3,0,0.5-0.1,0.7
				l-0.3,0.2c-0.2,0.1-0.2,0.1-0.2,0.1c-0.1,0.3,0.2,0.7,0.5,1c0.2,0.2,0.4,0.4,0.3,0.6c0,0-0.4,0.5-0.5,0.6c0,0.1,0,0.3,0,0.4
				c0,0,0,0.1,0,0.1c0.4,0.4,0.7,1,0.8,1.7c0,0,0.1-0.1,0.1-0.1l0.5,0.1c0.1,0,0.1,0.1,0.2,0.1c-0.1-0.3-0.1-0.6-0.2-1
				c-0.2-1.6-0.1-2.1,0.1-2.2c0.2-0.1,0.3,0.5,0.6,2.2c0.1,0.9,0.4,1.6,0.4,1.8c0.1,0.1,0.3,0.2,0.4,0.3c0.3-0.2,1-0.7,1-1.2l0-0.2
				c0,0,0,0,0,0c-0.1-0.2-0.1-0.4-0.1-0.5c0-0.3,0.1-0.6,0.3-0.7C33.5,26.5,32.4,26.3,32.4,25.3z"/>
			<path class="st1" d="M36.5,37.2c0-0.1,0.1-0.4,0.1-0.7c0-0.5-0.1-1.4-0.3-2.6c-0.5-2.8-2-3.3-2.7-3.5c0,0,0,0-0.1,0
				c0.2,0.5,0.3,1.1,0.3,1.9c0,0.1,0,0.3,0,0.4C33.8,34.8,35.8,36.6,36.5,37.2z"/>
			<path class="st1" d="M28.7,29.4c0.5,0.4,0.9,0.7,1.3,0.9c0,0,0.1,0,0.1,0.1c0,0,0,0,0,0c0.6,0.4,1.2,0.6,1.3,0.5l0-0.2
				c-0.1-1.5-0.4-2-0.5-2.1c-0.1,0-0.2,0.2-0.3,0.3c-0.1,0.1-0.3,0.2-0.4,0.2S30,28.9,30,28.8c0.1-1-0.5-1.9-0.7-2.1
				c-0.1,0-0.3,0.4-0.3,0.6c0,0.2-0.2,0.3-0.4,0.3c-0.2,0-0.3-0.2-0.3-0.3c0-0.4-0.2-1-0.9-1.3c0,0.1-0.1,0.2-0.1,0.2
				c-0.1,0.2-0.3,0.6-0.6,0.4l-0.2-0.1c-0.2-0.1-0.8-0.5-1.1-0.5c-0.1,0-0.2,0.1-0.3,0.2c-0.2,0.4-0.1,0.7,0.4,1.1l0.3,0.5
				c0,0.3-0.3,0.5-0.5,0.5c-0.1,0.1-0.3,0.1-0.3,0.2c0,0.3,0.2,0.4,0.9,0.5l0.5,0.2c0.3,0.3-0.1,0.6-0.2,0.8c0,0-0.2,0.3-0.2,0.2
				c0.2,0.5,0.6,0.6,1.2,0.7c0,0,0.1,0,0.1,0c0,0,0,0,0,0c0.2,0,0.3,0,0.5,0c0.3,0,0.7,0,0.7,0.3l-0.2,0.6c0,0-0.1,0.2-0.2,0.2
				c0.3,0.4,1.2,0.4,2.5-0.1c0-0.2-0.4-0.7-0.8-1.1c0,0-0.1,0-0.1-0.1c-0.4-0.2-0.9-0.6-1.3-0.9c0,0-1.1-0.9-0.9-1.2
				C27.5,28.6,28.7,29.4,28.7,29.4z"/>
			<path class="st1" d="M37,29.2C37,29.2,37,29.2,37,29.2c0,0.6,0.1,1.5,0.7,2.4c0,0,1.1,1.9,1.2,2c0.2-0.7,0.5-1.7,0.5-2.2
				c0-0.1,0-0.3,0-0.5c0-0.5,0-1-0.2-1.6l-0.2,0C38.4,29.5,38,29.6,37,29.2z"/>
			<path class="st1" d="M40.3,21.4c-0.2-0.4-0.4-1-0.4-1.6c0-0.2,0-0.4,0.1-0.6c0-0.2-0.2-0.6-0.5-0.7c-0.1,0-0.1,0-0.3,0.2
				c-0.2,0.2-0.4,0.4-0.7,0.4L38,18.6c-0.5-0.6-1-1.2-1.6-1.1C36,17.6,36,18.2,36,19.1c0,0.4,0.1,0.7-0.3,0.9
				c-0.2,0.1-0.5,0.2-0.5,0.4c-0.1,0.5,0.2,0.8,0.5,1c0,0,0.1,0.1,0.1,0.1c0.7,0.2,1.3,1.1,1.6,1.7c0.3-0.2,0.9-0.6,1.4-0.2
				c0.5,0.4,0.8,1.5,0.8,2.1l0,0c0.1,0,0.3-0.1,0.5,0c-0.3-0.5-0.7-1.4-0.7-2.2c0-0.4,0.1-0.7,0.3-1C40,21.5,40.2,21.5,40.3,21.4z"
				/>
			<path class="st1" d="M39.7,27.8c0.4-1.3,0.4-2,0.5-2.1l-0.3,0c-0.2,0-0.5,0.1-0.7-0.1c-0.1-0.1-0.2-0.3-0.2-0.4
				c0-0.3-0.3-1.5-0.6-1.8c-0.1,0-0.4,0.2-0.5,0.3c-0.2,0.2-0.4,0.3-0.6,0.2c-0.1,0-0.2-0.2-0.3-0.3c-0.2-0.7-1-1.6-1.3-1.6
				c-0.3,0.1-0.4,0.6-0.4,0.6c0,0.2-0.1,0.3-0.2,0.3c-0.1,0.1-0.3,0-0.4-0.1c-0.1-0.1-0.4-0.4-0.9,0c-0.6,0.4,0,1.2,0,1.2
				c0.1,0.1,0.1,0.2,0.1,0.3s-0.1,0.2-0.1,0.2c-0.2,0.1-0.5,0.4-0.5,0.6c0,0.3,0.4,0.5,1.1,0.6c0.4,0.1,0.7,0.1,0.7,0.4
				c0,0.3-0.1,0.4-0.2,0.5c-0.2,0.2-0.3,0.3-0.2,0.9c0.1,0.3,0.2,0.3,0.3,0.3c0.3,0.1,0.9-0.1,1.3-0.3l0.7-0.1c0.1,0,0.1-0.1,0.2,0
				s0,0.1,0,0.2c0,0,0,0.4,0,0.5l0.3,0.2c0.7,0.3,1,0.3,1.6,0.1l0.1,0c0-0.1-0.1-0.2-0.1-0.4c0,0,0-0.1-0.1-0.1
				c-0.2-0.4-0.5-0.9-1-1.3c-0.7-0.6-1.7-1.3-1.6-1.5c0.1-0.2,1.2,0.4,2,1c0.5,0.4,0.8,0.8,0.9,0.9C39.4,27.5,39.5,27.6,39.7,27.8z"
				/>
			<path class="st1" d="M39.4,48.3c0,0,0.1-0.1,0.1-0.1c0-0.3-0.1-0.6-0.3-0.9c-0.1-0.1-0.3-0.2-0.5-0.2c-0.5,0-0.8,0.4-1,0.8
				c0.1,0,0.3,0,0.4,0C38.7,48,39.1,48.2,39.4,48.3z"/>
			<path class="st1" d="M47.5,49.5c-0.4-0.5-1-0.8-1.6-0.8c-0.7,0-0.9,0.3-1,0.3c-0.1,0.1-0.4,0.2-0.5,0.1c0,0-0.4-0.3-1.1-0.3
				c-0.4,0-0.6,0.1-0.8,0.1c0.1,0.1,0.2,0.1,0.2,0.2l1.5,2.2c0.4,0.5,1,0.8,1.6,0.8c0.7,0,0.9-0.3,1-0.3c0.1-0.1,0.4-0.2,0.5-0.1
				c0,0,0.4,0.3,1.1,0.3c0.4,0,0.6-0.1,0.8-0.1c-0.1-0.1-0.2-0.1-0.2-0.2C49.1,51.8,47.5,49.5,47.5,49.5z"/>
			<path class="st1" d="M32.6,48c0.1,0,0.1,0,0.2,0c0.6,0,1,0.2,1.3,0.3c0.1-0.1,0.3-0.2,0.6-0.3c0-0.1,0-0.3,0-0.4
				C34.2,47.6,33.3,47.5,32.6,48z"/>
			<path class="st1" d="M24.7,35.3c0-0.2,0.8-0.9,1.1-1.2c0.7-0.5,1.1-0.8,2-1.1c-0.2-0.1-0.4-0.3-0.5-0.5c0-0.1-0.1-0.2-0.1-0.3
				c0-0.2,0.1-0.4,0.2-0.5c-0.1,0-0.3,0-0.4,0c-0.1,0-0.3,0-0.4,0.1l0.2,0.4c0.1,0.2,0.2,0.4,0.1,0.6c0,0.1-0.1,0.2-0.2,0.2
				c-0.2,0.1-0.3,0-0.5-0.1c-0.3-0.2-1.2-0.6-1.7-0.3c0,0-0.1,0.1-0.1,0.1c0,0,0.2,0.2,0.2,0.2c0.1,0.1,0.3,0.3,0.3,0.5
				c0,0.1,0,0.2-0.1,0.3c-0.2,0.2-0.4,0.2-0.6,0.1c-0.4-0.1-0.8-0.1-1.1,0.3c-0.3,0.4-0.2,0.5,0,0.7c0.1,0.1,0.3,0.4,0.2,0.7
				l-0.3,0.3c-0.6,0.6-0.9,1-0.6,1.5c0.2,0.1,1-0.3,1.3-0.4c0,0,0.8-0.3,0.8-0.3c0.5,0,0.7,0.4,0.7,0.7c0.1,0.3,0.1,0.3,0.4,0.2
				c0.8-0.2,1-0.7,1.2-1.3c0.1-0.4,0.3-0.8,0.6-1c0.2-0.1,0.3-0.1,0.5-0.1c0.3,0.1,0.4,0.3,0.5,0.5c0,0,0,0,0,0.1
				c0.3-0.3,0.7-1.1,0.9-2.1c0,0,0-0.1,0.1-0.1c-0.4,0.1-0.9,0.2-1.2,0.3C27,34.2,24.8,35.5,24.7,35.3z"/>
			<path class="st1" d="M23.8,33c0-0.1-0.1-0.2-0.1-0.3c0,0,0-0.1,0-0.1c0-0.2,0.2-0.3,0.4-0.5c-0.3-0.1-0.5-0.3-0.6-0.4
				c-0.4-0.4-0.5-0.9-0.4-1.2c-0.2-0.1-0.5-0.3-0.8-0.6c0,0,0,0-0.1,0c-0.3-0.3-0.9-0.2-1.1,0c0,0.1,0,0.4,0,0.6c0,0.4,0,0.8-0.2,1
				c-0.3,0.2-0.6,0-1-0.2c-0.4-0.3-0.8-0.5-1-0.3l0.1,0.4l0,0.8l-0.6,0.3c-0.2,0.1-0.5,0.2-0.6,0.3c0,0.1,0,0.2,0,0.3
				c0.1,0.4,0.5,0.4,1.1,0.4c0,0,0.7,0.1,0.7,0.1l0.2,0.6c0,0.2,0,0.4,0.2,0.5c0.4,0.4,1.3-0.4,1.7-0.6l0.5-0.2
				c0.1-0.1,0.1,0.1,0.3,0.1l0.1,0.1c0-0.1,0.1-0.2,0.2-0.3C22.8,33.1,23.3,33,23.8,33z"/>
			<path class="st1" d="M59,29.1c0,0-0.4-0.1-0.4-0.1c-0.2-0.1-0.3-0.3-0.2-0.7c0.1-0.2,0.2-0.4-0.1-0.7c-0.3-0.4-1.3,0.2-1.7,0.5
				c-0.3,0.2-0.5,0.3-0.7,0.2c-0.2-0.1-0.3-0.3-0.3-0.5c-0.1-0.2-0.1-0.4-0.2-0.4c0,0-0.1,0.1-0.1,0.1c0,0,0,0.1,0,0.1
				c-0.1,0.3-0.3,0.8-0.8,1.3c1,0.1,2.5,0.4,2.5,0.6c0,0.3-2.5-0.1-3.2-0.1c-0.1,0-0.3,0-0.4,0c-0.2,0.1-0.4,0.1-0.6,0.2
				c0.1,0.2,0.2,0.4,0.2,0.4l0.5-0.1c0.5-0.1,1.1-0.2,1.5,0.1c0.4,0.3,0.5,0.6,0.5,0.9c0,0.2-0.1,0.4-0.1,0.5c0,0,0,0,0,0
				c0.2,0.1,0.5,0.2,0.7,0.5c0-0.1,0.1-0.1,0.1-0.3c0,0,0.2-0.3,0.2-0.3c0.2-0.2,0.5-0.1,0.8,0.1c0.2,0.1,0.8,0.4,1,0.3
				c0.1-0.1,0.2-0.3,0.2-0.6c0-0.2,0-0.5,0.3-0.6l0.6,0c0.3,0.1,0.8,0.2,1,0c0.1-0.1,0.2-0.2,0.2-0.4C60.5,29.6,60.1,29.3,59,29.1z"
				/>
			<path class="st1" d="M20.1,30.6C20.1,30.6,20.1,30.6,20.1,30.6c0.1,0,0.1-0.1,0.1-0.1c0-0.1,0-0.2,0-0.3c0-0.3,0.1-0.7,0.3-0.9
				c-0.2,0-0.3-0.1-0.5-0.1c-0.6-0.1-2.6-0.1-2.6-0.4c0-0.3,2.2-0.4,3-0.3c0.3,0.1,0.7,0.1,1,0.2l-0.2-0.6c0,0-0.1-0.3-0.1-0.4
				c0,0,0-0.1-0.1-0.1c0,0,0,0,0,0c-0.5-0.7-1.1-1.2-1.3-1.2c-0.2,0-0.2,0.1-0.3,0.4c0,0.2-0.1,0.5-0.4,0.5c-0.2,0-0.4-0.1-0.7-0.3
				c-0.3-0.3-0.9-0.8-1.3-0.7c-0.1,0-0.2,0-0.1,0.6c0,0.3,0.1,0.7-0.2,0.8l-0.7,0c-0.3-0.1-0.7-0.2-0.9,0c0,0-0.1,0.1-0.2,0.3
				c-0.1,0.5,0.3,0.7,1.1,1c0,0,0.5,0.2,0.5,0.2c0.2,0.3,0,0.6-0.1,0.7c-0.3,0.4-0.3,0.4-0.1,0.6c0.4,0.4,0.8,0.2,1.3-0.1l0.5-0.2
				c0.1,0,0.2,0,0.3,0C19,29.8,19.7,30.3,20.1,30.6z"/>
			<path class="st1" d="M45.4,32.5c-0.8-0.1-1.4,0.2-1.4,0.2c-0.1,0.1-0.3,0.1-0.4,0c-0.1-0.1-0.2-0.2-0.2-0.3c0,0,0,0,0-0.1
				c0-0.2,0.2-0.6,0.3-0.9c-0.8,0.9-1.7,2-2.1,2.5c-0.1,0.1-0.3,0.2-0.5,0.1C41.1,34,41,33.9,41,33.8c0,0,0-0.1,0-0.1
				c0.1-0.3,0.2-0.9,0.2-1.5c0-0.9,0.1-1.8,0.4-2.7c0.3-0.9,0.7-1.6,1.1-2.1c-0.3,0.1-0.6,0.3-0.8,0.4c-0.7,0.3-0.9,0.4-1.1,0.2
				l-0.1-0.8c0-0.1,0-0.2,0-0.3c-0.1,0.4-0.2,0.9-0.4,1.5c-0.1,0.2-0.3,0.3-0.4,0.2c-0.1,0-0.1-0.1-0.2-0.1c0,0,0,0,0,0
				c0.3,0.9,0.5,1.9,0.5,2.6c0,0.2,0,0.4,0,0.5c0,0-0.5,3.1-1,3.3c-0.2,0-0.3,0-0.4-0.2l-0.5-0.9l-1-1.7c-0.9-1.5-0.9-2.8-0.9-3.5
				v-0.1c-0.5,0.2-1.1,0.5-1.7,0.2c0,0-0.1-0.1-0.1-0.1c-0.2,0.4-0.6,0.8-0.9,1l0.2,0.1c0.7,0.2,2.7,0.8,3.2,4
				c0.2,0.9,0.3,1.9,0.3,2.7c0,0.7-0.1,1.2-0.3,1.5c-0.1,0.1-0.3,0.1-0.4,0.1c-0.2-0.1-3.6-2.3-3.5-5.6c0.1-2.2-0.7-2.8-0.9-2.8
				c0,0,0,0,0,0c0.1,0.4,0.1,0.7,0.1,1.1c0,0.5-0.2,0.7-0.4,0.9c-0.2,0.1-0.4,0.1-0.7,0c0.1,0.2,0.2,0.4,0.2,0.6c0,0,0,0.1,0,0.1
				c0,0.2-0.2,0.4-0.4,0.5c-0.4,0.1-0.8,0.2-1.1,0.3c1.8,0.6,3.3,3.1,3.5,3.7c0.1,0.3,0.8,1.4,1.4,2.3c1.2,1.9,1.2,2,1.2,2.2
				c-0.3,2.3-1.4,4-3,4.8l-0.6,0.3c-1.1,0.5-2.6,1.3-3.5,2c0,0,0.1,0,0.1,0.1c0.2-0.2,0.6-0.4,1.3-0.4c0.5,0,0.9,0.1,1.3,0.4
				c0,0,0-0.1,0-0.1c0.8-1.4,2.5-1.4,3.3-1.3c0.1-0.2,0.1-0.5,0.2-0.7c0.1-0.2,0.3-0.5,0.4-0.8c0.5-0.8,1.1-2.5,1.3-2.5
				c0.2,0,0.1,1.4-0.7,2.8c-0.2,0.3-0.3,0.5-0.4,0.8c-0.1,0.3-0.2,0.5-0.2,0.8c0,0,0,0,0,0.1c0,0,0,0,0,0c0,0.2,0,0.4,0,0.6
				c0.4,0,0.9,0.1,1.2,0.4c0,0,0,0,0.1,0c0,0,0,0,0-0.1c0.4-1.1,1.1-1.8,1.9-1.8c0.4,0,0.8,0.1,1,0.4c0.3,0.3,0.5,0.8,0.5,1.1
				c0.1,0,0.3,0,0.4,0c0.5,0,0.9,0.1,1.3,0.4c0.2-0.2,0.7-0.3,1.4-0.3c0.5,0,0.9,0.1,1.1,0.2l0-0.1c-0.3-0.7-0.8-0.9-1.6-1.2
				c-1-0.4-2.2-0.9-2.9-2.7c-0.3-0.9-0.5-2-0.6-3.1c0-0.7,0.1-3,0.3-3s0.4,2.2,0.4,2.9c0.1,1,0.2,2.1,0.5,2.9
				c0.6,1.5,1.5,1.9,2.5,2.3c0.7,0.3,1.4,0.6,1.8,1.4c0,0,0.1,0.2,0.2,0.4c0.2-0.1,0.4-0.1,0.7-0.1c0.5,0,0.9,0.2,1.3,0.4
				c0.2-0.1,0.5-0.3,1-0.3c-0.3-0.4-1-0.7-2.7-1.4l-0.3-0.1c-2.6-1.1-3.2-2.2-3.7-3l-0.1-0.1c-0.5-0.8-1.4-5.2,0.5-8.1
				C43.2,33.5,44.7,32.8,45.4,32.5C45.4,32.6,45.4,32.5,45.4,32.5L45.4,32.5z"/>
			<path class="st1" d="M55.1,32.3c-0.2-0.1-0.4-0.2-0.4-0.4l0.1-0.6c0.1-0.2,0.1-0.3-0.2-0.5c-0.1-0.1-0.6,0-0.9,0.1l-0.8,0
				c-0.2-0.1-0.3-0.2-0.4-0.4c0,0-0.1,0.1-0.1,0.1c-0.7,0.3-2,0.4-3.1-0.3c-0.4,0.3-1.1,0.4-1.5,0.5c0,0,0,0-0.1,0
				c0.1,0.1,0.1,0.3,0.2,0.4c1-0.2,1.7-0.1,2,0.1c0.2,0.2,0.3,0.4,0.3,0.6c0,0.1,0,0.2,0,0.2c0.2,0,0.5,0.1,0.5,0.1
				c0.9,0.1,1.4,0.2,1.7,0.5c0.1,0.2,0.2,0.3,0.2,0.5c0,0.2-0.1,0.4-0.2,0.5c0.1,0,0.2,0.1,0.2,0.1c0.2,0.1,0.4,0.1,0.6,0.2l0.3,0
				c0.3,0,0.5,0.1,0.7,0c0,0,0.1-0.1,0.1-0.2l0.2-0.5l0.6-0.1c0.4,0.1,0.6,0,0.6-0.1C55.7,32.6,55.6,32.5,55.1,32.3z"/>
			<path class="st1" d="M53,36l-0.4-0.5c0,0,0-0.1,0-0.1c0-0.2,0.2-0.4,0.3-0.5c0,0,0.1-0.1,0.1-0.1c-0.1-0.1-0.5-0.2-0.7-0.3
				c-0.4-0.1-0.7-0.2-0.8-0.4c0-0.1,0-0.1,0-0.2c0-0.2,0.1-0.3,0.1-0.4c0.1-0.1,0.1-0.2,0.1-0.3c0,0,0,0,0,0
				c-0.1-0.1-0.9-0.2-1.2-0.2c-0.8-0.1-1.1-0.1-1.1-0.5l0-0.4c0,0,0-0.1,0-0.2c-0.1-0.1-1-0.2-2.4,0.3c0.5,0.2,0.9,0.5,1.4,0.9
				c0.5,0.3,1.1,1.2,0.9,1.3S48.4,34,48,33.7c-0.5-0.4-1.3-0.7-1.8-0.9c0.1,0.8,0.3,1.9,0.6,2.1c0.1-0.1,0.3-0.3,0.6-0.2
				c0.2,0.1,0.3,0.3,0.5,0.7c0.2,0.4,0.5,1.3,0.9,1.3c0.3,0,0.4-0.1,0.5-0.2c0.1-0.1,0.2-0.4,0.5-0.3l0.5,0.3
				c0.2,0.2,0.6,0.6,0.9,0.6c0.3,0,0.4-0.1,0.5-0.3c0.1-0.1,0.2-0.3,0.5-0.3l0.3,0.1c0.5,0.2,0.7,0.2,0.9-0.1c0-0.1,0.1-0.1,0.1-0.2
				C53.3,36.3,53.2,36.1,53,36z"/>
			<path class="st1" d="M41.7,7.8C42,7.7,42.3,7.7,42.6,8c0.3,0.4,0.4,0.8,0.4,1.2c0,0.7-0.4,1.3-0.7,1.7c0.3,0.1,0.6,0.2,0.7,0.5
				c0,0.1,0.1,0.2,0.1,0.3c0,0.4-0.2,0.8-0.4,1.2c0.3-0.1,0.6-0.1,0.8-0.1c0,0,0-0.1,0-0.1c0.2-0.6,0.5-1.5,1.3-1.8l0.5,0
				c0-0.1,0-0.2,0-0.3c0,0,0-0.1-0.1-0.1c-0.2,0-0.3-0.1-0.3-0.3c0-0.2,0-0.3,0.2-0.4c0.4-0.3,1.2-1,1-1.3c-0.2-0.4-0.5-0.5-0.7-0.5
				c0,0-0.4-0.1-0.4-0.1c-0.2-0.2-0.2-0.4-0.1-0.7c0.1-0.7,0-1.1-0.3-1.2c-0.4-0.1-0.8,0.3-1.1,0.8c-0.2,0.3-0.4,0.6-0.7,0.5L42,7.1
				c-0.1-0.1-0.2-0.2-0.3-0.2c0,0.2,0.1,0.4,0.1,0.6C41.8,7.6,41.7,7.7,41.7,7.8z"/>
			<path class="st1" d="M38.2,11.4c0.6,0.4,0.8,0.9,0.8,1.4c0,0.6-0.3,1.2-0.4,1.5c0,0,0,0,0,0c0.1,0,0.3,0,0.3,0c0.1,0,0.2,0,0.2,0
				c0.1-0.3,0.3-1.3,0.6-2.3c0.2-1,0.3-1.9,0.5-1.9c0.3,0,0.3,0.7,0.2,1.7c-0.1,0.9-0.4,2.1-0.5,2.6c0.5-0.4,1-0.7,1.4-0.8
				c0.1-0.1,0.3-0.2,0.4-0.2c0.5-0.8,0.8-1.6,0.7-1.8c0-0.1-0.2-0.1-0.5-0.1c-0.2,0-0.4,0-0.6-0.2c-0.1-0.2,0-0.4,0.2-0.6
				c0.5-0.7,1-1.4,0.5-2.3c-0.1,0-0.3,0.1-0.4,0.1c-0.1,0.1-0.4,0.2-0.6,0c-0.1-0.1-0.2-0.3-0.1-0.4c0.1-0.3,0.2-1.1-0.1-1.6
				c-0.1-0.2-0.3-0.3-0.6-0.4c-0.3,0-0.6,0.8-0.7,1.2c-0.1,0.4-0.2,0.7-0.4,0.8l-0.7,0c-0.2-0.1-0.3-0.1-0.5,0
				c-0.4,0.2,0.1,1.1,0.4,1.6c0.2,0.5,0.4,0.7,0.2,1c-0.1,0.1-0.2,0.2-0.3,0.2c-0.3,0-0.6,0.1-0.8,0.3c0,0.1-0.1,0.1-0.1,0.2
				C37.6,11.3,37.9,11.2,38.2,11.4z"/>
			<path class="st1" d="M45.4,12c0-0.1-0.1-0.3-0.2-0.4l-0.2,0c-0.5,0.2-0.7,1-0.9,1.4c-0.1,0.4-0.2,0.6-0.5,0.6l-0.2,0
				c-0.2-0.1-0.4-0.1-0.6,0.1c0.2,0.2,0.2,0.4,0.3,0.5c0,0,0,0.1,0,0.1c0.2,0.4,0.3,0.9,0.4,1.4c0.2-0.2,0.4-0.5,0.7-0.8
				c0.7-0.6,1.5-1.2,1.6-1c0.1,0.1-0.5,0.8-1.1,1.4c-0.2,0.2-0.4,0.4-0.5,0.6c0.2-0.1,0.5-0.1,0.7,0c0.5,0.3,0.5,0.9,0.6,1.3
				c0,0,0,0.1,0,0.2c0.1,0,0.1,0,0.1,0c0.1,0,0.2,0,0.3,0c0.2-0.1,0.6-0.4,0.7-0.7c0.1-0.2,0-0.3-0.1-0.4c-0.1-0.1-0.2-0.3-0.1-0.5
				c0-0.1,0.2-0.2,0.3-0.3c0.3-0.1,0.6-0.3,0.8-0.4c0,0,0.1-0.1,0.1-0.1c0.5-0.3,0.6-0.6,0.7-0.7c0-0.3-0.1-0.3-0.3-0.5
				c-0.1-0.1-0.4-0.3-0.4-0.5l0.4-0.6c0.3-0.2,0.6-0.6,0.6-0.9c0-0.1-0.1-0.3-0.2-0.4c-0.2-0.2-0.4-0.3-0.6-0.3
				c-0.4,0-0.9,0.5-1.2,0.8L46,12.6C45.7,12.6,45.5,12.2,45.4,12z"/>
			<path class="st1" d="M48.7,16.3c0.1-0.1,0.3-0.1,0.3-0.1c0.4-0.2,1-0.6,1.7-0.4c0.2-0.1,0.4-0.3,0.8-0.5c0.7-0.3,1.5-0.6,1.6-0.5
				c0.1,0.1-0.6,0.6-1.2,1c-0.2,0.1-0.4,0.2-0.5,0.3c0.3,0.3,0.4,0.6,0.4,0.8c0.4,0,0.7,0.2,0.9,0.4c0,0,0.1,0,0.1,0.1
				c0.1-0.1,0.2-0.2,0.2-0.2c0.4-0.5,1-1.3,2-1.1c0-0.2-0.1-0.5-0.2-0.7c0-0.1-0.1-0.2,0-0.3s0.1-0.2,0.2-0.2
				c0.3-0.1,0.8-0.5,0.9-0.9c0-0.1,0-0.2-0.1-0.3c-0.3-0.4-0.8-0.3-1.4-0.1l-0.6,0.1l-0.3-0.4c-0.1-0.2-0.2-0.3-0.5-0.4
				c-0.3-0.1-0.8,0.4-1.1,0.7l-0.7,0.4l-0.6-0.3c0,0-0.3-0.2-0.3-0.3c-0.2,0-0.7,0.6-0.8,0.8l-0.3,0.3l-0.2,0c0,0.3-0.3,0.7-0.7,1
				C48.5,15.8,48.6,16.1,48.7,16.3z"/>
			<path class="st1" d="M20.8,24.8c0.3,0.4,0,0.9-0.3,1.3c0.2,0.1,0.4,0.3,0.5,0.5c0,0,0,0,0,0c0.3-0.6,0.9-0.5,1.2-0.6
				c0.1-0.1,0.2-0.2,0.4-0.3c0,0,0-0.1,0-0.1c0-0.1,0-0.1,0-0.2c0,0-0.1-0.1-0.1-0.1c-0.3-0.2-0.9-0.6-0.9-1.3c0-0.1,0-0.2,0-0.3
				c0.1-0.5,0.4-0.7,0.8-0.9c-0.1-0.2-0.2-0.5-0.2-0.7c0,0-0.1-0.3-0.1-0.4c0,0,0,0,0,0c0,0-0.5,0.1-0.5,0.1c-0.4,0.1-0.8,0.3-1.1,0
				l-0.2-0.3l-0.5-0.7c-0.3-0.3-0.9-0.6-1.2-0.4c-0.1,0.1-0.2,0.2-0.1,0.6c0,0.2,0.1,0.5-0.2,0.6l-0.5,0c-0.5-0.2-0.8-0.2-1,0.3
				c-0.1,0.3-0.2,0.5,0,0.7c0.3,0.5,1.2,0.7,1.5,0.8c0.1,0,0.3,0.1,0.3,0.3c0,0.1,0,0.3-0.1,0.4c-0.1,0.1-0.4,0.3-0.4,0.5l0.1,0.2
				c0.1,0.1,0.4,0.1,0.9-0.1C19.6,24.4,20.3,24.1,20.8,24.8z"/>
			<path class="st1" d="M35.1,11.2c-0.4,0.1-0.3,0.8-0.3,1.4c0,0.4,0.1,0.6-0.1,0.8c-0.2,0.2-0.4,0.1-0.6,0.1c-0.2,0-0.3,0-0.3,0.1
				c-0.1,0.2,0.2,0.6,0.8,1.3c0.2,0.3,0.3,0.4,0.3,0.6c0,0.1,0,0.2-0.2,0.3c0.1,0.2,0.2,0.4,0.3,0.6c0.1,0,0.3,0.1,0.4,0.2
				c0.1,0.1,0.2,0.3,0.3,0.5c0.1-0.1,0.3-0.3,0.5-0.3c-0.1-0.3-0.1-0.6-0.2-1C35.9,15,35.8,14,36,14c0.2-0.1,0.5,1,0.7,1.9
				c0.1,0.4,0.2,0.7,0.3,1c0.4,0.1,0.7,0.3,1,0.5c0-0.4,0.1-0.7,0.3-1c0.2-0.2,0.4-0.3,0.7-0.4c0.1-0.3,0.2-0.6,0.3-0.8l-0.4,0
				c-0.4,0-1,0-1.1-0.5l0.1-0.5c0.4-0.9,0.5-1.5-0.1-2l-0.3,0.2c-0.2,0.2-0.3,0.3-0.6,0.3l-0.5-0.4C36.2,11.8,35.6,11,35.1,11.2z"/>
			<path class="st1" d="M30.3,14.1l-0.4,0.7c-0.2,0.1-0.3,0.2-0.3,0.3c0,0.1,0.2,0.2,1,0.3c-0.1-0.4-0.1-1,0.4-1.2
				c0.3-0.1,0.7,0,0.9,0.1c-0.1-0.2-0.2-0.5-0.4-0.8c-0.2-0.4-0.9-1.2-0.7-1.4s1.1,0.7,1.4,1.2c0.3,0.6,0.5,1.1,0.6,1.4
				c0.2,0,0.4,0.1,0.7,0.2c-0.3-0.4-0.5-0.8-0.5-1.2c0-0.1,0-0.2,0.1-0.4c0.3-0.5,0.7-0.6,1-0.6c0-0.1,0-0.1,0-0.1
				c0-0.2,0-0.4,0-0.7c0-0.2,0-0.3,0-0.5c-0.3-0.2-0.5-0.1-0.7,0c-0.1,0.1-0.3,0.2-0.5,0.1c-0.2-0.1-0.2-0.3-0.3-0.6
				c0-0.5-0.1-1.8-0.6-1.9c-0.1,0-0.3,0.3-0.4,0.5c-0.2,0.3-0.3,0.5-0.6,0.6c-0.2,0-0.4-0.1-0.6-0.4c-0.7-0.8-1.2-1.1-1.9-0.7
				c-0.5,0.3-0.1,1.1,0.3,1.9l0.2,0.6c-0.1,0.2-0.2,0.3-0.4,0.4c-0.3,0.1-0.5,0.2-0.5,0.5c-0.1,0.6,0.6,0.9,1.4,1.1
				C29.9,13.6,30.3,13.7,30.3,14.1z"/>
			<path class="st1" d="M20.9,20.9C20.9,20.9,20.9,20.9,20.9,20.9c-0.2-0.2-0.5-0.6-0.5-0.6c0,0,0,0,0,0c0.2-0.2,0.5-0.4,0.7-0.4
				c0.2,0,0.4-0.1,0.4-0.3c0.1-0.3-0.2-0.4-0.4-0.5c-1.5-0.7-1.7-1.1-1.6-1.3c0-0.1,0.3-0.2,0.5-0.3l0.4-0.3c0.2-0.2,0.1-0.4,0-0.8
				c-0.2-0.8-0.2-1.3,0.2-1.5c0.2-0.1,0.4,0.1,0.7,0.5l0.5,0.5c0.4,0.1,0.6-0.3,0.8-0.6c0.1-0.1,0.2-0.4,0.3-0.4
				c0.3,0,0.4,0.9,0.5,1.3c0.1,0.5,0.1,0.8,0.4,0.9c0.4,0.1,0.6-0.2,0.8-0.4c0.1-0.1,0.2-0.2,0.2-0.2c0.3,0.1,0.3,0.7,0.3,1.1
				c0,0.4,0,0.8,0.3,0.9c0.1,0.1,0.5,0.3,1-0.1c0.4,0.4,1,0.4,1.4,0.4c0,0,0.2,0,0.3,0c0,0,0,0,0,0c0,0.2-0.1,0.4-0.1,0.5
				c-1.3-0.4-2.2-0.2-2.7-0.1l-0.2,0l-0.3,0l-0.7,0.3c0,0,0,0,0,0.1c-0.4-0.3-0.8-0.7-1.2-1.1c-0.6-0.7-0.9-1.6-1.1-1.5
				c-0.4,0.2,0.1,1.3,0.4,1.8c0.4,0.6,1.3,1.4,1.9,1.7l0,0c0,0.3,0,0.6,0.1,1c-0.5,0.2-0.6,0.6-0.6,0.9c0,0,0,0,0,0
				c-0.1,0-0.2,0-0.2,0c0,0,0,0,0,0c-0.1-0.1-0.2-0.5-0.2-0.6c-0.1-0.4-0.2-0.7-0.4-0.9c-0.3-0.2-0.7-0.1-1.1,0.1
				c0,0-0.4,0.1-0.4,0.1L20.9,20.9z"/>
			<path class="st1" d="M27,16.6l-0.2,0.7l-0.1,0.4c0,0.4,0.3,0.5,1,0.6c0.4,0,0.9,0.1,1,0.5c0.1,0.2,0,0.4,0,0.6c0,0,0.1,0,0.1,0
				c0.5,0.1,1,0.6,1.3,1.2c0.1-0.1,0.2-0.1,0.3-0.2l0.7,0c0.5,0.2,0.9,0.9,1.1,1.3c0.4-0.1,1.1-0.4,1.6,0.4c0.3-0.1,0.6,0,0.8,0.1
				c0.1-0.2,0.2-0.4,0.4-0.5c-0.2-0.2-0.5-0.6-0.5-1c-0.7,0.3-1.6,0.3-2.5,0c-0.7-0.3-1.2-0.8-1.3-1.3c-0.1-0.3,0-0.5,0.2-0.7l0,0
				c0,0,0,0,0,0c-0.6-1.1-0.6-2-0.4-2.5c-0.7-0.1-1.5-0.3-1.6-0.9c-0.1,0-0.1,0-0.1,0l-0.6-0.3c-0.7-0.4-1.3-0.8-1.9-0.2
				c-0.3,0.3-0.1,0.6,0.4,1.1C26.6,15.9,27,16.6,27,16.6z"/>
			<path class="st1" d="M32.2,8.4c1.1,0.2,1.2,1.5,1.3,2.3c0.2-0.1,0.6-0.1,1,0.1c0.1-0.1,0.3-0.3,0.5-0.3c0.3-0.1,0.7,0,0.9,0.1
				C36,9.8,36,8.7,35.9,8.5c-0.1,0-0.2,0.1-0.3,0.2c-0.1,0.1-0.3,0.2-0.4,0.1S34.9,8.6,35,8.4c0.1-0.7,0-1.7-0.4-1.9
				c-0.3-0.1-0.3,0-0.4,0.1C34,7,33.8,7,33.6,6.9l-0.4-0.4c-0.3-0.4-1-1.2-1.5-1c-0.4,0.2,0,1.1,0.1,1.5c0.2,0.4,0.2,0.6,0.1,0.8
				c-0.1,0.2-0.4,0.2-0.6,0.2c-0.4,0-0.5,0.1-0.5,0.2C30.9,8.6,31,8.8,31.2,9C31.4,8.7,31.7,8.3,32.2,8.4z"/>
			<path class="st1" d="M39.3,15.1L39.3,15.1C39.2,15,39.2,15.1,39.3,15.1C39.3,15.1,39.3,15.1,39.3,15.1z"/>
			<path class="st1" d="M50.4,25.6L50.4,25.6c0,0,0-0.1,0-0.1C50.3,25.6,50.4,25.6,50.4,25.6z"/>
			<path class="st2" d="M44,123.9c0.1,0.3-0.8,0.4-1.3,0.4c-0.7,0-1.5-0.1-1.4-0.4c0-0.3,0.7-0.2,1.4-0.2
				C43.1,123.7,43.9,123.7,44,123.9L44,123.9z"/>
			<path class="st1" d="M23.5,95.7C23.5,95.7,23.5,95.7,23.5,95.7l-0.4,0c-0.1,0-0.2,0-0.3-0.1c0,0-0.9-1-2.1-1
				c-0.9,0-1.6,0.3-2.3,0.6c-0.6,0.3-1.3,0.5-1.9,0.5h-1.8c-0.2,0-0.4-0.2-0.4-0.4V85.1c-0.3,0.2-0.7,0.4-0.8,0.5
				c0,0.4,0,9.7,0,10.3c0.7,0,8.1,0,8.1,0c0.1,0,0.2,0,0.3,0.1c0,0,0.6,0.6,1.4,0.7l0.4,0c0.8-0.1,1.3-0.7,1.3-0.7
				c0.1-0.1,0.2-0.1,0.3-0.1c0,0,7.4,0,8.1,0c0-0.7,0-10,0-10.3c-0.1-0.1-0.5-0.3-0.8-0.5v10.2c0,0.2-0.2,0.4-0.4,0.4h-1.8
				c-0.6,0-1.2-0.3-1.9-0.5c-0.7-0.3-1.5-0.6-2.3-0.6c-1.2,0-2.1,1-2.1,1c-0.1,0.1-0.2,0.1-0.3,0.1L23.5,95.7
				C23.5,95.7,23.5,95.7,23.5,95.7z"/>
			<path class="st1" d="M34.1,96.4c0,0.2-0.2,0.4-0.4,0.4c0,0-8.1,0-8.3,0c-0.2,0.2-0.8,0.7-1.6,0.8c0,0-0.5,0-0.5,0
				c-0.9-0.1-1.5-0.6-1.7-0.8c-0.3,0-8.3,0-8.3,0c-0.2,0-0.4-0.2-0.4-0.4V85.8c-0.2,0-0.5,0-0.7,0c0,0.7,0,11.1,0,11.7
				c0.7,0,9.4,0,9.4,0c0.1,0,0.2,0,0.3,0.1c0,0,0.4,0.5,1.2,0.6c0.3,0,0.8,0,1.1,0c0.8-0.1,1.2-0.6,1.2-0.6c0.1-0.1,0.2-0.1,0.3-0.1
				c0,0,8.7,0,9.4,0c0-0.7,0-11.1,0-11.7c-0.2,0-0.5,0-0.7,0L34.1,96.4L34.1,96.4z"/>
			<path class="st1" d="M20.5,83.3c-1.3,0-1.9,0.5-2.5,0.9c-0.5,0.3-0.9,0.6-1.5,0.6c0,0-1,0-1.4,0c0,0.7,0,9.5,0,10.1
				c0.5,0,1.5,0,1.5,0c0.5,0,1-0.2,1.6-0.5c0.7-0.3,1.6-0.7,2.6-0.7c1.1,0,1.9,0.6,2.4,1c0-0.9,0-10.2,0-10.2
				C23.1,84.5,22.7,83.3,20.5,83.3z M21.7,91.8c0,0.1,0,0.1-0.1,0.1c-0.2,0-0.9-0.1-1.6,0l-1.1,0.5l-0.6,0.3
				c-0.8,0.4-1.4,0.4-1.6,0.4c-0.1,0-0.2-0.1-0.2-0.2c0-0.1,0.1-0.2,0.2-0.2c0.2,0,0.8,0,1.5-0.4l0.6-0.3l1.2-0.5
				c0.9-0.2,1.7-0.1,1.7-0.1C21.7,91.6,21.7,91.7,21.7,91.8z M21.7,89.6c0,0.1,0,0.1-0.1,0.1c-0.2,0-0.9-0.1-1.6,0l-1.1,0.5
				l-0.6,0.3c-0.8,0.4-1.4,0.4-1.6,0.4c-0.1,0-0.2-0.1-0.2-0.2c0-0.1,0.1-0.2,0.2-0.2c0.2,0,0.8,0,1.5-0.4l0.6-0.3l1.2-0.5
				c0.9-0.2,1.7-0.1,1.7-0.1C21.7,89.5,21.7,89.5,21.7,89.6z M21.7,87.5c0,0.1,0,0.1-0.1,0.1c-0.2,0-0.9-0.1-1.6,0l-1.1,0.5
				l-0.6,0.3c-0.8,0.4-1.4,0.4-1.6,0.4c-0.1,0-0.2-0.1-0.2-0.2c0-0.1,0.1-0.2,0.2-0.2c0.2,0,0.8,0,1.5-0.4l0.6-0.3l1.2-0.5
				c0.9-0.2,1.7-0.1,1.7-0.1C21.7,87.4,21.7,87.4,21.7,87.5z M21.7,85.3c0,0.1,0,0.1-0.1,0.1c-0.2,0-0.9-0.1-1.6,0L18.9,86l-0.6,0.3
				c-0.8,0.4-1.4,0.4-1.6,0.4c-0.1,0-0.2-0.1-0.2-0.2c0-0.1,0.1-0.2,0.2-0.2c0.2,0,0.8,0,1.5-0.4l0.6-0.3l1.2-0.5
				c0.9-0.2,1.7-0.1,1.7-0.1C21.7,85.2,21.7,85.2,21.7,85.3z"/>
			<path class="st1" d="M23.8,95.7l-0.4,0c0,0,0,0,0,0s0,0,0,0l-0.4,0c-0.1,0-0.2,0-0.3-0.1c0,0-0.9-1-2.1-1c-0.9,0-1.6,0.3-2.3,0.6
				c-0.6,0.3-1.3,0.5-1.9,0.5h-1.8c-0.2,0-0.4-0.2-0.4-0.4V85.1c-0.3,0.2-0.7,0.4-0.8,0.5c0,0.4,0,9.7,0,10.3c0.7,0,8.1,0,8.1,0
				c0.1,0,0.2,0,0.3,0.1c0,0,0.6,0.6,1.4,0.7l0.4,0c0.8-0.1,1.3-0.7,1.3-0.7c0.1-0.1,0.2-0.1,0.3-0.1c0,0,7.4,0,8.1,0
				c0-0.7,0-10,0-10.3c-0.1-0.1-0.5-0.3-0.8-0.5v10.2c0,0.2-0.2,0.4-0.4,0.4h-1.8c-0.6,0-1.2-0.3-1.9-0.5c-0.7-0.3-1.5-0.6-2.3-0.6
				c-1.2,0-2.1,1-2.1,1C24,95.6,23.9,95.7,23.8,95.7z"/>
			<path class="st1" d="M34.8,85.8c-0.2,0-0.5,0-0.7,0v10.6c0,0.2-0.2,0.4-0.4,0.4c0,0-8.1,0-8.3,0c-0.2,0.2-0.8,0.7-1.6,0.8
				c0,0-0.5,0-0.5,0c-0.9-0.1-1.5-0.6-1.7-0.8c-0.3,0-8.3,0-8.3,0c-0.2,0-0.4-0.2-0.4-0.4V85.8c-0.2,0-0.5,0-0.7,0
				c0,0.7,0,11.1,0,11.7c0.7,0,9.4,0,9.4,0c0.1,0,0.2,0,0.3,0.1c0,0,0.4,0.5,1.2,0.6c0.3,0,0.8,0,1.1,0c0.8-0.1,1.2-0.6,1.2-0.6
				c0.1-0.1,0.2-0.1,0.3-0.1c0,0,8.7,0,9.4,0C34.8,96.9,34.8,86.5,34.8,85.8z"/>
			<path class="st1" d="M30.4,84.8c-0.6,0-1-0.3-1.5-0.6c-0.6-0.4-1.3-0.9-2.5-0.9c-2.2,0-2.6,1.2-2.6,1.2c0,0,0,9.4,0,10.3
				c0.4-0.4,1.3-1,2.4-1c1,0,1.8,0.4,2.6,0.7c0.6,0.3,1.1,0.5,1.6,0.5c0,0,1,0,1.5,0c0-0.7,0-9.5,0-10.1
				C31.4,84.8,30.4,84.8,30.4,84.8z M30.2,93.1c-0.2,0-0.8-0.1-1.6-0.4L28,92.4l-1.1-0.5c-0.6-0.2-1.3-0.1-1.6,0
				c-0.1,0-0.2,0-0.2-0.1c0-0.1,0-0.2,0.1-0.2c0,0,0.9-0.2,1.7,0l1.2,0.5l0.6,0.3c0.7,0.3,1.3,0.4,1.5,0.4c0.1,0,0.2,0.1,0.2,0.2
				C30.4,93,30.3,93.1,30.2,93.1z M30.2,90.9c-0.2,0-0.8-0.1-1.6-0.4L28,90.2l-1.1-0.5c-0.6-0.2-1.3-0.1-1.6,0c-0.1,0-0.2,0-0.2-0.1
				c0-0.1,0-0.2,0.1-0.2c0,0,0.9-0.2,1.7,0l1.2,0.5l0.6,0.3c0.7,0.3,1.3,0.4,1.5,0.4c0.1,0,0.2,0.1,0.2,0.2
				C30.4,90.9,30.3,90.9,30.2,90.9z M30.2,88.8c-0.2,0-0.8-0.1-1.6-0.4L28,88.1l-1.1-0.4c-0.7-0.2-1.4-0.1-1.6,0
				c-0.1,0-0.2,0-0.2-0.1c0-0.1,0-0.2,0.1-0.2c0,0,0.8-0.2,1.7,0l1.2,0.5l0.6,0.3c0.7,0.3,1.3,0.4,1.5,0.4c0.1,0,0.2,0.1,0.2,0.2
				C30.4,88.7,30.3,88.8,30.2,88.8z M30.2,86.6c-0.2,0-0.8-0.1-1.6-0.4L28,86l-1.1-0.5c-0.7-0.2-1.3-0.1-1.6,0
				c-0.1,0-0.2-0.1-0.2-0.1c0-0.1,0-0.1,0.1-0.2c0,0,0.8-0.2,1.7,0l1.2,0.5l0.6,0.3c0.8,0.3,1.3,0.4,1.5,0.4c0.1,0,0.2,0.1,0.2,0.2
				C30.4,86.6,30.3,86.7,30.2,86.6z"/>
			<path class="st1" d="M52.6,95.7l0.4,0c0.1,0,0.2,0,0.3-0.1c0,0,0.9-1,2.1-1c0.9,0,1.6,0.3,2.3,0.6c0.6,0.3,1.3,0.5,1.9,0.5h1.8
				c0.2,0,0.4-0.2,0.4-0.4V85.1c0.3,0.2,0.7,0.4,0.8,0.5c0,0.4,0,9.7,0,10.3c-0.7,0-8.1,0-8.1,0c-0.1,0-0.2,0-0.3,0.1
				c0,0-0.6,0.6-1.3,0.7l-0.4,0c-0.8-0.1-1.4-0.7-1.4-0.7C51,96,50.9,96,50.8,96c0,0-7.5,0-8.1,0c0-0.7,0-10,0-10.3
				c0.1-0.1,0.5-0.3,0.8-0.5v10.2c0,0.2,0.2,0.4,0.4,0.4h1.8c0.6,0,1.2-0.3,1.9-0.5c0.7-0.3,1.5-0.6,2.3-0.6c1.2,0,2.1,1,2.1,1
				c0.1,0.1,0.2,0.1,0.3,0.1L52.6,95.7C52.6,95.7,52.6,95.7,52.6,95.7C52.6,95.7,52.6,95.7,52.6,95.7z"/>
			<path class="st1" d="M63.2,96.4c0,0.2-0.2,0.4-0.4,0.4c0,0-8.1,0-8.3,0c-0.2,0.2-0.8,0.7-1.7,0.8c0,0-0.5,0-0.5,0
				c-0.9-0.1-1.5-0.6-1.7-0.8c-0.3,0-8.3,0-8.3,0c-0.2,0-0.4-0.2-0.4-0.4V85.8c-0.2,0-0.5,0-0.7,0c0,0.7,0,11.1,0,11.7
				c0.7,0,9.4,0,9.4,0c0.1,0,0.2,0,0.3,0.1c0,0,0.4,0.5,1.2,0.6c0.3,0,0.8,0,1.1,0c0.8-0.1,1.2-0.6,1.2-0.6c0.1-0.1,0.2-0.1,0.3-0.1
				c0,0,8.7,0,9.4,0c0-0.7,0-11.1,0-11.7c-0.2,0-0.5,0-0.7,0L63.2,96.4L63.2,96.4z"/>
			<path class="st1" d="M52.9,95.7l-0.4,0c0,0,0,0,0,0s0,0,0,0l-0.4,0c-0.1,0-0.2,0-0.3-0.1c0,0-0.9-1-2.1-1c-0.8,0-1.6,0.3-2.3,0.6
				c-0.6,0.3-1.3,0.5-1.9,0.5h-1.8c-0.2,0-0.4-0.2-0.4-0.4V85.1c-0.3,0.2-0.7,0.4-0.8,0.5c0,0.4,0,9.7,0,10.3c0.7,0,8.1,0,8.1,0
				c0.1,0,0.2,0,0.3,0.1c0,0,0.6,0.6,1.4,0.7l0.4,0c0.8-0.1,1.3-0.7,1.3-0.7c0.1-0.1,0.2-0.1,0.3-0.1c0,0,7.5,0,8.1,0
				c0-0.7,0-10,0-10.3c-0.1-0.1-0.5-0.3-0.8-0.5v10.2c0,0.2-0.2,0.4-0.4,0.4h-1.8c-0.6,0-1.2-0.3-1.9-0.5c-0.7-0.3-1.5-0.6-2.3-0.6
				c-1.2,0-2.1,1-2.1,1C53.1,95.6,53,95.7,52.9,95.7z"/>
			<path class="st1" d="M64,85.8c-0.2,0-0.5,0-0.7,0v10.6c0,0.2-0.2,0.4-0.4,0.4c0,0-8.1,0-8.3,0c-0.2,0.2-0.8,0.7-1.7,0.8
				c0,0-0.5,0-0.5,0c-0.9-0.1-1.5-0.6-1.7-0.8c-0.3,0-8.3,0-8.3,0c-0.2,0-0.4-0.2-0.4-0.4V85.8c-0.2,0-0.5,0-0.7,0
				c0,0.7,0,11.1,0,11.7c0.7,0,9.4,0,9.4,0c0.1,0,0.2,0,0.3,0.1c0,0,0.4,0.5,1.2,0.6c0.3,0,0.8,0,1.1,0c0.8-0.1,1.2-0.6,1.2-0.6
				c0.1-0.1,0.2-0.1,0.3-0.1c0,0,8.7,0,9.4,0C64,96.9,64,86.5,64,85.8z"/>
			<path class="st1" d="M49.6,83.3c-1.3,0-1.9,0.5-2.5,0.9c-0.5,0.3-0.9,0.6-1.5,0.6c0,0-1,0-1.4,0c0,0.7,0,9.5,0,10.1
				c0.5,0,1.5,0,1.5,0c0.5,0,1-0.2,1.6-0.5c0.7-0.3,1.6-0.7,2.6-0.7c1.1,0,1.9,0.6,2.4,1c0-0.9,0-10.2,0-10.2
				C52.2,84.5,51.8,83.3,49.6,83.3z M45.8,86.3c0.2,0,0.8,0,1.5-0.4l0.6-0.3l1.2-0.5c0.9-0.2,1.7-0.1,1.7-0.1c0.1,0,0.1,0.1,0.1,0.2
				c0,0.1-0.1,0.1-0.2,0.1c-0.2,0-0.9-0.1-1.6,0L48,86l-0.6,0.3c-0.8,0.4-1.4,0.4-1.6,0.4c-0.1,0-0.2-0.1-0.2-0.2
				C45.6,86.4,45.7,86.3,45.8,86.3z M45.8,88.5c0.2,0,0.8-0.1,1.5-0.4l0.6-0.3l1.2-0.5c0.9-0.2,1.7-0.1,1.7-0.1
				c0.1,0,0.1,0.1,0.1,0.2c0,0.1-0.1,0.1-0.2,0.1c-0.2,0-0.9-0.1-1.6,0L48,88.1l-0.6,0.3c-0.8,0.4-1.4,0.4-1.6,0.4
				c-0.1,0-0.2-0.1-0.2-0.2C45.6,88.5,45.7,88.5,45.8,88.5z M50.7,91.9c-0.2,0-0.9-0.1-1.6,0L48,92.4l-0.6,0.3
				c-0.8,0.4-1.4,0.4-1.6,0.4c-0.1,0-0.2-0.1-0.2-0.2c0-0.1,0.1-0.2,0.2-0.2c0.2,0,0.8,0,1.5-0.4l0.6-0.3l1.2-0.5
				c0.9-0.2,1.7-0.1,1.7,0c0,0,0.1,0,0.1,0.2C50.8,91.9,50.7,91.9,50.7,91.9z M50.7,89.7c-0.2,0-0.9-0.1-1.6,0L48,90.2l-0.6,0.3
				c-0.8,0.4-1.4,0.4-1.6,0.4c-0.1,0-0.2-0.1-0.2-0.2c0-0.1,0.1-0.2,0.2-0.2c0.2,0,0.8-0.1,1.5-0.4l0.6-0.3l1.2-0.5
				c0.9-0.2,1.7-0.1,1.7,0c0.1,0,0.1,0.1,0.1,0.2C50.8,89.7,50.8,89.8,50.7,89.7z"/>
			<path class="st1" d="M55.3,93.8c-1.1,0-1.9,0.6-2.4,1c0-0.9,0-10.3,0-10.3c0,0,0.4-1.2,2.6-1.2c1.3,0,1.9,0.5,2.5,0.9
				c0.5,0.3,0.9,0.6,1.5,0.6c0,0,1,0,1.4,0c0,0.7,0,9.5,0,10.1c-0.5,0-1.5,0-1.5,0c-0.5,0-1-0.2-1.6-0.5
				C57.1,94.2,56.3,93.8,55.3,93.8z M54.4,87.3c-0.1,0-0.1,0.1-0.1,0.2c0,0.1,0.1,0.1,0.2,0.1c0.2,0,0.9-0.1,1.6,0l1.1,0.5l0.6,0.3
				c0.8,0.4,1.4,0.4,1.6,0.4c0.1,0,0.2-0.1,0.2-0.2c0-0.1-0.1-0.2-0.2-0.2c-0.2,0-0.8,0-1.5-0.4l-0.6-0.3l-1.2-0.5
				C55.2,87.1,54.4,87.3,54.4,87.3z M54.4,85.1c-0.1,0-0.1,0.1-0.1,0.2c0,0.1,0.1,0.1,0.2,0.1c0.2,0,0.9-0.1,1.6,0l1.1,0.4l0.6,0.3
				c0.8,0.4,1.4,0.4,1.6,0.4c0.1,0,0.2-0.1,0.2-0.2c0-0.1-0.1-0.2-0.2-0.2c-0.2,0-0.8-0.1-1.5-0.4l-0.6-0.3l-1.2-0.5
				C55.2,84.9,54.4,85.1,54.4,85.1z M54.4,89.4c-0.1,0-0.1,0.1-0.1,0.2c0,0.1,0.1,0.1,0.2,0.1c0.2,0,0.9-0.1,1.6,0l1.1,0.5l0.6,0.3
				c0.8,0.4,1.4,0.4,1.6,0.4c0.1,0,0.2-0.1,0.2-0.2c0-0.1-0.1-0.2-0.2-0.2c-0.2,0-0.8-0.1-1.5-0.4L57.2,90l-1.2-0.5
				C55.4,89.3,54.7,89.4,54.4,89.4z M54.4,91.6c-0.1,0-0.1,0.1-0.1,0.2c0,0.1,0.1,0.1,0.2,0.1c0.2,0,0.9-0.1,1.6,0l1.1,0.4l0.6,0.3
				c0.8,0.4,1.4,0.4,1.6,0.4c0.1,0,0.2-0.1,0.2-0.2c0-0.1-0.1-0.2-0.2-0.2c-0.2,0-0.8,0-1.5-0.4l-0.6-0.3l-1.2-0.5
				C55.4,91.4,54.7,91.5,54.4,91.6z"/>
			<g>
				<path class="st1" d="M30.7,115.5c-0.1-0.1-0.3-0.3-0.5-0.5c-0.1,0.2-0.3,0.3-0.6,0.4l-0.6,0.1c-0.7,0.1-1.6,0.3-1.9,1
					c-0.1,0.3-0.2,0.6-0.2,0.8c0,0.4,0.1,0.6,0.2,0.8c0.1,0,0.2-0.1,0.3-0.1c-0.2-0.8,0.2-1.5,0.3-1.4c0.1,0,0,0.5,0.1,0.8
					c0,0.1,0.1,0.2,0.1,0.3c0.1-0.1,0.3-0.2,0.3-0.3c0.1-0.6,0.5-1,0.9-1l0.4,0.1c0.4,0.2,1.3,0.6,1.7,0.2
					C31.1,116.5,30.9,115.8,30.7,115.5z"/>
			</g>
			<g>
				<path class="st1" d="M41.2,119.1c-0.1,0-0.2-0.1-0.2-0.1c0,0,0,0,0,0c-0.5,0-2.6-0.4-2.9-0.4c0,0-0.3-0.1-1,0.2
					c-0.6,0.2-1,0.7-1.2,1.1c0.1,0.1,0.2,0.1,0.3,0.2c0.2-0.3,0.5-0.6,1-0.8c0.4-0.2,1-0.2,1.3-0.1c0.2,0.1-0.5,0.3-1.1,0.7
					c-0.2,0.2-0.4,0.4-0.5,0.6c0,0,0,0,0,0c0.1,0,0.5-0.1,0.8-0.1c0,0,0.8-0.2,0.8-0.2c0.4,0,4.1,0,5.2,0c0.1-0.1,0.1-0.3,0.1-0.4
					C43.1,119.7,42.1,119.5,41.2,119.1z"/>
			</g>
			<path class="st2" d="M42.5,125.6c0.1,0.3-1,0.4-1.6,0.4c-0.9,0-1.8-0.1-1.7-0.4c0.1-0.3,0.9-0.2,1.7-0.2
				C41.4,125.3,42.4,125.3,42.5,125.6L42.5,125.6z M40.9,127.2c-0.1-0.3-1-0.2-1.5-0.3c-0.8,0-1.6-0.1-1.6,0.2
				c-0.1,0.3,0.8,0.4,1.6,0.4C39.9,127.6,40.9,127.5,40.9,127.2L40.9,127.2z M39.1,128.9c0-0.2-0.7-0.2-1.1-0.2
				c-0.6,0-1.2-0.1-1.2,0.2c0,0.3,0.6,0.3,1.2,0.4C38.4,129.2,39.1,129.1,39.1,128.9L39.1,128.9z M24.6,108.7l-0.2,0.1
				c-0.2,0.1-0.3,0.3-0.2,0.5s0.3,0.3,0.5,0.2l0.2-0.1c0.2-0.1,0.3-0.3,0.2-0.5C25,108.7,24.8,108.6,24.6,108.7z M35.8,105.6
				c-0.1-0.1-0.2-0.1-0.3-0.1l-2,0.7c-0.2,0.1-0.2,0.3-0.1,0.5c0.1,0.2,0.3,0.3,0.5,0.2l1.9-1C35.8,105.9,35.8,105.7,35.8,105.6
				L35.8,105.6z M36.1,107.4c0-0.1-0.2-0.2-0.3-0.1l-1.5,0.2c-0.2,0-0.3,0.3-0.2,0.5c0,0.2,0.3,0.4,0.5,0.3l1.5-0.6
				C36.1,107.6,36.1,107.5,36.1,107.4L36.1,107.4z M36.1,109.2c0-0.1-0.2-0.2-0.3-0.2l-1.2-0.1c-0.2,0-0.3,0.2-0.3,0.4
				c0,0.2,0.2,0.4,0.4,0.4l1.2-0.3C36.1,109.5,36.1,109.4,36.1,109.2L36.1,109.2z M35.8,111c0-0.1-0.1-0.2-0.2-0.2l-0.9-0.2
				c-0.2,0-0.3,0.2-0.3,0.3s0.1,0.4,0.3,0.4l1-0.1C35.7,111.2,35.8,111.1,35.8,111L35.8,111z M43.5,104.8c0,0.2,0.1,0.4,0.3,0.4
				c0,0,1.1,0.3,1.9,0.7c0.2,0.1,0.3,0,0.4-0.1c0.1-0.1,0-0.3-0.1-0.4c-0.9-0.5-1.9-0.8-2-0.8C43.7,104.5,43.5,104.6,43.5,104.8
				L43.5,104.8z M43.9,106.5c0,0.2,0.1,0.4,0.2,0.4c0,0,0.8,0.2,1.4,0.5c0.1,0.1,0.3,0,0.4-0.1c0.1-0.1,0-0.3-0.1-0.4
				c-0.8-0.4-1.5-0.6-1.5-0.6C44.1,106.2,43.9,106.3,43.9,106.5L43.9,106.5z M44.1,108c0,0.1,0.1,0.3,0.2,0.3c0,0,0.7,0.2,1,0.3
				c0.1,0.1,0.3,0,0.3-0.1c0.1-0.1,0-0.3-0.1-0.3c-0.7-0.4-0.9-0.4-1.1-0.4C44.2,107.8,44.1,107.8,44.1,108L44.1,108z M44,109.4
				c0,0.1,0,0.3,0.2,0.3c0,0,0.4,0.1,0.6,0.2c0.1,0,0.2,0,0.3-0.1c0.1-0.1,0-0.2-0.1-0.3c-0.2-0.1-0.6-0.2-0.7-0.2
				C44.2,109.2,44,109.2,44,109.4L44,109.4z M47.4,107.4c-0.1,0.2,0,0.4,0.1,0.5c0,0,0.4,0.2,1.1,0.8c0.1,0.1,0.3,0.1,0.4,0
				s0.1-0.3,0-0.4c-0.7-0.7-1.1-0.9-1.1-1C47.8,107.2,47.5,107.2,47.4,107.4L47.4,107.4z M47.2,109.1c-0.1,0.2,0,0.4,0.1,0.4
				c0,0,0.2,0.1,0.8,0.5c0.1,0.1,0.3,0.1,0.4,0s0.1-0.3,0-0.4c-0.7-0.6-0.8-0.7-0.8-0.7C47.5,108.9,47.3,108.9,47.2,109.1
				L47.2,109.1z M46.8,110.4c-0.1,0.1,0,0.3,0.1,0.4c0,0,0.3,0.2,0.5,0.3c0.1,0.1,0.2,0.1,0.3,0c0.1-0.1,0.1-0.2,0-0.3
				c-0.1-0.1-0.4-0.4-0.5-0.4C47,110.2,46.9,110.3,46.8,110.4L46.8,110.4z M46.3,111.5c-0.1,0.1-0.1,0.3,0.1,0.3c0,0,0.1,0,0.3,0.2
				c0.1,0.1,0.2,0.1,0.3,0c0.1-0.1,0.1-0.2,0-0.3c-0.2-0.2-0.2-0.2-0.3-0.3S46.4,111.4,46.3,111.5L46.3,111.5z M49.7,111
				c-0.1,0.1-0.1,0.3,0,0.4c0,0,0.1,0.1,0.3,0.3c0.1,0.1,0.2,0.2,0.3,0.1s0.1-0.2,0.1-0.3c-0.1-0.1-0.2-0.4-0.3-0.5
				C50,110.9,49.8,110.9,49.7,111L49.7,111z M49,112c-0.1,0.1-0.1,0.2,0,0.3s0.1,0.1,0.2,0.2c0.1,0.1,0.2,0.1,0.3,0.1
				s0.1-0.2,0.1-0.3c0-0.1-0.1-0.2-0.2-0.3C49.2,111.9,49.1,111.9,49,112L49,112z M25.1,111.8c0.3-0.1-0.4-0.8-0.2-1.2
				c0.2-0.5,1.7-1.1,1.7-1.4c0-0.3-2.1,0.4-2.4,1C23.9,111,24.8,111.9,25.1,111.8L25.1,111.8z M27.3,107.8c0.3,0.1,0.4-0.2,0.5-0.2
				c0,0,0.1-0.1,0.3,0c0.2,0.1,0.2,0.2,0.2,0.2c0,0.1,0,0.3,0.2,0.4c0.2,0,0.7-0.8-0.1-1.2c-0.3-0.1-0.5-0.1-0.8-0.1
				C27.2,107.1,27,107.7,27.3,107.8L27.3,107.8z M49.5,107.2c-5.4-6.6-13-3.4-13.3-3.2c-1.5,0.3-2.8,1-3.6,1.4l-0.9,0.4
				c0,0-2.8,0.3-2.8,0.3c-0.8,0.2-1.9,0.8-3.4,1.6l-1.1,0.6c-1.7,0.9-2,1.7-2,1.7c0,0.1-0.1,0.2-0.2,0.2c-0.2,0.1-0.4,0.2-0.4,0.4
				c0,0,0,0,0,0.1s0,0.1,0,0.1l0.4-0.2c0.2-0.1,0.4,0,0.5,0.1c0.1,0.2,0,0.4-0.1,0.5l-0.4,0.2c0.3,0.5,0.7,0.6,0.7,0.6
				c0,0,0.2,0,0.2,0c0.3-0.1,1.3-0.4,1.7,0.7l0,0.6c-0.1,0.2-0.3,0.4-0.5,0.5c0.3,0.1,0.9,0.1,1.1,0c0,0,0.2,0,0.2,0l0.4-0.1
				c1-0.2,2.1-0.4,2.7-0.2c0.9,0.2,2.3,1.1,2.7,1.6c0.3,0.4,0.8,2.1,0.7,2.4c0,0.2-0.1,0.9-0.9,1.4c-0.5,0.2-1,0.2-1.4,0.2
				c0,0-0.4,0-0.4,0c-0.1,0.1-0.4,0.5-0.6,0.8c0.1,0,0.3,0,0.4,0c0.3-0.3,0.6-0.6,0.7-0.5c0.1,0.1,0,0.3-0.1,0.5c0.4,0,0.8,0,0.8,0
				l0.3,0c0.5,0,1.3,0,1.6-0.2l0.4-0.3l1.2-1l1.3-1l0.5-0.4c0.2-0.2,0.3-1.8,0.1-3.5c0-0.2,0.1-0.4,0.3-0.4c0.2,0,0.4,0.1,0.4,0.3
				c0.1,0.7,0.2,2,0.1,3c0,0,0.1,0,0.1,0c1,0.7,2.1,1.1,3,1.3c-0.3-0.4-0.6-0.9-0.8-1.5c-0.2-0.4-0.2-0.8-0.2-1.2
				c0-1.3,0.8-2.2,1.4-3.1c0.5-0.6,1-1.2,1-1.8c0-0.1,0-0.1,0-0.2c0,0,0,0,0-0.1c0-0.2,0.1-0.3,0.3-0.4c0.2,0,0.4,0.1,0.4,0.3
				c0.1,0.9-0.5,1.7-1.1,2.5c-0.8,1-1.6,2-1.1,3.6c0.3,1,0.9,1.7,1.5,2.1c0,0,0.1,0,0.1,0.1c0.1,0,0.1,0.1,0.2,0.1
				c1.2,0.6,2.6,0.6,2.6,0.6c0.1,0,0.2,0.1,0.3,0.1c0.1,0.1,0.1,0.2,0.1,0.3c0,0-0.1,0.6-0.4,1.1c0,0.1-0.1,0.1-0.1,0.2
				c-0.1,0.1-0.2,0.2-0.3,0.3l-1.3,0.9c-1,0.7-2.6,1.7-4.3,3.1c-2,1.7-3.2,4.1-2.9,5.1c0.1,0.2,0.2,0.4,0.6,0.5
				c3.4,0.4,5.5-1.8,7.2-3.7l0.5-0.5c1.2-1.3,2.1-2.8,2.7-3.9c0.4-0.7,0.6-1,0.8-1.2c1.4-1,3.7-4,4.2-7.5
				C51.6,111.3,51,109.1,49.5,107.2z"/>
			<path class="st1" d="M58.5,121c0.6,0.1,1.3,0,2-0.3c0.6-0.2,1-0.7,1.4-1.1c0.5,0.7,1.6,2.3,2,2.9c-0.7,0.9-1.5,1.8-2.5,2.6
				L58.5,121z"/>
			<path class="st1" d="M14.3,119.6c0.3,0.5,0.8,0.9,1.4,1.1c0.6,0.3,1.3,0.3,2,0.3l-2.9,4.2c-0.9-0.8-1.8-1.7-2.5-2.6
				C12.7,121.9,13.9,120.3,14.3,119.6z"/>
			<path class="st1" d="M23.8,144.2c0.2-0.2,0.3-0.4,0.6-0.5l0.5-0.4c0.7-0.6,1.6-1.3,2.2-1.9c1.5,0.6,2.7,1.3,3.5,2.2
				c0.6,0.7,0.7,1.6,0.2,2.1c-0.1,0.1-0.3,0.3-0.4,0.4l-1,1h-0.6c-2.9,0-4.9-1-5.3-2C23.5,144.8,23.6,144.5,23.8,144.2z"/>
			<path class="st1" d="M51.3,143.3l0.5,0.4c0.2,0.2,0.4,0.4,0.6,0.5c0.1,0.2,0.2,0.6,0.1,0.9c-0.4,1-2.4,2-5.3,2c0,0,0,0,0,0
				c0,0,0,0,0,0h-0.6l-0.9-1.1c-0.1-0.1-0.3-0.3-0.4-0.4c-0.3-0.3-0.4-1.4,0.2-2.1c0.8-0.9,2-1.6,3.5-2.2
				C49.7,141.9,50.6,142.7,51.3,143.3z"/>
			<path class="st1" d="M15.3,113.6L15.3,113.6L15.3,113.6z"/>
			<path class="st1" d="M24.9,139.4l-0.3-0.1c-6.7-2.6-12.2-6.2-14.8-9.4c-2.9-3.6-2.4-6.5-1.6-8.3l0.9-1.9l0.9-1.8
				c-0.1,0.9,0.1,2,0.6,3.3c1.4,3.3,6,6.8,9.5,8.8c1.5,0.9,3,1.6,4.5,2.2c4,1.8,7.2,3.3,7.2,6.9v4.3c0,0.2,0,0.3,0,0.5
				c-0.1-0.3-0.3-0.6-0.5-0.8C29.9,141.4,27.6,140.5,24.9,139.4z M18.3,130.5c0.1-0.1,0.1-0.3,0.2-0.4c-0.5-0.3-1-0.6-1.5-1
				c-0.1,0.1-0.2,0.3-0.2,0.4c0.1,0.1,0.2,0.2,0.4,0.3c-0.5,1.1-1,2.1-1.5,3.2c-0.1-0.1-0.2-0.1-0.4-0.2c-0.1,0.1-0.1,0.3-0.2,0.4
				c0.8,0.6,1.6,1.1,2.5,1.5c0.2-0.3,0.5-0.6,0.7-0.9c0,0,0,0,0-0.1c-0.1-0.1-0.2-0.2-0.4-0.3c-0.2,0.2-0.4,0.5-0.6,0.6
				c-0.3-0.1-0.7-0.4-1-0.6c0-0.3,1.1-2.4,1.5-3.2C17.9,130.3,18.2,130.5,18.3,130.5L18.3,130.5z M14.4,130.8
				c0.2-0.4,0.4-0.7,0.6-1.1c-0.1-0.1-0.2-0.2-0.3-0.3c-0.1,0.1-0.1,0.2-0.2,0.3c-0.1,0-0.6-0.4-0.7-0.5c0.2-0.4,0.5-0.9,0.7-1.4
				c0.2,0.2,0.7,0.5,0.8,0.7c0.1,0.2-0.1,0.5-0.2,0.7c0,0.1,0.3,0.2,0.4,0.3c0.2-0.4,0.4-0.7,0.5-1.1c-0.8-0.6-1.5-1.2-2.2-1.8
				c-0.1,0.1-0.1,0.3-0.2,0.4c0.1,0.1,0.2,0.2,0.3,0.3c-0.6,1.1-1,2-1.6,3.1c-0.1-0.1-0.2-0.2-0.3-0.2c-0.1,0.1-0.1,0.2-0.2,0.4
				c0.7,0.7,1.4,1.3,2.2,1.9c0.2-0.3,0.4-0.6,0.7-1c0,0,0,0,0,0c-0.1-0.1-0.2-0.2-0.3-0.4c-0.1,0.1-0.4,0.6-0.5,0.6
				c-0.2,0-0.8-0.6-0.9-0.7c0-0.2,0.5-1.1,0.7-1.3c0.2,0.2,0.5,0.4,0.6,0.6c0,0.1-0.1,0.3-0.1,0.4C14.2,130.7,14.3,130.7,14.4,130.8
				L14.4,130.8z M27.6,134.8c-1.1-0.6-2.2-1.1-3.4-1.6c-0.2,0.4-0.4,0.7-0.6,1.1c0.2,0.1,0.3,0.2,0.5,0.3c0.1-0.2,0.3-0.4,0.4-0.6
				c0.2,0,0.6,0.2,0.8,0.3c-0.5,1.1-1,2.2-1.5,3.3c-0.2-0.1-0.3-0.1-0.5-0.2c-0.1,0.1-0.1,0.3-0.2,0.4c0.6,0.3,1.2,0.5,1.8,0.8
				c0.1-0.1,0.1-0.3,0.2-0.4c-0.2-0.1-0.3-0.2-0.5-0.2c0.5-1.1,1-2.2,1.5-3.3c0.3,0.1,0.6,0.3,0.7,0.5c-0.1,0.2-0.2,0.4-0.2,0.7
				c0,0.1,0.4,0.2,0.5,0.2C27.2,135.5,27.4,135.1,27.6,134.8L27.6,134.8z M23.7,132.9c-0.5-0.2-0.9-0.5-1.4-0.7
				c-0.1,0.1-0.1,0.2-0.2,0.4c0.2,0.1,0.3,0.2,0.5,0.3c-0.5,1.1-1.3,3.5-2.4,2.8c-0.8-0.5-0.5-1.1-0.1-2.1c0.2-0.5,0.5-1.1,0.8-1.6
				c0.2,0.1,0.3,0.2,0.5,0.2c0.1-0.1,0.1-0.3,0.2-0.4c-0.5-0.3-1-0.6-1.6-0.8c-0.1,0.1-0.1,0.3-0.2,0.4c0.1,0.1,0.2,0.1,0.3,0.2
				c0,0.2-0.4,0.8-0.5,1.1c-0.5,1.1-1.1,2-0.6,2.7c0.1,0.2,0.3,0.4,0.5,0.5c0.3,0.2,0.7,0.3,1,0.4c1.3,0.1,1.9-1.6,2.6-3.1
				c0.1,0.1,0.2,0.1,0.4,0.2C23.6,133.2,23.6,133,23.7,132.9L23.7,132.9z M12.9,126.5c0.1,0.1,0.2,0.2,0.3,0.2
				c0.1-0.1,0.1-0.3,0.2-0.4c-0.4-0.4-0.7-0.7-1.1-1.1c-0.1,0.1-0.1,0.3-0.2,0.4c0.1,0.1,0.3,0.3,0.4,0.4c-0.4,0.4-1.7,1.9-1.8,2
				c0,0,0,0,0,0c-0.1-0.1,0.5-3.2,0.6-3.4c0.1,0.1,0.2,0.3,0.4,0.4c0.1-0.1,0.2-0.3,0.2-0.4c-0.4-0.5-0.8-1-1.1-1.5
				c-0.1,0.1-0.2,0.2-0.3,0.4c0.1,0.1,0.1,0.2,0.2,0.4c-0.1,0.4-0.7,4.2-0.7,4.6c0.1,0.2,0.3,0.3,0.4,0.5
				C11,128.5,12.6,126.8,12.9,126.5L12.9,126.5z"/>
			<path class="st1" d="M66.4,129.9c-2.6,3.3-8.1,6.8-14.8,9.4l-0.3,0.1c-2.7,1.1-5,2-6.4,3.5c-0.2,0.2-0.4,0.5-0.5,0.8
				c0-0.1,0-0.3,0-0.5V139c0-3.6,3.2-5.1,7.2-6.9c1.5-0.7,3-1.4,4.5-2.2c3.5-2,8.1-5.5,9.5-8.8c0.5-1.3,0.7-2.4,0.6-3.3l0.9,1.8
				l0.9,1.9C68.9,123.3,69.3,126.2,66.4,129.9z M52.6,135.2C52.6,135.2,52.6,135.2,52.6,135.2c0-0.7,0.1-1.3,0.2-1.9c0,0,0,0,0,0
				c0.3,0.5,0.5,1,0.7,1.5C53.3,134.9,52.9,135.1,52.6,135.2L52.6,135.2z M56.1,134.7c0,0.2,0.2,0.5,0.1,0.7
				c-0.1,0.1-1.1,0.7-1.2,0.7c-0.2-0.4-0.4-0.9-0.6-1.3c0.2-0.1,0.9-0.5,1-0.5c0.1,0.1,0.1,0.2,0.2,0.3c0.1-0.1,0.3-0.1,0.4-0.2
				c-0.2-0.4-0.4-0.8-0.5-1.2c-0.1,0.1-0.3,0.1-0.4,0.2c0,0.1,0.1,0.3,0.1,0.4c-0.1,0.2-0.8,0.5-1,0.6c-0.3-0.5-0.5-1-0.7-1.5
				c0.3-0.2,0.9-0.5,1.2-0.6c0.1,0.1,0.3,0.4,0.4,0.5c0.1-0.1,0.3-0.2,0.4-0.2c0-0.1-0.4-0.8-0.5-1c-0.8,0.4-1.8,1-2.7,1.3
				c-0.1,1.5-0.3,3.1-0.4,4.5c-0.1,0.1-0.2,0.2-0.4,0.2c0.1,0.1,0.1,0.3,0.2,0.4c0.5-0.2,0.9-0.4,1.4-0.6c-0.1-0.1-0.1-0.3-0.2-0.4
				c-0.2,0.1-0.3,0.1-0.5,0.2c0-0.5,0-1.1,0-1.6c0.4-0.2,0.8-0.4,1.1-0.5c0.2,0.4,0.4,0.9,0.6,1.3c-0.1,0.1-0.3,0.1-0.4,0.2
				c0.1,0.1,0.1,0.3,0.2,0.4c0.9-0.4,2-1,2.8-1.4c-0.1-0.4-0.2-0.7-0.3-1.1C56.4,134.6,56.3,134.7,56.1,134.7L56.1,134.7z
				 M59.4,129.5c0.1-0.1,0.2-0.2,0.3-0.2c-0.1-0.1-0.1-0.3-0.2-0.4c-0.4,0.3-0.9,0.6-1.3,0.9c0.1,0.1,0.1,0.3,0.2,0.4
				c0.1-0.1,0.3-0.2,0.4-0.3c0.1,0.6,0.3,2.5,0.3,2.9c0,0.2,0,0.3,0.1,0.5c0,0,0,0,0,0c-0.1,0-0.4-0.4-0.5-0.5l-1.1-1.2
				c-0.2-0.2-0.3-0.4-0.5-0.6c0.2-0.1,0.3-0.2,0.5-0.3c-0.1-0.1-0.1-0.3-0.2-0.4c-0.6,0.3-1.1,0.6-1.7,0.9c0.1,0.1,0.1,0.3,0.2,0.4
				c0.1-0.1,0.2-0.1,0.4-0.2c0.2,0.2,0.5,0.5,0.7,0.7c0.5,0.5,1,1.1,1.5,1.6c0.2,0.2,0.4,0.4,0.7,0.7c0.2-0.1,0.4-0.2,0.6-0.3
				c-0.1-1.1-0.1-2.1-0.2-3.2C59.5,130.5,59.4,130,59.4,129.5L59.4,129.5z M63.4,131c-0.9,0.8-1.9-0.4-2.2-1.5
				c-0.1-0.5-0.1-1.1,0.2-1.5c0.1-0.1,0.2-0.2,0.3-0.3c0.2-0.1,0.4-0.2,0.6-0.2C63.4,127.6,64.5,130.1,63.4,131L63.4,131z
				 M63.8,127.4c-0.6-0.6-1.3-0.7-2.3-0.1c-0.1,0.1-0.3,0.3-0.4,0.4c-0.4,0.4-0.6,1-0.6,1.5c0,0.2,0,0.5,0.1,0.7
				c0.1,0.3,0.2,0.7,0.4,1c0.6,0.9,1.3,1.1,2.3,0.7C64.8,131,65,128.6,63.8,127.4L63.8,127.4z"/>
			<path class="st1" d="M53,146c0,0,0,0.1,0,0.1v6c0,1.8-3.1,2.5-5.8,2.5H29c-2.7,0-5.8-0.6-5.8-2.5v-6c0,0,0-0.1,0-0.1
				c1,1.2,3.2,1.9,5.8,1.9h18.2h0C49.8,147.9,52,147.2,53,146z M47,151.2c0-0.6,0-1.2,0-1.7c0.2,0,0.5,0,0.7,0
				c0.5,0.2,0.7,0.9,0.4,1.4C47.9,151.2,47.5,151.2,47,151.2L47,151.2z M49,152.6c-0.2-0.3-0.5-1-0.8-1.2c0,0,0,0,0,0
				c0.8-0.2,1.3-1.4,0.5-2c-0.6-0.5-1.8-0.4-2.9-0.3c0,0.1,0,0.3,0,0.4v0c0.1,0,0.3,0,0.4,0v3.5c-0.1,0-0.3,0-0.4,0
				c0,0.1,0,0.3,0,0.4v0h1.7c0-0.1,0-0.3,0-0.4c-0.2,0-0.3,0-0.5,0c0-0.4,0-0.9,0-1.3c0.2,0,0.4,0,0.5,0c0.4,0.2,0.7,1.4,1,1.7
				c0.1,0.1,0.9,0,1.1,0l0-0.4c-0.1,0-0.3,0-0.4,0C49.1,152.9,49,152.7,49,152.6L49,152.6z M38.9,152.4c-0.1,0.4-0.4,0.5-0.8,0.6
				c-0.2,0-0.5,0-0.6-0.1c-0.1-0.1,0-0.2,0-0.4c0-0.2,0-1.1,0-1.2C38.2,151.4,39.1,151.6,38.9,152.4L38.9,152.4z M37.5,149.5
				c0.5,0,0.9,0,1.1,0.3c0.1,0.1,0.2,0.3,0.1,0.5c-0.1,0.6-0.5,0.7-1.2,0.7C37.5,150.5,37.5,150,37.5,149.5L37.5,149.5z M38.7,151.1
				L38.7,151.1L38.7,151.1c0.7-0.4,1.1-1.4,0.3-1.9c-0.6-0.3-1.8-0.2-2.7-0.2v0.4c0.2,0,0.3,0,0.5,0v3.5c-0.2,0-0.3,0-0.5,0
				c0,0.1,0,0.3,0,0.4c1,0,2.2,0.1,2.9-0.2c0.5-0.3,0.9-1,0.4-1.6C39.3,151.3,39.1,151.3,38.7,151.1L38.7,151.1z M33,151.2
				c0-0.6,0-1.2,0-1.7c0.2,0,0.5,0,0.7,0c0.5,0.2,0.7,0.9,0.4,1.4C33.8,151.2,33.5,151.2,33,151.2L33,151.2z M35,152.6
				c-0.2-0.3-0.5-1-0.8-1.2c0,0,0,0,0,0c0.8-0.2,1.3-1.4,0.5-2c-0.6-0.5-1.8-0.4-2.9-0.3c0,0.1,0,0.3,0,0.4v0c0.1,0,0.3,0,0.4,0v3.5
				c-0.1,0-0.3,0-0.4,0c0,0.1,0,0.3,0,0.4v0h1.7c0-0.1,0-0.3,0-0.4c-0.2,0-0.3,0-0.5,0c0-0.4,0-0.9,0-1.3c0.2,0,0.4,0,0.5,0
				c0.4,0.2,0.7,1.4,1,1.7c0.1,0.1,0.9,0,1.1,0l0-0.4c-0.1,0-0.3,0-0.4,0C35.1,152.9,35,152.7,35,152.6L35,152.6z M28.2,151.8
				c0.2-0.6,0.4-1.2,0.6-1.8c0,0,0,0,0,0l0.6,1.8H28.2L28.2,151.8z M29.3,149c-0.2,0-0.5,0-0.6,0c-0.5,1.3-1,2.6-1.5,3.9
				c-0.1,0-0.3,0-0.4,0v0.4h1.5V153c-0.2,0-0.3,0-0.5,0c0.1-0.3,0.2-0.5,0.2-0.8c0.5,0,1,0,1.5,0c0.1,0.2,0.2,0.5,0.3,0.8
				c-0.2,0-0.3,0-0.5,0v0.4h1.7V153c-0.1,0-0.3,0-0.4,0C30.2,151.7,29.7,150.3,29.3,149L29.3,149z M42.9,153.1
				c-1.1,0.2-1.6-1.3-1.4-2.4c0.1-0.5,0.3-1,0.8-1.2c0.1,0,0.2-0.1,0.3-0.1c0.3,0,0.5,0,0.7,0.1C44.3,150.2,44.3,152.8,42.9,153.1
				L42.9,153.1z M42.7,149c-0.2,0-0.4,0.1-0.6,0.1c-0.5,0.2-0.9,0.5-1.2,1c-0.1,0.2-0.2,0.4-0.2,0.7c-0.1,0.3-0.1,0.7,0,1
				c0.2,1,0.7,1.6,1.8,1.8c1.8,0.3,2.9-1.7,2.3-3.3C44.4,149.4,43.8,149,42.7,149L42.7,149z"/>
			<path class="st1" d="M69,80.3c0,0,0,0.2,0,0.4s0,0.4,0,0.4H7.2c0,0,0-0.2,0-0.4s0-0.4,0-0.4H69z M69,80.3c0-10.7,0-23.6,0-23.6
				H38.1l0,0h0H7.2c0,0,0,12.8,0,23.6 M33.5,72.1c0.4,0,0.6,0.3,0.6,0.6s-0.3,0.6-0.6,0.6c-0.4,0-0.6-0.3-0.6-0.6
				S33.1,72.1,33.5,72.1L33.5,72.1z M28.9,73.7c0.3-0.2,0.7-0.1,0.9,0.2c0.2,0.3,0.1,0.7-0.2,0.9c-0.3,0.2-0.7,0.1-0.9-0.2
				C28.5,74.2,28.6,73.8,28.9,73.7L28.9,73.7z M31.3,73c0.2,0,0.3,0.2,0.3,0.3c0,0.2-0.2,0.3-0.3,0.3c-0.2,0-0.3-0.1-0.3-0.3
				C31,73.1,31.1,73,31.3,73L31.3,73z M35.8,72.2c0.2,0,0.3,0.2,0.3,0.3s-0.2,0.3-0.3,0.3c-0.2,0-0.3-0.2-0.3-0.3
				S35.6,72.2,35.8,72.2L35.8,72.2z M43.2,72.8c0,0.4-0.3,0.6-0.6,0.6c-0.4,0-0.6-0.3-0.6-0.6s0.3-0.6,0.6-0.6
				C42.9,72.1,43.2,72.4,43.2,72.8L43.2,72.8z M47.5,74.5c-0.2,0.3-0.6,0.4-0.9,0.2c-0.3-0.2-0.4-0.6-0.2-0.9
				c0.2-0.3,0.6-0.4,0.9-0.2C47.5,73.8,47.6,74.2,47.5,74.5L47.5,74.5z M45.1,73.3c0,0.2-0.2,0.3-0.3,0.3c-0.2,0-0.3-0.1-0.3-0.3
				c0-0.2,0.2-0.3,0.3-0.3C45,73,45.1,73.1,45.1,73.3L45.1,73.3z M40.7,72.5c0,0.2-0.2,0.3-0.3,0.3c-0.2,0-0.3-0.2-0.3-0.3
				s0.2-0.3,0.3-0.3C40.5,72.2,40.7,72.4,40.7,72.5L40.7,72.5z M38,64.6c0.4,0,0.7,0.3,0.7,0.7s-0.3,0.7-0.7,0.7s-0.7-0.3-0.7-0.7
				S37.7,64.6,38,64.6L38,64.6z M38,62.7c0.4,0,0.7,0.3,0.7,0.7c0,0.4-0.3,0.7-0.7,0.7s-0.7-0.3-0.7-0.7C37.4,63,37.7,62.7,38,62.7
				L38,62.7z M38,60.9c0.4,0,0.7,0.3,0.7,0.7s-0.3,0.7-0.7,0.7s-0.7-0.3-0.7-0.7S37.7,60.9,38,60.9L38,60.9z M34.9,61.1
				c0.4,0,0.7,0.3,0.7,0.7s-0.3,0.7-0.7,0.7s-0.7-0.3-0.7-0.7S34.5,61.1,34.9,61.1L34.9,61.1z M32.7,60.4c0.4,0,0.7,0.3,0.7,0.7
				c0,0.4-0.3,0.7-0.7,0.7c-0.4,0-0.7-0.3-0.7-0.7C32.1,60.7,32.4,60.4,32.7,60.4L32.7,60.4z M30.5,59.9c0.4,0,0.7,0.3,0.7,0.7
				c0,0.4-0.3,0.7-0.7,0.7c-0.4,0-0.7-0.3-0.7-0.7C29.9,60.2,30.2,59.9,30.5,59.9L30.5,59.9z M28.3,60.2c0.4,0,0.7,0.3,0.7,0.7
				s-0.3,0.7-0.7,0.7s-0.7-0.3-0.7-0.7S27.9,60.2,28.3,60.2L28.3,60.2z M26.3,61.4c0.4,0,0.7,0.3,0.7,0.7c0,0.4-0.3,0.7-0.7,0.7
				c-0.4,0-0.7-0.3-0.7-0.7C25.7,61.7,26,61.4,26.3,61.4L26.3,61.4z M25.2,63.4c0.4,0,0.7,0.3,0.7,0.7s-0.3,0.7-0.7,0.7
				c-0.4,0-0.7-0.3-0.7-0.7S24.8,63.4,25.2,63.4L25.2,63.4z M25.2,65.7c0.4,0,0.7,0.3,0.7,0.7S25.6,67,25.2,67
				c-0.4,0-0.7-0.3-0.7-0.7S24.9,65.7,25.2,65.7L25.2,65.7z M26,67.8c0.4,0,0.7,0.3,0.7,0.7c0,0.4-0.3,0.7-0.7,0.7s-0.7-0.3-0.7-0.7
				C25.4,68.1,25.7,67.8,26,67.8L26,67.8z M41.9,61.7c0,0.4-0.3,0.7-0.7,0.7s-0.7-0.3-0.7-0.7s0.3-0.7,0.7-0.7S41.9,61.4,41.9,61.7
				L41.9,61.7z M44,61c0,0.4-0.3,0.7-0.7,0.7c-0.4,0-0.7-0.3-0.7-0.7c0-0.4,0.3-0.7,0.7-0.7C43.7,60.4,44,60.7,44,61L44,61z
				 M46.2,60.5c0,0.4-0.3,0.7-0.7,0.7s-0.7-0.3-0.7-0.7c0-0.4,0.3-0.7,0.7-0.7C45.9,59.9,46.2,60.2,46.2,60.5L46.2,60.5z M48.5,60.9
				c0,0.4-0.3,0.7-0.7,0.7c-0.4,0-0.7-0.3-0.7-0.7s0.3-0.7,0.7-0.7C48.2,60.2,48.5,60.5,48.5,60.9L48.5,60.9z M50.4,62.1
				c0,0.4-0.3,0.7-0.7,0.7s-0.7-0.3-0.7-0.7c0-0.4,0.3-0.7,0.7-0.7S50.4,61.7,50.4,62.1L50.4,62.1z M51.6,64.1
				c0,0.4-0.3,0.7-0.7,0.7c-0.4,0-0.7-0.3-0.7-0.7s0.3-0.7,0.7-0.7C51.3,63.4,51.6,63.7,51.6,64.1L51.6,64.1z M51.5,66.4
				c0,0.4-0.3,0.7-0.7,0.7c-0.4,0-0.7-0.3-0.7-0.7s0.3-0.7,0.7-0.7C51.2,65.7,51.5,66,51.5,66.4L51.5,66.4z M50.7,68.5
				c0,0.4-0.3,0.7-0.7,0.7c-0.4,0-0.7-0.3-0.7-0.7c0-0.4,0.3-0.7,0.7-0.7C50.4,67.8,50.7,68.1,50.7,68.5L50.7,68.5z M44.3,78.9
				c0,0,0.6-0.3,0.6-0.3c1.4-0.6,1.9-1.4,1.9-2c0-1.1-3.7-2.4-8.7-2.4c-5,0-8.7,1.3-8.7,2.4c0,0.6,0.5,1.4,1.9,2
				c0,0,0.6,0.3,0.6,0.3c0,0.1-0.5,0-0.7-0.1c-1.5-0.5-2.6-1.3-2.6-2.2c0-2,4.9-3.1,9.5-3.1c4.6,0,9.5,1.1,9.5,3.1
				c0,0.9-1,1.7-2.5,2.2C44.9,78.8,44.3,79,44.3,78.9L44.3,78.9z M38,71.4c-2.9,0-5.6,0.4-7.5,1.1c-0.9,0.3-1.4,0.7-1.9,0.9
				c-0.1,0.1-0.2,0.1-0.3,0c-0.2-0.1-0.2-0.2-0.3-0.5c-0.1-0.4-0.3-1.6-1-2.9c-0.1-0.1,0.1-0.3,0.2-0.1c0.4,0.5,1.3,2.1,1.4,2.6
				c0,0,0,0,0,0s0,0,0,0c0.4-0.2,0.9-0.5,1.5-0.7c2-0.7,4.8-1.2,7.8-1.2h0c3,0,5.8,0.4,7.8,1.2c0.6,0.2,1.1,0.5,1.5,0.7c0,0,0,0,0,0
				s0,0,0,0c0.1-0.5,1-2,1.4-2.6c0.1-0.2,0.3,0,0.2,0.1c-0.7,1.4-0.9,2.5-1,2.9c0,0.2-0.1,0.4-0.3,0.5c-0.1,0-0.2,0-0.3,0
				c-0.4-0.3-1-0.6-1.9-0.9C43.7,71.8,41,71.4,38,71.4L38,71.4L38,71.4z M39.5,59.2c0,0.2-0.2,0.4-0.4,0.4h-0.7v0.7
				c0,0.2-0.2,0.4-0.4,0.4s-0.4-0.2-0.4-0.4v-0.7H37c-0.2,0-0.4-0.2-0.4-0.4c0-0.2,0.2-0.4,0.4-0.4h0.7v-0.7c0-0.2,0.2-0.4,0.4-0.4
				s0.4,0.2,0.4,0.4v0.7h0.7C39.3,58.8,39.5,59,39.5,59.2z M38,75.2c2.6,0,7.6,0.4,7.6,2s-5,2-7.6,2c-2.6,0-7.6-0.4-7.6-2
				S35.4,75.2,38,75.2z M49.9,65.1c0,2-1.6,4.2-2.3,5.1l0,0l0,0l0,0c-0.3,0.6-1.1,1.2-2.2,0.8c-0.5-0.2-1.1-0.3-1.4-0.9
				c-0.2-0.3-0.3-0.7,0.1-1.2c0.1-0.1,0.4-0.3,0.5-0.2c0.1,0,0.2,0.3,0,0.4c-0.2,0.2-0.1,0.5,0.2,0.7c0.2,0.1,0.4,0,0.5-0.1
				c0,0-0.4-0.3,0-0.6c0.3-0.2,1-0.9,0-1.3c-0.7-0.3-1.3,0.7-1.4,0.8c-0.1,0.1-0.2,0.1-0.1-0.1c0.1-0.7,0.8-1,0.9-1.7
				c0.1-0.6-0.3-1.1-0.5-1.3c-0.1-0.1-0.2-0.1-0.3,0c-0.3,0.1-0.8,0.4-0.9,1c-0.2,0.8,0.3,1.2,0.2,2c0,0.1-0.1,0.2-0.1,0
				s-0.2-1.3-1-1.3c-1,0-0.7,0.9-0.5,1.2c0.2,0.4-0.2,0.5-0.2,0.5c0,0.1,0.1,0.3,0.4,0.3c0.3,0,0.5-0.3,0.5-0.6
				c-0.1-0.2,0.1-0.3,0.2-0.3c0.1,0,0.3,0.2,0.4,0.4c0.1,0.6-0.1,0.9-0.4,1.1c-0.5,0.4-1.3,0.4-1.8,0.3c-1.5-0.2-1.6-1.1-1.6-1.1
				c0.3,0.1,1,0.4,1,0.4c0,0,0,0,0.1,0c0.1,0,0.2-0.1,0.2-0.2v-1.4c0-0.1-0.1-0.2-0.2-0.2c0,0-0.1,0-0.1,0l-1,0.4l0.3-0.8
				c0,0,0-0.1,0-0.1c0-0.1-0.1-0.2-0.2-0.2l-0.8,0l-0.8,0c-0.1,0-0.2,0.1-0.2,0.2c0,0,0,0.1,0,0.1l0.3,0.8l-1-0.4c0,0-0.1,0-0.1,0
				c-0.1,0-0.2,0.1-0.2,0.2v1.4c0,0.1,0.1,0.2,0.2,0.2c0,0,0,0,0.1,0c0,0,0.7-0.2,1-0.4c0,0-0.1,0.9-1.6,1.1c-0.4,0-1.2,0.1-1.8-0.3
				c-0.3-0.2-0.5-0.6-0.4-1.1c0-0.1,0.2-0.4,0.4-0.4c0.1,0,0.3,0.2,0.2,0.3c-0.1,0.2,0.1,0.5,0.5,0.6c0.3,0,0.4-0.2,0.4-0.3
				c0,0-0.5-0.1-0.2-0.5c0.2-0.3,0.5-1.2-0.5-1.2c-0.8,0-1,1.1-1,1.3c0,0.2-0.1,0.1-0.1,0c-0.1-0.7,0.3-1.2,0.2-2
				c-0.1-0.6-0.6-0.8-0.9-1c-0.1,0-0.3,0-0.3,0c-0.2,0.2-0.6,0.7-0.5,1.3c0.2,0.8,0.8,1,0.9,1.7c0,0.1-0.1,0.2-0.1,0.1
				c-0.1-0.1-0.6-1.1-1.4-0.8c-0.9,0.4-0.3,1.1,0,1.3c0.4,0.3,0,0.5,0,0.6c0,0.1,0.2,0.2,0.5,0.1c0.3-0.2,0.4-0.5,0.2-0.7
				c-0.1-0.1,0-0.3,0-0.4c0.1-0.1,0.4,0.1,0.5,0.2c0.3,0.5,0.2,0.9,0.1,1.2c-0.3,0.6-0.9,0.7-1.4,0.9c-1,0.3-1.9-0.2-2.2-0.8l0,0
				l0,0l0,0c-0.7-0.9-2.3-3.1-2.3-5.1c0-2,1.7-3.5,4-3.5c1,0,2,0.3,2.9,0.7c1,0.4,2,0.7,2.9,0.6v-2c0-0.2,0.2-0.4,0.4-0.4
				s0.4,0.2,0.4,0.4v5.3h2.6v-5.3c0-0.2,0.2-0.4,0.4-0.4s0.4,0.2,0.4,0.4v2c1,0.1,1.9-0.2,3-0.6c0.9-0.3,1.9-0.7,2.9-0.7
				C48.2,61.6,49.9,63.1,49.9,65.1z M38,78.5c4.5,0,6.8-0.9,6.8-1.3s-2.3-1.3-6.8-1.3c-4.5,0-6.8,0.9-6.8,1.3S33.5,78.5,38,78.5z
				 M36,63.7c-0.2,0-0.4,0-0.7,0c0.2,0.1,0.5,0.2,0.7,0.4V63.7z M48.9,66.7c0.2-0.5,0.3-1.1,0.3-1.6c0-1.6-1.4-2.7-3.3-2.7
				c-0.9,0-1.7,0.3-2.6,0.6c-0.4,0.1-0.7,0.3-1.1,0.4c0.1,0,0.2,0,0.3,0c1.2,0,2.4,0.5,3,1.1c1.3,0,2.3,0.4,2.9,1.2
				C48.6,66,48.8,66.3,48.9,66.7z M40.1,63.7V64c0.2-0.1,0.4-0.3,0.7-0.4C40.5,63.7,40.3,63.7,40.1,63.7z M47.8,66.1
				c-0.5-0.6-1.3-0.9-2.5-0.9c-0.1,0-0.2,0-0.3-0.1c-0.3-0.4-1.4-0.9-2.6-1c-0.6,0-1.7,0.1-2.4,0.9c0,0,0,0,0,0v0.9
				c0.3-0.3,0.6-0.6,1.1-0.8c0.1-0.1,0.4-0.2,0.7-0.2c0.2,0,0.5,0.1,0.5,0.1c0,0.1-0.6,0.3-1.1,0.7c-0.4,0.3-0.7,0.7-0.9,0.9
				c0.3-0.1,0.5,0.1,0.5,0.2c0.2-0.2,0.5-0.4,1-0.4c0.1,0,0.2,0,0.2,0c0-0.1,0-0.1,0-0.1c0.2-1,1.2-1.5,1.7-1.6
				c0.3-0.1,0.6,0.1,0.6,0.1c0.4,0.3,1,0.9,1,1.8c0,0.1,0,0.2,0,0.3c0,0,0,0.1,0,0.1c0.1,0,0.2,0,0.2,0.1c0.7,0.3,0.9,0.8,0.9,1.1
				c0,0,0,0.1,0,0.1c0,0.5-0.3,0.8-0.5,1.1c0,0,0,0,0,0c0,0.1,0,0.1,0,0.2c0,0.2-0.1,0.4-0.3,0.6c0,0,0.1,0,0.1,0
				c0.4-0.1,0.9-0.5,1.1-1.3c0.4-1.5-1.3-2.7-1.1-3c0.1-0.1,0.3,0,0.3,0c0.9,0.4,1.7,1.3,1.6,2.6c0.1-0.2,0.2-0.4,0.3-0.6
				c0,0,0,0,0,0C48.3,67.7,48.3,66.7,47.8,66.1z M33.9,63.4c-0.4-0.1-0.7-0.2-1.1-0.4c-0.9-0.3-1.8-0.6-2.6-0.6
				c-1.9,0-3.3,1.2-3.3,2.7c0,0.5,0.1,1.1,0.3,1.6c0.1-0.4,0.2-0.7,0.5-1.1c0.6-0.8,1.6-1.2,2.9-1.2c0.6-0.6,1.8-1.1,3-1.1
				C33.7,63.4,33.8,63.4,33.9,63.4z M38.7,72.4c0,0.4-0.3,0.6-0.6,0.6s-0.6-0.3-0.6-0.6c0-0.4,0.3-0.6,0.6-0.6S38.7,72.1,38.7,72.4z
				 M36,65C36,65,36,65,36,65c-0.7-0.8-1.8-0.9-2.4-0.9c-1.2,0-2.2,0.5-2.6,1c-0.1,0.1-0.2,0.1-0.3,0.1c-1.2,0-2,0.3-2.5,0.9
				c-0.5,0.7-0.5,1.6-0.4,2.1c0,0,0,0,0,0c0.1,0.2,0.2,0.4,0.3,0.6c-0.1-1.3,0.7-2.2,1.6-2.6c0,0,0.3-0.1,0.3,0
				c0.2,0.3-1.6,1.5-1.1,3c0.3,0.9,0.8,1.3,1.2,1.4l0.1,0c-0.2-0.2-0.3-0.4-0.3-0.6c0-0.1,0-0.1,0-0.2c0,0,0,0,0,0
				c-0.2-0.2-0.5-0.6-0.5-1.1c0,0,0-0.1,0-0.1c0-0.3,0.2-0.8,0.9-1.1c0.1,0,0.2-0.1,0.2-0.1c0,0,0-0.1,0-0.1c0-0.1,0-0.2,0-0.3
				c0-0.8,0.6-1.5,1-1.8c0,0,0.3-0.2,0.6-0.1c0.5,0.1,1.5,0.6,1.7,1.6c0,0.1,0,0.1,0,0.1c0.1,0,0.2,0,0.3,0c0.5,0,0.8,0.2,1,0.4
				c0-0.2,0.2-0.3,0.5-0.2c-0.2-0.3-0.5-0.6-0.9-0.9c-0.5-0.4-1.1-0.6-1.1-0.7c0-0.1,0.2-0.2,0.5-0.1c0.3,0,0.6,0.1,0.7,0.2
				c0.4,0.2,0.8,0.5,1.1,0.8C36,65.9,36,65,36,65z"/>
			<g>
				<path class="st1" d="M70.9,55H5.5v33c0,9.7,2.7,18.1,6.5,25.2c-1,0.4-2,1.3-3,3.2L7.7,119l-0.9,1.9c-0.4,0.7-0.8,1.9-0.8,3.5
					c0,2.2,0.9,4.3,2.5,6.5c2.8,3.5,8.5,7.2,15.4,9.9c0,0,0.6,0.2,1,0.4c-0.5,0.4-1.2,1-1.2,1l-0.5,0.4c0,0-0.4,0.4-0.4,0.4
					c0,0-0.2,0.2-0.2,0.2c-0.7,0.8-1.1,1.7-1.1,3v6c0,2.5,2.7,4,7.3,4h18.2c4.6,0,7.3-1.5,7.3-4v-6c0-1.3-0.3-2.2-1.1-3
					c0,0-0.1-0.2-0.1-0.2c-0.2-0.2-0.4-0.3-0.5-0.4c0,0,0,0,0,0s-1.1-1-1.7-1.4c0.5-0.2,1-0.4,1-0.4c6.9-2.7,12.7-6.4,15.4-9.9
					c1.7-2.1,2.5-4.3,2.5-6.5c0-1.5-0.4-2.7-0.8-3.5l-0.9-1.9l-1.2-2.6c-0.7-1.4-1.7-2.4-3-3c3.9-7.1,6.6-15.6,6.6-25.4
					C70.9,88.1,70.9,55,70.9,55z M66.6,116.8l1.2,2.6l0.9,1.9c0.3,0.7,0.7,1.8,0.7,3.1c0,2-0.8,4-2.4,6c-2.7,3.4-8.3,7-15.1,9.7
					l-2.2,0.9l2.7,2.3c0,0,0.4,0.3,0.4,0.3c0,0,0.1,0.1,0.1,0.1c0.6,0.7,0.9,1.4,0.9,2.5v6c0,2-2.4,3.2-6.5,3.2H29
					c-4.1,0-6.5-1.2-6.5-3.2v-6c0-1.1,0.3-1.8,0.9-2.5c0,0,0.1-0.1,0.1-0.1c0,0,0.4-0.4,0.4-0.4l0.5-0.4c0,0,2.1-1.8,2.1-1.8
					l-2.2-0.9c-6.8-2.7-12.4-6.3-15.1-9.7c-1.6-2-2.4-4-2.4-6c0-1.4,0.4-2.5,0.7-3.1l0.9-1.9l1.2-2.6c0.9-1.8,1.8-2.5,2.7-2.8
					c0.1,0.2,0.2,0.4,0.4,0.7c-0.5,0.3-1,0.7-1.4,1.3c-0.4,0.7-0.6,1.5-0.6,2.4c0,0.8,0.2,1.7,0.5,2.5l0.5,1.3c0,0,2.1-3,2.7-3.9
					c0.1,0.2,0.1,0.5,0.1,0.5c0.2,0.6,0.7,1.1,1.4,1.4c0.1,0.1,0.2,0.1,0.4,0.1c0.5,0.7,1,1.3,1.5,2c-1,1.5-2.5,3.6-2.5,3.6l0.5,0.4
					c2.1,1.7,4,2.8,4.5,3.1c1.5,0.9,3,1.5,4.4,2.2c1.3,0.6,2.7,1.2,3.8,1.9c0.9,0.7,1.7,1.4,2.5,2c0.8,1,1.3,2.1,1.3,3.6v4.3
					c0,1.4-0.4,2.1-0.9,2.6l-1.1,1.2h15.2l-1.1-1.2c-0.5-0.5-0.9-1.2-0.9-2.6V139c0-1.3,0.4-2.4,1-3.3c1-0.8,2.2-1.7,3.4-2.7
					c1-0.6,2.1-1.1,3.3-1.6c1.4-0.7,2.9-1.3,4.4-2.2c1.4-0.8,3.1-1.9,4.5-3.1l0.5-0.4c0,0-1.4-2-2.4-3.5c0.5-0.7,1.1-1.4,1.6-2.1
					c0.1,0,0.1,0,0.2,0c0.7-0.3,1.2-0.8,1.4-1.4c0,0,0.1-0.2,0.2-0.5c0.6,0.9,2.7,3.9,2.7,3.9l0.5-1.3c0.4-0.9,0.5-1.7,0.5-2.5
					c0-0.9-0.2-1.7-0.6-2.4c-0.3-0.5-0.8-0.9-1.3-1.2c0.1-0.2,0.2-0.3,0.3-0.5C65,114.6,65.9,115.5,66.6,116.8z M18.3,122.7
					c2.7,3.3,5.4,6.2,8,8.5c-0.4-0.2-0.8-0.4-1.2-0.5c-1.4-0.6-2.9-1.3-4.4-2.2c-0.5-0.3-2.4-1.4-4.4-3
					C16.6,125.3,17.5,123.9,18.3,122.7z M44,146.4c-1.4,0-10.5,0-11.9,0c0.5-0.6,1.1-1.5,1.1-3.1V139c0-0.9-0.2-1.7-0.4-2.4
					c2.7,1.9,4.4,3,4.5,3l0.9,0.5l0.9-0.5c0.1,0,1.7-1,4.2-2.8c-0.2,0.7-0.4,1.4-0.4,2.2v4.3C42.9,144.9,43.5,145.8,44,146.4z
					 M50.2,131.1c2.5-2.3,5.2-5.1,7.8-8.3l1.9,2.7c-1.4,1.1-3,2.2-4.4,3c-1.4,0.8-2.9,1.5-4.3,2.1C50.8,130.9,50.5,131,50.2,131.1z
					 M57.5,122.2c-3.3,4.1-6.8,7.5-9.9,10.2l-3.6,2.9c-3.1,2.4-5.3,3.6-5.4,3.7c0,0-0.3,0.2-0.5,0.3c-0.2-0.1-0.5-0.3-0.5-0.3
					c-0.1,0-2.5-1.4-5.9-4.1l-2.8-2.2c-3.2-2.7-6.8-6.2-10.3-10.6l-0.5-0.6c-0.3-0.4-0.6-0.8-0.9-1.2l-0.5-0.7c-1-1.5-2.1-3-3-4.6
					l-0.4-0.7c-0.1-0.2-0.2-0.4-0.3-0.6l-0.4-0.7c-3.8-7-6.5-15.3-6.5-24.9c0,0,0-31.6,0-32.3c0.7,0,63.2,0,63.9,0
					c0,0.7,0,32.3,0,32.3c0,9.7-2.7,18.1-6.6,25.1l-0.4,0.7c-0.1,0.2-0.2,0.3-0.3,0.5l-0.4,0.7c-0.3,0.5-0.6,1.1-1,1.6l-0.2,0.3
					c-0.6,0.9-1.2,1.8-1.8,2.6l-0.6,0.8c-0.3,0.4-0.7,0.9-1,1.3L57.5,122.2z"/>
			</g>
			<path class="st1" d="M19.1,26c-0.2,0.2-0.4,0.4-0.5,0.4c-0.2,0-0.5-0.5-0.5-0.7s1.5-0.7,1.6-0.6s-0.1,0.6-0.1,0.6
				S19.3,25.8,19.1,26z"/>
			<path class="st1" d="M25.2,15.8l0.2-0.2c0.2,0.4,0.8,1,0.8,1.2c0,0.1-0.1,0.6-0.2,0.8c-0.1,0.1-0.2,0-0.2,0s-0.2-1.2-0.1-0.9
				C25.7,16.8,25.4,16.2,25.2,15.8z"/>
			<path class="st1" d="M36.8,9.6c0-0.3,0-0.9,0-0.9s0.7,1.2,0.7,1.4s-0.4,0.3-0.5,0.4c-0.1,0.1-0.3,0.5-0.3,0.5l-0.2-0.3
				C36.5,10.8,36.8,9.9,36.8,9.6z"/>
			<path class="st1" d="M27.5,13.5c0.2,0.2,1.4,0.5,1.6,0.5c0,0.1,0.1,0.4-0.1,0.5c-0.3,0.2-0.5-0.3-0.9-0.6
				c-0.3-0.2-0.6-0.3-0.6-0.3s-0.2-0.1-0.1-0.1"/>
			<path class="st1" d="M49.4,12.7c-0.2,0.2-0.7,0.9-0.7,1s0.3,0,0.3,0s0.9-0.8,1.1-0.9S49.4,12.7,49.4,12.7z"/>
		</g>
	</g>
</g>
</svg>
