<?xml version="1.0" encoding="utf-8"?>
<!-- Generator: Adobe Illustrator 26.0.2, SVG Export Plug-In . SVG Version: 6.00 Build 0)  -->
<svg version="1.1" id="图层_1" xmlns="http://www.w3.org/2000/svg" xmlns:xlink="http://www.w3.org/1999/xlink" x="0px" y="0px"
	 width="463px" height="177px" viewBox="0 0 463 177" style="enable-background:new 0 0 463 177;" xml:space="preserve">
<style type="text/css">
	.st0{display:none;fill:none;}
	.st1{fill:#FFFFFF;}
	.st2{fill-rule:evenodd;clip-rule:evenodd;fill:#FFFFFF;}
</style>
<g id="Black_Outline_Layer">
	<rect x="36.6" y="-11" class="st0" width="94.3" height="170"/>
	<g>
		<path id="University_of_Toronto_Mark_Stacked_1_" class="st1" d="M398.1,99c11.6,0,18.7,9.2,18.7,18.6c0,10.4-9.1,19.1-19.3,19.1
			c-10.6,0-18.2-8.6-18.2-19.1C379.3,107.6,388.1,99,398.1,99 M400,134.3c6.8,0,11-6.7,11-13.1c0-10.3-5.9-19.8-14.7-19.8
			c-7,0-11.2,6.1-11.2,13.3C385.1,124.1,390.5,134.3,400,134.3z M362.3,99.8h-7.8c-3.4,0-5.9,0-7.9-0.1c-1.9-0.1-2.3-0.5-2.6-0.9h-1
			c-0.2,0.4-2.6,7-2.7,7.3l1.2,0.7c1.2-3.2,2.5-4.7,9-4.7c0.5,0,2.6,0,5.2,0.3c0.3,4.7,0.4,9.1,0.4,13.8c0,2.9-0.1,13.7-0.4,16.1
			c-0.2,1.1-0.7,1.6-3.7,2.2c-1.3,0.2-2.1,0.3-2.8,0.3l0.3,1.5c0.9-0.1,2.2-0.2,3.5-0.3c1.5-0.1,3.2-0.2,5.9-0.2c1,0,2.6-0.1,4.1,0
			c1.6,0.1,2.9,0.1,4.8,0.2l0.2-1.6c-0.3,0-0.9-0.1-1.7-0.2c-1-0.2-2.6-0.4-3.3-1.1c-1.2-1.4-1.2-11.1-1.2-13.7
			c0-2.2,0.3-13.7,0.3-16.3c0-1.1,0.3-1.1,3.6-1.1h0.1c1.5-0.1,1.9,0,2.4,0c6.5,0,6.6,1.6,7.8,4.7l1.2-0.7c-0.1-0.3-1.4-6.9-1.6-7.3
			h-1c-0.3,0.3-0.7,0.8-2.6,0.9c-2.5,0.1-5.4,0.1-8.4,0.1L362.3,99.8L362.3,99.8z M302.6,99.7c-1.5,0.1-2.6,0.1-4.4,0.1
			c-0.9,0-1.8,0-2.7-0.1c-0.9-0.1-1-0.1-1.9-0.2v1.6c5.3,1,5.7,1.8,5.5,12.3v6.5c0,2.4-0.2,9.7-0.4,11.8c-0.3,2.3-1.3,2.5-2.6,2.8
			c-0.7,0.2-1.6,0.3-2.1,0.4v1.4c1.4,0,2.7-0.1,4.1-0.2c1.4-0.1,3.2-0.2,4.6-0.2s2.8,0.1,4.1,0.2c1.2,0,2,0.1,2.5,0.2v-1.6
			c-7.2-1.3-7.2-2.2-7.1-8.4v-15.4l0.1-2.9c0,0,0,0.1,26.7,28.3h1.9c-0.2-3-0.2-10.7-0.2-14.1c0-4.8,0-17.2,0.2-18.7
			c0.3-2.3,3.5-2.6,5.2-2.6v-1.4c-3.9,0-6,0.1-7.8-0.1c-1.6-0.2-2.8-0.3-3.8-0.3c-0.8,0-1.7-0.1-2.2,0l-0.3,1.4c6,0.3,6,0.9,6,14.6
			c0,1.6-0.1,9.7-0.1,11.1L302.6,99.7z M269.7,99c11.6,0,18.7,9.2,18.7,18.6c0,10.4-9.1,19.1-19.3,19.1c-10.6,0-18.2-8.6-18.2-19.1
			C251,107.6,259.8,99,269.7,99z M271.7,134.3c6.8,0,11-6.7,11-13.1c0-10.3-5.9-19.8-14.7-19.8c-7,0-11.2,6.1-11.2,13.3
			C256.8,124.1,262.2,134.3,271.7,134.3z M212.3,99.5c1.2,0.1,2.2,0.2,3.5,0.2c1.1,0.1,2.2,0.1,3.4,0.1c0.8,0,2.9-0.2,5-0.3
			s3.6-0.2,4.9-0.2c7.7,0,12.6,4.1,12.6,9.7c0,5.1-4.7,8.2-8.3,9.1c7.5,10.9,8.9,12.5,11.8,15.2c0.3,0.3,2.6,2.4,5.4,2.6l-0.1,1.4
			c-6.2,0-9.3-2.4-11-3.7c-5.5-4.3-11-12.9-12-14.7c-1.6,0-2.2,0-4.8-0.2v5.3c0,2.3-0.1,7.6,0.6,9.1c0.4,0.8,3.2,1.6,5,2.2l0.1,1.4
			c-2.2-0.3-5.6-0.6-7.9-0.6c-1.3,0-6.9,0.3-8.1,0.4l-0.3-1.1c0.5-0.1,3.8-0.8,4.7-2.3c0.6-1.4,0.5-9,0.5-11.4v-8.7
			c0-11.2-0.5-11.4-5.1-11.6L212.3,99.5z M222.7,116.5c1.1,0.2,2.8,0.2,3.9,0.2c1.4,0,9,0,9-7.2c0-3.4-2.4-8.3-8.9-8.3
			c-3.8,0-3.8,0.4-3.9,6.6L222.7,116.5z M187.1,99c11.6,0,18.7,9.2,18.7,18.6c0,10.4-9.1,19.1-19.3,19.1c-10.6,0-18.2-8.6-18.2-19.1
			C168.3,107.6,177.1,99,187.1,99z M189,134.3c6.8,0,11-6.7,11-13.1c0-10.3-5.9-19.8-14.7-19.8c-7,0-11.2,6.1-11.2,13.3
			C174.1,124.1,179.5,134.3,189,134.3z M150.5,99.8h-7.8c-3.4,0-5.9,0-7.9-0.1c-1.9-0.1-2.3-0.5-2.6-0.9h-1c-0.2,0.4-2.6,7-2.8,7.3
			l1.2,0.7c1.2-3.2,2.5-4.7,9-4.7c0.5,0,2.6,0,5.2,0.3c0.3,4.7,0.4,9.1,0.4,13.8c0,2.9-0.1,13.7-0.4,16.1c-0.2,1.1-0.7,1.6-3.7,2.2
			c-1.3,0.2-2.1,0.3-2.8,0.3l0.3,1.5c0.9-0.1,2.2-0.2,3.5-0.3c1.5-0.1,3.2-0.2,5.9-0.2c1,0,2.6-0.1,4.1,0c1.6,0.1,2.9,0.1,4.8,0.2
			l0.2-1.6c-0.3,0-0.9-0.1-1.7-0.2c-1-0.2-2.6-0.4-3.3-1.1c-1.2-1.4-1.2-11.1-1.2-13.7c0-2.2,0.3-13.7,0.3-16.3
			c0-1.1,0.3-1.1,3.6-1.1h0.1c1.5-0.1,1.9,0,2.4,0c6.5,0,6.6,1.6,7.8,4.7l1.2-0.7c-0.1-0.3-1.4-6.9-1.6-7.3h-1
			c-0.3,0.3-0.7,0.8-2.6,0.9c-2.5,0.1-5.4,0.1-8.4,0.1L150.5,99.8L150.5,99.8z M384.5,67.9c-2.3,0.3-2.9,0.3-5.5,0.3h-2.8l-2.8-0.1
			l-0.9,0.1l-0.8,0.1v0.1v0.6h0.1c0.7,0,1.4,0.1,1.6,0.5c0.4,0.6,0.4,1.3,0.4,7c0,2.7-0.3,5.7-0.3,6.2c-0.2,0.6-1,0.9-1.6,0.9h-0.1
			l-0.1,0.9h0.2c1.6-0.1,3.4-0.2,3.8-0.2h1.4l2.6,0.1v-0.2v-0.8h-0.2c-1.9-0.2-2.5-0.5-2.7-0.8c-0.2-0.3-0.3-1.2-0.3-2.2
			c0-0.3,0-0.6,0-0.9c0,0,0.1-2.4,0.1-3c0.2,0,1.3-0.1,1.3-0.1c1.5,0,3.3,0.3,3.7,0.5c0.3,0.1,0.5,0.6,0.6,1.3v0.1h0.8v-0.1
			c0.2-1.6,0.1-3.4,0.1-4.6v-0.2h-0.9v0.1c-0.2,1.2-0.3,1.6-3.5,1.6c-0.9,0-1.2,0-2.2-0.2c0,0,0,0-0.1,0c0-0.3,0-0.6,0-0.9
			c0-0.3,0-0.8,0-1.1c0,0,0.1-3.4,0.1-3.9c0.9-0.1,1.7-0.2,1.9-0.2c1.7,0,3.3,0.3,4,0.8c0.5,0.3,0.7,1,0.9,1.6v0.1l0.9-0.1v-0.2
			c0-0.3,0-1.1,0.1-1.9l0.1-1.7L384.5,67.9z M360,67.7c5.3,0,8.5,4.2,8.5,8.3c0,4.6-4.1,8.5-8.8,8.5c-4.7,0-8.3-3.7-8.3-8.5
			C351.4,71.6,355.4,67.7,360,67.7z M360.7,83.2c2.9,0,4.8-2.9,4.8-5.6c0-4.2-2.4-8.5-6.4-8.5c-3.2,0-4.9,2.8-4.9,5.7
			C354.3,78.9,356.7,83.2,360.7,83.2z M329.7,68.1v0.8h0.2c0.8,0,1.9,0.1,1.9,0.8c0,0.2-0.3,1.1-3.4,5.6c-1.3-1.6-4.2-5.3-4.2-5.8
			c0-0.2,0-0.3,1.8-0.4h0.2v-0.9h-1.6l-2.9,0.1h-3.2v0.2v0.6h0.2c0.8,0,1.3,0.1,1.6,0.3c0.9,0.7,4.5,5.1,4.6,5.3c0,0,1.4,1.8,1.6,2
			c0.1,1.1,0.2,2.4,0.2,4c0,2.4,0,2.9-2.2,3h-0.1l-0.1,0.8h0.2c0.3,0,1.4-0.1,2.4-0.2l1.7-0.1l1.3,0.1h0.3l1.7,0.1v-0.2v-0.7h-0.1
			c-2.2-0.2-2.2-0.5-2.2-0.9v-0.2c-0.1-1-0.1-2.1-0.1-3.3c0-0.9,0-1.9,0.1-2.9c0.1-0.1,3.2-4.8,3.2-4.8c1-1.6,1.6-2.4,3.7-2.4h0.1
			v-0.9h-0.1c-0.3,0-1.1,0-1.9,0.1l-1,0.1l-1.2-0.1l-0.9-0.1h-1.2h-0.2L329.7,68.1L329.7,68.1z M315.3,67.6h-0.5v0.1
			c-0.1,0.1-0.3,0.3-1,0.3h-3.3h-4.6h-3.5c-0.9,0-1-0.3-1-0.3v-0.1h-0.6v0.1c-0.1,0.2-1.2,3-1.2,3.2V71l0.8,0.4l0.1-0.2
			c0.5-1.4,1-2,3.9-2c0.9,0,1.6,0.1,2.2,0.1c0.2,2.2,0.2,4.3,0.2,6c0,1.6-0.1,6-0.2,7.1c-0.1,0.3-0.2,0.6-1.6,0.9l-1,0.2l-0.3,0.1
			l0.2,0.9l1.4-0.1h0.3l2.6-0.1h0.4h1.5h1.1h1.2v-0.1l0.1-0.8l-0.7-0.1h-0.2c-0.7-0.1-1.2-0.3-1.4-0.4s-0.5-1.2-0.5-6l0.1-3.4
			l0.1-3.8c0-0.3,0-0.3,1.5-0.3h0.1h0.9h0.2c2.6,0,2.8,0.5,3.3,1.7l0.2,0.3l0.8-0.4l-0.2-0.9c-0.3-1.3-0.5-2.3-0.5-2.5v-0.1
			L315.3,67.6L315.3,67.6z M288.3,68.1v0.9h0.1c2.2,0.1,2.5,0.5,2.7,0.9c0.3,0.7,0.3,5.3,0.3,7v0.3c0,1.4,0,4.7-0.4,5.4
			c-0.2,0.3-0.7,0.7-2.8,0.9h-0.1v0.9l2.6-0.1h2.3l3.9,0.1v-0.2l-0.1-0.8h-0.1c-1.7,0-2.2,0-2.5-0.7c-0.1-0.3-0.2-1.9-0.2-4.6
			c0-6.3,0-8,0.3-8.6c0.4-0.7,1.9-0.6,2.4-0.6h0.2v-0.9h-1.9l-2.7,0.1l-1.8-0.1h-0.8h-1.4h-0.2L288.3,68.1L288.3,68.1z M273.9,72.5
			c0,2.8,2.3,3.7,4.1,4.4l0.2,0.1c2.9,1.2,4.3,1.7,4.3,3.8c0,1.2-0.9,2.5-2.8,2.5c-1.7,0-3-0.8-3.8-1.4c-0.9-0.8-1.2-1.9-1.3-2.3
			v-0.1h-0.9l0.1,0.2c0.5,1.8,0.7,2.6,0.7,4.6v0.1l0.8,0.1v-0.1c0-0.1,0.2-0.4,0.3-0.4c0.2,0,0.8,0.2,0.9,0.2h0.1l0.3,0.1
			c0.4,0.1,0.9,0.3,2,0.3c4,0,6.1-2.4,6.1-4.7c0-3.2-3.1-4.4-5.2-5.3c-2-0.8-3.5-1.5-3.5-3c0-1.6,1.2-2.7,3-2.7c1.6,0,2.8,0.9,3,1.2
			c0.7,0.6,0.9,1.3,0.9,2V72h0.1h0.7l-0.3-2.2c0-0.8,0.2-1.6,0.3-1.9v-0.2l-0.7-0.1c0,0-0.4,0.3-0.5,0.3c-1.5-0.4-2.2-0.5-3.3-0.5
			C276.3,67.8,273.9,69.7,273.9,72.5z M262.5,67.8c3.4,0,5.8,1.8,5.8,4.4c0,2.1-1.8,3.5-3.6,4.1c3.3,4.6,3.9,5.3,5.2,6.5
			c0.1,0,1,1,2.3,1.1h0.2l-0.1,0.9h-0.1c-2.8,0-4.2-1-5-1.6c-2.5-1.9-4.9-5.7-5.3-6.5c-0.2,0-1.7-0.1-1.9-0.1c0,0.3,0,2.2,0,2.2
			s0,0.6,0,0.8c0,1.1,0,2.7,0.3,3.2c0.2,0.3,1.5,0.7,2.2,0.9h0.1l0.1,0.9h-0.2c-0.9-0.2-2.5-0.3-3.5-0.3c-0.5,0-3,0.2-3.6,0.2h-0.1
			l-0.2-0.7h0.2c0.3-0.1,1.6-0.3,2-0.9c0.3-0.5,0.3-3.4,0.3-4.6v-0.3v-3.8c0-4.8-0.2-4.9-2.2-5H255l0.1-0.9h0.3l1.5,0.1h1.5
			c0.3,0,1.3-0.1,2.2-0.2l0,0l0,0L262.5,67.8z M259.9,75.5c0.5,0.1,1.2,0.1,1.6,0.1c1.5,0,3.9-0.4,3.9-3c0-1.4-1-3.5-3.8-3.5
			c-1.6,0-1.6,0.1-1.6,2.8C259.9,71.8,259.9,75.2,259.9,75.5z M250.3,67.9c-2,0.1-5.1,0.2-7.2,0.2c-1.3,0-4.4-0.1-5.6-0.1h-0.2v0.8
			h0.1c1.4,0.3,1.5,0.3,1.6,0.6c0.2,0.3,0.3,1.8,0.3,6.7c0,2.1-0.2,5.4-0.3,6.6c-0.1,0.5-0.8,0.7-1.9,0.9h-0.2l0.1,0.9h0.1
			c2.2-0.3,4.8-0.3,6.4-0.3l6.5,0.1l0.1-0.1c0.3-0.5,0.9-1.4,1.2-4V80l-0.8-0.1V80c-0.5,1.5-1.6,3-5.6,3c-1.4,0-2-0.2-2.8-0.5
			c-0.1-0.4-0.2-1.1-0.2-3.1c0,0,0-2.4,0-3c1-0.2,2-0.2,2.4-0.2c3.2,0,3.5,0.3,3.9,2.2v0.1h0.8v-0.2c0-2.2,0-2.7,0.1-4.9v-0.2h-0.9
			v0.1c-0.3,1.2-0.6,1.4-1,1.5c-2.3,0.3-4.6,0.2-5.1,0.2c0-0.2-0.1-2.2-0.1-2.2c0-1,0.1-2.7,0.3-3.8c0.9-0.2,2.4-0.3,3.1-0.3
			c1.8,0,2.8,0.3,3.3,0.7c0.4,0.4,0.4,1,0.3,1.7v0.1l0.9,0.1v-0.2c0-0.2,0.1-0.8,0.2-1.3l0.1-0.6c0.1-0.9,0.1-1.2,0.1-1.6v-0.2
			L250.3,67.9z M215.2,68.1l0.1,0.7h0.1c2.2,0.3,2.2,0.3,4.1,3.9l3.6,7.4v0.1c0.6,1.3,1.6,3.3,1.9,4.4v0.1h0.8v-0.1
			c0.5-1.6,0.9-2.8,2.2-5.3l4-7.7c0.9-1.8,1.3-2.2,3.1-2.7h0.1v-0.9H235c-1,0-2,0-3,0l-3.1-0.1v0.1l-0.1,0.9h0.2
			c0.8,0,1.9,0.1,1.9,0.9c0,0.5-0.3,1.3-0.6,1.8l-0.1,0.2c-0.8,1.8-1.3,2.8-1.8,3.9l-1.8,3.7c0,0-0.3,0.6-0.4,0.9
			c-1.7-2.8-5-10.4-5-11c0-0.2,0.1-0.3,1.4-0.3l0.4-0.1v-0.9h-2.5H219C218.1,68.2,216.2,68.2,215.2,68.1h-0.2H215.2z M204.3,68.1
			v0.9h0.2c2.2,0.1,2.5,0.5,2.7,0.9c0.3,0.7,0.3,5.3,0.3,7v0.3c0,1.4,0,4.7-0.4,5.4c-0.2,0.3-0.7,0.7-2.8,0.9h-0.1v0.9l2.6-0.1h2.3
			l3.9,0.1v-0.2l-0.1-0.8h-0.1c-1.7,0-2.2,0-2.5-0.7c-0.1-0.3-0.2-1.9-0.2-4.6c0-6.3,0-8,0.3-8.6c0.4-0.7,1.9-0.6,2.4-0.6h0.2v-0.9
			h-1.9l-2.7,0.1l-1.8-0.1h-0.8h-1.4h-0.2L204.3,68.1L204.3,68.1z M195,67.8L195,67.8L195,67.8l-0.3,0.9h0.2
			c3.1,0.2,2.7,0.3,2.8,6.7c0,0,0,3.9,0,4.4c-0.3-0.3-11.2-11.7-11.2-11.7V68h-1.8h-1.2h-0.1l-1.1-0.1v0.2v0.8h0.1
			c2.2,0.4,2.6,0.7,2.5,5.3v2.8c0,1-0.1,4.2-0.3,5.2c-0.1,0.9-0.4,1-1,1.1l-1,0.3v0.1v0.8l3.8-0.2l1.8,0.1l1.3,0.1v-0.2v-0.8h-0.1
			c-3.1-0.5-3.1-0.9-3-3.5l0.1-6.7c0,0,0-0.6,0-0.9c0.6,0.6,11.7,12.2,11.6,12.2v0.1h1v-0.2c-0.1-1.3-0.1-4.7-0.1-6.1
			c0-2.2,0.1-7.3,0.2-7.9c0.2-1.1,1-1.4,2-1.4h0.2V68h-0.2c-1.7,0-2.6,0.1-3.4,0l-0.5-0.1l-1.2-0.1L195,67.8z M165.5,68h-0.9
			c-1.1,0-3.4,0-3.6,0.1h-0.1l0.1,0.9h0.1c1,0,1.4,0,1.6,0.2c0.3,0.2,0.5,2.1,0.5,4.6l-0.2,5.3c0,3.6,2.3,5.6,6.7,5.6
			c7,0,7.3-3.7,7.5-11.5v-2.3v-0.1c0-1.1,0.1-1.6,1.9-1.7h0.1l0.1-0.9H179l-2.8,0.1L174,68h-0.9v0.2v0.8h0.2c0.8,0,1.6,0.1,2,0.4
			c0.5,0.5,0.7,2.7,0.7,3.8v1.5c0,5.3-0.3,8.6-5.3,8.6c-4.6,0-4.6-3.6-4.6-5.3v-3c0-5.6,0.2-5.6,2.7-5.9h0.1v-0.9h-0.1
			C168,68,166.6,68,165.5,68z"/>
		<g>
			<g>
				<g>
					<path class="st1" d="M65.3,40.3c-0.5,0.2-0.9,0.5-0.9,1c-0.3,0-0.8,0-1.1,0.3c-0.4,0.3-0.6,0.7-0.8,1.2v0.3
						c0,0.5,0.3,1.2,1.2,1.7c0,0.1,0,0.2,0,0.2c0,0.3,0.1,0.8,0.5,1.1c0.3,0.2,0.4,0.3,0.7,0.4c-0.1,0.2-0.1,0.5-0.1,0.5l0.1,0.6
						c0.2,0.6,0.7,1.2,1.8,1.3c0.1,0.3,0.2,0.5,0.4,0.8c0.3,0.3,0.9,0.6,1.7,0.3c-0.1,0.2-0.2,0.4-0.2,0.7c0,0.3,0.1,0.8,0.3,1.1
						c0.7,1,1.9,0.5,2.7,0.2c0.3,0.4,0.9,0.7,1.6,0.5c1-0.2,1.6-0.9,1.8-1.5c0.1,0,0.8-0.1,0.8-0.1l0.1-0.1c0.4-0.3,0.8-0.9,1.1-1.6
						c0.8,0.7,1.4,1.6,1.5,1.8c0.1,0.3,0.4,0.9,1.3,2.2c0,0,0.6,1,0.8,1.3c-0.3,1.4-0.9,2.3-1.8,2.8l-0.5,0.3
						c-1.2,0.6-2.6,1.3-3.5,2l0,0c-0.6,0-1,0.2-1.3,0.3c-0.3-0.2-0.9-0.3-1.3-0.3c-1.6,0-2.4,0.9-2.7,1.5c-0.5,1-0.3,2.3,0.1,3
						c0.6,0.9,1.5,1.3,2.6,1.3c0.4,0,0.9-0.1,1.2-0.3c0.3,0.2,0.7,0.3,1.2,0.3c0.4,0,0.9-0.1,1.3-0.3c0.3,0.2,0.8,0.3,1.1,0.3
						c0.4,0,0.8-0.1,1.1-0.3c0.3,0.1,0.7,0.3,1.1,0.3c0.6,0,0.9-0.2,1.2-0.3c0.3,0.2,0.7,0.3,1.1,0.3c0.4,0,0.8-0.1,1.1-0.3
						c0.3,0.1,0.7,0.3,1.1,0.3c0.6,0,0.9-0.1,1.2-0.3c0.3,0.2,0.7,0.3,1.1,0.3c0.4,0,0.8-0.1,1.1-0.3c0.3,0.1,0.7,0.3,1.1,0.3
						c0.6,0,0.9-0.2,1.2-0.3c0.3,0.2,0.7,0.3,1.1,0.3c0.4,0,0.8-0.1,1.1-0.3c0.3,0.1,0.7,0.3,1.1,0.3c0.6,0,1-0.2,1.3-0.3
						c0.3,0.2,0.9,0.3,1.4,0.3c1.3,0,2.2-0.5,2.8-1.6c0.5-1,0.3-2.3-0.2-2.9c-0.6-0.9-1.5-1.3-2.6-1.3c-0.4,0-0.8,0.1-1.2,0.3
						c-0.1,0-0.3-0.1-0.4-0.1c-0.5-0.7-1.3-1.1-2.9-1.8l-0.3-0.1c-1.8-0.8-2.2-1.4-2.5-2l-0.3-0.5c-0.1-0.2-0.3-1.2-0.3-2.5
						c0-0.9,0.2-2.2,0.8-3.1c0.3-0.5,0.8-0.9,1.3-1.3c0.2,0.5,0.3,0.9,0.5,1.1l0,0l0.1,0.1l0.8,0.4l-0.1-0.2
						c0.3,0.8,0.8,1.6,1.7,1.7c0.3,0.1,0.6-0.1,0.9-0.2c0.3,0.3,0.8,0.5,1.3,0.5s0.9-0.3,1-0.4c1,0.2,1.6-0.3,1.9-0.7l0.3-0.9v-0.1
						c0-0.3-0.2-0.6-0.3-0.9c0.1,0,0.1,0,0.1,0c0.3-0.2,0.4-0.3,0.6-0.6c0.9-0.1,1.2-0.5,1.4-0.9c0,0,0.1-0.2,0.1-0.3
						c0,0,0,0,0.1-0.1c0.4,0.2,0.9,0.3,1.5,0c0.3-0.2,0.6-0.5,0.8-0.9c0.3,0,0.9,0,1.2-0.3c0.4-0.3,0.7-0.8,0.8-1.3v-0.3
						c0-0.5-0.3-1.5-1.6-1.9c-0.1-0.3-0.2-0.8-0.5-1c-0.7-0.7-1.6-0.6-2.2-0.3c0.2-0.2,0.3-0.3,0.4-0.5c0.8,0.2,2.2,0.3,2.8-0.8
						l0.2-0.6c0-0.1-0.1-0.3-0.1-0.5c0.8-0.6,0.9-1.2,0.9-1.6l-0.2-0.9c-0.3-0.9-1-1.1-1.9-1c-0.1-0.2-0.1-0.3-0.3-0.5
						c0,0-0.1,0-0.1-0.1c0.1-0.3,0.2-0.6,0.2-0.6l-0.3-0.6c-0.2-0.5-0.5-0.9-0.9-1c-0.3-0.2-0.8-0.2-1.3,0c0.3-0.3,0.7-0.7,0.7-1.1
						v-0.3l0,0c0-0.4-0.2-0.8-0.4-1.1c-0.5-0.7-1.3-0.9-2.2-0.6c-0.2-0.2-0.4-0.4-0.9-0.5c-0.8-0.2-1.5,0.3-1.9,0.7
						c-0.2-0.1-0.4-0.3-0.4-0.3h-0.1c0,0-0.1,0-0.3,0c0-0.4-0.2-0.9-0.5-1.2c-0.4-0.4-0.9-0.7-1.6-0.7c-0.2,0-0.4,0.1-0.6,0.1
						c0.3-0.3,0.3-0.7,0.3-0.9l-0.2-0.7c-0.3-0.5-0.6-0.8-0.9-0.9l0,0c0-1.5-0.9-1.8-1.4-2c-0.8-0.2-1.5,0.1-2.1,0.8
						c-0.2-0.1-0.3-0.1-0.4-0.2c-0.3-0.3-0.7-0.6-1.2-0.7c-1.3-0.2-1.7,0.9-2,1.6c-0.3,0-0.5,0-0.9,0.2c0,0-0.2,0.3-0.4,0.4
						C82.3,25,82.3,25,82.2,25c-0.2-1.2-0.9-1.6-1.2-1.8c-0.3-0.1-0.7-0.1-0.9,0c-1-1-1.9-1-2.5-0.8l0,0c-0.6,0.3-0.9,0.9-0.9,1.6
						c0,0,0.1,0.5,0.2,0.9c0.1,0.1-0.1,0.3-0.2,0.4c-0.6-0.2-1.2-0.1-1.8,0.3C74.3,26,74,26.6,74,27.2c0,0.5,0.2,0.9,0.3,1.3
						c-0.3,0.3-0.5,0.6-0.5,0.9v0.3c0,0,0.1,0.3,0.1,0.4c-0.4,0.1-0.9,0.3-1.3,0.6c-0.3,0.3-0.3,0.6-0.4,0.9
						c-0.3-0.8-0.8-1.2-1.5-1.3c-0.3,0-0.7,0.2-0.9,0.4c-0.6-0.4-1.2-0.4-1.6-0.3c-0.4,0.2-1.1,0.7-1.1,1.9c0,0,0,0.3,0.1,0.6
						c-0.3,0.2-0.5,0.3-0.6,0.7l0,0c0,0,0,0,0,0.1l0,0c0,0.1-0.1,0.3-0.1,0.5l0,0c0,0.3,0.2,0.7,0.3,0.9l0,0
						c-0.2,0.1-0.7,0.3-0.9,0.9c-0.6,0.1-1.1,0.4-1.5,1c0,0.1-0.3,0.9-0.3,0.9v0.1l0.2,0.8c0.2,0.4,0.5,0.7,0.9,0.9
						c0,0,0.1,0.1,0.1,0.2S65.3,40.3,65.3,40.3z M66,39.6l-0.3-0.2c-0.5-0.3-0.8-0.4-0.9-0.8c0,0-0.1-0.4-0.2-0.6
						c0-0.1,0.2-0.9,0.2-0.9v0.2c0.3-0.5,0.6-0.7,1.1-0.7h0.3l0.1-0.3c0.1-0.4,0.4-0.6,0.5-0.7l1-0.2l-0.4-0.4
						c-0.3-0.3-0.5-0.6-0.5-0.9l0.1-0.3c0.1-0.3,0.3-0.3,0.6-0.5l0.2-0.1l-0.1-0.9c0-0.6,0.3-1,0.8-1.2c0.3-0.2,0.8-0.1,1.1,0.3
						l0.3,0.3l0.2-0.3c0.2-0.3,0.4-0.4,0.7-0.3c0.3,0,0.8,0.2,1,1.2l0.1,0.3c0,0,0.3-0.2,0.5-0.1c0.2,0.1,0.4,0.3,0.4,0.3l0.2-0.3
						l-0.1-0.6l0,0c0-0.3,0.1-0.4,0.3-0.7c0.3-0.3,0.7-0.5,1.2-0.5h0.4l-0.2-0.5l-0.1-0.6v-0.2c0-0.3,0.2-0.4,0.5-0.7l0.3-0.2
						l-0.1-0.3c-0.2-0.3-0.3-0.8-0.3-1.2s0.2-0.8,0.5-1c0.3-0.3,0.8-0.4,1.5-0.2l0.3,0.1l-0.1-0.1c0.1-0.2,0.3-0.3,0.5-0.4l0.3-0.1
						l-0.1-0.3l-0.2-0.9c0-0.3,0.1-0.8,0.6-0.9c0.6-0.3,1.2,0,1.9,0.8l0.2,0.2l0.1-0.2c0.3-0.1,0.4-0.1,0.7,0
						c0.4,0.2,0.7,0.6,0.8,1.4v0.2l0.3,0.1l0.2,0.1l0.3,0.3l0.2,0.1l0.3-0.3l0.3-0.3c0.3-0.2,0.4-0.2,0.7-0.1l0.3,0.1l0.2-0.3
						c0.3-0.9,0.7-1.6,1.4-1.5c0.3,0,0.6,0.2,0.9,0.5l0.1,0.1H87c0.2,0,0.3,0.1,0.5,0.2l0.3,0.2l0.2-0.3c0.5-0.6,1-0.9,1.6-0.7
						c0.4,0.1,0.9,0.4,0.9,1.3v0.4l0.3,0.1c0.3,0.1,0.5,0.3,0.8,0.7l0.2,0.5c0,0.3-0.2,0.6-0.6,0.9l-0.3,0.2l0.1,0.2l0.2,0.9
						l0.4-0.3c0.3-0.3,0.7-0.4,0.9-0.4c0.3,0,0.8,0.2,1,0.5c0.3,0.3,0.4,0.5,0.4,0.9l-0.1,0.5l0.5,0.1l0.3-0.1L95,30l0.2,0.2
						l0.2-0.2c0.4-0.4,0.9-0.8,1.5-0.7c0.3,0.1,0.5,0.3,0.7,0.4l0.2,0.2l0.3-0.1c0.8-0.3,1.4-0.1,1.7,0.3c0.2,0.2,0.3,0.4,0.3,0.7
						v0.3c-0.1,0.3-0.3,0.5-0.7,0.9L99,32.1l0.2,1l0.3-0.1c0.5-0.2,0.9-0.2,1.2-0.1c0.3,0.1,0.5,0.3,0.6,0.6l0.1,0.6
						c0-0.1-0.2,0.5-0.2,0.5l-0.1,0.3l0.2,0.2l0.2,0.2c0,0.1,0.1,0.3,0.1,0.4l0.1,0.3l0.3-0.1c0.8-0.2,1.2,0,1.5,0.6l0.2,0.8
						c0,0.4-0.3,0.9-0.9,1.2l-0.2,0.2l0.1,0.3l0.1,0.4l-0.1,0.4c-0.3,0.7-1.3,0.5-2.2,0.3l-0.3-0.1l-0.1,0.4
						c-0.1,0.3-0.3,0.4-0.6,0.6l-0.3,0.1l0.1,0.3l0.1,0.3V42l-0.2,0.7l0.6-0.3c0.9-0.5,1.6-0.6,2-0.1c0.3,0.3,0.3,0.5,0.3,0.8v0.3
						l0.3,0.1c0.9,0.3,1.4,0.7,1.4,1.4V45c-0.1,0.3-0.3,0.6-0.5,0.9c-0.3,0.3-0.7,0.3-1,0.2h-0.3l-0.1,0.3c-0.1,0.3-0.3,0.6-0.5,0.7
						c-0.3,0.2-0.8,0.1-1.1-0.1l-0.2-0.1L100,47l-0.3,0.3l-0.1,0.1l-0.1,0.3c-0.2,0.3-0.4,0.5-0.9,0.5h-0.3l-0.1,0.2
						c-0.1,0.2-0.2,0.3-0.3,0.4l-0.3,0.1L97.4,49l-0.1,0.4l0.1,0.2c0.2,0.2,0.3,0.3,0.3,0.7c0,0.1-0.3,0.7-0.3,0.7
						c-0.2,0.2-0.5,0.5-1.4,0.3h-0.2l-0.1,0.2c-0.2,0.2-0.3,0.3-0.8,0.3s-0.7-0.2-1-0.4l-0.2-0.2l-0.2,0.2c-0.2,0.2-0.4,0.2-0.7,0.2
						c-0.6-0.1-0.9-0.7-1.2-1.4l-0.1-0.1h-0.2l-0.9-0.7c-0.1-0.1-0.3-0.3-0.4-1.3l-0.1-0.4l-0.3,0.2c-0.7,0.4-1.4,1-1.9,1.7
						c-0.7,1.1-0.9,2.5-0.9,3.5c0,1.3,0.3,2.5,0.4,2.8l0.1,0.1c0.3,0.6,0.8,1.5,2.8,2.2l0.3,0.1c1.7,0.8,2.4,1,2.8,1.6l0.1,0.1
						l0.9,0.3l0.1-0.1c0.3-0.2,0.7-0.3,1-0.3c0.9,0,1.6,0.3,2.1,1c0.3,0.5,0.5,1.5,0.1,2.3c-0.3,0.8-1.1,1.2-2.2,1.1
						c-0.3,0-0.8-0.1-1.2-0.3l-0.2-0.1L94,64.2c-0.3,0.1-0.5,0.3-1.1,0.3c-0.3,0-0.7-0.1-0.9-0.3l-0.2-0.1l-0.2,0.1
						c-0.3,0.2-0.6,0.3-1,0.3c-0.3,0-0.6-0.2-0.9-0.3l-0.2-0.1l-0.2,0.1c-0.2,0.1-0.5,0.3-1.1,0.3c-0.3,0-0.7-0.1-0.9-0.3l0.1,0.1
						l-0.2,0.1c-0.3,0.2-0.6,0.3-1,0.3c-0.3,0-0.6-0.2-0.9-0.3l-0.2-0.1l-0.2,0.1c-0.1,0.1-0.4,0.3-0.9,0.3c-0.3,0-0.6-0.1-0.9-0.3
						l-0.2-0.1l-0.2,0.1c-0.3,0.2-0.6,0.3-1,0.3c-0.3,0-0.6-0.2-0.9-0.3l-0.2-0.1v0.1c-0.2,0.1-0.5,0.3-1.1,0.3
						c-0.3,0-0.7-0.1-0.9-0.3l-0.2-0.1l-0.2,0.1c-0.2,0.2-0.5,0.3-0.9,0.3s-0.6-0.2-0.9-0.3l-0.2-0.1l-0.2,0.1
						c-0.3,0.2-0.8,0.3-1.2,0.3c-0.3,0-0.7-0.1-1-0.3l-0.1-0.1l-0.2,0.1c-0.3,0.2-0.7,0.3-1,0.3c-0.9,0-1.6-0.3-2.1-1
						c-0.3-0.5-0.4-1.6-0.1-2.3c0.3-0.4,0.8-1.1,2.2-1.1c0.3,0,0.8,0.1,1.2,0.3l0.2,0.1l0.2-0.1c0.3-0.1,0.5-0.3,1.1-0.3h0.3
						l0.1-0.1c0.9-0.7,2.5-1.5,3.5-2l0.5-0.3c1.1-0.6,1.9-1.7,2.2-3.4v-0.1l-0.9-1.6c-0.8-1.2-1.1-1.8-1.2-2.1c-0.2-0.3-1-1.6-2-2.3
						l-0.5-0.2l-0.2,0.4c-0.3,1.1-0.8,1.6-1,1.6c0,0-0.3,0.1-0.5,0.1c-0.1-0.1-0.3-0.3-0.3-0.3l-0.2,0.5c-0.3,0.6-0.6,1.2-1.5,1.4
						c-0.3,0.1-0.8,0.1-1-0.4l-0.2-0.3l-0.3,0.2c-0.9,0.4-1.6,0.7-2.1,0.2c-0.2-0.3-0.3-0.5-0.3-0.8c0-0.4,0.2-0.8,0.6-1.2l-0.3-0.5
						c-0.9,0.6-1.5,0.7-2,0.3c-0.3-0.2-0.3-0.4-0.3-0.6l-0.1-0.3h-0.3c-0.8,0-1.2-0.3-1.5-0.9c0,0-0.1-0.3-0.1-0.4s0.1-0.3,0.1-0.4
						l0.7-0.5l-0.8-0.1c-0.3,0-0.5-0.2-0.8-0.3c-0.3-0.2-0.3-0.4-0.3-0.7l0.1-0.5l-0.3-0.2c-0.7-0.3-1-0.7-1-1.2v-0.3
						c0.1-0.3,0.2-0.5,0.4-0.7s0.6-0.2,0.9-0.2l0.3,0.1v-0.3c0-0.3,0.2-0.8,0.7-0.9l0.6-0.1h0.2l-0.2-0.2c0,0-0.3-0.4-0.2-0.6
						C65.8,39.8,66,39.6,66,39.6z"/>
				</g>
			</g>
			<path class="st1" d="M80.2,63.1c0.3,0.4,0.9,0.7,1.4,0.7c0.6,0,0.8-0.3,0.9-0.3c0.1-0.1,0.3-0.2,0.4-0.1c0,0,0.3,0.3,0.9,0.3
				c0.3,0,0.5-0.1,0.6-0.1c-0.1-0.1-0.2-0.2-0.2-0.3l-1.3-1.8c-0.3-0.4-0.9-0.7-1.4-0.7c-0.6,0-0.8,0.3-0.9,0.3
				c-0.1,0.1-0.3,0.2-0.4,0.1c0,0-0.3-0.3-0.9-0.3c-0.3,0-0.5,0.1-0.6,0.1c0.1,0.1,0.2,0.2,0.2,0.2L80.2,63.1z"/>
			<path class="st1" d="M70.8,63.1c-0.2-0.3-0.3-1,0-1.6c0.3-0.5,0.8-0.7,1.5-0.7c0.5,0,1.3,0.3,1.6,0.7l1.3,1.9
				c0.1,0.1,0.2,0.1,0.3,0.2c-0.2,0.1-0.4,0.1-0.8,0.1c-0.7,0-1-0.3-1-0.3c-0.1-0.1-0.3-0.1-0.4,0.1c0,0-0.3,0.3-0.9,0.3
				C71.5,63.8,71.1,63.7,70.8,63.1z"/>
			<path class="st1" d="M78.1,34.5c0.3-0.2,0.6-0.4,1-0.7c0.5-0.3,1-0.5,1.5-0.6c-0.5-1-1.2-1-1.6-1.1L78.6,32
				c-0.1,0-0.1-0.1-0.1-0.1c-0.1-0.1-0.3-0.3-0.4-0.3c0,0.1,0,0.3,0,0.4v0.3L78,32.7C77.8,32.9,77.6,33.6,78.1,34.5z"/>
			<path class="st1" d="M84.9,31.9L84.9,31.9C84.8,31.9,84.8,31.8,84.9,31.9L84.9,31.9z"/>
			<path class="st1" d="M71.8,38.4l-0.1,0.3L71.2,39c-0.1,0.1-0.2,0.1-0.3,0.1l0,0c-0.3,0.1-0.5,0.2-0.6,0.4
				c-0.1,0.3,0.2,0.5,0.5,0.8l0.3,0.3c0,0.1,0,0.2,0,0.3c0.3-0.1,0.8-0.1,1.2,0.1c0.1-0.1,0.2-0.1,0.3-0.1c0.5-0.1,1,0.2,1.3,0.4
				c0.1-0.3,0.3-0.6,0.7-0.5c0.5,0.1,0.9,0.5,1.1,0.9c0.1-0.1,0.2-0.3,0.3-0.3v-0.1c0-0.2,0-0.4,0.1-0.5c0,0,0.2-0.2,0.3-0.2l0,0
				c-0.2-0.2-0.3-0.3-0.5-0.6c-0.6,0.3-1.6,0.4-2.3,0.2c-0.4-0.2-0.7-0.5-0.8-0.9c-0.4-0.3-0.7-0.6-0.9-0.9
				C71.9,38.1,71.9,38.2,71.8,38.4z"/>
			<path class="st1" d="M70.2,41.9c-0.2,0-0.4,0-0.5,0.2c-0.1,0.2,0,0.3,0.1,0.5l0.1,0.1l0.1,0.3l0.3,0.7c0.3,0.4,0.7,0.7,0.9,0.9
				l1.1-1.9c-0.2-0.2-0.4-0.5-0.4-0.9c0-0.2,0-0.3,0.1-0.4c-0.7-0.2-1.1,0.2-1.4,0.3l-0.2,0.2H70.2z"/>
			<path class="st1" d="M89.5,39.5C89.5,39.4,89.5,39.4,89.5,39.5c0.4-0.4,0.9-0.9,1.5-0.9c-0.3-0.3-0.3-0.8-0.3-1.2
				c-0.2,0.4-0.7,0.8-1.1,0.9c0.1,0.1,0.2,0.2,0.3,0.3c0,0.1,0,0.2,0,0.2C89.7,39,89.6,39.2,89.5,39.5
				C89.5,39.4,89.5,39.4,89.5,39.5z"/>
			<path class="st1" d="M94.5,41C94.5,41,94.5,41,94.5,41C94.4,40.9,94.4,40.9,94.5,41L94.5,41z"/>
			<path class="st1" d="M91.9,40.6c0.1,0.2-0.9,0.6-1.7,0.9c-0.3,0.1-0.7,0.3-1,0.4l0,0c-0.3,0.2-0.5,0.4-0.8,0.8
				c0.3,0.2,1.5,0.4,1.7,0.4V43c0-0.2,0.1-0.4,0.3-0.5h0.5c0.4,0.1,1,0.3,1.5,0l-0.1-0.1l-0.2-0.4c0-0.1-0.1-0.1,0-0.2
				c0.1-0.1,0.1,0,0.2-0.1h0.6c0.3,0,0.4,0.1,0.6,0.1c0.1,0,0.1,0,0.2,0c0.2,0,0.3-0.1,0.3-0.3l-0.1-0.3l-0.1-0.4
				c0-0.3,0.3-0.3,0.4-0.5c0.4-0.3,0.7-0.4,0.5-0.8c-0.1-0.2-0.7-0.1-0.9,0h-0.6l-0.3-0.3c-0.1-0.1-0.1-0.2-0.3-0.3
				c-0.1-0.1-0.4,0.2-0.6,0.3c-0.3,0.2-0.4,0.3-0.7,0.2L91,39.1L90.9,39c-0.1-0.1-0.3,0.1-1.1,0.8l-0.6,0.4c-0.1,0-0.3,0-0.3-0.3
				c-0.3,0.1-0.8,0.9-0.9,1.6c0.4-0.2,1.3-0.5,2-0.7C90.8,40.7,91.8,40.5,91.9,40.6z"/>
			<path class="st1" d="M72.8,36.1l-0.3,0.1h-0.3h-0.2v0.1l0.1,0.4l0,0c0,0.6,0.3,1.5,0.9,1.8l0,0c0,0,0.1,0,0.3-0.3
				c0.6-0.6,1.1-1.7,1.1-2.1C73.9,36,73.2,36.1,72.8,36.1z"/>
			<path class="st1" d="M100.2,35.8c-0.1,0.1-0.2,0.1-0.3,0.2c0.3,0.2,0.5,0.4,0.5,0.9V37c-0.1,0.9-1.4,0.9-2.2,0.9
				c0.1,0.2,0.2,0.3,0.2,0.6c0,0.1,0,0.2-0.1,0.3c-0.4,1-2.2,0.9-2.9,0.9c0,0.1,0,0.1,0,0.2s0,0.3-0.1,0.3c0.2,0,0.4,0.1,0.5,0.2
				l0.1,0.1c0.9-0.1,1.6,0,2,0.2c0.1-0.2,0.3-0.2,0.6-0.2c0.5,0.1,0.9,0.1,0.9-0.2v-0.2c0-0.2,0-0.4,0.3-0.6c0.2-0.2,0.5-0.1,1,0
				s1.3,0.3,1.5,0c0-0.1-0.1-0.3-0.2-0.3c-0.1-0.2-0.3-0.4-0.2-0.7l0.3-0.3c0.7-0.3,0.9-0.6,0.7-1.2c-0.2-0.3-0.3-0.3-0.9-0.1
				c-0.3,0.1-0.8,0.3-0.9-0.2v-0.5c0-0.2,0-0.3,0-0.4c0,0-0.2-0.2-0.5-0.2C100.3,35.6,100.3,35.7,100.2,35.8z"/>
			<path class="st1" d="M90.3,36.4c0.1,0.1,0.3,0.3,0.3,0.3c0.1-0.3,0.2-0.5,0.3-0.8c0.4-0.8,1.3-1,1.6-0.9c0.5-0.3,1.1-0.4,1.7-0.3
				c0.1-0.3,0.4-0.8,0.9-1c0-0.1,0-0.3-0.3-0.5c-0.3-0.3-0.7-0.1-1.1,0.2c-0.3,0.2-0.5,0.3-0.8,0.3c0,0-0.3-0.3-0.3-0.3
				c-0.1-0.2-0.3-0.5-0.4-0.6c-0.2,0.1-0.3,0.2-0.4,0.3c0.1,0.1,0.2,0.3,0.2,0.5c0,0.1,0,0.2-0.1,0.3c-0.1,0.3-0.5,0.7-0.7,0.9
				c0.1,0.2,0.1,0.3,0.1,0.5C91.1,35.5,90.9,36,90.3,36.4z"/>
			<path class="st1" d="M87.8,33.2c0.1-0.9-0.2-1.4-0.3-1.6l-0.1-0.2c0-0.2-0.1-0.3-0.3-0.3s-0.3,0.1-0.4,0.2l-0.2,0.1
				c-0.3,0.1-1.1,0.5-1.4,1.2C86.3,32.6,87.6,33,87.8,33.2L87.8,33.2z"/>
			<path class="st1" d="M95.3,35.3l-0.2,0.1l-0.4,0.1c-0.1,0-0.1,0-0.1,0c-0.3-0.1-0.9-0.3-1.8,0.3c-0.1,1.3,0.8,1.8,1.7,2.2
				c0.6-0.5,0.7-1.1,0.7-1.6c0-0.1,0-0.3,0-0.3v-0.2l0.1-0.3C95.2,35.5,95.2,35.3,95.3,35.3z"/>
			<path class="st1" d="M88.5,43.9c0.2-0.1,0.3-0.1,0.3-0.3c-0.3-0.1-0.6-0.2-0.8-0.3c-0.2,0.3-0.4,0.8-0.5,1.2
				c-0.3,0.6-0.3,1.5-0.3,2.2c0,0.1,0,0.2,0,0.3c0.3-0.3,0.5-0.6,0.8-0.9c-0.3-0.4-0.3-1.1,0-1.6L88.5,43.9z"/>
			<path class="st1" d="M93.2,43c0.2-0.2,0.3-0.3,0.3-0.3c0,0,0,0,0-0.1c0-0.1,0-0.1,0-0.2c-0.2,0-0.4,0-0.6,0
				c0,0.1,0.1,0.2,0.1,0.2c0,0.2-0.1,0.3-0.2,0.4c-0.7,0.6-1.6,0.3-2.1,0.3c0,0,0,0-0.1,0c0,0.2-0.1,0.4-0.3,0.6
				c-0.2,0.1-0.5,0.1-0.9,0c-0.1,0.4-0.3,0.6-0.6,0.8l-0.3,0.3c-0.2,0.3-0.2,0.5-0.1,0.8c0.3-0.3,0.6-0.5,0.9-0.7
				c0,0,0.5-0.3,0.9-0.5c0.1-0.1,0.9-0.4,1.1-0.2s-0.7,0.5-0.9,0.5c-0.3,0.2-0.5,0.3-0.7,0.5c-0.2,0.3-0.3,0.8-0.5,1.1
				c0.3-0.1,0.6-0.1,0.9-0.1l0.4-0.1c0.3-0.1,0.8-0.2,0.9-0.3l0.1-0.1v-0.2c-0.1-0.1-0.2-0.3-0.2-0.4c0-0.1,0-0.2,0.1-0.3l0.6-0.2
				c0.7-0.1,1-0.2,1.1-0.5c0,0,0,0,0-0.1c0-0.2-0.1-0.2-0.2-0.3c-0.1-0.1-0.2-0.2-0.2-0.4c0-0.1,0-0.1,0-0.2L93.2,43z"/>
			<path class="st1" d="M98.5,33.7c-0.1-0.2-0.1-0.3-0.3-0.3c-0.4-0.1-0.8,0.3-1.1,0.7c-0.3,0.3-0.4,0.5-0.8,0.4L96,34.4
				c-0.2-0.2-0.3-0.3-0.6-0.2c-0.2,0.1-0.4,0.3-0.6,0.6c0.2-0.1,0.5-0.2,0.8,0.1c0.3,0.3,0.2,0.7,0.1,0.9c0,0,0,0.1,0,0.2
				c0,0.2,0,0.4,0,0.7c0.6-0.3,1.6-1.1,1.8-1c0.2,0.1-0.8,1.1-1.7,1.7c-0.2,0.1-0.4,0.3-0.4,0.3c-0.2,0.3-0.3,0.4-0.5,0.7
				c0,0.2,0,0.4-0.1,0.6c0.2,0,0.3,0.1,0.4,0.2h0.3c0.5,0,2.2,0.1,2.4-0.5c0.1-0.2-0.2-0.4-0.3-0.5c-0.1-0.2-0.2-0.3-0.2-0.5
				c0.1-0.3,0.3-0.2,0.7-0.2c1.6,0,1.8-0.2,1.8-0.3c0-0.3-0.2-0.4-0.4-0.5l-0.3-0.4c-0.1-0.1-0.1-0.1,0-0.3c0.1-0.3,0.3-0.4,0.7-0.7
				c0.1-0.1,0.2-0.1,0.3-0.2l0.1-0.1c0.4-0.3,0.6-0.6,0.4-1c-0.1-0.2-0.2-0.2-0.2-0.2c-0.3-0.2-0.9,0.2-1.2,0.3l-0.3,0.1
				C98.6,34.1,98.5,33.9,98.5,33.7z"/>
			<path class="st1" d="M98.1,41.6c-0.3-0.4-1.1-0.5-2.2-0.4c-0.1,0.3-0.2,0.9-0.1,1.6c0.1,0.5,0.3,0.9,0.5,1.2
				c0,0.1,0.1,0.1,0.1,0.2c1.4-0.3,1.6-1,1.8-1.4l0.1-0.3l0.3-0.3l0.2-0.2c0-0.1-0.3-0.2-0.3-0.2C98.4,41.7,98.1,41.6,98.1,41.6z"/>
			<path class="st1" d="M86.7,42.3c0.1,0,0.2-0.1,0.2-0.1c0.1-0.1,0.3-0.1,0.3-0.2c0.1-0.3,0.2-0.7,0.3-1.2c-0.4,0.3-0.9,0.3-1,0.4
				C86.6,41.5,86.7,41.8,86.7,42.3C86.7,42.2,86.7,42.3,86.7,42.3z"/>
			<path class="st1" d="M89,38.6L89,38.6l-0.4-0.2c-0.1-0.1-0.2,0-0.2-0.1s0-0.1,0.1-0.2l0.4-0.4c0.3-0.2,1.1-0.6,1-0.9l-0.2-0.1
				l-0.3-0.3c-0.1-0.2,0.1-0.3,0.3-0.4c0.5-0.3,0.9-0.9,0.7-1.4h-0.3l-0.4-0.1c-0.2-0.1-0.3-0.3-0.3-0.6c0-0.2,0-0.6-0.2-0.6
				c0,0-0.2-0.1-0.9,0.5l-0.2,0.1c-0.2,0.1-0.3,0-0.4-0.1l-0.2-0.1c-0.3,0-0.5,0.9-0.5,1.2l-0.2,0.3c-0.2,0.2-0.3,0.2-0.5,0
				l-0.1-0.1c-0.2,0.1-0.3,0.2-0.4,0.3c-0.1,0.1-0.1,0.3-0.1,0.3c0,0.4,0.2,0.9,0.3,1.2c0.1,0.1,0.1,0.3,0.1,0.4
				c0,0.1-0.1,0.2-0.2,0.3L85.9,38c-0.1,0-0.2,0-0.3,0.1c-0.1,0.1-0.2,0.3-0.2,0.4c0,0.4,0.3,1,0.4,1.5c0.1-0.2,0.1-0.3,0.2-0.5
				c0.2-0.6,1.2-2.5,1.5-2.3s-0.9,2-1,2.6c-0.1,0.3-0.2,0.6-0.3,0.9C87.4,40.3,89.2,39.3,89,38.6z"/>
			<path class="st1" d="M79,40.7c0-0.3,0.3-0.7,0.4-0.9c-0.1-0.3-0.3-0.5-0.3-0.8s0.1-0.6,0.4-0.9c-0.2-0.2-0.4-0.2-0.7,0
				c-0.2,0.1-0.3,0.2-0.5,0c0,0-0.1-0.1-0.1-0.2c-0.1-0.3-0.4-0.9-0.7-1h-0.2c-0.5,0.3-0.5,0.8-0.5,1.4c0,0.3,0,0.4-0.1,0.6
				l-0.3,0.2c-0.2,0.1-0.2,0.1-0.2,0.1c-0.1,0.3,0.2,0.6,0.4,0.9c0.2,0.2,0.3,0.3,0.3,0.5c0,0-0.3,0.4-0.4,0.5c0,0.1,0,0.3,0,0.3
				v0.1c0.3,0.3,0.6,0.9,0.7,1.5l0.1-0.1l0.4,0.1c0.1,0,0.1,0.1,0.2,0.1c-0.1-0.3-0.1-0.5-0.2-0.9c-0.2-1.4-0.1-1.8,0.1-1.9
				s0.3,0.4,0.5,1.9c0.1,0.8,0.3,1.4,0.3,1.6c0.1,0.1,0.3,0.2,0.3,0.3c0.3-0.2,0.9-0.6,0.9-1v-0.2l0,0c-0.1-0.2-0.1-0.3-0.1-0.4
				c0-0.3,0.1-0.5,0.3-0.6C79.9,41.7,79,41.6,79,40.7z"/>
			<path class="st1" d="M82.5,51c0-0.1,0.1-0.3,0.1-0.6c0-0.4-0.1-1.2-0.3-2.2c-0.4-2.4-1.7-2.8-2.3-3c0,0,0,0-0.1,0
				c0.2,0.4,0.3,0.9,0.3,1.6c0,0.1,0,0.3,0,0.3C80.2,48.9,81.9,50.5,82.5,51z"/>
			<path class="st1" d="M75.8,44.2c0.4,0.3,0.8,0.6,1.1,0.8c0,0,0.1,0,0.1,0.1l0,0c0.5,0.3,1,0.5,1.1,0.4v-0.2
				c-0.1-1.3-0.3-1.7-0.4-1.8c-0.1,0-0.2,0.2-0.3,0.3c-0.1,0.1-0.3,0.2-0.3,0.2s-0.2-0.2-0.2-0.3c0.1-0.9-0.4-1.6-0.6-1.8
				c-0.1,0-0.3,0.3-0.3,0.5c0,0.2-0.2,0.3-0.3,0.3s-0.3-0.2-0.3-0.3c0-0.3-0.2-0.9-0.8-1.1c0,0.1-0.1,0.2-0.1,0.2
				c-0.1,0.2-0.3,0.5-0.5,0.3l-0.2-0.1c-0.2-0.1-0.7-0.4-0.9-0.4c-0.1,0-0.2,0.1-0.3,0.2c-0.2,0.3-0.1,0.6,0.3,0.9l0.3,0.4
				c0,0.3-0.3,0.4-0.4,0.4c-0.1,0.1-0.3,0.1-0.3,0.2c0,0.3,0.2,0.3,0.8,0.4l0.4,0.2c0.3,0.3-0.1,0.5-0.2,0.7c0,0-0.2,0.3-0.2,0.2
				c0.2,0.4,0.5,0.5,1,0.6h0.1l0,0c0.2,0,0.3,0,0.4,0c0.3,0,0.6,0,0.6,0.3l-0.2,0.5c0,0-0.1,0.2-0.2,0.2c0.3,0.3,1,0.3,2.2-0.1
				c0-0.2-0.3-0.6-0.7-0.9c0,0-0.1,0-0.1-0.1c-0.3-0.2-0.8-0.5-1.1-0.8c0,0-0.9-0.8-0.8-1C74.7,43.6,75.8,44.2,75.8,44.2z"/>
			<path class="st1" d="M82.9,44.1L82.9,44.1c0,0.5,0.1,1.3,0.6,2.1c0,0,0.9,1.6,1,1.7c0.2-0.6,0.4-1.5,0.4-1.9c0-0.1,0-0.3,0-0.4
				c0-0.4,0-0.9-0.2-1.4h-0.2C84.1,44.3,83.8,44.4,82.9,44.1z"/>
			<path class="st1" d="M85.8,37.3c-0.2-0.3-0.3-0.9-0.3-1.4c0-0.2,0-0.3,0.1-0.5c0-0.2-0.2-0.5-0.4-0.6c-0.1,0-0.1,0-0.3,0.2
				s-0.3,0.3-0.6,0.3l-0.4-0.4c-0.4-0.5-0.9-1-1.4-0.9c-0.3,0.1-0.3,0.6-0.3,1.4c0,0.3,0.1,0.6-0.3,0.8c-0.2,0.1-0.4,0.2-0.4,0.3
				c-0.1,0.4,0.2,0.7,0.4,0.9l0.1,0.1c0.6,0.2,1.1,0.9,1.4,1.5c0.3-0.2,0.8-0.5,1.2-0.2s0.7,1.3,0.7,1.8l0,0c0.1,0,0.3-0.1,0.4,0
				c-0.3-0.4-0.6-1.2-0.6-1.9c0-0.3,0.1-0.6,0.3-0.9C85.5,37.4,85.7,37.4,85.8,37.3z"/>
			<path class="st1" d="M85.2,42.9c0.3-1.1,0.3-1.7,0.4-1.8h-0.3c-0.2,0-0.4,0.1-0.6-0.1c-0.1-0.1-0.2-0.3-0.2-0.3
				c0-0.3-0.3-1.3-0.5-1.6c-0.1,0-0.3,0.2-0.4,0.3c-0.2,0.2-0.3,0.3-0.5,0.2c-0.1,0-0.2-0.2-0.3-0.3c-0.2-0.6-0.9-1.4-1.1-1.4
				c-0.3,0.1-0.3,0.5-0.3,0.5c0,0.2-0.1,0.3-0.2,0.3c-0.1,0.1-0.3,0-0.3-0.1c-0.1-0.1-0.3-0.3-0.8,0c-0.5,0.3,0,1,0,1
				c0.1,0.1,0.1,0.2,0.1,0.3c0,0.1-0.1,0.2-0.1,0.2c-0.2,0.1-0.4,0.3-0.4,0.5c0,0.3,0.3,0.4,0.9,0.5c0.3,0.1,0.6,0.1,0.6,0.3
				c0,0.3-0.1,0.3-0.2,0.4c-0.2,0.2-0.3,0.3-0.2,0.8c0.1,0.3,0.2,0.3,0.3,0.3c0.3,0.1,0.8-0.1,1.1-0.3l0.6-0.1c0.1,0,0.1-0.1,0.2,0
				c0.1,0.1,0,0.1,0,0.2c0,0,0,0.3,0,0.4l0.3,0.2c0.6,0.3,0.9,0.3,1.4,0.1h0.1c0-0.1-0.1-0.2-0.1-0.3c0,0,0-0.1-0.1-0.1
				c-0.2-0.3-0.4-0.8-0.9-1.1c-0.6-0.5-1.5-1.1-1.4-1.3s1,0.3,1.7,0.9c0.4,0.3,0.7,0.7,0.8,0.8C85,42.6,85.1,42.7,85.2,42.9z"/>
			<path class="st1" d="M85,60.5L85,60.5c0.1-0.3,0-0.6-0.2-0.9c-0.1-0.1-0.3-0.2-0.4-0.2c-0.4,0-0.7,0.3-0.9,0.7c0.1,0,0.3,0,0.3,0
				C84.4,60.3,84.7,60.5,85,60.5z"/>
			<path class="st1" d="M92,61.6c-0.3-0.4-0.9-0.7-1.4-0.7c-0.6,0-0.8,0.3-0.9,0.3c-0.1,0.1-0.3,0.2-0.4,0.1c0,0-0.3-0.3-0.9-0.3
				c-0.3,0-0.5,0.1-0.7,0.1c0.1,0.1,0.2,0.1,0.2,0.2l1.3,1.9c0.3,0.4,0.9,0.7,1.4,0.7c0.6,0,0.8-0.3,0.9-0.3
				c0.1-0.1,0.3-0.2,0.4-0.1c0,0,0.3,0.3,0.9,0.3c0.3,0,0.5-0.1,0.7-0.1c-0.1-0.1-0.2-0.1-0.2-0.2C93.4,63.6,92,61.6,92,61.6z"/>
			<path class="st1" d="M79.1,60.3c0.1,0,0.1,0,0.2,0c0.5,0,0.9,0.2,1.1,0.3c0.1-0.1,0.3-0.2,0.5-0.3c0-0.1,0-0.3,0-0.3
				C80.5,59.9,79.7,59.9,79.1,60.3z"/>
			<path class="st1" d="M72.3,49.3c0-0.2,0.7-0.8,0.9-1c0.6-0.4,0.9-0.7,1.7-0.9c-0.2-0.1-0.3-0.3-0.4-0.4c0-0.1-0.1-0.2-0.1-0.3
				c0-0.2,0.1-0.3,0.2-0.4c-0.1,0-0.3,0-0.3,0c-0.1,0-0.3,0-0.3,0.1l0.2,0.3c0.1,0.2,0.2,0.3,0.1,0.5c0,0.1-0.1,0.2-0.2,0.2
				c-0.2,0.1-0.3,0-0.4-0.1c-0.3-0.2-1-0.5-1.5-0.3l-0.1,0.1l0.2,0.2c0.1,0.1,0.3,0.3,0.3,0.4c0,0.1,0,0.2-0.1,0.3
				c-0.2,0.2-0.3,0.2-0.5,0.1c-0.3-0.1-0.7-0.1-0.9,0.3c-0.3,0.3-0.2,0.4,0,0.6c0.1,0.1,0.3,0.3,0.2,0.6l-0.3,0.3
				c-0.5,0.5-0.8,0.9-0.5,1.3c0.2,0.1,0.9-0.3,1.1-0.3l0.7-0.3c0.4,0,0.6,0.3,0.6,0.6c0.1,0.3,0.1,0.3,0.3,0.2
				c0.7-0.2,0.9-0.6,1-1.1c0.1-0.3,0.3-0.7,0.5-0.9c0.2-0.1,0.3-0.1,0.4-0.1c0.3,0.1,0.3,0.3,0.4,0.4c0,0,0,0,0,0.1
				c0.3-0.3,0.6-0.9,0.8-1.8c0,0,0-0.1,0.1-0.1c-0.3,0.1-0.8,0.2-1,0.3C74.3,48.4,72.4,49.5,72.3,49.3z"/>
			<path class="st1" d="M71.5,47.4c0-0.1-0.1-0.2-0.1-0.3V47c0-0.2,0.2-0.3,0.3-0.4c-0.3-0.1-0.4-0.3-0.5-0.3
				c-0.3-0.3-0.4-0.8-0.3-1c-0.2-0.1-0.4-0.3-0.7-0.5c0,0,0,0-0.1,0c-0.3-0.3-0.8-0.2-0.9,0c0,0.1,0,0.3,0,0.5c0,0.3,0,0.7-0.2,0.9
				c-0.3,0.2-0.5,0-0.9-0.2c-0.3-0.3-0.7-0.4-0.9-0.3l0.1,0.3v0.7l-0.5,0.3c-0.2,0.1-0.4,0.2-0.5,0.3c0,0.1,0,0.2,0,0.3
				c0.1,0.3,0.4,0.3,0.9,0.3l0.6,0.1l0.2,0.5c0,0.2,0,0.3,0.2,0.4c0.3,0.3,1.1-0.3,1.5-0.5l0.4-0.2c0.1-0.1,0.1,0.1,0.3,0.1l0.1,0.1
				c0-0.1,0.1-0.2,0.2-0.3C70.7,47.4,71.1,47.4,71.5,47.4z"/>
			<path class="st1" d="M101.9,44l-0.3-0.1c-0.2-0.1-0.3-0.3-0.2-0.6c0.1-0.2,0.2-0.3-0.1-0.6c-0.3-0.3-1.1,0.2-1.5,0.4
				c-0.3,0.2-0.4,0.3-0.6,0.2S99,43,99,42.9c-0.1-0.2-0.1-0.3-0.2-0.3l-0.1,0.1v0.1c-0.1,0.3-0.3,0.7-0.7,1.1
				c0.9,0.1,2.2,0.3,2.2,0.5c0,0.3-2.2-0.1-2.8-0.1c-0.1,0-0.3,0-0.3,0c-0.2,0.1-0.3,0.1-0.5,0.2c0.1,0.2,0.2,0.3,0.2,0.3l0.4-0.1
				c0.4-0.1,0.9-0.2,1.3,0.1c0.3,0.3,0.4,0.5,0.4,0.8c0,0.2-0.1,0.3-0.1,0.4l0,0c0.2,0.1,0.4,0.2,0.6,0.4c0-0.1,0.1-0.1,0.1-0.3
				l0.2-0.3c0.2-0.2,0.4-0.1,0.7,0.1c0.2,0.1,0.7,0.3,0.9,0.3c0.1-0.1,0.2-0.3,0.2-0.5c0-0.2,0-0.4,0.3-0.5h0.5
				c0.3,0.1,0.7,0.2,0.9,0c0.1-0.1,0.2-0.2,0.2-0.3C103.2,44.4,102.8,44.2,101.9,44z"/>
			<path class="st1" d="M68.3,45.3L68.3,45.3C68.4,45.3,68.4,45.2,68.3,45.3c0.1-0.2,0.1-0.3,0.1-0.3c0-0.3,0.1-0.6,0.3-0.8
				c-0.2,0-0.3-0.1-0.4-0.1C67.7,44,66,44,66,43.7s1.9-0.3,2.6-0.3c0.3,0.1,0.6,0.1,0.9,0.2l-0.2-0.5c0,0-0.1-0.3-0.1-0.3
				c0,0,0-0.1-0.1-0.1l0,0c-0.4-0.6-0.9-1-1.1-1s-0.2,0.1-0.3,0.3c0,0.2-0.1,0.4-0.3,0.4c-0.2,0-0.3-0.1-0.6-0.3
				c-0.3-0.3-0.8-0.7-1.1-0.6c-0.1,0-0.2,0-0.1,0.5c0,0.3,0.1,0.6-0.2,0.7h-0.6c-0.3-0.1-0.6-0.2-0.8,0c0,0-0.1,0.1-0.2,0.3
				c-0.1,0.4,0.3,0.6,0.9,0.9l0.4,0.2c0.2,0.3,0,0.5-0.1,0.6c-0.3,0.3-0.3,0.3-0.1,0.5c0.3,0.3,0.7,0.2,1.1-0.1l0.4-0.2
				c0.1,0,0.2,0,0.3,0C67.4,44.6,68,45,68.3,45.3z"/>
			<path class="st1" d="M90.2,46.9c-0.7-0.1-1.2,0.2-1.2,0.2c-0.1,0.1-0.3,0.1-0.3,0s-0.2-0.2-0.2-0.3c0,0,0,0,0-0.1
				c0-0.2,0.2-0.5,0.3-0.8c-0.7,0.8-1.5,1.7-1.8,2.2c-0.1,0.1-0.3,0.2-0.4,0.1c0,0-0.1-0.1-0.1-0.2V48c0.1-0.3,0.2-0.8,0.2-1.3
				c0-0.8,0.1-1.6,0.3-2.3c0.3-0.8,0.6-1.4,0.9-1.8c-0.3,0.1-0.5,0.3-0.7,0.3c-0.6,0.3-0.8,0.3-0.9,0.2l-0.1-0.7c0-0.1,0-0.2,0-0.3
				c-0.1,0.3-0.2,0.8-0.3,1.3c-0.1,0.2-0.3,0.3-0.3,0.2c-0.1,0-0.1-0.1-0.2-0.1l0,0c0.3,0.8,0.4,1.6,0.4,2.2c0,0.2,0,0.3,0,0.4
				c0,0-0.4,2.7-0.9,2.8c-0.2,0-0.3,0-0.3-0.2L84,48l-0.9-1.5c-0.8-1.3-0.8-2.4-0.8-3v-0.1c-0.4,0.2-0.9,0.4-1.5,0.2l-0.1-0.1
				c-0.2,0.3-0.5,0.7-0.8,0.9l0.2,0.1c0.6,0.2,2.3,0.7,2.8,3.5c0.2,0.8,0.3,1.6,0.3,2.3c0,0.6-0.1,1-0.3,1.3
				c-0.1,0.1-0.3,0.1-0.3,0.1c-0.2-0.1-3.1-2-3-4.8c0.1-1.9-0.6-2.4-0.8-2.4l0,0C79,44.8,79,45,79,45.4c0,0.4-0.2,0.6-0.3,0.8
				c-0.2,0.1-0.3,0.1-0.6,0c0.1,0.2,0.2,0.3,0.2,0.5v0.1c0,0.2-0.2,0.3-0.3,0.4c-0.3,0.1-0.7,0.2-0.9,0.3c1.6,0.5,2.8,2.7,3,3.2
				c0.1,0.3,0.7,1.2,1.2,2c1,1.6,1,1.7,1,1.9c-0.3,2-1.2,3.5-2.6,4.1L79,58.9c-0.9,0.4-2.2,1.1-3,1.7c0,0,0.1,0,0.1,0.1
				c0.2-0.2,0.5-0.3,1.1-0.3c0.4,0,0.8,0.1,1.1,0.3v-0.1c0.7-1.2,2.2-1.2,2.8-1.1c0.1-0.2,0.1-0.4,0.2-0.6c0.1-0.2,0.3-0.4,0.3-0.7
				c0.4-0.7,0.9-2.2,1.1-2.2s0.1,1.2-0.6,2.4c-0.2,0.3-0.3,0.4-0.3,0.7c-0.1,0.3-0.2,0.4-0.2,0.7c0,0,0,0,0,0.1l0,0
				c0,0.2,0,0.3,0,0.5c0.3,0,0.8,0.1,1,0.3c0,0,0,0,0.1,0c0,0,0,0,0-0.1c0.3-0.9,0.9-1.6,1.6-1.6c0.3,0,0.7,0.1,0.9,0.3
				c0.3,0.3,0.4,0.7,0.4,0.9c0.1,0,0.3,0,0.3,0c0.4,0,0.8,0.1,1.1,0.3c0.2-0.2,0.6-0.3,1.2-0.3c0.4,0,0.8,0.1,0.9,0.2v-0.1
				c-0.3-0.6-0.7-0.8-1.4-1c-0.9-0.3-1.9-0.8-2.5-2.3c-0.3-0.8-0.4-1.7-0.5-2.7c0-0.6,0.1-2.6,0.3-2.6s0.3,1.9,0.3,2.5
				c0.1,0.9,0.2,1.8,0.4,2.5c0.5,1.3,1.3,1.6,2.2,2c0.6,0.3,1.2,0.5,1.6,1.2c0,0,0.1,0.2,0.2,0.3c0.2-0.1,0.3-0.1,0.6-0.1
				c0.4,0,0.8,0.2,1.1,0.3c0.2-0.1,0.4-0.3,0.9-0.3c-0.3-0.3-0.9-0.6-2.3-1.2l-0.3-0.1c-2.2-0.9-2.8-1.9-3.2-2.6l-0.1-0.1
				c-0.4-0.7-1.2-4.5,0.4-7C88.3,47.8,89.6,47.2,90.2,46.9C90.2,47,90.2,46.9,90.2,46.9L90.2,46.9z"/>
			<path class="st1" d="M98.5,46.7c-0.2-0.1-0.3-0.2-0.3-0.3l0.1-0.5c0.1-0.2,0.1-0.3-0.2-0.4c-0.1-0.1-0.5,0-0.8,0.1h-0.7
				c-0.2-0.1-0.3-0.2-0.3-0.3l-0.1,0.1c-0.6,0.3-1.7,0.3-2.7-0.3c-0.3,0.3-0.9,0.3-1.3,0.4c0,0,0,0-0.1,0c0.1,0.1,0.1,0.3,0.2,0.3
				c0.9-0.2,1.5-0.1,1.7,0.1c0.2,0.2,0.3,0.3,0.3,0.5c0,0.1,0,0.2,0,0.2c0.2,0,0.4,0.1,0.4,0.1c0.8,0.1,1.2,0.2,1.5,0.4
				c0.1,0.2,0.2,0.3,0.2,0.4c0,0.2-0.1,0.3-0.2,0.4c0.1,0,0.2,0.1,0.2,0.1c0.2,0.1,0.3,0.1,0.5,0.2h0.3c0.3,0,0.4,0.1,0.6,0
				c0,0,0.1-0.1,0.1-0.2l0.2-0.4l0.5-0.1c0.3,0.1,0.5,0,0.5-0.1C99,47,99,46.9,98.5,46.7z"/>
			<path class="st1" d="M96.7,49.9l-0.3-0.4v-0.1c0-0.2,0.2-0.3,0.3-0.4l0.1-0.1c-0.1-0.1-0.4-0.2-0.6-0.3c-0.3-0.1-0.6-0.2-0.7-0.3
				c0-0.1,0-0.1,0-0.2c0-0.2,0.1-0.3,0.1-0.3c0.1-0.1,0.1-0.2,0.1-0.3l0,0c-0.1-0.1-0.8-0.2-1-0.2c-0.7-0.1-0.9-0.1-0.9-0.4v-0.3
				c0,0,0-0.1,0-0.2c-0.1-0.1-0.9-0.2-2.1,0.3c0.4,0.2,0.8,0.4,1.2,0.8c0.4,0.3,0.9,1,0.8,1.1s-0.8-0.3-1.1-0.6
				c-0.4-0.3-1.1-0.6-1.6-0.8c0.1,0.7,0.3,1.6,0.5,1.8c0.1-0.1,0.3-0.3,0.5-0.2c0.2,0.1,0.3,0.3,0.4,0.6s0.4,1.1,0.8,1.1
				c0.3,0,0.3-0.1,0.4-0.2c0.1-0.1,0.2-0.3,0.4-0.3l0.4,0.3c0.2,0.2,0.5,0.5,0.8,0.5c0.3,0,0.3-0.1,0.4-0.3c0.1-0.1,0.2-0.3,0.4-0.3
				l0.3,0.1c0.4,0.2,0.6,0.2,0.8-0.1c0-0.1,0.1-0.1,0.1-0.2C97,50.2,96.9,50,96.7,49.9z"/>
			<path class="st1" d="M87,25.6c0.3-0.1,0.5-0.1,0.8,0.2c0.3,0.3,0.3,0.7,0.3,1c0,0.6-0.3,1.1-0.6,1.5c0.3,0.1,0.5,0.2,0.6,0.4
				c0,0.1,0.1,0.2,0.1,0.3c0,0.3-0.2,0.7-0.3,1c0.3-0.1,0.5-0.1,0.7-0.1v-0.1c0.2-0.5,0.4-1.3,1.1-1.6h0.4c0-0.1,0-0.2,0-0.3
				c0,0,0-0.1-0.1-0.1c-0.2,0-0.3-0.1-0.3-0.3s0-0.3,0.2-0.3c0.3-0.3,1-0.9,0.9-1.1c-0.2-0.3-0.4-0.4-0.6-0.4l-0.3-0.1
				c-0.2-0.2-0.2-0.3-0.1-0.6c0.1-0.6,0-0.9-0.3-1c-0.3-0.1-0.7,0.3-0.9,0.7c-0.2,0.3-0.3,0.5-0.6,0.4L87.2,25
				c-0.1-0.1-0.2-0.2-0.3-0.2c0,0.2,0.1,0.3,0.1,0.5C87.1,25.4,87,25.5,87,25.6z"/>
			<path class="st1" d="M84,28.7c0.5,0.3,0.7,0.8,0.7,1.2c0,0.5-0.3,1-0.3,1.3l0,0c0.1,0,0.3,0,0.3,0c0.1,0,0.2,0,0.2,0
				c0.1-0.3,0.3-1.1,0.5-2c0.2-0.9,0.3-1.6,0.4-1.6c0.3,0,0.3,0.6,0.2,1.5c-0.1,0.8-0.3,1.8-0.4,2.2c0.4-0.3,0.9-0.6,1.2-0.7
				c0.1-0.1,0.3-0.2,0.3-0.2c0.4-0.7,0.7-1.4,0.6-1.6c0-0.1-0.2-0.1-0.4-0.1c-0.2,0-0.3,0-0.5-0.2c-0.1-0.2,0-0.3,0.2-0.5
				c0.4-0.6,0.9-1.2,0.4-2c-0.1,0-0.3,0.1-0.3,0.1c-0.1,0.1-0.3,0.2-0.5,0c-0.1-0.1-0.2-0.3-0.1-0.3c0.1-0.3,0.2-0.9-0.1-1.4
				c-0.1-0.2-0.3-0.3-0.5-0.3c-0.3,0-0.5,0.7-0.6,1c-0.1,0.3-0.2,0.6-0.3,0.7h-0.6c-0.2-0.1-0.3-0.1-0.4,0c-0.3,0.2,0.1,0.9,0.3,1.4
				c0.2,0.4,0.3,0.6,0.2,0.9c-0.1,0.1-0.2,0.2-0.3,0.2c-0.3,0-0.5,0.1-0.7,0.3c0,0.1-0.1,0.1-0.1,0.2C83.4,28.6,83.7,28.5,84,28.7z"
				/>
			<path class="st1" d="M90.2,29.2c0-0.1-0.1-0.3-0.2-0.3h-0.2c-0.4,0.2-0.6,0.9-0.8,1.2c-0.1,0.3-0.2,0.5-0.4,0.5h-0.2
				c-0.2-0.1-0.3-0.1-0.5,0.1c0.2,0.2,0.2,0.3,0.3,0.4v0.1c0.2,0.3,0.3,0.8,0.3,1.2c0.2-0.2,0.3-0.4,0.6-0.7c0.6-0.5,1.3-1,1.4-0.9
				c0.1,0.1-0.4,0.7-0.9,1.2c-0.2,0.2-0.3,0.3-0.4,0.5c0.2-0.1,0.4-0.1,0.6,0c0.4,0.3,0.4,0.8,0.5,1.1c0,0,0,0.1,0,0.2
				c0.1,0,0.1,0,0.1,0c0.1,0,0.2,0,0.3,0c0.2-0.1,0.5-0.3,0.6-0.6c0.1-0.2,0-0.3-0.1-0.3c-0.1-0.1-0.2-0.3-0.1-0.4
				c0-0.1,0.2-0.2,0.3-0.3c0.3-0.1,0.5-0.3,0.7-0.3l0.1-0.1c0.4-0.3,0.5-0.5,0.6-0.6c0-0.3-0.1-0.3-0.3-0.4
				c-0.1-0.1-0.3-0.3-0.3-0.4l0.3-0.5c0.3-0.2,0.5-0.5,0.5-0.8c0-0.1-0.1-0.3-0.2-0.3c-0.2-0.2-0.3-0.3-0.5-0.3
				c-0.3,0-0.8,0.4-1,0.7l-0.5,0.6C90.4,29.8,90.3,29.4,90.2,29.2z"/>
			<path class="st1" d="M93,32.9c0.1-0.1,0.3-0.1,0.3-0.1c0.3-0.2,0.9-0.5,1.5-0.3c0.2-0.1,0.3-0.3,0.7-0.4c0.6-0.3,1.3-0.5,1.4-0.4
				c0.1,0.1-0.5,0.5-1,0.9c-0.2,0.1-0.3,0.2-0.4,0.3c0.3,0.3,0.3,0.5,0.3,0.7c0.3,0,0.6,0.2,0.8,0.3c0,0,0.1,0,0.1,0.1
				c0.1-0.1,0.2-0.2,0.2-0.2c0.3-0.4,0.9-1.1,1.7-0.9c0-0.2-0.1-0.4-0.2-0.6c0-0.1-0.1-0.2,0-0.3c0.1-0.1,0.1-0.2,0.2-0.2
				c0.3-0.1,0.7-0.4,0.8-0.8c0-0.1,0-0.2-0.1-0.3c-0.3-0.3-0.7-0.3-1.2-0.1l-0.5,0.1l-0.3-0.3c-0.1-0.2-0.2-0.3-0.4-0.3
				s-0.7,0.3-0.9,0.6L95.2,31l-0.5-0.3c0,0-0.3-0.2-0.3-0.3c-0.2,0-0.6,0.5-0.7,0.7l-0.3,0.3h-0.2c0,0.3-0.3,0.6-0.6,0.9
				C92.8,32.5,92.9,32.8,93,32.9z"/>
			<path class="st1" d="M68.9,40.3c0.3,0.3,0,0.8-0.3,1.1c0.2,0.1,0.3,0.3,0.4,0.4l0,0c0.3-0.5,0.8-0.4,1-0.5
				c0.1-0.1,0.2-0.2,0.3-0.3V41c0-0.1,0-0.1,0-0.2l-0.1-0.1c-0.3-0.2-0.8-0.5-0.8-1.1c0-0.1,0-0.2,0-0.3c0.1-0.4,0.3-0.6,0.7-0.8
				c-0.1-0.2-0.2-0.4-0.2-0.6c0,0-0.1-0.3-0.1-0.3l0,0l-0.4,0.1c-0.3,0.1-0.7,0.3-0.9,0l-0.2-0.3l-0.4-0.6c-0.3-0.3-0.8-0.5-1-0.3
				C67,36.6,66.9,36.7,67,37c0,0.2,0.1,0.4-0.2,0.5h-0.4c-0.4-0.2-0.7-0.2-0.9,0.3c-0.1,0.3-0.2,0.4,0,0.6c0.3,0.4,1,0.6,1.3,0.7
				c0.1,0,0.3,0.1,0.3,0.3c0,0.1,0,0.3-0.1,0.3c-0.1,0.1-0.3,0.3-0.3,0.4l0.1,0.2c0.1,0.1,0.3,0.1,0.8-0.1
				C67.9,39.9,68.5,39.7,68.9,40.3z"/>
			<path class="st1" d="M81.3,28.5c-0.3,0.1-0.3,0.7-0.3,1.2c0,0.3,0.1,0.5-0.1,0.7c-0.2,0.2-0.3,0.1-0.5,0.1c-0.2,0-0.3,0-0.3,0.1
				c-0.1,0.2,0.2,0.5,0.7,1.1c0.2,0.3,0.3,0.3,0.3,0.5c0,0.1,0,0.2-0.2,0.3c0.1,0.2,0.2,0.3,0.3,0.5c0.1,0,0.3,0.1,0.3,0.2
				s0.2,0.3,0.3,0.4c0.1-0.1,0.3-0.3,0.4-0.3c-0.1-0.3-0.1-0.5-0.2-0.9c-0.1-0.7-0.2-1.6,0-1.6c0.2-0.1,0.4,0.9,0.6,1.6
				c0.1,0.3,0.2,0.6,0.3,0.9c0.3,0.1,0.6,0.3,0.9,0.4c0-0.3,0.1-0.6,0.3-0.9c0.2-0.2,0.3-0.3,0.6-0.3c0.1-0.3,0.2-0.5,0.3-0.7h-0.3
				c-0.3,0-0.9,0-0.9-0.4l0.1-0.4c0.3-0.8,0.4-1.3-0.1-1.7l-0.3,0.2c-0.2,0.2-0.3,0.3-0.5,0.3l-0.4-0.3
				C82.2,29.1,81.7,28.4,81.3,28.5z"/>
			<path class="st1" d="M77.1,31.1l-0.3,0.6c-0.2,0.1-0.3,0.2-0.3,0.3c0,0.1,0.2,0.2,0.9,0.3c-0.1-0.3-0.1-0.9,0.3-1
				c0.3-0.1,0.6,0,0.8,0.1c-0.1-0.2-0.2-0.4-0.3-0.7c-0.2-0.3-0.8-1-0.6-1.2c0.2-0.2,0.9,0.6,1.2,1c0.3,0.5,0.4,0.9,0.5,1.2
				c0.2,0,0.3,0.1,0.6,0.2c-0.3-0.3-0.4-0.7-0.4-1c0-0.1,0-0.2,0.1-0.3c0.3-0.4,0.6-0.5,0.9-0.5c0-0.1,0-0.1,0-0.1
				c0-0.2,0-0.3,0-0.6c0-0.2,0-0.3,0-0.4c-0.3-0.2-0.4-0.1-0.6,0c-0.1,0.1-0.3,0.2-0.4,0.1c-0.2-0.1-0.2-0.3-0.3-0.5
				c0-0.4-0.1-1.6-0.5-1.6c-0.1,0-0.3,0.3-0.3,0.4c-0.2,0.3-0.3,0.4-0.5,0.5c-0.2,0-0.3-0.1-0.5-0.3c-0.6-0.7-1-0.9-1.6-0.6
				c-0.4,0.3-0.1,0.9,0.3,1.6l0.2,0.5c-0.1,0.2-0.2,0.3-0.3,0.3c-0.3,0.1-0.4,0.2-0.4,0.4c-0.1,0.5,0.5,0.8,1.2,0.9
				C76.8,30.6,77.1,30.7,77.1,31.1z"/>
			<path class="st1" d="M69,36.9L69,36.9c-0.2-0.2-0.4-0.5-0.4-0.5l0,0c0.2-0.2,0.4-0.3,0.6-0.3s0.3-0.1,0.3-0.3
				c0.1-0.3-0.2-0.3-0.3-0.4c-1.3-0.6-1.5-0.9-1.4-1.1c0-0.1,0.3-0.2,0.4-0.3l0.3-0.3c0.2-0.2,0.1-0.3,0-0.7
				c-0.2-0.7-0.2-1.1,0.2-1.3c0.2-0.1,0.3,0.1,0.6,0.4l0.4,0.4c0.3,0.1,0.5-0.3,0.7-0.5c0.1-0.1,0.2-0.3,0.3-0.3
				c0.3,0,0.3,0.8,0.4,1.1c0.1,0.4,0.1,0.7,0.3,0.8c0.3,0.1,0.5-0.2,0.7-0.3c0.1-0.1,0.2-0.2,0.2-0.2c0.3,0.1,0.3,0.6,0.3,0.9
				c0,0.3,0,0.7,0.3,0.8c0.1,0.1,0.4,0.3,0.9-0.1c0.3,0.3,0.9,0.3,1.2,0.3c0,0,0.2,0,0.3,0l0,0c0,0.2-0.1,0.3-0.1,0.4
				c-1.1-0.3-1.9-0.2-2.3-0.1h-0.2h-0.3l-0.6,0.3c0,0,0,0,0,0.1c-0.3-0.3-0.7-0.6-1-0.9c-0.5-0.6-0.8-1.4-0.9-1.3
				c-0.3,0.2,0.1,1.1,0.3,1.6c0.3,0.5,1.1,1.2,1.6,1.5l0,0c0,0.3,0,0.5,0.1,0.9c-0.4,0.2-0.5,0.5-0.5,0.8l0,0c-0.1,0-0.2,0-0.2,0
				l0,0c-0.1-0.1-0.2-0.4-0.2-0.5c-0.1-0.3-0.2-0.6-0.3-0.8c-0.3-0.2-0.6-0.1-0.9,0.1l-0.3,0.1L69,36.9z"/>
			<path class="st1" d="M74.3,33.2l-0.2,0.6L74,34.2c0,0.3,0.3,0.4,0.9,0.5c0.3,0,0.8,0.1,0.9,0.4c0.1,0.2,0,0.3,0,0.5h0.1
				c0.4,0.1,0.9,0.5,1.1,1c0.1-0.1,0.2-0.1,0.3-0.2h0.6c0.4,0.2,0.8,0.8,0.9,1.1c0.3-0.1,0.9-0.3,1.4,0.3c0.3-0.1,0.5,0,0.7,0.1
				c0.1-0.2,0.2-0.3,0.3-0.4c-0.2-0.2-0.4-0.5-0.4-0.9c-0.6,0.3-1.4,0.3-2.2,0c-0.6-0.3-1-0.7-1.1-1.1c-0.1-0.3,0-0.4,0.2-0.6l0,0
				l0,0c-0.5-0.9-0.5-1.7-0.3-2.2c-0.6-0.1-1.3-0.3-1.4-0.8c-0.1,0-0.1,0-0.1,0l-0.5-0.3c-0.6-0.3-1.1-0.7-1.6-0.2
				c-0.3,0.3-0.1,0.5,0.3,0.9C74,32.6,74.3,33.2,74.3,33.2z"/>
			<path class="st1" d="M78.8,26.1c0.9,0.2,1,1.3,1.1,2c0.2-0.1,0.5-0.1,0.9,0.1c0.1-0.1,0.3-0.3,0.4-0.3c0.3-0.1,0.6,0,0.8,0.1
				c0.1-0.7,0.1-1.6,0-1.8c-0.1,0-0.2,0.1-0.3,0.2s-0.3,0.2-0.3,0.1c-0.1-0.1-0.3-0.2-0.2-0.3c0.1-0.6,0-1.5-0.3-1.6
				c-0.3-0.1-0.3,0-0.3,0.1c-0.2,0.3-0.3,0.3-0.5,0.3l-0.3-0.3c-0.3-0.3-0.9-1-1.3-0.9c-0.3,0.2,0,0.9,0.1,1.3
				c0.2,0.3,0.2,0.5,0.1,0.7c-0.1,0.2-0.3,0.2-0.5,0.2c-0.3,0-0.4,0.1-0.4,0.2c0.1,0.3,0.2,0.5,0.3,0.7C78.1,26.4,78.3,26,78.8,26.1
				z"/>
			<path class="st1" d="M84.9,31.9L84.9,31.9C84.8,31.8,84.8,31.9,84.9,31.9L84.9,31.9z"/>
			<path class="st1" d="M94.5,41L94.5,41L94.5,41C94.4,41,94.5,41,94.5,41z"/>
			<path class="st2" d="M89,125.8c0.1,0.3-0.7,0.3-1.1,0.3c-0.6,0-1.3-0.1-1.2-0.3c0-0.3,0.6-0.2,1.2-0.2
				C88.2,125.6,88.9,125.6,89,125.8L89,125.8z"/>
			<path class="st1" d="M71.3,101.4L71.3,101.4h-0.3c-0.1,0-0.2,0-0.3-0.1c0,0-0.8-0.9-1.8-0.9c-0.8,0-1.4,0.3-2,0.5
				c-0.5,0.3-1.1,0.4-1.6,0.4h-1.6c-0.2,0-0.3-0.2-0.3-0.3v-8.8c-0.3,0.2-0.6,0.3-0.7,0.4c0,0.3,0,8.4,0,8.9c0.6,0,7,0,7,0
				c0.1,0,0.2,0,0.3,0.1c0,0,0.5,0.5,1.2,0.6h0.3c0.7-0.1,1.1-0.6,1.1-0.6c0.1-0.1,0.2-0.1,0.3-0.1c0,0,6.4,0,7,0c0-0.6,0-8.6,0-8.9
				c-0.1-0.1-0.4-0.3-0.7-0.4v8.8c0,0.2-0.2,0.3-0.3,0.3h-1.6c-0.5,0-1-0.3-1.6-0.4c-0.6-0.3-1.3-0.5-2-0.5c-1,0-1.8,0.9-1.8,0.9
				c-0.1,0.1-0.2,0.1-0.3,0.1H71.3L71.3,101.4z"/>
			<path class="st1" d="M80.4,102c0,0.2-0.2,0.3-0.3,0.3c0,0-7,0-7.2,0c-0.2,0.2-0.7,0.6-1.4,0.7h-0.4c-0.8-0.1-1.3-0.5-1.5-0.7
				c-0.3,0-7.2,0-7.2,0c-0.2,0-0.3-0.2-0.3-0.3v-9.1c-0.2,0-0.4,0-0.6,0c0,0.6,0,9.6,0,10.1c0.6,0,8.1,0,8.1,0c0.1,0,0.2,0,0.3,0.1
				c0,0,0.3,0.4,1,0.5c0.3,0,0.7,0,0.9,0c0.7-0.1,1-0.5,1-0.5c0.1-0.1,0.2-0.1,0.3-0.1c0,0,7.5,0,8.1,0c0-0.6,0-9.6,0-10.1
				c-0.2,0-0.4,0-0.6,0L80.4,102L80.4,102z"/>
			<path class="st1" d="M68.7,90.7c-1.1,0-1.6,0.4-2.2,0.8c-0.4,0.3-0.8,0.5-1.3,0.5c0,0-0.9,0-1.2,0c0,0.6,0,8.2,0,8.7
				c0.4,0,1.3,0,1.3,0c0.4,0,0.9-0.2,1.4-0.4c0.6-0.3,1.4-0.6,2.2-0.6c0.9,0,1.6,0.5,2.1,0.9c0-0.8,0-8.8,0-8.8
				C70.9,91.8,70.6,90.7,68.7,90.7z M69.7,98.1C69.7,98.2,69.7,98.2,69.7,98.1c-0.3,0.1-0.9,0-1.5,0.1l-0.9,0.4l-0.5,0.3
				c-0.7,0.3-1.2,0.3-1.4,0.3c-0.1,0-0.2-0.1-0.2-0.2s0.1-0.2,0.2-0.2c0.2,0,0.7,0,1.3-0.3l0.5-0.3l1-0.4c0.8-0.2,1.5-0.1,1.5-0.1
				C69.7,97.9,69.7,98,69.7,98.1z M69.7,96.2C69.7,96.3,69.7,96.3,69.7,96.2c-0.3,0.1-0.9,0-1.5,0.1l-0.9,0.4l-0.5,0.3
				c-0.7,0.3-1.2,0.3-1.4,0.3c-0.1,0-0.2-0.1-0.2-0.2s0.1-0.2,0.2-0.2c0.2,0,0.7,0,1.3-0.3l0.5-0.3l1-0.4c0.8-0.2,1.5-0.1,1.5-0.1
				C69.7,96.1,69.7,96.1,69.7,96.2z M69.7,94.4C69.7,94.4,69.7,94.4,69.7,94.4c-0.3,0.1-0.9,0-1.5,0.1l-0.9,0.4l-0.5,0.3
				c-0.7,0.3-1.2,0.3-1.4,0.3c-0.1,0-0.2-0.1-0.2-0.2s0.1-0.2,0.2-0.2c0.2,0,0.7,0,1.3-0.3l0.5-0.3l1-0.4c0.8-0.2,1.5-0.1,1.5-0.1
				C69.7,94.3,69.7,94.3,69.7,94.4z M69.7,92.5C69.7,92.5,69.7,92.5,69.7,92.5c-0.3,0.1-0.9,0-1.5,0.1l-0.9,0.5l-0.5,0.3
				c-0.7,0.3-1.2,0.3-1.4,0.3c-0.1,0-0.2-0.1-0.2-0.2s0.1-0.2,0.2-0.2c0.2,0,0.7,0,1.3-0.3l0.5-0.3l1-0.4c0.8-0.2,1.5-0.1,1.5-0.1
				C69.7,92.4,69.7,92.4,69.7,92.5z"/>
			<path class="st1" d="M71.5,101.4h-0.3l0,0l0,0h-0.3c-0.1,0-0.2,0-0.3-0.1c0,0-0.8-0.9-1.8-0.9c-0.8,0-1.4,0.3-2,0.5
				c-0.5,0.3-1.1,0.4-1.6,0.4h-1.6c-0.2,0-0.3-0.2-0.3-0.3v-8.8c-0.3,0.2-0.6,0.3-0.7,0.4c0,0.3,0,8.4,0,8.9c0.6,0,7,0,7,0
				c0.1,0,0.2,0,0.3,0.1c0,0,0.5,0.5,1.2,0.6h0.3c0.7-0.1,1.1-0.6,1.1-0.6c0.1-0.1,0.2-0.1,0.3-0.1c0,0,6.4,0,7,0c0-0.6,0-8.6,0-8.9
				c-0.1-0.1-0.4-0.3-0.7-0.4v8.8c0,0.2-0.2,0.3-0.3,0.3h-1.6c-0.5,0-1-0.3-1.6-0.4c-0.6-0.3-1.3-0.5-2-0.5c-1,0-1.8,0.9-1.8,0.9
				S71.6,101.4,71.5,101.4z"/>
			<path class="st1" d="M81,92.9c-0.2,0-0.4,0-0.6,0v9.1c0,0.2-0.2,0.3-0.3,0.3c0,0-7,0-7.2,0c-0.2,0.2-0.7,0.6-1.4,0.7h-0.4
				c-0.8-0.1-1.3-0.5-1.5-0.7c-0.3,0-7.2,0-7.2,0c-0.2,0-0.3-0.2-0.3-0.3v-9.1c-0.2,0-0.4,0-0.6,0c0,0.6,0,9.6,0,10.1
				c0.6,0,8.1,0,8.1,0c0.1,0,0.2,0,0.3,0.1c0,0,0.3,0.4,1,0.5c0.3,0,0.7,0,0.9,0c0.7-0.1,1-0.5,1-0.5c0.1-0.1,0.2-0.1,0.3-0.1
				c0,0,7.5,0,8.1,0C81,102.5,81,93.5,81,92.9z"/>
			<path class="st1" d="M77.2,92c-0.5,0-0.9-0.3-1.3-0.5c-0.5-0.3-1.1-0.8-2.2-0.8c-1.9,0-2.2,1-2.2,1s0,8.1,0,8.9
				c0.3-0.3,1.1-0.9,2.1-0.9c0.9,0,1.6,0.3,2.2,0.6c0.5,0.3,0.9,0.4,1.4,0.4c0,0,0.9,0,1.3,0c0-0.6,0-8.2,0-8.7
				C78.1,92,77.2,92,77.2,92z M77.1,99.2c-0.2,0-0.7-0.1-1.4-0.3l-0.5-0.3l-0.9-0.4c-0.5-0.2-1.1-0.1-1.4,0c-0.1,0-0.2,0-0.2-0.1
				s0-0.2,0.1-0.2c0,0,0.8-0.2,1.5,0l1,0.4l0.5,0.3c0.6,0.3,1.1,0.3,1.3,0.3c0.1,0,0.2,0.1,0.2,0.2C77.2,99.1,77.1,99.2,77.1,99.2z
				 M77.1,97.3c-0.2,0-0.7-0.1-1.4-0.3l-0.5-0.3l-0.9-0.4c-0.5-0.2-1.1-0.1-1.4,0c-0.1,0-0.2,0-0.2-0.1c0-0.1,0-0.2,0.1-0.2
				c0,0,0.8-0.2,1.5,0l1,0.4l0.5,0.3c0.6,0.3,1.1,0.3,1.3,0.3c0.1,0,0.2,0.1,0.2,0.2C77.2,97.3,77.1,97.3,77.1,97.3z M77.1,95.5
				c-0.2,0-0.7-0.1-1.4-0.3l-0.5-0.3l-0.9-0.3c-0.6-0.2-1.2-0.1-1.4,0c-0.1,0-0.2,0-0.2-0.1s0-0.2,0.1-0.2c0,0,0.7-0.2,1.5,0l1,0.4
				l0.5,0.3c0.6,0.3,1.1,0.3,1.3,0.3c0.1,0,0.2,0.1,0.2,0.2C77.2,95.4,77.1,95.5,77.1,95.5z M77.1,93.6c-0.2,0-0.7-0.1-1.4-0.3
				l-0.5-0.2l-0.9-0.4c-0.6-0.2-1.1-0.1-1.4,0c-0.1,0-0.2-0.1-0.2-0.1c0-0.1,0-0.1,0.1-0.2c0,0,0.7-0.2,1.5,0l1,0.4l0.5,0.3
				c0.7,0.3,1.1,0.3,1.3,0.3c0.1,0,0.2,0.1,0.2,0.2C77.2,93.6,77.1,93.7,77.1,93.6z"/>
			<path class="st1" d="M96.4,101.4h0.3c0.1,0,0.2,0,0.3-0.1c0,0,0.8-0.9,1.8-0.9c0.8,0,1.4,0.3,2,0.5c0.5,0.3,1.1,0.4,1.6,0.4h1.6
				c0.2,0,0.3-0.2,0.3-0.3v-8.8c0.3,0.2,0.6,0.3,0.7,0.4c0,0.3,0,8.4,0,8.9c-0.6,0-7,0-7,0c-0.1,0-0.2,0-0.3,0.1
				c0,0-0.5,0.5-1.1,0.6h-0.3c-0.7-0.1-1.2-0.6-1.2-0.6c-0.1,0-0.2,0-0.3,0c0,0-6.5,0-7,0c0-0.6,0-8.6,0-8.9
				c0.1-0.1,0.4-0.3,0.7-0.4v8.8c0,0.2,0.2,0.3,0.3,0.3h1.6c0.5,0,1-0.3,1.6-0.4c0.6-0.3,1.3-0.5,2-0.5c1,0,1.8,0.9,1.8,0.9
				c0.1,0.1,0.2,0.1,0.3,0.1L96.4,101.4L96.4,101.4L96.4,101.4z"/>
			<path class="st1" d="M105.5,102c0,0.2-0.2,0.3-0.3,0.3c0,0-7,0-7.2,0c-0.2,0.2-0.7,0.6-1.5,0.7h-0.4c-0.8-0.1-1.3-0.5-1.5-0.7
				c-0.3,0-7.2,0-7.2,0c-0.2,0-0.3-0.2-0.3-0.3v-9.1c-0.2,0-0.4,0-0.6,0c0,0.6,0,9.6,0,10.1c0.6,0,8.1,0,8.1,0c0.1,0,0.2,0,0.3,0.1
				c0,0,0.3,0.4,1,0.5c0.3,0,0.7,0,0.9,0c0.7-0.1,1-0.5,1-0.5c0.1-0.1,0.2-0.1,0.3-0.1c0,0,7.5,0,8.1,0c0-0.6,0-9.6,0-10.1
				c-0.2,0-0.4,0-0.6,0L105.5,102L105.5,102z"/>
			<path class="st1" d="M96.6,101.4h-0.3l0,0l0,0h-0.3c-0.1,0-0.2,0-0.3-0.1c0,0-0.8-0.9-1.8-0.9c-0.7,0-1.4,0.3-2,0.5
				c-0.5,0.3-1.1,0.4-1.6,0.4h-1.6c-0.2,0-0.3-0.2-0.3-0.3v-8.8c-0.3,0.2-0.6,0.3-0.7,0.4c0,0.3,0,8.4,0,8.9c0.6,0,7,0,7,0
				c0.1,0,0.2,0,0.3,0.1c0,0,0.5,0.5,1.2,0.6h0.3c0.7-0.1,1.1-0.6,1.1-0.6c0.1-0.1,0.2-0.1,0.3-0.1c0,0,6.5,0,7,0c0-0.6,0-8.6,0-8.9
				c-0.1-0.1-0.4-0.3-0.7-0.4v8.8c0,0.2-0.2,0.3-0.3,0.3h-1.6c-0.5,0-1-0.3-1.6-0.4c-0.6-0.3-1.3-0.5-2-0.5c-1,0-1.8,0.9-1.8,0.9
				C96.8,101.3,96.7,101.4,96.6,101.4z"/>
			<path class="st1" d="M106.2,92.9c-0.2,0-0.4,0-0.6,0v9.1c0,0.2-0.2,0.3-0.3,0.3c0,0-7,0-7.2,0c-0.2,0.2-0.7,0.6-1.5,0.7h-0.4
				c-0.8-0.1-1.3-0.5-1.5-0.7c-0.3,0-7.2,0-7.2,0c-0.2,0-0.3-0.2-0.3-0.3v-9.1c-0.2,0-0.4,0-0.6,0c0,0.6,0,9.6,0,10.1
				c0.6,0,8.1,0,8.1,0c0.1,0,0.2,0,0.3,0.1c0,0,0.3,0.4,1,0.5c0.3,0,0.7,0,0.9,0c0.7-0.1,1-0.5,1-0.5c0.1-0.1,0.2-0.1,0.3-0.1
				c0,0,7.5,0,8.1,0C106.2,102.5,106.2,93.5,106.2,92.9z"/>
			<path class="st1" d="M93.8,90.7c-1.1,0-1.6,0.4-2.2,0.8c-0.4,0.3-0.8,0.5-1.3,0.5c0,0-0.9,0-1.2,0c0,0.6,0,8.2,0,8.7
				c0.4,0,1.3,0,1.3,0c0.4,0,0.9-0.2,1.4-0.4c0.6-0.3,1.4-0.6,2.2-0.6c0.9,0,1.6,0.5,2.1,0.9c0-0.8,0-8.8,0-8.8
				C96,91.8,95.7,90.7,93.8,90.7z M90.5,93.3c0.2,0,0.7,0,1.3-0.3l0.5-0.3l1-0.4c0.8-0.2,1.5-0.1,1.5-0.1c0.1,0,0.1,0.1,0.1,0.2
				c0,0.1-0.1,0.1-0.2,0.1c-0.2,0-0.8-0.1-1.4,0l-0.9,0.6l-0.5,0.3c-0.7,0.3-1.2,0.3-1.4,0.3c-0.1,0-0.2-0.1-0.2-0.2
				S90.4,93.3,90.5,93.3z M90.5,95.2c0.2,0,0.7-0.1,1.3-0.3l0.5-0.3l1-0.4c0.8-0.2,1.5-0.1,1.5-0.1c0.1,0,0.1,0.1,0.1,0.2
				s-0.1,0.1-0.2,0.1c-0.2,0-0.8-0.1-1.4,0l-0.9,0.5l-0.5,0.3c-0.7,0.3-1.2,0.3-1.4,0.3c-0.1,0-0.2-0.1-0.2-0.2
				C90.3,95.2,90.4,95.2,90.5,95.2z M94.7,98.2c-0.2,0-0.8-0.1-1.4,0l-0.9,0.4l-0.5,0.3c-0.7,0.3-1.2,0.3-1.4,0.3
				c-0.1,0-0.2-0.1-0.2-0.2s0.1-0.2,0.2-0.2c0.2,0,0.7,0,1.3-0.3l0.5-0.3l1-0.4c0.8-0.2,1.5-0.1,1.5,0c0,0,0.1,0,0.1,0.2
				C94.8,98.2,94.7,98.2,94.7,98.2z M94.7,96.3c-0.2,0-0.8-0.1-1.4,0l-0.9,0.4l-0.5,0.3c-0.7,0.3-1.2,0.3-1.4,0.3
				c-0.1,0-0.2-0.1-0.2-0.2s0.1-0.2,0.2-0.2c0.2,0,0.7-0.1,1.3-0.3l0.5-0.3l1-0.4c0.8-0.2,1.5-0.1,1.5,0c0.1,0,0.1,0.1,0.1,0.2
				C94.8,96.3,94.8,96.3,94.7,96.3z"/>
			<path class="st1" d="M98.7,99.8c-0.9,0-1.6,0.5-2.1,0.9c0-0.8,0-8.9,0-8.9s0.3-1,2.2-1c1.1,0,1.6,0.4,2.2,0.8
				c0.4,0.3,0.8,0.5,1.3,0.5c0,0,0.9,0,1.2,0c0,0.6,0,8.2,0,8.7c-0.4,0-1.3,0-1.3,0c-0.4,0-0.9-0.2-1.4-0.4
				C100.3,100.1,99.6,99.8,98.7,99.8z M97.9,94.2c-0.1,0-0.1,0.1-0.1,0.2s0.1,0.1,0.2,0.1c0.2,0,0.8-0.1,1.4,0l0.9,0.4l0.5,0.3
				c0.7,0.3,1.2,0.3,1.4,0.3c0.1,0,0.2-0.1,0.2-0.2s-0.1-0.2-0.2-0.2c-0.2,0-0.7,0-1.3-0.3l-0.5-0.3l-1-0.4
				C98.6,94,97.9,94.2,97.9,94.2z M97.9,92.3c-0.1,0-0.1,0.1-0.1,0.2c0,0.1,0.1,0.1,0.2,0.1c0.2,0,0.8-0.1,1.4,0l0.9,0.3l0.5,0.3
				c0.7,0.3,1.2,0.3,1.4,0.3c0.1,0,0.2-0.1,0.2-0.2s-0.1-0.2-0.2-0.2c-0.2,0-0.7-0.1-1.3-0.3l-0.5-0.3l-1-0.4
				C98.6,92.1,97.9,92.3,97.9,92.3z M97.9,96c-0.1,0-0.1,0.1-0.1,0.2c0,0.1,0.1,0.1,0.2,0.1c0.2,0,0.8-0.1,1.4,0l0.9,0.4l0.5,0.3
				c0.7,0.3,1.2,0.3,1.4,0.3c0.1,0,0.2-0.1,0.2-0.2s-0.1-0.2-0.2-0.2c-0.2,0-0.7-0.1-1.3-0.3l-0.6-0.1l-1-0.4
				C98.8,95.9,98.2,96,97.9,96z M97.9,97.9c-0.1,0-0.1,0.1-0.1,0.2s0.1,0.1,0.2,0.1c0.2,0,0.8-0.1,1.4,0l0.9,0.3l0.5,0.3
				c0.7,0.3,1.2,0.3,1.4,0.3c0.1,0,0.2-0.1,0.2-0.2c0-0.1-0.1-0.2-0.2-0.2c-0.2,0-0.7,0-1.3-0.3l-0.5-0.3l-1-0.4
				C98.8,97.7,98.2,97.8,97.9,97.9z"/>
			<g>
				<path class="st1" d="M77.5,118.5c-0.1-0.1-0.3-0.3-0.4-0.4c-0.1,0.2-0.3,0.3-0.5,0.3l-0.5,0.1c-0.6,0.1-1.4,0.3-1.6,0.9
					c-0.1,0.3-0.2,0.5-0.2,0.7c0,0.3,0.1,0.5,0.2,0.7c0.1,0,0.2-0.1,0.3-0.1c-0.2-0.7,0.2-1.3,0.3-1.2c0.1,0,0,0.4,0.1,0.7
					c0,0.1,0.1,0.2,0.1,0.3c0.1-0.1,0.3-0.2,0.3-0.3c0.1-0.5,0.4-0.9,0.8-0.9l0.3,0.1c0.3,0.2,1.1,0.5,1.5,0.2
					C77.8,119.4,77.7,118.8,77.5,118.5z"/>
			</g>
			<g>
				<path class="st1" d="M86.5,121.6c-0.1,0-0.2-0.1-0.2-0.1l0,0c-0.4,0-2.2-0.3-2.5-0.3c0,0-0.3-0.1-0.9,0.2
					c-0.5,0.2-0.9,0.6-1,0.9c0.1,0.1,0.2,0.1,0.3,0.2c0.2-0.3,0.4-0.5,0.9-0.7c0.3-0.2,0.9-0.2,1.1-0.1c0.2,0.1-0.4,0.3-0.9,0.6
					c-0.2,0.2-0.3,0.3-0.4,0.5l0,0c0.1,0,0.4-0.1,0.7-0.1l0.7-0.2c0.3,0,3.5,0,4.5,0c0.1-0.1,0.1-0.3,0.1-0.3
					C88.2,122.1,87.3,122,86.5,121.6z"/>
			</g>
			<path class="st2" d="M87.7,127.2c0.1,0.3-0.9,0.3-1.4,0.3c-0.8,0-1.6-0.1-1.5-0.3c0.1-0.3,0.8-0.2,1.5-0.2
				C86.7,127,87.6,127,87.7,127.2L87.7,127.2z M86.3,128.6c-0.1-0.3-0.9-0.2-1.3-0.3c-0.7,0-1.4-0.1-1.4,0.2
				c-0.1,0.3,0.7,0.3,1.4,0.3C85.4,128.9,86.3,128.9,86.3,128.6L86.3,128.6z M84.7,130.1c0-0.2-0.6-0.2-0.9-0.2c-0.5,0-1-0.1-1,0.2
				c0,0.3,0.5,0.3,1,0.3C84.1,130.3,84.7,130.2,84.7,130.1L84.7,130.1z M72.2,112.6l-0.2,0.1c-0.2,0.1-0.3,0.3-0.2,0.4
				c0.1,0.2,0.3,0.3,0.4,0.2l0.2-0.1c0.2-0.1,0.3-0.3,0.2-0.4C72.6,112.6,72.4,112.6,72.2,112.6z M81.9,110
				c-0.1-0.1-0.2-0.1-0.3-0.1l-1.7,0.6c-0.2,0.1-0.2,0.3-0.1,0.4c0.1,0.2,0.3,0.3,0.4,0.2l1.6-0.9C81.9,110.2,81.9,110.1,81.9,110
				L81.9,110z M82.1,111.5c0-0.1-0.2-0.2-0.3-0.1l-1.3,0.2c-0.2,0-0.3,0.3-0.2,0.4c0,0.2,0.3,0.3,0.4,0.3l1.3-0.5
				C82.1,111.7,82.1,111.6,82.1,111.5L82.1,111.5z M82.1,113.1c0-0.1-0.2-0.2-0.3-0.2l-1-0.1c-0.2,0-0.3,0.2-0.3,0.3
				s0.2,0.3,0.3,0.3l1-0.3C82.1,113.3,82.1,113.2,82.1,113.1L82.1,113.1z M81.9,114.6c0-0.1-0.1-0.2-0.2-0.2l-0.8-0.2
				c-0.2,0-0.3,0.2-0.3,0.3s0.1,0.3,0.3,0.3l0.9-0.1C81.8,114.8,81.9,114.7,81.9,114.6L81.9,114.6z M88.5,109.3
				c0,0.2,0.1,0.3,0.3,0.3c0,0,0.9,0.3,1.6,0.6c0.2,0.1,0.3,0,0.3-0.1c0.1-0.1,0-0.3-0.1-0.3c-0.8-0.4-1.6-0.7-1.7-0.7
				C88.7,109,88.5,109.1,88.5,109.3L88.5,109.3z M88.9,110.7c0,0.2,0.1,0.3,0.2,0.3c0,0,0.7,0.2,1.2,0.4c0.1,0.1,0.3,0,0.3-0.1
				c0.1-0.1,0-0.3-0.1-0.3c-0.7-0.3-1.3-0.5-1.3-0.5C89,110.5,88.9,110.6,88.9,110.7L88.9,110.7z M89,112c0,0.1,0.1,0.3,0.2,0.3
				c0,0,0.6,0.2,0.9,0.3c0.1,0.1,0.3,0,0.3-0.1c0.1-0.1,0-0.3-0.1-0.3c-0.6-0.3-0.8-0.3-0.9-0.3S89,111.9,89,112L89,112z M89,113.2
				c0,0.1,0,0.3,0.2,0.3c0,0,0.3,0.1,0.5,0.2c0.1,0,0.2,0,0.3-0.1s0-0.2-0.1-0.3c-0.2-0.1-0.5-0.2-0.6-0.2
				C89.1,113.1,89,113.1,89,113.2L89,113.2z M91.9,111.5c-0.1,0.2,0,0.3,0.1,0.4c0,0,0.3,0.2,0.9,0.7c0.1,0.1,0.3,0.1,0.3,0
				c0.1-0.1,0.1-0.3,0-0.3c-0.6-0.6-0.9-0.8-0.9-0.9C92.2,111.3,92,111.3,91.9,111.5L91.9,111.5z M91.7,113c-0.1,0.2,0,0.3,0.1,0.3
				c0,0,0.2,0.1,0.7,0.4c0.1,0.1,0.3,0.1,0.3,0c0.1-0.1,0.1-0.3,0-0.3c-0.6-0.5-0.7-0.6-0.7-0.6C92,112.8,91.8,112.8,91.7,113
				L91.7,113z M91.4,114.1c-0.1,0.1,0,0.3,0.1,0.3c0,0,0.3,0.2,0.4,0.3c0.1,0.1,0.2,0.1,0.3,0c0.1-0.1,0.1-0.2,0-0.3
				c-0.1-0.1-0.3-0.3-0.4-0.3C91.5,113.9,91.5,114,91.4,114.1L91.4,114.1z M90.9,115.1c-0.1,0.1-0.1,0.3,0.1,0.3c0,0,0.1,0,0.3,0.2
				c0.1,0.1,0.2,0.1,0.3,0s0.1-0.2,0-0.3c-0.2-0.2-0.2-0.2-0.3-0.3C91.2,114.9,91,115,90.9,115.1L90.9,115.1z M93.9,114.6
				c-0.1,0.1-0.1,0.3,0,0.3c0,0,0.1,0.1,0.3,0.3c0.1,0.1,0.2,0.2,0.3,0.1c0.1-0.1,0.1-0.2,0.1-0.3c-0.1-0.1-0.2-0.3-0.3-0.4
				S94,114.5,93.9,114.6L93.9,114.6z M93.3,115.5c-0.1,0.1-0.1,0.2,0,0.3c0.1,0.1,0.1,0.1,0.2,0.2c0.1,0.1,0.2,0.1,0.3,0.1
				s0.1-0.2,0.1-0.3c0-0.1-0.1-0.2-0.2-0.3C93.4,115.4,93.4,115.4,93.3,115.5L93.3,115.5z M72.7,115.3c0.3-0.1-0.3-0.7-0.2-1
				c0.2-0.4,1.5-0.9,1.5-1.2c0-0.3-1.8,0.3-2.1,0.9C71.6,114.6,72.4,115.4,72.7,115.3L72.7,115.3z M74.6,111.9
				c0.3,0.1,0.3-0.2,0.4-0.2c0,0,0.1-0.1,0.3,0s0.2,0.2,0.2,0.2c0,0.1,0,0.3,0.2,0.3c0.2,0,0.6-0.7-0.1-1c-0.3-0.1-0.4-0.1-0.7-0.1
				C74.5,111.3,74.3,111.8,74.6,111.9L74.6,111.9z M93.7,111.3c-4.7-5.7-11.2-2.9-11.5-2.8c-1.3,0.3-2.4,0.9-3.1,1.2l-0.8,0.3
				l-2.4,0.3c-0.7,0.2-1.6,0.7-2.9,1.4l-0.9,0.5c-1.5,0.8-1.7,1.5-1.7,1.5c0,0.1-0.1,0.2-0.2,0.2c-0.2,0.1-0.3,0.2-0.3,0.3
				c0,0,0,0,0,0.1s0,0.1,0,0.1l0.3-0.2c0.2-0.1,0.3,0,0.4,0.1c0.1,0.2,0,0.3-0.1,0.4l-0.3,0.2c0.3,0.4,0.6,0.5,0.6,0.5h0.2
				c0.3-0.1,1.1-0.3,1.5,0.6v0.5c-0.1,0.2-0.3,0.3-0.4,0.4c0.3,0.1,0.8,0.1,0.9,0h0.2l0.3-0.1c0.9-0.2,1.8-0.3,2.3-0.2
				c0.8,0.2,2,0.9,2.3,1.4c0.3,0.3,0.7,1.8,0.6,2.1c0,0.2-0.1,0.8-0.8,1.2c-0.4,0.2-0.9,0.2-1.2,0.2h-0.3c-0.1,0.1-0.3,0.4-0.5,0.7
				c0.1,0,0.3,0,0.3,0c0.3-0.3,0.5-0.5,0.6-0.4s0,0.3-0.1,0.4c0.3,0,0.7,0,0.7,0h0.3c0.4,0,1.1,0,1.4-0.2l0.3-0.3l1-0.9l1.1-0.9
				l0.4-0.3c0.2-0.2,0.3-1.6,0.1-3c0-0.2,0.1-0.3,0.3-0.3c0.2,0,0.3,0.1,0.3,0.3c0.1,0.6,0.2,1.7,0.1,2.6h0.1
				c0.9,0.6,1.8,0.9,2.6,1.1c-0.3-0.3-0.5-0.8-0.7-1.3c-0.2-0.3-0.2-0.7-0.2-1c0-1.1,0.7-1.9,1.2-2.7c0.4-0.5,0.9-1,0.9-1.6
				c0-0.1,0-0.1,0-0.2c0,0,0,0,0-0.1c0-0.2,0.1-0.3,0.3-0.3c0.2,0,0.3,0.1,0.3,0.3c0.1,0.8-0.4,1.5-0.9,2.2
				c-0.7,0.9-1.4,1.7-0.9,3.1c0.3,0.9,0.8,1.5,1.3,1.8c0,0,0.1,0,0.1,0.1c0.1,0,0.1,0.1,0.2,0.1c1,0.5,2.2,0.5,2.2,0.5
				c0.1,0,0.2,0.1,0.3,0.1c0.1,0.1,0.1,0.2,0.1,0.3c0,0-0.1,0.5-0.3,0.9c0,0.1-0.1,0.1-0.1,0.2c-0.1,0.1-0.2,0.2-0.3,0.3l-1.1,0.8
				c-0.9,0.6-2.2,1.5-3.7,2.7c-1.7,1.5-2.8,3.5-2.5,4.4c0.1,0.2,0.2,0.3,0.5,0.4c2.9,0.3,4.7-1.6,6.2-3.2l0.4-0.4
				c1-1.1,1.8-2.4,2.3-3.4c0.3-0.6,0.5-0.9,0.7-1c1.2-0.9,3.2-3.5,3.6-6.5C95.5,114.9,95,113,93.7,111.3z"/>
			<path class="st1" d="M101.5,123.3c0.5,0.1,1.1,0,1.7-0.3c0.5-0.2,0.9-0.6,1.2-0.9c0.4,0.6,1.4,2,1.7,2.5
				c-0.6,0.8-1.3,1.6-2.2,2.2L101.5,123.3z"/>
			<path class="st1" d="M63.3,122c0.3,0.4,0.7,0.8,1.2,0.9c0.5,0.3,1.1,0.3,1.7,0.3l-2.5,3.6c-0.8-0.7-1.6-1.5-2.2-2.2
				C62,124,63,122.6,63.3,122z"/>
			<path class="st1" d="M71.5,143.3c0.2-0.2,0.3-0.3,0.5-0.4l0.4-0.3c0.6-0.5,1.4-1.1,1.9-1.6c1.3,0.5,2.3,1.1,3,1.9
				c0.5,0.6,0.6,1.4,0.2,1.8c-0.1,0.1-0.3,0.3-0.3,0.3l-0.9,0.9h-0.5c-2.5,0-4.2-0.9-4.6-1.7C71.3,143.8,71.4,143.5,71.5,143.3z"/>
			<path class="st1" d="M95.3,142.5l0.4,0.3c0.2,0.2,0.3,0.3,0.5,0.4c0.1,0.2,0.2,0.5,0.1,0.8c-0.3,0.9-2.1,1.7-4.6,1.7l0,0l0,0
				h-0.5l-0.8-0.9c-0.1-0.1-0.3-0.3-0.3-0.3c-0.3-0.3-0.3-1.2,0.2-1.8c0.7-0.8,1.7-1.4,3-1.9C93.9,141.3,94.7,142,95.3,142.5z"/>
			<path class="st1" d="M64.2,116.9L64.2,116.9L64.2,116.9z"/>
			<path class="st1" d="M72.5,139.1l-0.3-0.1c-5.8-2.2-10.5-5.3-12.8-8.1c-2.5-3.1-2.1-5.6-1.4-7.2l0.8-1.6l0.8-1.6
				c-0.1,0.8,0.1,1.7,0.5,2.8c1.2,2.8,5.2,5.9,8.2,7.6c1.3,0.8,2.6,1.4,3.9,1.9c3.5,1.6,6.2,2.8,6.2,6v3.7c0,0.2,0,0.3,0,0.4
				c-0.1-0.3-0.3-0.5-0.4-0.7C76.8,140.8,74.8,140.1,72.5,139.1z M66.8,131.4c0.1-0.1,0.1-0.3,0.2-0.3c-0.4-0.3-0.9-0.5-1.3-0.9
				c-0.1,0.1-0.2,0.3-0.2,0.3c0.1,0.1,0.2,0.2,0.3,0.3c-0.4,0.9-0.9,1.8-1.3,2.8c-0.1-0.1-0.2-0.1-0.3-0.2c-0.1,0.1-0.1,0.3-0.2,0.3
				c0.7,0.5,1.4,0.9,2.2,1.3c0.2-0.3,0.4-0.5,0.6-0.8c0,0,0,0,0-0.1c-0.1-0.1-0.2-0.2-0.3-0.3c-0.2,0.2-0.3,0.4-0.5,0.5
				c-0.3-0.1-0.6-0.3-0.9-0.5c0-0.3,0.9-2.1,1.3-2.8C66.4,131.3,66.7,131.4,66.8,131.4L66.8,131.4z M63.4,131.7
				c0.2-0.3,0.3-0.6,0.5-0.9c-0.1-0.1-0.2-0.2-0.3-0.3c-0.1,0.1-0.1,0.2-0.2,0.3c-0.1,0-0.5-0.3-0.6-0.4c0.2-0.3,0.4-0.8,0.6-1.2
				c0.2,0.2,0.6,0.4,0.7,0.6c0.1,0.2-0.1,0.4-0.2,0.6c0,0.1,0.3,0.2,0.3,0.3c0.2-0.3,0.3-0.6,0.4-0.9c-0.7-0.5-1.3-1-1.9-1.6
				c-0.1,0.1-0.1,0.3-0.2,0.3c0.1,0.1,0.2,0.2,0.3,0.3c-0.5,0.9-0.9,1.7-1.4,2.7c-0.1-0.1-0.2-0.2-0.3-0.2c-0.1,0.1-0.1,0.2-0.2,0.3
				c0.6,0.6,1.2,1.1,1.9,1.6c0.2-0.3,0.3-0.5,0.6-0.9l0,0c-0.1-0.1-0.2-0.2-0.3-0.3c-0.1,0.1-0.3,0.5-0.4,0.5
				c-0.2,0-0.7-0.5-0.8-0.6c0-0.2,0.4-0.9,0.6-1.1c0.2,0.2,0.4,0.3,0.5,0.5c0,0.1-0.1,0.3-0.1,0.3C63.3,131.6,63.3,131.6,63.4,131.7
				L63.4,131.7z M74.8,135.2c-0.9-0.5-1.9-0.9-2.9-1.4c-0.2,0.3-0.3,0.6-0.5,0.9c0.2,0.1,0.3,0.2,0.4,0.3c0.1-0.2,0.3-0.3,0.3-0.5
				c0.2,0,0.5,0.2,0.7,0.3c-0.4,0.9-0.9,1.9-1.3,2.8c-0.2-0.1-0.3-0.1-0.4-0.2c-0.1,0.1-0.1,0.3-0.2,0.3c0.5,0.3,1,0.4,1.6,0.7
				c0.1-0.1,0.1-0.3,0.2-0.3c-0.2-0.1-0.3-0.2-0.4-0.2c0.4-0.9,0.9-1.9,1.3-2.8c0.3,0.1,0.5,0.3,0.6,0.4c-0.1,0.2-0.2,0.3-0.2,0.6
				c0,0.1,0.3,0.2,0.4,0.2C74.5,135.8,74.6,135.4,74.8,135.2L74.8,135.2z M71.4,133.5c-0.4-0.2-0.8-0.4-1.2-0.6
				c-0.1,0.1-0.1,0.2-0.2,0.3c0.2,0.1,0.3,0.2,0.4,0.3c-0.4,0.9-1.1,3-2.1,2.4c-0.7-0.4-0.4-0.9-0.1-1.8c0.2-0.4,0.4-0.9,0.7-1.4
				c0.2,0.1,0.3,0.2,0.4,0.2c0.1-0.1,0.1-0.3,0.2-0.3c-0.4-0.3-0.9-0.5-1.4-0.7c-0.1,0.1-0.1,0.3-0.2,0.3c0.1,0.1,0.2,0.1,0.3,0.2
				c0,0.2-0.3,0.7-0.4,0.9c-0.4,0.9-0.9,1.7-0.5,2.3c0.1,0.2,0.3,0.3,0.4,0.4c0.3,0.2,0.6,0.3,0.9,0.3c1.1,0.1,1.6-1.4,2.2-2.7
				c0.1,0.1,0.2,0.1,0.3,0.2C71.4,133.8,71.4,133.6,71.4,133.5L71.4,133.5z M62.1,128c0.1,0.1,0.2,0.2,0.3,0.2
				c0.1-0.1,0.1-0.3,0.2-0.3c-0.3-0.3-0.6-0.6-0.9-0.9c-0.1,0.1-0.1,0.3-0.2,0.3c0.1,0.1,0.3,0.3,0.3,0.3c-0.3,0.3-1.5,1.6-1.6,1.7
				l0,0c-0.1-0.1,0.4-2.8,0.5-2.9c0.1,0.1,0.2,0.3,0.3,0.3c0.1-0.1,0.2-0.3,0.2-0.3c-0.3-0.4-0.7-0.9-0.9-1.3
				c-0.1,0.1-0.2,0.2-0.3,0.3c0.1,0.1,0.1,0.2,0.2,0.3c-0.1,0.3-0.6,3.6-0.6,4c0.1,0.2,0.3,0.3,0.3,0.4
				C60.5,129.7,61.9,128.3,62.1,128L62.1,128z"/>
			<path class="st1" d="M108.3,130.9c-2.2,2.8-7,5.9-12.8,8.1l-0.3,0.1c-2.3,0.9-4.3,1.7-5.5,3c-0.2,0.2-0.3,0.4-0.4,0.7
				c0-0.1,0-0.3,0-0.4v-3.6c0-3.1,2.8-4.4,6.2-6c1.3-0.6,2.6-1.2,3.9-1.9c3-1.7,7-4.7,8.2-7.6c0.4-1.1,0.6-2.1,0.5-2.8l0.8,1.6
				l0.8,1.6C110.4,125.2,110.8,127.7,108.3,130.9z M96.4,135.5L96.4,135.5c0-0.6,0.1-1.1,0.2-1.6l0,0c0.3,0.4,0.4,0.9,0.6,1.3
				C97,135.2,96.6,135.4,96.4,135.5L96.4,135.5z M99.4,135.1c0,0.2,0.2,0.4,0.1,0.6c-0.1,0.1-0.9,0.6-1,0.6
				c-0.2-0.3-0.3-0.8-0.5-1.1c0.2-0.1,0.8-0.4,0.9-0.4c0.1,0.1,0.1,0.2,0.2,0.3c0.1-0.1,0.3-0.1,0.3-0.2c-0.2-0.3-0.3-0.7-0.4-1
				c-0.1,0.1-0.3,0.1-0.3,0.2c0,0.1,0.1,0.3,0.1,0.3c-0.1,0.2-0.7,0.4-0.9,0.5c-0.3-0.4-0.4-0.9-0.6-1.3c0.3-0.2,0.8-0.4,1-0.5
				c0.1,0.1,0.3,0.3,0.3,0.4c0.1-0.1,0.3-0.2,0.3-0.2c0-0.1-0.3-0.7-0.4-0.9c-0.7,0.3-1.6,0.9-2.3,1.1c-0.1,1.3-0.3,2.7-0.3,3.9
				c-0.1,0.1-0.2,0.2-0.3,0.2c0.1,0.1,0.1,0.3,0.2,0.3c0.4-0.2,0.8-0.3,1.2-0.5c-0.1-0.1-0.1-0.3-0.2-0.3c-0.2,0.1-0.3,0.1-0.4,0.2
				c0-0.4,0-0.9,0-1.4c0.3-0.2,0.7-0.3,0.9-0.4c0.2,0.3,0.3,0.8,0.5,1.1c-0.1,0.1-0.3,0.1-0.3,0.2c0.1,0.1,0.1,0.3,0.2,0.3
				c0.8-0.3,1.7-0.9,2.4-1.2c-0.1-0.3-0.2-0.6-0.3-0.9C99.7,135,99.6,135.1,99.4,135.1L99.4,135.1z M102.2,130.6
				c0.1-0.1,0.2-0.2,0.3-0.2c-0.1-0.1-0.1-0.3-0.2-0.3c-0.3,0.3-0.8,0.5-1.1,0.8c0.1,0.1,0.1,0.3,0.2,0.3c0.1-0.1,0.3-0.2,0.3-0.3
				c0.1,0.5,0.3,2.2,0.3,2.5c0,0.2,0,0.3,0.1,0.4l0,0c-0.1,0-0.3-0.3-0.4-0.4l-0.9-1c-0.2-0.2-0.3-0.3-0.4-0.5
				c0.2-0.1,0.3-0.2,0.4-0.3c-0.1-0.1-0.1-0.3-0.2-0.3c-0.5,0.3-0.9,0.5-1.5,0.8c0.1,0.1,0.1,0.3,0.2,0.3c0.1-0.1,0.2-0.1,0.3-0.2
				c0.2,0.2,0.4,0.4,0.6,0.6c0.4,0.4,0.9,0.9,1.3,1.4c0.2,0.2,0.3,0.3,0.6,0.6c0.2-0.1,0.3-0.2,0.5-0.3c-0.1-0.9-0.1-1.8-0.2-2.8
				C102.3,131.4,102.2,131,102.2,130.6L102.2,130.6z M105.7,131.9c-0.8,0.7-1.6-0.3-1.9-1.3c-0.1-0.4-0.1-0.9,0.2-1.3
				c0.1-0.1,0.2-0.2,0.3-0.3c0.2-0.1,0.3-0.2,0.5-0.2C105.7,128.9,106.6,131.1,105.7,131.9L105.7,131.9z M106,128.8
				c-0.5-0.5-1.1-0.6-2-0.1c-0.1,0.1-0.3,0.3-0.3,0.3c-0.3,0.3-0.5,0.9-0.5,1.3c0,0.2,0,0.4,0.1,0.6c0.1,0.3,0.2,0.6,0.3,0.9
				c0.5,0.8,1.1,0.9,2,0.6C106.9,131.9,107.1,129.8,106,128.8L106,128.8z"/>
			<path class="st1" d="M96.7,144.8L96.7,144.8v5.3c0,1.6-2.7,2.2-5,2.2H76c-2.3,0-5-0.5-5-2.2v-5.2v-0.1c0.9,1,2.8,1.6,5,1.6h15.7
				l0,0C94,146.5,95.9,145.8,96.7,144.8z M91.5,149.3c0-0.5,0-1,0-1.5c0.2,0,0.4,0,0.6,0c0.4,0.2,0.6,0.8,0.3,1.2
				C92.3,149.3,92,149.3,91.5,149.3L91.5,149.3z M93.3,150.5c-0.2-0.3-0.4-0.9-0.7-1l0,0c0.7-0.2,1.1-1.2,0.4-1.7
				c-0.5-0.4-1.6-0.3-2.5-0.3c0,0.1,0,0.3,0,0.3l0,0c0.1,0,0.3,0,0.3,0v3c-0.1,0-0.3,0-0.3,0c0,0.1,0,0.3,0,0.3l0,0H92
				c0-0.1,0-0.3,0-0.3c-0.2,0-0.3,0-0.4,0c0-0.3,0-0.8,0-1.1c0.2,0,0.3,0,0.4,0c0.3,0.2,0.6,1.2,0.9,1.5c0.1,0.1,0.8,0,0.9,0v-0.3
				c-0.1,0-0.3,0-0.3,0C93.4,150.8,93.3,150.6,93.3,150.5L93.3,150.5z M84.6,150.3c-0.1,0.3-0.3,0.4-0.7,0.5c-0.2,0-0.4,0-0.5-0.1
				c-0.1-0.1,0-0.2,0-0.3s0-0.9,0-1C84,149.5,84.7,149.6,84.6,150.3L84.6,150.3z M83.4,147.8c0.4,0,0.8,0,0.9,0.3
				c0.1,0.1,0.2,0.3,0.1,0.4c-0.1,0.5-0.4,0.6-1,0.6C83.4,148.7,83.4,148.3,83.4,147.8L83.4,147.8z M84.4,149.2L84.4,149.2
				L84.4,149.2c0.6-0.3,0.9-1.2,0.3-1.6c-0.5-0.3-1.6-0.2-2.3-0.2v0.3c0.2,0,0.3,0,0.4,0v3c-0.2,0-0.3,0-0.4,0c0,0.1,0,0.3,0,0.3
				c0.9,0,1.9,0.1,2.5-0.2c0.4-0.3,0.8-0.9,0.3-1.4C84.9,149.4,84.7,149.4,84.4,149.2L84.4,149.2z M79.5,149.3c0-0.5,0-1,0-1.5
				c0.2,0,0.4,0,0.6,0c0.4,0.2,0.6,0.8,0.3,1.2C80.2,149.3,79.9,149.3,79.5,149.3L79.5,149.3z M81.2,150.5c-0.2-0.3-0.4-0.9-0.7-1
				l0,0c0.7-0.2,1.1-1.2,0.4-1.7c-0.5-0.4-1.6-0.3-2.5-0.3c0,0.1,0,0.3,0,0.3l0,0c0.1,0,0.3,0,0.3,0v3c-0.1,0-0.3,0-0.3,0
				c0,0.1,0,0.3,0,0.3l0,0h1.5c0-0.1,0-0.3,0-0.3c-0.2,0-0.3,0-0.4,0c0-0.3,0-0.8,0-1.1c0.2,0,0.3,0,0.4,0c0.3,0.2,0.6,1.2,0.9,1.5
				c0.1,0.1,0.8,0,0.9,0v-0.3c-0.1,0-0.3,0-0.3,0C81.3,150.8,81.2,150.6,81.2,150.5L81.2,150.5z M75.3,149.8c0.2-0.5,0.3-1,0.5-1.6
				l0,0l0.5,1.6H75.3L75.3,149.8z M76.3,147.4c-0.2,0-0.4,0-0.5,0c-0.4,1.1-0.9,2.2-1.3,3.4c-0.1,0-0.3,0-0.3,0v0.3h1.3v-0.3
				c-0.2,0-0.3,0-0.4,0c0.1-0.3,0.2-0.4,0.2-0.7c0.4,0,0.9,0,1.3,0c0.1,0.2,0.2,0.4,0.3,0.7c-0.2,0-0.3,0-0.4,0v0.3h1.5v-0.3
				c-0.1,0-0.3,0-0.3,0C77.1,149.7,76.6,148.5,76.3,147.4L76.3,147.4z M88,150.9c-0.9,0.2-1.4-1.1-1.2-2.1c0.1-0.4,0.3-0.9,0.7-1
				c0.1,0,0.2-0.1,0.3-0.1c0.3,0,0.4,0,0.6,0.1C89.2,148.4,89.2,150.7,88,150.9L88,150.9z M87.8,147.4c-0.2,0-0.3,0.1-0.5,0.1
				c-0.4,0.2-0.8,0.4-1,0.9c-0.1,0.2-0.2,0.3-0.2,0.6c-0.1,0.3-0.1,0.6,0,0.9c0.2,0.9,0.6,1.4,1.6,1.6c1.6,0.3,2.5-1.5,2-2.8
				C89.3,147.7,88.8,147.4,87.8,147.4L87.8,147.4z"/>
			<path class="st1" d="M110.5,88.1c0,0,0,0.2,0,0.3c0,0.2,0,0.3,0,0.3H57.2c0,0,0-0.2,0-0.3c0-0.2,0-0.3,0-0.3H110.5z M110.5,88.1
				c0-9.2,0-20.4,0-20.4H83.9l0,0l0,0H57.2c0,0,0,11,0,20.4 M79.9,81.1c0.3,0,0.5,0.3,0.5,0.5c0,0.3-0.3,0.5-0.5,0.5
				c-0.3,0-0.5-0.3-0.5-0.5C79.4,81.3,79.6,81.1,79.9,81.1L79.9,81.1z M75.9,82.5c0.3-0.2,0.6-0.1,0.8,0.2c0.2,0.3,0.1,0.6-0.2,0.8
				c-0.3,0.2-0.6,0.1-0.8-0.2C75.6,82.9,75.7,82.5,75.9,82.5L75.9,82.5z M78,81.9c0.2,0,0.3,0.2,0.3,0.3c0,0.2-0.2,0.3-0.3,0.3
				c-0.2,0-0.3-0.1-0.3-0.3C77.7,81.9,77.8,81.9,78,81.9L78,81.9z M81.9,81.2c0.2,0,0.3,0.2,0.3,0.3c0,0.1-0.2,0.3-0.3,0.3
				c-0.2,0-0.3-0.2-0.3-0.3C81.6,81.3,81.7,81.2,81.9,81.2L81.9,81.2z M88.3,81.7c0,0.3-0.3,0.5-0.5,0.5c-0.3,0-0.5-0.3-0.5-0.5
				s0.3-0.5,0.5-0.5C88,81.1,88.3,81.3,88.3,81.7L88.3,81.7z M92,83.1c-0.2,0.3-0.5,0.3-0.8,0.2c-0.3-0.2-0.3-0.5-0.2-0.8
				c0.2-0.3,0.5-0.3,0.8-0.2C92,82.5,92.1,82.9,92,83.1L92,83.1z M89.9,82.1c0,0.2-0.2,0.3-0.3,0.3c-0.2,0-0.3-0.1-0.3-0.3
				c0-0.2,0.2-0.3,0.3-0.3C89.8,81.9,89.9,81.9,89.9,82.1L89.9,82.1z M86.1,81.4c0,0.2-0.2,0.3-0.3,0.3c-0.2,0-0.3-0.2-0.3-0.3
				c0-0.1,0.2-0.3,0.3-0.3S86.1,81.3,86.1,81.4L86.1,81.4z M83.8,74.6c0.3,0,0.6,0.3,0.6,0.6c0,0.3-0.3,0.6-0.6,0.6
				s-0.6-0.3-0.6-0.6C83.2,74.9,83.5,74.6,83.8,74.6L83.8,74.6z M83.8,73c0.3,0,0.6,0.3,0.6,0.6c0,0.3-0.3,0.6-0.6,0.6
				s-0.6-0.3-0.6-0.6C83.3,73.2,83.5,73,83.8,73L83.8,73z M83.8,71.4c0.3,0,0.6,0.3,0.6,0.6s-0.3,0.6-0.6,0.6s-0.6-0.3-0.6-0.6
				S83.5,71.4,83.8,71.4L83.8,71.4z M81.1,71.6c0.3,0,0.6,0.3,0.6,0.6c0,0.3-0.3,0.6-0.6,0.6c-0.3,0-0.6-0.3-0.6-0.6
				C80.5,71.8,80.8,71.6,81.1,71.6L81.1,71.6z M79.2,71c0.3,0,0.6,0.3,0.6,0.6s-0.3,0.6-0.6,0.6c-0.3,0-0.6-0.3-0.6-0.6
				C78.7,71.2,79,71,79.2,71L79.2,71z M77.3,70.6c0.3,0,0.6,0.3,0.6,0.6c0,0.3-0.3,0.6-0.6,0.6s-0.6-0.3-0.6-0.6
				C76.8,70.8,77.1,70.6,77.3,70.6L77.3,70.6z M75.4,70.8c0.3,0,0.6,0.3,0.6,0.6c0,0.3-0.3,0.6-0.6,0.6c-0.3,0-0.6-0.3-0.6-0.6
				C74.8,71.1,75.1,70.8,75.4,70.8L75.4,70.8z M73.7,71.8c0.3,0,0.6,0.3,0.6,0.6c0,0.3-0.3,0.6-0.6,0.6s-0.6-0.3-0.6-0.6
				C73.2,72.1,73.4,71.8,73.7,71.8L73.7,71.8z M72.7,73.6c0.3,0,0.6,0.3,0.6,0.6s-0.3,0.6-0.6,0.6c-0.3,0-0.6-0.3-0.6-0.6
				C72.1,73.8,72.4,73.6,72.7,73.6L72.7,73.6z M72.7,75.6c0.3,0,0.6,0.3,0.6,0.6c0,0.3-0.3,0.5-0.6,0.5c-0.3,0-0.6-0.3-0.6-0.6
				C72.1,75.7,72.5,75.6,72.7,75.6L72.7,75.6z M73.4,77.4c0.3,0,0.6,0.3,0.6,0.6s-0.3,0.6-0.6,0.6c-0.3,0-0.6-0.3-0.6-0.6
				C72.9,77.6,73.2,77.4,73.4,77.4L73.4,77.4z M87.1,72.1c0,0.3-0.3,0.6-0.6,0.6c-0.3,0-0.6-0.3-0.6-0.6s0.3-0.6,0.6-0.6
				C86.9,71.5,87.1,71.8,87.1,72.1L87.1,72.1z M89,71.5c0,0.3-0.3,0.6-0.6,0.6s-0.6-0.3-0.6-0.6c0-0.3,0.3-0.6,0.6-0.6
				C88.7,71,89,71.2,89,71.5L89,71.5z M90.9,71.1c0,0.3-0.3,0.6-0.6,0.6s-0.6-0.3-0.6-0.6c0-0.3,0.3-0.6,0.6-0.6
				C90.6,70.6,90.9,70.8,90.9,71.1L90.9,71.1z M92.8,71.4c0,0.3-0.3,0.6-0.6,0.6s-0.6-0.3-0.6-0.6c0-0.3,0.3-0.6,0.6-0.6
				S92.8,71.1,92.8,71.4L92.8,71.4z M94.5,72.5c0,0.3-0.3,0.6-0.6,0.6s-0.6-0.3-0.6-0.6s0.3-0.6,0.6-0.6S94.5,72.1,94.5,72.5
				L94.5,72.5z M95.5,74.2c0,0.3-0.3,0.6-0.6,0.6c-0.3,0-0.6-0.3-0.6-0.6c0-0.3,0.3-0.6,0.6-0.6C95.3,73.6,95.5,73.8,95.5,74.2
				L95.5,74.2z M95.4,76.2c0,0.3-0.3,0.6-0.6,0.6c-0.3,0-0.6-0.3-0.6-0.6c0-0.3,0.3-0.6,0.6-0.6C95.2,75.6,95.4,75.8,95.4,76.2
				L95.4,76.2z M94.7,78c0,0.3-0.3,0.6-0.6,0.6s-0.6-0.3-0.6-0.6c0-0.3,0.3-0.6,0.6-0.6S94.7,77.6,94.7,78L94.7,78z M89.2,86.9
				l0.5-0.3c1.2-0.5,1.6-1.2,1.6-1.7c0-0.9-3.2-2.1-7.5-2.1S76.4,84,76.4,85c0,0.5,0.4,1.2,1.6,1.7l0.5,0.3c0,0.1-0.4,0-0.6-0.1
				c-1.3-0.4-2.2-1.1-2.2-1.9c0-1.7,4.2-2.7,8.2-2.7s8.2,0.9,8.2,2.7c0,0.8-0.9,1.5-2.2,1.9C89.7,86.9,89.2,87,89.2,86.9L89.2,86.9z
				 M83.8,80.5c-2.5,0-4.8,0.3-6.5,0.9c-0.8,0.3-1.2,0.6-1.6,0.8c-0.1,0.1-0.2,0.1-0.3,0c-0.2-0.1-0.2-0.2-0.3-0.4
				c-0.1-0.3-0.3-1.4-0.9-2.5c-0.1-0.1,0.1-0.3,0.2-0.1c0.3,0.4,1.1,1.8,1.2,2.2l0,0l0,0c0.3-0.2,0.8-0.4,1.3-0.6
				c1.7-0.6,4.1-1,6.7-1l0,0c2.6,0,5,0.3,6.7,1c0.5,0.2,0.9,0.4,1.3,0.6l0,0l0,0c0.1-0.4,0.9-1.7,1.2-2.2c0.1-0.2,0.3,0,0.2,0.1
				c-0.6,1.2-0.8,2.2-0.9,2.5c0,0.2-0.1,0.3-0.3,0.4c-0.1,0-0.2,0-0.3,0c-0.3-0.3-0.9-0.5-1.6-0.8C88.7,80.8,86.4,80.5,83.8,80.5
				L83.8,80.5L83.8,80.5z M85.1,69.9c0,0.2-0.2,0.3-0.3,0.3h-0.6v0.6c0,0.2-0.2,0.3-0.3,0.3c-0.2,0-0.3-0.2-0.3-0.3v-0.6h-0.5
				c-0.2,0-0.3-0.2-0.3-0.3s0.2-0.3,0.3-0.3h0.6V69c0-0.2,0.2-0.3,0.3-0.3s0.3,0.2,0.3,0.3v0.6h0.6C84.9,69.6,85.1,69.8,85.1,69.9z
				 M83.8,83.7c2.2,0,6.6,0.3,6.6,1.7c0,1.4-4.3,1.7-6.6,1.7s-6.6-0.3-6.6-1.7C77.2,84.1,81.5,83.7,83.8,83.7z M94,75
				c0,1.7-1.4,3.6-2,4.4l0,0l0,0l0,0c-0.3,0.5-0.9,1-1.9,0.7c-0.4-0.2-0.9-0.3-1.2-0.8c-0.2-0.3-0.3-0.6,0.1-1
				c0.1-0.1,0.3-0.3,0.4-0.2c0.1,0,0.2,0.3,0,0.3c-0.2,0.2-0.1,0.4,0.2,0.6c0.2,0.1,0.3,0,0.4-0.1c0,0-0.3-0.3,0-0.5
				c0.3-0.2,0.9-0.8,0-1.1c-0.6-0.3-1.1,0.6-1.2,0.7s-0.2,0.1-0.1-0.1c0.1-0.6,0.7-0.9,0.8-1.5c0.1-0.5-0.3-0.9-0.4-1.1
				c-0.1-0.1-0.2-0.1-0.3,0c-0.3,0.1-0.7,0.3-0.8,0.9c-0.2,0.7,0.3,1,0.2,1.7c0,0.1-0.1,0.2-0.1,0c0-0.2-0.2-1.1-0.9-1.1
				c-0.9,0-0.6,0.8-0.4,1c0.2,0.3-0.2,0.4-0.2,0.4c0,0.1,0.1,0.3,0.3,0.3c0.3,0,0.4-0.3,0.4-0.5c-0.1-0.2,0.1-0.3,0.2-0.3
				s0.3,0.2,0.3,0.3c0.1,0.5-0.1,0.8-0.3,0.9c-0.4,0.3-1.1,0.3-1.6,0.3c-1.3-0.2-1.4-0.9-1.4-0.9c0.3,0.1,0.9,0.3,0.9,0.3s0,0,0.1,0
				c0.1,0,0.2-0.1,0.2-0.2v-1.2c0-0.1-0.1-0.2-0.2-0.2h-0.1l-0.9,0.3l0.3-0.7v-0.1c0-0.1-0.1-0.2-0.2-0.2h-0.7h-0.7
				c-0.1,0-0.2,0.1-0.2,0.2v0.1l0.3,0.7l-0.9-0.3h-0.1c-0.1,0-0.2,0.1-0.2,0.2v1.2c0,0.1,0.1,0.2,0.2,0.2c0,0,0,0,0.1,0
				c0,0,0.6-0.2,0.9-0.3c0,0-0.1,0.8-1.4,0.9c-0.3,0-1,0.1-1.6-0.3c-0.3-0.2-0.4-0.5-0.3-0.9c0-0.1,0.2-0.3,0.3-0.3
				c0.1,0,0.3,0.2,0.2,0.3c-0.1,0.2,0.1,0.4,0.4,0.5c0.3,0,0.3-0.2,0.3-0.3c0,0-0.4-0.1-0.2-0.4c0.2-0.3,0.4-1-0.4-1
				c-0.7,0-0.9,0.9-0.9,1.1c0,0.2-0.1,0.1-0.1,0c-0.1-0.6,0.3-1,0.2-1.7c-0.1-0.5-0.5-0.7-0.8-0.9c-0.1,0-0.3,0-0.3,0
				c-0.2,0.2-0.5,0.6-0.4,1.1c0.2,0.7,0.7,0.9,0.8,1.5c0,0.1-0.1,0.2-0.1,0.1c-0.1-0.1-0.5-0.9-1.2-0.7c-0.8,0.3-0.3,0.9,0,1.1
				c0.3,0.3,0,0.4,0,0.5s0.2,0.2,0.4,0.1c0.3-0.2,0.3-0.4,0.2-0.6c-0.1-0.1,0-0.3,0-0.3c0.1-0.1,0.3,0.1,0.4,0.2
				c0.3,0.4,0.2,0.8,0.1,1c-0.3,0.5-0.8,0.6-1.2,0.8c-0.9,0.3-1.6-0.2-1.9-0.7l0,0l0,0l0,0c-0.6-0.8-2-2.7-2-4.4s1.5-3,3.5-3
				c0.9,0,1.7,0.3,2.5,0.6c0.9,0.3,1.7,0.6,2.5,0.5v-1.7c0-0.2,0.2-0.3,0.3-0.3c0.2,0,0.3,0.2,0.3,0.3V76h2.2v-4.6
				c0-0.2,0.2-0.3,0.3-0.3s0.3,0.2,0.3,0.3v1.7c0.9,0.1,1.6-0.2,2.6-0.5c0.8-0.3,1.6-0.6,2.5-0.6C92.6,72,94,73.3,94,75z M83.8,86.6
				c3.9,0,5.9-0.8,5.9-1.1s-2-1.1-5.9-1.1s-5.9,0.8-5.9,1.1S79.9,86.6,83.8,86.6z M82.1,73.8c-0.2,0-0.3,0-0.6,0
				c0.2,0.1,0.4,0.2,0.6,0.3V73.8z M93.2,76.4c0.2-0.4,0.3-0.9,0.3-1.4c0-1.4-1.2-2.3-2.8-2.3c-0.8,0-1.5,0.3-2.2,0.5
				c-0.3,0.1-0.6,0.3-0.9,0.3c0.1,0,0.2,0,0.3,0c1,0,2.1,0.4,2.6,0.9c1.1,0,2,0.3,2.5,1C92.9,75.8,93.1,76.1,93.2,76.4z M85.6,73.8
				v0.3c0.2-0.1,0.3-0.3,0.6-0.3C85.9,73.8,85.8,73.8,85.6,73.8z M92.2,75.9c-0.4-0.5-1.1-0.8-2.2-0.8c-0.1,0-0.2,0-0.3-0.1
				c-0.3-0.3-1.2-0.8-2.2-0.9c-0.5,0-1.5,0.1-2.1,0.8l0,0v0.8c0.3-0.3,0.5-0.5,0.9-0.7c0.1-0.1,0.3-0.2,0.6-0.2
				c0.2,0,0.4,0.1,0.4,0.1c0,0.1-0.5,0.3-0.9,0.6c-0.3,0.3-0.6,0.6-0.8,0.8c0.3-0.1,0.4,0.1,0.4,0.2c0.2-0.2,0.4-0.3,0.9-0.3
				c0.1,0,0.2,0,0.2,0c0-0.1,0-0.1,0-0.1c0.2-0.9,1-1.3,1.5-1.4c0.3-0.1,0.5,0.1,0.5,0.1c0.3,0.3,0.9,0.8,0.9,1.6c0,0.1,0,0.2,0,0.3
				v0.1c0.1,0,0.2,0,0.2,0.1c0.6,0.3,0.8,0.7,0.8,0.9v0.1c0,0.4-0.3,0.7-0.4,0.9l0,0c0,0.1,0,0.1,0,0.2c0,0.2-0.1,0.3-0.3,0.5h0.1
				c0.3-0.1,0.8-0.4,0.9-1.1c0.3-1.3-1.1-2.3-0.9-2.6c0.1-0.1,0.3,0,0.3,0c0.8,0.3,1.5,1.1,1.4,2.2c0.1-0.2,0.2-0.3,0.3-0.5l0,0
				C92.7,77.3,92.7,76.4,92.2,75.9z M80.2,73.6c-0.3-0.1-0.6-0.2-0.9-0.3c-0.8-0.3-1.6-0.5-2.2-0.5c-1.6,0-2.8,1-2.8,2.3
				c0,0.4,0.1,0.9,0.3,1.4c0.1-0.3,0.2-0.6,0.4-0.9c0.5-0.7,1.4-1,2.5-1c0.5-0.5,1.6-0.9,2.6-0.9C80.1,73.6,80.2,73.6,80.2,73.6z
				 M84.4,81.3c0,0.3-0.3,0.5-0.5,0.5s-0.5-0.3-0.5-0.5c0-0.3,0.3-0.5,0.5-0.5S84.4,81.1,84.4,81.3z M82.1,75L82.1,75
				c-0.6-0.7-1.6-0.8-2.1-0.8c-1,0-1.9,0.4-2.2,0.9c-0.1,0.1-0.2,0.1-0.3,0.1c-1,0-1.7,0.3-2.2,0.8c-0.4,0.6-0.4,1.4-0.3,1.8l0,0
				c0.1,0.2,0.2,0.3,0.3,0.5c-0.1-1.1,0.6-1.9,1.4-2.2c0,0,0.3-0.1,0.3,0c0.2,0.3-1.4,1.3-0.9,2.6c0.3,0.8,0.7,1.1,1,1.2h0.1
				c-0.2-0.2-0.3-0.3-0.3-0.5c0-0.1,0-0.1,0-0.2l0,0c-0.2-0.2-0.4-0.5-0.4-0.9v-0.1c0-0.3,0.2-0.7,0.8-0.9c0.1,0,0.2-0.1,0.2-0.1
				v-0.1c0-0.1,0-0.2,0-0.3c0-0.7,0.5-1.3,0.9-1.6c0,0,0.3-0.2,0.5-0.1c0.4,0.1,1.3,0.5,1.5,1.4c0,0.1,0,0.1,0,0.1
				c0.1,0,0.2,0,0.3,0c0.4,0,0.7,0.2,0.9,0.3c0-0.2,0.2-0.3,0.4-0.2c-0.2-0.3-0.4-0.5-0.8-0.8c-0.4-0.3-0.9-0.5-0.9-0.6
				c0-0.1,0.2-0.2,0.4-0.1c0.3,0,0.5,0.1,0.6,0.2c0.3,0.2,0.7,0.4,0.9,0.7C82.1,75.7,82.1,75,82.1,75z"/>
			<g>
				<path class="st1" d="M112.2,66.3H55.8v28.5c0,8.4,2.3,15.6,5.6,21.7c-0.9,0.3-1.7,1.1-2.6,2.8l-1.1,2.2l-0.8,1.6
					c-0.3,0.6-0.7,1.6-0.7,3c0,1.9,0.8,3.7,2.2,5.6c2.4,3,7.3,6.2,13.3,8.5c0,0,0.5,0.2,0.9,0.3c-0.4,0.3-1,0.9-1,0.9l-0.4,0.3
					l-0.3,0.3l-0.2,0.2c-0.6,0.7-0.9,1.5-0.9,2.6v5.2c0,2.2,2.3,3.5,6.3,3.5h15.7c4,0,6.3-1.3,6.3-3.5V145c0-1.1-0.3-1.9-0.9-2.6
					l-0.1-0.2c-0.2-0.2-0.3-0.3-0.4-0.3l0,0c0,0-0.9-0.9-1.5-1.2c0.4-0.2,0.9-0.3,0.9-0.3c6-2.3,11-5.5,13.3-8.5
					c1.5-1.8,2.2-3.7,2.2-5.6c0-1.3-0.3-2.3-0.7-3l-0.8-1.6l-1-2.2c-0.6-1.2-1.5-2.1-2.6-2.6c3.4-6.1,5.7-13.5,5.7-21.9
					C112.2,94.9,112.2,66.3,112.2,66.3z M108.5,119.6l1,2.2l0.8,1.6c0.3,0.6,0.6,1.6,0.6,2.7c0,1.7-0.7,3.5-2.1,5.2
					c-2.3,2.9-7.2,6-13,8.4l-1.9,0.8l2.3,2l0.3,0.3l0.1,0.1c0.5,0.6,0.8,1.2,0.8,2.2v5.2c0,1.7-2.1,2.8-5.6,2.8H76
					c-3.5,0-5.6-1-5.6-2.8V145c0-0.9,0.3-1.6,0.8-2.2l0.1-0.1l0.3-0.3l0.4-0.3l1.8-1.6l-1.9-0.8c-5.9-2.3-10.7-5.4-13-8.4
					c-1.4-1.7-2.1-3.5-2.1-5.2c0-1.2,0.3-2.2,0.6-2.7l0.8-1.6l1-2.2c0.8-1.6,1.6-2.2,2.3-2.4c0.1,0.2,0.2,0.3,0.3,0.6
					c-0.4,0.3-0.9,0.6-1.2,1.1c-0.3,0.6-0.5,1.3-0.5,2.1c0,0.7,0.2,1.5,0.4,2.2l0.4,1.1c0,0,1.8-2.6,2.3-3.4
					c0.1,0.2,0.1,0.4,0.1,0.4c0.2,0.5,0.6,0.9,1.2,1.2c0.1,0.1,0.2,0.1,0.3,0.1c0.4,0.6,0.9,1.1,1.3,1.7c-0.9,1.3-2.2,3.1-2.2,3.1
					l0.4,0.3c1.8,1.5,3.5,2.4,3.9,2.7c1.3,0.8,2.6,1.3,3.8,1.9c1.1,0.5,2.3,1,3.3,1.6c0.8,0.6,1.5,1.2,2.2,1.7
					c0.7,0.9,1.1,1.8,1.1,3.1v3.7c0,1.2-0.3,1.8-0.8,2.2l-0.9,1h13.1l-0.9-1c-0.4-0.4-0.8-1-0.8-2.2v-3.8c0-1.1,0.3-2.1,0.9-2.8
					c0.9-0.7,1.9-1.5,2.9-2.3c0.9-0.5,1.8-0.9,2.8-1.4c1.2-0.6,2.5-1.1,3.8-1.9c1.2-0.7,2.7-1.6,3.9-2.7l0.4-0.3c0,0-1.2-1.7-2.1-3
					c0.4-0.6,0.9-1.2,1.4-1.8c0.1,0,0.1,0,0.2,0c0.6-0.3,1-0.7,1.2-1.2c0,0,0.1-0.2,0.2-0.4c0.5,0.8,2.3,3.4,2.3,3.4l0.4-1.1
					c0.3-0.8,0.4-1.5,0.4-2.2c0-0.8-0.2-1.5-0.5-2.1c-0.3-0.4-0.7-0.8-1.1-1c0.1-0.2,0.2-0.3,0.3-0.4
					C107.1,117.7,107.8,118.5,108.5,119.6z M66.8,124.7c2.3,2.8,4.7,5.3,6.9,7.3c-0.3-0.2-0.7-0.3-1-0.4c-1.2-0.5-2.5-1.1-3.8-1.9
					c-0.4-0.3-2.1-1.2-3.8-2.6C65.3,127,66.1,125.8,66.8,124.7z M89,145.2c-1.2,0-9.1,0-10.3,0c0.4-0.5,0.9-1.3,0.9-2.7v-3.7
					c0-0.8-0.2-1.5-0.3-2.1c2.3,1.6,3.8,2.6,3.9,2.6l0.8,0.4l0.8-0.4c0.1,0,1.5-0.9,3.6-2.4c-0.2,0.6-0.3,1.2-0.3,1.9v3.7
					C88,143.9,88.5,144.6,89,145.2z M94.3,132c2.2-2,4.5-4.4,6.7-7.2l1.6,2.3c-1.2,0.9-2.6,1.9-3.8,2.6c-1.2,0.7-2.5,1.3-3.7,1.8
					C94.8,131.8,94.6,131.9,94.3,132z M100.6,124.3c-2.8,3.5-5.9,6.5-8.5,8.8l-3.1,2.5c-2.7,2.1-4.6,3.1-4.7,3.2
					c0,0-0.3,0.2-0.4,0.3c-0.2-0.1-0.4-0.3-0.4-0.3c-0.1,0-2.2-1.2-5.1-3.5l-2.4-1.9c-2.8-2.3-5.9-5.3-8.9-9.1l-0.4-0.5
					c-0.3-0.3-0.5-0.7-0.8-1l-0.4-0.6c-0.9-1.3-1.8-2.6-2.6-4l-0.3-0.6c-0.1-0.2-0.2-0.3-0.3-0.5l-0.3-0.6c-3.3-6-5.6-13.2-5.6-21.5
					c0,0,0-27.3,0-27.9c0.6,0,54.5,0,55.1,0c0,0.6,0,27.9,0,27.9c0,8.4-2.3,15.6-5.7,21.6l-0.3,0.6c-0.1,0.2-0.2,0.3-0.3,0.4
					l-0.3,0.6c-0.3,0.4-0.5,0.9-0.9,1.4l-0.2,0.3c-0.5,0.8-1,1.6-1.6,2.2l-0.5,0.7c-0.3,0.3-0.6,0.8-0.9,1.1L100.6,124.3z"/>
			</g>
			<path class="st1" d="M67.5,41.3c-0.2,0.2-0.3,0.3-0.4,0.3c-0.2,0-0.4-0.4-0.4-0.6c0-0.2,1.3-0.6,1.4-0.5s-0.1,0.5-0.1,0.5
				S67.7,41.1,67.5,41.3z"/>
			<path class="st1" d="M72.7,32.5l0.2-0.2c0.2,0.3,0.7,0.9,0.7,1c0,0.1-0.1,0.5-0.2,0.7c-0.1,0.1-0.2,0-0.2,0s-0.2-1-0.1-0.8
				C73.2,33.4,72.9,32.9,72.7,32.5z"/>
			<path class="st1" d="M82.7,27.2c0-0.3,0-0.8,0-0.8s0.6,1,0.6,1.2s-0.3,0.3-0.4,0.3c-0.1,0.1-0.3,0.4-0.3,0.4l-0.2-0.3
				C82.5,28.2,82.7,27.4,82.7,27.2z"/>
			<path class="st1" d="M74.7,30.5c0.2,0.2,1.2,0.4,1.4,0.4c0,0.1,0.1,0.3-0.1,0.4c-0.3,0.2-0.4-0.3-0.8-0.5
				C75,30.7,74.7,30.6,74.7,30.5C74.7,30.6,74.6,30.5,74.7,30.5"/>
			<path class="st1" d="M93.6,29.8C93.4,30,93,30.6,93,30.7c0,0.1,0.3,0,0.3,0s0.8-0.7,0.9-0.8S93.6,29.8,93.6,29.8z"/>
		</g>
	</g>
</g>
</svg>
