<?xml version="1.0" encoding="utf-8"?>
<!-- Generator: Adobe Illustrator 26.0.2, SVG Export Plug-In . SVG Version: 6.00 Build 0)  -->
<svg version="1.1" id="图层_1" xmlns="http://www.w3.org/2000/svg" xmlns:xlink="http://www.w3.org/1999/xlink" x="0px" y="0px"
	 width="236.6px" height="125.4px" viewBox="0 0 236.6 125.4" style="enable-background:new 0 0 236.6 125.4;" xml:space="preserve"
	>
<style type="text/css">
	.st0{display:none;fill:none;}
	.st1{fill:#FFFFFF;}
	.st2{fill-rule:evenodd;clip-rule:evenodd;fill:#FFFFFF;}
</style>
<g id="Black_Outline_Layer">
	<rect x="18.2" y="10.9" class="st0" width="49.5" height="89.2"/>
	<g>
		<path id="University_of_Toronto_Mark_Stacked_1_" class="st1" d="M207.9,68.7c6.1,0,9.8,4.8,9.8,9.8c0,5.5-4.8,10-10.1,10
			c-5.6,0-9.5-4.5-9.5-10C198,73.2,202.6,68.7,207.9,68.7 M208.9,87.2c3.6,0,5.8-3.5,5.8-6.9c0-5.4-3.1-10.4-7.7-10.4
			c-3.7,0-5.9,3.2-5.9,7C201,81.8,203.9,87.2,208.9,87.2z M189.1,69.1H185c-1.8,0-3.1,0-4.1-0.1c-1-0.1-1.2-0.3-1.4-0.5H179
			c-0.1,0.2-1.4,3.7-1.4,3.8l0.6,0.4c0.6-1.7,1.3-2.5,4.7-2.5c0.3,0,1.4,0,2.7,0.2c0.2,2.5,0.2,4.8,0.2,7.2c0,1.5-0.1,7.2-0.2,8.4
			c-0.1,0.6-0.4,0.8-1.9,1.2c-0.7,0.1-1.1,0.2-1.5,0.2l0.2,0.8c0.5-0.1,1.2-0.1,1.8-0.2c0.8-0.1,1.7-0.1,3.1-0.1
			c0.5,0,1.4-0.1,2.2,0c0.8,0.1,1.5,0.1,2.5,0.1l0.1-0.8c-0.2,0-0.5-0.1-0.9-0.1c-0.5-0.1-1.4-0.2-1.7-0.6c-0.6-0.7-0.6-5.8-0.6-7.2
			c0-1.2,0.2-7.2,0.2-8.6c0-0.6,0.2-0.6,1.9-0.6h0.1c0.8-0.1,1,0,1.3,0c3.4,0,3.5,0.8,4.1,2.5l0.6-0.4c-0.1-0.2-0.7-3.6-0.8-3.8
			h-0.5c-0.2,0.2-0.4,0.4-1.4,0.5c-1.3,0.1-2.8,0.1-4.4,0.1L189.1,69.1L189.1,69.1z M157.8,69c-0.8,0.1-1.4,0.1-2.3,0.1
			c-0.5,0-0.9,0-1.4-0.1c-0.5-0.1-0.5-0.1-1-0.1v0.8c2.8,0.5,3,0.9,2.9,6.5v3.4c0,1.3-0.1,5.1-0.2,6.2c-0.2,1.2-0.7,1.3-1.4,1.5
			c-0.4,0.1-0.8,0.2-1.1,0.2v0.7c0.7,0,1.4-0.1,2.2-0.1c0.7-0.1,1.7-0.1,2.4-0.1s1.5,0.1,2.2,0.1c0.6,0,1,0.1,1.3,0.1v-0.8
			c-3.8-0.7-3.8-1.2-3.7-4.4v-8.1l0.1-1.5c0,0,0,0.1,14,14.8h1c-0.1-1.6-0.1-5.6-0.1-7.4c0-2.5,0-9,0.1-9.8c0.2-1.2,1.8-1.4,2.7-1.4
			v-0.7c-2,0-3.1,0.1-4.1-0.1c-0.8-0.1-1.5-0.2-2-0.2c-0.4,0-0.9-0.1-1.2,0l-0.2,0.7c3.1,0.2,3.1,0.5,3.1,7.7c0,0.8-0.1,5.1-0.1,5.8
			L157.8,69z M140.5,68.7c6.1,0,9.8,4.8,9.8,9.8c0,5.5-4.8,10-10.1,10c-5.6,0-9.5-4.5-9.5-10C130.7,73.2,135.3,68.7,140.5,68.7z
			 M141.6,87.2c3.6,0,5.8-3.5,5.8-6.9c0-5.4-3.1-10.4-7.7-10.4c-3.7,0-5.9,3.2-5.9,7C133.7,81.8,136.6,87.2,141.6,87.2z M110.4,68.9
			c0.6,0.1,1.2,0.1,1.8,0.1c0.6,0.1,1.2,0.1,1.8,0.1c0.4,0,1.5-0.1,2.6-0.2c1.1-0.1,1.9-0.1,2.6-0.1c4,0,6.6,2.2,6.6,5.1
			c0,2.7-2.5,4.3-4.4,4.8c3.9,5.7,4.7,6.6,6.2,8c0.2,0.2,1.4,1.3,2.8,1.4l-0.1,0.7c-3.3,0-4.9-1.3-5.8-1.9c-2.9-2.3-5.8-6.8-6.3-7.7
			c-0.8,0-1.2,0-2.5-0.1v2.8c0,1.2-0.1,4,0.3,4.8c0.2,0.4,1.7,0.8,2.6,1.2l0.1,0.7c-1.2-0.2-2.9-0.3-4.1-0.3c-0.7,0-3.6,0.2-4.2,0.2
			l-0.2-0.6c0.3-0.1,2-0.4,2.5-1.2c0.3-0.7,0.3-4.7,0.3-6V76c0-5.9-0.3-6-2.7-6.1L110.4,68.9z M115.8,77.8c0.6,0.1,1.5,0.1,2,0.1
			c0.7,0,4.7,0,4.7-3.8c0-1.8-1.3-4.4-4.7-4.4c-2,0-2,0.2-2,3.5L115.8,77.8z M97.2,68.7c6.1,0,9.8,4.8,9.8,9.8c0,5.5-4.8,10-10.1,10
			c-5.6,0-9.5-4.5-9.5-10C87.3,73.2,91.9,68.7,97.2,68.7z M98.2,87.2c3.6,0,5.8-3.5,5.8-6.9c0-5.4-3.1-10.4-7.7-10.4
			c-3.7,0-5.9,3.2-5.9,7C90.3,81.8,93.2,87.2,98.2,87.2z M78,69.1h-4.1c-1.8,0-3.1,0-4.1-0.1c-1-0.1-1.2-0.3-1.4-0.5h-0.5
			c-0.1,0.2-1.4,3.7-1.5,3.8l0.6,0.4c0.6-1.7,1.3-2.5,4.7-2.5c0.3,0,1.4,0,2.7,0.2c0.2,2.5,0.2,4.8,0.2,7.2c0,1.5-0.1,7.2-0.2,8.4
			c-0.1,0.6-0.4,0.8-1.9,1.2c-0.7,0.1-1.1,0.2-1.5,0.2l0.2,0.8c0.5-0.1,1.2-0.1,1.8-0.2c0.8-0.1,1.7-0.1,3.1-0.1
			c0.5,0,1.4-0.1,2.2,0c0.8,0.1,1.5,0.1,2.5,0.1l0.1-0.8c-0.2,0-0.5-0.1-0.9-0.1c-0.5-0.1-1.4-0.2-1.7-0.6c-0.6-0.7-0.6-5.8-0.6-7.2
			c0-1.2,0.2-7.2,0.2-8.6c0-0.6,0.2-0.6,1.9-0.6h0.1c0.8-0.1,1,0,1.3,0c3.4,0,3.5,0.8,4.1,2.5l0.6-0.4c-0.1-0.2-0.7-3.6-0.8-3.8
			h-0.5C84.2,68.7,84,68.9,83,69C81.7,69,80.2,69,78.6,69L78,69.1L78,69.1z M200.7,52.3c-1.2,0.2-1.5,0.2-2.9,0.2h-1.5l-1.5-0.1
			l-0.5,0.1l-0.4,0.1v0.1v0.3h0.1c0.4,0,0.7,0.1,0.8,0.3c0.2,0.3,0.2,0.7,0.2,3.7c0,1.4-0.2,3-0.2,3.3c-0.1,0.3-0.5,0.5-0.8,0.5
			h-0.1L194,61h0.1c0.8-0.1,1.8-0.1,2-0.1h0.7l1.4,0.1v-0.1v-0.4h-0.1c-1-0.1-1.3-0.3-1.4-0.4c-0.1-0.2-0.2-0.6-0.2-1.2
			c0-0.2,0-0.3,0-0.5c0,0,0.1-1.3,0.1-1.6c0.1,0,0.7-0.1,0.7-0.1c0.8,0,1.7,0.2,1.9,0.3c0.2,0.1,0.3,0.3,0.3,0.7v0.1h0.4v-0.1
			c0.1-0.8,0.1-1.8,0.1-2.4v-0.1h-0.5v0.1c-0.1,0.6-0.2,0.8-1.8,0.8c-0.5,0-0.6,0-1.2-0.1c0,0,0,0-0.1,0c0-0.2,0-0.3,0-0.5
			s0-0.4,0-0.6c0,0,0.1-1.8,0.1-2c0.5-0.1,0.9-0.1,1-0.1c0.9,0,1.7,0.2,2.1,0.4c0.3,0.2,0.4,0.5,0.5,0.8v0.1l0.5-0.1V54
			c0-0.2,0-0.6,0.1-1l0.1-0.9L200.7,52.3z M187.9,52.2c2.8,0,4.5,2.2,4.5,4.4c0,2.4-2.2,4.5-4.6,4.5s-4.4-1.9-4.4-4.5
			C183.4,54.3,185.5,52.2,187.9,52.2z M188.2,60.4c1.5,0,2.5-1.5,2.5-2.9c0-2.2-1.3-4.5-3.4-4.5c-1.7,0-2.6,1.5-2.6,3
			C184.9,58.1,186.1,60.4,188.2,60.4z M172,52.4v0.4h0.1c0.4,0,1,0.1,1,0.4c0,0.1-0.2,0.6-1.8,2.9c-0.7-0.8-2.2-2.8-2.2-3
			c0-0.1,0-0.2,0.9-0.2h0.1v-0.5h-0.8l-1.5,0.1h-1.7v0.1V53h0.1c0.4,0,0.7,0.1,0.8,0.2c0.5,0.4,2.4,2.7,2.4,2.8c0,0,0.7,0.9,0.8,1
			c0.1,0.6,0.1,1.3,0.1,2.1c0,1.3,0,1.5-1.2,1.6h-0.1l-0.1,0.4h0.1c0.2,0,0.7-0.1,1.3-0.1l0.9-0.1l0.7,0.1h0.2l0.9,0.1v-0.1v-0.4
			h-0.1c-1.2-0.1-1.2-0.3-1.2-0.5v-0.1c-0.1-0.5-0.1-1.1-0.1-1.7c0-0.5,0-1,0.1-1.5c0.1-0.1,1.7-2.5,1.7-2.5
			c0.5-0.8,0.8-1.3,1.9-1.3h0.1v-0.5h-0.1c-0.2,0-0.6,0-1,0.1l-0.5,0.1l-0.6-0.1l-0.5-0.1h-0.6h-0.1H172L172,52.4z M164.4,52.2h-0.3
			v0.1c-0.1,0.1-0.2,0.2-0.5,0.2h-1.7h-2.4h-1.8c-0.5,0-0.5-0.2-0.5-0.2v-0.1h-0.3v0.1c-0.1,0.1-0.6,1.6-0.6,1.7V54l0.4,0.2l0.1-0.1
			c0.3-0.7,0.5-1,2-1c0.5,0,0.8,0.1,1.2,0.1c0.1,1.2,0.1,2.3,0.1,3.1c0,0.8-0.1,3.1-0.1,3.7c-0.1,0.2-0.1,0.3-0.8,0.5l-0.5,0.1
			l-0.2,0.1l0.1,0.5l0.7-0.1h0.2l1.4-0.1h0.2h0.8h0.6h0.6v-0.1l0.1-0.4l-0.4-0.1h-0.1c-0.4-0.1-0.6-0.2-0.7-0.2s-0.3-0.6-0.3-3.1
			l0.1-1.8l0.1-2c0-0.2,0-0.2,0.8-0.2h0.1h0.5h0.1c1.4,0,1.5,0.3,1.7,0.9l0.1,0.2l0.4-0.2l-0.1-0.5c-0.2-0.7-0.3-1.2-0.3-1.3v-0.1
			L164.4,52.2L164.4,52.2z M150.3,52.4v0.5h0.1c1.2,0.1,1.3,0.3,1.4,0.5c0.2,0.4,0.2,2.8,0.2,3.7v0.2c0,0.7,0,2.5-0.2,2.8
			c-0.1,0.2-0.4,0.4-1.5,0.5h-0.1V61l1.4-0.1h1.2l2,0.1v-0.1l-0.1-0.4h-0.1c-0.9,0-1.2,0-1.3-0.4c-0.1-0.2-0.1-1-0.1-2.4
			c0-3.3,0-4.2,0.2-4.5c0.2-0.4,1-0.3,1.3-0.3h0.1v-0.5h-1l-1.4,0.1l-0.9-0.1H151L150.3,52.4l-0.1-0.1L150.3,52.4L150.3,52.4z
			 M142.7,54.8c0,1.5,1.2,1.9,2.2,2.3l0.1,0.1c1.5,0.6,2.3,0.9,2.3,2c0,0.6-0.5,1.3-1.5,1.3c-0.9,0-1.6-0.4-2-0.7
			c-0.5-0.4-0.6-1-0.7-1.2v-0.1h-0.5l0.1,0.1c0.3,0.9,0.4,1.4,0.4,2.4V61l0.4,0.1V61c0-0.1,0.1-0.2,0.2-0.2c0.1,0,0.4,0.1,0.5,0.1
			h0.1l0.2,0.1c0.2,0.1,0.5,0.2,1,0.2c2.1,0,3.2-1.3,3.2-2.5c0-1.7-1.6-2.3-2.7-2.8c-1-0.4-1.8-0.8-1.8-1.6c0-0.8,0.6-1.4,1.6-1.4
			c0.8,0,1.5,0.5,1.6,0.6c0.4,0.3,0.5,0.7,0.5,1v-0.1h0.1h0.4l-0.2-1.2c0-0.4,0.1-0.8,0.2-1v-0.1l-0.4-0.1c0,0-0.2,0.2-0.3,0.2
			c-0.8-0.2-1.2-0.3-1.7-0.3C144,52.3,142.7,53.3,142.7,54.8z M136.7,52.3c1.8,0,3,0.9,3,2.3c0,1.1-0.9,1.8-1.9,2.2
			c1.7,2.4,2,2.8,2.7,3.4c0.1,0,0.5,0.5,1.2,0.6h0.1l-0.1,0.5h-0.1c-1.5,0-2.2-0.5-2.6-0.8c-1.3-1-2.6-3-2.8-3.4
			c-0.1,0-0.9-0.1-1-0.1c0,0.2,0,1.2,0,1.2s0,0.3,0,0.4c0,0.6,0,1.4,0.2,1.7c0.1,0.2,0.8,0.4,1.2,0.5h0.1l0.1,0.5h-0.1
			c-0.5-0.1-1.3-0.2-1.8-0.2c-0.3,0-1.6,0.1-1.9,0.1h-0.1l-0.1-0.4h0.1c0.2-0.1,0.8-0.2,1-0.5c0.2-0.3,0.2-1.8,0.2-2.4v-0.2v-2
			c0-2.5-0.1-2.6-1.2-2.6h-0.2l0.1-0.5h0.2l0.8,0.1h0.8c0.2,0,0.7-0.1,1.2-0.1l0,0l0,0L136.7,52.3z M135.4,56.3
			c0.3,0.1,0.6,0.1,0.8,0.1c0.8,0,2-0.2,2-1.6c0-0.7-0.5-1.8-2-1.8c-0.8,0-0.8,0.1-0.8,1.5C135.4,54.4,135.4,56.2,135.4,56.3z
			 M130.3,52.3c-1,0.1-2.7,0.1-3.8,0.1c-0.7,0-2.3-0.1-2.9-0.1h-0.1v0.4h0.1c0.7,0.2,0.8,0.2,0.8,0.3c0.1,0.2,0.2,0.9,0.2,3.5
			c0,1.1-0.1,2.8-0.2,3.5c-0.1,0.3-0.4,0.4-1,0.5h-0.1l0.1,0.5h0.1c1.2-0.2,2.5-0.2,3.4-0.2l3.4,0.1l0.1-0.1
			c0.2-0.3,0.5-0.7,0.6-2.1v-0.1l-0.4-0.1v0.1c-0.3,0.8-0.8,1.6-2.9,1.6c-0.7,0-1-0.1-1.5-0.3c-0.1-0.2-0.1-0.6-0.1-1.6
			c0,0,0-1.3,0-1.6c0.5-0.1,1-0.1,1.3-0.1c1.7,0,1.8,0.2,2,1.2v0.1h0.4v-0.1c0-1.2,0-1.4,0.1-2.6v-0.1h-0.5v0.1
			c-0.2,0.6-0.3,0.7-0.5,0.8c-1.2,0.2-2.4,0.1-2.7,0.1c0-0.1-0.1-1.2-0.1-1.2c0-0.5,0.1-1.4,0.2-2c0.5-0.1,1.3-0.2,1.6-0.2
			c0.9,0,1.5,0.2,1.7,0.4c0.2,0.2,0.2,0.5,0.2,0.9v0.1l0.5,0.1V54c0-0.1,0.1-0.4,0.1-0.7l0.1-0.3c0.1-0.5,0.1-0.6,0.1-0.8v-0.1
			L130.3,52.3z M111.9,52.4l0.1,0.4h0.1c1.2,0.2,1.2,0.2,2.2,2l1.9,3.9v0.1c0.3,0.7,0.8,1.7,1,2.3v0.1h0.4v-0.1
			c0.3-0.8,0.5-1.5,1.2-2.8l2.1-4c0.5-0.9,0.7-1.2,1.6-1.4h0.1v-0.5h-0.1c-0.5,0-1,0-1.6,0l-1.6-0.1v0.1l-0.1,0.5h0.1
			c0.4,0,1,0.1,1,0.5c0,0.3-0.2,0.7-0.3,0.9l-0.1,0.1c-0.4,0.9-0.7,1.5-0.9,2l-0.9,1.9c0,0-0.2,0.3-0.2,0.5
			c-0.9-1.5-2.6-5.5-2.6-5.8c0-0.1,0.1-0.2,0.7-0.2l0.2-0.1v-0.5h-1.3h-0.8C113.4,52.5,112.4,52.5,111.9,52.4h-0.1H111.9z
			 M106.2,52.4v0.5h0.1c1.2,0.1,1.3,0.3,1.4,0.5c0.2,0.4,0.2,2.8,0.2,3.7v0.2c0,0.7,0,2.5-0.2,2.8c-0.1,0.2-0.4,0.4-1.5,0.5h-0.1V61
			l1.4-0.1h1.2l2,0.1v-0.1l-0.1-0.4h-0.1c-0.9,0-1.2,0-1.3-0.4c-0.1-0.2-0.1-1-0.1-2.4c0-3.3,0-4.2,0.2-4.5c0.2-0.4,1-0.3,1.3-0.3
			h0.1v-0.5h-1l-1.4,0.1l-0.9-0.1H107L106.2,52.4L106.2,52.4L106.2,52.4L106.2,52.4z M101.3,52.3L101.3,52.3L101.3,52.3l-0.2,0.5
			h0.1c1.6,0.1,1.4,0.2,1.5,3.5c0,0,0,2,0,2.3c-0.2-0.2-5.9-6.1-5.9-6.1v-0.1h-0.9h-0.6h-0.1l-0.6-0.1v0.1v0.4h0.1
			c1.2,0.2,1.4,0.4,1.3,2.8v1.5c0,0.5-0.1,2.2-0.2,2.7c-0.1,0.5-0.2,0.5-0.5,0.6l-0.5,0.2v0.1V61l2-0.1l0.9,0.1l0.7,0.1v-0.1v-0.4
			h-0.1c-1.6-0.3-1.6-0.5-1.6-1.8l0.1-3.5c0,0,0-0.3,0-0.5c0.3,0.3,6.1,6.4,6.1,6.4v0.1h0.5V61c-0.1-0.7-0.1-2.5-0.1-3.2
			c0-1.2,0.1-3.8,0.1-4.1c0.1-0.6,0.5-0.7,1-0.7h0.1v-0.6h-0.1c-0.9,0-1.4,0.1-1.8,0l-0.3-0.1l-0.6-0.1H101.3z M85.8,52.4h-0.5
			c-0.6,0-1.8,0-1.9,0.1h-0.1l0.1,0.5h0.1c0.5,0,0.7,0,0.8,0.1c0.2,0.1,0.3,1.1,0.3,2.4l-0.1,2.8c0,1.9,1.2,2.9,3.5,2.9
			c3.7,0,3.8-1.9,3.9-6v-1.2v-0.1c0-0.6,0.1-0.8,1-0.9H93l0.1-0.5h-0.2l-1.5,0.1l-1.2-0.2h-0.5v0.1v0.4h0.1c0.4,0,0.8,0.1,1,0.2
			c0.3,0.3,0.4,1.4,0.4,2v0.8c0,2.8-0.2,4.5-2.8,4.5c-2.4,0-2.4-1.9-2.4-2.8v-1.6c0-2.9,0.1-2.9,1.4-3.1h0.1v-0.5h-0.1
			C87.1,52.4,86.4,52.4,85.8,52.4z"/>
		<g>
			<g>
				<g>
					<path class="st1" d="M33.3,37.9c-0.3,0.1-0.5,0.3-0.5,0.5c-0.2,0-0.4,0-0.6,0.2c-0.2,0.2-0.3,0.4-0.4,0.6v0.2
						c0,0.3,0.2,0.6,0.6,0.9c0,0.1,0,0.1,0,0.1c0,0.2,0.1,0.4,0.3,0.6c0.2,0.1,0.2,0.2,0.4,0.2C33,41.2,33,41.4,33,41.4l0.1,0.3
						c0.1,0.3,0.4,0.6,0.9,0.7c0.1,0.2,0.1,0.3,0.2,0.4c0.2,0.2,0.5,0.3,0.9,0.2C35,43.1,35,43.2,35,43.3s0.1,0.4,0.2,0.6
						c0.4,0.5,1,0.3,1.4,0.1c0.2,0.2,0.5,0.4,0.8,0.3c0.5-0.1,0.8-0.5,0.9-0.8c0.1,0,0.4-0.1,0.4-0.1l0.1-0.1
						c0.2-0.2,0.4-0.5,0.6-0.8c0.4,0.4,0.7,0.8,0.8,0.9c0.1,0.2,0.2,0.5,0.7,1.2c0,0,0.3,0.5,0.4,0.7c-0.2,0.7-0.5,1.2-0.9,1.5
						l-0.3,0.2c-0.6,0.3-1.4,0.7-1.8,1l0,0c-0.3,0-0.5,0.1-0.7,0.2C37.4,48,37.1,48,36.9,48c-0.8,0-1.3,0.5-1.4,0.8
						c-0.3,0.5-0.2,1.2,0.1,1.6c0.3,0.5,0.8,0.7,1.4,0.7c0.2,0,0.5-0.1,0.6-0.2c0.2,0.1,0.4,0.2,0.6,0.2c0.2,0,0.5-0.1,0.7-0.2
						C39,51,39.2,51,39.4,51c0.2,0,0.4-0.1,0.6-0.2c0.2,0.1,0.4,0.2,0.6,0.2c0.3,0,0.5-0.1,0.6-0.2c0.2,0.1,0.4,0.2,0.6,0.2
						s0.4-0.1,0.6-0.2c0.2,0.1,0.4,0.2,0.6,0.2c0.3,0,0.5-0.1,0.6-0.2c0.2,0.1,0.4,0.2,0.6,0.2s0.4-0.1,0.6-0.2
						c0.2,0.1,0.4,0.2,0.6,0.2c0.3,0,0.5-0.1,0.6-0.2c0.2,0.1,0.4,0.2,0.6,0.2s0.4-0.1,0.6-0.2c0.2,0.1,0.4,0.2,0.6,0.2
						c0.3,0,0.5-0.1,0.7-0.2c0.2,0.1,0.5,0.2,0.7,0.2c0.7,0,1.2-0.3,1.5-0.8c0.3-0.5,0.2-1.2-0.1-1.5c-0.3-0.5-0.8-0.7-1.4-0.7
						c-0.2,0-0.4,0.1-0.6,0.2c-0.1,0-0.2-0.1-0.2-0.1c-0.3-0.4-0.7-0.6-1.5-0.9l-0.2-0.1c-0.9-0.4-1.2-0.7-1.3-1l-0.2-0.3
						c-0.1-0.1-0.2-0.6-0.2-1.3c0-0.5,0.1-1.2,0.4-1.6c0.2-0.3,0.4-0.5,0.7-0.7c0.1,0.3,0.2,0.5,0.3,0.6l0,0l0.1,0.1l0.4,0.2
						l-0.1-0.1c0.2,0.4,0.4,0.8,0.9,0.9c0.2,0.1,0.3-0.1,0.5-0.1c0.2,0.2,0.4,0.3,0.7,0.3s0.5-0.2,0.5-0.2c0.5,0.1,0.8-0.2,1-0.4
						l0.2-0.5v-0.1c0-0.2-0.1-0.3-0.2-0.5c0.1,0,0.1,0,0.1,0c0.2-0.1,0.2-0.2,0.3-0.3c0.5-0.1,0.6-0.3,0.7-0.5c0,0,0.1-0.1,0.1-0.2
						c0,0,0,0,0.1-0.1c0.2,0.1,0.5,0.2,0.8,0c0.2-0.1,0.3-0.3,0.4-0.5c0.2,0,0.5,0,0.6-0.2c0.2-0.2,0.4-0.4,0.4-0.7v-0.2
						c0-0.3-0.2-0.8-0.8-1c-0.1-0.2-0.1-0.4-0.3-0.5c-0.4-0.4-0.8-0.3-1.2-0.2c0.1-0.1,0.2-0.2,0.2-0.3c0.4,0.1,1.2,0.2,1.5-0.4
						l0.1-0.3c0-0.1-0.1-0.2-0.1-0.3c0.4-0.3,0.5-0.6,0.5-0.8l-0.1-0.5c-0.2-0.5-0.5-0.6-1-0.5c-0.1-0.1-0.1-0.2-0.2-0.3
						c0,0-0.1,0-0.1-0.1c0.1-0.2,0.1-0.3,0.1-0.3l-0.2-0.3c-0.1-0.3-0.3-0.5-0.5-0.5c-0.2-0.1-0.4-0.1-0.7,0
						c0.2-0.2,0.4-0.4,0.4-0.6v-0.2l0,0c0-0.2-0.1-0.4-0.2-0.6C51,32,50.6,31.9,50.2,32c-0.1-0.1-0.2-0.2-0.5-0.3
						c-0.4-0.1-0.8,0.2-1,0.4c-0.1-0.1-0.2-0.2-0.2-0.2h-0.1c0,0-0.1,0-0.2,0c0-0.2-0.1-0.5-0.3-0.6c-0.2-0.2-0.5-0.4-0.8-0.4
						C47.1,31,47,31,46.9,31c0.2-0.2,0.2-0.4,0.2-0.5l-0.1-0.4c-0.2-0.3-0.3-0.4-0.5-0.5l0,0c0-0.8-0.5-0.9-0.7-1
						c-0.4-0.1-0.8,0.1-1.1,0.4C44.5,29,44.4,29,44.4,29c-0.2-0.2-0.4-0.3-0.6-0.4c-0.7-0.1-0.9,0.5-1,0.8c-0.2,0-0.3,0-0.5,0.1
						c0,0-0.1,0.2-0.2,0.2c0.2,0.1,0.2,0.1,0.1,0.1c-0.1-0.6-0.5-0.8-0.6-0.9c-0.2-0.1-0.4-0.1-0.5,0c-0.5-0.5-1-0.5-1.3-0.4l0,0
						c-0.3,0.2-0.5,0.5-0.5,0.8c0,0,0.1,0.3,0.1,0.5c0.1,0.1-0.1,0.2-0.1,0.2c-0.3-0.1-0.6-0.1-0.9,0.2c-0.3,0.2-0.5,0.5-0.5,0.8
						c0,0.3,0.1,0.5,0.2,0.7c-0.2,0.2-0.3,0.3-0.3,0.5v0.2c0,0,0.1,0.2,0.1,0.2c-0.2,0.1-0.5,0.2-0.7,0.3c-0.2,0.2-0.2,0.3-0.2,0.5
						c-0.2-0.4-0.4-0.6-0.8-0.7c-0.2,0-0.4,0.1-0.5,0.2c-0.3-0.2-0.6-0.2-0.8-0.2c-0.2,0.1-0.6,0.4-0.6,1c0,0,0,0.2,0.1,0.3
						c-0.2,0.1-0.3,0.2-0.3,0.4l0,0c0,0,0,0,0,0.1l0,0c0,0.1-0.1,0.2-0.1,0.3l0,0c0,0.2,0.1,0.4,0.2,0.5l0,0
						c-0.1,0.1-0.4,0.2-0.5,0.5c-0.3,0.1-0.6,0.2-0.8,0.5c0,0.1-0.2,0.5-0.2,0.5v0.1l0.1,0.4c0.1,0.2,0.3,0.4,0.5,0.5
						c0,0,0.1,0.1,0.1,0.1C33.3,37.7,33.3,37.9,33.3,37.9z M33.6,37.5l-0.2-0.1c-0.3-0.2-0.4-0.2-0.5-0.4c0,0-0.1-0.2-0.1-0.3
						c0-0.1,0.1-0.5,0.1-0.5v0.1c0.2-0.3,0.3-0.4,0.6-0.4h0.2l0.1-0.2c0.1-0.2,0.2-0.3,0.3-0.4l0.5-0.1l-0.2-0.2
						c-0.2-0.2-0.3-0.3-0.3-0.5l0.1-0.2c0.1-0.2,0.2-0.2,0.3-0.3l0.1-0.1l-0.1-0.5c0-0.3,0.2-0.5,0.4-0.6c0.2-0.1,0.4-0.1,0.6,0.2
						l0.2,0.2l0.1-0.2C35.9,33,36,33,36.1,33c0.2,0,0.4,0.1,0.5,0.6l0.1,0.2c0,0,0.2-0.1,0.3-0.1c0.1,0.1,0.2,0.2,0.2,0.2l0.1-0.2
						l-0.1-0.3l0,0c0-0.2,0.1-0.2,0.2-0.4c0.2-0.2,0.4-0.3,0.6-0.3h0.2l-0.1-0.3l-0.1-0.3v-0.1c0-0.2,0.1-0.2,0.3-0.4l0.2-0.1
						l-0.1-0.2c-0.1-0.2-0.2-0.4-0.2-0.6c0-0.2,0.1-0.4,0.3-0.5c0.2-0.2,0.4-0.2,0.8-0.1l0.2,0.1l-0.1-0.1c0.1-0.1,0.2-0.2,0.3-0.2
						l0.2-0.1l-0.1-0.2l-0.1-0.5c0-0.2,0.1-0.4,0.3-0.5c0.3-0.2,0.6,0,1,0.4l0.1,0.1l0.1-0.1c0.2-0.1,0.2-0.1,0.4,0
						c0.2,0.1,0.4,0.3,0.4,0.7v0.1l0.2,0.1l0.1,0.1l0.2,0.2l0.1,0.1l0.2-0.2l0.2-0.2C43,30,43,30,43.2,30.1l0.2,0.1l0.1-0.2
						c0.2-0.5,0.4-0.8,0.7-0.8c0.2,0,0.3,0.1,0.5,0.3l0.1,0.1h-0.1c0.1,0,0.2,0.1,0.3,0.1l0.2,0.1l0.1-0.2c0.3-0.3,0.5-0.5,0.8-0.4
						c0.2,0.1,0.5,0.2,0.5,0.7v0.2l0.2,0.1c0.2,0.1,0.3,0.2,0.4,0.4l0.1,0.3c0,0.2-0.1,0.3-0.3,0.5l-0.2,0.1l0.1,0.1l0.1,0.5
						l0.2-0.2c0.2-0.2,0.4-0.2,0.5-0.2c0.2,0,0.4,0.1,0.5,0.3c0.2,0.2,0.2,0.3,0.2,0.5l-0.1,0.3l0.3,0.1l0.2-0.1l0.2-0.1l0.1,0.1
						l0.1-0.1c0.2-0.2,0.5-0.4,0.8-0.4c0.2,0.1,0.3,0.2,0.4,0.2l0.1,0.1l0.2-0.1c0.4-0.2,0.7-0.1,0.9,0.2c0.1,0.1,0.2,0.2,0.2,0.4
						V33c-0.1,0.2-0.2,0.3-0.4,0.5l-0.2,0.1l0.1,0.5l0.2-0.1c0.3-0.1,0.5-0.1,0.6-0.1c0.2,0.1,0.3,0.2,0.3,0.3l0.1,0.3
						c0-0.1-0.1,0.3-0.1,0.3L52,35l0.1,0.1l0.1,0.1c0,0.1,0.1,0.2,0.1,0.2l0.1,0.2l0.2-0.1c0.4-0.1,0.6,0,0.8,0.3l0.1,0.4
						c0,0.2-0.2,0.5-0.5,0.6L52.8,37l0.1,0.2l0.1,0.2l-0.1,0.2c-0.2,0.4-0.7,0.3-1.2,0.2l-0.2-0.1l-0.1,0.2
						c-0.1,0.2-0.2,0.2-0.3,0.3L51,38.3l0.1,0.2l0.1,0.2v0.2L51,39.1l0.3-0.2c0.5-0.3,0.8-0.3,1-0.1c0.2,0.2,0.2,0.3,0.2,0.4v0.2
						l0.2,0.1c0.5,0.2,0.7,0.4,0.7,0.7v0.1c-0.1,0.2-0.2,0.3-0.3,0.5C53,41,52.8,41,52.7,40.9h-0.2l-0.1,0.2
						c-0.1,0.2-0.2,0.3-0.3,0.4c-0.2,0.1-0.4,0.1-0.6-0.1l-0.1-0.1l-0.1,0.1l-0.2,0.2l-0.1,0.1l-0.1,0.2C51.1,41.9,51,42,50.7,42
						h-0.2l-0.1,0.1c-0.1,0.1-0.1,0.2-0.2,0.2l-0.2,0.1l-0.1,0.1l-0.1,0.2l0.1,0.1c0.1,0.1,0.2,0.2,0.2,0.4c0,0.1-0.2,0.4-0.2,0.4
						c-0.1,0.1-0.3,0.3-0.7,0.2h-0.1l-0.1,0.1c-0.1,0.1-0.2,0.2-0.4,0.2c-0.3,0-0.4-0.1-0.5-0.2l-0.1-0.1l-0.1,0.1
						c-0.1,0.1-0.2,0.1-0.4,0.1c-0.3-0.1-0.5-0.4-0.6-0.7L47,43h-0.1l-0.5-0.4c-0.1-0.1-0.2-0.2-0.2-0.7l-0.1-0.2L46,41.8
						c-0.4,0.2-0.7,0.5-1,0.9c-0.4,0.6-0.5,1.3-0.5,1.8c0,0.7,0.2,1.3,0.2,1.5l0.1,0.1c0.2,0.3,0.4,0.8,1.5,1.2l0.2,0.1
						c0.9,0.4,1.3,0.5,1.5,0.8l0.1,0.1l0.5,0.2l0.1-0.1c0.2-0.1,0.4-0.2,0.5-0.2c0.5,0,0.8,0.2,1.1,0.5c0.2,0.3,0.3,0.8,0.1,1.2
						c-0.2,0.4-0.6,0.6-1.2,0.6c-0.2,0-0.4-0.1-0.6-0.2l-0.1-0.1l0.1,0.2c-0.2,0.1-0.3,0.2-0.6,0.2c-0.2,0-0.4-0.1-0.5-0.2l-0.1-0.1
						l-0.1,0.1c-0.2,0.1-0.3,0.2-0.5,0.2c-0.2,0-0.3-0.1-0.5-0.2L46,50.3l-0.1,0.1c-0.1,0.1-0.3,0.2-0.6,0.2c-0.2,0-0.4-0.1-0.5-0.2
						l0.1,0.1l-0.1,0.1c-0.2,0.1-0.3,0.2-0.5,0.2c-0.2,0-0.3-0.1-0.5-0.2l-0.1-0.1l-0.1,0.1c-0.1,0.1-0.2,0.2-0.5,0.2
						c-0.2,0-0.3-0.1-0.5-0.2l-0.1-0.1l-0.1,0.1c-0.2,0.1-0.3,0.2-0.5,0.2c-0.2,0-0.3-0.1-0.5-0.2l-0.1-0.1v0.1
						c-0.1,0.1-0.3,0.2-0.6,0.2c-0.2,0-0.4-0.1-0.5-0.2l-0.1-0.1L40,50.5c-0.1,0.1-0.3,0.2-0.5,0.2s-0.3-0.1-0.5-0.2L39,50.4
						l-0.1,0.1c-0.2,0.1-0.4,0.2-0.6,0.2c-0.2,0-0.4-0.1-0.5-0.2l-0.1-0.1l-0.1,0.1c-0.2,0.1-0.4,0.2-0.5,0.2
						c-0.5,0-0.8-0.2-1.1-0.5c-0.2-0.3-0.2-0.8-0.1-1.2c0.2-0.2,0.4-0.6,1.2-0.6c0.2,0,0.4,0.1,0.6,0.2l0.1,0.1l0.1-0.1
						c0.2-0.1,0.3-0.2,0.6-0.2h0.2l0.1-0.1c0.5-0.4,1.3-0.8,1.8-1l0.3-0.2c0.6-0.3,1-0.9,1.2-1.8v-0.1l-0.5-0.8
						c-0.4-0.6-0.6-0.9-0.6-1.1c-0.1-0.2-0.5-0.8-1-1.2L39.5,42l-0.1,0.2c-0.2,0.6-0.4,0.8-0.5,0.8c0,0-0.2,0.1-0.3,0.1
						c-0.1-0.1-0.2-0.2-0.2-0.2l-0.1,0.3c-0.2,0.3-0.3,0.6-0.8,0.7C37.4,44,37.1,44,37,43.7l-0.1-0.2l-0.2,0.1
						c-0.5,0.2-0.8,0.4-1.1,0.1c-0.1-0.2-0.2-0.3-0.2-0.4c0-0.2,0.1-0.4,0.3-0.6l-0.2-0.3c-0.5,0.3-0.8,0.4-1,0.2
						c-0.2-0.1-0.2-0.2-0.2-0.3l-0.1-0.2h-0.2c-0.4,0-0.6-0.2-0.8-0.5c0,0-0.1-0.2-0.1-0.2s0.1-0.2,0.1-0.2l0.4-0.3L33.4,41
						c-0.2,0-0.3-0.1-0.4-0.2c-0.2-0.1-0.2-0.2-0.2-0.4l0.1-0.3l-0.2-0.1c-0.4-0.2-0.5-0.4-0.5-0.6v-0.2c0.1-0.2,0.1-0.3,0.2-0.4
						c0.1-0.1,0.3-0.1,0.5-0.1l0.2,0.1v-0.2c0-0.2,0.1-0.4,0.4-0.5l0.3-0.1h0.1l-0.1-0.1c0,0-0.2-0.2-0.1-0.3
						C33.5,37.6,33.6,37.5,33.6,37.5z"/>
				</g>
			</g>
			<path class="st1" d="M41.1,49.8c0.2,0.2,0.5,0.4,0.7,0.4c0.3,0,0.4-0.2,0.5-0.2c0.1-0.1,0.2-0.1,0.2-0.1c0,0,0.2,0.2,0.5,0.2
				c0.2,0,0.3-0.1,0.3-0.1c-0.1-0.1-0.1-0.1-0.1-0.2L42.5,49c-0.2-0.2-0.5-0.4-0.7-0.4c-0.3,0-0.4,0.2-0.5,0.2
				c-0.1,0.1-0.2,0.1-0.2,0.1c0,0-0.2-0.2-0.5-0.2c-0.2,0-0.3,0.1-0.3,0.1c0.1,0.1,0.1,0.1,0.1,0.1L41.1,49.8z"/>
			<path class="st1" d="M36.1,49.8c-0.1-0.2-0.2-0.5,0-0.8c0.2-0.3,0.4-0.4,0.8-0.4c0.3,0,0.7,0.2,0.8,0.4l0.7,1
				c0.1,0.1,0.1,0.1,0.2,0.1c-0.1,0.1-0.2,0.1-0.4,0.1c-0.4,0-0.5-0.2-0.5-0.2c-0.1-0.1-0.2-0.1-0.2,0.1c0,0-0.2,0.2-0.5,0.2
				C36.5,50.2,36.3,50.1,36.1,49.8z"/>
			<path class="st1" d="M40,34.8c0.2-0.1,0.3-0.2,0.5-0.4c0.3-0.2,0.5-0.3,0.8-0.3c-0.3-0.5-0.6-0.5-0.8-0.6l-0.2-0.1
				c-0.1,0-0.1-0.1-0.1-0.1c-0.1-0.1-0.2-0.2-0.2-0.2c0,0.1,0,0.2,0,0.2v0.2l-0.1,0.2C39.8,34,39.7,34.3,40,34.8z"/>
			<path class="st1" d="M43.5,33.4L43.5,33.4C43.5,33.4,43.5,33.4,43.5,33.4L43.5,33.4z"/>
			<path class="st1" d="M36.7,36.9L36.6,37l-0.3,0.2c-0.1,0.1-0.1,0.1-0.2,0.1l0,0c-0.2,0.1-0.3,0.1-0.3,0.2
				c-0.1,0.2,0.1,0.3,0.3,0.4l0.2,0.2c0,0.1,0,0.1,0,0.2c0.2-0.1,0.4-0.1,0.6,0.1c0.1-0.1,0.1-0.1,0.2-0.1c0.3-0.1,0.5,0.1,0.7,0.2
				c0.1-0.2,0.2-0.3,0.4-0.3c0.3,0.1,0.5,0.3,0.6,0.5c0.1-0.1,0.1-0.2,0.2-0.2v-0.1c0-0.1,0-0.2,0.1-0.3c0,0,0.1-0.1,0.2-0.1l0,0
				c-0.1-0.1-0.2-0.2-0.3-0.3c-0.3,0.2-0.8,0.2-1.2,0.1c-0.2-0.1-0.4-0.3-0.4-0.5C37,37.2,36.8,37,36.7,36.9
				C36.7,36.7,36.7,36.8,36.7,36.9z"/>
			<path class="st1" d="M35.8,38.7c-0.1,0-0.2,0-0.3,0.1s0,0.2,0.1,0.3l0.1,0.1l0.1,0.2l0.2,0.4c0.2,0.2,0.4,0.4,0.5,0.5l0.6-1
				c-0.1-0.1-0.2-0.3-0.2-0.5c0-0.1,0-0.2,0.1-0.2c-0.4-0.1-0.6,0.1-0.7,0.2l-0.1,0.1C35.9,38.7,35.8,38.7,35.8,38.7z"/>
			<path class="st1" d="M46,37.4C46,37.4,46,37.4,46,37.4c0.2-0.2,0.5-0.5,0.8-0.5c-0.2-0.2-0.2-0.4-0.2-0.6
				c-0.1,0.2-0.4,0.4-0.6,0.5c0.1,0.1,0.1,0.1,0.2,0.2c0,0.1,0,0.1,0,0.1C46.1,37.2,46,37.3,46,37.4C46,37.4,46,37.4,46,37.4z"/>
			<path class="st1" d="M48.6,38.2L48.6,38.2C48.5,38.2,48.5,38.2,48.6,38.2L48.6,38.2z"/>
			<path class="st1" d="M47.2,38c0.1,0.1-0.5,0.3-0.9,0.5c-0.2,0.1-0.4,0.2-0.5,0.2l0,0c-0.2,0.1-0.3,0.2-0.4,0.4
				c0.2,0.1,0.8,0.2,0.9,0.2v-0.1c0-0.1,0.1-0.2,0.2-0.3h0.3c0.2,0.1,0.5,0.2,0.8,0L47.4,39l-0.1-0.2c0-0.1-0.1-0.1,0-0.1
				c0.1-0.1,0.1,0,0.1-0.1h0.3c0.2,0,0.2,0.1,0.3,0.1c0.1,0,0.1,0,0.1,0c0.1,0,0.2-0.1,0.2-0.2l-0.1-0.2l-0.1-0.2
				c0-0.2,0.2-0.2,0.2-0.3c0.2-0.2,0.4-0.2,0.3-0.4c-0.1-0.1-0.4-0.1-0.5,0h-0.3l-0.2-0.2c-0.1-0.1-0.1-0.1-0.2-0.2
				c-0.1-0.1-0.2,0.1-0.3,0.2c-0.2,0.1-0.2,0.2-0.4,0.1l-0.2-0.2l-0.1-0.1c-0.1-0.1-0.2,0.1-0.6,0.4l-0.3,0.2c-0.1,0-0.2,0-0.2-0.2
				c-0.2,0.1-0.4,0.5-0.5,0.8c0.2-0.1,0.7-0.3,1-0.4C46.6,38.1,47.2,38,47.2,38z"/>
			<path class="st1" d="M37.2,35.7L37,35.7h-0.2h-0.1v0.1l0.1,0.2l0,0c0,0.3,0.2,0.8,0.5,0.9l0,0c0,0,0.1,0,0.2-0.2
				c0.3-0.3,0.6-0.9,0.6-1.1C37.8,35.6,37.4,35.7,37.2,35.7z"/>
			<path class="st1" d="M51.6,35.5c-0.1,0.1-0.1,0.1-0.2,0.1c0.2,0.1,0.3,0.2,0.3,0.5v0.1c-0.1,0.5-0.7,0.5-1.2,0.5
				c0.1,0.1,0.1,0.2,0.1,0.3c0,0.1,0,0.1-0.1,0.2c-0.2,0.5-1.2,0.5-1.5,0.5c0,0.1,0,0.1,0,0.1c0,0.1,0,0.2-0.1,0.2
				c0.1,0,0.2,0.1,0.3,0.1l0.1,0.1c0.5-0.1,0.8,0,1,0.1c0.1-0.1,0.2-0.1,0.3-0.1c0.3,0.1,0.5,0.1,0.5-0.1v-0.1c0-0.1,0-0.2,0.2-0.3
				c0.1-0.1,0.3-0.1,0.5,0c0.3,0.1,0.7,0.2,0.8,0c0-0.1-0.1-0.2-0.1-0.2c-0.1-0.1-0.2-0.2-0.1-0.4l0.2-0.2c0.4-0.2,0.5-0.3,0.4-0.6
				c-0.1-0.2-0.2-0.2-0.5-0.1C52.3,36.1,52,36.2,52,36v-0.3c0-0.1,0-0.2,0-0.2c0,0-0.1-0.1-0.3-0.1C51.6,35.4,51.6,35.4,51.6,35.5z"
				/>
			<path class="st1" d="M46.4,35.8c0.1,0.1,0.2,0.2,0.2,0.2c0.1-0.2,0.1-0.3,0.2-0.4c0.2-0.4,0.7-0.5,0.8-0.5
				c0.3-0.2,0.6-0.2,0.9-0.2c0.1-0.2,0.2-0.4,0.5-0.5c0-0.1,0-0.2-0.2-0.3c-0.2-0.2-0.4-0.1-0.6,0.1c-0.2,0.1-0.3,0.2-0.4,0.2
				l-0.2-0.2c-0.1-0.1-0.2-0.3-0.2-0.3c-0.1,0.1-0.2,0.1-0.2,0.2c0.1,0.1,0.1,0.2,0.1,0.3c0,0.1,0,0.1-0.1,0.2
				c-0.1,0.2-0.3,0.4-0.4,0.5c0.1,0.1,0.1,0.2,0.1,0.3C46.8,35.3,46.7,35.6,46.4,35.8z"/>
			<path class="st1" d="M45.1,34.1c0.1-0.5-0.1-0.7-0.2-0.8l-0.1-0.1c0-0.1-0.1-0.2-0.2-0.2c-0.1,0-0.2,0.1-0.2,0.1l-0.1,0.1
				c-0.2,0.1-0.6,0.3-0.7,0.6C44.3,33.8,45,34,45.1,34.1L45.1,34.1z"/>
			<path class="st1" d="M49,35.2l-0.1,0.1l-0.2,0.1c-0.1,0-0.1,0-0.1,0c-0.2-0.1-0.5-0.2-0.9,0.2c-0.1,0.7,0.4,0.9,0.9,1.2
				c0.3-0.3,0.4-0.6,0.4-0.8c0-0.1,0-0.2,0-0.2v-0.1l0.1-0.2C49,35.3,49,35.2,49,35.2z"/>
			<path class="st1" d="M45.4,39.7c0.1-0.1,0.2-0.1,0.2-0.2c-0.2-0.1-0.3-0.1-0.4-0.2c-0.1,0.2-0.2,0.4-0.3,0.6
				c-0.2,0.3-0.2,0.8-0.2,1.2c0,0.1,0,0.1,0,0.2c0.2-0.2,0.3-0.3,0.4-0.5c-0.2-0.2-0.2-0.6,0-0.8L45.4,39.7z"/>
			<path class="st1" d="M47.9,39.3c0.1-0.1,0.2-0.2,0.2-0.2s0,0,0-0.1s0-0.1,0-0.1c-0.1,0-0.2,0-0.3,0c0,0.1,0.1,0.1,0.1,0.1
				c0,0.1-0.1,0.2-0.1,0.2c-0.4,0.3-0.8,0.2-1.1,0.2c0,0,0,0-0.1,0c0,0.1-0.1,0.2-0.2,0.3c-0.1,0.1-0.3,0.1-0.5,0
				c-0.1,0.2-0.2,0.3-0.3,0.4l-0.2,0.2c-0.1,0.2-0.1,0.3-0.1,0.4c0.2-0.2,0.3-0.3,0.5-0.4c0,0,0.3-0.2,0.5-0.3
				c0.1-0.1,0.5-0.2,0.6-0.1c0.1,0.1-0.4,0.3-0.5,0.3c-0.2,0.1-0.3,0.2-0.4,0.3c-0.1,0.2-0.2,0.4-0.3,0.6c0.2-0.1,0.3-0.1,0.5-0.1
				l0.2-0.1c0.2-0.1,0.4-0.1,0.5-0.2l0.1-0.1v-0.1c-0.1-0.1-0.1-0.2-0.1-0.2c0-0.1,0-0.1,0.1-0.2l0.3-0.1c0.4-0.1,0.5-0.1,0.6-0.3
				c0,0,0,0,0-0.1c0-0.1-0.1-0.1-0.1-0.2c-0.1-0.1-0.1-0.1-0.1-0.2c0-0.1,0-0.1,0-0.1L47.9,39.3z"/>
			<path class="st1" d="M50.7,34.4c-0.1-0.1-0.1-0.2-0.2-0.2c-0.2-0.1-0.4,0.2-0.6,0.4c-0.2,0.2-0.2,0.3-0.4,0.2l-0.2-0.1
				c-0.1-0.1-0.2-0.2-0.3-0.1c-0.1,0.1-0.2,0.2-0.3,0.3c0.1-0.1,0.3-0.1,0.4,0.1c0.2,0.2,0.1,0.4,0.1,0.5c0,0,0,0.1,0,0.1
				c0,0.1,0,0.2,0,0.4c0.3-0.2,0.8-0.6,0.9-0.5s-0.4,0.6-0.9,0.9c-0.1,0.1-0.2,0.2-0.2,0.2c-0.1,0.2-0.2,0.2-0.3,0.4
				c0,0.1,0,0.2-0.1,0.3c0.1,0,0.2,0.1,0.2,0.1h0.2c0.3,0,1.2,0.1,1.3-0.3c0.1-0.1-0.1-0.2-0.2-0.3c-0.1-0.1-0.1-0.2-0.1-0.3
				c0.1-0.2,0.2-0.1,0.4-0.1c0.8,0,0.9-0.1,0.9-0.2c0-0.2-0.1-0.2-0.2-0.3L51,35.8c-0.1-0.1-0.1-0.1,0-0.2c0.1-0.2,0.2-0.2,0.4-0.4
				c0.1-0.1,0.1-0.1,0.2-0.1l0.1-0.1c0.2-0.2,0.3-0.3,0.2-0.5c-0.1-0.1-0.1-0.1-0.1-0.1c-0.2-0.1-0.5,0.1-0.6,0.2l-0.2,0.1
				C50.7,34.6,50.7,34.5,50.7,34.4z"/>
			<path class="st1" d="M50.5,38.5c-0.2-0.2-0.6-0.3-1.2-0.2c-0.1,0.2-0.1,0.5-0.1,0.8c0.1,0.3,0.2,0.5,0.3,0.6
				c0,0.1,0.1,0.1,0.1,0.1c0.7-0.2,0.8-0.5,0.9-0.7l0.1-0.2l0.2-0.2l0.1-0.1c0-0.1-0.2-0.1-0.2-0.1C50.6,38.6,50.5,38.5,50.5,38.5z"
				/>
			<path class="st1" d="M44.5,38.9c0.1,0,0.1-0.1,0.1-0.1c0.1-0.1,0.2-0.1,0.2-0.1c0.1-0.2,0.1-0.4,0.2-0.6
				c-0.2,0.2-0.5,0.2-0.5,0.2C44.4,38.5,44.5,38.6,44.5,38.9C44.5,38.9,44.5,38.9,44.5,38.9z"/>
			<path class="st1" d="M45.7,37L45.7,37l-0.2-0.1c-0.1-0.1-0.1,0-0.1-0.1s0-0.1,0.1-0.1l0.2-0.2c0.2-0.1,0.6-0.3,0.5-0.5L46.1,36
				l-0.2-0.2c-0.1-0.1,0.1-0.2,0.2-0.2c0.3-0.2,0.5-0.5,0.4-0.7h-0.2l-0.2-0.1c-0.1-0.1-0.2-0.2-0.2-0.3c0-0.1,0-0.3-0.1-0.3
				c0,0-0.1-0.1-0.5,0.3l-0.1,0.1c-0.1,0.1-0.2,0-0.2-0.1l-0.1-0.1c-0.2,0-0.3,0.5-0.3,0.6l-0.1,0.2c-0.1,0.1-0.2,0.1-0.3,0
				l-0.1-0.1c-0.1,0.1-0.2,0.1-0.2,0.2S44,35.4,44,35.4c0,0.2,0.1,0.5,0.2,0.6c0.1,0.1,0.1,0.2,0.1,0.2c0,0.1-0.1,0.1-0.1,0.2l0,0.2
				c-0.1,0-0.1,0-0.2,0.1c-0.1,0.1-0.1,0.2-0.1,0.2c0,0.2,0.2,0.5,0.2,0.8c0.1-0.1,0.1-0.2,0.1-0.3c0.1-0.3,0.6-1.3,0.8-1.2
				c0.2,0.1-0.5,1-0.5,1.4c-0.1,0.2-0.1,0.3-0.2,0.5C44.9,37.9,45.8,37.3,45.7,37z"/>
			<path class="st1" d="M40.5,38.1c0-0.2,0.2-0.4,0.2-0.5c-0.1-0.2-0.2-0.3-0.2-0.4s0.1-0.3,0.2-0.5c-0.1-0.1-0.2-0.1-0.4,0
				c-0.1,0.1-0.2,0.1-0.3,0c0,0-0.1-0.1-0.1-0.1c-0.1-0.2-0.2-0.5-0.4-0.5h-0.1c-0.3,0.2-0.3,0.4-0.3,0.7c0,0.2,0,0.2-0.1,0.3
				l-0.2,0.1C39,37.3,39,37.3,39,37.3c-0.1,0.2,0.1,0.3,0.2,0.5c0.1,0.1,0.2,0.2,0.2,0.3c0,0-0.2,0.2-0.2,0.3c0,0.1,0,0.2,0,0.2v0.1
				c0.2,0.2,0.3,0.5,0.4,0.8l0.1-0.1l0.2,0.1c0.1,0,0.1,0.1,0.1,0.1c-0.1-0.2-0.1-0.3-0.1-0.5c-0.1-0.7-0.1-0.9,0.1-1
				c0.1-0.1,0.2,0.2,0.3,1c0.1,0.4,0.2,0.7,0.2,0.8c0.1,0.1,0.2,0.1,0.2,0.2c0.2-0.1,0.5-0.3,0.5-0.5v-0.1l0,0
				c-0.1-0.1-0.1-0.2-0.1-0.2c0-0.2,0.1-0.3,0.2-0.3C40.9,38.6,40.5,38.5,40.5,38.1z"/>
			<path class="st1" d="M42.3,43.5c0-0.1,0.1-0.2,0.1-0.3c0-0.2-0.1-0.6-0.2-1.2c-0.2-1.3-0.9-1.5-1.2-1.6c0,0,0,0-0.1,0
				c0.1,0.2,0.2,0.5,0.2,0.8c0,0.1,0,0.2,0,0.2C41.1,42.4,42,43.2,42.3,43.5z"/>
			<path class="st1" d="M38.8,39.9c0.2,0.2,0.4,0.3,0.6,0.4c0,0,0.1,0,0.1,0.1l0,0c0.3,0.2,0.5,0.3,0.6,0.2v-0.1
				c-0.1-0.7-0.2-0.9-0.2-0.9c-0.1,0-0.1,0.1-0.2,0.2c-0.1,0.1-0.2,0.1-0.2,0.1s-0.1-0.1-0.1-0.2c0.1-0.5-0.2-0.8-0.3-0.9
				c-0.1,0-0.2,0.2-0.2,0.3s-0.1,0.2-0.2,0.2c-0.1,0-0.2-0.1-0.2-0.2c0-0.2-0.1-0.5-0.4-0.6c0,0.1-0.1,0.1-0.1,0.1
				c-0.1,0.1-0.2,0.3-0.3,0.2l-0.1-0.1c-0.1-0.1-0.4-0.2-0.5-0.2c-0.1,0-0.1,0.1-0.2,0.1C37,38.6,37,38.8,37.3,39l0.2,0.2
				c0,0.2-0.2,0.2-0.2,0.2c-0.1,0.1-0.2,0.1-0.2,0.1c0,0.2,0.1,0.2,0.4,0.2l0.2,0.1c0.2,0.2-0.1,0.3-0.1,0.4c0,0-0.1,0.2-0.1,0.1
				c0.1,0.2,0.3,0.3,0.5,0.3H38l0,0c0.1,0,0.2,0,0.2,0c0.2,0,0.3,0,0.3,0.2L38.5,41c0,0-0.1,0.1-0.1,0.1c0.2,0.2,0.5,0.2,1.2-0.1
				c0-0.1-0.2-0.3-0.4-0.5c0,0-0.1,0-0.1-0.1c-0.2-0.1-0.4-0.3-0.6-0.4c0,0-0.5-0.4-0.4-0.5C38.2,39.6,38.8,39.9,38.8,39.9z"/>
			<path class="st1" d="M42.5,39.8L42.5,39.8c0,0.3,0.1,0.7,0.3,1.1c0,0,0.5,0.8,0.5,0.9c0.1-0.3,0.2-0.8,0.2-1c0-0.1,0-0.2,0-0.2
				c0-0.2,0-0.5-0.1-0.7h-0.1C43.1,40,43,40,42.5,39.8z"/>
			<path class="st1" d="M44,36.3c-0.1-0.2-0.2-0.5-0.2-0.7c0-0.1,0-0.2,0.1-0.3c0-0.1-0.1-0.3-0.2-0.3c-0.1,0-0.1,0-0.2,0.1
				c-0.1,0.1-0.2,0.2-0.3,0.2L43,35c-0.2-0.3-0.5-0.5-0.7-0.5c-0.2,0.1-0.2,0.3-0.2,0.7c0,0.2,0.1,0.3-0.2,0.4
				c-0.1,0.1-0.2,0.1-0.2,0.2c-0.1,0.2,0.1,0.4,0.2,0.5l0.1,0.1c0.3,0.1,0.6,0.5,0.7,0.8c0.2-0.1,0.4-0.3,0.6-0.1s0.4,0.7,0.4,0.9
				l0,0c0.1,0,0.2-0.1,0.2,0c-0.2-0.2-0.3-0.6-0.3-1c0-0.2,0.1-0.3,0.2-0.5C43.9,36.3,44,36.3,44,36.3z"/>
			<path class="st1" d="M43.7,39.2c0.2-0.6,0.2-0.9,0.2-0.9h-0.2c-0.1,0-0.2,0.1-0.3-0.1c-0.1-0.1-0.1-0.2-0.1-0.2
				c0-0.2-0.2-0.7-0.3-0.8c-0.1,0-0.2,0.1-0.2,0.2c-0.1,0.1-0.2,0.2-0.3,0.1c-0.1,0-0.1-0.1-0.2-0.2c-0.1-0.3-0.5-0.7-0.6-0.7
				c-0.2,0.1-0.2,0.3-0.2,0.3c0,0.1-0.1,0.2-0.1,0.2c-0.1,0.1-0.2,0-0.2-0.1c-0.1-0.1-0.2-0.2-0.4,0c-0.3,0.2,0,0.5,0,0.5
				c0.1,0.1,0.1,0.1,0.1,0.2S41,37.8,41,37.8c-0.1,0.1-0.2,0.2-0.2,0.3c0,0.2,0.2,0.2,0.5,0.3c0.2,0.1,0.3,0.1,0.3,0.2
				c0,0.2-0.1,0.2-0.1,0.2c-0.1,0.1-0.2,0.2-0.1,0.4c0.1,0.2,0.1,0.2,0.2,0.2c0.2,0.1,0.4-0.1,0.6-0.2l0.3-0.1c0.1,0,0.1-0.1,0.1,0
				c0.1,0.1,0,0.1,0,0.1c0,0,0,0.2,0,0.2l0.2,0.1c0.3,0.2,0.5,0.2,0.7,0.1h0.1c0-0.1-0.1-0.1-0.1-0.2c0,0,0-0.1-0.1-0.1
				c-0.1-0.2-0.2-0.4-0.5-0.6c-0.3-0.3-0.8-0.6-0.7-0.7s0.5,0.2,0.9,0.5c0.2,0.2,0.4,0.4,0.4,0.4C43.6,39.1,43.7,39.1,43.7,39.2z"/>
			<path class="st1" d="M43.6,48.5L43.6,48.5c0.1-0.2,0-0.3-0.1-0.5c-0.1-0.1-0.2-0.1-0.2-0.1c-0.2,0-0.4,0.2-0.5,0.4
				c0.1,0,0.2,0,0.2,0C43.3,48.3,43.4,48.5,43.6,48.5z"/>
			<path class="st1" d="M47.3,49c-0.2-0.2-0.5-0.4-0.7-0.4c-0.3,0-0.4,0.2-0.5,0.2c-0.1,0.1-0.2,0.1-0.2,0.1c0,0-0.2-0.2-0.5-0.2
				c-0.2,0-0.3,0.1-0.4,0.1c0.1,0.1,0.1,0.1,0.1,0.1l0.7,1c0.2,0.2,0.5,0.4,0.7,0.4c0.3,0,0.4-0.2,0.5-0.2c0.1-0.1,0.2-0.1,0.2-0.1
				c0,0,0.2,0.2,0.5,0.2c0.2,0,0.3-0.1,0.4-0.1C48,50.1,48,50.1,48,50C48,50.1,47.3,49,47.3,49z"/>
			<path class="st1" d="M40.5,48.3c0.1,0,0.1,0,0.1,0c0.3,0,0.5,0.1,0.6,0.2c0.1-0.1,0.2-0.1,0.3-0.2c0-0.1,0-0.2,0-0.2
				C41.2,48.1,40.8,48.1,40.5,48.3z"/>
			<path class="st1" d="M36.9,42.6c0-0.1,0.4-0.4,0.5-0.5c0.3-0.2,0.5-0.4,0.9-0.5c-0.1-0.1-0.2-0.2-0.2-0.2c0-0.1-0.1-0.1-0.1-0.2
				c0-0.1,0.1-0.2,0.1-0.2c-0.1,0-0.2,0-0.2,0c-0.1,0-0.2,0-0.2,0.1l0.1,0.2c0.1,0.1,0.1,0.2,0.1,0.3c0,0.1-0.1,0.1-0.1,0.1
				c-0.1,0.1-0.2,0-0.2-0.1c-0.2-0.1-0.5-0.3-0.8-0.2l-0.1,0.1l0.1,0.1c0.1,0.1,0.2,0.2,0.2,0.2c0,0.1,0,0.1-0.1,0.2
				c-0.1,0.1-0.2,0.1-0.3,0.1c-0.2-0.1-0.4-0.1-0.5,0.2c-0.2,0.2-0.1,0.2,0,0.3c0.1,0.1,0.2,0.2,0.1,0.3l-0.2,0.2
				c-0.3,0.3-0.4,0.5-0.3,0.7c0.1,0.1,0.5-0.2,0.6-0.2l0.4-0.2c0.2,0,0.3,0.2,0.3,0.3c0.1,0.2,0.1,0.2,0.2,0.1
				c0.4-0.1,0.5-0.3,0.5-0.6c0.1-0.2,0.2-0.4,0.3-0.5c0.1-0.1,0.2-0.1,0.2-0.1c0.2,0.1,0.2,0.2,0.2,0.2c0,0,0,0,0,0.1
				c0.2-0.2,0.3-0.5,0.4-0.9c0,0,0-0.1,0.1-0.1c-0.2,0.1-0.4,0.1-0.5,0.2C38,42.1,37,42.7,36.9,42.6z"/>
			<path class="st1" d="M36.5,41.6c0-0.1-0.1-0.1-0.1-0.2v-0.1c0-0.1,0.1-0.2,0.2-0.2c-0.2-0.1-0.2-0.2-0.3-0.2
				c-0.2-0.2-0.2-0.4-0.2-0.5c-0.1-0.1-0.2-0.2-0.4-0.3c0,0,0,0-0.1,0c-0.2-0.2-0.4-0.1-0.5,0c0,0.1,0,0.2,0,0.3
				c0,0.2,0,0.4-0.1,0.5c-0.2,0.1-0.3,0-0.5-0.1c-0.2-0.2-0.4-0.2-0.5-0.2l0.1,0.2v0.4l-0.3,0.2c-0.1,0.1-0.2,0.1-0.3,0.2
				c0,0.1,0,0.1,0,0.2c0.1,0.2,0.2,0.2,0.5,0.2l0.3,0.1l0.1,0.3c0,0.1,0,0.2,0.1,0.2c0.2,0.2,0.6-0.2,0.8-0.3l0.2-0.1
				c0.1-0.1,0.1,0.1,0.2,0.1l0.1,0.1c0-0.1,0.1-0.1,0.1-0.2C36.1,41.6,36.3,41.6,36.5,41.6z"/>
			<path class="st1" d="M52.5,39.8l-0.2-0.1c-0.1-0.1-0.2-0.2-0.1-0.3c0.1-0.1,0.1-0.2-0.1-0.3c-0.2-0.2-0.6,0.1-0.8,0.2
				c-0.2,0.1-0.2,0.2-0.3,0.1c-0.1-0.1-0.1-0.2-0.1-0.2c-0.1-0.1-0.1-0.2-0.1-0.2l-0.1,0.1v0.1c-0.1,0.2-0.2,0.4-0.4,0.6
				c0.5,0.1,1.2,0.2,1.2,0.3c0,0.2-1.2-0.1-1.5-0.1c-0.1,0-0.2,0-0.2,0c-0.1,0.1-0.2,0.1-0.3,0.1c0.1,0.1,0.1,0.2,0.1,0.2l0.2-0.1
				c0.2-0.1,0.5-0.1,0.7,0.1c0.2,0.2,0.2,0.3,0.2,0.4c0,0.1-0.1,0.2-0.1,0.2l0,0c0.1,0.1,0.2,0.1,0.3,0.2c0-0.1,0.1-0.1,0.1-0.2
				l0.1-0.2c0.1-0.1,0.2-0.1,0.4,0.1c0.1,0.1,0.4,0.2,0.5,0.2c0.1-0.1,0.1-0.2,0.1-0.3s0-0.2,0.2-0.3h0.3c0.2,0.1,0.4,0.1,0.5,0
				c0.1-0.1,0.1-0.1,0.1-0.2C53.1,40,52.9,39.9,52.5,39.8z"/>
			<path class="st1" d="M34.8,40.5L34.8,40.5C34.9,40.5,34.9,40.4,34.8,40.5c0.1-0.1,0.1-0.2,0.1-0.2c0-0.2,0.1-0.3,0.2-0.4
				c-0.1,0-0.2-0.1-0.2-0.1c-0.3-0.1-1.2-0.1-1.2-0.2c0-0.2,1-0.2,1.4-0.2c0.2,0.1,0.3,0.1,0.5,0.1l-0.1-0.3l-0.1-0.2
				c0,0,0-0.1-0.1-0.1l0,0c-0.2-0.3-0.5-0.5-0.6-0.5c-0.1,0-0.1,0.1-0.2,0.2c0,0.1-0.1,0.2-0.2,0.2s-0.2-0.1-0.3-0.2
				c-0.2-0.2-0.4-0.4-0.6-0.3c-0.1,0-0.1,0-0.1,0.3c0,0.2,0.1,0.3-0.1,0.4H33c-0.2-0.1-0.3-0.1-0.4,0c0,0-0.1,0.1-0.1,0.2
				c-0.1,0.2,0.2,0.3,0.5,0.5l0.2,0.1c0.1,0.2,0,0.3-0.1,0.3c-0.2,0.2-0.2,0.2-0.1,0.3c0.2,0.2,0.4,0.1,0.6-0.1l0.2-0.1
				c0.1,0,0.1,0,0.2,0C34.4,40.1,34.7,40.3,34.8,40.5z"/>
			<path class="st1" d="M46.3,41.3c-0.4-0.1-0.6,0.1-0.6,0.1c-0.1,0.1-0.2,0.1-0.2,0s-0.1-0.1-0.1-0.2c0,0,0,0,0-0.1
				c0-0.1,0.1-0.3,0.2-0.4c-0.4,0.4-0.8,0.9-0.9,1.2c-0.1,0.1-0.2,0.1-0.2,0.1c0,0-0.1-0.1-0.1-0.1l0,0c0.1-0.2,0.1-0.4,0.1-0.7
				c0-0.4,0.1-0.8,0.2-1.2c0.2-0.4,0.3-0.7,0.5-0.9c-0.2,0.1-0.3,0.2-0.4,0.2c-0.3,0.2-0.4,0.2-0.5,0.1L44.2,39c0-0.1,0-0.1,0-0.2
				c-0.1,0.2-0.1,0.4-0.2,0.7c-0.1,0.1-0.2,0.2-0.2,0.1c-0.1,0-0.1-0.1-0.1-0.1l0,0C44,40,44,40.4,44,40.7c0,0.1,0,0.2,0,0.2
				c0,0-0.2,1.4-0.5,1.5c-0.1,0-0.2,0-0.2-0.1l-0.3-0.4l-0.5-0.8c-0.4-0.7-0.4-1.3-0.4-1.6v-0.1c-0.2,0.1-0.5,0.2-0.8,0.1l-0.1-0.1
				c-0.1,0.2-0.3,0.4-0.4,0.5l0.1,0.1c0.3,0.1,1.2,0.4,1.5,1.8c0.1,0.4,0.2,0.8,0.2,1.2c0,0.3-0.1,0.5-0.2,0.7
				c-0.1,0.1-0.2,0.1-0.2,0.1c-0.1-0.1-1.6-1-1.6-2.5c0.1-1-0.3-1.3-0.4-1.3l0,0c0.1,0.2,0.1,0.3,0.1,0.5s-0.1,0.3-0.2,0.4
				C40.2,41,40.1,41,40,41c0.1,0.1,0.1,0.2,0.1,0.3v0.1c0,0.1-0.1,0.2-0.2,0.2c-0.2,0.1-0.4,0.1-0.5,0.2c0.8,0.3,1.5,1.4,1.6,1.7
				c0.1,0.2,0.4,0.6,0.6,1c0.5,0.8,0.5,0.9,0.5,1c-0.2,1-0.6,1.8-1.4,2.2l-0.4,0.1c-0.5,0.2-1.2,0.6-1.6,0.9c0,0,0.1,0,0.1,0.1
				c0.1-0.1,0.3-0.2,0.6-0.2c0.2,0,0.4,0.1,0.6,0.2v-0.1c0.4-0.6,1.2-0.6,1.5-0.6c0.1-0.1,0.1-0.2,0.1-0.3c0.1-0.1,0.2-0.2,0.2-0.4
				c0.2-0.4,0.5-1.2,0.6-1.2c0.1,0,0.1,0.6-0.3,1.3c-0.1,0.2-0.2,0.2-0.2,0.4c-0.1,0.2-0.1,0.2-0.1,0.4c0,0,0,0,0,0.1l0,0
				c0,0.1,0,0.2,0,0.3c0.2,0,0.4,0.1,0.5,0.2c0,0,0,0,0.1,0c0,0,0,0,0-0.1c0.2-0.5,0.5-0.8,0.8-0.8c0.2,0,0.4,0.1,0.5,0.2
				c0.2,0.2,0.2,0.4,0.2,0.5c0.1,0,0.2,0,0.2,0c0.2,0,0.4,0.1,0.6,0.2c0.1-0.1,0.3-0.2,0.6-0.2c0.2,0,0.4,0.1,0.5,0.1v-0.1
				c-0.2-0.3-0.4-0.4-0.7-0.5c-0.5-0.2-1-0.4-1.3-1.2c-0.2-0.4-0.2-0.9-0.3-1.4c0-0.3,0.1-1.4,0.2-1.4c0.1,0,0.2,1,0.2,1.3
				c0.1,0.5,0.1,0.9,0.2,1.3c0.3,0.7,0.7,0.8,1.2,1c0.3,0.2,0.6,0.3,0.8,0.6c0,0,0.1,0.1,0.1,0.2c0.1-0.1,0.2-0.1,0.3-0.1
				c0.2,0,0.4,0.1,0.6,0.2c0.1-0.1,0.2-0.2,0.5-0.2c-0.2-0.2-0.5-0.3-1.2-0.6l-0.2-0.1c-1.2-0.5-1.5-1-1.7-1.4l-0.1-0.1
				c-0.2-0.4-0.6-2.4,0.2-3.7C45.3,41.8,46,41.5,46.3,41.3C46.3,41.4,46.3,41.3,46.3,41.3L46.3,41.3z"/>
			<path class="st1" d="M50.7,41.2c-0.1-0.1-0.2-0.1-0.2-0.2l0.1-0.3c0.1-0.1,0.1-0.2-0.1-0.2c-0.1-0.1-0.3,0-0.4,0.1h-0.4
				c-0.1-0.1-0.2-0.1-0.2-0.2l-0.1,0.1c-0.3,0.2-0.9,0.2-1.4-0.2c-0.2,0.2-0.5,0.2-0.7,0.2c0,0,0,0-0.1,0c0.1,0.1,0.1,0.2,0.1,0.2
				c0.5-0.1,0.8-0.1,0.9,0.1c0.1,0.1,0.2,0.2,0.2,0.3c0,0.1,0,0.1,0,0.1c0.1,0,0.2,0.1,0.2,0.1c0.4,0.1,0.6,0.1,0.8,0.2
				c0.1,0.1,0.1,0.2,0.1,0.2c0,0.1-0.1,0.2-0.1,0.2c0.1,0,0.1,0.1,0.1,0.1c0.1,0.1,0.2,0.1,0.3,0.1H50c0.2,0,0.2,0.1,0.3,0
				c0,0,0.1-0.1,0.1-0.1l0.1-0.2l0.3-0.1c0.2,0.1,0.3,0,0.3-0.1C50.9,41.4,50.9,41.3,50.7,41.2z"/>
			<path class="st1" d="M49.7,42.9l-0.2-0.2v-0.1c0-0.1,0.1-0.2,0.2-0.2l0.1-0.1c-0.1-0.1-0.2-0.1-0.3-0.2c-0.2-0.1-0.3-0.1-0.4-0.2
				c0-0.1,0-0.1,0-0.1c0-0.1,0.1-0.2,0.1-0.2c0.1-0.1,0.1-0.1,0.1-0.2l0,0c-0.1-0.1-0.4-0.1-0.5-0.1c-0.4-0.1-0.5-0.1-0.5-0.2v-0.2
				c0,0,0-0.1,0-0.1c-0.1-0.1-0.5-0.1-1.1,0.2c0.2,0.1,0.4,0.2,0.6,0.4c0.2,0.2,0.5,0.5,0.4,0.6s-0.4-0.2-0.6-0.3
				c-0.2-0.2-0.6-0.3-0.8-0.4c0.1,0.4,0.2,0.8,0.3,0.9c0.1-0.1,0.2-0.2,0.3-0.1c0.1,0.1,0.2,0.2,0.2,0.3c0.1,0.2,0.2,0.6,0.4,0.6
				c0.2,0,0.2-0.1,0.2-0.1c0.1-0.1,0.1-0.2,0.2-0.2l0.2,0.2c0.1,0.1,0.3,0.3,0.4,0.3c0.2,0,0.2-0.1,0.2-0.2c0.1-0.1,0.1-0.2,0.2-0.2
				l0.2,0.1c0.2,0.1,0.3,0.1,0.4-0.1c0-0.1,0.1-0.1,0.1-0.1C49.9,43.1,49.8,42.9,49.7,42.9z"/>
			<path class="st1" d="M44.6,30.1c0.2-0.1,0.3-0.1,0.4,0.1c0.2,0.2,0.2,0.4,0.2,0.5c0,0.3-0.2,0.6-0.3,0.8c0.2,0.1,0.3,0.1,0.3,0.2
				c0,0.1,0.1,0.1,0.1,0.2c0,0.2-0.1,0.4-0.2,0.5c0.2-0.1,0.3-0.1,0.4-0.1v-0.1c0.1-0.3,0.2-0.7,0.6-0.8h0.2c0-0.1,0-0.1,0-0.2
				c0,0,0-0.1-0.1-0.1c-0.1,0-0.2-0.1-0.2-0.2s0-0.2,0.1-0.2c0.2-0.2,0.5-0.5,0.5-0.6c-0.1-0.2-0.2-0.2-0.3-0.2l-0.2-0.1
				c-0.1-0.1-0.1-0.2-0.1-0.3c0.1-0.3,0-0.5-0.2-0.5s-0.4,0.2-0.5,0.4c-0.1,0.2-0.2,0.3-0.3,0.2l-0.4-0.1c-0.1-0.1-0.1-0.1-0.2-0.1
				c0,0.1,0.1,0.2,0.1,0.3C44.7,30,44.6,30.1,44.6,30.1z"/>
			<path class="st1" d="M43.1,31.8c0.3,0.2,0.4,0.4,0.4,0.6c0,0.3-0.2,0.5-0.2,0.7l0,0c0.1,0,0.2,0,0.2,0c0.1,0,0.1,0,0.1,0
				c0.1-0.2,0.2-0.6,0.3-1c0.1-0.5,0.2-0.8,0.2-0.8c0.2,0,0.2,0.3,0.1,0.8c-0.1,0.4-0.2,0.9-0.2,1.2c0.2-0.2,0.5-0.3,0.6-0.4
				c0.1-0.1,0.2-0.1,0.2-0.1c0.2-0.4,0.4-0.7,0.3-0.8c0-0.1-0.1-0.1-0.2-0.1c-0.1,0-0.2,0-0.3-0.1c-0.1-0.1,0-0.2,0.1-0.3
				c0.2-0.3,0.5-0.6,0.2-1c-0.1,0-0.2,0.1-0.2,0.1c-0.1,0.1-0.2,0.1-0.3,0c-0.1-0.1-0.1-0.2-0.1-0.2c0.1-0.2,0.1-0.5-0.1-0.7
				c-0.1-0.1-0.2-0.2-0.3-0.2c-0.2,0-0.3,0.4-0.3,0.5c-0.1,0.2-0.1,0.3-0.2,0.4h-0.3c-0.1-0.1-0.2-0.1-0.2,0
				c-0.2,0.1,0.1,0.5,0.2,0.7c0.1,0.2,0.2,0.3,0.1,0.5c-0.1,0.1-0.1,0.1-0.2,0.1c-0.2,0-0.3,0.1-0.4,0.2c0,0.1-0.1,0.1-0.1,0.1
				C42.8,31.7,42.9,31.7,43.1,31.8z"/>
			<path class="st1" d="M46.3,32c0-0.1-0.1-0.2-0.1-0.2h-0.1c-0.2,0.1-0.3,0.5-0.4,0.6c-0.1,0.2-0.1,0.3-0.2,0.3h-0.1
				c-0.1-0.1-0.2-0.1-0.3,0.1c0.1,0.1,0.1,0.2,0.2,0.2v0.1c0.1,0.2,0.2,0.4,0.2,0.6c0.1-0.1,0.2-0.2,0.3-0.4
				c0.3-0.3,0.7-0.5,0.7-0.5c0.1,0.1-0.2,0.4-0.5,0.6c-0.1,0.1-0.2,0.2-0.2,0.3c0.1-0.1,0.2-0.1,0.3,0c0.2,0.2,0.2,0.4,0.3,0.6
				c0,0,0,0.1,0,0.1c0.1,0,0.1,0,0.1,0c0.1,0,0.1,0,0.2,0c0.1-0.1,0.3-0.2,0.3-0.3c0.1-0.1,0-0.2-0.1-0.2c-0.1-0.1-0.1-0.2-0.1-0.2
				c0-0.1,0.1-0.1,0.2-0.2c0.2-0.1,0.3-0.2,0.4-0.2l0.1-0.1c0.2-0.2,0.3-0.3,0.3-0.3c0-0.2-0.1-0.2-0.2-0.2
				c-0.1-0.1-0.2-0.2-0.2-0.2l0.2-0.3c0.2-0.1,0.3-0.3,0.3-0.4c0-0.1-0.1-0.2-0.1-0.2c-0.1-0.1-0.2-0.2-0.3-0.2
				c-0.2,0-0.4,0.2-0.5,0.4l-0.3,0.3C46.4,32.3,46.4,32.1,46.3,32z"/>
			<path class="st1" d="M47.8,34c0.1-0.1,0.2-0.1,0.2-0.1c0.2-0.1,0.5-0.3,0.8-0.2c0.1-0.1,0.2-0.2,0.4-0.2c0.3-0.2,0.7-0.3,0.7-0.2
				c0.1,0.1-0.3,0.3-0.5,0.5c-0.1,0.1-0.2,0.1-0.2,0.2c0.2,0.2,0.2,0.3,0.2,0.4c0.2,0,0.3,0.1,0.4,0.2c0,0,0.1,0,0.1,0.1
				c0.1-0.1,0.1-0.1,0.1-0.1c0.2-0.2,0.5-0.6,0.9-0.5c0-0.1-0.1-0.2-0.1-0.3c0-0.1-0.1-0.1,0-0.2c0.1-0.1,0.1-0.1,0.1-0.1
				c0.2-0.1,0.4-0.2,0.4-0.4c0-0.1,0-0.1-0.1-0.2c-0.2-0.2-0.4-0.2-0.6-0.1l-0.3,0.1l-0.2-0.2c-0.1-0.1-0.1-0.2-0.2-0.2
				c-0.1,0-0.4,0.2-0.5,0.3L49,33l-0.3-0.2c0,0-0.2-0.1-0.2-0.2c-0.1,0-0.3,0.3-0.4,0.4L48,33.2h-0.1c0,0.2-0.2,0.3-0.3,0.5
				C47.7,33.8,47.7,33.9,47.8,34z"/>
			<path class="st1" d="M35.2,37.9c0.2,0.2,0,0.4-0.2,0.6c0.1,0.1,0.2,0.2,0.2,0.2l0,0c0.2-0.3,0.4-0.2,0.5-0.3
				c0.1-0.1,0.1-0.1,0.2-0.2l0,0c0-0.1,0-0.1,0-0.1l-0.1-0.1c-0.2-0.1-0.4-0.3-0.4-0.6c0-0.1,0-0.1,0-0.2c0.1-0.2,0.2-0.3,0.4-0.4
				c-0.1-0.1-0.1-0.2-0.1-0.3l-0.1-0.2l0,0l-0.2,0.1c-0.2,0.1-0.4,0.2-0.5,0l-0.1-0.2L34.6,36c-0.2-0.2-0.4-0.3-0.5-0.2
				c0.1,0.1,0,0.1,0.1,0.3c0,0.1,0.1,0.2-0.1,0.3h-0.2c-0.2-0.1-0.4-0.1-0.5,0.2c-0.1,0.2-0.1,0.2,0,0.3c0.2,0.2,0.5,0.3,0.7,0.4
				c0.1,0,0.2,0.1,0.2,0.2c0,0.1,0,0.2-0.1,0.2c-0.1,0.1-0.2,0.2-0.2,0.2l0.1,0.1c0.1,0.1,0.2,0.1,0.4-0.1
				C34.6,37.6,34.9,37.5,35.2,37.9z"/>
			<path class="st1" d="M41.7,31.7c-0.2,0.1-0.2,0.4-0.2,0.6c0,0.2,0.1,0.3-0.1,0.4c-0.1,0.1-0.2,0.1-0.3,0.1c-0.1,0-0.2,0-0.2,0.1
				c-0.1,0.1,0.1,0.3,0.4,0.6c0.1,0.2,0.2,0.2,0.2,0.3c0,0.1,0,0.1-0.1,0.2c0.1,0.1,0.1,0.2,0.2,0.3c0.1,0,0.2,0.1,0.2,0.1
				s0.1,0.2,0.2,0.2c0.1-0.1,0.2-0.2,0.2-0.2c-0.1-0.2-0.1-0.3-0.1-0.5c-0.1-0.4-0.1-0.8,0-0.8c0.1-0.1,0.2,0.5,0.3,0.8
				c0.1,0.2,0.1,0.3,0.2,0.5c0.2,0.1,0.3,0.2,0.5,0.2c0-0.2,0.1-0.3,0.2-0.5c0.1-0.1,0.2-0.2,0.3-0.2c0.1-0.2,0.1-0.3,0.2-0.4h-0.2
				c-0.2,0-0.5,0-0.5-0.2L43,33c0.2-0.4,0.2-0.7-0.1-0.9l-0.2,0.1c-0.1,0.1-0.2,0.2-0.3,0.2l-0.2-0.2C42.1,32,41.9,31.6,41.7,31.7z"
				/>
			<path class="st1" d="M39.5,33l-0.2,0.3c-0.1,0.1-0.2,0.1-0.2,0.2s0.1,0.1,0.5,0.2c-0.1-0.2-0.1-0.5,0.2-0.5
				c0.2-0.1,0.3,0,0.4,0.1c-0.1-0.1-0.1-0.2-0.2-0.4c-0.1-0.2-0.4-0.5-0.3-0.6s0.5,0.3,0.6,0.5c0.2,0.3,0.2,0.5,0.3,0.6
				c0.1,0,0.2,0.1,0.3,0.1c-0.2-0.2-0.2-0.4-0.2-0.5c0-0.1,0-0.1,0.1-0.2c0.2-0.2,0.3-0.3,0.5-0.3c0-0.1,0-0.1,0-0.1
				c0-0.1,0-0.2,0-0.3c0-0.1,0-0.2,0-0.2c-0.2-0.1-0.2-0.1-0.3,0C40.9,32,40.8,32,40.7,32c-0.1-0.1-0.1-0.2-0.2-0.3
				c0-0.2-0.1-0.8-0.3-0.8c-0.1,0-0.2,0.2-0.2,0.2c-0.1,0.2-0.2,0.2-0.3,0.3c-0.1,0-0.2-0.1-0.3-0.2c-0.3-0.4-0.5-0.5-0.8-0.3
				c-0.2,0.2-0.1,0.5,0.2,0.8L39,32c-0.1,0.1-0.1,0.2-0.2,0.2c-0.2,0.1-0.2,0.1-0.2,0.2c-0.1,0.3,0.3,0.4,0.6,0.5
				C39.3,32.8,39.5,32.8,39.5,33z"/>
			<path class="st1" d="M35.2,36.1L35.2,36.1C35.1,36,35,35.8,35,35.8l0,0c0.1-0.1,0.2-0.2,0.3-0.2s0.2-0.1,0.2-0.2
				c0.1-0.2-0.1-0.2-0.2-0.2c-0.7-0.3-0.8-0.5-0.7-0.6c0-0.1,0.2-0.1,0.2-0.2l0.2-0.2c0.1-0.1,0.1-0.2,0-0.4
				c-0.1-0.4-0.1-0.6,0.1-0.7c0.1-0.1,0.2,0.1,0.3,0.2l0.2,0.2c0.2,0.1,0.3-0.2,0.4-0.3c0.1-0.1,0.1-0.2,0.2-0.2
				c0.2,0,0.2,0.4,0.2,0.6c0.1,0.2,0.1,0.4,0.2,0.4c0.2,0.1,0.3-0.1,0.4-0.2c0.1-0.1,0.1-0.1,0.1-0.1c0.2,0.1,0.2,0.3,0.2,0.5
				c0,0.2,0,0.4,0.2,0.4c0.1,0.1,0.2,0.2,0.5-0.1c0.2,0.2,0.5,0.2,0.6,0.2c0,0,0.1,0,0.2,0l0,0c0,0.1-0.1,0.2-0.1,0.2
				c-0.6-0.2-1-0.1-1.2-0.1h-0.1H37l-0.3,0.2c0,0,0,0,0,0.1c-0.2-0.2-0.4-0.3-0.5-0.5c-0.3-0.3-0.4-0.7-0.5-0.7
				c-0.2,0.1,0.1,0.6,0.2,0.8c0.2,0.3,0.6,0.6,0.8,0.8l0,0c0,0.2,0,0.3,0.1,0.5c-0.2,0.1-0.3,0.3-0.3,0.4l0,0c-0.1,0-0.1,0-0.1,0
				l0,0c-0.1-0.1-0.1-0.2-0.1-0.3c-0.1-0.2-0.1-0.3-0.2-0.4c-0.2-0.1-0.3-0.1-0.5,0.1l-0.2,0.1L35.2,36.1z"/>
			<path class="st1" d="M38,34.1l-0.1,0.3l-0.1,0.2c0,0.2,0.2,0.2,0.5,0.3c0.2,0,0.4,0.1,0.5,0.2c0.1,0.1,0,0.2,0,0.3h0.1
				c0.2,0.1,0.5,0.3,0.6,0.5c0.1-0.1,0.1-0.1,0.2-0.1h0.3c0.2,0.1,0.4,0.4,0.5,0.6c0.2-0.1,0.5-0.2,0.7,0.2c0.2-0.1,0.3,0,0.4,0.1
				c0.1-0.1,0.1-0.2,0.2-0.2c-0.1-0.1-0.2-0.3-0.2-0.5c-0.3,0.2-0.7,0.2-1.2,0c-0.3-0.2-0.5-0.4-0.6-0.6c-0.1-0.2,0-0.2,0.1-0.3l0,0
				l0,0c-0.3-0.5-0.3-0.9-0.2-1.2c-0.3-0.1-0.7-0.2-0.7-0.4c-0.1,0-0.1,0-0.1,0l-0.3-0.2c-0.3-0.2-0.6-0.4-0.8-0.1
				c-0.2,0.2-0.1,0.3,0.2,0.5C37.8,33.8,38,34.1,38,34.1z"/>
			<path class="st1" d="M40.3,30.4c0.5,0.1,0.5,0.7,0.6,1c0.1-0.1,0.3-0.1,0.5,0.1c0.1-0.1,0.2-0.2,0.2-0.2c0.2-0.1,0.3,0,0.4,0.1
				c0.1-0.4,0.1-0.8,0-0.9c-0.1,0-0.1,0.1-0.2,0.1c-0.1,0.1-0.2,0.1-0.2,0.1c-0.1-0.1-0.2-0.1-0.1-0.2c0.1-0.3,0-0.8-0.2-0.8
				c-0.2-0.1-0.2,0-0.2,0.1c-0.1,0.2-0.2,0.2-0.3,0.2l-0.2-0.2c-0.2-0.2-0.5-0.5-0.7-0.5c-0.2,0.1,0,0.5,0.1,0.7
				c0.1,0.2,0.1,0.3,0.1,0.4c-0.1,0.1-0.2,0.1-0.3,0.1c-0.2,0-0.2,0.1-0.2,0.1c0.1,0.2,0.1,0.3,0.2,0.4C40,30.6,40.1,30.4,40.3,30.4
				z"/>
			<path class="st1" d="M43.5,33.4L43.5,33.4C43.5,33.4,43.5,33.4,43.5,33.4L43.5,33.4z"/>
			<path class="st1" d="M48.6,38.2L48.6,38.2L48.6,38.2C48.5,38.2,48.6,38.2,48.6,38.2z"/>
			<path class="st2" d="M45.7,82.7c0.1,0.2-0.4,0.2-0.6,0.2c-0.3,0-0.7-0.1-0.6-0.2c0-0.2,0.3-0.1,0.6-0.1
				C45.3,82.6,45.6,82.6,45.7,82.7L45.7,82.7z"/>
			<path class="st1" d="M36.4,69.9L36.4,69.9h-0.2c-0.1,0-0.1,0-0.2-0.1c0,0-0.4-0.5-0.9-0.5c-0.4,0-0.7,0.2-1,0.3
				c-0.3,0.2-0.6,0.2-0.8,0.2h-0.8c-0.1,0-0.2-0.1-0.2-0.2v-4.6c-0.2,0.1-0.3,0.2-0.4,0.2c0,0.2,0,4.4,0,4.7c0.3,0,3.7,0,3.7,0
				c0.1,0,0.1,0,0.2,0.1c0,0,0.3,0.3,0.6,0.3h0.2c0.4-0.1,0.6-0.3,0.6-0.3c0.1-0.1,0.1-0.1,0.2-0.1c0,0,3.4,0,3.7,0
				c0-0.3,0-4.5,0-4.7c-0.1-0.1-0.2-0.2-0.4-0.2v4.6c0,0.1-0.1,0.2-0.2,0.2h-0.8c-0.3,0-0.5-0.2-0.8-0.2c-0.3-0.2-0.7-0.3-1-0.3
				c-0.5,0-0.9,0.5-0.9,0.5c-0.1,0.1-0.1,0.1-0.2,0.1H36.4L36.4,69.9z"/>
			<path class="st1" d="M41.2,70.2c0,0.1-0.1,0.2-0.2,0.2c0,0-3.7,0-3.8,0c-0.1,0.1-0.4,0.3-0.7,0.4h-0.2c-0.4-0.1-0.7-0.3-0.8-0.4
				c-0.2,0-3.8,0-3.8,0c-0.1,0-0.2-0.1-0.2-0.2v-4.8c-0.1,0-0.2,0-0.3,0c0,0.3,0,5,0,5.3c0.3,0,4.2,0,4.2,0c0.1,0,0.1,0,0.2,0.1
				c0,0,0.2,0.2,0.5,0.3c0.2,0,0.4,0,0.5,0c0.4-0.1,0.5-0.3,0.5-0.3c0.1-0.1,0.1-0.1,0.2-0.1c0,0,3.9,0,4.2,0c0-0.3,0-5,0-5.3
				c-0.1,0-0.2,0-0.3,0L41.2,70.2L41.2,70.2z"/>
			<path class="st1" d="M35,64.3c-0.6,0-0.8,0.2-1.2,0.4c-0.2,0.2-0.4,0.3-0.7,0.3c0,0-0.5,0-0.6,0c0,0.3,0,4.3,0,4.6
				c0.2,0,0.7,0,0.7,0c0.2,0,0.5-0.1,0.7-0.2c0.3-0.2,0.7-0.3,1.2-0.3c0.5,0,0.8,0.3,1.1,0.5c0-0.4,0-4.6,0-4.6
				C36.2,64.9,36,64.3,35,64.3z M35.6,68.2C35.6,68.2,35.6,68.2,35.6,68.2c-0.2,0.1-0.5,0-0.8,0.1l-0.5,0.2l-0.3,0.2
				c-0.4,0.2-0.6,0.2-0.7,0.2c-0.1,0-0.1-0.1-0.1-0.1s0.1-0.1,0.1-0.1c0.1,0,0.4,0,0.7-0.2l0.3-0.2l0.5-0.2c0.4-0.1,0.8-0.1,0.8-0.1
				C35.6,68.1,35.6,68.1,35.6,68.2z M35.6,67.2C35.6,67.2,35.6,67.2,35.6,67.2c-0.2,0.1-0.5,0-0.8,0.1l-0.5,0.2l-0.3,0.2
				c-0.4,0.2-0.6,0.2-0.7,0.2c-0.1,0-0.1-0.1-0.1-0.1c0-0.1,0.1-0.1,0.1-0.1c0.1,0,0.4,0,0.7-0.2l0.3-0.2l0.5-0.2
				c0.4-0.1,0.8-0.1,0.8-0.1C35.6,67.1,35.6,67.1,35.6,67.2z M35.6,66.2L35.6,66.2c-0.2,0.1-0.5,0-0.8,0.1l-0.5,0.2l-0.3,0.2
				c-0.4,0.2-0.6,0.2-0.7,0.2c-0.1,0-0.1-0.1-0.1-0.1c0-0.1,0.1-0.1,0.1-0.1c0.1,0,0.4,0,0.7-0.2l0.3-0.2l0.5-0.2
				c0.4-0.1,0.8-0.1,0.8-0.1C35.6,66.2,35.6,66.2,35.6,66.2z M35.6,65.2L35.6,65.2c-0.2,0.1-0.5,0-0.8,0.1l-0.5,0.3l-0.3,0.2
				c-0.4,0.2-0.6,0.2-0.7,0.2c-0.1,0-0.1-0.1-0.1-0.1c0-0.1,0.1-0.1,0.1-0.1c0.1,0,0.4,0,0.7-0.2l0.3-0.2l0.5-0.2
				c0.4-0.1,0.8-0.1,0.8-0.1C35.6,65.2,35.6,65.2,35.6,65.2z"/>
			<path class="st1" d="M36.5,69.9h-0.2l0,0l0,0h-0.2c-0.1,0-0.1,0-0.2-0.1c0,0-0.4-0.5-0.9-0.5c-0.4,0-0.7,0.2-1,0.3
				c-0.3,0.2-0.6,0.2-0.8,0.2h-0.8c-0.1,0-0.2-0.1-0.2-0.2v-4.6c-0.2,0.1-0.3,0.2-0.4,0.2c0,0.2,0,4.4,0,4.7c0.3,0,3.7,0,3.7,0
				c0.1,0,0.1,0,0.2,0.1c0,0,0.3,0.3,0.6,0.3h0.2C36.8,70.3,37,70,37,70c0.1-0.1,0.1-0.1,0.2-0.1c0,0,3.4,0,3.7,0c0-0.3,0-4.5,0-4.7
				c-0.1-0.1-0.2-0.2-0.4-0.2v4.6c0,0.1-0.1,0.2-0.2,0.2h-0.8c-0.3,0-0.5-0.2-0.8-0.2c-0.3-0.2-0.7-0.3-1-0.3
				c-0.5,0-0.9,0.5-0.9,0.5S36.6,69.9,36.5,69.9z"/>
			<path class="st1" d="M41.5,65.5c-0.1,0-0.2,0-0.3,0v4.8c0,0.1-0.1,0.2-0.2,0.2c0,0-3.7,0-3.8,0c-0.1,0.1-0.4,0.3-0.7,0.4h-0.2
				c-0.4-0.1-0.7-0.3-0.8-0.4c-0.2,0-3.8,0-3.8,0c-0.1,0-0.2-0.1-0.2-0.2v-4.8c-0.1,0-0.2,0-0.3,0c0,0.3,0,5,0,5.3
				c0.3,0,4.2,0,4.2,0c0.1,0,0.1,0,0.2,0.1c0,0,0.2,0.2,0.5,0.3c0.2,0,0.4,0,0.5,0c0.4-0.1,0.5-0.3,0.5-0.3c0.1-0.1,0.1-0.1,0.2-0.1
				c0,0,3.9,0,4.2,0C41.5,70.5,41.5,65.8,41.5,65.5z"/>
			<path class="st1" d="M39.5,65c-0.3,0-0.5-0.2-0.7-0.3c-0.3-0.2-0.6-0.4-1.2-0.4c-1,0-1.2,0.5-1.2,0.5s0,4.2,0,4.7
				c0.2-0.2,0.6-0.5,1.1-0.5c0.5,0,0.8,0.2,1.2,0.3c0.3,0.2,0.5,0.2,0.7,0.2c0,0,0.5,0,0.7,0c0-0.3,0-4.3,0-4.6
				C40,65,39.5,65,39.5,65z M39.5,68.8c-0.1,0-0.4-0.1-0.7-0.2l-0.3-0.2L38,68.2c-0.3-0.1-0.6-0.1-0.7,0c-0.1,0-0.1,0-0.1-0.1
				c0-0.1,0-0.1,0.1-0.1c0,0,0.4-0.1,0.8,0l0.5,0.2l0.3,0.2c0.3,0.2,0.6,0.2,0.7,0.2c0.1,0,0.1,0.1,0.1,0.1
				C39.5,68.7,39.5,68.8,39.5,68.8z M39.5,67.8c-0.1,0-0.4-0.1-0.7-0.2l-0.3-0.2L38,67.2c-0.3-0.1-0.6-0.1-0.7,0
				c-0.1,0-0.1,0-0.1-0.1c0-0.1,0-0.1,0.1-0.1c0,0,0.4-0.1,0.8,0l0.5,0.2l0.3,0.2c0.3,0.2,0.6,0.2,0.7,0.2c0.1,0,0.1,0.1,0.1,0.1
				C39.5,67.8,39.5,67.8,39.5,67.8z M39.5,66.8c-0.1,0-0.4-0.1-0.7-0.2l-0.3-0.2L38,66.3c-0.3-0.1-0.6-0.1-0.7,0
				c-0.1,0-0.1,0-0.1-0.1c0-0.1,0-0.1,0.1-0.1c0,0,0.4-0.1,0.8,0l0.5,0.2l0.3,0.2c0.3,0.2,0.6,0.2,0.7,0.2c0.1,0,0.1,0.1,0.1,0.1
				C39.5,66.8,39.5,66.8,39.5,66.8z M39.5,65.8c-0.1,0-0.4-0.1-0.7-0.2l-0.3-0.1L38,65.3c-0.3-0.1-0.6-0.1-0.7,0
				c-0.1,0-0.1-0.1-0.1-0.1c0-0.1,0-0.1,0.1-0.1c0,0,0.4-0.1,0.8,0l0.5,0.2l0.3,0.2c0.4,0.2,0.6,0.2,0.7,0.2c0.1,0,0.1,0.1,0.1,0.1
				C39.5,65.8,39.5,65.9,39.5,65.8z"/>
			<path class="st1" d="M49.6,69.9h0.2c0.1,0,0.1,0,0.2-0.1c0,0,0.4-0.5,0.9-0.5c0.4,0,0.7,0.2,1,0.3c0.3,0.2,0.6,0.2,0.8,0.2h0.8
				c0.1,0,0.2-0.1,0.2-0.2v-4.6c0.2,0.1,0.3,0.2,0.4,0.2c0,0.2,0,4.4,0,4.7c-0.3,0-3.7,0-3.7,0c-0.1,0-0.1,0-0.2,0.1
				c0,0-0.3,0.3-0.6,0.3h-0.2c-0.4-0.1-0.6-0.3-0.6-0.3c-0.1,0-0.1,0-0.2,0c0,0-3.4,0-3.7,0c0-0.3,0-4.5,0-4.7
				c0.1-0.1,0.2-0.2,0.4-0.2v4.6c0,0.1,0.1,0.2,0.2,0.2h0.8c0.3,0,0.5-0.2,0.8-0.2c0.3-0.2,0.7-0.3,1-0.3c0.5,0,0.9,0.5,0.9,0.5
				c0.1,0.1,0.1,0.1,0.2,0.1L49.6,69.9L49.6,69.9L49.6,69.9z"/>
			<path class="st1" d="M54.4,70.2c0,0.1-0.1,0.2-0.2,0.2c0,0-3.7,0-3.8,0c-0.1,0.1-0.4,0.3-0.8,0.4h-0.2c-0.4-0.1-0.7-0.3-0.8-0.4
				c-0.2,0-3.8,0-3.8,0c-0.1,0-0.2-0.1-0.2-0.2v-4.8c-0.1,0-0.2,0-0.3,0c0,0.3,0,5,0,5.3c0.3,0,4.2,0,4.2,0c0.1,0,0.1,0,0.2,0.1
				c0,0,0.2,0.2,0.5,0.3c0.2,0,0.4,0,0.5,0c0.4-0.1,0.5-0.3,0.5-0.3c0.1-0.1,0.1-0.1,0.2-0.1c0,0,3.9,0,4.2,0c0-0.3,0-5,0-5.3
				c-0.1,0-0.2,0-0.3,0L54.4,70.2L54.4,70.2z"/>
			<path class="st1" d="M49.7,69.9h-0.2l0,0l0,0h-0.2c-0.1,0-0.1,0-0.2-0.1c0,0-0.4-0.5-0.9-0.5c-0.4,0-0.7,0.2-1,0.3
				c-0.3,0.2-0.6,0.2-0.8,0.2h-0.8c-0.1,0-0.2-0.1-0.2-0.2v-4.6c-0.2,0.1-0.3,0.2-0.4,0.2c0,0.2,0,4.4,0,4.7c0.3,0,3.7,0,3.7,0
				c0.1,0,0.1,0,0.2,0.1c0,0,0.3,0.3,0.6,0.3h0.2c0.4-0.1,0.6-0.3,0.6-0.3c0.1-0.1,0.1-0.1,0.2-0.1c0,0,3.4,0,3.7,0
				c0-0.3,0-4.5,0-4.7c-0.1-0.1-0.2-0.2-0.4-0.2v4.6c0,0.1-0.1,0.2-0.2,0.2h-0.8c-0.3,0-0.5-0.2-0.8-0.2c-0.3-0.2-0.7-0.3-1-0.3
				c-0.5,0-0.9,0.5-0.9,0.5C49.8,69.9,49.7,69.9,49.7,69.9z"/>
			<path class="st1" d="M54.7,65.5c-0.1,0-0.2,0-0.3,0v4.8c0,0.1-0.1,0.2-0.2,0.2c0,0-3.7,0-3.8,0c-0.1,0.1-0.4,0.3-0.8,0.4h-0.2
				c-0.4-0.1-0.7-0.3-0.8-0.4c-0.2,0-3.8,0-3.8,0c-0.1,0-0.2-0.1-0.2-0.2v-4.8c-0.1,0-0.2,0-0.3,0c0,0.3,0,5,0,5.3
				c0.3,0,4.2,0,4.2,0c0.1,0,0.1,0,0.2,0.1c0,0,0.2,0.2,0.5,0.3c0.2,0,0.4,0,0.5,0c0.4-0.1,0.5-0.3,0.5-0.3c0.1-0.1,0.1-0.1,0.2-0.1
				c0,0,3.9,0,4.2,0C54.7,70.5,54.7,65.8,54.7,65.5z"/>
			<path class="st1" d="M48.2,64.3c-0.6,0-0.8,0.2-1.2,0.4c-0.2,0.2-0.4,0.3-0.7,0.3c0,0-0.5,0-0.6,0c0,0.3,0,4.3,0,4.6
				c0.2,0,0.7,0,0.7,0c0.2,0,0.5-0.1,0.7-0.2c0.3-0.2,0.7-0.3,1.2-0.3c0.5,0,0.8,0.3,1.1,0.5c0-0.4,0-4.6,0-4.6
				C49.4,64.9,49.2,64.3,48.2,64.3z M46.5,65.7c0.1,0,0.4,0,0.7-0.2l0.3-0.2l0.5-0.2c0.4-0.1,0.8-0.1,0.8-0.1c0.1,0,0.1,0.1,0.1,0.1
				c0,0.1-0.1,0.1-0.1,0.1c-0.1,0-0.4-0.1-0.7,0l-0.5,0.3l-0.3,0.2c-0.4,0.2-0.6,0.2-0.7,0.2c-0.1,0-0.1-0.1-0.1-0.1
				C46.4,65.7,46.4,65.7,46.5,65.7z M46.5,66.7c0.1,0,0.4-0.1,0.7-0.2l0.3-0.2l0.5-0.2c0.4-0.1,0.8-0.1,0.8-0.1
				c0.1,0,0.1,0.1,0.1,0.1s-0.1,0.1-0.1,0.1c-0.1,0-0.4-0.1-0.7,0l-0.5,0.3l-0.3,0.2c-0.4,0.2-0.6,0.2-0.7,0.2
				c-0.1,0-0.1-0.1-0.1-0.1C46.4,66.7,46.4,66.7,46.5,66.7z M48.7,68.2c-0.1,0-0.4-0.1-0.7,0l-0.5,0.2l-0.3,0.2
				c-0.4,0.2-0.6,0.2-0.7,0.2c-0.1,0-0.1-0.1-0.1-0.1s0.1-0.1,0.1-0.1c0.1,0,0.4,0,0.7-0.2l0.3-0.2L48,68c0.4-0.1,0.8-0.1,0.8,0
				c0,0,0.1,0,0.1,0.1C48.7,68.2,48.7,68.2,48.7,68.2z M48.7,67.2c-0.1,0-0.4-0.1-0.7,0l-0.5,0.2l-0.3,0.2c-0.4,0.2-0.6,0.2-0.7,0.2
				c-0.1,0-0.1-0.1-0.1-0.1c0-0.1,0.1-0.1,0.1-0.1c0.1,0,0.4-0.1,0.7-0.2l0.3-0.2L48,67c0.4-0.1,0.8-0.1,0.8,0
				c0.1,0,0.1,0.1,0.1,0.1C48.7,67.2,48.7,67.2,48.7,67.2z"/>
			<path class="st1" d="M50.8,69.1c-0.5,0-0.8,0.3-1.1,0.5c0-0.4,0-4.7,0-4.7s0.2-0.5,1.2-0.5c0.6,0,0.8,0.2,1.2,0.4
				c0.2,0.2,0.4,0.3,0.7,0.3c0,0,0.5,0,0.6,0c0,0.3,0,4.3,0,4.6c-0.2,0-0.7,0-0.7,0c-0.2,0-0.5-0.1-0.7-0.2
				C51.6,69.2,51.3,69.1,50.8,69.1z M50.4,66.1c-0.1,0-0.1,0.1-0.1,0.1c0,0.1,0.1,0.1,0.1,0.1c0.1,0,0.4-0.1,0.7,0l0.5,0.2l0.3,0.2
				c0.4,0.2,0.6,0.2,0.7,0.2c0.1,0,0.1-0.1,0.1-0.1c0-0.1-0.1-0.1-0.1-0.1c-0.1,0-0.4,0-0.7-0.2l-0.3-0.2l-0.5-0.2
				C50.7,66,50.4,66.1,50.4,66.1z M50.4,65.1c-0.1,0-0.1,0.1-0.1,0.1s0.1,0.1,0.1,0.1c0.1,0,0.4-0.1,0.7,0l0.5,0.2l0.3,0.2
				c0.4,0.2,0.6,0.2,0.7,0.2c0.1,0,0.1-0.1,0.1-0.1c0-0.1-0.1-0.1-0.1-0.1c-0.1,0-0.4-0.1-0.7-0.2l-0.3-0.2L51.2,65
				C50.7,65,50.4,65.1,50.4,65.1z M50.4,67.1c-0.1,0-0.1,0.1-0.1,0.1c0,0.1,0.1,0.1,0.1,0.1c0.1,0,0.4-0.1,0.7,0l0.5,0.2l0.3,0.2
				c0.4,0.2,0.6,0.2,0.7,0.2c0.1,0,0.1-0.1,0.1-0.1c0-0.1-0.1-0.1-0.1-0.1c-0.1,0-0.4-0.1-0.7-0.2l-0.3-0.1l-0.5-0.2
				C50.8,67,50.5,67.1,50.4,67.1z M50.4,68.1c-0.1,0-0.1,0.1-0.1,0.1c0,0.1,0.1,0.1,0.1,0.1c0.1,0,0.4-0.1,0.7,0l0.5,0.2l0.3,0.2
				c0.4,0.2,0.6,0.2,0.7,0.2c0.1,0,0.1-0.1,0.1-0.1c0-0.1-0.1-0.1-0.1-0.1c-0.1,0-0.4,0-0.7-0.2l-0.3-0.2L51.2,68
				C50.8,68,50.5,68,50.4,68.1z"/>
			<g>
				<path class="st1" d="M39.7,78.9c-0.1-0.1-0.2-0.2-0.2-0.2c-0.1,0.1-0.2,0.2-0.3,0.2l-0.3,0.1c-0.3,0.1-0.7,0.2-0.8,0.5
					C38,79.5,38,79.6,38,79.7c0,0.2,0.1,0.3,0.1,0.4c0.1,0,0.1-0.1,0.2-0.1c-0.1-0.4,0.1-0.7,0.2-0.6c0.1,0,0,0.2,0.1,0.4
					c0,0.1,0.1,0.1,0.1,0.2c0.1-0.1,0.2-0.1,0.2-0.2c0.1-0.3,0.2-0.5,0.4-0.5l0.2,0.1c0.2,0.1,0.6,0.3,0.8,0.1
					C39.8,79.4,39.8,79,39.7,78.9z"/>
			</g>
			<g>
				<path class="st1" d="M44.4,80.5c-0.1,0-0.1-0.1-0.1-0.1l0,0c-0.2,0-1.2-0.2-1.3-0.2c0,0-0.2-0.1-0.5,0.1
					c-0.3,0.1-0.5,0.3-0.5,0.5c0.1,0.1,0.1,0.1,0.2,0.1c0.1-0.2,0.2-0.3,0.5-0.4c0.2-0.1,0.5-0.1,0.6-0.1c0.1,0.1-0.2,0.2-0.5,0.3
					c-0.1,0.1-0.2,0.2-0.2,0.3l0,0c0.1,0,0.2-0.1,0.4-0.1l0.4-0.1c0.2,0,1.8,0,2.4,0c0.1-0.1,0.1-0.2,0.1-0.2
					C45.3,80.8,44.8,80.7,44.4,80.5z"/>
			</g>
			<path class="st2" d="M45,83.4c0.1,0.2-0.5,0.2-0.7,0.2c-0.4,0-0.8-0.1-0.8-0.2c0.1-0.2,0.4-0.1,0.8-0.1
				C44.5,83.3,45,83.3,45,83.4L45,83.4z M44.3,84.2c-0.1-0.2-0.5-0.1-0.7-0.2c-0.4,0-0.7-0.1-0.7,0.1c-0.1,0.2,0.4,0.2,0.7,0.2
				C43.8,84.3,44.3,84.3,44.3,84.2L44.3,84.2z M43.4,85c0-0.1-0.3-0.1-0.5-0.1c-0.3,0-0.5-0.1-0.5,0.1c0,0.2,0.3,0.2,0.5,0.2
				C43.1,85.1,43.4,85,43.4,85L43.4,85z M36.9,75.8l-0.1,0.1c-0.1,0.1-0.2,0.2-0.1,0.2c0.1,0.1,0.2,0.2,0.2,0.1l0.1-0.1
				c0.1-0.1,0.2-0.2,0.1-0.2C37.1,75.8,37,75.8,36.9,75.8z M42,74.4c-0.1-0.1-0.1-0.1-0.2-0.1l-0.9,0.3c-0.1,0.1-0.1,0.2-0.1,0.2
				c0.1,0.1,0.2,0.2,0.2,0.1l0.8-0.5C42,74.5,42,74.5,42,74.4L42,74.4z M42.1,75.2c0-0.1-0.1-0.1-0.2-0.1l-0.7,0.1
				c-0.1,0-0.2,0.2-0.1,0.2c0,0.1,0.2,0.2,0.2,0.2l0.7-0.3C42.1,75.3,42.1,75.3,42.1,75.2L42.1,75.2z M42.1,76.1
				c0-0.1-0.1-0.1-0.2-0.1l-0.5-0.1c-0.1,0-0.2,0.1-0.2,0.2c0,0.1,0.1,0.2,0.2,0.2l0.5-0.2C42.1,76.2,42.1,76.1,42.1,76.1L42.1,76.1
				z M42,76.8c0-0.1-0.1-0.1-0.1-0.1l-0.4-0.1c-0.1,0-0.2,0.1-0.2,0.2c0,0.1,0.1,0.2,0.2,0.2L42,76.8C41.9,76.9,42,76.9,42,76.8
				L42,76.8z M45.4,74.1c0,0.1,0.1,0.2,0.2,0.2c0,0,0.5,0.2,0.8,0.3c0.1,0.1,0.2,0,0.2-0.1c0.1-0.1,0-0.2-0.1-0.2
				c-0.4-0.2-0.8-0.4-0.9-0.4C45.5,73.9,45.4,74,45.4,74.1L45.4,74.1z M45.6,74.8c0,0.1,0.1,0.2,0.1,0.2c0,0,0.4,0.1,0.6,0.2
				c0.1,0.1,0.2,0,0.2-0.1c0.1-0.1,0-0.2-0.1-0.2c-0.4-0.2-0.7-0.3-0.7-0.3C45.7,74.7,45.6,74.7,45.6,74.8L45.6,74.8z M45.7,75.5
				c0,0.1,0.1,0.2,0.1,0.2c0,0,0.3,0.1,0.5,0.2c0.1,0.1,0.2,0,0.2-0.1c0.1-0.1,0-0.2-0.1-0.2c-0.3-0.2-0.4-0.2-0.5-0.2
				S45.7,75.4,45.7,75.5L45.7,75.5z M45.7,76.1c0,0.1,0,0.2,0.1,0.2c0,0,0.2,0.1,0.3,0.1c0.1,0,0.1,0,0.2-0.1c0.1-0.1,0-0.1-0.1-0.2
				c-0.1-0.1-0.3-0.1-0.3-0.1C45.8,76.1,45.7,76.1,45.7,76.1L45.7,76.1z M47.2,75.2c-0.1,0.1,0,0.2,0.1,0.2c0,0,0.2,0.1,0.5,0.4
				c0.1,0.1,0.2,0.1,0.2,0c0.1-0.1,0.1-0.2,0-0.2c-0.3-0.3-0.5-0.4-0.5-0.5C47.4,75.1,47.3,75.1,47.2,75.2L47.2,75.2z M47.1,76
				c-0.1,0.1,0,0.2,0.1,0.2c0,0,0.1,0.1,0.4,0.2c0.1,0.1,0.2,0.1,0.2,0c0.1-0.1,0.1-0.2,0-0.2c-0.3-0.3-0.4-0.3-0.4-0.3
				C47.3,75.9,47.2,75.9,47.1,76L47.1,76z M47,76.6c-0.1,0.1,0,0.2,0.1,0.2c0,0,0.2,0.1,0.2,0.2c0.1,0.1,0.1,0.1,0.2,0
				c0.1-0.1,0.1-0.1,0-0.2c-0.1-0.1-0.2-0.2-0.2-0.2C47,76.5,47,76.5,47,76.6L47,76.6z M46.7,77.1c-0.1,0.1-0.1,0.2,0.1,0.2
				c0,0,0.1,0,0.2,0.1c0.1,0.1,0.1,0.1,0.2,0c0.1-0.1,0.1-0.1,0-0.2C47,77.1,47,77.1,46.9,77C46.9,77,46.7,77,46.7,77.1L46.7,77.1z
				 M48.3,76.8c-0.1,0.1-0.1,0.2,0,0.2c0,0,0.1,0.1,0.2,0.2c0.1,0.1,0.1,0.1,0.2,0.1c0.1-0.1,0.1-0.1,0.1-0.2
				c-0.1-0.1-0.1-0.2-0.2-0.2C48.4,76.8,48.3,76.8,48.3,76.8L48.3,76.8z M48,77.3c-0.1,0.1-0.1,0.1,0,0.2c0.1,0.1,0.1,0.1,0.1,0.1
				c0.1,0.1,0.1,0.1,0.2,0.1s0.1-0.1,0.1-0.2s-0.1-0.1-0.1-0.2C48,77.3,48,77.3,48,77.3L48,77.3z M37.1,77.2
				c0.2-0.1-0.2-0.4-0.1-0.5c0.1-0.2,0.8-0.5,0.8-0.6s-0.9,0.2-1.1,0.5C36.6,76.8,37,77.3,37.1,77.2L37.1,77.2z M38.1,75.4
				c0.2,0.1,0.2-0.1,0.2-0.1c0,0,0.1-0.1,0.2,0c0.1,0.1,0.1,0.1,0.1,0.1c0,0.1,0,0.2,0.1,0.2c0.1,0,0.3-0.4-0.1-0.5
				C38.5,75,38.5,75,38.3,75C38.1,75.1,38,75.4,38.1,75.4L38.1,75.4z M48.2,75.1c-2.5-3-5.9-1.5-6-1.5c-0.7,0.2-1.3,0.5-1.6,0.6
				l-0.4,0.2l-1.3,0.2c-0.4,0.1-0.8,0.4-1.5,0.7l-0.5,0.3c-0.8,0.4-0.9,0.8-0.9,0.8c0,0.1-0.1,0.1-0.1,0.1c-0.1,0.1-0.2,0.1-0.2,0.2
				c0,0,0,0,0,0.1c0,0.1,0,0.1,0,0.1l0.2-0.1c0.1-0.1,0.2,0,0.2,0.1c0.1,0.1,0,0.2-0.1,0.2L35.8,77c0.2,0.2,0.3,0.3,0.3,0.3h0.1
				c0.2-0.1,0.6-0.2,0.8,0.3v0.3C37,77.9,36.9,78,36.8,78c0.2,0.1,0.4,0.1,0.5,0h0.1l0.2-0.1c0.5-0.1,0.9-0.2,1.2-0.1
				c0.4,0.1,1,0.5,1.2,0.7c0.2,0.2,0.4,0.9,0.3,1.1c0,0.1-0.1,0.4-0.4,0.6c-0.2,0.1-0.5,0.1-0.6,0.1h-0.2c-0.1,0.1-0.2,0.2-0.3,0.4
				c0.1,0,0.2,0,0.2,0c0.2-0.2,0.3-0.3,0.3-0.2c0.1,0.1,0,0.2-0.1,0.2c0.2,0,0.4,0,0.4,0h0.2c0.2,0,0.6,0,0.7-0.1l0.2-0.2l0.5-0.5
				l0.6-0.5l0.2-0.2c0.1-0.1,0.2-0.8,0.1-1.6c0-0.1,0.1-0.2,0.2-0.2c0.1,0,0.2,0.1,0.2,0.2c0.1,0.3,0.1,0.9,0.1,1.4h0.1
				c0.5,0.3,0.9,0.5,1.4,0.6c-0.2-0.2-0.3-0.4-0.4-0.7c-0.1-0.2-0.1-0.4-0.1-0.5c0-0.6,0.4-1,0.6-1.4c0.2-0.3,0.5-0.5,0.5-0.8
				c0-0.1,0-0.1,0-0.1c0,0,0,0,0-0.1c0-0.1,0.1-0.2,0.2-0.2s0.2,0.1,0.2,0.2c0.1,0.4-0.2,0.8-0.5,1.2c-0.4,0.5-0.7,0.9-0.5,1.6
				c0.2,0.5,0.4,0.8,0.7,0.9c0,0,0.1,0,0.1,0.1c0.1,0,0.1,0.1,0.1,0.1c0.5,0.3,1.2,0.3,1.2,0.3c0.1,0,0.1,0.1,0.2,0.1
				c0.1,0.1,0.1,0.1,0.1,0.2c0,0-0.1,0.3-0.2,0.5c0,0.1-0.1,0.1-0.1,0.1c-0.1,0.1-0.1,0.1-0.2,0.2l-0.6,0.4
				c-0.5,0.3-1.2,0.8-1.9,1.4c-0.9,0.8-1.5,1.8-1.3,2.3c0.1,0.1,0.1,0.2,0.3,0.2c1.5,0.2,2.5-0.8,3.3-1.7l0.2-0.2
				c0.5-0.6,0.9-1.3,1.2-1.8c0.2-0.3,0.3-0.5,0.4-0.5c0.6-0.5,1.7-1.8,1.9-3.4C49.1,77,48.8,76,48.2,75.1z"/>
			<path class="st1" d="M52.3,81.4c0.3,0.1,0.6,0,0.9-0.2c0.3-0.1,0.5-0.3,0.6-0.5c0.2,0.3,0.7,1,0.9,1.3c-0.3,0.4-0.7,0.8-1.2,1.2
				L52.3,81.4z"/>
			<path class="st1" d="M32.2,80.7c0.2,0.2,0.4,0.4,0.6,0.5c0.3,0.2,0.6,0.2,0.9,0.2l-1.3,1.9c-0.4-0.4-0.8-0.8-1.2-1.2
				C31.5,81.8,32.1,81,32.2,80.7z"/>
			<path class="st1" d="M36.5,91.9c0.1-0.1,0.2-0.2,0.3-0.2l0.2-0.2c0.3-0.3,0.7-0.6,1-0.8c0.7,0.3,1.2,0.6,1.6,1
				c0.3,0.3,0.3,0.7,0.1,0.9c-0.1,0.1-0.2,0.2-0.2,0.2L39,93.3h-0.3c-1.3,0-2.2-0.5-2.4-0.9C36.4,92.2,36.5,92,36.5,91.9z"/>
			<path class="st1" d="M49,91.5l0.2,0.2c0.1,0.1,0.2,0.2,0.3,0.2c0.1,0.1,0.1,0.3,0.1,0.4c-0.2,0.5-1.1,0.9-2.4,0.9l0,0l0,0h-0.3
				l-0.4-0.5c-0.1-0.1-0.2-0.2-0.2-0.2c-0.2-0.2-0.2-0.6,0.1-0.9c0.4-0.4,0.9-0.7,1.6-1C48.3,90.8,48.7,91.2,49,91.5z"/>
			<path class="st1" d="M32.7,78L32.7,78L32.7,78z"/>
			<path class="st1" d="M37,89.7l-0.2-0.1c-3-1.2-5.5-2.8-6.7-4.2c-1.3-1.6-1.1-2.9-0.7-3.8l0.4-0.8l0.4-0.8
				c-0.1,0.4,0.1,0.9,0.3,1.5c0.6,1.5,2.7,3.1,4.3,4c0.7,0.4,1.4,0.7,2,1c1.8,0.8,3.3,1.5,3.3,3.1v1.9c0,0.1,0,0.2,0,0.2
				c-0.1-0.2-0.2-0.3-0.2-0.4C39.3,90.6,38.2,90.2,37,89.7z M34.1,85.7c0.1-0.1,0.1-0.2,0.1-0.2c-0.2-0.2-0.5-0.3-0.7-0.5
				c-0.1,0.1-0.1,0.2-0.1,0.2c0.1,0.1,0.1,0.1,0.2,0.2c-0.2,0.5-0.5,0.9-0.7,1.5c-0.1-0.1-0.1-0.1-0.2-0.1c-0.1,0.1-0.1,0.2-0.1,0.2
				c0.4,0.3,0.7,0.5,1.2,0.7c0.1-0.2,0.2-0.3,0.3-0.4c0,0,0,0,0-0.1C34,87,33.9,87,33.9,86.9c-0.1,0.1-0.2,0.2-0.3,0.3
				c-0.2-0.1-0.3-0.2-0.5-0.3c0-0.2,0.5-1.1,0.7-1.5C33.8,85.6,34,85.7,34.1,85.7L34.1,85.7z M32.3,85.8c0.1-0.2,0.2-0.3,0.3-0.5
				c-0.1-0.1-0.1-0.1-0.2-0.2c-0.1,0.1-0.1,0.1-0.1,0.2c-0.1,0-0.3-0.2-0.3-0.2c0.1-0.2,0.2-0.4,0.3-0.6c0.1,0.1,0.3,0.2,0.4,0.3
				c0.1,0.1-0.1,0.2-0.1,0.3c0,0.1,0.2,0.1,0.2,0.2c0.1-0.2,0.2-0.3,0.2-0.5c-0.4-0.3-0.7-0.5-1-0.8c-0.1,0.1-0.1,0.2-0.1,0.2
				c0.1,0.1,0.1,0.1,0.2,0.2c-0.3,0.5-0.5,0.9-0.7,1.4c-0.1-0.1-0.1-0.1-0.2-0.1C31,85.7,31,85.7,31,85.8c0.3,0.3,0.6,0.6,1,0.8
				c0.1-0.2,0.2-0.3,0.3-0.5l0,0c-0.1-0.1-0.1-0.1-0.2-0.2c-0.1,0.1-0.2,0.3-0.2,0.3c-0.1,0-0.4-0.3-0.4-0.3c0-0.1,0.2-0.5,0.3-0.6
				c0.1,0.1,0.2,0.2,0.3,0.3c0,0.1-0.1,0.2-0.1,0.2C32.2,85.8,32.2,85.8,32.3,85.8L32.3,85.8z M38.2,87.6c-0.5-0.3-1-0.5-1.5-0.7
				c-0.1,0.2-0.2,0.3-0.3,0.5c0.1,0.1,0.2,0.1,0.2,0.2c0.1-0.1,0.2-0.2,0.2-0.3c0.1,0,0.3,0.1,0.4,0.2c-0.2,0.5-0.5,1-0.7,1.5
				c-0.1-0.1-0.2-0.1-0.2-0.1c-0.1,0.1-0.1,0.2-0.1,0.2c0.3,0.2,0.5,0.2,0.8,0.4c0.1-0.1,0.1-0.2,0.1-0.2c-0.1-0.1-0.2-0.1-0.2-0.1
				c0.2-0.5,0.5-1,0.7-1.5c0.2,0.1,0.3,0.2,0.3,0.2c-0.1,0.1-0.1,0.2-0.1,0.3c0,0.1,0.2,0.1,0.2,0.1C38.1,88,38.1,87.8,38.2,87.6
				L38.2,87.6z M36.5,86.8c-0.2-0.1-0.4-0.2-0.6-0.3c-0.1,0.1-0.1,0.1-0.1,0.2c0.1,0.1,0.2,0.1,0.2,0.2c-0.2,0.5-0.6,1.6-1.1,1.3
				c-0.4-0.2-0.2-0.5-0.1-0.9c0.1-0.2,0.2-0.5,0.4-0.7c0.1,0.1,0.2,0.1,0.2,0.1c0.1-0.1,0.1-0.2,0.1-0.2c-0.2-0.2-0.5-0.3-0.7-0.4
				c-0.1,0.1-0.1,0.2-0.1,0.2c0.1,0.1,0.1,0.1,0.2,0.1c0,0.1-0.2,0.4-0.2,0.5c-0.2,0.5-0.5,0.9-0.3,1.2c0.1,0.1,0.2,0.2,0.2,0.2
				c0.2,0.1,0.3,0.2,0.5,0.2c0.6,0.1,0.8-0.7,1.2-1.4c0.1,0.1,0.1,0.1,0.2,0.1C36.5,86.9,36.5,86.8,36.5,86.8L36.5,86.8z M31.6,83.9
				c0.1,0.1,0.1,0.1,0.2,0.1c0.1-0.1,0.1-0.2,0.1-0.2c-0.2-0.2-0.3-0.3-0.5-0.5c-0.1,0.1-0.1,0.2-0.1,0.2c0.1,0.1,0.2,0.2,0.2,0.2
				c-0.2,0.2-0.8,0.8-0.8,0.9l0,0c-0.1-0.1,0.2-1.5,0.3-1.5c0.1,0.1,0.1,0.2,0.2,0.2c0.1-0.1,0.1-0.2,0.1-0.2
				c-0.2-0.2-0.4-0.5-0.5-0.7c-0.1,0.1-0.1,0.1-0.2,0.2c0.1,0.1,0.1,0.1,0.1,0.2c-0.1,0.2-0.3,1.9-0.3,2.1c0.1,0.1,0.2,0.2,0.2,0.2
				C30.7,84.8,31.5,84,31.6,83.9L31.6,83.9z"/>
			<path class="st1" d="M55.8,85.4c-1.2,1.5-3.7,3.1-6.7,4.2L49,89.7c-1.2,0.5-2.3,0.9-2.9,1.6c-0.1,0.1-0.2,0.2-0.2,0.4
				c0-0.1,0-0.2,0-0.2v-1.9c0-1.6,1.5-2.3,3.3-3.1c0.7-0.3,1.4-0.6,2-1c1.6-0.9,3.7-2.5,4.3-4c0.2-0.6,0.3-1.1,0.3-1.5l0.4,0.8
				l0.4,0.8C56.9,82.4,57.1,83.7,55.8,85.4z M49.6,87.8L49.6,87.8c0-0.3,0.1-0.6,0.1-0.8l0,0c0.2,0.2,0.2,0.5,0.3,0.7
				C49.9,87.6,49.7,87.8,49.6,87.8L49.6,87.8z M51.2,87.6c0,0.1,0.1,0.2,0.1,0.3c-0.1,0.1-0.5,0.3-0.5,0.3c-0.1-0.2-0.2-0.4-0.3-0.6
				c0.1-0.1,0.4-0.2,0.5-0.2c0.1,0.1,0.1,0.1,0.1,0.2c0.1-0.1,0.2-0.1,0.2-0.1C51,87.3,51,87.1,50.9,87c-0.1,0.1-0.2,0.1-0.2,0.1
				c0,0.1,0.1,0.2,0.1,0.2c-0.1,0.1-0.4,0.2-0.5,0.3c-0.2-0.2-0.2-0.5-0.3-0.7c0.2-0.1,0.4-0.2,0.5-0.3c0.1,0.1,0.2,0.2,0.2,0.2
				c0.1-0.1,0.2-0.1,0.2-0.1c0-0.1-0.2-0.4-0.2-0.5c-0.4,0.2-0.8,0.5-1.2,0.6c-0.1,0.7-0.2,1.4-0.2,2c-0.1,0.1-0.1,0.1-0.2,0.1
				c0.1,0.1,0.1,0.2,0.1,0.2c0.2-0.1,0.4-0.2,0.6-0.3c-0.1-0.1-0.1-0.2-0.1-0.2c-0.1,0.1-0.2,0.1-0.2,0.1c0-0.2,0-0.5,0-0.7
				c0.2-0.1,0.4-0.2,0.5-0.2c0.1,0.2,0.2,0.4,0.3,0.6c-0.1,0.1-0.2,0.1-0.2,0.1c0.1,0.1,0.1,0.2,0.1,0.2c0.4-0.2,0.9-0.5,1.3-0.6
				c-0.1-0.2-0.1-0.3-0.2-0.5C51.3,87.5,51.3,87.6,51.2,87.6L51.2,87.6z M52.6,85.2c0.1-0.1,0.1-0.1,0.2-0.1
				c-0.1-0.1-0.1-0.2-0.1-0.2c-0.2,0.2-0.4,0.3-0.6,0.4c0.1,0.1,0.1,0.2,0.1,0.2c0.1-0.1,0.2-0.1,0.2-0.2c0.1,0.3,0.2,1.2,0.2,1.3
				c0,0.1,0,0.2,0.1,0.2l0,0c-0.1,0-0.2-0.2-0.2-0.2l-0.5-0.5c-0.1-0.1-0.2-0.2-0.2-0.3c0.1-0.1,0.2-0.1,0.2-0.2
				c-0.1-0.1-0.1-0.2-0.1-0.2c-0.3,0.2-0.5,0.3-0.8,0.4c0.1,0.1,0.1,0.2,0.1,0.2c0.1-0.1,0.1-0.1,0.2-0.1c0.1,0.1,0.2,0.2,0.3,0.3
				c0.2,0.2,0.5,0.5,0.7,0.7c0.1,0.1,0.2,0.2,0.3,0.3c0.1-0.1,0.2-0.1,0.3-0.2c-0.1-0.5-0.1-0.9-0.1-1.5
				C52.7,85.7,52.6,85.4,52.6,85.2L52.6,85.2z M54.5,85.9c-0.4,0.4-0.8-0.2-1-0.7c-0.1-0.2-0.1-0.5,0.1-0.7c0.1-0.1,0.1-0.1,0.2-0.2
				c0.1-0.1,0.2-0.1,0.3-0.1C54.5,84.3,54.9,85.5,54.5,85.9L54.5,85.9z M54.6,84.3c-0.3-0.3-0.6-0.3-1-0.1c-0.1,0.1-0.2,0.2-0.2,0.2
				c-0.2,0.2-0.3,0.5-0.3,0.7c0,0.1,0,0.2,0.1,0.3c0.1,0.2,0.1,0.3,0.2,0.5c0.3,0.4,0.6,0.5,1,0.3C55.1,85.9,55.2,84.8,54.6,84.3
				L54.6,84.3z"/>
			<path class="st1" d="M49.7,92.7L49.7,92.7v2.8c0,0.8-1.4,1.2-2.6,1.2h-8.2c-1.2,0-2.6-0.3-2.6-1.2v-2.7v-0.1
				c0.5,0.5,1.5,0.8,2.6,0.8h8.2l0,0C48.3,93.6,49.3,93.2,49.7,92.7z M47,95c0-0.3,0-0.5,0-0.8c0.1,0,0.2,0,0.3,0
				c0.2,0.1,0.3,0.4,0.2,0.6C47.4,95,47.3,95,47,95L47,95z M48,95.7c-0.1-0.2-0.2-0.5-0.4-0.5l0,0c0.4-0.1,0.6-0.6,0.2-0.9
				c-0.3-0.2-0.8-0.2-1.3-0.2c0,0.1,0,0.2,0,0.2l0,0c0.1,0,0.2,0,0.2,0v1.6c-0.1,0-0.2,0-0.2,0c0,0.1,0,0.2,0,0.2l0,0h0.8
				c0-0.1,0-0.2,0-0.2c-0.1,0-0.2,0-0.2,0c0-0.2,0-0.4,0-0.6c0.1,0,0.2,0,0.2,0c0.2,0.1,0.3,0.6,0.5,0.8c0.1,0.1,0.4,0,0.5,0v-0.2
				c-0.1,0-0.2,0-0.2,0C48,95.8,48,95.7,48,95.7L48,95.7z M43.4,95.6c-0.1,0.2-0.2,0.2-0.4,0.3c-0.1,0-0.2,0-0.3-0.1
				c-0.1-0.1,0-0.1,0-0.2s0-0.5,0-0.5C43.1,95.1,43.4,95.2,43.4,95.6L43.4,95.6z M42.8,94.3c0.2,0,0.4,0,0.5,0.2
				c0.1,0.1,0.1,0.2,0.1,0.2c-0.1,0.3-0.2,0.3-0.5,0.3C42.8,94.7,42.8,94.5,42.8,94.3L42.8,94.3z M43.3,95L43.3,95L43.3,95
				c0.3-0.2,0.5-0.6,0.2-0.8C43.2,94,42.6,94,42.2,94v0.2c0.1,0,0.2,0,0.2,0v1.6c-0.1,0-0.2,0-0.2,0c0,0.1,0,0.2,0,0.2
				c0.5,0,1,0.1,1.3-0.1c0.2-0.2,0.4-0.5,0.2-0.7C43.5,95.1,43.4,95.1,43.3,95L43.3,95z M40.7,95c0-0.3,0-0.5,0-0.8
				c0.1,0,0.2,0,0.3,0c0.2,0.1,0.3,0.4,0.2,0.6C41.1,95,40.9,95,40.7,95L40.7,95z M41.6,95.7c-0.1-0.2-0.2-0.5-0.4-0.5l0,0
				c0.4-0.1,0.6-0.6,0.2-0.9c-0.3-0.2-0.8-0.2-1.3-0.2c0,0.1,0,0.2,0,0.2l0,0c0.1,0,0.2,0,0.2,0v1.6c-0.1,0-0.2,0-0.2,0
				c0,0.1,0,0.2,0,0.2l0,0h0.8c0-0.1,0-0.2,0-0.2c-0.1,0-0.2,0-0.2,0c0-0.2,0-0.4,0-0.6c0.1,0,0.2,0,0.2,0c0.2,0.1,0.3,0.6,0.5,0.8
				c0.1,0.1,0.4,0,0.5,0v-0.2c-0.1,0-0.2,0-0.2,0C41.7,95.8,41.6,95.7,41.6,95.7L41.6,95.7z M38.5,95.3c0.1-0.3,0.2-0.5,0.3-0.8l0,0
				l0.3,0.8H38.5L38.5,95.3z M39,94c-0.1,0-0.2,0-0.3,0c-0.2,0.6-0.5,1.2-0.7,1.8c-0.1,0-0.2,0-0.2,0V96h0.7v-0.2
				c-0.1,0-0.2,0-0.2,0c0.1-0.2,0.1-0.2,0.1-0.4c0.2,0,0.5,0,0.7,0c0.1,0.1,0.1,0.2,0.2,0.4c-0.1,0-0.2,0-0.2,0V96h0.8v-0.2
				c-0.1,0-0.2,0-0.2,0C39.5,95.3,39.2,94.6,39,94L39,94z M45.2,95.9c-0.5,0.1-0.7-0.6-0.6-1.1c0.1-0.2,0.2-0.5,0.4-0.5
				c0.1,0,0.1-0.1,0.2-0.1c0.2,0,0.2,0,0.3,0.1C45.8,94.6,45.8,95.8,45.2,95.9L45.2,95.9z M45.1,94c-0.1,0-0.2,0.1-0.3,0.1
				c-0.2,0.1-0.4,0.2-0.5,0.5c-0.1,0.1-0.1,0.2-0.1,0.3c-0.1,0.2-0.1,0.3,0,0.5c0.1,0.5,0.3,0.7,0.8,0.8c0.8,0.2,1.3-0.8,1-1.5
				C45.9,94.2,45.6,94,45.1,94L45.1,94z"/>
			<path class="st1" d="M57,62.9c0,0,0,0.1,0,0.2c0,0.1,0,0.2,0,0.2H29c0,0,0-0.1,0-0.2c0-0.1,0-0.2,0-0.2H57z M57,62.9
				c0-4.8,0-10.7,0-10.7H43l0,0l0,0H29c0,0,0,5.8,0,10.7 M40.9,59.3c0.2,0,0.3,0.2,0.3,0.3c0,0.2-0.2,0.3-0.3,0.3
				c-0.2,0-0.3-0.2-0.3-0.3C40.7,59.4,40.8,59.3,40.9,59.3L40.9,59.3z M38.8,60c0.2-0.1,0.3-0.1,0.4,0.1s0.1,0.3-0.1,0.4
				c-0.2,0.1-0.3,0.1-0.4-0.1C38.7,60.2,38.7,60,38.8,60L38.8,60z M39.9,59.7c0.1,0,0.2,0.1,0.2,0.2c0,0.1-0.1,0.2-0.2,0.2
				c-0.1,0-0.2-0.1-0.2-0.2C39.8,59.7,39.8,59.7,39.9,59.7L39.9,59.7z M42,59.3c0.1,0,0.2,0.1,0.2,0.2c0,0.1-0.1,0.2-0.2,0.2
				c-0.1,0-0.2-0.1-0.2-0.2C41.8,59.4,41.9,59.3,42,59.3L42,59.3z M45.3,59.6c0,0.2-0.2,0.3-0.3,0.3c-0.2,0-0.3-0.2-0.3-0.3
				c0-0.1,0.2-0.3,0.3-0.3C45.2,59.3,45.3,59.4,45.3,59.6L45.3,59.6z M47.3,60.3c-0.1,0.2-0.3,0.2-0.4,0.1c-0.2-0.1-0.2-0.3-0.1-0.4
				c0.1-0.2,0.3-0.2,0.4-0.1C47.3,60,47.3,60.2,47.3,60.3L47.3,60.3z M46.2,59.8c0,0.1-0.1,0.2-0.2,0.2c-0.1,0-0.2-0.1-0.2-0.2
				c0-0.1,0.1-0.2,0.2-0.2C46.1,59.7,46.2,59.7,46.2,59.8L46.2,59.8z M44.2,59.4c0,0.1-0.1,0.2-0.2,0.2c-0.1,0-0.2-0.1-0.2-0.2
				c0-0.1,0.1-0.2,0.2-0.2C44.1,59.3,44.2,59.4,44.2,59.4L44.2,59.4z M43,55.9c0.2,0,0.3,0.2,0.3,0.3s-0.2,0.3-0.3,0.3
				c-0.2,0-0.3-0.2-0.3-0.3C42.7,56,42.8,55.9,43,55.9L43,55.9z M43,55c0.2,0,0.3,0.2,0.3,0.3c0,0.2-0.2,0.3-0.3,0.3
				c-0.2,0-0.3-0.2-0.3-0.3C42.7,55.1,42.8,55,43,55L43,55z M43,54.2c0.2,0,0.3,0.2,0.3,0.3c0,0.2-0.2,0.3-0.3,0.3
				c-0.2,0-0.3-0.2-0.3-0.3C42.7,54.3,42.8,54.2,43,54.2L43,54.2z M41.6,54.3c0.2,0,0.3,0.2,0.3,0.3s-0.2,0.3-0.3,0.3
				c-0.2,0-0.3-0.2-0.3-0.3C41.2,54.4,41.4,54.3,41.6,54.3L41.6,54.3z M40.6,54c0.2,0,0.3,0.2,0.3,0.3c0,0.2-0.2,0.3-0.3,0.3
				c-0.2,0-0.3-0.2-0.3-0.3C40.3,54.1,40.5,54,40.6,54L40.6,54z M39.6,53.8c0.2,0,0.3,0.2,0.3,0.3s-0.2,0.3-0.3,0.3
				c-0.2,0-0.3-0.2-0.3-0.3C39.3,53.9,39.5,53.8,39.6,53.8L39.6,53.8z M38.6,53.9c0.2,0,0.3,0.2,0.3,0.3c0,0.2-0.2,0.3-0.3,0.3
				c-0.2,0-0.3-0.2-0.3-0.3C38.2,54,38.4,53.9,38.6,53.9L38.6,53.9z M37.7,54.4c0.2,0,0.3,0.2,0.3,0.3c0,0.2-0.2,0.3-0.3,0.3
				c-0.2,0-0.3-0.2-0.3-0.3C37.4,54.5,37.5,54.4,37.7,54.4L37.7,54.4z M37.1,55.3c0.2,0,0.3,0.2,0.3,0.3c0,0.2-0.2,0.3-0.3,0.3
				c-0.2,0-0.3-0.2-0.3-0.3C36.8,55.4,37,55.3,37.1,55.3L37.1,55.3z M37.1,56.4c0.2,0,0.3,0.2,0.3,0.3c0,0.2-0.2,0.3-0.3,0.3
				c-0.2,0-0.3-0.2-0.3-0.3C36.8,56.4,37,56.4,37.1,56.4L37.1,56.4z M37.5,57.3c0.2,0,0.3,0.2,0.3,0.3S37.7,58,37.5,58
				c-0.2,0-0.3-0.2-0.3-0.3C37.3,57.4,37.4,57.3,37.5,57.3L37.5,57.3z M44.7,54.5c0,0.2-0.2,0.3-0.3,0.3s-0.3-0.2-0.3-0.3
				c0-0.2,0.2-0.3,0.3-0.3C44.6,54.2,44.7,54.4,44.7,54.5L44.7,54.5z M45.7,54.2c0,0.2-0.2,0.3-0.3,0.3c-0.2,0-0.3-0.2-0.3-0.3
				s0.2-0.3,0.3-0.3C45.5,54,45.7,54.1,45.7,54.2L45.7,54.2z M46.7,54c0,0.2-0.2,0.3-0.3,0.3s-0.3-0.2-0.3-0.3s0.2-0.3,0.3-0.3
				C46.5,53.8,46.7,53.9,46.7,54L46.7,54z M47.7,54.2c0,0.2-0.2,0.3-0.3,0.3c-0.2,0-0.3-0.2-0.3-0.3c0-0.2,0.2-0.3,0.3-0.3
				C47.5,53.9,47.7,54,47.7,54.2L47.7,54.2z M48.6,54.8c0,0.2-0.2,0.3-0.3,0.3c-0.2,0-0.3-0.2-0.3-0.3c0-0.2,0.2-0.3,0.3-0.3
				C48.4,54.4,48.6,54.5,48.6,54.8L48.6,54.8z M49.1,55.6c0,0.2-0.2,0.3-0.3,0.3c-0.2,0-0.3-0.2-0.3-0.3s0.2-0.3,0.3-0.3
				C49,55.3,49.1,55.4,49.1,55.6L49.1,55.6z M49.1,56.7c0,0.2-0.2,0.3-0.3,0.3s-0.3-0.2-0.3-0.3c0-0.2,0.2-0.3,0.3-0.3
				C49,56.4,49.1,56.5,49.1,56.7L49.1,56.7z M48.7,57.6c0,0.2-0.2,0.3-0.3,0.3c-0.2,0-0.3-0.2-0.3-0.3c0-0.2,0.2-0.3,0.3-0.3
				C48.5,57.3,48.7,57.4,48.7,57.6L48.7,57.6z M45.8,62.3l0.3-0.2c0.6-0.3,0.8-0.6,0.8-0.9c0-0.5-1.7-1.1-3.9-1.1s-3.9,0.6-3.9,1.2
				c0,0.3,0.2,0.6,0.8,0.9l0.3,0.2c0,0.1-0.2,0-0.3-0.1c-0.7-0.2-1.2-0.6-1.2-1c0-0.9,2.2-1.4,4.3-1.4c2.1,0,4.3,0.5,4.3,1.4
				c0,0.4-0.5,0.8-1.2,1C46.1,62.3,45.8,62.4,45.8,62.3L45.8,62.3z M43,58.9c-1.3,0-2.5,0.2-3.4,0.5c-0.4,0.2-0.6,0.3-0.8,0.4
				c-0.1,0.1-0.1,0.1-0.2,0c-0.1-0.1-0.1-0.1-0.2-0.2c-0.1-0.2-0.2-0.7-0.5-1.3c-0.1-0.1,0.1-0.2,0.1-0.1c0.2,0.2,0.6,0.9,0.6,1.2
				l0,0l0,0c0.2-0.1,0.4-0.2,0.7-0.3c0.9-0.3,2.2-0.5,3.5-0.5l0,0c1.4,0,2.6,0.2,3.5,0.5c0.3,0.1,0.5,0.2,0.7,0.3l0,0l0,0
				c0.1-0.2,0.5-0.9,0.6-1.2c0.1-0.1,0.2,0,0.1,0.1c-0.3,0.6-0.4,1.2-0.5,1.3c0,0.1-0.1,0.2-0.2,0.2c-0.1,0-0.1,0-0.2,0
				c-0.2-0.2-0.5-0.3-0.8-0.4C45.5,59.1,44.3,58.9,43,58.9L43,58.9L43,58.9z M43.7,53.4c0,0.1-0.1,0.2-0.2,0.2h-0.3v0.3
				c0,0.1-0.1,0.2-0.2,0.2c-0.1,0-0.2-0.1-0.2-0.2v-0.3h-0.3c-0.1,0-0.2-0.1-0.2-0.2c0-0.1,0.1-0.2,0.2-0.2h0.3v-0.3
				c0-0.1,0.1-0.2,0.2-0.2c0.1,0,0.2,0.1,0.2,0.2v0.3h0.3C43.5,53.2,43.7,53.3,43.7,53.4z M43,60.6c1.2,0,3.5,0.2,3.5,0.9
				c0,0.7-2.3,0.9-3.5,0.9s-3.5-0.2-3.5-0.9C39.5,60.8,41.8,60.6,43,60.6z M48.3,56.1c0,0.9-0.7,1.9-1,2.3l0,0l0,0l0,0
				c-0.2,0.3-0.5,0.5-1,0.4c-0.2-0.1-0.5-0.2-0.6-0.4c-0.1-0.2-0.2-0.3,0.1-0.5c0.1-0.1,0.2-0.2,0.2-0.1c0.1,0,0.1,0.2,0,0.2
				c-0.1,0.1-0.1,0.2,0.1,0.3c0.1,0.1,0.2,0,0.2-0.1c0,0-0.2-0.2,0-0.3c0.2-0.1,0.5-0.4,0-0.6c-0.3-0.2-0.6,0.3-0.6,0.4
				c-0.1,0.1-0.1,0.1-0.1-0.1c0.1-0.3,0.4-0.5,0.4-0.8c0.1-0.3-0.2-0.5-0.2-0.6c-0.1-0.1-0.1-0.1-0.2,0c-0.2,0.1-0.4,0.2-0.4,0.5
				c-0.1,0.4,0.2,0.5,0.1,0.9c0,0.1-0.1,0.1-0.1,0c0-0.1-0.1-0.6-0.5-0.6c-0.5,0-0.3,0.4-0.2,0.5c0.1,0.2-0.1,0.2-0.1,0.2
				c0,0.1,0.1,0.2,0.2,0.2c0.2,0,0.2-0.2,0.2-0.3c-0.1-0.1,0.1-0.2,0.1-0.2c0.1,0,0.2,0.1,0.2,0.2c0.1,0.3-0.1,0.4-0.2,0.5
				c-0.2,0.2-0.6,0.2-0.8,0.2c-0.7-0.1-0.7-0.5-0.7-0.5c0.2,0.1,0.5,0.2,0.5,0.2s0,0,0.1,0s0.1-0.1,0.1-0.1v-0.6
				c0-0.1-0.1-0.1-0.1-0.1h-0.1l-0.5,0.2l0.2-0.4v-0.1c0-0.1-0.1-0.1-0.1-0.1H43h-0.4c-0.1,0-0.1,0.1-0.1,0.1v0.1l0.2,0.4l-0.5-0.2
				h-0.1c-0.1,0-0.1,0.1-0.1,0.1v0.6c0,0.1,0.1,0.1,0.1,0.1c0,0,0,0,0.1,0c0,0,0.3-0.1,0.5-0.2c0,0-0.1,0.4-0.7,0.5
				c-0.2,0-0.5,0.1-0.8-0.2C41,58,40.9,57.8,41,57.6c0-0.1,0.1-0.2,0.2-0.2s0.2,0.1,0.1,0.2c-0.1,0.1,0.1,0.2,0.2,0.3
				c0.2,0,0.2-0.1,0.2-0.2c0,0-0.2-0.1-0.1-0.2c0.1-0.2,0.2-0.5-0.2-0.5c-0.4,0-0.5,0.5-0.5,0.6c0,0.1-0.1,0.1-0.1,0
				c-0.1-0.3,0.2-0.5,0.1-0.9c-0.1-0.3-0.3-0.4-0.4-0.5c-0.1,0-0.2,0-0.2,0c-0.1,0.1-0.3,0.3-0.2,0.6c0.1,0.4,0.4,0.5,0.4,0.8
				c0,0.1-0.1,0.1-0.1,0.1c-0.1-0.1-0.3-0.5-0.6-0.4c-0.4,0.2-0.2,0.5,0,0.6c0.2,0.2,0,0.2,0,0.3s0.1,0.1,0.2,0.1
				c0.2-0.1,0.2-0.2,0.1-0.3c-0.1-0.1,0-0.2,0-0.2c0.1-0.1,0.2,0.1,0.2,0.1c0.2,0.2,0.1,0.4,0.1,0.5c-0.2,0.3-0.4,0.3-0.6,0.4
				c-0.5,0.2-0.8-0.1-1-0.4l0,0l0,0l0,0c-0.3-0.4-1-1.4-1-2.3s0.8-1.6,1.8-1.6c0.5,0,0.9,0.2,1.3,0.3c0.5,0.2,0.9,0.3,1.3,0.3v-0.9
				c0-0.1,0.1-0.2,0.2-0.2c0.1,0,0.2,0.1,0.2,0.2v2.4h1.2v-2.4c0-0.1,0.1-0.2,0.2-0.2s0.2,0.1,0.2,0.2v0.9c0.5,0.1,0.8-0.1,1.4-0.3
				c0.4-0.2,0.8-0.3,1.3-0.3C47.6,54.5,48.3,55.2,48.3,56.1z M43,62.1c2,0,3.1-0.4,3.1-0.6S45,61,43,61s-3.1,0.4-3.1,0.6
				S40.9,62.1,43,62.1z M42.1,55.4c-0.1,0-0.2,0-0.3,0c0.1,0.1,0.2,0.1,0.3,0.2V55.4z M47.9,56.8c0.1-0.2,0.2-0.5,0.2-0.7
				c0-0.7-0.6-1.2-1.5-1.2c-0.4,0-0.8,0.2-1.2,0.3c-0.2,0.1-0.3,0.2-0.5,0.2c0.1,0,0.1,0,0.2,0c0.5,0,1.1,0.2,1.4,0.5
				c0.6,0,1,0.2,1.3,0.5C47.7,56.5,47.8,56.6,47.9,56.8z M43.9,55.4v0.2c0.1-0.1,0.2-0.2,0.3-0.2C44.1,55.4,44,55.4,43.9,55.4z
				 M47.4,56.5c-0.2-0.3-0.6-0.4-1.2-0.4c-0.1,0-0.1,0-0.2-0.1c-0.2-0.2-0.6-0.4-1.2-0.5c-0.3,0-0.8,0.1-1.1,0.4l0,0v0.4
				c0.2-0.2,0.3-0.3,0.5-0.4c0.1-0.1,0.2-0.1,0.3-0.1c0.1,0,0.2,0.1,0.2,0.1c0,0.1-0.3,0.2-0.5,0.3c-0.2,0.2-0.3,0.3-0.4,0.4
				c0.2-0.1,0.2,0.1,0.2,0.1c0.1-0.1,0.2-0.2,0.5-0.2c0.1,0,0.1,0,0.1,0c0-0.1,0-0.1,0-0.1c0.1-0.5,0.5-0.7,0.8-0.7
				c0.2-0.1,0.3,0.1,0.3,0.1c0.2,0.2,0.5,0.4,0.5,0.8c0,0.1,0,0.1,0,0.2V57c0.1,0,0.1,0,0.1,0.1c0.3,0.2,0.4,0.4,0.4,0.5v0.1
				c0,0.2-0.2,0.4-0.2,0.5l0,0c0,0.1,0,0.1,0,0.1c0,0.1-0.1,0.2-0.2,0.3h0.1c0.2-0.1,0.4-0.2,0.5-0.6c0.2-0.7-0.6-1.2-0.5-1.4
				c0.1-0.1,0.2,0,0.2,0c0.4,0.2,0.8,0.6,0.7,1.2c0.1-0.1,0.1-0.2,0.2-0.3l0,0C47.6,57.3,47.6,56.8,47.4,56.5z M41.1,55.3
				c-0.2-0.1-0.3-0.1-0.5-0.2c-0.4-0.2-0.8-0.3-1.2-0.3c-0.8,0-1.5,0.5-1.5,1.2c0,0.2,0.1,0.5,0.2,0.7c0.1-0.2,0.1-0.3,0.2-0.5
				c0.3-0.4,0.7-0.5,1.3-0.5C39.9,55.6,40.5,55.4,41.1,55.3C41,55.3,41.1,55.3,41.1,55.3z M43.3,59.4c0,0.2-0.2,0.3-0.3,0.3
				c-0.1,0-0.3-0.2-0.3-0.3c0-0.2,0.2-0.3,0.3-0.3C43.1,59.1,43.3,59.3,43.3,59.4z M42.1,56.1L42.1,56.1c-0.3-0.4-0.8-0.4-1.1-0.4
				c-0.5,0-1,0.2-1.2,0.5c-0.1,0.1-0.1,0.1-0.2,0.1c-0.5,0-0.9,0.2-1.2,0.4c-0.2,0.3-0.2,0.7-0.2,0.9l0,0c0.1,0.1,0.1,0.2,0.2,0.3
				c-0.1-0.6,0.3-1,0.7-1.2c0,0,0.2-0.1,0.2,0c0.1,0.2-0.7,0.7-0.5,1.4c0.2,0.4,0.4,0.6,0.5,0.6h0.1c-0.1-0.1-0.2-0.2-0.2-0.3
				c0-0.1,0-0.1,0-0.1l0,0c-0.1-0.1-0.2-0.3-0.2-0.5v-0.1c0-0.2,0.1-0.4,0.4-0.5c0.1,0,0.1-0.1,0.1-0.1v-0.1c0-0.1,0-0.1,0-0.2
				c0-0.4,0.3-0.7,0.5-0.8c0,0,0.2-0.1,0.3-0.1c0.2,0.1,0.7,0.3,0.8,0.7c0,0.1,0,0.1,0,0.1c0.1,0,0.1,0,0.2,0c0.2,0,0.4,0.1,0.5,0.2
				c0-0.1,0.1-0.2,0.2-0.1c-0.1-0.2-0.2-0.3-0.4-0.4c-0.2-0.2-0.5-0.3-0.5-0.3s0.1-0.1,0.2-0.1c0.2,0,0.3,0.1,0.3,0.1
				c0.2,0.1,0.4,0.2,0.5,0.4C42.1,56.4,42.1,56.1,42.1,56.1z"/>
			<g>
				<path class="st1" d="M57.9,51.5H28.3v15c0,4.4,1.2,8.2,2.9,11.4c-0.5,0.2-0.9,0.6-1.4,1.5l-0.6,1.2l-0.4,0.8
					c-0.2,0.3-0.4,0.8-0.4,1.6c0,1,0.4,1.9,1.2,2.9c1.3,1.6,3.8,3.3,7,4.5c0,0,0.3,0.1,0.5,0.2c-0.2,0.2-0.5,0.5-0.5,0.5l-0.2,0.2
					l-0.2,0.2l-0.1,0.1c-0.3,0.4-0.5,0.8-0.5,1.4v2.7c0,1.2,1.2,1.8,3.3,1.8h8.2c2.1,0,3.3-0.7,3.3-1.8v-2.6c0-0.6-0.2-1-0.5-1.4
					l-0.1-0.1c-0.1-0.1-0.2-0.2-0.2-0.2l0,0c0,0-0.5-0.5-0.8-0.6c0.2-0.1,0.5-0.2,0.5-0.2c3.1-1.2,5.8-2.9,7-4.5
					c0.8-0.9,1.2-1.9,1.2-2.9c0-0.7-0.2-1.2-0.4-1.6l-0.4-0.8l-0.5-1.2c-0.3-0.6-0.8-1.1-1.4-1.4c1.8-3.2,3-7.1,3-11.5
					C57.9,66.5,57.9,51.5,57.9,51.5z M55.9,79.5l0.5,1.2l0.4,0.8c0.2,0.3,0.3,0.8,0.3,1.4c0,0.9-0.4,1.8-1.1,2.7
					c-1.2,1.5-3.8,3.1-6.8,4.4l-1,0.4l1.2,1l0.2,0.2l0.1,0.1c0.3,0.3,0.4,0.6,0.4,1.2v2.7c0,0.9-1.1,1.5-2.9,1.5h-8.3
					c-1.8,0-2.9-0.5-2.9-1.5v-2.8c0-0.5,0.2-0.8,0.4-1.2l0.1-0.1l0.2-0.2l0.2-0.2l0.9-0.8l-1-0.4c-3.1-1.2-5.6-2.8-6.8-4.4
					c-0.7-0.9-1.1-1.8-1.1-2.7c0-0.6,0.2-1.2,0.3-1.4l0.4-0.8l0.5-1.2c0.4-0.8,0.8-1.2,1.2-1.3c0.1,0.1,0.1,0.2,0.2,0.3
					c-0.2,0.2-0.5,0.3-0.6,0.6c-0.2,0.3-0.3,0.7-0.3,1.1c0,0.4,0.1,0.8,0.2,1.2l0.2,0.6c0,0,0.9-1.4,1.2-1.8
					c0.1,0.1,0.1,0.2,0.1,0.2c0.1,0.3,0.3,0.5,0.6,0.6C32.9,81,32.9,81,33,81c0.2,0.3,0.5,0.6,0.7,0.9c-0.5,0.7-1.2,1.6-1.2,1.6
					l0.2,0.2c0.9,0.8,1.8,1.3,2,1.4c0.7,0.4,1.4,0.7,2,1c0.6,0.3,1.2,0.5,1.7,0.8c0.4,0.3,0.8,0.6,1.2,0.9c0.4,0.5,0.6,0.9,0.6,1.6
					v1.9c0,0.6-0.2,0.9-0.4,1.2l-0.5,0.5h6.9l-0.5-0.5c-0.2-0.2-0.4-0.5-0.4-1.2v-2c0-0.6,0.2-1.1,0.5-1.5c0.5-0.4,1-0.8,1.5-1.2
					c0.5-0.3,0.9-0.5,1.5-0.7c0.6-0.3,1.3-0.6,2-1c0.6-0.4,1.4-0.8,2-1.4l0.2-0.2c0,0-0.6-0.9-1.1-1.6c0.2-0.3,0.5-0.6,0.7-0.9
					c0.1,0,0.1,0,0.1,0c0.3-0.2,0.5-0.4,0.6-0.6c0,0,0.1-0.1,0.1-0.2c0.3,0.4,1.2,1.8,1.2,1.8l0.2-0.6c0.2-0.4,0.2-0.8,0.2-1.2
					c0-0.4-0.1-0.8-0.3-1.1c-0.2-0.2-0.4-0.4-0.6-0.5c0.1-0.1,0.1-0.2,0.2-0.2C55.2,78.5,55.6,78.9,55.9,79.5z M34.1,82.1
					c1.2,1.5,2.5,2.8,3.6,3.8c-0.2-0.1-0.4-0.2-0.5-0.2c-0.6-0.3-1.3-0.6-2-1c-0.2-0.2-1.1-0.6-2-1.4C33.3,83.3,33.7,82.7,34.1,82.1
					z M45.7,92.9c-0.6,0-4.8,0-5.4,0c0.2-0.3,0.5-0.7,0.5-1.4v-1.9c0-0.4-0.1-0.8-0.2-1.1c1.2,0.8,2,1.4,2,1.4l0.4,0.2l0.4-0.2
					c0.1,0,0.8-0.5,1.9-1.3c-0.1,0.3-0.2,0.6-0.2,1v1.9C45.2,92.2,45.4,92.6,45.7,92.9z M48.5,86c1.2-1,2.4-2.3,3.5-3.8l0.8,1.2
					c-0.6,0.5-1.4,1-2,1.4c-0.6,0.4-1.3,0.7-1.9,0.9C48.7,85.9,48.6,85.9,48.5,86z M51.8,81.9c-1.5,1.8-3.1,3.4-4.5,4.6l-1.6,1.3
					c-1.4,1.1-2.4,1.6-2.5,1.7c0,0-0.2,0.1-0.2,0.2c-0.1-0.1-0.2-0.2-0.2-0.2c-0.1,0-1.2-0.6-2.7-1.8l-1.3-1
					c-1.5-1.2-3.1-2.8-4.7-4.8L34,81.7c-0.2-0.2-0.3-0.4-0.4-0.5l-0.2-0.3c-0.5-0.7-0.9-1.4-1.4-2.1l-0.2-0.3
					c-0.1-0.1-0.1-0.2-0.2-0.3l-0.2-0.3c-1.7-3.1-2.9-6.9-2.9-11.3c0,0,0-14.3,0-14.6c0.3,0,28.6,0,28.9,0c0,0.3,0,14.6,0,14.6
					c0,4.4-1.2,8.2-3,11.3l-0.2,0.3c-0.1,0.1-0.1,0.2-0.2,0.2L54,78.7c-0.2,0.2-0.3,0.5-0.5,0.7l-0.1,0.2c-0.3,0.4-0.5,0.8-0.8,1.2
					l-0.3,0.4c-0.2,0.2-0.3,0.4-0.5,0.6L51.8,81.9z"/>
			</g>
			<path class="st1" d="M34.4,38.4c-0.1,0.1-0.2,0.2-0.2,0.2c-0.1,0-0.2-0.2-0.2-0.3c0-0.1,0.7-0.3,0.7-0.3c0.1,0.1-0.1,0.3-0.1,0.3
				S34.5,38.3,34.4,38.4z"/>
			<path class="st1" d="M37.1,33.8l0.1-0.1c0.1,0.2,0.4,0.5,0.4,0.5s-0.1,0.3-0.1,0.4c-0.1,0.1-0.1,0-0.1,0s-0.1-0.5-0.1-0.4
				C37.4,34.2,37.3,34,37.1,33.8z"/>
			<path class="st1" d="M42.4,31c0-0.2,0-0.4,0-0.4s0.3,0.5,0.3,0.6c0,0.1-0.2,0.2-0.2,0.2c-0.1,0.1-0.2,0.2-0.2,0.2l-0.1-0.2
				C42.3,31.5,42.4,31.1,42.4,31z"/>
			<path class="st1" d="M38.2,32.7c0.1,0.1,0.6,0.2,0.7,0.2c0,0.1,0.1,0.2-0.1,0.2c-0.2,0.1-0.2-0.2-0.4-0.3
				C38.4,32.8,38.2,32.8,38.2,32.7C38.2,32.8,38.1,32.7,38.2,32.7"/>
			<path class="st1" d="M48.1,32.3c-0.1,0.1-0.3,0.4-0.3,0.5c0,0.1,0.2,0,0.2,0s0.4-0.4,0.5-0.4C48.5,32.3,48.1,32.3,48.1,32.3z"/>
		</g>
	</g>
</g>
</svg>
