<?xml version="1.0" encoding="utf-8"?>
<!-- Generator: Adobe Illustrator 26.0.2, SVG Export Plug-In . SVG Version: 6.00 Build 0)  -->
<svg version="1.1" id="Layer_1" xmlns="http://www.w3.org/2000/svg" xmlns:xlink="http://www.w3.org/1999/xlink" x="0px" y="0px"
	 width="313px" height="130px" viewBox="0 0 313 130" style="enable-background:new 0 0 313 130;" xml:space="preserve">
<style type="text/css">
	.st0{clip-path:url(#SVGID_00000178916892424435582270000009864920816007683252_);fill:#FFFFFF;}
	.st1{clip-path:url(#SVGID_00000083788358406611510190000007384934845569391005_);fill:#FFFFFF;}
	.st2{clip-path:url(#SVGID_00000030447050943716602650000008564160605894138549_);fill:#FFFFFF;}
	.st3{clip-path:url(#SVGID_00000115515850381836856050000017968899534180904353_);fill:#FFFFFF;}
	.st4{clip-path:url(#SVGID_00000089564177827137507950000001654603788617028795_);fill:#FFFFFF;}
	.st5{clip-path:url(#SVGID_00000122688170482847097990000002533359759703680651_);fill:#FFFFFF;}
	.st6{clip-path:url(#SVGID_00000124867833096940386420000006190962321297954448_);fill:#FFFFFF;}
	.st7{clip-path:url(#SVGID_00000072278230498588763220000005909215057258585750_);fill:#FFFFFF;}
	.st8{clip-path:url(#SVGID_00000160185596585366314160000017567866180841076915_);fill:#FFFFFF;}
	.st9{clip-path:url(#SVGID_00000037666952913232278690000015441554759621639567_);fill:#FFFFFF;}
	.st10{clip-path:url(#SVGID_00000177486698842521743200000002056404582686935681_);fill:#FFFFFF;}
	.st11{clip-path:url(#SVGID_00000159431068327790668290000006777966276575492241_);fill:#FFFFFF;}
	.st12{clip-path:url(#SVGID_00000116926758796384114440000018230187630967617454_);fill:#FFFFFF;}
	.st13{clip-path:url(#SVGID_00000178906359601617975040000016606734812682422705_);fill:#FFFFFF;}
	.st14{clip-path:url(#SVGID_00000060029180649432591690000013940467130578651286_);fill:#FFFFFF;}
	.st15{clip-path:url(#SVGID_00000065042271465664868520000002262830722296748699_);fill:#FFFFFF;}
	.st16{clip-path:url(#SVGID_00000007402567006822684820000000534404004552907946_);fill:#FFFFFF;}
	.st17{clip-path:url(#SVGID_00000089537651787875078560000012890369427167651251_);fill:#FFFFFF;}
	.st18{clip-path:url(#SVGID_00000096778773445770575240000010257657684097694123_);fill:#FFFFFF;}
	.st19{clip-path:url(#SVGID_00000173157590254776584320000004315982084150835603_);fill:#FFFFFF;}
	.st20{clip-path:url(#SVGID_00000135663909954009475790000005609760330120034998_);fill:#FFFFFF;}
	.st21{clip-path:url(#SVGID_00000002377730339929690290000005503501587673940927_);fill:#FFFFFF;}
	.st22{clip-path:url(#SVGID_00000125574659473132694370000013864746196539695800_);fill:#FFFFFF;}
	.st23{clip-path:url(#SVGID_00000166664383498938014580000002645409907748549546_);fill:#FFFFFF;}
	.st24{clip-path:url(#SVGID_00000034781541406678932450000010364938459841145231_);fill:#FFFFFF;}
	.st25{clip-path:url(#SVGID_00000143591641288592531330000009310351626635125435_);fill:#FFFFFF;}
</style>
<g>
	<g>
		<defs>
			<rect id="SVGID_1_" y="0" width="313" height="130"/>
		</defs>
		<clipPath id="SVGID_00000054961492533432216790000017479859947777148557_">
			<use xlink:href="#SVGID_1_"  style="overflow:visible;"/>
		</clipPath>
		<path style="clip-path:url(#SVGID_00000054961492533432216790000017479859947777148557_);fill:#FFFFFF;" d="M122.9,77.7
			c0-0.8,0-2.2-0.2-2.6c-0.1-0.2-0.3-0.2-0.6-0.3l-0.3,0c-0.1-0.1-0.1-0.2,0-0.3c0.5,0,0.9,0,1.4,0c0.5,0,0.9,0,1.3,0
			c0.1,0.1,0.1,0.2,0,0.3l-0.3,0c-0.3,0-0.5,0.1-0.6,0.3c-0.2,0.4-0.2,1.8-0.2,2.5v1.4c0,1.1-0.2,2.2-0.9,3
			c-0.5,0.6-1.5,0.9-2.4,0.9c-0.9,0-1.7-0.2-2.3-0.7c-0.7-0.5-1-1.4-1-2.9v-2.9c0-1.3,0-1.5-0.7-1.6l-0.3,0c-0.1-0.1-0.1-0.3,0-0.3
			c0.6,0,1,0,1.5,0c0.5,0,0.9,0,1.5,0c0.1,0,0.1,0.2,0,0.3l-0.3,0c-0.7,0.1-0.7,0.3-0.7,1.6v2.7c0,2,0.6,3.3,2.5,3.3
			c1.8,0,2.5-1.4,2.5-3.3V77.7z"/>
	</g>
	<g>
		<defs>
			<rect id="SVGID_00000113346289350903295620000018031364190382190213_" y="0" width="313" height="130"/>
		</defs>
		<clipPath id="SVGID_00000126305228089453186880000000222942812134085300_">
			<use xlink:href="#SVGID_00000113346289350903295620000018031364190382190213_"  style="overflow:visible;"/>
		</clipPath>
		<path style="clip-path:url(#SVGID_00000126305228089453186880000000222942812134085300_);fill:#FFFFFF;" d="M139.1,80.6
			c0,0.4,0,1.8,0,2.2c0,0.1-0.1,0.1-0.2,0.1c-0.1-0.2-0.5-0.6-1.6-1.9l-2.9-3.3c-0.3-0.4-1.2-1.4-1.4-1.7h0c0,0.1-0.1,0.4-0.1,0.8
			v2.7c0,0.6,0,2.2,0.2,2.6c0.1,0.1,0.3,0.2,0.6,0.2l0.4,0c0.1,0.1,0.1,0.2,0,0.3c-0.6,0-1,0-1.4,0c-0.5,0-0.9,0-1.3,0
			c-0.1-0.1-0.1-0.2,0-0.3l0.3,0c0.3,0,0.5-0.1,0.5-0.2c0.2-0.4,0.2-2,0.2-2.6v-3.6c0-0.3,0-0.6-0.3-0.9c-0.2-0.2-0.5-0.3-0.8-0.3
			l-0.2,0c-0.1-0.1-0.1-0.3,0-0.3c0.5,0,1.2,0,1.4,0c0.2,0,0.4,0,0.6,0c0.2,0.6,1.7,2.3,2.1,2.7l1.2,1.4c0.9,1,1.5,1.6,2,2.2h0
			c0.1-0.1,0.1-0.3,0.1-0.5v-2.7c0-0.6,0-2.2-0.2-2.6c-0.1-0.1-0.3-0.2-0.8-0.2l-0.2,0c-0.1-0.1-0.1-0.3,0-0.3c0.6,0,1,0,1.5,0
			c0.5,0,0.9,0,1.3,0c0.1,0.1,0.1,0.2,0,0.3l-0.2,0c-0.4,0.1-0.6,0.2-0.7,0.3c-0.2,0.4-0.2,2-0.2,2.6L139.1,80.6L139.1,80.6z"/>
	</g>
	<g>
		<defs>
			<rect id="SVGID_00000106841853300670738950000009325361685306282156_" y="0" width="313" height="130"/>
		</defs>
		<clipPath id="SVGID_00000041979508916135182040000009573898658739128239_">
			<use xlink:href="#SVGID_00000106841853300670738950000009325361685306282156_"  style="overflow:visible;"/>
		</clipPath>
		<path style="clip-path:url(#SVGID_00000041979508916135182040000009573898658739128239_);fill:#FFFFFF;" d="M148.3,76.5
			c0-1.3,0-1.5-0.8-1.6l-0.3,0c-0.1-0.1,0-0.3,0-0.3c0.6,0,1,0,1.6,0c0.5,0,0.9,0,1.5,0c0.1,0,0.1,0.3,0,0.3l-0.3,0
			c-0.7,0.1-0.8,0.3-0.8,1.6v4.4c0,1.3,0,1.5,0.8,1.6l0.3,0c0.1,0,0,0.3,0,0.3c-0.6,0-1,0-1.5,0c-0.5,0-0.9,0-1.6,0
			c-0.1,0-0.1-0.2,0-0.3l0.3,0c0.7-0.1,0.8-0.3,0.8-1.6V76.5z"/>
	</g>
	<g>
		<defs>
			<rect id="SVGID_00000121990838260963803980000013572447600420271747_" y="0" width="313" height="130"/>
		</defs>
		<clipPath id="SVGID_00000010304783858825685790000016847802568113410964_">
			<use xlink:href="#SVGID_00000121990838260963803980000013572447600420271747_"  style="overflow:visible;"/>
		</clipPath>
		<path style="clip-path:url(#SVGID_00000010304783858825685790000016847802568113410964_);fill:#FFFFFF;" d="M158.3,75.9
			c-0.3-0.7-0.5-1-1-1l-0.2,0c-0.1-0.1-0.1-0.2,0-0.3c0.4,0,0.8,0,1.3,0c0.5,0,1,0,1.5,0c0.1,0.1,0.1,0.2,0,0.3l-0.2,0
			c-0.5,0.1-0.6,0.1-0.6,0.2c0,0.1,0.2,0.8,0.6,1.7c0.6,1.4,1.1,2.9,1.8,4.3c0.4-0.8,0.9-2.1,1.2-2.8c0.4-0.8,0.9-2.2,1.2-2.8
			c0.1-0.3,0.1-0.4,0.1-0.5c0-0.1-0.1-0.2-0.6-0.2l-0.2,0c-0.1-0.1-0.1-0.3,0-0.3c0.3,0,0.8,0,1.3,0c0.4,0,0.8,0,1.2,0
			c0.1,0.1,0.1,0.2,0,0.3l-0.4,0c-0.3,0-0.5,0.2-0.6,0.4c-0.3,0.6-0.8,1.6-1.4,2.8l-0.7,1.5c-0.5,1.1-1.1,2.6-1.3,3.2
			c0,0-0.1,0-0.1,0c-0.1,0-0.1,0-0.2,0c-0.1-0.5-0.4-1.1-0.6-1.6L158.3,75.9z"/>
	</g>
	<g>
		<defs>
			<rect id="SVGID_00000181070536440845692730000000460119427986063259_" y="0" width="313" height="130"/>
		</defs>
		<clipPath id="SVGID_00000044880450790386507160000007287819280191853741_">
			<use xlink:href="#SVGID_00000181070536440845692730000000460119427986063259_"  style="overflow:visible;"/>
		</clipPath>
		<path style="clip-path:url(#SVGID_00000044880450790386507160000007287819280191853741_);fill:#FFFFFF;" d="M173.2,76.4
			c0-1.3,0-1.5-0.8-1.6l-0.2,0c-0.1-0.1,0-0.3,0-0.3c0.5,0,1,0,1.5,0h2.3c0.8,0,1.5,0,1.7,0c0.1,0.2,0.1,1.1,0.2,1.7
			c-0.1,0.1-0.2,0.1-0.3,0c-0.2-0.6-0.3-1-0.9-1.2c-0.3-0.1-0.7-0.1-1.2-0.1h-0.9c-0.4,0-0.4,0-0.4,0.5v2.5c0,0.3,0,0.3,0.4,0.3h0.7
			c0.5,0,0.9,0,1.1-0.1c0.2-0.1,0.2-0.1,0.3-0.4l0.1-0.5c0.1-0.1,0.3-0.1,0.3,0c0,0.3-0.1,0.8-0.1,1.3c0,0.4,0.1,0.9,0.1,1.2
			c-0.1,0.1-0.3,0.1-0.3,0l-0.1-0.5c0-0.2-0.1-0.4-0.4-0.5c-0.2-0.1-0.5-0.1-1-0.1h-0.7c-0.4,0-0.4,0-0.4,0.3v1.7
			c0,0.7,0,1.1,0.2,1.3c0.1,0.1,0.4,0.3,1.5,0.3c1,0,1.3,0,1.6-0.2c0.2-0.1,0.6-0.6,0.9-1.2c0.1-0.1,0.3,0,0.3,0.1
			c-0.1,0.4-0.4,1.4-0.6,1.7c-1.1,0-2.2,0-3.3,0h-1.1c-0.5,0-1,0-1.7,0c-0.1,0-0.1-0.2,0-0.3l0.4,0c0.7-0.1,0.8-0.2,0.8-1.5
			L173.2,76.4L173.2,76.4z"/>
	</g>
	<g>
		<defs>
			<rect id="SVGID_00000041999219430886478710000002586215472538667659_" y="0" width="313" height="130"/>
		</defs>
		<clipPath id="SVGID_00000147921170586914269350000013610783979712370828_">
			<use xlink:href="#SVGID_00000041999219430886478710000002586215472538667659_"  style="overflow:visible;"/>
		</clipPath>
		<path style="clip-path:url(#SVGID_00000147921170586914269350000013610783979712370828_);fill:#FFFFFF;" d="M186.7,76.4
			c0-1.2,0-1.4-0.5-1.5l-0.4,0c-0.1-0.1-0.1-0.3,0-0.3c0.7-0.1,1.5-0.1,2.8-0.1c0.8,0,1.5,0.1,2.1,0.4c0.6,0.3,1,0.9,1,1.7
			c0,1.2-0.9,1.8-1.5,2.1c-0.1,0.1,0,0.2,0.1,0.3c1,1.6,1.6,2.6,2.5,3.3c0.2,0.2,0.5,0.3,0.9,0.3c0.1,0,0.1,0.1,0,0.2
			c-0.1,0-0.3,0.1-0.5,0.1c-1.1,0-1.7-0.3-2.6-1.6c-0.3-0.5-0.8-1.3-1.2-1.9c-0.2-0.3-0.4-0.4-0.9-0.4c-0.6,0-0.6,0-0.6,0.3v1.6
			c0,1.3,0,1.4,0.7,1.5l0.3,0c0.1,0.1,0.1,0.3,0,0.3c-0.6,0-1,0-1.5,0c-0.5,0-1,0-1.5,0c-0.1,0-0.1-0.2,0-0.3l0.3,0
			c0.7-0.1,0.7-0.2,0.7-1.5L186.7,76.4L186.7,76.4z M187.7,78.2c0,0.2,0,0.4,0,0.4c0,0,0.2,0.1,0.9,0.1c0.4,0,0.9,0,1.3-0.3
			c0.3-0.3,0.6-0.7,0.6-1.5c0-1-0.6-1.9-2-1.9c-0.8,0-0.8,0-0.8,0.4L187.7,78.2L187.7,78.2z"/>
	</g>
	<g>
		<defs>
			<rect id="SVGID_00000048472366380953776740000001973944251541260723_" y="0" width="313" height="130"/>
		</defs>
		<clipPath id="SVGID_00000012463785263093259680000007299508197431606955_">
			<use xlink:href="#SVGID_00000048472366380953776740000001973944251541260723_"  style="overflow:visible;"/>
		</clipPath>
		<path style="clip-path:url(#SVGID_00000012463785263093259680000007299508197431606955_);fill:#FFFFFF;" d="M201.6,82.9
			c-1,0-1.7-0.3-1.9-0.5c-0.1-0.3-0.3-1.2-0.3-1.7c0.1-0.1,0.2-0.1,0.3,0c0.2,0.6,0.7,1.8,2.1,1.8c1,0,1.6-0.7,1.6-1.4
			c0-0.5-0.1-1.2-1-1.7l-1.2-0.8c-0.6-0.4-1.3-1.1-1.3-2.1c0-1.2,0.9-2.1,2.5-2.1c0.4,0,0.8,0.1,1.2,0.2c0.2,0.1,0.3,0.1,0.4,0.1
			c0.1,0.3,0.2,1,0.2,1.5c0,0.1-0.2,0.1-0.3,0c-0.2-0.6-0.5-1.4-1.7-1.4c-1.2,0-1.5,0.8-1.5,1.4c0,0.7,0.6,1.2,1.1,1.5l1,0.6
			c0.8,0.5,1.5,1.2,1.5,2.4C204.3,82,203.3,82.9,201.6,82.9"/>
	</g>
	<g>
		<defs>
			<rect id="SVGID_00000085947522118274647080000017532574738554853038_" y="0" width="313" height="130"/>
		</defs>
		<clipPath id="SVGID_00000092436597282092865980000006994093584690481838_">
			<use xlink:href="#SVGID_00000085947522118274647080000017532574738554853038_"  style="overflow:visible;"/>
		</clipPath>
		<path style="clip-path:url(#SVGID_00000092436597282092865980000006994093584690481838_);fill:#FFFFFF;" d="M212.7,76.5
			c0-1.3,0-1.5-0.8-1.6l-0.3,0c-0.1-0.1,0-0.3,0-0.3c0.6,0,1,0,1.6,0c0.5,0,0.9,0,1.5,0c0.1,0,0.1,0.3,0,0.3l-0.3,0
			c-0.7,0.1-0.8,0.3-0.8,1.6v4.4c0,1.3,0,1.5,0.8,1.6l0.3,0c0.1,0,0.1,0.3,0,0.3c-0.6,0-1,0-1.5,0c-0.5,0-0.9,0-1.6,0
			c-0.1,0-0.1-0.2,0-0.3l0.3,0c0.7-0.1,0.8-0.3,0.8-1.6V76.5z"/>
	</g>
	<g>
		<defs>
			<rect id="SVGID_00000083079287486903953340000013191095773700941188_" y="0" width="313" height="130"/>
		</defs>
		<clipPath id="SVGID_00000173850967217904441600000010242932001189390254_">
			<use xlink:href="#SVGID_00000083079287486903953340000013191095773700941188_"  style="overflow:visible;"/>
		</clipPath>
		<path style="clip-path:url(#SVGID_00000173850967217904441600000010242932001189390254_);fill:#FFFFFF;" d="M226.5,80.9
			c0,1.3,0,1.5,0.7,1.5l0.4,0c0.1,0,0,0.3,0,0.3c-0.7,0-1.1,0-1.6,0s-0.9,0-1.7,0c-0.1,0-0.1-0.2,0-0.3l0.4,0
			c0.7-0.1,0.8-0.2,0.8-1.5v-5.5c0-0.4,0-0.4-0.4-0.4h-0.7c-0.5,0-1.2,0-1.5,0.3c-0.3,0.3-0.4,0.5-0.6,0.9c-0.1,0.1-0.3,0-0.3-0.1
			c0.2-0.6,0.4-1.4,0.5-1.8c0,0,0.2,0,0.2,0c0.1,0.4,0.5,0.4,1.1,0.4h5c0.7,0,0.8,0,1-0.3c0.1,0,0.2,0,0.2,0
			c-0.1,0.5-0.2,1.5-0.2,1.9c0,0.1-0.3,0.1-0.3,0c0-0.3-0.1-0.8-0.3-0.9c-0.3-0.2-0.8-0.3-1.4-0.3h-0.9c-0.4,0-0.4,0-0.4,0.4V80.9z"
			/>
	</g>
	<g>
		<defs>
			<rect id="SVGID_00000183232792099485369780000011723379721609053359_" y="0" width="313" height="130"/>
		</defs>
		<clipPath id="SVGID_00000137839638760914682300000009410953070776075183_">
			<use xlink:href="#SVGID_00000183232792099485369780000011723379721609053359_"  style="overflow:visible;"/>
		</clipPath>
		<path style="clip-path:url(#SVGID_00000137839638760914682300000009410953070776075183_);fill:#FFFFFF;" d="M240.6,80.9
			c0,1.3,0.1,1.5,0.7,1.6l0.5,0c0.1,0.1,0,0.3,0,0.3c-0.8,0-1.2,0-1.7,0c-0.5,0-1,0-1.6,0c-0.1,0-0.1-0.2,0-0.3l0.4,0
			c0.7-0.1,0.7-0.2,0.7-1.6v-0.6c0-0.7,0-0.8-0.4-1.5l-1.5-2.9c-0.4-0.8-0.6-0.9-1-0.9l-0.3-0.1c-0.1-0.1-0.1-0.3,0-0.3
			c0.4,0,0.8,0,1.4,0c0.6,0,1,0,1.3,0c0.1,0,0.1,0.2,0,0.3l-0.2,0c-0.4,0.1-0.5,0.1-0.5,0.2c0,0.1,0.3,0.8,0.4,1
			c0.5,0.9,0.9,1.9,1.4,2.8c0.4-0.7,0.8-1.4,1.2-2.1c0.3-0.6,0.8-1.5,0.8-1.6c0-0.1-0.2-0.2-0.5-0.2l-0.2,0c-0.1-0.1-0.1-0.3,0-0.3
			c0.4,0,0.8,0,1.2,0c0.4,0,0.7,0,1.2,0c0.1,0.1,0.1,0.2,0,0.3l-0.3,0.1c-0.6,0.1-1,0.9-1.6,2l-0.8,1.3c-0.5,0.9-0.6,1.1-0.6,2V80.9
			z"/>
	</g>
</g>
<g>
	<g>
		<defs>
			<rect id="SVGID_00000178202371343862458730000003149853784377683856_" x="43.3" y="43.4" width="40.3" height="43.4"/>
		</defs>
		<clipPath id="SVGID_00000035531032699122499880000002250470565800714636_">
			<use xlink:href="#SVGID_00000178202371343862458730000003149853784377683856_"  style="overflow:visible;"/>
		</clipPath>
		<path style="clip-path:url(#SVGID_00000035531032699122499880000002250470565800714636_);fill:#FFFFFF;" d="M74.6,47.8
			c0-0.1-2-1-2-1c-2.4-0.5-6.5-0.3-9.3,0.7h0c-2.8-1-6.8-1.3-9.3-0.7c0,0-1.9,1-2,1l-3,6.6c-0.1,0.2,0.1,0.3,0.2,0.3
			c4.5-0.9,9.7-1.1,14-1.1h0c4.3,0,9.5,0.3,14,1.1c0.2,0,0.3-0.1,0.2-0.3L74.6,47.8z M62.7,52.6c-3.2-0.1-8.8-0.1-11.6,0.9l2-5
			l1.4-0.7L53,51.8c2.9-0.5,6.1-0.8,9.7,0.4L62.7,52.6z M64.1,52.6v-0.3c3.6-1.2,6.8-1,9.7-0.4l-1.4-4.1l1.4,0.7l2,5
			C73,52.4,67.4,52.4,64.1,52.6"/>
	</g>
	<g>
		<defs>
			<rect id="SVGID_00000080889102511431014270000004136873603540713101_" x="43.3" y="43.4" width="40.3" height="43.4"/>
		</defs>
		<clipPath id="SVGID_00000070104553852305967910000005083635146719655819_">
			<use xlink:href="#SVGID_00000080889102511431014270000004136873603540713101_"  style="overflow:visible;"/>
		</clipPath>
		<path style="clip-path:url(#SVGID_00000070104553852305967910000005083635146719655819_);fill:#FFFFFF;" d="M81.9,45.4L81.9,45.4
			l-0.1,0c-6-1.3-12.2-1.9-18.3-1.9c-6.2,0-12.3,0.7-18.3,1.9l-0.1,0l-0.1,0c-1,0.2-1.7,1.1-1.7,2.2l0,3.3c0,23.5,14.6,33.1,19,35.5
			c0.4,0.2,0.7,0.3,1.1,0.3c0.4,0,0.7-0.1,1.1-0.3c4.5-2.4,19-11.9,19-35.5v-3.3C83.5,46.5,82.8,45.6,81.9,45.4 M62.6,84.9
			c-4.9-2.7-14.8-10.4-17.4-26.2l0.1,0c5.6-1.2,11.4-1.8,17.2-1.9C62.6,56.8,62.6,84.9,62.6,84.9z M78.2,69.8
			C78.1,69.8,78.1,69.8,78.2,69.8c-1.1,2.2-2.2,4.1-3.5,5.8c0,0,0,0,0,0c-1.1,1.5-2.3,2.9-3.5,4v-6.4l-3.5-2.3v11.7
			c-1.3,1-2.5,1.7-3.5,2.3V68.6l3.5,2.3v-8.1l3.5,2.3v-8c1.2,0.1,2.3,0.2,3.5,0.4v9.9L78.2,69.8l0-11.7c1.1,0.2,2.2,0.4,3.3,0.6
			l0.1,0C80.9,63,79.7,66.6,78.2,69.8 M64.2,60.5v-3.7c1.2,0,2.3,0,3.5,0.1v5.9L64.2,60.5z M82.2,50.8c0,2.1-0.1,4.2-0.4,6.1
			c-12.1-2.6-24.8-2.6-36.9,0c-0.2-1.9-0.4-3.9-0.4-6.1l0-3.3c0-0.4,0.3-0.8,0.7-0.9l0,0c5.8-1.2,11.9-1.9,18.1-1.9
			c6.2,0,12.2,0.7,18,1.9l0,0c0.4,0.1,0.8,0.5,0.8,0.9L82.2,50.8z"/>
	</g>
	<g>
		<defs>
			<rect id="SVGID_00000130619227420658337410000007756798969322733491_" x="43.3" y="43.4" width="40.3" height="43.4"/>
		</defs>
		<clipPath id="SVGID_00000039832683601081870150000003200794288716862618_">
			<use xlink:href="#SVGID_00000130619227420658337410000007756798969322733491_"  style="overflow:visible;"/>
		</clipPath>
		<polygon style="clip-path:url(#SVGID_00000039832683601081870150000003200794288716862618_);fill:#FFFFFF;" points="74.7,67.5 
			71.2,65.1 71.2,73.3 74.7,75.6 		"/>
	</g>
	<g>
		<defs>
			<rect id="SVGID_00000008858603423313522880000015944732120013847440_" x="43.3" y="43.4" width="40.3" height="43.4"/>
		</defs>
		<clipPath id="SVGID_00000073711016419033549070000014822588287780809889_">
			<use xlink:href="#SVGID_00000008858603423313522880000015944732120013847440_"  style="overflow:visible;"/>
		</clipPath>
		<path style="clip-path:url(#SVGID_00000073711016419033549070000014822588287780809889_);fill:#FFFFFF;" d="M55.1,72.6
			c3.5,0,6.4-2.9,6.4-6.4c0-3.5-2.9-6.4-6.4-6.4s-6.4,2.9-6.4,6.4S51.6,72.6,55.1,72.6 M56.3,71.6c0.5-0.5,1.1-1.3,1.5-2.3
			c0.6,0.1,1.1,0.3,1.6,0.5C58.6,70.7,57.5,71.4,56.3,71.6 M59.9,69.1c-0.5-0.2-1.1-0.4-1.8-0.5c0.2-0.6,0.3-1.2,0.4-2h2.2
			C60.6,67.5,60.3,68.4,59.9,69.1 M59.9,63.3c0.5,0.7,0.8,1.6,0.8,2.5h-2.2c0-0.7-0.2-1.4-0.4-2C58.8,63.7,59.4,63.5,59.9,63.3
			 M59.4,62.6c-0.4,0.2-1,0.3-1.6,0.5c-0.4-1-1-1.8-1.5-2.3C57.5,61,58.6,61.7,59.4,62.6 M55.5,61.1c0.4,0.4,1,1.2,1.5,2.1
			c-0.4,0.1-0.9,0.1-1.5,0.1V61.1z M55.5,64.1c0.6,0,1.2-0.1,1.8-0.2c0.2,0.5,0.3,1.2,0.3,1.8h-2.1V64.1z M55.5,66.6h2.1
			c0,0.7-0.2,1.3-0.4,1.8c-0.5-0.1-1.1-0.1-1.8-0.2V66.6z M55.5,69.1c0.5,0,1,0.1,1.5,0.1c-0.4,0.9-1,1.6-1.5,2.1V69.1z M50.9,69.8
			c0.4-0.2,1-0.3,1.6-0.5c0.4,1,1,1.8,1.5,2.3C52.7,71.4,51.7,70.7,50.9,69.8 M54.7,71.3c-0.4-0.4-1-1.2-1.4-2.1
			c0.4-0.1,0.9-0.1,1.4-0.1V71.3z M54.7,68.3c-0.6,0-1.2,0.1-1.8,0.2c-0.2-0.5-0.3-1.2-0.4-1.8h2.1C54.7,66.6,54.7,68.3,54.7,68.3z
			 M54.7,65.8h-2.1c0-0.7,0.2-1.3,0.4-1.8c0.5,0.1,1.1,0.1,1.8,0.2C54.7,64.1,54.7,65.8,54.7,65.8z M54.7,63.3c-0.5,0-1-0.1-1.4-0.1
			c0.4-0.9,1-1.6,1.4-2.1V63.3z M54,60.7c-0.5,0.5-1.1,1.3-1.5,2.3c-0.6-0.1-1.1-0.3-1.6-0.5C51.7,61.7,52.7,61,54,60.7 M50.4,63.3
			c0.5,0.2,1.1,0.4,1.8,0.5c-0.2,0.6-0.3,1.2-0.4,2h-2.2C49.6,64.9,49.9,64,50.4,63.3 M49.6,66.6h2.2c0,0.7,0.2,1.4,0.4,2
			c-0.7,0.2-1.3,0.4-1.8,0.6C49.9,68.4,49.6,67.5,49.6,66.6"/>
	</g>
</g>
<g>
	<g>
		<defs>
			<rect id="SVGID_00000181056048065517727280000009527342076511461798_" x="89.9" y="47.9" width="180" height="24.6"/>
		</defs>
		<clipPath id="SVGID_00000061462139554997253130000012779167552329741241_">
			<use xlink:href="#SVGID_00000181056048065517727280000009527342076511461798_"  style="overflow:visible;"/>
		</clipPath>
		<path style="clip-path:url(#SVGID_00000061462139554997253130000012779167552329741241_);fill:#FFFFFF;" d="M95,52.3
			c0-3.2-0.3-3.5-2-3.6l-0.7-0.1c-0.2-0.1-0.1-0.6,0.1-0.7C94.1,48,95,48,96.2,48c1.1,0,2.1,0,3.2-0.1c0.2,0.1,0.2,0.6,0.1,0.7
			l-0.4,0.1c-1.7,0.2-1.7,0.6-1.7,3.6v10.6c0,2.2-0.1,4.2-0.7,5.5c-0.9,2.3-3,4.1-5.6,4.1c-0.3,0-1.2,0-1.2-0.6c0-0.5,0.4-1.3,1-1.3
			c0.3,0,0.7,0.1,1.1,0.2c0.4,0.1,0.8,0.2,1.2,0.2c0.6,0,0.9-0.3,1.1-0.7c0.7-1.3,0.7-5.6,0.7-7.1V52.3z"/>
	</g>
	<g>
		<defs>
			<rect id="SVGID_00000129180214425866128290000014703989243201912971_" x="89.9" y="47.9" width="180" height="24.6"/>
		</defs>
		<clipPath id="SVGID_00000101812535124130227450000001040649857750556817_">
			<use xlink:href="#SVGID_00000129180214425866128290000014703989243201912971_"  style="overflow:visible;"/>
		</clipPath>
		<path style="clip-path:url(#SVGID_00000101812535124130227450000001040649857750556817_);fill:#FFFFFF;" d="M99.5,59
			c0-4.8,3.6-8.5,8.5-8.5c5.5,0,8.3,4,8.3,8.2c0,4.8-3.7,8.4-8.3,8.4C102.7,67.2,99.5,63.3,99.5,59 M113.9,59.5c0-4-1.8-8.2-6.3-8.2
			c-2.5,0-5.7,1.7-5.7,7c0,3.5,1.7,8.2,6.5,8.2C111.2,66.4,113.9,64.3,113.9,59.5"/>
	</g>
	<g>
		<defs>
			<rect id="SVGID_00000158744138493892411890000002949378220541011878_" x="89.9" y="47.9" width="180" height="24.6"/>
		</defs>
		<clipPath id="SVGID_00000159443268817929773130000017346826119496227968_">
			<use xlink:href="#SVGID_00000158744138493892411890000002949378220541011878_"  style="overflow:visible;"/>
		</clipPath>
		<path style="clip-path:url(#SVGID_00000159443268817929773130000017346826119496227968_);fill:#FFFFFF;" d="M121.8,59
			c-1.2,0-1.2,0-1.2,0.8v3.4c0,2.5,0.1,2.9,1.5,3l0.7,0.1c0.1,0.1,0.1,0.5,0,0.6c-1.3,0-2.1-0.1-3-0.1c-1,0-1.8,0-2.8,0.1
			c-0.1-0.1-0.2-0.5,0-0.6l0.4-0.1c1.3-0.2,1.4-0.5,1.4-3v-8.6c0-2.5-0.2-2.9-1.4-3l-0.6,0c-0.1-0.1-0.1-0.5,0-0.6
			c1.2,0,2,0.1,3,0.1c0.9,0,1.8,0,2.8-0.1c0.1,0.1,0.2,0.5,0,0.6l-0.5,0c-1.4,0.1-1.4,0.5-1.4,3v2.8c0,0.7,0,0.8,1.2,0.8h6.9
			c1.2,0,1.2,0,1.2-0.8v-2.8c0-2.5,0-2.9-1.5-3l-0.5,0c-0.1-0.1-0.1-0.5,0-0.6c1.1,0,1.9,0.1,2.9,0.1c0.9,0,1.8,0,2.8-0.1
			c0.1,0.1,0.2,0.5,0,0.6l-0.5,0c-1.4,0.1-1.4,0.5-1.4,3v8.6c0,2.5,0,2.8,1.4,3l0.6,0.1c0.1,0.1,0.1,0.5,0,0.6c-1.1,0-2-0.1-2.9-0.1
			c-1,0-1.8,0-2.9,0.1c-0.1-0.1-0.2-0.5,0-0.6l0.5-0.1c1.5-0.2,1.5-0.5,1.5-3v-3.4c0-0.7,0-0.8-1.2-0.8H121.8z"/>
	</g>
	<g>
		<defs>
			<rect id="SVGID_00000126312376049790904100000014286514957926017708_" x="89.9" y="47.9" width="180" height="24.6"/>
		</defs>
		<clipPath id="SVGID_00000156554399674381830390000011686399530382043015_">
			<use xlink:href="#SVGID_00000126312376049790904100000014286514957926017708_"  style="overflow:visible;"/>
		</clipPath>
		<path style="clip-path:url(#SVGID_00000156554399674381830390000011686399530382043015_);fill:#FFFFFF;" d="M150.2,62.7
			c0,0.7,0,3.6,0.1,4.2c0,0.1-0.2,0.3-0.5,0.3c-0.3-0.4-1-1.2-3.1-3.6l-5.6-6.3c-0.6-0.7-2.3-2.7-2.8-3.2h0
			c-0.1,0.3-0.1,0.8-0.1,1.6v5.2c0,1.1,0,4.2,0.4,5c0.1,0.3,0.6,0.4,1.2,0.5l0.7,0.1c0.1,0.2,0.1,0.5,0,0.6c-1.1,0-1.9-0.1-2.8-0.1
			c-1,0-1.7,0-2.5,0.1c-0.2-0.1-0.2-0.5,0-0.6l0.6-0.1c0.6-0.1,0.9-0.2,1.1-0.5c0.3-0.9,0.3-3.8,0.3-4.9v-6.9c0-0.7,0-1.2-0.5-1.7
			c-0.3-0.3-0.9-0.5-1.5-0.6l-0.4,0c-0.1-0.1-0.1-0.5,0-0.6c1,0.1,2.3,0.1,2.7,0.1c0.4,0,0.8,0,1.1-0.1c0.5,1.2,3.3,4.4,4.1,5.3
			l2.3,2.6c1.7,1.8,2.8,3.2,4,4.3h0c0.1-0.1,0.1-0.5,0.1-1V57c0-1.1,0-4.2-0.5-5c-0.1-0.2-0.5-0.4-1.5-0.5l-0.4,0
			c-0.2-0.1-0.1-0.5,0-0.6c1.1,0,1.9,0.1,2.8,0.1c1,0,1.7,0,2.5-0.1c0.2,0.1,0.2,0.5,0,0.6l-0.3,0c-0.8,0.1-1.2,0.3-1.3,0.5
			c-0.4,0.9-0.4,3.8-0.4,4.9L150.2,62.7L150.2,62.7z"/>
	</g>
	<g>
		<defs>
			<rect id="SVGID_00000007400442120819120530000016780786343025339531_" x="89.9" y="47.9" width="180" height="24.6"/>
		</defs>
		<clipPath id="SVGID_00000091711420829444681230000008598105360515282108_">
			<use xlink:href="#SVGID_00000007400442120819120530000016780786343025339531_"  style="overflow:visible;"/>
		</clipPath>
		<path style="clip-path:url(#SVGID_00000091711420829444681230000008598105360515282108_);fill:#FFFFFF;" d="M156.6,67.2
			c-2,0-3.3-0.6-3.7-0.9c-0.3-0.5-0.6-2.2-0.6-3.4c0.1-0.2,0.5-0.2,0.6-0.1c0.4,1.2,1.3,3.6,4.1,3.6c2,0,3-1.3,3-2.8
			c0-1.1-0.2-2.2-2-3.4l-2.3-1.5c-1.2-0.8-2.6-2.2-2.6-4.1c0-2.3,1.8-4.1,4.9-4.1c0.7,0,1.6,0.1,2.2,0.3c0.3,0.1,0.6,0.1,0.8,0.1
			c0.2,0.6,0.4,1.9,0.4,2.9c-0.1,0.1-0.5,0.2-0.6,0.1c-0.3-1.2-1-2.7-3.3-2.7c-2.4,0-2.9,1.6-2.9,2.7c0,1.4,1.2,2.4,2,3l1.9,1.2
			c1.5,0.9,3,2.3,3,4.6C161.7,65.4,159.7,67.2,156.6,67.2"/>
	</g>
	<g>
		<defs>
			<rect id="SVGID_00000099663680600055822040000015195282779683081349_" x="89.9" y="47.9" width="180" height="24.6"/>
		</defs>
		<clipPath id="SVGID_00000173850678521243778160000013028292683403050676_">
			<use xlink:href="#SVGID_00000099663680600055822040000015195282779683081349_"  style="overflow:visible;"/>
		</clipPath>
		<path style="clip-path:url(#SVGID_00000173850678521243778160000013028292683403050676_);fill:#FFFFFF;" d="M175.9,57.6
			c-1.4,0-1.4,0.1-1.4,0.9v4c0,3,0.1,3.4,1.7,3.6l0.8,0.1c0.2,0.1,0.1,0.6-0.1,0.7c-1.5-0.1-2.5-0.1-3.6-0.1c-1.2,0-2.2,0.1-3.3,0.1
			c-0.2-0.1-0.2-0.5-0.1-0.7l0.5-0.1c1.6-0.3,1.6-0.6,1.6-3.6V52.3c0-3-0.2-3.5-1.7-3.6l-0.7-0.1c-0.2-0.1-0.1-0.6,0.1-0.7
			c1.4,0,2.4,0.1,3.6,0.1c1.1,0,2.1,0,3.3-0.1c0.2,0.1,0.2,0.6,0.1,0.7l-0.5,0.1c-1.6,0.2-1.7,0.6-1.7,3.6v3.3
			c0,0.9,0.1,0.9,1.4,0.9h8.1c1.4,0,1.4,0,1.4-0.9v-3.3c0-3-0.1-3.4-1.7-3.6l-0.5-0.1c-0.2-0.1-0.1-0.6,0.1-0.7
			c1.3,0.1,2.3,0.1,3.4,0.1c1.1,0,2.1,0,3.4-0.1c0.2,0.1,0.2,0.6,0.1,0.7l-0.6,0.1c-1.6,0.2-1.7,0.6-1.7,3.6v10.2
			c0,3,0.1,3.4,1.7,3.6l0.7,0.1c0.2,0.1,0.1,0.6-0.1,0.7c-1.4-0.1-2.3-0.1-3.4-0.1c-1.2,0-2.2,0-3.4,0.1c-0.2-0.1-0.2-0.5-0.1-0.7
			l0.5-0.1c1.7-0.3,1.7-0.6,1.7-3.6v-4c0-0.9-0.1-0.9-1.4-0.9H175.9z"/>
	</g>
	<g>
		<defs>
			<rect id="SVGID_00000093159726951427310870000013496985938692481166_" x="89.9" y="47.9" width="180" height="24.6"/>
		</defs>
		<clipPath id="SVGID_00000029743328896598501030000015395783235869112232_">
			<use xlink:href="#SVGID_00000093159726951427310870000013496985938692481166_"  style="overflow:visible;"/>
		</clipPath>
		<path style="clip-path:url(#SVGID_00000029743328896598501030000015395783235869112232_);fill:#FFFFFF;" d="M190,59
			c0-4.8,3.6-8.5,8.5-8.5c5.5,0,8.3,4,8.3,8.2c0,4.8-3.7,8.4-8.3,8.4C193.2,67.2,190,63.3,190,59 M204.5,59.5c0-4-1.8-8.2-6.3-8.2
			c-2.5,0-5.7,1.7-5.7,7c0,3.5,1.7,8.2,6.5,8.2C201.8,66.4,204.5,64.3,204.5,59.5"/>
	</g>
	<g>
		<defs>
			<rect id="SVGID_00000162326921840538854550000003254557643940721082_" x="89.9" y="47.9" width="180" height="24.6"/>
		</defs>
		<clipPath id="SVGID_00000039111822805046252400000003393840111774580874_">
			<use xlink:href="#SVGID_00000162326921840538854550000003254557643940721082_"  style="overflow:visible;"/>
		</clipPath>
		<path style="clip-path:url(#SVGID_00000039111822805046252400000003393840111774580874_);fill:#FFFFFF;" d="M211.2,63.2
			c0,2.5,0,2.8,1.6,3l0.6,0.1c0.1,0.1,0.1,0.5,0,0.6c-1.4,0-2.2-0.1-3.1-0.1c-1,0-1.9,0-2.9,0.1c-0.1-0.1-0.2-0.5,0-0.6l0.5-0.1
			c1.4-0.2,1.4-0.5,1.4-3v-8.9c0-2,0-2.4-1.1-2.6l-0.9-0.1c-0.2-0.1-0.1-0.5,0-0.6c1.3-0.2,2.8-0.2,4.8-0.2c2,0,3.5,0.3,4.6,1
			c1.1,0.7,1.9,1.9,1.9,3.6c0,2.2-1.4,3.3-2.4,3.8c-1.1,0.5-2.3,0.7-3.3,0.7c-0.2-0.1-0.2-0.4,0-0.5c2.6-0.5,3.5-1.9,3.5-4
			c0-2.3-1.4-3.8-3.9-3.8c-1.3,0-1.3,0.1-1.3,0.9L211.2,63.2L211.2,63.2z"/>
	</g>
	<g>
		<defs>
			<rect id="SVGID_00000157282340063585183350000017836908733368002741_" x="89.9" y="47.9" width="180" height="24.6"/>
		</defs>
		<clipPath id="SVGID_00000123413454862641259700000014576802650675322505_">
			<use xlink:href="#SVGID_00000157282340063585183350000017836908733368002741_"  style="overflow:visible;"/>
		</clipPath>
		<path style="clip-path:url(#SVGID_00000123413454862641259700000014576802650675322505_);fill:#FFFFFF;" d="M221.2,54.5
			c0-2.5,0-2.9-1.4-3l-0.6,0c-0.1-0.1-0.1-0.5,0-0.6c1.2,0,1.9,0.1,3,0.1c0.9,0,1.8,0,2.8-0.1c0.1,0.1,0.2,0.5,0,0.6l-0.5,0
			c-1.4,0.1-1.4,0.5-1.4,3v2.8c0,0.5,0,0.9,0.3,0.9c0.2,0,0.5-0.1,0.7-0.3c0.3-0.3,1-0.9,1.2-1.2l2.6-2.6c0.5-0.4,1.6-1.7,1.9-2
			c0.1-0.2,0.2-0.3,0.2-0.4c0-0.1-0.1-0.2-0.4-0.2l-0.6-0.1c-0.2-0.2-0.1-0.5,0-0.6c0.8,0,1.8,0.1,2.6,0.1c0.8,0,1.7,0,2.4-0.1
			c0.2,0.1,0.2,0.5,0,0.6c-0.6,0-1.6,0.3-2.2,0.7c-0.7,0.4-2,1.5-3.4,2.8l-2.2,2c-0.3,0.3-0.6,0.6-0.6,0.7c0,0.2,0.1,0.4,0.5,0.7
			c2.3,2.6,4.1,4.8,6,6.7c0.6,0.6,1,0.9,1.8,1l0.5,0.1c0.2,0.1,0.1,0.5,0,0.6c-0.6,0-1.3-0.1-2.4-0.1c-1,0-1.8,0-2.9,0.1
			c-0.2,0-0.2-0.5-0.1-0.6l0.6-0.1c0.3,0,0.6-0.1,0.6-0.2c0-0.1-0.2-0.3-0.3-0.6c-0.5-0.6-1.1-1.2-2-2.3l-1.9-2.2
			c-1.4-1.5-1.8-2-2.3-2c-0.4,0-0.4,0.3-0.4,1.2v3.1c0,2.5,0,2.9,1.4,3l0.6,0.1c0.1,0.1,0.1,0.5,0,0.6c-1.2,0-2-0.1-2.9-0.1
			c-1,0-1.8,0-2.8,0.1c-0.1-0.1-0.2-0.4,0-0.6l0.5-0.1c1.3-0.2,1.3-0.5,1.3-3L221.2,54.5L221.2,54.5z"/>
	</g>
	<g>
		<defs>
			<rect id="SVGID_00000123403494593230685800000000214677241660417955_" x="89.9" y="47.9" width="180" height="24.6"/>
		</defs>
		<clipPath id="SVGID_00000147942288701136594460000005129607058270519479_">
			<use xlink:href="#SVGID_00000123403494593230685800000000214677241660417955_"  style="overflow:visible;"/>
		</clipPath>
		<path style="clip-path:url(#SVGID_00000147942288701136594460000005129607058270519479_);fill:#FFFFFF;" d="M237.7,54.6
			c0-2.5,0-3-1.5-3.1l-0.6,0c-0.1-0.1-0.1-0.5,0-0.6c1.2,0,2,0.1,3,0.1c1,0,1.8,0,3-0.1c0.1,0.1,0.2,0.5,0,0.6l-0.6,0
			c-1.4,0.1-1.5,0.5-1.5,3.1v8.5c0,2.5,0,2.9,1.5,3l0.6,0.1c0.1,0.1,0.1,0.5,0,0.6c-1.2,0-2-0.1-3-0.1c-1,0-1.7,0-2.9,0.1
			c-0.1-0.1-0.2-0.5,0-0.6l0.5-0.1c1.4-0.2,1.5-0.5,1.5-3L237.7,54.6L237.7,54.6z"/>
	</g>
	<g>
		<defs>
			<rect id="SVGID_00000016773277780275993760000005826809199499319168_" x="89.9" y="47.9" width="180" height="24.6"/>
		</defs>
		<clipPath id="SVGID_00000140705241639492068240000017880582232394863526_">
			<use xlink:href="#SVGID_00000016773277780275993760000005826809199499319168_"  style="overflow:visible;"/>
		</clipPath>
		<path style="clip-path:url(#SVGID_00000140705241639492068240000017880582232394863526_);fill:#FFFFFF;" d="M258.5,62.7
			c0,0.7,0,3.6,0.1,4.2c0,0.1-0.2,0.3-0.5,0.3c-0.3-0.4-1-1.2-3.1-3.6l-5.6-6.3c-0.6-0.7-2.3-2.7-2.8-3.2h0
			c-0.1,0.3-0.1,0.8-0.1,1.6v5.2c0,1.1,0,4.2,0.4,5c0.1,0.3,0.6,0.4,1.2,0.5l0.7,0.1c0.1,0.2,0.1,0.5,0,0.6c-1.1,0-1.9-0.1-2.8-0.1
			c-1,0-1.7,0-2.5,0.1c-0.2-0.1-0.2-0.5,0-0.6l0.6-0.1c0.6-0.1,0.9-0.2,1.1-0.5c0.3-0.9,0.3-3.8,0.3-4.9v-6.9c0-0.7,0-1.2-0.5-1.7
			c-0.3-0.3-0.9-0.5-1.5-0.6l-0.4,0c-0.1-0.1-0.1-0.5,0-0.6c1,0.1,2.3,0.1,2.7,0.1c0.4,0,0.8,0,1.1-0.1c0.5,1.2,3.3,4.4,4.1,5.3
			l2.3,2.6c1.7,1.8,2.8,3.2,4,4.3h0c0.1-0.1,0.1-0.5,0.1-1V57c0-1.1,0-4.2-0.5-5c-0.1-0.2-0.5-0.4-1.5-0.5l-0.4,0
			c-0.2-0.1-0.1-0.5,0-0.6c1.1,0,1.9,0.1,2.8,0.1c1,0,1.7,0,2.5-0.1c0.2,0.1,0.2,0.5,0,0.6l-0.3,0c-0.8,0.1-1.2,0.3-1.3,0.5
			c-0.4,0.9-0.4,3.8-0.4,4.9L258.5,62.7L258.5,62.7z"/>
	</g>
	<g>
		<defs>
			<rect id="SVGID_00000054982261272036637010000005090350596179182489_" x="89.9" y="47.9" width="180" height="24.6"/>
		</defs>
		<clipPath id="SVGID_00000135685346991832452310000013381846606139966631_">
			<use xlink:href="#SVGID_00000054982261272036637010000005090350596179182489_"  style="overflow:visible;"/>
		</clipPath>
		<path style="clip-path:url(#SVGID_00000135685346991832452310000013381846606139966631_);fill:#FFFFFF;" d="M264.8,67.2
			c-2,0-3.3-0.6-3.7-0.9c-0.3-0.5-0.6-2.2-0.6-3.4c0.1-0.2,0.5-0.2,0.6-0.1c0.4,1.2,1.3,3.6,4.1,3.6c2,0,3-1.3,3-2.8
			c0-1.1-0.2-2.2-2-3.4l-2.3-1.5c-1.2-0.8-2.6-2.2-2.6-4.1c0-2.3,1.8-4.1,4.9-4.1c0.7,0,1.6,0.1,2.2,0.3c0.3,0.1,0.6,0.1,0.8,0.1
			c0.2,0.6,0.4,1.9,0.4,2.9c-0.1,0.1-0.5,0.2-0.6,0.1c-0.3-1.2-1-2.7-3.3-2.7c-2.4,0-2.9,1.6-2.9,2.7c0,1.4,1.2,2.4,2,3l1.9,1.2
			c1.5,0.9,3,2.3,3,4.6C269.9,65.4,267.9,67.2,264.8,67.2"/>
	</g>
</g>
</svg>
