<?xml version="1.0" encoding="utf-8"?>
<!-- Generator: Adobe Illustrator 26.0.2, SVG Export Plug-In . SVG Version: 6.00 Build 0)  -->
<svg version="1.1" id="Layer_1" xmlns="http://www.w3.org/2000/svg" xmlns:xlink="http://www.w3.org/1999/xlink" x="0px" y="0px"
	 width="313px" height="130px" viewBox="0 0 313 130" style="enable-background:new 0 0 313 130;" xml:space="preserve">
<style type="text/css">
	.st0{display:none;fill:none;}
	.st1{fill:#FFFFFF;}
	.st2{fill-rule:evenodd;clip-rule:evenodd;fill:#FFFFFF;}
</style>
<rect x="56.8" y="20.8" class="st0" width="49.5" height="89.2"/>
<g>
	<path id="University_of_Toronto_Mark_Stacked_1_" class="st1" d="M239.4,70.8c6.1,0,9.8,4.8,9.8,9.8c0,5.5-4.8,10-10.1,10
		c-5.6,0-9.5-4.5-9.5-10C229.5,75.3,234.1,70.8,239.4,70.8 M240.4,89.3c3.6,0,5.8-3.5,5.8-6.9c0-5.4-3.1-10.4-7.7-10.4
		c-3.7,0-5.9,3.2-5.9,7C232.6,84,235.4,89.3,240.4,89.3z M220.6,71.2h-4.1c-1.8,0-3.1,0-4.1-0.1c-1-0.1-1.2-0.3-1.4-0.5h-0.5
		c-0.1,0.2-1.4,3.7-1.4,3.8l0.6,0.4c0.6-1.7,1.3-2.5,4.7-2.5c0.3,0,1.4,0,2.7,0.2c0.2,2.5,0.2,4.8,0.2,7.2c0,1.5-0.1,7.2-0.2,8.4
		c-0.1,0.6-0.4,0.8-1.9,1.2c-0.7,0.1-1.1,0.2-1.5,0.2l0.2,0.8c0.5-0.1,1.2-0.1,1.8-0.2c0.8-0.1,1.7-0.1,3.1-0.1c0.5,0,1.4-0.1,2.2,0
		c0.8,0.1,1.5,0.1,2.5,0.1l0.1-0.8c-0.2,0-0.5-0.1-0.9-0.1c-0.5-0.1-1.4-0.2-1.7-0.6c-0.6-0.7-0.6-5.8-0.6-7.2
		c0-1.2,0.2-7.2,0.2-8.6c0-0.6,0.2-0.6,1.9-0.6h0.1c0.8-0.1,1,0,1.3,0c3.4,0,3.5,0.8,4.1,2.5l0.6-0.4c-0.1-0.2-0.7-3.6-0.8-3.8h-0.5
		c-0.2,0.2-0.4,0.4-1.4,0.5c-1.3,0.1-2.8,0.1-4.4,0.1L220.6,71.2L220.6,71.2z M189.3,71.2c-0.8,0.1-1.4,0.1-2.3,0.1
		c-0.5,0-0.9,0-1.4-0.1c-0.5-0.1-0.5-0.1-1-0.1v0.8c2.8,0.5,3,0.9,2.9,6.5v3.4c0,1.3-0.1,5.1-0.2,6.2c-0.2,1.2-0.7,1.3-1.4,1.5
		c-0.4,0.1-0.8,0.2-1.1,0.2v0.7c0.7,0,1.4-0.1,2.2-0.1c0.7-0.1,1.7-0.1,2.4-0.1c0.7,0,1.5,0.1,2.2,0.1c0.6,0,1,0.1,1.3,0.1v-0.8
		c-3.8-0.7-3.8-1.2-3.7-4.4v-8.1l0.1-1.5c0,0,0,0.1,14,14.8h1c-0.1-1.6-0.1-5.6-0.1-7.4c0-2.5,0-9,0.1-9.8c0.2-1.2,1.8-1.4,2.7-1.4
		v-0.7c-2,0-3.1,0.1-4.1-0.1c-0.8-0.1-1.5-0.2-2-0.2c-0.4,0-0.9-0.1-1.2,0l-0.2,0.7c3.1,0.2,3.1,0.5,3.1,7.7c0,0.8-0.1,5.1-0.1,5.8
		L189.3,71.2z M172,70.8c6.1,0,9.8,4.8,9.8,9.8c0,5.5-4.8,10-10.1,10c-5.6,0-9.5-4.5-9.5-10C162.2,75.3,166.8,70.8,172,70.8z
		 M173.1,89.3c3.6,0,5.8-3.5,5.8-6.9c0-5.4-3.1-10.4-7.7-10.4c-3.7,0-5.9,3.2-5.9,7C165.3,84,168.1,89.3,173.1,89.3z M141.9,71.1
		c0.6,0.1,1.2,0.1,1.8,0.1c0.6,0.1,1.2,0.1,1.8,0.1c0.4,0,1.5-0.1,2.6-0.2c1.1-0.1,1.9-0.1,2.6-0.1c4,0,6.6,2.2,6.6,5.1
		c0,2.7-2.5,4.3-4.4,4.8c3.9,5.7,4.7,6.6,6.2,8c0.2,0.2,1.4,1.3,2.8,1.4l-0.1,0.7c-3.3,0-4.9-1.3-5.8-1.9c-2.9-2.3-5.8-6.8-6.3-7.7
		c-0.8,0-1.2,0-2.5-0.1v2.8c0,1.2-0.1,4,0.3,4.8c0.2,0.4,1.7,0.8,2.6,1.2l0.1,0.7c-1.2-0.2-2.9-0.3-4.1-0.3c-0.7,0-3.6,0.2-4.2,0.2
		l-0.2-0.6c0.3-0.1,2-0.4,2.5-1.2c0.3-0.7,0.3-4.7,0.3-6v-4.6c0-5.9-0.3-6-2.7-6.1L141.9,71.1z M147.4,80c0.6,0.1,1.5,0.1,2,0.1
		c0.7,0,4.7,0,4.7-3.8c0-1.8-1.3-4.4-4.7-4.4c-2,0-2,0.2-2,3.5L147.4,80z M128.7,70.8c6.1,0,9.8,4.8,9.8,9.8c0,5.5-4.8,10-10.1,10
		c-5.6,0-9.5-4.5-9.5-10C118.8,75.3,123.4,70.8,128.7,70.8z M129.7,89.3c3.6,0,5.8-3.5,5.8-6.9c0-5.4-3.1-10.4-7.7-10.4
		c-3.7,0-5.9,3.2-5.9,7C121.9,84,124.7,89.3,129.7,89.3z M109.5,71.2h-4.1c-1.8,0-3.1,0-4.1-0.1c-1-0.1-1.2-0.3-1.4-0.5h-0.5
		c-0.1,0.2-1.4,3.7-1.5,3.8l0.6,0.4c0.6-1.7,1.3-2.5,4.7-2.5c0.3,0,1.4,0,2.7,0.2c0.2,2.5,0.2,4.8,0.2,7.2c0,1.5-0.1,7.2-0.2,8.4
		c-0.1,0.6-0.4,0.8-1.9,1.2c-0.7,0.1-1.1,0.2-1.5,0.2l0.2,0.8c0.5-0.1,1.2-0.1,1.8-0.2c0.8-0.1,1.7-0.1,3.1-0.1c0.5,0,1.4-0.1,2.2,0
		c0.8,0.1,1.5,0.1,2.5,0.1l0.1-0.8c-0.2,0-0.5-0.1-0.9-0.1c-0.5-0.1-1.4-0.2-1.7-0.6c-0.6-0.7-0.6-5.8-0.6-7.2
		c0-1.2,0.2-7.2,0.2-8.6c0-0.6,0.2-0.6,1.9-0.6h0.1c0.8-0.1,1,0,1.3,0c3.4,0,3.5,0.8,4.1,2.5l0.6-0.4c-0.1-0.2-0.7-3.6-0.8-3.8h-0.5
		c-0.2,0.2-0.4,0.4-1.4,0.5c-1.3,0.1-2.8,0.1-4.4,0.1L109.5,71.2L109.5,71.2z M232.2,54.5c-1.2,0.2-1.5,0.2-2.9,0.2h-1.5l-1.5-0.1
		l-0.5,0.1l-0.4,0.1v0.1v0.3h0.1c0.4,0,0.7,0.1,0.8,0.3c0.2,0.3,0.2,0.7,0.2,3.7c0,1.4-0.2,3-0.2,3.3c-0.1,0.3-0.5,0.5-0.8,0.5h-0.1
		l-0.1,0.5h0.1c0.8-0.1,1.8-0.1,2-0.1h0.7l1.4,0.1v-0.1v-0.4h-0.1c-1-0.1-1.3-0.3-1.4-0.4s-0.2-0.6-0.2-1.2c0-0.2,0-0.3,0-0.5
		c0,0,0.1-1.3,0.1-1.6c0.1,0,0.7-0.1,0.7-0.1c0.8,0,1.7,0.2,1.9,0.3c0.2,0.1,0.3,0.3,0.3,0.7V60h0.4v-0.1c0.1-0.8,0.1-1.8,0.1-2.4
		v-0.1H231v0.1c-0.1,0.6-0.2,0.8-1.8,0.8c-0.5,0-0.6,0-1.2-0.1c0,0,0,0-0.1,0c0-0.2,0-0.3,0-0.5c0-0.2,0-0.4,0-0.6
		c0,0,0.1-1.8,0.1-2c0.5-0.1,0.9-0.1,1-0.1c0.9,0,1.7,0.2,2.1,0.4c0.3,0.2,0.4,0.5,0.5,0.8v0.1l0.5-0.1v-0.1c0-0.2,0-0.6,0.1-1
		l0.1-0.9L232.2,54.5z M219.4,54.4c2.8,0,4.5,2.2,4.5,4.4c0,2.4-2.2,4.5-4.6,4.5c-2.5,0-4.4-1.9-4.4-4.5
		C214.9,56.4,217,54.4,219.4,54.4z M219.8,62.5c1.5,0,2.5-1.5,2.5-2.9c0-2.2-1.3-4.5-3.4-4.5c-1.7,0-2.6,1.5-2.6,3
		C216.4,60.3,217.7,62.5,219.8,62.5z M203.5,54.6V55h0.1c0.4,0,1,0.1,1,0.4c0,0.1-0.2,0.6-1.8,2.9c-0.7-0.8-2.2-2.8-2.2-3
		c0-0.1,0-0.2,0.9-0.2h0.1v-0.5h-0.8l-1.5,0.1h-1.7v0.1v0.3h0.1c0.4,0,0.7,0.1,0.8,0.2c0.5,0.4,2.4,2.7,2.4,2.8c0,0,0.7,0.9,0.8,1
		c0.1,0.6,0.1,1.3,0.1,2.1c0,1.3,0,1.5-1.2,1.6h-0.1l-0.1,0.4h0.1c0.2,0,0.7-0.1,1.3-0.1l0.9-0.1l0.7,0.1h0.2l0.9,0.1v-0.1v-0.4
		h-0.1c-1.2-0.1-1.2-0.3-1.2-0.5v-0.1c-0.1-0.5-0.1-1.1-0.1-1.7c0-0.5,0-1,0.1-1.5c0.1-0.1,1.7-2.5,1.7-2.5c0.5-0.8,0.8-1.3,1.9-1.3
		h0.1v-0.5h-0.1c-0.2,0-0.6,0-1,0.1l-0.5,0.1l-0.6-0.1l-0.5-0.1h-0.6h-0.1H203.5L203.5,54.6z M195.9,54.3h-0.3v0.1
		c-0.1,0.1-0.2,0.2-0.5,0.2h-1.7H191h-1.8c-0.5,0-0.5-0.2-0.5-0.2v-0.1h-0.3v0.1c-0.1,0.1-0.6,1.6-0.6,1.7v0.1l0.4,0.2l0.1-0.1
		c0.3-0.7,0.5-1,2-1c0.5,0,0.8,0.1,1.2,0.1c0.1,1.2,0.1,2.3,0.1,3.1c0,0.8-0.1,3.1-0.1,3.7c-0.1,0.2-0.1,0.3-0.8,0.5l-0.5,0.1
		l-0.2,0.1l0.1,0.5l0.7-0.1h0.2l1.4-0.1h0.2h0.8h0.6h0.6v-0.1l0.1-0.4l-0.4-0.1H194c-0.4-0.1-0.6-0.2-0.7-0.2
		c-0.1-0.1-0.3-0.6-0.3-3.1l0.1-1.8l0.1-2c0-0.2,0-0.2,0.8-0.2h0.1h0.5h0.1c1.4,0,1.5,0.3,1.7,0.9l0.1,0.2l0.4-0.2l-0.1-0.5
		c-0.2-0.7-0.3-1.2-0.3-1.3v-0.1L195.9,54.3L195.9,54.3z M181.8,54.6v0.5h0.1c1.2,0.1,1.3,0.3,1.4,0.5c0.2,0.4,0.2,2.8,0.2,3.7v0.2
		c0,0.7,0,2.5-0.2,2.8c-0.1,0.2-0.4,0.4-1.5,0.5h-0.1v0.5l1.4-0.1h1.2l2,0.1v-0.1l-0.1-0.4h-0.1c-0.9,0-1.2,0-1.3-0.4
		c-0.1-0.2-0.1-1-0.1-2.4c0-3.3,0-4.2,0.2-4.5c0.2-0.4,1-0.3,1.3-0.3h0.1v-0.5h-1l-1.4,0.1l-0.9-0.1h-0.4L181.8,54.6l-0.1-0.1
		L181.8,54.6L181.8,54.6z M174.2,56.9c0,1.5,1.2,1.9,2.2,2.3l0.1,0.1c1.5,0.6,2.3,0.9,2.3,2c0,0.6-0.5,1.3-1.5,1.3
		c-0.9,0-1.6-0.4-2-0.7c-0.5-0.4-0.6-1-0.7-1.2v-0.1h-0.5l0.1,0.1c0.3,0.9,0.4,1.4,0.4,2.4v0.1l0.4,0.1v-0.1c0-0.1,0.1-0.2,0.2-0.2
		c0.1,0,0.4,0.1,0.5,0.1h0.1l0.2,0.1c0.2,0.1,0.5,0.2,1,0.2c2.1,0,3.2-1.3,3.2-2.5c0-1.7-1.6-2.3-2.7-2.8c-1-0.4-1.8-0.8-1.8-1.6
		c0-0.8,0.6-1.4,1.6-1.4c0.8,0,1.5,0.5,1.6,0.6c0.4,0.3,0.5,0.7,0.5,1v-0.1h0.1h0.4l-0.2-1.2c0-0.4,0.1-0.8,0.2-1v-0.1l-0.4-0.1
		c0,0-0.2,0.2-0.3,0.2c-0.8-0.2-1.2-0.3-1.7-0.3C175.5,54.4,174.2,55.4,174.2,56.9z M168.2,54.4c1.8,0,3,0.9,3,2.3
		c0,1.1-0.9,1.8-1.9,2.2c1.7,2.4,2,2.8,2.7,3.4c0.1,0,0.5,0.5,1.2,0.6h0.1l-0.1,0.5h-0.1c-1.5,0-2.2-0.5-2.6-0.8
		c-1.3-1-2.6-3-2.8-3.4c-0.1,0-0.9-0.1-1-0.1c0,0.2,0,1.2,0,1.2s0,0.3,0,0.4c0,0.6,0,1.4,0.2,1.7c0.1,0.2,0.8,0.4,1.2,0.5h0.1
		l0.1,0.5h-0.1c-0.5-0.1-1.3-0.2-1.8-0.2c-0.3,0-1.6,0.1-1.9,0.1h-0.1l-0.1-0.4h0.1c0.2-0.1,0.8-0.2,1-0.5c0.2-0.3,0.2-1.8,0.2-2.4
		v-0.2v-2c0-2.5-0.1-2.6-1.2-2.6h-0.2l0.1-0.5h0.2l0.8,0.1h0.8c0.2,0,0.7-0.1,1.2-0.1l0,0l0,0L168.2,54.4z M166.9,58.5
		c0.3,0.1,0.6,0.1,0.8,0.1c0.8,0,2-0.2,2-1.6c0-0.7-0.5-1.8-2-1.8c-0.8,0-0.8,0.1-0.8,1.5C166.9,56.5,166.9,58.3,166.9,58.5z
		 M161.8,54.5c-1,0.1-2.7,0.1-3.8,0.1c-0.7,0-2.3-0.1-2.9-0.1H155V55h0.1c0.7,0.2,0.8,0.2,0.8,0.3c0.1,0.2,0.2,0.9,0.2,3.5
		c0,1.1-0.1,2.8-0.2,3.5c-0.1,0.3-0.4,0.4-1,0.5h-0.1l0.1,0.5h0.1c1.2-0.2,2.5-0.2,3.4-0.2l3.4,0.1l0.1-0.1c0.2-0.3,0.5-0.7,0.6-2.1
		v-0.1l-0.4-0.1v0.1c-0.3,0.8-0.8,1.6-2.9,1.6c-0.7,0-1-0.1-1.5-0.3c-0.1-0.2-0.1-0.6-0.1-1.6c0,0,0-1.3,0-1.6
		c0.5-0.1,1-0.1,1.3-0.1c1.7,0,1.8,0.2,2,1.2v0.1h0.4V60c0-1.2,0-1.4,0.1-2.6v-0.1h-0.5v0.1c-0.2,0.6-0.3,0.7-0.5,0.8
		c-1.2,0.2-2.4,0.1-2.7,0.1c0-0.1-0.1-1.2-0.1-1.2c0-0.5,0.1-1.4,0.2-2c0.5-0.1,1.3-0.2,1.6-0.2c0.9,0,1.5,0.2,1.7,0.4
		c0.2,0.2,0.2,0.5,0.2,0.9v0.1l0.5,0.1v-0.1c0-0.1,0.1-0.4,0.1-0.7l0.1-0.3c0.1-0.5,0.1-0.6,0.1-0.8v-0.1L161.8,54.5z M143.4,54.6
		l0.1,0.4h0.1c1.2,0.2,1.2,0.2,2.2,2l1.9,3.9V61c0.3,0.7,0.8,1.7,1,2.3v0.1h0.4v-0.1c0.3-0.8,0.5-1.5,1.2-2.8l2.1-4
		c0.5-0.9,0.7-1.2,1.6-1.4h0.1v-0.5h-0.1c-0.5,0-1,0-1.6,0l-1.6-0.1v0.1l-0.1,0.5h0.1c0.4,0,1,0.1,1,0.5c0,0.3-0.2,0.7-0.3,0.9
		l-0.1,0.1c-0.4,0.9-0.7,1.5-0.9,2l-0.9,1.9c0,0-0.2,0.3-0.2,0.5c-0.9-1.5-2.6-5.5-2.6-5.8c0-0.1,0.1-0.2,0.7-0.2l0.2-0.1v-0.5h-1.3
		h-0.8C144.9,54.7,144,54.7,143.4,54.6h-0.1H143.4z M137.7,54.6v0.5h0.1c1.2,0.1,1.3,0.3,1.4,0.5c0.2,0.4,0.2,2.8,0.2,3.7v0.2
		c0,0.7,0,2.5-0.2,2.8c-0.1,0.2-0.4,0.4-1.5,0.5h-0.1v0.5l1.4-0.1h1.2l2,0.1v-0.1l-0.1-0.4h-0.1c-0.9,0-1.2,0-1.3-0.4
		c-0.1-0.2-0.1-1-0.1-2.4c0-3.3,0-4.2,0.2-4.5c0.2-0.4,1-0.3,1.3-0.3h0.1v-0.5h-1l-1.4,0.1l-0.9-0.1h-0.4L137.7,54.6L137.7,54.6
		L137.7,54.6L137.7,54.6z M132.8,54.4L132.8,54.4L132.8,54.4l-0.2,0.5h0.1c1.6,0.1,1.4,0.2,1.5,3.5c0,0,0,2,0,2.3
		c-0.2-0.2-5.9-6.1-5.9-6.1v-0.1h-0.9h-0.6h-0.1l-0.6-0.1v0.1V55h0.1c1.2,0.2,1.4,0.4,1.3,2.8v1.5c0,0.5-0.1,2.2-0.2,2.7
		c-0.1,0.5-0.2,0.5-0.5,0.6l-0.5,0.2v0.1v0.4l2-0.1l0.9,0.1l0.7,0.1v-0.1v-0.4h-0.1c-1.6-0.3-1.6-0.5-1.6-1.8l0.1-3.5
		c0,0,0-0.3,0-0.5c0.3,0.3,6.1,6.4,6.1,6.4v0.1h0.5v-0.1c-0.1-0.7-0.1-2.5-0.1-3.2c0-1.2,0.1-3.8,0.1-4.1c0.1-0.6,0.5-0.7,1-0.7h0.1
		v-0.6h-0.1c-0.9,0-1.4,0.1-1.8,0l-0.3-0.1l-0.6-0.1H132.8z M117.4,54.6h-0.5c-0.6,0-1.8,0-1.9,0.1h-0.1l0.1,0.5h0.1
		c0.5,0,0.7,0,0.8,0.1c0.2,0.1,0.3,1.1,0.3,2.4l-0.1,2.8c0,1.9,1.2,2.9,3.5,2.9c3.7,0,3.8-1.9,3.9-6v-1.2V56c0-0.6,0.1-0.8,1-0.9
		h0.1l0.1-0.5h-0.2l-1.5,0.1l-1.2-0.2h-0.5v0.1v0.4h0.1c0.4,0,0.8,0.1,1,0.2c0.3,0.3,0.4,1.4,0.4,2v0.8c0,2.8-0.2,4.5-2.8,4.5
		c-2.4,0-2.4-1.9-2.4-2.8v-1.6c0-2.9,0.1-2.9,1.4-3.1h0.1v-0.5h-0.1C118.7,54.6,117.9,54.6,117.4,54.6z"/>
	<g>
		<g>
			<g>
				<path class="st1" d="M64.8,40c-0.3,0.1-0.5,0.3-0.5,0.5c-0.2,0-0.4,0-0.6,0.2c-0.2,0.2-0.3,0.4-0.4,0.6v0.2
					c0,0.3,0.2,0.6,0.6,0.9c0,0.1,0,0.1,0,0.1c0,0.2,0.1,0.4,0.3,0.6c0.2,0.1,0.2,0.2,0.4,0.2c-0.1,0.1-0.1,0.3-0.1,0.3l0.1,0.3
					c0.1,0.3,0.4,0.6,0.9,0.7c0.1,0.2,0.1,0.3,0.2,0.4c0.2,0.2,0.5,0.3,0.9,0.2c-0.1,0.1-0.1,0.2-0.1,0.4s0.1,0.4,0.2,0.6
					c0.4,0.5,1,0.3,1.4,0.1c0.2,0.2,0.5,0.4,0.8,0.3c0.5-0.1,0.8-0.5,0.9-0.8c0.1,0,0.4-0.1,0.4-0.1l0.1-0.1
					c0.2-0.2,0.4-0.5,0.6-0.8c0.4,0.4,0.7,0.8,0.8,0.9c0.1,0.2,0.2,0.5,0.7,1.2c0,0,0.3,0.5,0.4,0.7c-0.2,0.7-0.5,1.2-0.9,1.5
					l-0.3,0.2c-0.6,0.3-1.4,0.7-1.8,1l0,0c-0.3,0-0.5,0.1-0.7,0.2c-0.2-0.1-0.5-0.2-0.7-0.2c-0.8,0-1.3,0.5-1.4,0.8
					c-0.3,0.5-0.2,1.2,0.1,1.6c0.3,0.5,0.8,0.7,1.4,0.7c0.2,0,0.5-0.1,0.6-0.2c0.2,0.1,0.4,0.2,0.6,0.2c0.2,0,0.5-0.1,0.7-0.2
					c0.2,0.1,0.4,0.2,0.6,0.2c0.2,0,0.4-0.1,0.6-0.2c0.2,0.1,0.4,0.2,0.6,0.2c0.3,0,0.5-0.1,0.6-0.2c0.2,0.1,0.4,0.2,0.6,0.2
					c0.2,0,0.4-0.1,0.6-0.2c0.2,0.1,0.4,0.2,0.6,0.2c0.3,0,0.5-0.1,0.6-0.2c0.2,0.1,0.4,0.2,0.6,0.2s0.4-0.1,0.6-0.2
					c0.2,0.1,0.4,0.2,0.6,0.2c0.3,0,0.5-0.1,0.6-0.2c0.2,0.1,0.4,0.2,0.6,0.2s0.4-0.1,0.6-0.2c0.2,0.1,0.4,0.2,0.6,0.2
					c0.3,0,0.5-0.1,0.7-0.2c0.2,0.1,0.5,0.2,0.7,0.2c0.7,0,1.2-0.3,1.5-0.8c0.3-0.5,0.2-1.2-0.1-1.5c-0.3-0.5-0.8-0.7-1.4-0.7
					c-0.2,0-0.4,0.1-0.6,0.2c-0.1,0-0.2-0.1-0.2-0.1c-0.3-0.4-0.7-0.6-1.5-0.9l-0.2-0.1c-0.9-0.4-1.2-0.7-1.3-1l-0.2-0.3
					c-0.1-0.1-0.2-0.6-0.2-1.3c0-0.5,0.1-1.2,0.4-1.6c0.2-0.3,0.4-0.5,0.7-0.7c0.1,0.3,0.2,0.5,0.3,0.6l0,0l0.1,0.1l0.4,0.2
					l-0.1-0.1c0.2,0.4,0.4,0.8,0.9,0.9c0.2,0.1,0.3-0.1,0.5-0.1c0.2,0.2,0.4,0.3,0.7,0.3c0.3,0,0.5-0.2,0.5-0.2
					c0.5,0.1,0.8-0.2,1-0.4l0.2-0.5V45c0-0.2-0.1-0.3-0.2-0.5c0.1,0,0.1,0,0.1,0c0.2-0.1,0.2-0.2,0.3-0.3c0.5-0.1,0.6-0.3,0.7-0.5
					c0,0,0.1-0.1,0.1-0.2c0,0,0,0,0.1-0.1c0.2,0.1,0.5,0.2,0.8,0c0.2-0.1,0.3-0.3,0.4-0.5c0.2,0,0.5,0,0.6-0.2
					c0.2-0.2,0.4-0.4,0.4-0.7v-0.2c0-0.3-0.2-0.8-0.8-1c-0.1-0.2-0.1-0.4-0.3-0.5c-0.4-0.4-0.8-0.3-1.2-0.2c0.1-0.1,0.2-0.2,0.2-0.3
					c0.4,0.1,1.2,0.2,1.5-0.4l0.1-0.3c0-0.1-0.1-0.2-0.1-0.3c0.4-0.3,0.5-0.6,0.5-0.8l-0.1-0.5c-0.2-0.5-0.5-0.6-1-0.5
					C84,37.2,84,37.1,83.9,37c0,0-0.1,0-0.1-0.1c0.1-0.2,0.1-0.3,0.1-0.3l-0.2-0.3c-0.1-0.3-0.3-0.5-0.5-0.5c-0.2-0.1-0.4-0.1-0.7,0
					c0.2-0.2,0.4-0.4,0.4-0.6v-0.2l0,0c0-0.2-0.1-0.4-0.2-0.6c-0.3-0.4-0.7-0.5-1.2-0.3c-0.1-0.1-0.2-0.2-0.5-0.3
					c-0.4-0.1-0.8,0.2-1,0.4c-0.1-0.1-0.2-0.2-0.2-0.2h-0.1c0,0-0.1,0-0.2,0c0-0.2-0.1-0.5-0.3-0.6c-0.2-0.2-0.5-0.4-0.8-0.4
					c-0.1,0-0.2,0.1-0.3,0.1c0.2-0.2,0.2-0.4,0.2-0.5l-0.1-0.4c-0.2-0.3-0.3-0.4-0.5-0.5l0,0c0-0.8-0.5-0.9-0.7-1
					c-0.4-0.1-0.8,0.1-1.1,0.4c-0.1-0.1-0.2-0.1-0.2-0.1c-0.2-0.2-0.4-0.3-0.6-0.4c-0.7-0.1-0.9,0.5-1,0.8c-0.2,0-0.3,0-0.5,0.1
					c0,0-0.1,0.2-0.2,0.2c0.2,0.1,0.2,0.1,0.1,0.1c-0.1-0.6-0.5-0.8-0.6-0.9c-0.2-0.1-0.4-0.1-0.5,0c-0.5-0.5-1-0.5-1.3-0.4l0,0
					c-0.3,0.2-0.5,0.5-0.5,0.8c0,0,0.1,0.3,0.1,0.5c0.1,0.1-0.1,0.2-0.1,0.2c-0.3-0.1-0.6-0.1-0.9,0.2c-0.3,0.2-0.5,0.5-0.5,0.8
					c0,0.3,0.1,0.5,0.2,0.7c-0.2,0.2-0.3,0.3-0.3,0.5v0.2c0,0,0.1,0.2,0.1,0.2c-0.2,0.1-0.5,0.2-0.7,0.3c-0.2,0.2-0.2,0.3-0.2,0.5
					c-0.2-0.4-0.4-0.6-0.8-0.7c-0.2,0-0.4,0.1-0.5,0.2c-0.3-0.2-0.6-0.2-0.8-0.2c-0.2,0.1-0.6,0.4-0.6,1c0,0,0,0.2,0.1,0.3
					c-0.2,0.1-0.3,0.2-0.3,0.4l0,0c0,0,0,0,0,0.1l0,0c0,0.1-0.1,0.2-0.1,0.3l0,0c0,0.2,0.1,0.4,0.2,0.5l0,0
					c-0.1,0.1-0.4,0.2-0.5,0.5c-0.3,0.1-0.6,0.2-0.8,0.5c0,0.1-0.2,0.5-0.2,0.5v0.1l0.1,0.4c0.1,0.2,0.3,0.4,0.5,0.5
					c0,0,0.1,0.1,0.1,0.1C64.8,39.9,64.8,40,64.8,40z M65.1,39.7L65,39.5c-0.3-0.2-0.4-0.2-0.5-0.4c0,0-0.1-0.2-0.1-0.3
					c0-0.1,0.1-0.5,0.1-0.5v0.1c0.2-0.3,0.3-0.4,0.6-0.4h0.2l0.1-0.2c0.1-0.2,0.2-0.3,0.3-0.4l0.5-0.1l-0.2-0.2
					c-0.2-0.2-0.3-0.3-0.3-0.5l0.1-0.2c0.1-0.2,0.2-0.2,0.3-0.3l0.1-0.1L66,35.8c0-0.3,0.2-0.5,0.4-0.6c0.2-0.1,0.4-0.1,0.6,0.2
					l0.2,0.2l0.1-0.2c0.1-0.2,0.2-0.2,0.4-0.2c0.2,0,0.4,0.1,0.5,0.6l0.1,0.2c0,0,0.2-0.1,0.3-0.1c0.1,0.1,0.2,0.2,0.2,0.2l0.1-0.2
					l-0.1-0.3l0,0c0-0.2,0.1-0.2,0.2-0.4c0.2-0.2,0.4-0.3,0.6-0.3h0.2l-0.1-0.3l-0.1-0.3v-0.1c0-0.2,0.1-0.2,0.3-0.4l0.2-0.1
					L70,33.7c-0.1-0.2-0.2-0.4-0.2-0.6s0.1-0.4,0.3-0.5c0.2-0.2,0.4-0.2,0.8-0.1l0.2,0.1L71,32.4c0.1-0.1,0.2-0.2,0.3-0.2l0.2-0.1
					L71.3,32l-0.1-0.5c0-0.2,0.1-0.4,0.3-0.5c0.3-0.2,0.6,0,1,0.4l0.1,0.1l0.1-0.1c0.2-0.1,0.2-0.1,0.4,0c0.2,0.1,0.4,0.3,0.4,0.7
					v0.1l0.2,0.1l0.1,0.1l0.2,0.2l0.1,0.1l0.2-0.2l0.2-0.2c0.2-0.1,0.2-0.1,0.4-0.1l0.2,0.1l0.1-0.2c0.2-0.5,0.4-0.8,0.7-0.8
					c0.2,0,0.3,0.1,0.5,0.3l0.1,0.1h-0.1c0.1,0,0.2,0.1,0.3,0.1l0.2,0.1l0.1-0.2c0.3-0.3,0.5-0.5,0.8-0.4c0.2,0.1,0.5,0.2,0.5,0.7
					v0.2l0.2,0.1c0.2,0.1,0.3,0.2,0.4,0.4l0.1,0.3c0,0.2-0.1,0.3-0.3,0.5l-0.2,0.1l0.1,0.1l0.1,0.5l0.2-0.2c0.2-0.2,0.4-0.2,0.5-0.2
					c0.2,0,0.4,0.1,0.5,0.3c0.2,0.2,0.2,0.3,0.2,0.5l-0.1,0.3l0.3,0.1l0.2-0.1l0.2-0.1l0.1,0.1l0.1-0.1c0.2-0.2,0.5-0.4,0.8-0.4
					c0.2,0.1,0.3,0.2,0.4,0.2l0.1,0.1l0.2-0.1c0.4-0.2,0.7-0.1,0.9,0.2C83,34.8,83,34.9,83,35v0.2c-0.1,0.2-0.2,0.3-0.4,0.5
					l-0.2,0.1l0.1,0.5l0.2-0.1c0.3-0.1,0.5-0.1,0.6-0.1c0.2,0.1,0.3,0.2,0.3,0.3l0.1,0.3c0-0.1-0.1,0.3-0.1,0.3l-0.1,0.2l0.1,0.1
					l0.1,0.1c0,0.1,0.1,0.2,0.1,0.2l0.1,0.2l0.2-0.1c0.4-0.1,0.6,0,0.8,0.3l0.1,0.4c0,0.2-0.2,0.5-0.5,0.6l-0.1,0.1l0.1,0.2l0.1,0.2
					l-0.1,0.2c-0.2,0.4-0.7,0.3-1.2,0.2l-0.2-0.1L83,40.1c-0.1,0.2-0.2,0.2-0.3,0.3l-0.2,0.1l0.1,0.2l0.1,0.2v0.2l-0.1,0.4l0.3-0.2
					c0.5-0.3,0.8-0.3,1-0.1c0.2,0.2,0.2,0.3,0.2,0.4v0.2l0.2,0.1c0.5,0.2,0.7,0.4,0.7,0.7v0.1c-0.1,0.2-0.2,0.3-0.3,0.5
					c-0.2,0.2-0.4,0.2-0.5,0.1H84L84,43.2c-0.1,0.2-0.2,0.3-0.3,0.4c-0.2,0.1-0.4,0.1-0.6-0.1L83,43.5L83,43.5l-0.2,0.2l-0.1,0.1
					l-0.1,0.2c-0.1,0.2-0.2,0.3-0.5,0.3h-0.2L82,44.3c-0.1,0.1-0.1,0.2-0.2,0.2l-0.2,0.1l-0.1,0.1l-0.1,0.2l0.1,0.1
					c0.1,0.1,0.2,0.2,0.2,0.4c0,0.1-0.2,0.4-0.2,0.4c-0.1,0.1-0.3,0.3-0.7,0.2h-0.1l-0.1,0.1c-0.1,0.1-0.2,0.2-0.4,0.2
					c-0.3,0-0.4-0.1-0.5-0.2l-0.1-0.1l-0.1,0.1c-0.1,0.1-0.2,0.1-0.4,0.1c-0.3-0.1-0.5-0.4-0.6-0.7l-0.1-0.1h-0.1l-0.5-0.4
					c-0.1-0.1-0.2-0.2-0.2-0.7l-0.1-0.2L77.5,44c-0.4,0.2-0.7,0.5-1,0.9c-0.4,0.6-0.5,1.3-0.5,1.8c0,0.7,0.2,1.3,0.2,1.5l0.1,0.1
					c0.2,0.3,0.4,0.8,1.5,1.2l0.2,0.1c0.9,0.4,1.3,0.5,1.5,0.8l0.1,0.1l0.5,0.2l0.1-0.1c0.2-0.1,0.4-0.2,0.5-0.2
					c0.5,0,0.8,0.2,1.1,0.5c0.2,0.3,0.3,0.8,0.1,1.2c-0.2,0.4-0.6,0.6-1.2,0.6c-0.2,0-0.4-0.1-0.6-0.2l-0.1-0.1l0.1,0.2
					c-0.2,0.1-0.3,0.2-0.6,0.2c-0.2,0-0.4-0.1-0.5-0.2l-0.1-0.1l-0.1,0.1c-0.2,0.1-0.3,0.2-0.5,0.2c-0.2,0-0.3-0.1-0.5-0.2l-0.1-0.1
					l-0.1,0.1c-0.1,0.1-0.3,0.2-0.6,0.2c-0.2,0-0.4-0.1-0.5-0.2l0.1,0.1l-0.1,0.1c-0.2,0.1-0.3,0.2-0.5,0.2c-0.2,0-0.3-0.1-0.5-0.2
					l-0.1-0.1l-0.1,0.1c-0.1,0.1-0.2,0.2-0.5,0.2c-0.2,0-0.3-0.1-0.5-0.2L74,52.6l-0.1,0.1c-0.2,0.1-0.3,0.2-0.5,0.2
					c-0.2,0-0.3-0.1-0.5-0.2l-0.1-0.1v0.1c-0.1,0.1-0.3,0.2-0.6,0.2c-0.2,0-0.4-0.1-0.5-0.2l-0.1-0.1l-0.1,0.1
					c-0.1,0.1-0.3,0.2-0.5,0.2s-0.3-0.1-0.5-0.2l-0.1-0.1l-0.1,0.1c-0.2,0.1-0.4,0.2-0.6,0.2c-0.2,0-0.4-0.1-0.5-0.2l-0.1-0.1
					l-0.1,0.1c-0.2,0.1-0.4,0.2-0.5,0.2c-0.5,0-0.8-0.2-1.1-0.5c-0.2-0.3-0.2-0.8-0.1-1.2c0.2-0.2,0.4-0.6,1.2-0.6
					c0.2,0,0.4,0.1,0.6,0.2l0.1,0.1l0.1-0.1c0.2-0.1,0.3-0.2,0.6-0.2h0.2l0.1-0.1c0.5-0.4,1.3-0.8,1.8-1l0.3-0.2
					c0.6-0.3,1-0.9,1.2-1.8v-0.1L73,46.6c-0.4-0.6-0.6-0.9-0.6-1.1c-0.1-0.2-0.5-0.8-1-1.2L71,44.2l-0.1,0.2
					c-0.2,0.6-0.4,0.8-0.5,0.8c0,0-0.2,0.1-0.3,0.1c-0.1-0.1-0.2-0.2-0.2-0.2l-0.1,0.3c-0.2,0.3-0.3,0.6-0.8,0.7
					c-0.2,0.1-0.4,0.1-0.5-0.2l-0.1-0.2l-0.2,0.1c-0.5,0.2-0.8,0.4-1.1,0.1c-0.1-0.2-0.2-0.3-0.2-0.4c0-0.2,0.1-0.4,0.3-0.6
					l-0.2-0.3c-0.5,0.3-0.8,0.4-1,0.2C66,44.7,66,44.6,66,44.5l-0.1-0.2h-0.2c-0.4,0-0.6-0.2-0.8-0.5c0,0-0.1-0.2-0.1-0.2
					c0-0.1,0.1-0.2,0.1-0.2l0.4-0.3l-0.4-0.1c-0.2,0-0.3-0.1-0.4-0.2c-0.2-0.1-0.2-0.2-0.2-0.4l0.1-0.3l-0.2-0.1
					c-0.4-0.2-0.5-0.4-0.5-0.6v-0.2c0.1-0.2,0.1-0.3,0.2-0.4s0.3-0.1,0.5-0.1l0.2,0.1v-0.2c0-0.2,0.1-0.4,0.4-0.5l0.3-0.1h0.1
					l-0.1-0.1c0,0-0.2-0.2-0.1-0.3C65,39.8,65.1,39.7,65.1,39.7z"/>
			</g>
		</g>
		<path class="st1" d="M72.6,52c0.2,0.2,0.5,0.4,0.7,0.4c0.3,0,0.4-0.2,0.5-0.2c0.1-0.1,0.2-0.1,0.2-0.1c0,0,0.2,0.2,0.5,0.2
			c0.2,0,0.3-0.1,0.3-0.1c-0.1-0.1-0.1-0.1-0.1-0.2L74,51.1c-0.2-0.2-0.5-0.4-0.7-0.4c-0.3,0-0.4,0.2-0.5,0.2
			C72.8,51,72.7,51,72.6,51c0,0-0.2-0.2-0.5-0.2c-0.2,0-0.3,0.1-0.3,0.1c0.1,0.1,0.1,0.1,0.1,0.1L72.6,52z"/>
		<path class="st1" d="M67.7,52c-0.1-0.2-0.2-0.5,0-0.8c0.2-0.3,0.4-0.4,0.8-0.4c0.3,0,0.7,0.2,0.8,0.4l0.7,1
			c0.1,0.1,0.1,0.1,0.2,0.1c-0.1,0.1-0.2,0.1-0.4,0.1c-0.4,0-0.5-0.2-0.5-0.2c-0.1-0.1-0.2-0.1-0.2,0.1c0,0-0.2,0.2-0.5,0.2
			C68,52.4,67.8,52.3,67.7,52z"/>
		<path class="st1" d="M71.5,37c0.2-0.1,0.3-0.2,0.5-0.4c0.3-0.2,0.5-0.3,0.8-0.3c-0.3-0.5-0.6-0.5-0.8-0.6l-0.2-0.1
			c-0.1,0-0.1-0.1-0.1-0.1c-0.1-0.1-0.2-0.2-0.2-0.2c0,0.1,0,0.2,0,0.2v0.2L71.4,36C71.3,36.1,71.2,36.5,71.5,37z"/>
		<path class="st1" d="M75.1,35.6L75.1,35.6C75,35.6,75,35.6,75.1,35.6L75.1,35.6z"/>
		<path class="st1" d="M68.2,39l-0.1,0.2l-0.3,0.2c-0.1,0.1-0.1,0.1-0.2,0.1l0,0c-0.2,0.1-0.3,0.1-0.3,0.2c-0.1,0.2,0.1,0.3,0.3,0.4
			l0.2,0.2c0,0.1,0,0.1,0,0.2c0.2-0.1,0.4-0.1,0.6,0.1c0.1-0.1,0.1-0.1,0.2-0.1c0.3-0.1,0.5,0.1,0.7,0.2c0.1-0.2,0.2-0.3,0.4-0.3
			c0.3,0.1,0.5,0.3,0.6,0.5c0.1-0.1,0.1-0.2,0.2-0.2v-0.1c0-0.1,0-0.2,0.1-0.3c0,0,0.1-0.1,0.2-0.1l0,0c-0.1-0.1-0.2-0.2-0.3-0.3
			C70,40,69.5,40.1,69.1,40c-0.2-0.1-0.4-0.3-0.4-0.5C68.5,39.3,68.3,39.2,68.2,39C68.2,38.9,68.2,38.9,68.2,39z"/>
		<path class="st1" d="M67.4,40.9c-0.1,0-0.2,0-0.3,0.1c-0.1,0.1,0,0.2,0.1,0.3l0.1,0.1l0.1,0.2l0.2,0.4c0.2,0.2,0.4,0.4,0.5,0.5
			l0.6-1c-0.1-0.1-0.2-0.3-0.2-0.5c0-0.1,0-0.2,0.1-0.2c-0.4-0.1-0.6,0.1-0.7,0.2l-0.1,0.1C67.5,40.9,67.4,40.9,67.4,40.9z"/>
		<path class="st1" d="M77.5,39.6C77.5,39.5,77.5,39.5,77.5,39.6c0.2-0.2,0.5-0.5,0.8-0.5c-0.2-0.2-0.2-0.4-0.2-0.6
			c-0.1,0.2-0.4,0.4-0.6,0.5c0.1,0.1,0.1,0.1,0.2,0.2c0,0.1,0,0.1,0,0.1C77.6,39.3,77.5,39.4,77.5,39.6
			C77.5,39.5,77.5,39.5,77.5,39.6z"/>
		<path class="st1" d="M80.1,40.4L80.1,40.4C80,40.3,80,40.3,80.1,40.4L80.1,40.4z"/>
		<path class="st1" d="M78.7,40.2c0.1,0.1-0.5,0.3-0.9,0.5c-0.2,0.1-0.4,0.2-0.5,0.2l0,0c-0.2,0.1-0.3,0.2-0.4,0.4
			c0.2,0.1,0.8,0.2,0.9,0.2v-0.1c0-0.1,0.1-0.2,0.2-0.3h0.3c0.2,0.1,0.5,0.2,0.8,0l-0.1-0.1l-0.1-0.2c0-0.1-0.1-0.1,0-0.1
			c0.1-0.1,0.1,0,0.1-0.1h0.3c0.2,0,0.2,0.1,0.3,0.1c0.1,0,0.1,0,0.1,0c0.1,0,0.2-0.1,0.2-0.2l-0.1-0.2l-0.1-0.2
			c0-0.2,0.2-0.2,0.2-0.3c0.2-0.2,0.4-0.2,0.3-0.4c-0.1-0.1-0.4-0.1-0.5,0h-0.3l-0.2-0.2c-0.1-0.1-0.1-0.1-0.2-0.2
			c-0.1-0.1-0.2,0.1-0.3,0.2c-0.2,0.1-0.2,0.2-0.4,0.1l-0.2-0.2l-0.1-0.1c-0.1-0.1-0.2,0.1-0.6,0.4L77.3,40c-0.1,0-0.2,0-0.2-0.2
			c-0.2,0.1-0.4,0.5-0.5,0.8c0.2-0.1,0.7-0.3,1-0.4C78.2,40.2,78.7,40.1,78.7,40.2z"/>
		<path class="st1" d="M68.7,37.8l-0.2,0.1h-0.2h-0.1v0.1l0.1,0.2l0,0c0,0.3,0.2,0.8,0.5,0.9l0,0c0,0,0.1,0,0.2-0.2
			c0.3-0.3,0.6-0.9,0.6-1.1C69.3,37.8,68.9,37.8,68.7,37.8z"/>
		<path class="st1" d="M83.1,37.7c-0.1,0.1-0.1,0.1-0.2,0.1c0.2,0.1,0.3,0.2,0.3,0.5v0.1c-0.1,0.5-0.7,0.5-1.2,0.5
			c0.1,0.1,0.1,0.2,0.1,0.3c0,0.1,0,0.1-0.1,0.2c-0.2,0.5-1.2,0.5-1.5,0.5c0,0.1,0,0.1,0,0.1c0,0.1,0,0.2-0.1,0.2
			c0.1,0,0.2,0.1,0.3,0.1l0.1,0.1c0.5-0.1,0.8,0,1,0.1c0.1-0.1,0.2-0.1,0.3-0.1c0.3,0.1,0.5,0.1,0.5-0.1v-0.1c0-0.1,0-0.2,0.2-0.3
			c0.1-0.1,0.3-0.1,0.5,0c0.3,0.1,0.7,0.2,0.8,0c0-0.1-0.1-0.2-0.1-0.2c-0.1-0.1-0.2-0.2-0.1-0.4l0.2-0.2c0.4-0.2,0.5-0.3,0.4-0.6
			c-0.1-0.2-0.2-0.2-0.5-0.1c-0.2,0.1-0.4,0.2-0.5-0.1v-0.3c0-0.1,0-0.2,0-0.2c0,0-0.1-0.1-0.3-0.1C83.1,37.6,83.1,37.6,83.1,37.7z"
			/>
		<path class="st1" d="M77.9,38c0.1,0.1,0.2,0.2,0.2,0.2c0.1-0.2,0.1-0.3,0.2-0.4c0.2-0.4,0.7-0.5,0.8-0.5c0.3-0.2,0.6-0.2,0.9-0.2
			c0.1-0.2,0.2-0.4,0.5-0.5c0-0.1,0-0.2-0.2-0.3c-0.2-0.2-0.4-0.1-0.6,0.1c-0.2,0.1-0.3,0.2-0.4,0.2l-0.2-0.2
			c-0.1-0.1-0.2-0.3-0.2-0.3c-0.1,0.1-0.2,0.1-0.2,0.2c0.1,0.1,0.1,0.2,0.1,0.3c0,0.1,0,0.1-0.1,0.2c-0.1,0.2-0.3,0.4-0.4,0.5
			c0.1,0.1,0.1,0.2,0.1,0.3C78.3,37.5,78.2,37.8,77.9,38z"/>
		<path class="st1" d="M76.6,36.3c0.1-0.5-0.1-0.7-0.2-0.8l-0.1-0.1c0-0.1-0.1-0.2-0.2-0.2s-0.2,0.1-0.2,0.1l-0.1,0.1
			c-0.2,0.1-0.6,0.3-0.7,0.6C75.8,36,76.5,36.2,76.6,36.3L76.6,36.3z"/>
		<path class="st1" d="M80.5,37.4l-0.1,0.1l-0.2,0.1c-0.1,0-0.1,0-0.1,0c-0.2-0.1-0.5-0.2-0.9,0.2c-0.1,0.7,0.4,0.9,0.9,1.2
			c0.3-0.3,0.4-0.6,0.4-0.8c0-0.1,0-0.2,0-0.2v-0.1l0.1-0.2C80.5,37.5,80.5,37.4,80.5,37.4z"/>
		<path class="st1" d="M77,41.9c0.1-0.1,0.2-0.1,0.2-0.2c-0.2-0.1-0.3-0.1-0.4-0.2c-0.1,0.2-0.2,0.4-0.3,0.6
			c-0.2,0.3-0.2,0.8-0.2,1.2c0,0.1,0,0.1,0,0.2c0.2-0.2,0.3-0.3,0.4-0.5c-0.2-0.2-0.2-0.6,0-0.8L77,41.9z"/>
		<path class="st1" d="M79.4,41.4c0.1-0.1,0.2-0.2,0.2-0.2s0,0,0-0.1c0-0.1,0-0.1,0-0.1c-0.1,0-0.2,0-0.3,0c0,0.1,0.1,0.1,0.1,0.1
			c0,0.1-0.1,0.2-0.1,0.2c-0.4,0.3-0.8,0.2-1.1,0.2c0,0,0,0-0.1,0c0,0.1-0.1,0.2-0.2,0.3c-0.1,0.1-0.3,0.1-0.5,0
			c-0.1,0.2-0.2,0.3-0.3,0.4L77,42.5c-0.1,0.2-0.1,0.3-0.1,0.4c0.2-0.2,0.3-0.3,0.5-0.4c0,0,0.3-0.2,0.5-0.3
			c0.1-0.1,0.5-0.2,0.6-0.1c0.1,0.1-0.4,0.3-0.5,0.3c-0.2,0.1-0.3,0.2-0.4,0.3c-0.1,0.2-0.2,0.4-0.3,0.6c0.2-0.1,0.3-0.1,0.5-0.1
			l0.2-0.1c0.2-0.1,0.4-0.1,0.5-0.2l0.1-0.1v-0.1c-0.1-0.1-0.1-0.2-0.1-0.2c0-0.1,0-0.1,0.1-0.2l0.3-0.1c0.4-0.1,0.5-0.1,0.6-0.3
			c0,0,0,0,0-0.1c0-0.1-0.1-0.1-0.1-0.2s-0.1-0.1-0.1-0.2c0-0.1,0-0.1,0-0.1L79.4,41.4z"/>
		<path class="st1" d="M82.2,36.6c-0.1-0.1-0.1-0.2-0.2-0.2c-0.2-0.1-0.4,0.2-0.6,0.4C81.3,36.9,81.3,37,81,37l-0.2-0.1
			c-0.1-0.1-0.2-0.2-0.3-0.1c-0.1,0.1-0.2,0.2-0.3,0.3c0.1-0.1,0.3-0.1,0.4,0.1s0.1,0.4,0.1,0.5c0,0,0,0.1,0,0.1c0,0.1,0,0.2,0,0.4
			c0.3-0.2,0.8-0.6,0.9-0.5c0.1,0.1-0.4,0.6-0.9,0.9c-0.1,0.1-0.2,0.2-0.2,0.2c-0.1,0.2-0.2,0.2-0.3,0.4c0,0.1,0,0.2-0.1,0.3
			c0.1,0,0.2,0.1,0.2,0.1h0.2c0.3,0,1.2,0.1,1.3-0.3c0.1-0.1-0.1-0.2-0.2-0.3c-0.1-0.1-0.1-0.2-0.1-0.3c0.1-0.2,0.2-0.1,0.4-0.1
			c0.8,0,0.9-0.1,0.9-0.2c0-0.2-0.1-0.2-0.2-0.3l-0.2-0.2c-0.1-0.1-0.1-0.1,0-0.2c0.1-0.2,0.2-0.2,0.4-0.4c0.1-0.1,0.1-0.1,0.2-0.1
			l0.1-0.1c0.2-0.2,0.3-0.3,0.2-0.5c-0.1-0.1-0.1-0.1-0.1-0.1c-0.2-0.1-0.5,0.1-0.6,0.2l-0.2,0.1C82.3,36.8,82.2,36.7,82.2,36.6z"/>
		<path class="st1" d="M82,40.7c-0.2-0.2-0.6-0.3-1.2-0.2c-0.1,0.2-0.1,0.5-0.1,0.8c0.1,0.3,0.2,0.5,0.3,0.6c0,0.1,0.1,0.1,0.1,0.1
			c0.7-0.2,0.8-0.5,0.9-0.7l0.1-0.2l0.2-0.2l0.1-0.1c0-0.1-0.2-0.1-0.2-0.1C82.1,40.8,82,40.7,82,40.7z"/>
		<path class="st1" d="M76,41.1c0.1,0,0.1-0.1,0.1-0.1c0.1-0.1,0.2-0.1,0.2-0.1c0.1-0.2,0.1-0.4,0.2-0.6c-0.2,0.2-0.5,0.2-0.5,0.2
			C76,40.7,76,40.8,76,41.1C76,41,76,41.1,76,41.1z"/>
		<path class="st1" d="M77.2,39.1L77.2,39.1L77,39C77,39,76.9,39,76.9,39c0-0.1,0-0.1,0.1-0.1l0.2-0.2c0.2-0.1,0.6-0.3,0.5-0.5
			l-0.1-0.1L77.4,38c-0.1-0.1,0.1-0.2,0.2-0.2c0.3-0.2,0.5-0.5,0.4-0.7h-0.2L77.6,37c-0.1-0.1-0.2-0.2-0.2-0.3c0-0.1,0-0.3-0.1-0.3
			c0,0-0.1-0.1-0.5,0.3l-0.1,0.1c-0.1,0.1-0.2,0-0.2-0.1l-0.1-0.1c-0.2,0-0.3,0.5-0.3,0.6l-0.1,0.2c-0.1,0.1-0.2,0.1-0.3,0l-0.1-0.1
			c-0.1,0.1-0.2,0.1-0.2,0.2c-0.1,0.1-0.1,0.2-0.1,0.2c0,0.2,0.1,0.5,0.2,0.6c0.1,0.1,0.1,0.2,0.1,0.2c0,0.1-0.1,0.1-0.1,0.2v0.2
			c-0.1,0-0.1,0-0.2,0.1c-0.1,0.1-0.1,0.2-0.1,0.2c0,0.2,0.2,0.5,0.2,0.8c0.1-0.1,0.1-0.2,0.1-0.3c0.1-0.3,0.6-1.3,0.8-1.2
			s-0.5,1-0.5,1.4c-0.1,0.2-0.1,0.3-0.2,0.5C76.4,40,77.3,39.5,77.2,39.1z"/>
		<path class="st1" d="M72,40.2c0-0.2,0.2-0.4,0.2-0.5c-0.1-0.2-0.2-0.3-0.2-0.4s0.1-0.3,0.2-0.5c-0.1-0.1-0.2-0.1-0.4,0
			c-0.1,0.1-0.2,0.1-0.3,0c0,0-0.1-0.1-0.1-0.1c-0.1-0.2-0.2-0.5-0.4-0.5h-0.1c-0.3,0.2-0.3,0.4-0.3,0.7c0,0.2,0,0.2-0.1,0.3
			l-0.2,0.1c-0.1,0.1-0.1,0.1-0.1,0.1c-0.1,0.2,0.1,0.3,0.2,0.5c0.1,0.1,0.2,0.2,0.2,0.3c0,0-0.2,0.2-0.2,0.3c0,0.1,0,0.2,0,0.2v0.1
			c0.2,0.2,0.3,0.5,0.4,0.8l0.1-0.1l0.2,0.1c0.1,0,0.1,0.1,0.1,0.1c-0.1-0.2-0.1-0.3-0.1-0.5c-0.1-0.7-0.1-0.9,0.1-1
			c0.1-0.1,0.2,0.2,0.3,1c0.1,0.4,0.2,0.7,0.2,0.8c0.1,0.1,0.2,0.1,0.2,0.2c0.2-0.1,0.5-0.3,0.5-0.5v-0.1l0,0
			c-0.1-0.1-0.1-0.2-0.1-0.2c0-0.2,0.1-0.3,0.2-0.3C72.4,40.8,72,40.7,72,40.2z"/>
		<path class="st1" d="M73.8,45.6c0-0.1,0.1-0.2,0.1-0.3c0-0.2-0.1-0.6-0.2-1.2c-0.2-1.3-0.9-1.5-1.2-1.6c0,0,0,0-0.1,0
			c0.1,0.2,0.2,0.5,0.2,0.8c0,0.1,0,0.2,0,0.2C72.6,44.5,73.5,45.4,73.8,45.6z"/>
		<path class="st1" d="M70.3,42.1c0.2,0.2,0.4,0.3,0.6,0.4c0,0,0.1,0,0.1,0.1l0,0c0.3,0.2,0.5,0.3,0.6,0.2v-0.1
			c-0.1-0.7-0.2-0.9-0.2-0.9c-0.1,0-0.1,0.1-0.2,0.2C71.1,41.9,71,42,71,42s-0.1-0.1-0.1-0.2c0.1-0.5-0.2-0.8-0.3-0.9
			c-0.1,0-0.2,0.2-0.2,0.3s-0.1,0.2-0.2,0.2s-0.2-0.1-0.2-0.2c0-0.2-0.1-0.5-0.4-0.6c0,0.1-0.1,0.1-0.1,0.1
			c-0.1,0.1-0.2,0.3-0.3,0.2l-0.1-0.1c-0.1-0.1-0.4-0.2-0.5-0.2c-0.1,0-0.1,0.1-0.2,0.1c-0.1,0.2-0.1,0.3,0.2,0.5l0.2,0.2
			c0,0.2-0.2,0.2-0.2,0.2c-0.1,0.1-0.2,0.1-0.2,0.1c0,0.2,0.1,0.2,0.4,0.2l0.2,0.1c0.2,0.2-0.1,0.3-0.1,0.4c0,0-0.1,0.2-0.1,0.1
			c0.1,0.2,0.3,0.3,0.5,0.3h0.1l0,0c0.1,0,0.2,0,0.2,0c0.2,0,0.3,0,0.3,0.2L70,43.2c0,0-0.1,0.1-0.1,0.1c0.2,0.2,0.5,0.2,1.2-0.1
			c0-0.1-0.2-0.3-0.4-0.5c0,0-0.1,0-0.1-0.1c-0.2-0.1-0.4-0.3-0.6-0.4c0,0-0.5-0.4-0.4-0.5C69.7,41.8,70.3,42.1,70.3,42.1z"/>
		<path class="st1" d="M74,42L74,42c0,0.3,0.1,0.7,0.3,1.1c0,0,0.5,0.8,0.5,0.9c0.1-0.3,0.2-0.8,0.2-1c0-0.1,0-0.2,0-0.2
			c0-0.2,0-0.5-0.1-0.7h-0.1C74.6,42.1,74.5,42.2,74,42z"/>
		<path class="st1" d="M75.5,38.4c-0.1-0.2-0.2-0.5-0.2-0.7c0-0.1,0-0.2,0.1-0.3c0-0.1-0.1-0.3-0.2-0.3c-0.1,0-0.1,0-0.2,0.1
			s-0.2,0.2-0.3,0.2l-0.2-0.2c-0.2-0.3-0.5-0.5-0.7-0.5c-0.2,0.1-0.2,0.3-0.2,0.7c0,0.2,0.1,0.3-0.2,0.4c-0.1,0.1-0.2,0.1-0.2,0.2
			c-0.1,0.2,0.1,0.4,0.2,0.5l0.1,0.1c0.3,0.1,0.6,0.5,0.7,0.8c0.2-0.1,0.4-0.3,0.6-0.1s0.4,0.7,0.4,0.9l0,0c0.1,0,0.2-0.1,0.2,0
			c-0.2-0.2-0.3-0.6-0.3-1c0-0.2,0.1-0.3,0.2-0.5C75.4,38.5,75.5,38.5,75.5,38.4z"/>
		<path class="st1" d="M75.2,41.4c0.2-0.6,0.2-0.9,0.2-0.9h-0.2c-0.1,0-0.2,0.1-0.3-0.1c-0.1-0.1-0.1-0.2-0.1-0.2
			c0-0.2-0.2-0.7-0.3-0.8c-0.1,0-0.2,0.1-0.2,0.2c-0.1,0.1-0.2,0.2-0.3,0.1c-0.1,0-0.1-0.1-0.2-0.2c-0.1-0.3-0.5-0.7-0.6-0.7
			c-0.2,0.1-0.2,0.3-0.2,0.3c0,0.1-0.1,0.2-0.1,0.2c-0.1,0.1-0.2,0-0.2-0.1c-0.1-0.1-0.2-0.2-0.4,0c-0.3,0.2,0,0.5,0,0.5
			c0.1,0.1,0.1,0.1,0.1,0.2s-0.1,0.1-0.1,0.1c-0.1,0.1-0.2,0.2-0.2,0.3c0,0.2,0.2,0.2,0.5,0.3c0.2,0.1,0.3,0.1,0.3,0.2
			c0,0.2-0.1,0.2-0.1,0.2c-0.1,0.1-0.2,0.2-0.1,0.4c0.1,0.2,0.1,0.2,0.2,0.2c0.2,0.1,0.4-0.1,0.6-0.2l0.3-0.1c0.1,0,0.1-0.1,0.1,0
			c0.1,0.1,0,0.1,0,0.1c0,0,0,0.2,0,0.2l0.2,0.1c0.3,0.2,0.5,0.2,0.7,0.1H75c0-0.1-0.1-0.1-0.1-0.2c0,0,0-0.1-0.1-0.1
			c-0.1-0.2-0.2-0.4-0.5-0.6c-0.3-0.3-0.8-0.6-0.7-0.7c0.1-0.1,0.5,0.2,0.9,0.5c0.2,0.2,0.4,0.4,0.4,0.4
			C75.1,41.2,75.2,41.3,75.2,41.4z"/>
		<path class="st1" d="M75.1,50.6L75.1,50.6c0.1-0.2,0-0.3-0.1-0.5C75,50.1,74.9,50,74.8,50c-0.2,0-0.4,0.2-0.5,0.4
			c0.1,0,0.2,0,0.2,0C74.8,50.5,75,50.6,75.1,50.6z"/>
		<path class="st1" d="M78.8,51.2c-0.2-0.2-0.5-0.4-0.7-0.4c-0.3,0-0.4,0.2-0.5,0.2c-0.1,0.1-0.2,0.1-0.2,0.1c0,0-0.2-0.2-0.5-0.2
			c-0.2,0-0.3,0.1-0.4,0.1c0.1,0.1,0.1,0.1,0.1,0.1l0.7,1c0.2,0.2,0.5,0.4,0.7,0.4c0.3,0,0.4-0.2,0.5-0.2c0.1-0.1,0.2-0.1,0.2-0.1
			c0,0,0.2,0.2,0.5,0.2c0.2,0,0.3-0.1,0.4-0.1c-0.1-0.1-0.1-0.1-0.1-0.1C79.5,52.2,78.8,51.2,78.8,51.2z"/>
		<path class="st1" d="M72,50.5c0.1,0,0.1,0,0.1,0c0.3,0,0.5,0.1,0.6,0.2c0.1-0.1,0.2-0.1,0.3-0.2c0-0.1,0-0.2,0-0.2
			C72.8,50.3,72.3,50.3,72,50.5z"/>
		<path class="st1" d="M68.5,44.7c0-0.1,0.4-0.4,0.5-0.5c0.3-0.2,0.5-0.4,0.9-0.5c-0.1-0.1-0.2-0.2-0.2-0.2c0-0.1-0.1-0.1-0.1-0.2
			c0-0.1,0.1-0.2,0.1-0.2c-0.1,0-0.2,0-0.2,0c-0.1,0-0.2,0-0.2,0.1l0.1,0.2c0.1,0.1,0.1,0.2,0.1,0.3c0,0.1-0.1,0.1-0.1,0.1
			c-0.1,0.1-0.2,0-0.2-0.1c-0.2-0.1-0.5-0.3-0.8-0.2l-0.1,0.1l0.1,0.1c0.1,0.1,0.2,0.2,0.2,0.2c0,0.1,0,0.1-0.1,0.2
			c-0.1,0.1-0.2,0.1-0.3,0.1c-0.2-0.1-0.4-0.1-0.5,0.2c-0.2,0.2-0.1,0.2,0,0.3c0.1,0.1,0.2,0.2,0.1,0.3l-0.2,0.2
			c-0.3,0.3-0.4,0.5-0.3,0.7c0.1,0.1,0.5-0.2,0.6-0.2l0.4-0.2c0.2,0,0.3,0.2,0.3,0.3c0.1,0.2,0.1,0.2,0.2,0.1
			c0.4-0.1,0.5-0.3,0.5-0.6c0.1-0.2,0.2-0.4,0.3-0.5c0.1-0.1,0.2-0.1,0.2-0.1c0.2,0.1,0.2,0.2,0.2,0.2c0,0,0,0,0,0.1
			c0.2-0.2,0.3-0.5,0.4-0.9c0,0,0-0.1,0.1-0.1c-0.2,0.1-0.4,0.1-0.5,0.2C69.5,44.3,68.5,44.8,68.5,44.7z"/>
		<path class="st1" d="M68,43.7c0-0.1-0.1-0.1-0.1-0.2v-0.1c0-0.1,0.1-0.2,0.2-0.2c-0.2-0.1-0.2-0.2-0.3-0.2
			c-0.2-0.2-0.2-0.4-0.2-0.5c-0.1-0.1-0.2-0.2-0.4-0.3c0,0,0,0-0.1,0c-0.2-0.2-0.4-0.1-0.5,0c0,0.1,0,0.2,0,0.3c0,0.2,0,0.4-0.1,0.5
			c-0.2,0.1-0.3,0-0.5-0.1c-0.2-0.2-0.4-0.2-0.5-0.2l0.1,0.2v0.4l-0.3,0.2c-0.1,0.1-0.2,0.1-0.3,0.2c0,0.1,0,0.1,0,0.2
			c0.1,0.2,0.2,0.2,0.5,0.2l0.3,0.1l0.1,0.3c0,0.1,0,0.2,0.1,0.2c0.2,0.2,0.6-0.2,0.8-0.3l0.2-0.1c0.1-0.1,0.1,0.1,0.2,0.1l0.1,0.1
			c0-0.1,0.1-0.1,0.1-0.2C67.6,43.7,67.8,43.7,68,43.7z"/>
		<path class="st1" d="M84,42l-0.2-0.1c-0.1-0.1-0.2-0.2-0.1-0.3c0.1-0.1,0.1-0.2-0.1-0.3c-0.2-0.2-0.6,0.1-0.8,0.2
			c-0.2,0.1-0.2,0.2-0.3,0.1c-0.1-0.1-0.1-0.2-0.1-0.2c-0.1-0.1-0.1-0.2-0.1-0.2l-0.1,0.1v0.1c-0.1,0.2-0.2,0.4-0.4,0.6
			c0.5,0.1,1.2,0.2,1.2,0.3c0,0.2-1.2-0.1-1.5-0.1c-0.1,0-0.2,0-0.2,0c-0.1,0.1-0.2,0.1-0.3,0.1c0.1,0.1,0.1,0.2,0.1,0.2l0.2-0.1
			c0.2-0.1,0.5-0.1,0.7,0.1c0.2,0.2,0.2,0.3,0.2,0.4c0,0.1-0.1,0.2-0.1,0.2l0,0c0.1,0.1,0.2,0.1,0.3,0.2c0-0.1,0.1-0.1,0.1-0.2
			l0.1-0.2c0.1-0.1,0.2-0.1,0.4,0.1c0.1,0.1,0.4,0.2,0.5,0.2c0.1-0.1,0.1-0.2,0.1-0.3s0-0.2,0.2-0.3h0.3c0.2,0.1,0.4,0.1,0.5,0
			c0.1-0.1,0.1-0.1,0.1-0.2C84.7,42.2,84.5,42.1,84,42z"/>
		<path class="st1" d="M66.4,42.6L66.4,42.6C66.4,42.6,66.4,42.6,66.4,42.6c0.1-0.1,0.1-0.2,0.1-0.2c0-0.2,0.1-0.3,0.2-0.4
			c-0.1,0-0.2-0.1-0.2-0.1C66,42,65.1,42,65.1,41.8s1-0.2,1.4-0.2c0.2,0.1,0.3,0.1,0.5,0.1l-0.1-0.3l-0.1-0.2c0,0,0-0.1-0.1-0.1l0,0
			c-0.2-0.3-0.5-0.5-0.6-0.5s-0.1,0.1-0.2,0.2c0,0.1-0.1,0.2-0.2,0.2c-0.1,0-0.2-0.1-0.3-0.2c-0.2-0.2-0.4-0.4-0.6-0.3
			c-0.1,0-0.1,0-0.1,0.3c0,0.2,0.1,0.3-0.1,0.4h-0.3c-0.2-0.1-0.3-0.1-0.4,0c0,0-0.1,0.1-0.1,0.2c-0.1,0.2,0.2,0.3,0.5,0.5l0.2,0.1
			c0.1,0.2,0,0.3-0.1,0.3c-0.2,0.2-0.2,0.2-0.1,0.3c0.2,0.2,0.4,0.1,0.6-0.1l0.2-0.1c0.1,0,0.1,0,0.2,0
			C65.9,42.3,66.2,42.5,66.4,42.6z"/>
		<path class="st1" d="M77.8,43.5c-0.4-0.1-0.6,0.1-0.6,0.1c-0.1,0.1-0.2,0.1-0.2,0c0-0.1-0.1-0.1-0.1-0.2c0,0,0,0,0-0.1
			c0-0.1,0.1-0.3,0.2-0.4c-0.4,0.4-0.8,0.9-0.9,1.2c-0.1,0.1-0.2,0.1-0.2,0.1c0,0-0.1-0.1-0.1-0.1v0c0.1-0.2,0.1-0.4,0.1-0.7
			c0-0.4,0.1-0.8,0.2-1.2c0.2-0.4,0.3-0.7,0.5-0.9c-0.2,0.1-0.3,0.2-0.4,0.2c-0.3,0.2-0.4,0.2-0.5,0.1l-0.1-0.4c0-0.1,0-0.1,0-0.2
			c-0.1,0.2-0.1,0.4-0.2,0.7c-0.1,0.1-0.2,0.2-0.2,0.1c-0.1,0-0.1-0.1-0.1-0.1l0,0c0.2,0.4,0.2,0.8,0.2,1.2c0,0.1,0,0.2,0,0.2
			c0,0-0.2,1.4-0.5,1.5c-0.1,0-0.2,0-0.2-0.1l-0.3-0.4l-0.5-0.8c-0.4-0.7-0.4-1.3-0.4-1.6v-0.1c-0.2,0.1-0.5,0.2-0.8,0.1l-0.1-0.1
			c-0.1,0.2-0.3,0.4-0.4,0.5l0.1,0.1c0.3,0.1,1.2,0.4,1.5,1.8c0.1,0.4,0.2,0.8,0.2,1.2c0,0.3-0.1,0.5-0.2,0.7C74,46,73.9,46,73.9,46
			c-0.1-0.1-1.6-1-1.6-2.5c0.1-1-0.3-1.3-0.4-1.3l0,0c0.1,0.2,0.1,0.3,0.1,0.5s-0.1,0.3-0.2,0.4c-0.1,0.1-0.2,0.1-0.3,0
			c0.1,0.1,0.1,0.2,0.1,0.3v0.1c0,0.1-0.1,0.2-0.2,0.2c-0.2,0.1-0.4,0.1-0.5,0.2c0.8,0.3,1.5,1.4,1.6,1.7c0.1,0.2,0.4,0.6,0.6,1
			c0.5,0.8,0.5,0.9,0.5,1c-0.2,1-0.6,1.8-1.4,2.2L72,49.8c-0.5,0.2-1.2,0.6-1.6,0.9c0,0,0.1,0,0.1,0.1c0.1-0.1,0.3-0.2,0.6-0.2
			c0.2,0,0.4,0.1,0.6,0.2v-0.1c0.4-0.6,1.2-0.6,1.5-0.6c0.1-0.1,0.1-0.2,0.1-0.3c0.1-0.1,0.2-0.2,0.2-0.4c0.2-0.4,0.5-1.2,0.6-1.2
			c0.1,0,0.1,0.6-0.3,1.3c-0.1,0.2-0.2,0.2-0.2,0.4c-0.1,0.2-0.1,0.2-0.1,0.4c0,0,0,0,0,0.1l0,0c0,0.1,0,0.2,0,0.3
			c0.2,0,0.4,0.1,0.5,0.2c0,0,0,0,0.1,0c0,0,0,0,0-0.1c0.2-0.5,0.5-0.8,0.8-0.8c0.2,0,0.4,0.1,0.5,0.2c0.2,0.2,0.2,0.4,0.2,0.5
			c0.1,0,0.2,0,0.2,0c0.2,0,0.4,0.1,0.6,0.2c0.1-0.1,0.3-0.2,0.6-0.2c0.2,0,0.4,0.1,0.5,0.1v-0.1c-0.2-0.3-0.4-0.4-0.7-0.5
			c-0.5-0.2-1-0.4-1.3-1.2c-0.2-0.4-0.2-0.9-0.3-1.4c0-0.3,0.1-1.4,0.2-1.4s0.2,1,0.2,1.3c0.1,0.5,0.1,0.9,0.2,1.3
			c0.3,0.7,0.7,0.8,1.2,1c0.3,0.2,0.6,0.3,0.8,0.6c0,0,0.1,0.1,0.1,0.2c0.1-0.1,0.2-0.1,0.3-0.1c0.2,0,0.4,0.1,0.6,0.2
			c0.1-0.1,0.2-0.2,0.5-0.2c-0.2-0.2-0.5-0.3-1.2-0.6l-0.2-0.1c-1.2-0.5-1.5-1-1.7-1.4l-0.1-0.1c-0.2-0.4-0.6-2.4,0.2-3.7
			C76.8,44,77.5,43.6,77.8,43.5C77.8,43.5,77.8,43.5,77.8,43.5L77.8,43.5z"/>
		<path class="st1" d="M82.2,43.4c-0.1-0.1-0.2-0.1-0.2-0.2l0.1-0.3c0.1-0.1,0.1-0.2-0.1-0.2c-0.1-0.1-0.3,0-0.4,0.1h-0.4
			c-0.1-0.1-0.2-0.1-0.2-0.2L81,42.7c-0.3,0.2-0.9,0.2-1.4-0.2c-0.2,0.2-0.5,0.2-0.7,0.2c0,0,0,0-0.1,0c0.1,0.1,0.1,0.2,0.1,0.2
			c0.5-0.1,0.8-0.1,0.9,0.1s0.2,0.2,0.2,0.3c0,0.1,0,0.1,0,0.1c0.1,0,0.2,0.1,0.2,0.1c0.4,0.1,0.6,0.1,0.8,0.2
			c0.1,0.1,0.1,0.2,0.1,0.2c0,0.1-0.1,0.2-0.1,0.2c0.1,0,0.1,0.1,0.1,0.1c0.1,0.1,0.2,0.1,0.3,0.1h0.2c0.2,0,0.2,0.1,0.3,0
			c0,0,0.1-0.1,0.1-0.1l0.1-0.2l0.3-0.1c0.2,0.1,0.3,0,0.3-0.1C82.5,43.5,82.5,43.5,82.2,43.4z"/>
		<path class="st1" d="M81.3,45.1l-0.2-0.2v-0.1c0-0.1,0.1-0.2,0.2-0.2l0.1-0.1c-0.1-0.1-0.2-0.1-0.3-0.2c-0.2-0.1-0.3-0.1-0.4-0.2
			c0-0.1,0-0.1,0-0.1c0-0.1,0.1-0.2,0.1-0.2c0.1-0.1,0.1-0.1,0.1-0.2l0,0c-0.1-0.1-0.4-0.1-0.5-0.1c-0.4-0.1-0.5-0.1-0.5-0.2v-0.2
			c0,0,0-0.1,0-0.1c-0.1-0.1-0.5-0.1-1.1,0.2c0.2,0.1,0.4,0.2,0.6,0.4c0.2,0.2,0.5,0.5,0.4,0.6c-0.1,0.1-0.4-0.2-0.6-0.3
			c-0.2-0.2-0.6-0.3-0.8-0.4c0.1,0.4,0.2,0.8,0.3,0.9c0.1-0.1,0.2-0.2,0.3-0.1c0.1,0.1,0.2,0.2,0.2,0.3s0.2,0.6,0.4,0.6
			c0.2,0,0.2-0.1,0.2-0.1c0.1-0.1,0.1-0.2,0.2-0.2l0.2,0.2c0.1,0.1,0.3,0.3,0.4,0.3c0.2,0,0.2-0.1,0.2-0.2c0.1-0.1,0.1-0.2,0.2-0.2
			l0.2,0.1c0.2,0.1,0.3,0.1,0.4-0.1c0-0.1,0.1-0.1,0.1-0.1C81.4,45.2,81.4,45.1,81.3,45.1z"/>
		<path class="st1" d="M76.2,32.3c0.2-0.1,0.3-0.1,0.4,0.1c0.2,0.2,0.2,0.4,0.2,0.5c0,0.3-0.2,0.6-0.3,0.8c0.2,0.1,0.3,0.1,0.3,0.2
			c0,0.1,0.1,0.1,0.1,0.2c0,0.2-0.1,0.4-0.2,0.5c0.2-0.1,0.3-0.1,0.4-0.1v-0.1c0.1-0.3,0.2-0.7,0.6-0.8h0.2c0-0.1,0-0.1,0-0.2
			c0,0,0-0.1-0.1-0.1c-0.1,0-0.2-0.1-0.2-0.2c0-0.1,0-0.2,0.1-0.2c0.2-0.2,0.5-0.5,0.5-0.6c-0.1-0.2-0.2-0.2-0.3-0.2l-0.2-0.1
			c-0.1-0.1-0.1-0.2-0.1-0.3c0.1-0.3,0-0.5-0.2-0.5c-0.2-0.1-0.4,0.2-0.5,0.4c-0.1,0.2-0.2,0.3-0.3,0.2L76.3,32
			c-0.1-0.1-0.1-0.1-0.2-0.1c0,0.1,0.1,0.2,0.1,0.3C76.2,32.2,76.2,32.3,76.2,32.3z"/>
		<path class="st1" d="M74.6,33.9c0.3,0.2,0.4,0.4,0.4,0.6c0,0.3-0.2,0.5-0.2,0.7l0,0c0.1,0,0.2,0,0.2,0c0.1,0,0.1,0,0.1,0
			c0.1-0.2,0.2-0.6,0.3-1c0.1-0.5,0.2-0.8,0.2-0.8c0.2,0,0.2,0.3,0.1,0.8c-0.1,0.4-0.2,0.9-0.2,1.2c0.2-0.2,0.5-0.3,0.6-0.4
			c0.1-0.1,0.2-0.1,0.2-0.1c0.2-0.4,0.4-0.7,0.3-0.8c0-0.1-0.1-0.1-0.2-0.1c-0.1,0-0.2,0-0.3-0.1c-0.1-0.1,0-0.2,0.1-0.3
			c0.2-0.3,0.5-0.6,0.2-1c-0.1,0-0.2,0.1-0.2,0.1c-0.1,0.1-0.2,0.1-0.3,0c-0.1-0.1-0.1-0.2-0.1-0.2c0.1-0.2,0.1-0.5-0.1-0.7
			c-0.1-0.1-0.2-0.2-0.3-0.2c-0.2,0-0.3,0.4-0.3,0.5c-0.1,0.2-0.1,0.3-0.2,0.4h-0.3c-0.1-0.1-0.2-0.1-0.2,0
			c-0.2,0.1,0.1,0.5,0.2,0.7c0.1,0.2,0.2,0.3,0.1,0.5c-0.1,0.1-0.1,0.1-0.2,0.1c-0.2,0-0.3,0.1-0.4,0.2c0,0.1-0.1,0.1-0.1,0.1
			C74.3,33.9,74.4,33.8,74.6,33.9z"/>
		<path class="st1" d="M77.8,34.2c0-0.1-0.1-0.2-0.1-0.2h-0.1c-0.2,0.1-0.3,0.5-0.4,0.6c-0.1,0.2-0.1,0.3-0.2,0.3h-0.1
			c-0.1-0.1-0.2-0.1-0.3,0.1c0.1,0.1,0.1,0.2,0.2,0.2v0.1c0.1,0.2,0.2,0.4,0.2,0.6c0.1-0.1,0.2-0.2,0.3-0.4c0.3-0.3,0.7-0.5,0.7-0.5
			c0.1,0.1-0.2,0.4-0.5,0.6c-0.1,0.1-0.2,0.2-0.2,0.3c0.1-0.1,0.2-0.1,0.3,0c0.2,0.2,0.2,0.4,0.3,0.6c0,0,0,0.1,0,0.1
			c0.1,0,0.1,0,0.1,0c0.1,0,0.1,0,0.2,0c0.1-0.1,0.3-0.2,0.3-0.3c0.1-0.1,0-0.2-0.1-0.2c-0.1-0.1-0.1-0.2-0.1-0.2
			c0-0.1,0.1-0.1,0.2-0.2c0.2-0.1,0.3-0.2,0.4-0.2l0.1-0.1c0.2-0.2,0.3-0.3,0.3-0.3c0-0.2-0.1-0.2-0.2-0.2c-0.1-0.1-0.2-0.2-0.2-0.2
			l0.2-0.3c0.2-0.1,0.3-0.3,0.3-0.4c0-0.1-0.1-0.2-0.1-0.2c-0.1-0.1-0.2-0.2-0.3-0.2c-0.2,0-0.4,0.2-0.5,0.4l-0.3,0.3
			C77.9,34.5,77.9,34.3,77.8,34.2z"/>
		<path class="st1" d="M79.3,36.1c0.1-0.1,0.2-0.1,0.2-0.1c0.2-0.1,0.5-0.3,0.8-0.2c0.1-0.1,0.2-0.2,0.4-0.2
			c0.3-0.2,0.7-0.3,0.7-0.2c0.1,0.1-0.3,0.3-0.5,0.5c-0.1,0.1-0.2,0.1-0.2,0.2c0.2,0.2,0.2,0.3,0.2,0.4c0.2,0,0.3,0.1,0.4,0.2
			c0,0,0.1,0,0.1,0.1c0.1-0.1,0.1-0.1,0.1-0.1c0.2-0.2,0.5-0.6,0.9-0.5c0-0.1-0.1-0.2-0.1-0.3c0-0.1-0.1-0.1,0-0.2
			c0.1-0.1,0.1-0.1,0.1-0.1c0.2-0.1,0.4-0.2,0.4-0.4c0-0.1,0-0.1-0.1-0.2c-0.2-0.2-0.4-0.2-0.6-0.1L81.7,35l-0.2-0.2
			c-0.1-0.1-0.1-0.2-0.2-0.2S81,34.8,80.9,35l-0.4,0.2L80.2,35c0,0-0.2-0.1-0.2-0.2c-0.1,0-0.3,0.3-0.4,0.4l-0.2,0.2h-0.1
			c0,0.2-0.2,0.3-0.3,0.5C79.2,35.9,79.3,36.1,79.3,36.1z"/>
		<path class="st1" d="M66.7,40c0.2,0.2,0,0.4-0.2,0.6c0.1,0.1,0.2,0.2,0.2,0.2l0,0c0.2-0.3,0.4-0.2,0.5-0.3
			c0.1-0.1,0.1-0.1,0.2-0.2l0,0c0-0.1,0-0.1,0-0.1l-0.1-0.1c-0.2-0.1-0.4-0.3-0.4-0.6c0-0.1,0-0.1,0-0.2c0.1-0.2,0.2-0.3,0.4-0.4
			c-0.1-0.1-0.1-0.2-0.1-0.3l-0.1-0.2l0,0l-0.2,0.1c-0.2,0.1-0.4,0.2-0.5,0l-0.1-0.2l-0.2-0.3C66,38,65.7,37.9,65.6,38
			c0.1,0.1,0,0.1,0.1,0.3c0,0.1,0.1,0.2-0.1,0.3h-0.2c-0.2-0.1-0.4-0.1-0.5,0.2c-0.1,0.2-0.1,0.2,0,0.3c0.2,0.2,0.5,0.3,0.7,0.4
			c0.1,0,0.2,0.1,0.2,0.2c0,0.1,0,0.2-0.1,0.2c-0.1,0.1-0.2,0.2-0.2,0.2l0.1,0.1c0.1,0.1,0.2,0.1,0.4-0.1
			C66.1,39.8,66.5,39.7,66.7,40z"/>
		<path class="st1" d="M73.2,33.8C73,33.9,73,34.2,73,34.5c0,0.2,0.1,0.3-0.1,0.4s-0.2,0.1-0.3,0.1s-0.2,0-0.2,0.1
			c-0.1,0.1,0.1,0.3,0.4,0.6c0.1,0.2,0.2,0.2,0.2,0.3c0,0.1,0,0.1-0.1,0.2c0.1,0.1,0.1,0.2,0.2,0.3c0.1,0,0.2,0.1,0.2,0.1
			c0,0.1,0.1,0.2,0.2,0.2c0.1-0.1,0.2-0.2,0.2-0.2c-0.1-0.2-0.1-0.3-0.1-0.5c-0.1-0.4-0.1-0.8,0-0.8c0.1-0.1,0.2,0.5,0.3,0.8
			c0.1,0.2,0.1,0.3,0.2,0.5c0.2,0.1,0.3,0.2,0.5,0.2c0-0.2,0.1-0.3,0.2-0.5c0.1-0.1,0.2-0.2,0.3-0.2c0.1-0.2,0.1-0.3,0.2-0.4H75
			c-0.2,0-0.5,0-0.5-0.2l0.1-0.2c0.2-0.4,0.2-0.7-0.1-0.9l-0.2,0.1c-0.1,0.1-0.2,0.2-0.3,0.2l-0.2-0.2
			C73.6,34.1,73.4,33.8,73.2,33.8z"/>
		<path class="st1" d="M71,35.2l-0.2,0.3c-0.1,0.1-0.2,0.1-0.2,0.2s0.1,0.1,0.5,0.2c-0.1-0.2-0.1-0.5,0.2-0.5c0.2-0.1,0.3,0,0.4,0.1
			c-0.1-0.1-0.1-0.2-0.2-0.4c-0.1-0.2-0.4-0.5-0.3-0.6c0.1-0.1,0.5,0.3,0.6,0.5c0.2,0.3,0.2,0.5,0.3,0.6c0.1,0,0.2,0.1,0.3,0.1
			c-0.2-0.2-0.2-0.4-0.2-0.5c0-0.1,0-0.1,0.1-0.2c0.2-0.2,0.3-0.3,0.5-0.3c0-0.1,0-0.1,0-0.1c0-0.1,0-0.2,0-0.3c0-0.1,0-0.2,0-0.2
			c-0.2-0.1-0.2-0.1-0.3,0c-0.1,0.1-0.2,0.1-0.2,0.1c-0.1-0.1-0.1-0.2-0.2-0.3c0-0.2-0.1-0.8-0.3-0.8c-0.1,0-0.2,0.2-0.2,0.2
			c-0.1,0.2-0.2,0.2-0.3,0.3c-0.1,0-0.2-0.1-0.3-0.2c-0.3-0.4-0.5-0.5-0.8-0.3c-0.2,0.2-0.1,0.5,0.2,0.8l0.1,0.3
			c-0.1,0.1-0.1,0.2-0.2,0.2c-0.2,0.1-0.2,0.1-0.2,0.2c-0.1,0.3,0.3,0.4,0.6,0.5C70.8,34.9,71,35,71,35.2z"/>
		<path class="st1" d="M66.7,38.2L66.7,38.2c-0.1-0.1-0.2-0.3-0.2-0.3l0,0c0.1-0.1,0.2-0.2,0.3-0.2s0.2-0.1,0.2-0.2
			c0.1-0.2-0.1-0.2-0.2-0.2c-0.7-0.3-0.8-0.5-0.7-0.6c0-0.1,0.2-0.1,0.2-0.2l0.2-0.2c0.1-0.1,0.1-0.2,0-0.4
			c-0.1-0.4-0.1-0.6,0.1-0.7c0.1-0.1,0.2,0.1,0.3,0.2l0.2,0.2c0.2,0.1,0.3-0.2,0.4-0.3c0.1-0.1,0.1-0.2,0.2-0.2
			c0.2,0,0.2,0.4,0.2,0.6c0.1,0.2,0.1,0.4,0.2,0.4c0.2,0.1,0.3-0.1,0.4-0.2c0.1-0.1,0.1-0.1,0.1-0.1c0.2,0.1,0.2,0.3,0.2,0.5
			c0,0.2,0,0.4,0.2,0.4c0.1,0.1,0.2,0.2,0.5-0.1c0.2,0.2,0.5,0.2,0.6,0.2c0,0,0.1,0,0.2,0l0,0c0,0.1-0.1,0.2-0.1,0.2
			c-0.6-0.2-1-0.1-1.2-0.1h-0.1h-0.2l-0.3,0.2c0,0,0,0,0,0.1c-0.2-0.2-0.4-0.3-0.5-0.5c-0.3-0.3-0.4-0.7-0.5-0.7
			c-0.2,0.1,0.1,0.6,0.2,0.8c0.2,0.3,0.6,0.6,0.8,0.8l0,0c0,0.2,0,0.3,0.1,0.5C68,38.7,68,38.8,68,39l0,0c-0.1,0-0.1,0-0.1,0l0,0
			c-0.1-0.1-0.1-0.2-0.1-0.3c-0.1-0.2-0.1-0.3-0.2-0.4c-0.2-0.1-0.3-0.1-0.5,0.1L67,38.4L66.7,38.2z"/>
		<path class="st1" d="M69.5,36.3l-0.1,0.3l-0.1,0.2c0,0.2,0.2,0.2,0.5,0.3c0.2,0,0.4,0.1,0.5,0.2c0.1,0.1,0,0.2,0,0.3h0.1
			c0.2,0.1,0.5,0.3,0.6,0.5C71,38,71,38,71.1,38h0.3c0.2,0.1,0.4,0.4,0.5,0.6c0.2-0.1,0.5-0.2,0.7,0.2c0.2-0.1,0.3,0,0.4,0.1
			c0.1-0.1,0.1-0.2,0.2-0.2c-0.1-0.1-0.2-0.3-0.2-0.5c-0.3,0.2-0.7,0.2-1.2,0c-0.3-0.2-0.5-0.4-0.6-0.6c-0.1-0.2,0-0.2,0.1-0.3l0,0
			l0,0C71,36.7,71,36.3,71.1,36c-0.3-0.1-0.7-0.2-0.7-0.4c-0.1,0-0.1,0-0.1,0l-0.3-0.2c-0.3-0.2-0.6-0.4-0.8-0.1
			c-0.2,0.2-0.1,0.3,0.2,0.5C69.3,36,69.5,36.3,69.5,36.3z"/>
		<path class="st1" d="M71.9,32.6c0.5,0.1,0.5,0.7,0.6,1c0.1-0.1,0.3-0.1,0.5,0.1c0.1-0.1,0.2-0.2,0.2-0.2c0.2-0.1,0.3,0,0.4,0.1
			c0.1-0.4,0.1-0.8,0-0.9c-0.1,0-0.1,0.1-0.2,0.1c-0.1,0.1-0.2,0.1-0.2,0.1c-0.1-0.1-0.2-0.1-0.1-0.2c0.1-0.3,0-0.8-0.2-0.8
			c-0.2-0.1-0.2,0-0.2,0.1C72.7,32,72.7,32,72.5,32l-0.2-0.2c-0.2-0.2-0.5-0.5-0.7-0.5c-0.2,0.1,0,0.5,0.1,0.7
			c0.1,0.2,0.1,0.3,0.1,0.4c-0.1,0.1-0.2,0.1-0.3,0.1c-0.2,0-0.2,0.1-0.2,0.1c0.1,0.2,0.1,0.3,0.2,0.4
			C71.5,32.7,71.6,32.5,71.9,32.6z"/>
		<path class="st1" d="M75.1,35.6L75.1,35.6C75,35.6,75,35.6,75.1,35.6L75.1,35.6z"/>
		<path class="st1" d="M80.1,40.4L80.1,40.4L80.1,40.4C80,40.4,80.1,40.4,80.1,40.4z"/>
		<path class="st2" d="M77.2,84.9c0.1,0.2-0.4,0.2-0.6,0.2C76.3,85,76,85,76,84.9c0-0.2,0.3-0.1,0.6-0.1
			C76.8,84.8,77.2,84.8,77.2,84.9L77.2,84.9z"/>
		<path class="st1" d="M67.9,72.1L67.9,72.1h-0.2c-0.1,0-0.1,0-0.2-0.1c0,0-0.4-0.5-0.9-0.5c-0.4,0-0.7,0.2-1,0.3
			C65.4,72,65,72,64.8,72h-0.8c-0.1,0-0.2-0.1-0.2-0.2v-4.6c-0.2,0.1-0.3,0.2-0.4,0.2c0,0.2,0,4.4,0,4.7c0.3,0,3.7,0,3.7,0
			c0.1,0,0.1,0,0.2,0.1c0,0,0.3,0.3,0.6,0.3H68c0.4-0.1,0.6-0.3,0.6-0.3c0.1-0.1,0.1-0.1,0.2-0.1c0,0,3.4,0,3.7,0c0-0.3,0-4.5,0-4.7
			c-0.1-0.1-0.2-0.2-0.4-0.2v4.6c0,0.1-0.1,0.2-0.2,0.2h-0.8c-0.3,0-0.5-0.2-0.8-0.2c-0.3-0.2-0.7-0.3-1-0.3c-0.5,0-0.9,0.5-0.9,0.5
			c-0.1,0.1-0.1,0.1-0.2,0.1H67.9L67.9,72.1z"/>
		<path class="st1" d="M72.7,72.4c0,0.1-0.1,0.2-0.2,0.2c0,0-3.7,0-3.8,0c-0.1,0.1-0.4,0.3-0.7,0.4h-0.2c-0.4-0.1-0.7-0.3-0.8-0.4
			c-0.2,0-3.8,0-3.8,0c-0.1,0-0.2-0.1-0.2-0.2v-4.8c-0.1,0-0.2,0-0.3,0c0,0.3,0,5,0,5.3c0.3,0,4.2,0,4.2,0c0.1,0,0.1,0,0.2,0.1
			c0,0,0.2,0.2,0.5,0.3c0.2,0,0.4,0,0.5,0c0.4-0.1,0.5-0.3,0.5-0.3c0.1-0.1,0.1-0.1,0.2-0.1c0,0,3.9,0,4.2,0c0-0.3,0-5,0-5.3
			c-0.1,0-0.2,0-0.3,0L72.7,72.4L72.7,72.4z"/>
		<path class="st1" d="M66.6,66.5c-0.6,0-0.8,0.2-1.2,0.4c-0.2,0.2-0.4,0.3-0.7,0.3c0,0-0.5,0-0.6,0c0,0.3,0,4.3,0,4.6
			c0.2,0,0.7,0,0.7,0c0.2,0,0.5-0.1,0.7-0.2c0.3-0.2,0.7-0.3,1.2-0.3c0.5,0,0.8,0.3,1.1,0.5c0-0.4,0-4.6,0-4.6
			C67.7,67,67.6,66.5,66.6,66.5z M67.1,70.3C67.1,70.4,67.1,70.4,67.1,70.3c-0.2,0.1-0.5,0-0.8,0.1l-0.5,0.2l-0.3,0.2
			c-0.4,0.2-0.6,0.2-0.7,0.2c-0.1,0-0.1-0.1-0.1-0.1c0-0.1,0.1-0.1,0.1-0.1c0.1,0,0.4,0,0.7-0.2l0.3-0.2l0.5-0.2
			c0.4-0.1,0.8-0.1,0.8-0.1C67.1,70.2,67.1,70.3,67.1,70.3z M67.1,69.3C67.1,69.4,67.1,69.4,67.1,69.3c-0.2,0.1-0.5,0-0.8,0.1
			l-0.5,0.2l-0.3,0.2c-0.4,0.2-0.6,0.2-0.7,0.2c-0.1,0-0.1-0.1-0.1-0.1c0-0.1,0.1-0.1,0.1-0.1c0.1,0,0.4,0,0.7-0.2l0.3-0.2l0.5-0.2
			c0.4-0.1,0.8-0.1,0.8-0.1C67.1,69.3,67.1,69.3,67.1,69.3z M67.1,68.4L67.1,68.4c-0.2,0.1-0.5,0-0.8,0.1l-0.5,0.2l-0.3,0.2
			C65.2,69,64.9,69,64.8,69c-0.1,0-0.1-0.1-0.1-0.1s0.1-0.1,0.1-0.1c0.1,0,0.4,0,0.7-0.2l0.3-0.2l0.5-0.2c0.4-0.1,0.8-0.1,0.8-0.1
			C67.1,68.4,67.1,68.4,67.1,68.4z M67.1,67.4L67.1,67.4c-0.2,0.1-0.5,0-0.8,0.1l-0.5,0.3l-0.3,0.2C65.2,68,64.9,68,64.8,68
			c-0.1,0-0.1-0.1-0.1-0.1s0.1-0.1,0.1-0.1c0.1,0,0.4,0,0.7-0.2l0.3-0.2l0.5-0.2c0.4-0.1,0.8-0.1,0.8-0.1
			C67.1,67.4,67.1,67.4,67.1,67.4z"/>
		<path class="st1" d="M68,72.1h-0.2l0,0l0,0h-0.2c-0.1,0-0.1,0-0.2-0.1c0,0-0.4-0.5-0.9-0.5c-0.4,0-0.7,0.2-1,0.3
			C65.3,72,65,72,64.7,72h-0.8c-0.1,0-0.2-0.1-0.2-0.2v-4.6c-0.2,0.1-0.3,0.2-0.4,0.2c0,0.2,0,4.4,0,4.7c0.3,0,3.7,0,3.7,0
			c0.1,0,0.1,0,0.2,0.1c0,0,0.3,0.3,0.6,0.3H68c0.4-0.1,0.6-0.3,0.6-0.3c0.1-0.1,0.1-0.1,0.2-0.1c0,0,3.4,0,3.7,0c0-0.3,0-4.5,0-4.7
			c-0.1-0.1-0.2-0.2-0.4-0.2v4.6c0,0.1-0.1,0.2-0.2,0.2H71c-0.3,0-0.5-0.2-0.8-0.2c-0.3-0.2-0.7-0.3-1-0.3c-0.5,0-0.9,0.5-0.9,0.5
			S68.1,72.1,68,72.1z"/>
		<path class="st1" d="M73,67.6c-0.1,0-0.2,0-0.3,0v4.8c0,0.1-0.1,0.2-0.2,0.2c0,0-3.7,0-3.8,0c-0.1,0.1-0.4,0.3-0.7,0.4h-0.2
			c-0.4-0.1-0.7-0.3-0.8-0.4c-0.2,0-3.8,0-3.8,0c-0.1,0-0.2-0.1-0.2-0.2v-4.8c-0.1,0-0.2,0-0.3,0c0,0.3,0,5,0,5.3c0.3,0,4.2,0,4.2,0
			c0.1,0,0.1,0,0.2,0.1c0,0,0.2,0.2,0.5,0.3c0.2,0,0.4,0,0.5,0c0.4-0.1,0.5-0.3,0.5-0.3c0.1-0.1,0.1-0.1,0.2-0.1c0,0,3.9,0,4.2,0
			C73,72.7,73,67.9,73,67.6z"/>
		<path class="st1" d="M71,67.1c-0.3,0-0.5-0.2-0.7-0.3c-0.3-0.2-0.6-0.4-1.2-0.4c-1,0-1.2,0.5-1.2,0.5s0,4.2,0,4.7
			c0.2-0.2,0.6-0.5,1.1-0.5c0.5,0,0.8,0.2,1.2,0.3c0.3,0.2,0.5,0.2,0.7,0.2c0,0,0.5,0,0.7,0c0-0.3,0-4.3,0-4.6
			C71.5,67.1,71,67.1,71,67.1z M71,70.9c-0.1,0-0.4-0.1-0.7-0.2L70,70.6l-0.5-0.2c-0.3-0.1-0.6-0.1-0.7,0c-0.1,0-0.1,0-0.1-0.1
			c0-0.1,0-0.1,0.1-0.1c0,0,0.4-0.1,0.8,0l0.5,0.2l0.3,0.2c0.3,0.2,0.6,0.2,0.7,0.2c0.1,0,0.1,0.1,0.1,0.1C71,70.9,71,70.9,71,70.9z
			 M71,69.9c-0.1,0-0.4-0.1-0.7-0.2L70,69.6l-0.5-0.2c-0.3-0.1-0.6-0.1-0.7,0c-0.1,0-0.1,0-0.1-0.1c0-0.1,0-0.1,0.1-0.1
			c0,0,0.4-0.1,0.8,0l0.5,0.2l0.3,0.2c0.3,0.2,0.6,0.2,0.7,0.2c0.1,0,0.1,0.1,0.1,0.1C71,69.9,71,69.9,71,69.9z M71,69
			c-0.1,0-0.4-0.1-0.7-0.2L70,68.7l-0.5-0.2c-0.3-0.1-0.6-0.1-0.7,0c-0.1,0-0.1,0-0.1-0.1s0-0.1,0.1-0.1c0,0,0.4-0.1,0.8,0l0.5,0.2
			l0.3,0.2c0.3,0.2,0.6,0.2,0.7,0.2c0.1,0,0.1,0.1,0.1,0.1C71,68.9,71,69,71,69z M71,68c-0.1,0-0.4-0.1-0.7-0.2L70,67.7l-0.5-0.2
			c-0.3-0.1-0.6-0.1-0.7,0c-0.1,0-0.1-0.1-0.1-0.1c0-0.1,0-0.1,0.1-0.1c0,0,0.4-0.1,0.8,0l0.5,0.2l0.3,0.2c0.4,0.2,0.6,0.2,0.7,0.2
			c0.1,0,0.1,0.1,0.1,0.1C71,68,71,68,71,68z"/>
		<path class="st1" d="M81.1,72.1h0.2c0.1,0,0.1,0,0.2-0.1c0,0,0.4-0.5,0.9-0.5c0.4,0,0.7,0.2,1,0.3C83.7,72,84,72,84.2,72h0.8
			c0.1,0,0.2-0.1,0.2-0.2v-4.6c0.2,0.1,0.3,0.2,0.4,0.2c0,0.2,0,4.4,0,4.7c-0.3,0-3.7,0-3.7,0c-0.1,0-0.1,0-0.2,0.1
			c0,0-0.3,0.3-0.6,0.3H81c-0.4-0.1-0.6-0.3-0.6-0.3c-0.1,0-0.1,0-0.2,0c0,0-3.4,0-3.7,0c0-0.3,0-4.5,0-4.7c0.1-0.1,0.2-0.2,0.4-0.2
			v4.6c0,0.1,0.1,0.2,0.2,0.2h0.8c0.3,0,0.5-0.2,0.8-0.2c0.3-0.2,0.7-0.3,1-0.3c0.5,0,0.9,0.5,0.9,0.5c0.1,0.1,0.1,0.1,0.2,0.1
			L81.1,72.1L81.1,72.1L81.1,72.1z"/>
		<path class="st1" d="M85.9,72.4c0,0.1-0.1,0.2-0.2,0.2c0,0-3.7,0-3.8,0c-0.1,0.1-0.4,0.3-0.8,0.4h-0.2c-0.4-0.1-0.7-0.3-0.8-0.4
			c-0.2,0-3.8,0-3.8,0c-0.1,0-0.2-0.1-0.2-0.2v-4.8c-0.1,0-0.2,0-0.3,0c0,0.3,0,5,0,5.3c0.3,0,4.2,0,4.2,0c0.1,0,0.1,0,0.2,0.1
			c0,0,0.2,0.2,0.5,0.3c0.2,0,0.4,0,0.5,0c0.4-0.1,0.5-0.3,0.5-0.3c0.1-0.1,0.1-0.1,0.2-0.1c0,0,3.9,0,4.2,0c0-0.3,0-5,0-5.3
			c-0.1,0-0.2,0-0.3,0L85.9,72.4L85.9,72.4z"/>
		<path class="st1" d="M81.2,72.1H81l0,0l0,0h-0.2c-0.1,0-0.1,0-0.2-0.1c0,0-0.4-0.5-0.9-0.5c-0.4,0-0.7,0.2-1,0.3
			C78.5,72,78.2,72,77.9,72h-0.8c-0.1,0-0.2-0.1-0.2-0.2v-4.6c-0.2,0.1-0.3,0.2-0.4,0.2c0,0.2,0,4.4,0,4.7c0.3,0,3.7,0,3.7,0
			c0.1,0,0.1,0,0.2,0.1c0,0,0.3,0.3,0.6,0.3h0.2c0.4-0.1,0.6-0.3,0.6-0.3c0.1-0.1,0.1-0.1,0.2-0.1c0,0,3.4,0,3.7,0
			c0-0.3,0-4.5,0-4.7c-0.1-0.1-0.2-0.2-0.4-0.2v4.6c0,0.1-0.1,0.2-0.2,0.2h-0.8c-0.3,0-0.5-0.2-0.8-0.2c-0.3-0.2-0.7-0.3-1-0.3
			c-0.5,0-0.9,0.5-0.9,0.5C81.3,72,81.3,72.1,81.2,72.1z"/>
		<path class="st1" d="M86.2,67.6c-0.1,0-0.2,0-0.3,0v4.8c0,0.1-0.1,0.2-0.2,0.2c0,0-3.7,0-3.8,0c-0.1,0.1-0.4,0.3-0.8,0.4H81
			c-0.4-0.1-0.7-0.3-0.8-0.4c-0.2,0-3.8,0-3.8,0c-0.1,0-0.2-0.1-0.2-0.2v-4.8c-0.1,0-0.2,0-0.3,0c0,0.3,0,5,0,5.3c0.3,0,4.2,0,4.2,0
			c0.1,0,0.1,0,0.2,0.1c0,0,0.2,0.2,0.5,0.3c0.2,0,0.4,0,0.5,0c0.4-0.1,0.5-0.3,0.5-0.3c0.1-0.1,0.1-0.1,0.2-0.1c0,0,3.9,0,4.2,0
			C86.2,72.7,86.2,67.9,86.2,67.6z"/>
		<path class="st1" d="M79.7,66.5c-0.6,0-0.8,0.2-1.2,0.4c-0.2,0.2-0.4,0.3-0.7,0.3c0,0-0.5,0-0.6,0c0,0.3,0,4.3,0,4.6
			c0.2,0,0.7,0,0.7,0c0.2,0,0.5-0.1,0.7-0.2c0.3-0.2,0.7-0.3,1.2-0.3c0.5,0,0.8,0.3,1.1,0.5c0-0.4,0-4.6,0-4.6
			C80.9,67,80.7,66.5,79.7,66.5z M78,67.8c0.1,0,0.4,0,0.7-0.2l0.3-0.2l0.5-0.2c0.4-0.1,0.8-0.1,0.8-0.1c0.1,0,0.1,0.1,0.1,0.1
			c0,0.1-0.1,0.1-0.1,0.1c-0.1,0-0.4-0.1-0.7,0L79,67.7l-0.3,0.2C78.4,68,78.1,68,78,68c-0.1,0-0.1-0.1-0.1-0.1
			C77.9,67.9,77.9,67.8,78,67.8z M78,68.8c0.1,0,0.4-0.1,0.7-0.2l0.3-0.2l0.5-0.2c0.4-0.1,0.8-0.1,0.8-0.1c0.1,0,0.1,0.1,0.1,0.1
			c0,0.1-0.1,0.1-0.1,0.1c-0.1,0-0.4-0.1-0.7,0L79,68.7l-0.3,0.2C78.4,69,78.1,69,78,69c-0.1,0-0.1-0.1-0.1-0.1S77.9,68.8,78,68.8z
			 M80.2,70.4c-0.1,0-0.4-0.1-0.7,0L79,70.6l-0.3,0.2c-0.4,0.2-0.6,0.2-0.7,0.2c-0.1,0-0.1-0.1-0.1-0.1c0-0.1,0.1-0.1,0.1-0.1
			c0.1,0,0.4,0,0.7-0.2l0.3-0.2l0.5-0.2c0.4-0.1,0.8-0.1,0.8,0c0,0,0.1,0,0.1,0.1C80.3,70.4,80.2,70.4,80.2,70.4z M80.2,69.4
			c-0.1,0-0.4-0.1-0.7,0L79,69.6l-0.3,0.2c-0.4,0.2-0.6,0.2-0.7,0.2c-0.1,0-0.1-0.1-0.1-0.1s0.1-0.1,0.1-0.1c0.1,0,0.4-0.1,0.7-0.2
			l0.3-0.2l0.5-0.2c0.4-0.1,0.8-0.1,0.8,0c0.1,0,0.1,0.1,0.1,0.1C80.3,69.4,80.3,69.4,80.2,69.4z"/>
		<path class="st1" d="M82.3,71.2c-0.5,0-0.8,0.3-1.1,0.5c0-0.4,0-4.7,0-4.7s0.2-0.5,1.2-0.5c0.6,0,0.8,0.2,1.2,0.4
			c0.2,0.2,0.4,0.3,0.7,0.3c0,0,0.5,0,0.6,0c0,0.3,0,4.3,0,4.6c-0.2,0-0.7,0-0.7,0c-0.2,0-0.5-0.1-0.7-0.2
			C83.1,71.4,82.8,71.2,82.3,71.2z M81.9,68.3c-0.1,0-0.1,0.1-0.1,0.1c0,0.1,0.1,0.1,0.1,0.1c0.1,0,0.4-0.1,0.7,0l0.5,0.2l0.3,0.2
			C83.8,69,84,69,84.1,69c0.1,0,0.1-0.1,0.1-0.1c0-0.1-0.1-0.1-0.1-0.1c-0.1,0-0.4,0-0.7-0.2l-0.3-0.2l-0.5-0.2
			C82.3,68.2,81.9,68.3,81.9,68.3z M81.9,67.3c-0.1,0-0.1,0.1-0.1,0.1c0,0.1,0.1,0.1,0.1,0.1c0.1,0,0.4-0.1,0.7,0l0.5,0.2l0.3,0.2
			c0.4,0.2,0.6,0.2,0.7,0.2c0.1,0,0.1-0.1,0.1-0.1c0-0.1-0.1-0.1-0.1-0.1c-0.1,0-0.4-0.1-0.7-0.2l-0.3-0.2l-0.5-0.2
			C82.3,67.2,81.9,67.3,81.9,67.3z M81.9,69.2c-0.1,0-0.1,0.1-0.1,0.1c0,0.1,0.1,0.1,0.1,0.1c0.1,0,0.4-0.1,0.7,0l0.5,0.2l0.3,0.2
			c0.4,0.2,0.6,0.2,0.7,0.2c0.1,0,0.1-0.1,0.1-0.1c0-0.1-0.1-0.1-0.1-0.1c-0.1,0-0.4-0.1-0.7-0.2l-0.3-0.1l-0.5-0.2
			C82.4,69.2,82,69.2,81.9,69.2z M81.9,70.2c-0.1,0-0.1,0.1-0.1,0.1c0,0.1,0.1,0.1,0.1,0.1c0.1,0,0.4-0.1,0.7,0l0.5,0.2l0.3,0.2
			c0.4,0.2,0.6,0.2,0.7,0.2c0.1,0,0.1-0.1,0.1-0.1c0-0.1-0.1-0.1-0.1-0.1c-0.1,0-0.4,0-0.7-0.2l-0.3-0.2l-0.5-0.2
			C82.4,70.1,82,70.2,81.9,70.2z"/>
		<g>
			<path class="st1" d="M71.2,81C71.1,81,71,80.9,71,80.8c-0.1,0.1-0.2,0.2-0.3,0.2L70.4,81c-0.3,0.1-0.7,0.2-0.8,0.5
				c-0.1,0.2-0.1,0.3-0.1,0.4c0,0.2,0.1,0.3,0.1,0.4c0.1,0,0.1-0.1,0.2-0.1c-0.1-0.4,0.1-0.7,0.2-0.6c0.1,0,0,0.2,0.1,0.4
				C70,82,70,82,70,82.1c0.1-0.1,0.2-0.1,0.2-0.2c0.1-0.3,0.2-0.5,0.4-0.5l0.2,0.1c0.2,0.1,0.6,0.3,0.8,0.1
				C71.3,81.5,71.3,81.2,71.2,81z"/>
		</g>
		<g>
			<path class="st1" d="M75.9,82.7c-0.1,0-0.1-0.1-0.1-0.1l0,0c-0.2,0-1.2-0.2-1.3-0.2c0,0-0.2-0.1-0.5,0.1
				c-0.3,0.1-0.5,0.3-0.5,0.5c0.1,0.1,0.1,0.1,0.2,0.1c0.1-0.2,0.2-0.3,0.5-0.4c0.2-0.1,0.5-0.1,0.6-0.1c0.1,0.1-0.2,0.2-0.5,0.3
				c-0.1,0.1-0.2,0.2-0.2,0.3l0,0c0.1,0,0.2-0.1,0.4-0.1l0.4-0.1c0.2,0,1.8,0,2.4,0c0.1-0.1,0.1-0.2,0.1-0.2
				C76.8,82.9,76.3,82.9,75.9,82.7z"/>
		</g>
		<path class="st2" d="M76.5,85.6c0.1,0.2-0.5,0.2-0.7,0.2c-0.4,0-0.8-0.1-0.8-0.2c0.1-0.2,0.4-0.1,0.8-0.1
			C76,85.5,76.5,85.5,76.5,85.6L76.5,85.6z M75.8,86.3c-0.1-0.2-0.5-0.1-0.7-0.2c-0.4,0-0.7-0.1-0.7,0.1c-0.1,0.2,0.4,0.2,0.7,0.2
			C75.3,86.5,75.8,86.5,75.8,86.3L75.8,86.3z M75,87.1c0-0.1-0.3-0.1-0.5-0.1C74.2,87,74,87,74,87.1s0.3,0.2,0.5,0.2
			C74.6,87.2,75,87.2,75,87.1L75,87.1z M68.4,78L68.3,78c-0.1,0.1-0.2,0.2-0.1,0.2c0.1,0.1,0.2,0.2,0.2,0.1l0.1-0.1
			c0.1-0.1,0.2-0.2,0.1-0.2C68.6,78,68.5,78,68.4,78z M73.5,76.6c-0.1-0.1-0.1-0.1-0.2-0.1l-0.9,0.3c-0.1,0.1-0.1,0.2-0.1,0.2
			c0.1,0.1,0.2,0.2,0.2,0.1l0.8-0.5C73.5,76.7,73.5,76.6,73.5,76.6L73.5,76.6z M73.6,77.4c0-0.1-0.1-0.1-0.2-0.1l-0.7,0.1
			c-0.1,0-0.2,0.2-0.1,0.2c0,0.1,0.2,0.2,0.2,0.2l0.7-0.3C73.6,77.5,73.6,77.4,73.6,77.4L73.6,77.4z M73.6,78.2
			c0-0.1-0.1-0.1-0.2-0.1l-0.5-0.1c-0.1,0-0.2,0.1-0.2,0.2s0.1,0.2,0.2,0.2l0.5-0.2C73.6,78.3,73.6,78.3,73.6,78.2L73.6,78.2z
			 M73.5,79c0-0.1-0.1-0.1-0.1-0.1L73,78.8c-0.1,0-0.2,0.1-0.2,0.2s0.1,0.2,0.2,0.2L73.5,79C73.4,79.1,73.5,79.1,73.5,79L73.5,79z
			 M77,76.2c0,0.1,0.1,0.2,0.2,0.2c0,0,0.5,0.2,0.8,0.3c0.1,0.1,0.2,0,0.2-0.1c0.1-0.1,0-0.2-0.1-0.2c-0.4-0.2-0.8-0.4-0.9-0.4
			C77.1,76.1,77,76.1,77,76.2L77,76.2z M77.2,77c0,0.1,0.1,0.2,0.1,0.2c0,0,0.4,0.1,0.6,0.2c0.1,0.1,0.2,0,0.2-0.1
			c0.1-0.1,0-0.2-0.1-0.2c-0.4-0.2-0.7-0.3-0.7-0.3C77.2,76.9,77.2,76.9,77.2,77L77.2,77z M77.2,77.6c0,0.1,0.1,0.2,0.1,0.2
			c0,0,0.3,0.1,0.5,0.2c0.1,0.1,0.2,0,0.2-0.1c0.1-0.1,0-0.2-0.1-0.2c-0.3-0.2-0.4-0.2-0.5-0.2C77.4,77.6,77.2,77.6,77.2,77.6
			L77.2,77.6z M77.2,78.3c0,0.1,0,0.2,0.1,0.2c0,0,0.2,0.1,0.3,0.1c0.1,0,0.1,0,0.2-0.1c0.1-0.1,0-0.1-0.1-0.2
			c-0.1-0.1-0.3-0.1-0.3-0.1C77.3,78.2,77.2,78.2,77.2,78.3L77.2,78.3z M78.7,77.4c-0.1,0.1,0,0.2,0.1,0.2c0,0,0.2,0.1,0.5,0.4
			c0.1,0.1,0.2,0.1,0.2,0c0.1-0.1,0.1-0.2,0-0.2c-0.3-0.3-0.5-0.4-0.5-0.5C78.9,77.3,78.8,77.3,78.7,77.4L78.7,77.4z M78.6,78.2
			c-0.1,0.1,0,0.2,0.1,0.2c0,0,0.1,0.1,0.4,0.2c0.1,0.1,0.2,0.1,0.2,0c0.1-0.1,0.1-0.2,0-0.2c-0.3-0.3-0.4-0.3-0.4-0.3
			C78.8,78.1,78.7,78.1,78.6,78.2L78.6,78.2z M78.5,78.7c-0.1,0.1,0,0.2,0.1,0.2c0,0,0.2,0.1,0.2,0.2c0.1,0.1,0.1,0.1,0.2,0
			c0.1-0.1,0.1-0.1,0-0.2c-0.1-0.1-0.2-0.2-0.2-0.2C78.5,78.6,78.5,78.7,78.5,78.7L78.5,78.7z M78.2,79.3c-0.1,0.1-0.1,0.2,0.1,0.2
			c0,0,0.1,0,0.2,0.1c0.1,0.1,0.1,0.1,0.2,0c0.1-0.1,0.1-0.1,0-0.2c-0.1-0.1-0.1-0.1-0.2-0.2C78.4,79.2,78.3,79.2,78.2,79.3
			L78.2,79.3z M79.8,79c-0.1,0.1-0.1,0.2,0,0.2c0,0,0.1,0.1,0.2,0.2c0.1,0.1,0.1,0.1,0.2,0.1c0.1-0.1,0.1-0.1,0.1-0.2
			C80.1,79.2,80,79.1,80,79C79.9,78.9,79.8,78.9,79.8,79L79.8,79z M79.5,79.5c-0.1,0.1-0.1,0.1,0,0.2c0.1,0.1,0.1,0.1,0.1,0.1
			c0.1,0.1,0.1,0.1,0.2,0.1s0.1-0.1,0.1-0.2c0-0.1-0.1-0.1-0.1-0.2C79.5,79.4,79.5,79.4,79.5,79.5L79.5,79.5z M68.7,79.4
			c0.2-0.1-0.2-0.4-0.1-0.5c0.1-0.2,0.8-0.5,0.8-0.6c0-0.2-0.9,0.2-1.1,0.5C68.1,79,68.5,79.4,68.7,79.4L68.7,79.4z M69.7,77.6
			c0.2,0.1,0.2-0.1,0.2-0.1c0,0,0.1-0.1,0.2,0c0.1,0.1,0.1,0.1,0.1,0.1c0,0.1,0,0.2,0.1,0.2c0.1,0,0.3-0.4-0.1-0.5
			c-0.2-0.1-0.2-0.1-0.4-0.1C69.6,77.3,69.5,77.5,69.7,77.6L69.7,77.6z M79.7,77.3c-2.5-3-5.9-1.5-6-1.5C73,76,72.4,76.3,72,76.4
			l-0.4,0.2l-1.3,0.2c-0.4,0.1-0.8,0.4-1.5,0.7l-0.5,0.3c-0.8,0.4-0.9,0.8-0.9,0.8c0,0.1-0.1,0.1-0.1,0.1c-0.1,0.1-0.2,0.1-0.2,0.2
			c0,0,0,0,0,0.1s0,0.1,0,0.1l0.2-0.1c0.1-0.1,0.2,0,0.2,0.1c0.1,0.1,0,0.2-0.1,0.2l-0.2,0.1c0.2,0.2,0.3,0.3,0.3,0.3h0.1
			c0.2-0.1,0.6-0.2,0.8,0.3V80c-0.1,0.1-0.2,0.2-0.2,0.2c0.2,0.1,0.4,0.1,0.5,0h0.1l0.2-0.1c0.5-0.1,0.9-0.2,1.2-0.1
			c0.4,0.1,1,0.5,1.2,0.7c0.2,0.2,0.4,0.9,0.3,1.1c0,0.1-0.1,0.4-0.4,0.6c-0.2,0.1-0.5,0.1-0.6,0.1h-0.2c-0.1,0.1-0.2,0.2-0.3,0.4
			c0.1,0,0.2,0,0.2,0c0.2-0.2,0.3-0.3,0.3-0.2c0.1,0.1,0,0.2-0.1,0.2c0.2,0,0.4,0,0.4,0h0.2c0.2,0,0.6,0,0.7-0.1l0.2-0.2l0.5-0.5
			l0.6-0.5l0.2-0.2c0.1-0.1,0.2-0.8,0.1-1.6c0-0.1,0.1-0.2,0.2-0.2c0.1,0,0.2,0.1,0.2,0.2c0.1,0.3,0.1,0.9,0.1,1.4H74
			c0.5,0.3,0.9,0.5,1.4,0.6c-0.2-0.2-0.3-0.4-0.4-0.7c-0.1-0.2-0.1-0.4-0.1-0.5c0-0.6,0.4-1,0.6-1.4c0.2-0.3,0.5-0.5,0.5-0.8
			c0-0.1,0-0.1,0-0.1c0,0,0,0,0-0.1c0-0.1,0.1-0.2,0.2-0.2c0.1,0,0.2,0.1,0.2,0.2c0.1,0.4-0.2,0.8-0.5,1.2c-0.4,0.5-0.7,0.9-0.5,1.6
			c0.2,0.5,0.4,0.8,0.7,0.9c0,0,0.1,0,0.1,0.1c0.1,0,0.1,0.1,0.1,0.1c0.5,0.3,1.2,0.3,1.2,0.3c0.1,0,0.1,0.1,0.2,0.1
			c0.1,0.1,0.1,0.1,0.1,0.2c0,0-0.1,0.3-0.2,0.5c0,0.1-0.1,0.1-0.1,0.1c-0.1,0.1-0.1,0.1-0.2,0.2l-0.6,0.4c-0.5,0.3-1.2,0.8-1.9,1.4
			c-0.9,0.8-1.5,1.8-1.3,2.3c0.1,0.1,0.1,0.2,0.3,0.2c1.5,0.2,2.5-0.8,3.3-1.7l0.2-0.2c0.5-0.6,0.9-1.3,1.2-1.8
			c0.2-0.3,0.3-0.5,0.4-0.5c0.6-0.5,1.7-1.8,1.9-3.4C80.6,79.2,80.4,78.2,79.7,77.3z"/>
		<path class="st1" d="M83.8,83.6c0.3,0.1,0.6,0,0.9-0.2c0.3-0.1,0.5-0.3,0.6-0.5c0.2,0.3,0.7,1,0.9,1.3c-0.3,0.4-0.7,0.8-1.2,1.2
			L83.8,83.6z"/>
		<path class="st1" d="M63.7,82.9c0.2,0.2,0.4,0.4,0.6,0.5c0.3,0.2,0.6,0.2,0.9,0.2l-1.3,1.9c-0.4-0.4-0.8-0.8-1.2-1.2
			C63,83.9,63.6,83.2,63.7,82.9z"/>
		<path class="st1" d="M68,94.1c0.1-0.1,0.2-0.2,0.3-0.2l0.2-0.2c0.3-0.3,0.7-0.6,1-0.8c0.7,0.3,1.2,0.6,1.6,1
			c0.3,0.3,0.3,0.7,0.1,0.9C71.1,94.8,71,95,71,95l-0.5,0.5h-0.3c-1.3,0-2.2-0.5-2.4-0.9C67.9,94.3,68,94.2,68,94.1z"/>
		<path class="st1" d="M80.5,93.6l0.2,0.2c0.1,0.1,0.2,0.2,0.3,0.2c0.1,0.1,0.1,0.3,0.1,0.4c-0.2,0.5-1.1,0.9-2.4,0.9l0,0l0,0h-0.3
			l-0.4-0.5c-0.1-0.1-0.2-0.2-0.2-0.2c-0.2-0.2-0.2-0.6,0.1-0.9c0.4-0.4,0.9-0.7,1.6-1C79.8,93,80.2,93.4,80.5,93.6z"/>
		<path class="st1" d="M64.2,80.2L64.2,80.2L64.2,80.2z"/>
		<path class="st1" d="M68.6,91.9l-0.2-0.1c-3-1.2-5.5-2.8-6.7-4.2c-1.3-1.6-1.1-2.9-0.7-3.8l0.4-0.8l0.4-0.8
			c-0.1,0.4,0.1,0.9,0.3,1.5c0.6,1.5,2.7,3.1,4.3,4c0.7,0.4,1.4,0.7,2,1c1.8,0.8,3.3,1.5,3.3,3.1v1.9c0,0.1,0,0.2,0,0.2
			c-0.1-0.2-0.2-0.3-0.2-0.4C70.8,92.7,69.8,92.4,68.6,91.9z M65.6,87.8c0.1-0.1,0.1-0.2,0.1-0.2c-0.2-0.2-0.5-0.3-0.7-0.5
			c-0.1,0.1-0.1,0.2-0.1,0.2c0.1,0.1,0.1,0.1,0.2,0.2c-0.2,0.5-0.5,0.9-0.7,1.5c-0.1-0.1-0.1-0.1-0.2-0.1c-0.1,0.1-0.1,0.2-0.1,0.2
			c0.4,0.3,0.7,0.5,1.2,0.7c0.1-0.2,0.2-0.3,0.3-0.4c0,0,0,0,0-0.1c-0.1-0.1-0.1-0.1-0.2-0.2c-0.1,0.1-0.2,0.2-0.3,0.3
			c-0.2-0.1-0.3-0.2-0.5-0.3c0-0.2,0.5-1.1,0.7-1.5C65.4,87.8,65.5,87.8,65.6,87.8L65.6,87.8z M63.8,88c0.1-0.2,0.2-0.3,0.3-0.5
			c-0.1-0.1-0.1-0.1-0.2-0.2c-0.1,0.1-0.1,0.1-0.1,0.2c-0.1,0-0.3-0.2-0.3-0.2c0.1-0.2,0.2-0.4,0.3-0.6c0.1,0.1,0.3,0.2,0.4,0.3
			c0.1,0.1-0.1,0.2-0.1,0.3c0,0.1,0.2,0.1,0.2,0.2c0.1-0.2,0.2-0.3,0.2-0.5c-0.4-0.3-0.7-0.5-1-0.8c-0.1,0.1-0.1,0.2-0.1,0.2
			c0.1,0.1,0.1,0.1,0.2,0.2c-0.3,0.5-0.5,0.9-0.7,1.4c-0.1-0.1-0.1-0.1-0.2-0.1c-0.1,0.1-0.1,0.1-0.1,0.2c0.3,0.3,0.6,0.6,1,0.8
			c0.1-0.2,0.2-0.3,0.3-0.5l0,0c-0.1-0.1-0.1-0.1-0.2-0.2c-0.1,0.1-0.2,0.3-0.2,0.3c-0.1,0-0.4-0.3-0.4-0.3c0-0.1,0.2-0.5,0.3-0.6
			c0.1,0.1,0.2,0.2,0.3,0.3c0,0.1-0.1,0.2-0.1,0.2C63.7,87.9,63.7,87.9,63.8,88L63.8,88z M69.8,89.8c-0.5-0.3-1-0.5-1.5-0.7
			c-0.1,0.2-0.2,0.3-0.3,0.5c0.1,0.1,0.2,0.1,0.2,0.2c0.1-0.1,0.2-0.2,0.2-0.3c0.1,0,0.3,0.1,0.4,0.2c-0.2,0.5-0.5,1-0.7,1.5
			C67.9,91,67.9,91,67.8,91c-0.1,0.1-0.1,0.2-0.1,0.2c0.3,0.2,0.5,0.2,0.8,0.4c0.1-0.1,0.1-0.2,0.1-0.2c-0.1-0.1-0.2-0.1-0.2-0.1
			c0.2-0.5,0.5-1,0.7-1.5c0.2,0.1,0.3,0.2,0.3,0.2c-0.1,0.1-0.1,0.2-0.1,0.3c0,0.1,0.2,0.1,0.2,0.1C69.6,90.1,69.7,89.9,69.8,89.8
			L69.8,89.8z M68,88.9c-0.2-0.1-0.4-0.2-0.6-0.3c-0.1,0.1-0.1,0.1-0.1,0.2c0.1,0.1,0.2,0.1,0.2,0.2c-0.2,0.5-0.6,1.6-1.1,1.3
			c-0.4-0.2-0.2-0.5-0.1-0.9c0.1-0.2,0.2-0.5,0.4-0.7c0.1,0.1,0.2,0.1,0.2,0.1c0.1-0.1,0.1-0.2,0.1-0.2c-0.2-0.2-0.5-0.3-0.7-0.4
			c-0.1,0.1-0.1,0.2-0.1,0.2c0.1,0.1,0.1,0.1,0.2,0.1c0,0.1-0.2,0.4-0.2,0.5c-0.2,0.5-0.5,0.9-0.3,1.2c0.1,0.1,0.2,0.2,0.2,0.2
			c0.2,0.1,0.3,0.2,0.5,0.2c0.6,0.1,0.8-0.7,1.2-1.4c0.1,0.1,0.1,0.1,0.2,0.1C68,89.1,68,89,68,88.9L68,88.9z M63.1,86
			c0.1,0.1,0.1,0.1,0.2,0.1c0.1-0.1,0.1-0.2,0.1-0.2c-0.2-0.2-0.3-0.3-0.5-0.5c-0.1,0.1-0.1,0.2-0.1,0.2c0.1,0.1,0.2,0.2,0.2,0.2
			c-0.2,0.2-0.8,0.8-0.8,0.9l0,0c-0.1-0.1,0.2-1.5,0.3-1.5c0.1,0.1,0.1,0.2,0.2,0.2c0.1-0.1,0.1-0.2,0.1-0.2
			c-0.2-0.2-0.4-0.5-0.5-0.7c-0.1,0.1-0.1,0.1-0.2,0.2c0.1,0.1,0.1,0.1,0.1,0.2c-0.1,0.2-0.3,1.9-0.3,2.1c0.1,0.1,0.2,0.2,0.2,0.2
			C62.3,86.9,63,86.2,63.1,86L63.1,86z"/>
		<path class="st1" d="M87.3,87.6c-1.2,1.5-3.7,3.1-6.7,4.2l-0.2,0.1c-1.2,0.5-2.3,0.9-2.9,1.6c-0.1,0.1-0.2,0.2-0.2,0.4
			c0-0.1,0-0.2,0-0.2v-1.9c0-1.6,1.5-2.3,3.3-3.1c0.7-0.3,1.4-0.6,2-1c1.6-0.9,3.7-2.5,4.3-4c0.2-0.6,0.3-1.1,0.3-1.5l0.4,0.8
			l0.4,0.8C88.4,84.6,88.7,85.9,87.3,87.6z M81.1,90L81.1,90c0-0.3,0.1-0.6,0.1-0.8l0,0c0.2,0.2,0.2,0.5,0.3,0.7
			C81.4,89.8,81.2,89.9,81.1,90L81.1,90z M82.7,89.8c0,0.1,0.1,0.2,0.1,0.3c-0.1,0.1-0.5,0.3-0.5,0.3c-0.1-0.2-0.2-0.4-0.3-0.6
			c0.1-0.1,0.4-0.2,0.5-0.2c0.1,0.1,0.1,0.1,0.1,0.2c0.1-0.1,0.2-0.1,0.2-0.1c-0.1-0.2-0.2-0.4-0.2-0.5c-0.1,0.1-0.2,0.1-0.2,0.1
			c0,0.1,0.1,0.2,0.1,0.2c-0.1,0.1-0.4,0.2-0.5,0.3c-0.2-0.2-0.2-0.5-0.3-0.7c0.2-0.1,0.4-0.2,0.5-0.3c0.1,0.1,0.2,0.2,0.2,0.2
			c0.1-0.1,0.2-0.1,0.2-0.1c0-0.1-0.2-0.4-0.2-0.5c-0.4,0.2-0.8,0.5-1.2,0.6c-0.1,0.7-0.2,1.4-0.2,2c-0.1,0.1-0.1,0.1-0.2,0.1
			c0.1,0.1,0.1,0.2,0.1,0.2c0.2-0.1,0.4-0.2,0.6-0.3c-0.1-0.1-0.1-0.2-0.1-0.2c-0.1,0.1-0.2,0.1-0.2,0.1c0-0.2,0-0.5,0-0.7
			c0.2-0.1,0.4-0.2,0.5-0.2c0.1,0.2,0.2,0.4,0.3,0.6c-0.1,0.1-0.2,0.1-0.2,0.1c0.1,0.1,0.1,0.2,0.1,0.2c0.4-0.2,0.9-0.5,1.3-0.6
			c-0.1-0.2-0.1-0.3-0.2-0.5C82.8,89.7,82.8,89.8,82.7,89.8L82.7,89.8z M84.1,87.4c0.1-0.1,0.1-0.1,0.2-0.1
			c-0.1-0.1-0.1-0.2-0.1-0.2c-0.2,0.2-0.4,0.3-0.6,0.4c0.1,0.1,0.1,0.2,0.1,0.2c0.1-0.1,0.2-0.1,0.2-0.2c0.1,0.3,0.2,1.2,0.2,1.3
			c0,0.1,0,0.2,0.1,0.2l0,0c-0.1,0-0.2-0.2-0.2-0.2l-0.5-0.5c-0.1-0.1-0.2-0.2-0.2-0.3c0.1-0.1,0.2-0.1,0.2-0.2
			c-0.1-0.1-0.1-0.2-0.1-0.2c-0.3,0.2-0.5,0.3-0.8,0.4c0.1,0.1,0.1,0.2,0.1,0.2c0.1-0.1,0.1-0.1,0.2-0.1c0.1,0.1,0.2,0.2,0.3,0.3
			c0.2,0.2,0.5,0.5,0.7,0.7c0.1,0.1,0.2,0.2,0.3,0.3c0.1-0.1,0.2-0.1,0.3-0.2c-0.1-0.5-0.1-0.9-0.1-1.5
			C84.2,87.8,84.1,87.6,84.1,87.4L84.1,87.4z M86,88.1c-0.4,0.4-0.8-0.2-1-0.7c-0.1-0.2-0.1-0.5,0.1-0.7c0.1-0.1,0.1-0.1,0.2-0.2
			c0.1-0.1,0.2-0.1,0.3-0.1C86,86.5,86.4,87.7,86,88.1L86,88.1z M86.1,86.5c-0.3-0.3-0.6-0.3-1-0.1c-0.1,0.1-0.2,0.2-0.2,0.2
			c-0.2,0.2-0.3,0.5-0.3,0.7c0,0.1,0,0.2,0.1,0.3c0.1,0.2,0.1,0.3,0.2,0.5c0.3,0.4,0.6,0.5,1,0.3C86.6,88.1,86.7,87,86.1,86.5
			L86.1,86.5z"/>
		<path class="st1" d="M81.3,94.8L81.3,94.8v2.8c0,0.8-1.4,1.2-2.6,1.2h-8.2c-1.2,0-2.6-0.3-2.6-1.2v-2.7v-0.1
			c0.5,0.5,1.5,0.8,2.6,0.8h8.2l0,0C79.8,95.7,80.8,95.4,81.3,94.8z M78.5,97.2c0-0.3,0-0.5,0-0.8c0.1,0,0.2,0,0.3,0
			c0.2,0.1,0.3,0.4,0.2,0.6C78.9,97.2,78.8,97.2,78.5,97.2L78.5,97.2z M79.5,97.8c-0.1-0.2-0.2-0.5-0.4-0.5l0,0
			c0.4-0.1,0.6-0.6,0.2-0.9c-0.3-0.2-0.8-0.2-1.3-0.2c0,0.1,0,0.2,0,0.2l0,0c0.1,0,0.2,0,0.2,0V98c-0.1,0-0.2,0-0.2,0
			c0,0.1,0,0.2,0,0.2l0,0h0.8c0-0.1,0-0.2,0-0.2c-0.1,0-0.2,0-0.2,0c0-0.2,0-0.4,0-0.6c0.1,0,0.2,0,0.2,0c0.2,0.1,0.3,0.6,0.5,0.8
			c0.1,0.1,0.4,0,0.5,0V98c-0.1,0-0.2,0-0.2,0C79.5,98,79.5,97.9,79.5,97.8L79.5,97.8z M74.9,97.7c-0.1,0.2-0.2,0.2-0.4,0.3
			c-0.1,0-0.2,0-0.3-0.1c-0.1-0.1,0-0.1,0-0.2s0-0.5,0-0.5C74.6,97.3,75,97.4,74.9,97.7L74.9,97.7z M74.3,96.4c0.2,0,0.4,0,0.5,0.2
			c0.1,0.1,0.1,0.2,0.1,0.2c-0.1,0.3-0.2,0.3-0.5,0.3C74.3,96.9,74.3,96.7,74.3,96.4L74.3,96.4z M74.8,97.2L74.8,97.2L74.8,97.2
			c0.3-0.2,0.5-0.6,0.2-0.8c-0.3-0.2-0.8-0.1-1.2-0.1v0.2c0.1,0,0.2,0,0.2,0v1.6c-0.1,0-0.2,0-0.2,0c0,0.1,0,0.2,0,0.2
			c0.5,0,1,0.1,1.3-0.1c0.2-0.2,0.4-0.5,0.2-0.7C75.1,97.3,75,97.3,74.8,97.2L74.8,97.2z M72.2,97.2c0-0.3,0-0.5,0-0.8
			c0.1,0,0.2,0,0.3,0c0.2,0.1,0.3,0.4,0.2,0.6C72.6,97.2,72.4,97.2,72.2,97.2L72.2,97.2z M73.1,97.8c-0.1-0.2-0.2-0.5-0.4-0.5l0,0
			c0.4-0.1,0.6-0.6,0.2-0.9c-0.3-0.2-0.8-0.2-1.3-0.2c0,0.1,0,0.2,0,0.2l0,0c0.1,0,0.2,0,0.2,0V98c-0.1,0-0.2,0-0.2,0
			c0,0.1,0,0.2,0,0.2l0,0h0.8c0-0.1,0-0.2,0-0.2c-0.1,0-0.2,0-0.2,0c0-0.2,0-0.4,0-0.6c0.1,0,0.2,0,0.2,0c0.2,0.1,0.3,0.6,0.5,0.8
			c0.1,0.1,0.4,0,0.5,0V98c-0.1,0-0.2,0-0.2,0C73.2,98,73.1,97.9,73.1,97.8L73.1,97.8z M70,97.5c0.1-0.3,0.2-0.5,0.3-0.8l0,0
			l0.3,0.8H70L70,97.5z M70.6,96.2c-0.1,0-0.2,0-0.3,0c-0.2,0.6-0.5,1.2-0.7,1.8c-0.1,0-0.2,0-0.2,0v0.2h0.7V98c-0.1,0-0.2,0-0.2,0
			c0.1-0.2,0.1-0.2,0.1-0.4c0.2,0,0.5,0,0.7,0c0.1,0.1,0.1,0.2,0.2,0.4c-0.1,0-0.2,0-0.2,0v0.2h0.8V98c-0.1,0-0.2,0-0.2,0
			C71,97.4,70.7,96.8,70.6,96.2L70.6,96.2z M76.7,98c-0.5,0.1-0.7-0.6-0.6-1.1c0.1-0.2,0.2-0.5,0.4-0.5c0.1,0,0.1-0.1,0.2-0.1
			c0.2,0,0.2,0,0.3,0.1C77.3,96.7,77.3,97.9,76.7,98L76.7,98z M76.6,96.2c-0.1,0-0.2,0.1-0.3,0.1c-0.2,0.1-0.4,0.2-0.5,0.5
			c-0.1,0.1-0.1,0.2-0.1,0.3c-0.1,0.2-0.1,0.3,0,0.5c0.1,0.5,0.3,0.7,0.8,0.8c0.8,0.2,1.3-0.8,1-1.5C77.4,96.4,77.1,96.2,76.6,96.2
			L76.6,96.2z"/>
		<path class="st1" d="M88.5,65.1c0,0,0,0.1,0,0.2c0,0.1,0,0.2,0,0.2h-28c0,0,0-0.1,0-0.2c0-0.1,0-0.2,0-0.2H88.5z M88.5,65.1
			c0-4.8,0-10.7,0-10.7h-14l0,0l0,0h-14c0,0,0,5.8,0,10.7 M72.4,61.4c0.2,0,0.3,0.2,0.3,0.3c0,0.2-0.2,0.3-0.3,0.3
			c-0.2,0-0.3-0.2-0.3-0.3C72.2,61.5,72.3,61.4,72.4,61.4L72.4,61.4z M70.3,62.2c0.2-0.1,0.3-0.1,0.4,0.1c0.1,0.2,0.1,0.3-0.1,0.4
			c-0.2,0.1-0.3,0.1-0.4-0.1C70.2,62.4,70.2,62.2,70.3,62.2L70.3,62.2z M71.4,61.8c0.1,0,0.2,0.1,0.2,0.2c0,0.1-0.1,0.2-0.2,0.2
			c-0.1,0-0.2-0.1-0.2-0.2C71.3,61.8,71.3,61.8,71.4,61.8L71.4,61.8z M73.5,61.5c0.1,0,0.2,0.1,0.2,0.2s-0.1,0.2-0.2,0.2
			c-0.1,0-0.2-0.1-0.2-0.2C73.3,61.5,73.4,61.5,73.5,61.5L73.5,61.5z M76.8,61.7c0,0.2-0.2,0.3-0.3,0.3c-0.2,0-0.3-0.2-0.3-0.3
			c0-0.1,0.2-0.3,0.3-0.3C76.7,61.4,76.8,61.5,76.8,61.7L76.8,61.7z M78.8,62.5c-0.1,0.2-0.3,0.2-0.4,0.1c-0.2-0.1-0.2-0.3-0.1-0.4
			c0.1-0.2,0.3-0.2,0.4-0.1C78.8,62.2,78.8,62.4,78.8,62.5L78.8,62.5z M77.7,62c0,0.1-0.1,0.2-0.2,0.2c-0.1,0-0.2-0.1-0.2-0.2
			s0.1-0.2,0.2-0.2C77.6,61.8,77.7,61.8,77.7,62L77.7,62z M75.7,61.6c0,0.1-0.1,0.2-0.2,0.2c-0.1,0-0.2-0.1-0.2-0.2
			c0-0.1,0.1-0.2,0.2-0.2C75.6,61.4,75.7,61.5,75.7,61.6L75.7,61.6z M74.5,58c0.2,0,0.3,0.2,0.3,0.3c0,0.2-0.2,0.3-0.3,0.3
			c-0.2,0-0.3-0.2-0.3-0.3S74.3,58,74.5,58L74.5,58z M74.5,57.2c0.2,0,0.3,0.2,0.3,0.3c0,0.2-0.2,0.3-0.3,0.3
			c-0.2,0-0.3-0.2-0.3-0.3C74.2,57.3,74.3,57.2,74.5,57.2L74.5,57.2z M74.5,56.3c0.2,0,0.3,0.2,0.3,0.3c0,0.2-0.2,0.3-0.3,0.3
			c-0.2,0-0.3-0.2-0.3-0.3C74.2,56.5,74.3,56.3,74.5,56.3L74.5,56.3z M73.1,56.4c0.2,0,0.3,0.2,0.3,0.3c0,0.2-0.2,0.3-0.3,0.3
			s-0.3-0.2-0.3-0.3C72.8,56.5,72.9,56.4,73.1,56.4L73.1,56.4z M72.1,56.1c0.2,0,0.3,0.2,0.3,0.3s-0.2,0.3-0.3,0.3s-0.3-0.2-0.3-0.3
			C71.8,56.2,72,56.1,72.1,56.1L72.1,56.1z M71.1,55.9c0.2,0,0.3,0.2,0.3,0.3c0,0.2-0.2,0.3-0.3,0.3s-0.3-0.2-0.3-0.3
			C70.8,56,71,55.9,71.1,55.9L71.1,55.9z M70.1,56c0.2,0,0.3,0.2,0.3,0.3c0,0.2-0.2,0.3-0.3,0.3c-0.2,0-0.3-0.2-0.3-0.3
			S69.9,56,70.1,56L70.1,56z M69.2,56.5c0.2,0,0.3,0.2,0.3,0.3s-0.2,0.3-0.3,0.3s-0.3-0.2-0.3-0.3C68.9,56.7,69,56.5,69.2,56.5
			L69.2,56.5z M68.7,57.5c0.2,0,0.3,0.2,0.3,0.3c0,0.2-0.2,0.3-0.3,0.3s-0.3-0.2-0.3-0.3C68.3,57.6,68.5,57.5,68.7,57.5L68.7,57.5z
			 M68.7,58.5c0.2,0,0.3,0.2,0.3,0.3c0,0.2-0.2,0.3-0.3,0.3s-0.3-0.2-0.3-0.3C68.3,58.6,68.6,58.5,68.7,58.5L68.7,58.5z M69,59.5
			c0.2,0,0.3,0.2,0.3,0.3c0,0.2-0.2,0.3-0.3,0.3s-0.3-0.2-0.3-0.3C68.8,59.6,68.9,59.5,69,59.5L69,59.5z M76.2,56.7
			c0,0.2-0.2,0.3-0.3,0.3c-0.2,0-0.3-0.2-0.3-0.3s0.2-0.3,0.3-0.3C76.1,56.4,76.2,56.5,76.2,56.7L76.2,56.7z M77.2,56.4
			c0,0.2-0.2,0.3-0.3,0.3c-0.2,0-0.3-0.2-0.3-0.3c0-0.2,0.2-0.3,0.3-0.3C77.1,56.1,77.2,56.2,77.2,56.4L77.2,56.4z M78.2,56.2
			c0,0.2-0.2,0.3-0.3,0.3s-0.3-0.2-0.3-0.3c0-0.2,0.2-0.3,0.3-0.3C78.1,55.9,78.2,56,78.2,56.2L78.2,56.2z M79.2,56.3
			c0,0.2-0.2,0.3-0.3,0.3s-0.3-0.2-0.3-0.3s0.2-0.3,0.3-0.3S79.2,56.2,79.2,56.3L79.2,56.3z M80.1,56.9c0,0.2-0.2,0.3-0.3,0.3
			c-0.2,0-0.3-0.2-0.3-0.3s0.2-0.3,0.3-0.3C79.9,56.6,80.1,56.7,80.1,56.9L80.1,56.9z M80.6,57.8c0,0.2-0.2,0.3-0.3,0.3
			c-0.2,0-0.3-0.2-0.3-0.3c0-0.2,0.2-0.3,0.3-0.3C80.5,57.5,80.6,57.6,80.6,57.8L80.6,57.8z M80.6,58.9c0,0.2-0.2,0.3-0.3,0.3
			s-0.3-0.2-0.3-0.3s0.2-0.3,0.3-0.3C80.5,58.5,80.6,58.6,80.6,58.9L80.6,58.9z M80.2,59.8c0,0.2-0.2,0.3-0.3,0.3s-0.3-0.2-0.3-0.3
			s0.2-0.3,0.3-0.3S80.2,59.6,80.2,59.8L80.2,59.8z M77.3,64.5l0.3-0.2c0.6-0.3,0.8-0.6,0.8-0.9c0-0.5-1.7-1.1-3.9-1.1
			s-3.9,0.6-3.9,1.2c0,0.3,0.2,0.6,0.8,0.9l0.3,0.2c0,0.1-0.2,0-0.3-0.1c-0.7-0.2-1.2-0.6-1.2-1c0-0.9,2.2-1.4,4.3-1.4
			c2.1,0,4.3,0.5,4.3,1.4c0,0.4-0.5,0.8-1.2,1C77.6,64.5,77.3,64.5,77.3,64.5L77.3,64.5z M74.5,61.1c-1.3,0-2.5,0.2-3.4,0.5
			c-0.4,0.2-0.6,0.3-0.8,0.4c-0.1,0.1-0.1,0.1-0.2,0C70,62,70,61.9,69.9,61.8c-0.1-0.2-0.2-0.7-0.5-1.3c-0.1-0.1,0.1-0.2,0.1-0.1
			c0.2,0.2,0.6,0.9,0.6,1.2l0,0l0,0c0.2-0.1,0.4-0.2,0.7-0.3c0.9-0.3,2.2-0.5,3.5-0.5l0,0c1.4,0,2.6,0.2,3.5,0.5
			c0.3,0.1,0.5,0.2,0.7,0.3l0,0l0,0c0.1-0.2,0.5-0.9,0.6-1.2c0.1-0.1,0.2,0,0.1,0.1c-0.3,0.6-0.4,1.2-0.5,1.3c0,0.1-0.1,0.2-0.2,0.2
			c-0.1,0-0.1,0-0.2,0c-0.2-0.2-0.5-0.3-0.8-0.4C77.1,61.3,75.9,61.1,74.5,61.1L74.5,61.1L74.5,61.1z M75.2,55.6
			c0,0.1-0.1,0.2-0.2,0.2h-0.3V56c0,0.1-0.1,0.2-0.2,0.2c-0.1,0-0.2-0.1-0.2-0.2v-0.3h-0.3c-0.1,0-0.2-0.1-0.2-0.2s0.1-0.2,0.2-0.2
			h0.3v-0.3c0-0.1,0.1-0.2,0.2-0.2s0.2,0.1,0.2,0.2v0.3h0.3C75.1,55.4,75.2,55.5,75.2,55.6z M74.5,62.8c1.2,0,3.5,0.2,3.5,0.9
			c0,0.7-2.3,0.9-3.5,0.9S71,64.4,71,63.7C71,63,73.3,62.8,74.5,62.8z M79.8,58.2c0,0.9-0.7,1.9-1,2.3l0,0l0,0l0,0
			c-0.2,0.3-0.5,0.5-1,0.4c-0.2-0.1-0.5-0.2-0.6-0.4c-0.1-0.2-0.2-0.3,0.1-0.5c0.1-0.1,0.2-0.2,0.2-0.1c0.1,0,0.1,0.2,0,0.2
			c-0.1,0.1-0.1,0.2,0.1,0.3c0.1,0.1,0.2,0,0.2-0.1c0,0-0.2-0.2,0-0.3c0.2-0.1,0.5-0.4,0-0.6c-0.3-0.2-0.6,0.3-0.6,0.4
			c-0.1,0.1-0.1,0.1-0.1-0.1c0.1-0.3,0.4-0.5,0.4-0.8c0.1-0.3-0.2-0.5-0.2-0.6c-0.1-0.1-0.1-0.1-0.2,0c-0.2,0.1-0.4,0.2-0.4,0.5
			c-0.1,0.4,0.2,0.5,0.1,0.9c0,0.1-0.1,0.1-0.1,0c0-0.1-0.1-0.6-0.5-0.6c-0.5,0-0.3,0.4-0.2,0.5c0.1,0.2-0.1,0.2-0.1,0.2
			c0,0.1,0.1,0.2,0.2,0.2c0.2,0,0.2-0.2,0.2-0.3c-0.1-0.1,0.1-0.2,0.1-0.2c0.1,0,0.2,0.1,0.2,0.2c0.1,0.3-0.1,0.4-0.2,0.5
			c-0.2,0.2-0.6,0.2-0.8,0.2c-0.7-0.1-0.7-0.5-0.7-0.5c0.2,0.1,0.5,0.2,0.5,0.2s0,0,0.1,0c0.1,0,0.1-0.1,0.1-0.1v-0.6
			c0-0.1-0.1-0.1-0.1-0.1h-0.1l-0.5,0.2l0.2-0.4V59c0-0.1-0.1-0.1-0.1-0.1h-0.4h-0.4c-0.1,0-0.1,0.1-0.1,0.1v0.1l0.2,0.4l-0.5-0.2
			h-0.1c-0.1,0-0.1,0.1-0.1,0.1V60c0,0.1,0.1,0.1,0.1,0.1c0,0,0,0,0.1,0c0,0,0.3-0.1,0.5-0.2c0,0-0.1,0.4-0.7,0.5
			c-0.2,0-0.5,0.1-0.8-0.2c-0.2-0.1-0.2-0.3-0.2-0.5c0-0.1,0.1-0.2,0.2-0.2c0.1,0,0.2,0.1,0.1,0.2c-0.1,0.1,0.1,0.2,0.2,0.3
			c0.2,0,0.2-0.1,0.2-0.2c0,0-0.2-0.1-0.1-0.2c0.1-0.2,0.2-0.5-0.2-0.5c-0.4,0-0.5,0.5-0.5,0.6c0,0.1-0.1,0.1-0.1,0
			c-0.1-0.3,0.2-0.5,0.1-0.9c-0.1-0.3-0.3-0.4-0.4-0.5c-0.1,0-0.2,0-0.2,0c-0.1,0.1-0.3,0.3-0.2,0.6c0.1,0.4,0.4,0.5,0.4,0.8
			c0,0.1-0.1,0.1-0.1,0.1c-0.1-0.1-0.3-0.5-0.6-0.4c-0.4,0.2-0.2,0.5,0,0.6c0.2,0.2,0,0.2,0,0.3c0,0.1,0.1,0.1,0.2,0.1
			c0.2-0.1,0.2-0.2,0.1-0.3c-0.1-0.1,0-0.2,0-0.2c0.1-0.1,0.2,0.1,0.2,0.1c0.2,0.2,0.1,0.4,0.1,0.5c-0.2,0.3-0.4,0.3-0.6,0.4
			c-0.5,0.2-0.8-0.1-1-0.4l0,0l0,0l0,0c-0.3-0.4-1-1.4-1-2.3s0.8-1.6,1.8-1.6c0.5,0,0.9,0.2,1.3,0.3c0.5,0.2,0.9,0.3,1.3,0.3v-0.9
			c0-0.1,0.1-0.2,0.2-0.2c0.1,0,0.2,0.1,0.2,0.2v2.4h1.2v-2.4c0-0.1,0.1-0.2,0.2-0.2c0.1,0,0.2,0.1,0.2,0.2v0.9
			c0.5,0.1,0.8-0.1,1.4-0.3c0.4-0.2,0.8-0.3,1.3-0.3C79.1,56.7,79.8,57.3,79.8,58.2z M74.5,64.3c2,0,3.1-0.4,3.1-0.6
			c0-0.2-1-0.6-3.1-0.6s-3.1,0.4-3.1,0.6C71.4,63.9,72.4,64.3,74.5,64.3z M73.6,57.6c-0.1,0-0.2,0-0.3,0c0.1,0.1,0.2,0.1,0.3,0.2
			V57.6z M79.4,59c0.1-0.2,0.2-0.5,0.2-0.7c0-0.7-0.6-1.2-1.5-1.2c-0.4,0-0.8,0.2-1.2,0.3c-0.2,0.1-0.3,0.2-0.5,0.2
			c0.1,0,0.1,0,0.2,0c0.5,0,1.1,0.2,1.4,0.5c0.6,0,1,0.2,1.3,0.5C79.3,58.6,79.4,58.8,79.4,59z M75.4,57.6v0.2
			c0.1-0.1,0.2-0.2,0.3-0.2C75.6,57.6,75.5,57.6,75.4,57.6z M78.9,58.7c-0.2-0.3-0.6-0.4-1.2-0.4c-0.1,0-0.1,0-0.2-0.1
			c-0.2-0.2-0.6-0.4-1.2-0.5c-0.3,0-0.8,0.1-1.1,0.4l0,0v0.4c0.2-0.2,0.3-0.3,0.5-0.4c0.1-0.1,0.2-0.1,0.3-0.1
			c0.1,0,0.2,0.1,0.2,0.1c0,0.1-0.3,0.2-0.5,0.3c-0.2,0.2-0.3,0.3-0.4,0.4c0.2-0.1,0.2,0.1,0.2,0.1c0.1-0.1,0.2-0.2,0.5-0.2
			c0.1,0,0.1,0,0.1,0c0-0.1,0-0.1,0-0.1c0.1-0.5,0.5-0.7,0.8-0.7c0.2-0.1,0.3,0.1,0.3,0.1c0.2,0.2,0.5,0.4,0.5,0.8
			c0,0.1,0,0.1,0,0.2v0.1c0.1,0,0.1,0,0.1,0.1c0.3,0.2,0.4,0.4,0.4,0.5v0.1c0,0.2-0.2,0.4-0.2,0.5l0,0c0,0.1,0,0.1,0,0.1
			c0,0.1-0.1,0.2-0.2,0.3h0.1c0.2-0.1,0.4-0.2,0.5-0.6c0.2-0.7-0.6-1.2-0.5-1.4c0.1-0.1,0.2,0,0.2,0c0.4,0.2,0.8,0.6,0.7,1.2
			c0.1-0.1,0.1-0.2,0.2-0.3l0,0C79.2,59.4,79.2,59,78.9,58.7z M72.6,57.5c-0.2-0.1-0.3-0.1-0.5-0.2c-0.4-0.2-0.8-0.3-1.2-0.3
			c-0.8,0-1.5,0.5-1.5,1.2c0,0.2,0.1,0.5,0.2,0.7c0.1-0.2,0.1-0.3,0.2-0.5c0.3-0.4,0.7-0.5,1.3-0.5C71.4,57.8,72,57.5,72.6,57.5
			C72.5,57.5,72.6,57.5,72.6,57.5z M74.8,61.5c0,0.2-0.2,0.3-0.3,0.3s-0.3-0.2-0.3-0.3c0-0.2,0.2-0.3,0.3-0.3S74.8,61.4,74.8,61.5z
			 M73.6,58.2L73.6,58.2c-0.3-0.4-0.8-0.4-1.1-0.4c-0.5,0-1,0.2-1.2,0.5c-0.1,0.1-0.1,0.1-0.2,0.1c-0.5,0-0.9,0.2-1.2,0.4
			c-0.2,0.3-0.2,0.7-0.2,0.9l0,0c0.1,0.1,0.1,0.2,0.2,0.3c-0.1-0.6,0.3-1,0.7-1.2c0,0,0.2-0.1,0.2,0c0.1,0.2-0.7,0.7-0.5,1.4
			c0.2,0.4,0.4,0.6,0.5,0.6H71c-0.1-0.1-0.2-0.2-0.2-0.3c0-0.1,0-0.1,0-0.1l0,0c-0.1-0.1-0.2-0.3-0.2-0.5v-0.1
			c0-0.2,0.1-0.4,0.4-0.5c0.1,0,0.1-0.1,0.1-0.1v-0.1c0-0.1,0-0.1,0-0.2c0-0.4,0.3-0.7,0.5-0.8c0,0,0.2-0.1,0.3-0.1
			c0.2,0.1,0.7,0.3,0.8,0.7c0,0.1,0,0.1,0,0.1c0.1,0,0.1,0,0.2,0c0.2,0,0.4,0.1,0.5,0.2c0-0.1,0.1-0.2,0.2-0.1
			c-0.1-0.2-0.2-0.3-0.4-0.4c-0.2-0.2-0.5-0.3-0.5-0.3c0-0.1,0.1-0.1,0.2-0.1c0.2,0,0.3,0.1,0.3,0.1c0.2,0.1,0.4,0.2,0.5,0.4
			C73.6,58.6,73.6,58.2,73.6,58.2z"/>
		<g>
			<path class="st1" d="M89.4,53.7H59.8v15c0,4.4,1.2,8.2,2.9,11.4c-0.5,0.2-0.9,0.6-1.4,1.5l-0.6,1.2l-0.4,0.8
				C60.2,83.8,60,84.3,60,85c0,1,0.4,1.9,1.2,2.9c1.3,1.6,3.8,3.3,7,4.5c0,0,0.3,0.1,0.5,0.2c-0.2,0.2-0.5,0.5-0.5,0.5l-0.2,0.2
				l-0.2,0.2l-0.1,0.1c-0.3,0.4-0.5,0.8-0.5,1.4v2.7c0,1.2,1.2,1.8,3.3,1.8h8.2c2.1,0,3.3-0.7,3.3-1.8V95c0-0.6-0.2-1-0.5-1.4
				l-0.1-0.1c-0.1-0.1-0.2-0.2-0.2-0.2l0,0c0,0-0.5-0.5-0.8-0.6c0.2-0.1,0.5-0.2,0.5-0.2c3.1-1.2,5.8-2.9,7-4.5
				c0.8-0.9,1.2-1.9,1.2-2.9c0-0.7-0.2-1.2-0.4-1.6l-0.4-0.8l-0.5-1.2c-0.3-0.6-0.8-1.1-1.4-1.4c1.8-3.2,3-7.1,3-11.5
				C89.4,68.7,89.4,53.7,89.4,53.7z M87.4,81.6l0.5,1.2l0.4,0.8c0.2,0.3,0.3,0.8,0.3,1.4c0,0.9-0.4,1.8-1.1,2.7
				c-1.2,1.5-3.8,3.1-6.8,4.4l-1,0.4l1.2,1l0.2,0.2l0.1,0.1c0.3,0.3,0.4,0.6,0.4,1.2v2.7c0,0.9-1.1,1.5-2.9,1.5h-8.3
				c-1.8,0-2.9-0.5-2.9-1.5V95c0-0.5,0.2-0.8,0.4-1.2l0.1-0.1l0.2-0.2l0.2-0.2l0.9-0.8l-1-0.4c-3.1-1.2-5.6-2.8-6.8-4.4
				c-0.7-0.9-1.1-1.8-1.1-2.7c0-0.6,0.2-1.2,0.3-1.4l0.4-0.8l0.5-1.2c0.4-0.8,0.8-1.2,1.2-1.3c0.1,0.1,0.1,0.2,0.2,0.3
				c-0.2,0.2-0.5,0.3-0.6,0.6c-0.2,0.3-0.3,0.7-0.3,1.1c0,0.4,0.1,0.8,0.2,1.2l0.2,0.6c0,0,0.9-1.4,1.2-1.8c0.1,0.1,0.1,0.2,0.1,0.2
				c0.1,0.3,0.3,0.5,0.6,0.6c0.1,0.1,0.1,0.1,0.2,0.1c0.2,0.3,0.5,0.6,0.7,0.9c-0.5,0.7-1.2,1.6-1.2,1.6l0.2,0.2
				c0.9,0.8,1.8,1.3,2,1.4c0.7,0.4,1.4,0.7,2,1c0.6,0.3,1.2,0.5,1.7,0.8c0.4,0.3,0.8,0.6,1.2,0.9c0.4,0.5,0.6,0.9,0.6,1.6v1.9
				c0,0.6-0.2,0.9-0.4,1.2l-0.5,0.5h6.9l-0.5-0.5c-0.2-0.2-0.4-0.5-0.4-1.2v-2c0-0.6,0.2-1.1,0.5-1.5c0.5-0.4,1-0.8,1.5-1.2
				c0.5-0.3,0.9-0.5,1.5-0.7c0.6-0.3,1.3-0.6,2-1c0.6-0.4,1.4-0.8,2-1.4l0.2-0.2c0,0-0.6-0.9-1.1-1.6c0.2-0.3,0.5-0.6,0.7-0.9
				c0.1,0,0.1,0,0.1,0c0.3-0.2,0.5-0.4,0.6-0.6c0,0,0.1-0.1,0.1-0.2c0.3,0.4,1.2,1.8,1.2,1.8l0.2-0.6c0.2-0.4,0.2-0.8,0.2-1.2
				c0-0.4-0.1-0.8-0.3-1.1c-0.2-0.2-0.4-0.4-0.6-0.5c0.1-0.1,0.1-0.2,0.2-0.2C86.7,80.6,87.1,81,87.4,81.6z M65.6,84.3
				c1.2,1.5,2.5,2.8,3.6,3.8C69,88,68.8,88,68.7,87.9c-0.6-0.3-1.3-0.6-2-1c-0.2-0.2-1.1-0.6-2-1.4C64.8,85.5,65.2,84.9,65.6,84.3z
				 M77.2,95.1c-0.6,0-4.8,0-5.4,0c0.2-0.3,0.5-0.7,0.5-1.4v-1.9c0-0.4-0.1-0.8-0.2-1.1c1.2,0.8,2,1.4,2,1.4l0.4,0.2L75,92
				c0.1,0,0.8-0.5,1.9-1.3c-0.1,0.3-0.2,0.6-0.2,1v1.9C76.7,94.4,77,94.7,77.2,95.1z M80,88.1c1.2-1,2.4-2.3,3.5-3.8l0.8,1.2
				c-0.6,0.5-1.4,1-2,1.4c-0.6,0.4-1.3,0.7-1.9,0.9C80.3,88,80.2,88.1,80,88.1z M83.3,84.1c-1.5,1.8-3.1,3.4-4.5,4.6L77.2,90
				c-1.4,1.1-2.4,1.6-2.5,1.7c0,0-0.2,0.1-0.2,0.2c-0.1-0.1-0.2-0.2-0.2-0.2c-0.1,0-1.2-0.6-2.7-1.8l-1.3-1
				c-1.5-1.2-3.1-2.8-4.7-4.8l-0.2-0.3c-0.2-0.2-0.3-0.4-0.4-0.5L64.9,83c-0.5-0.7-0.9-1.4-1.4-2.1l-0.2-0.3
				c-0.1-0.1-0.1-0.2-0.2-0.3L63,80c-1.7-3.1-2.9-6.9-2.9-11.3c0,0,0-14.3,0-14.6c0.3,0,28.6,0,28.9,0c0,0.3,0,14.6,0,14.6
				c0,4.4-1.2,8.2-3,11.3l-0.2,0.3c-0.1,0.1-0.1,0.2-0.2,0.2l-0.2,0.3c-0.2,0.2-0.3,0.5-0.5,0.7L85,81.8c-0.3,0.4-0.5,0.8-0.8,1.2
				l-0.3,0.4c-0.2,0.2-0.3,0.4-0.5,0.6L83.3,84.1z"/>
		</g>
		<path class="st1" d="M65.9,40.5c-0.1,0.1-0.2,0.2-0.2,0.2c-0.1,0-0.2-0.2-0.2-0.3s0.7-0.3,0.7-0.3c0.1,0.1-0.1,0.3-0.1,0.3
			S66,40.4,65.9,40.5z"/>
		<path class="st1" d="M68.7,35.9l0.1-0.1c0.1,0.2,0.4,0.5,0.4,0.5s-0.1,0.3-0.1,0.4c-0.1,0.1-0.1,0-0.1,0s-0.1-0.5-0.1-0.4
			S68.8,36.1,68.7,35.9z"/>
		<path class="st1" d="M73.9,33.1c0-0.2,0-0.4,0-0.4s0.3,0.5,0.3,0.6s-0.2,0.2-0.2,0.2c-0.1,0.1-0.2,0.2-0.2,0.2l-0.1-0.2
			C73.8,33.7,73.9,33.3,73.9,33.1z"/>
		<path class="st1" d="M69.7,34.9c0.1,0.1,0.6,0.2,0.7,0.2c0,0.1,0.1,0.2-0.1,0.2c-0.2,0.1-0.2-0.2-0.4-0.3
			C69.9,35,69.7,34.9,69.7,34.9C69.7,34.9,69.7,34.9,69.7,34.9"/>
		<path class="st1" d="M79.6,34.5c-0.1,0.1-0.3,0.4-0.3,0.5c0,0.1,0.2,0,0.2,0s0.4-0.4,0.5-0.4S79.6,34.5,79.6,34.5z"/>
	</g>
</g>
<g>
	<g>
		<defs>
			<rect id="SVGID_1_" y="0" width="313" height="130"/>
		</defs>
		<clipPath id="SVGID_00000035491815765010460450000007922763644456550076_">
			<use xlink:href="#SVGID_1_"  style="overflow:visible;"/>
		</clipPath>
	</g>
	<g>
		<defs>
			<rect id="SVGID_00000050653428793505305580000007940444491113926529_" y="0" width="313" height="130"/>
		</defs>
		<clipPath id="SVGID_00000123431726923186224210000002228894695094237628_">
			<use xlink:href="#SVGID_00000050653428793505305580000007940444491113926529_"  style="overflow:visible;"/>
		</clipPath>
	</g>
	<g>
		<defs>
			<rect id="SVGID_00000102530109440813074120000004015481965821432235_" y="0" width="313" height="130"/>
		</defs>
		<clipPath id="SVGID_00000021078010276241419730000012808132385383770778_">
			<use xlink:href="#SVGID_00000102530109440813074120000004015481965821432235_"  style="overflow:visible;"/>
		</clipPath>
	</g>
	<g>
		<defs>
			<rect id="SVGID_00000164482355739770642980000010771304805497002636_" y="0" width="313" height="130"/>
		</defs>
		<clipPath id="SVGID_00000165198200956379299950000001435722872541888932_">
			<use xlink:href="#SVGID_00000164482355739770642980000010771304805497002636_"  style="overflow:visible;"/>
		</clipPath>
	</g>
	<g>
		<defs>
			<rect id="SVGID_00000054975538271435636900000000714797267246767008_" y="0" width="313" height="130"/>
		</defs>
		<clipPath id="SVGID_00000152950157737555803690000000742866147782309044_">
			<use xlink:href="#SVGID_00000054975538271435636900000000714797267246767008_"  style="overflow:visible;"/>
		</clipPath>
	</g>
	<g>
		<defs>
			<rect id="SVGID_00000057118549171680651250000001604244544668267199_" y="0" width="313" height="130"/>
		</defs>
		<clipPath id="SVGID_00000152972439787245811180000004240484321767183551_">
			<use xlink:href="#SVGID_00000057118549171680651250000001604244544668267199_"  style="overflow:visible;"/>
		</clipPath>
	</g>
	<g>
		<defs>
			<rect id="SVGID_00000080186647552637856910000008563267531457852859_" y="0" width="313" height="130"/>
		</defs>
		<clipPath id="SVGID_00000064312377642378641650000017464023210367186344_">
			<use xlink:href="#SVGID_00000080186647552637856910000008563267531457852859_"  style="overflow:visible;"/>
		</clipPath>
	</g>
	<g>
		<defs>
			<rect id="SVGID_00000049909701100163316530000017969129297295042199_" y="0" width="313" height="130"/>
		</defs>
		<clipPath id="SVGID_00000176031935341483004150000013868280802954922924_">
			<use xlink:href="#SVGID_00000049909701100163316530000017969129297295042199_"  style="overflow:visible;"/>
		</clipPath>
	</g>
	<g>
		<defs>
			<rect id="SVGID_00000043431581795066721060000011491045881369583025_" y="0" width="313" height="130"/>
		</defs>
		<clipPath id="SVGID_00000000200678159330267710000001119545487214811530_">
			<use xlink:href="#SVGID_00000043431581795066721060000011491045881369583025_"  style="overflow:visible;"/>
		</clipPath>
	</g>
	<g>
		<defs>
			<rect id="SVGID_00000155119583293183309610000011629621442256381824_" y="0" width="313" height="130"/>
		</defs>
		<clipPath id="SVGID_00000057859616071262025490000002157116449730611381_">
			<use xlink:href="#SVGID_00000155119583293183309610000011629621442256381824_"  style="overflow:visible;"/>
		</clipPath>
	</g>
</g>
</svg>
